<?xml version="1.0" encoding="UTF-8" standalone="no"?>
<!DOCTYPE svg PUBLIC "-//W3C//DTD SVG 1.1//EN"
 "http://www.w3.org/Graphics/SVG/1.1/DTD/svg11.dtd">
<!-- Generated by graphviz version 2.43.0 (0)
 -->
<!-- Title: G Pages: 1 -->
<svg width="427pt" height="222pt"
 viewBox="0.00 0.00 427.29 222.20" xmlns="http://www.w3.org/2000/svg" xmlns:xlink="http://www.w3.org/1999/xlink">
<g id="graph0" class="graph" transform="scale(1 1) rotate(0) translate(21.6 200.6)">
<title>G</title>
<polygon fill="#111111" stroke="transparent" points="-21.6,21.6 -21.6,-200.6 405.69,-200.6 405.69,21.6 -21.6,21.6"/>
<!-- App.tsx -->
<g id="node1" class="node">
<title>App.tsx</title>
<path fill="none" stroke="#c6c5fe" d="M135.03,-112.49C135.03,-112.49 88.37,-112.49 88.37,-112.49 84.53,-112.49 80.7,-108.66 80.7,-104.82 80.7,-104.82 80.7,-97.16 80.7,-97.16 80.7,-93.32 84.53,-89.49 88.37,-89.49 88.37,-89.49 135.03,-89.49 135.03,-89.49 138.87,-89.49 142.7,-93.32 142.7,-97.16 142.7,-97.16 142.7,-104.82 142.7,-104.82 142.7,-108.66 138.87,-112.49 135.03,-112.49"/>
<text text-anchor="middle" x="111.7" y="-97.29" font-family="Arial" font-size="14.00" fill="#c6c5fe">App.tsx</text>
</g>
<!-- pages/GameSetup.tsx -->
<g id="node2" class="node">
<title>pages/GameSetup.tsx</title>
<path fill="none" stroke="#c6c5fe" d="M206.61,-72.91C206.61,-72.91 69.94,-72.91 69.94,-72.91 66.11,-72.91 62.27,-69.08 62.27,-65.24 62.27,-65.24 62.27,-57.58 62.27,-57.58 62.27,-53.74 66.11,-49.91 69.94,-49.91 69.94,-49.91 206.61,-49.91 206.61,-49.91 210.44,-49.91 214.27,-53.74 214.27,-57.58 214.27,-57.58 214.27,-65.24 214.27,-65.24 214.27,-69.08 210.44,-72.91 206.61,-72.91"/>
<text text-anchor="middle" x="138.27" y="-57.71" font-family="Arial" font-size="14.00" fill="#c6c5fe">pages/GameSetup.tsx</text>
</g>
<!-- App.tsx&#45;&gt;pages/GameSetup.tsx -->
<g id="edge1" class="edge">
<title>App.tsx&#45;&gt;pages/GameSetup.tsx</title>
<path fill="none" stroke="#757575" d="M119.53,-89.33C121.19,-86.85 122.99,-84.17 124.79,-81.49"/>
<polygon fill="#757575" stroke="#757575" points="127.74,-83.38 130.41,-73.12 121.93,-79.48 127.74,-83.38"/>
</g>
<!-- pages/Homepage.tsx -->
<g id="node3" class="node">
<title>pages/Homepage.tsx</title>
<path fill="none" stroke="#c6c5fe" d="M184.54,-111.27C184.54,-111.27 54.87,-111.27 54.87,-111.27 51.04,-111.27 47.2,-107.43 47.2,-103.6 47.2,-103.6 47.2,-95.93 47.2,-95.93 47.2,-92.1 51.04,-88.27 54.87,-88.27 54.87,-88.27 184.54,-88.27 184.54,-88.27 188.37,-88.27 192.2,-92.1 192.2,-95.93 192.2,-95.93 192.2,-103.6 192.2,-103.6 192.2,-107.43 188.37,-111.27 184.54,-111.27"/>
<text text-anchor="middle" x="119.7" y="-96.07" font-family="Arial" font-size="14.00" fill="#c6c5fe">pages/Homepage.tsx</text>
</g>
<!-- App.tsx&#45;&gt;pages/Homepage.tsx -->
<g id="edge2" class="edge">
<title>App.tsx&#45;&gt;pages/Homepage.tsx</title>
<path fill="none" stroke="#757575" d="M119.61,-99.78C119.63,-99.78 119.64,-99.78 119.65,-99.77"/>
<polygon fill="#757575" stroke="#757575" points="110.33,-104.77 119.68,-99.77 109.26,-97.85 110.33,-104.77"/>
</g>
<!-- pages/Join.tsx -->
<g id="node4" class="node">
<title>pages/Join.tsx</title>
<path fill="none" stroke="#c6c5fe" d="M181.48,-88.91C181.48,-88.91 93.82,-88.91 93.82,-88.91 89.98,-88.91 86.15,-85.08 86.15,-81.25 86.15,-81.25 86.15,-73.58 86.15,-73.58 86.15,-69.75 89.98,-65.91 93.82,-65.91 93.82,-65.91 181.48,-65.91 181.48,-65.91 185.32,-65.91 189.15,-69.75 189.15,-73.58 189.15,-73.58 189.15,-81.25 189.15,-81.25 189.15,-85.08 185.32,-88.91 181.48,-88.91"/>
<text text-anchor="middle" x="137.65" y="-73.71" font-family="Arial" font-size="14.00" fill="#c6c5fe">pages/Join.tsx</text>
</g>
<!-- App.tsx&#45;&gt;pages/Join.tsx -->
<g id="edge3" class="edge">
<title>App.tsx&#45;&gt;pages/Join.tsx</title>
<path fill="none" stroke="#757575" d="M124.37,-89.48C124.47,-89.38 124.58,-89.29 124.68,-89.2"/>
<polygon fill="#757575" stroke="#757575" points="119.94,-98.23 124.99,-88.92 115.23,-93.05 119.94,-98.23"/>
</g>
<!-- pages/Lobby.tsx -->
<g id="node5" class="node">
<title>pages/Lobby.tsx</title>
<path fill="none" stroke="#c6c5fe" d="M137.02,-108.15C137.02,-108.15 38.36,-108.15 38.36,-108.15 34.52,-108.15 30.69,-104.32 30.69,-100.49 30.69,-100.49 30.69,-92.82 30.69,-92.82 30.69,-88.99 34.52,-85.15 38.36,-85.15 38.36,-85.15 137.02,-85.15 137.02,-85.15 140.86,-85.15 144.69,-88.99 144.69,-92.82 144.69,-92.82 144.69,-100.49 144.69,-100.49 144.69,-104.32 140.86,-108.15 137.02,-108.15"/>
<text text-anchor="middle" x="87.69" y="-92.95" font-family="Arial" font-size="14.00" fill="#c6c5fe">pages/Lobby.tsx</text>
</g>
<!-- App.tsx&#45;&gt;pages/Lobby.tsx -->
<g id="edge4" class="edge">
<title>App.tsx&#45;&gt;pages/Lobby.tsx</title>
<path fill="none" stroke="#757575" d="M87.76,-96.67C87.75,-96.66 87.74,-96.66 87.73,-96.66"/>
<polygon fill="#757575" stroke="#757575" points="98.18,-95.03 87.71,-96.66 96.91,-101.92 98.18,-95.03"/>
</g>
<!-- pages/Quiz.tsx -->
<g id="node6" class="node">
<title>pages/Quiz.tsx</title>
<path fill="none" stroke="#c6c5fe" d="M119.78,-68.83C119.78,-68.83 28.11,-68.83 28.11,-68.83 24.28,-68.83 20.44,-64.99 20.44,-61.16 20.44,-61.16 20.44,-53.49 20.44,-53.49 20.44,-49.66 24.28,-45.83 28.11,-45.83 28.11,-45.83 119.78,-45.83 119.78,-45.83 123.61,-45.83 127.44,-49.66 127.44,-53.49 127.44,-53.49 127.44,-61.16 127.44,-61.16 127.44,-64.99 123.61,-68.83 119.78,-68.83"/>
<text text-anchor="middle" x="73.94" y="-53.63" font-family="Arial" font-size="14.00" fill="#c6c5fe">pages/Quiz.tsx</text>
</g>
<!-- App.tsx&#45;&gt;pages/Quiz.tsx -->
<g id="edge5" class="edge">
<title>App.tsx&#45;&gt;pages/Quiz.tsx</title>
<path fill="none" stroke="#757575" d="M101.38,-89.06C98.08,-85.24 94.34,-80.91 90.71,-76.71"/>
<polygon fill="#757575" stroke="#757575" points="93.18,-74.22 83.99,-68.94 87.88,-78.79 93.18,-74.22"/>
</g>
<!-- pages/Results.tsx -->
<g id="node7" class="node">
<title>pages/Results.tsx</title>
<path fill="none" stroke="#c6c5fe" d="M157.53,-113.36C157.53,-113.36 49.87,-113.36 49.87,-113.36 46.03,-113.36 42.2,-109.53 42.2,-105.69 42.2,-105.69 42.2,-98.03 42.2,-98.03 42.2,-94.19 46.03,-90.36 49.87,-90.36 49.87,-90.36 157.53,-90.36 157.53,-90.36 161.37,-90.36 165.2,-94.19 165.2,-98.03 165.2,-98.03 165.2,-105.69 165.2,-105.69 165.2,-109.53 161.37,-113.36 157.53,-113.36"/>
<text text-anchor="middle" x="103.7" y="-98.16" font-family="Arial" font-size="14.00" fill="#c6c5fe">pages/Results.tsx</text>
</g>
<!-- App.tsx&#45;&gt;pages/Results.tsx -->
<g id="edge6" class="edge">
<title>App.tsx&#45;&gt;pages/Results.tsx</title>
<path fill="none" stroke="#757575" d="M103.79,-101.85C103.78,-101.85 103.76,-101.85 103.75,-101.85"/>
<polygon fill="#757575" stroke="#757575" points="113.28,-97.26 103.72,-101.86 114.05,-104.22 113.28,-97.26"/>
</g>
<!-- atoms/index.ts -->
<g id="node8" class="node">
<title>atoms/index.ts</title>
<path fill="none" stroke="#c6c5fe" d="M124.02,-100.83C124.02,-100.83 35.35,-100.83 35.35,-100.83 31.52,-100.83 27.69,-97 27.69,-93.17 27.69,-93.17 27.69,-85.5 27.69,-85.5 27.69,-81.67 31.52,-77.83 35.35,-77.83 35.35,-77.83 124.02,-77.83 124.02,-77.83 127.85,-77.83 131.69,-81.67 131.69,-85.5 131.69,-85.5 131.69,-93.17 131.69,-93.17 131.69,-97 127.85,-100.83 124.02,-100.83"/>
<text text-anchor="middle" x="79.69" y="-85.63" font-family="Arial" font-size="14.00" fill="#c6c5fe">atoms/index.ts</text>
</g>
<!-- pages/GameSetup.tsx&#45;&gt;atoms/index.ts -->
<g id="edge32" class="edge">
<title>pages/GameSetup.tsx&#45;&gt;atoms/index.ts</title>
<path fill="none" stroke="#757575" d="M114.11,-72.93C113.9,-73.03 113.7,-73.12 113.49,-73.22"/>
<polygon fill="#757575" stroke="#757575" points="111.7,-70.2 104.18,-77.66 114.71,-76.52 111.7,-70.2"/>
</g>
<!-- lib/mutations.ts -->
<g id="node11" class="node">
<title>lib/mutations.ts</title>
<path fill="none" stroke="#c6c5fe" d="M180.89,-64.91C180.89,-64.91 89.23,-64.91 89.23,-64.91 85.39,-64.91 81.56,-61.08 81.56,-57.24 81.56,-57.24 81.56,-49.58 81.56,-49.58 81.56,-45.74 85.39,-41.91 89.23,-41.91 89.23,-41.91 180.89,-41.91 180.89,-41.91 184.73,-41.91 188.56,-45.74 188.56,-49.58 188.56,-49.58 188.56,-57.24 188.56,-57.24 188.56,-61.08 184.73,-64.91 180.89,-64.91"/>
<text text-anchor="middle" x="135.06" y="-49.71" font-family="Arial" font-size="14.00" fill="#c6c5fe">lib/mutations.ts</text>
</g>
<!-- pages/GameSetup.tsx&#45;&gt;lib/mutations.ts -->
<g id="edge35" class="edge">
<title>pages/GameSetup.tsx&#45;&gt;lib/mutations.ts</title>
<path fill="none" stroke="#757575" d="M135.1,-53.5C135.09,-53.48 135.09,-53.47 135.08,-53.46"/>
<polygon fill="#757575" stroke="#757575" points="142.07,-61.4 135.07,-53.43 135.57,-64.03 142.07,-61.4"/>
</g>
<!-- components/Alert.tsx -->
<g id="node12" class="node">
<title>components/Alert.tsx</title>
<path fill="none" stroke="#cfffac" d="M197.54,-96.91C197.54,-96.91 69.88,-96.91 69.88,-96.91 66.04,-96.91 62.21,-93.08 62.21,-89.25 62.21,-89.25 62.21,-81.58 62.21,-81.58 62.21,-77.75 66.04,-73.91 69.88,-73.91 69.88,-73.91 197.54,-73.91 197.54,-73.91 201.38,-73.91 205.21,-77.75 205.21,-81.58 205.21,-81.58 205.21,-89.25 205.21,-89.25 205.21,-93.08 201.38,-96.91 197.54,-96.91"/>
<text text-anchor="middle" x="133.71" y="-81.71" font-family="Arial" font-size="14.00" fill="#cfffac">components/Alert.tsx</text>
</g>
<!-- pages/GameSetup.tsx&#45;&gt;components/Alert.tsx -->
<g id="edge33" class="edge">
<title>pages/GameSetup.tsx&#45;&gt;components/Alert.tsx</title>
<path fill="none" stroke="#757575" d="M136.05,-73.13C136.03,-73.23 136.01,-73.32 135.99,-73.42"/>
<polygon fill="#757575" stroke="#757575" points="134.37,-63.22 135.94,-73.7 141.25,-64.53 134.37,-63.22"/>
</g>
<!-- components/LobbyStatus.tsx -->
<g id="node15" class="node">
<title>components/LobbyStatus.tsx</title>
<path fill="none" stroke="#c6c5fe" d="M199.77,-47.4C199.77,-47.4 24.1,-47.4 24.1,-47.4 20.27,-47.4 16.44,-43.57 16.44,-39.74 16.44,-39.74 16.44,-32.07 16.44,-32.07 16.44,-28.24 20.27,-24.4 24.1,-24.4 24.1,-24.4 199.77,-24.4 199.77,-24.4 203.6,-24.4 207.44,-28.24 207.44,-32.07 207.44,-32.07 207.44,-39.74 207.44,-39.74 207.44,-43.57 203.6,-47.4 199.77,-47.4"/>
<text text-anchor="middle" x="111.94" y="-32.2" font-family="Arial" font-size="14.00" fill="#c6c5fe">components/LobbyStatus.tsx</text>
</g>
<!-- pages/GameSetup.tsx&#45;&gt;components/LobbyStatus.tsx -->
<g id="edge34" class="edge">
<title>pages/GameSetup.tsx&#45;&gt;components/LobbyStatus.tsx</title>
<path fill="none" stroke="#757575" d="M126.34,-49.85C126.24,-49.76 126.15,-49.67 126.05,-49.57"/>
<polygon fill="#757575" stroke="#757575" points="133.66,-52.07 124.04,-47.63 128.79,-57.1 133.66,-52.07"/>
</g>
<!-- lib/supabaseClient.ts -->
<g id="node16" class="node">
<title>lib/supabaseClient.ts</title>
<path fill="none" stroke="#cfffac" d="M158.77,-48.58C158.77,-48.58 33.1,-48.58 33.1,-48.58 29.27,-48.58 25.43,-44.75 25.43,-40.92 25.43,-40.92 25.43,-33.25 25.43,-33.25 25.43,-29.42 29.27,-25.58 33.1,-25.58 33.1,-25.58 158.77,-25.58 158.77,-25.58 162.6,-25.58 166.43,-29.42 166.43,-33.25 166.43,-33.25 166.43,-40.92 166.43,-40.92 166.43,-44.75 162.6,-48.58 158.77,-48.58"/>
<text text-anchor="middle" x="95.93" y="-33.38" font-family="Arial" font-size="14.00" fill="#cfffac">lib/supabaseClient.ts</text>
</g>
<!-- pages/GameSetup.tsx&#45;&gt;lib/supabaseClient.ts -->
<g id="edge37" class="edge">
<title>pages/GameSetup.tsx&#45;&gt;lib/supabaseClient.ts</title>
<path fill="none" stroke="#757575" d="M118.1,-49.82C118.01,-49.77 117.92,-49.72 117.84,-49.67"/>
<polygon fill="#757575" stroke="#757575" points="126.46,-50.59 116.05,-48.64 122.98,-56.66 126.46,-50.59"/>
</g>
<!-- lib/types.ts -->
<g id="node24" class="node">
<title>lib/types.ts</title>
<path fill="none" stroke="#c6c5fe" d="M112.26,-60.82C112.26,-60.82 47.59,-60.82 47.59,-60.82 43.76,-60.82 39.93,-56.99 39.93,-53.16 39.93,-53.16 39.93,-45.49 39.93,-45.49 39.93,-41.66 43.76,-37.82 47.59,-37.82 47.59,-37.82 112.26,-37.82 112.26,-37.82 116.09,-37.82 119.93,-41.66 119.93,-45.49 119.93,-45.49 119.93,-53.16 119.93,-53.16 119.93,-56.99 116.09,-60.82 112.26,-60.82"/>
<text text-anchor="middle" x="79.93" y="-45.62" font-family="Arial" font-size="14.00" fill="#c6c5fe">lib/types.ts</text>
</g>
<!-- pages/GameSetup.tsx&#45;&gt;lib/types.ts -->
<g id="edge38" class="edge">
<title>pages/GameSetup.tsx&#45;&gt;lib/types.ts</title>
<path fill="none" stroke="#757575" d="M82.74,-49.91C82.69,-49.9 82.63,-49.88 82.58,-49.87"/>
<polygon fill="#757575" stroke="#757575" points="92.92,-48.45 82.42,-49.84 91.5,-55.3 92.92,-48.45"/>
</g>
<!-- lib/presence.ts -->
<g id="node26" class="node">
<title>lib/presence.ts</title>
<path fill="none" stroke="#c6c5fe" d="M172.28,-56.9C172.28,-56.9 83.61,-56.9 83.61,-56.9 79.78,-56.9 75.95,-53.07 75.95,-49.24 75.95,-49.24 75.95,-41.57 75.95,-41.57 75.95,-37.74 79.78,-33.9 83.61,-33.9 83.61,-33.9 172.28,-33.9 172.28,-33.9 176.11,-33.9 179.95,-37.74 179.95,-41.57 179.95,-41.57 179.95,-49.24 179.95,-49.24 179.95,-53.07 176.11,-56.9 172.28,-56.9"/>
<text text-anchor="middle" x="127.95" y="-41.7" font-family="Arial" font-size="14.00" fill="#c6c5fe">lib/presence.ts</text>
</g>
<!-- pages/GameSetup.tsx&#45;&gt;lib/presence.ts -->
<g id="edge36" class="edge">
<title>pages/GameSetup.tsx&#45;&gt;lib/presence.ts</title>
<path fill="none" stroke="#757575" d="M130.77,-49.78C130.72,-49.7 130.67,-49.62 130.62,-49.55"/>
<polygon fill="#757575" stroke="#757575" points="138.84,-55.82 130.47,-49.32 132.96,-59.62 138.84,-55.82"/>
</g>
<!-- components/ActiveGames.tsx -->
<g id="node10" class="node">
<title>components/ActiveGames.tsx</title>
<path fill="none" stroke="#c6c5fe" d="M218.54,-104.92C218.54,-104.92 36.87,-104.92 36.87,-104.92 33.04,-104.92 29.2,-101.09 29.2,-97.25 29.2,-97.25 29.2,-89.59 29.2,-89.59 29.2,-85.75 33.04,-81.92 36.87,-81.92 36.87,-81.92 218.54,-81.92 218.54,-81.92 222.37,-81.92 226.2,-85.75 226.2,-89.59 226.2,-89.59 226.2,-97.25 226.2,-97.25 226.2,-101.09 222.37,-104.92 218.54,-104.92"/>
<text text-anchor="middle" x="127.7" y="-89.72" font-family="Arial" font-size="14.00" fill="#c6c5fe">components/ActiveGames.tsx</text>
</g>
<!-- pages/Homepage.tsx&#45;&gt;components/ActiveGames.tsx -->
<g id="edge39" class="edge">
<title>pages/Homepage.tsx&#45;&gt;components/ActiveGames.tsx</title>
<path fill="none" stroke="#757575" d="M127.61,-93.49C127.63,-93.48 127.64,-93.47 127.65,-93.46"/>
<polygon fill="#757575" stroke="#757575" points="122.02,-102.41 127.68,-93.44 117.66,-96.92 122.02,-102.41"/>
</g>
<!-- pages/Homepage.tsx&#45;&gt;lib/mutations.ts -->
<g id="edge42" class="edge">
<title>pages/Homepage.tsx&#45;&gt;lib/mutations.ts</title>
<path fill="none" stroke="#757575" d="M123.58,-88.07C124.93,-83.97 126.5,-79.24 128.04,-74.61"/>
<polygon fill="#757575" stroke="#757575" points="131.42,-75.54 131.24,-64.94 124.77,-73.33 131.42,-75.54"/>
</g>
<!-- pages/Homepage.tsx&#45;&gt;components/Alert.tsx -->
<g id="edge40" class="edge">
<title>pages/Homepage.tsx&#45;&gt;components/Alert.tsx</title>
<path fill="none" stroke="#757575" d="M131.01,-88.18C131.06,-88.13 131.11,-88.08 131.16,-88.03"/>
<polygon fill="#757575" stroke="#757575" points="126.82,-97.48 131.3,-87.88 121.81,-92.59 126.82,-97.48"/>
</g>
<!-- components/PasswordModal.tsx -->
<g id="node18" class="node">
<title>components/PasswordModal.tsx</title>
<path fill="none" stroke="#cfffac" d="M225.32,-119.27C225.32,-119.27 28.65,-119.27 28.65,-119.27 24.82,-119.27 20.98,-115.44 20.98,-111.6 20.98,-111.6 20.98,-103.94 20.98,-103.94 20.98,-100.1 24.82,-96.27 28.65,-96.27 28.65,-96.27 225.32,-96.27 225.32,-96.27 229.15,-96.27 232.98,-100.1 232.98,-103.94 232.98,-103.94 232.98,-111.6 232.98,-111.6 232.98,-115.44 229.15,-119.27 225.32,-119.27"/>
<text text-anchor="middle" x="126.98" y="-104.07" font-family="Arial" font-size="14.00" fill="#cfffac">components/PasswordModal.tsx</text>
</g>
<!-- pages/Homepage.tsx&#45;&gt;components/PasswordModal.tsx -->
<g id="edge41" class="edge">
<title>pages/Homepage.tsx&#45;&gt;components/PasswordModal.tsx</title>
<path fill="none" stroke="#757575" d="M126.9,-107.68C126.92,-107.69 126.93,-107.71 126.94,-107.72"/>
<polygon fill="#757575" stroke="#757575" points="117.63,-102.7 126.96,-107.75 122.82,-97.98 117.63,-102.7"/>
</g>
<!-- pages/Join.tsx&#45;&gt;lib/mutations.ts -->
<g id="edge45" class="edge">
<title>pages/Join.tsx&#45;&gt;lib/mutations.ts</title>
<path fill="none" stroke="#757575" d="M136.39,-65.69C136.38,-65.6 136.37,-65.5 136.36,-65.41"/>
<polygon fill="#757575" stroke="#757575" points="140.88,-74.69 136.32,-65.12 133.92,-75.44 140.88,-74.69"/>
</g>
<!-- pages/Join.tsx&#45;&gt;components/Alert.tsx -->
<g id="edge43" class="edge">
<title>pages/Join.tsx&#45;&gt;components/Alert.tsx</title>
<path fill="none" stroke="#757575" d="M133.76,-85.32C133.75,-85.34 133.74,-85.35 133.74,-85.36"/>
<polygon fill="#757575" stroke="#757575" points="135.02,-74.86 133.72,-85.39 141.3,-77.97 135.02,-74.86"/>
</g>
<!-- pages/Join.tsx&#45;&gt;lib/supabaseClient.ts -->
<g id="edge46" class="edge">
<title>pages/Join.tsx&#45;&gt;lib/supabaseClient.ts</title>
<path fill="none" stroke="#757575" d="M125.36,-65.53C122.19,-62.47 118.7,-59.1 115.27,-55.78"/>
<polygon fill="#757575" stroke="#757575" points="117.61,-53.17 107.99,-48.74 112.75,-58.21 117.61,-53.17"/>
</g>
<!-- components/TeamLogoPicker.tsx -->
<g id="node20" class="node">
<title>components/TeamLogoPicker.tsx</title>
<path fill="none" stroke="#c6c5fe" d="M237.59,-80.91C237.59,-80.91 36.92,-80.91 36.92,-80.91 33.09,-80.91 29.26,-77.08 29.26,-73.24 29.26,-73.24 29.26,-65.58 29.26,-65.58 29.26,-61.74 33.09,-57.91 36.92,-57.91 36.92,-57.91 237.59,-57.91 237.59,-57.91 241.42,-57.91 245.26,-61.74 245.26,-65.58 245.26,-65.58 245.26,-73.24 245.26,-73.24 245.26,-77.08 241.42,-80.91 237.59,-80.91"/>
<text text-anchor="middle" x="137.26" y="-65.71" font-family="Arial" font-size="14.00" fill="#c6c5fe">components/TeamLogoPicker.tsx</text>
</g>
<!-- pages/Join.tsx&#45;&gt;components/TeamLogoPicker.tsx -->
<g id="edge44" class="edge">
<title>pages/Join.tsx&#45;&gt;components/TeamLogoPicker.tsx</title>
<path fill="none" stroke="#757575" d="M137.26,-69.5C137.26,-69.49 137.26,-69.47 137.26,-69.46"/>
<polygon fill="#757575" stroke="#757575" points="141.28,-79.24 137.26,-69.43 134.29,-79.61 141.28,-79.24"/>
</g>
<!-- pages/Lobby.tsx&#45;&gt;atoms/index.ts -->
<g id="edge47" class="edge">
<title>pages/Lobby.tsx&#45;&gt;atoms/index.ts</title>
<path fill="none" stroke="#757575" d="M79.78,-89.42C79.76,-89.4 79.75,-89.39 79.74,-89.38"/>
<polygon fill="#757575" stroke="#757575" points="89.46,-93.53 79.71,-89.36 84.73,-98.7 89.46,-93.53"/>
</g>
<!-- lib/types/supabase.ts -->
<g id="node9" class="node">
<title>lib/types/supabase.ts</title>
<path fill="none" stroke="#cfffac" d="M135.33,-84.83C135.33,-84.83 7.67,-84.83 7.67,-84.83 3.83,-84.83 0,-81 0,-77.17 0,-77.17 0,-69.5 0,-69.5 0,-65.67 3.83,-61.83 7.67,-61.83 7.67,-61.83 135.33,-61.83 135.33,-61.83 139.17,-61.83 143,-65.67 143,-69.5 143,-69.5 143,-77.17 143,-77.17 143,-81 139.17,-84.83 135.33,-84.83"/>
<text text-anchor="middle" x="71.5" y="-69.63" font-family="Arial" font-size="14.00" fill="#cfffac">lib/types/supabase.ts</text>
</g>
<!-- pages/Lobby.tsx&#45;&gt;lib/types/supabase.ts -->
<g id="edge51" class="edge">
<title>pages/Lobby.tsx&#45;&gt;lib/types/supabase.ts</title>
<path fill="none" stroke="#757575" d="M79.6,-84.99C79.56,-84.95 79.53,-84.9 79.5,-84.86"/>
<polygon fill="#757575" stroke="#757575" points="87.99,-90.94 79.41,-84.72 82.24,-94.93 87.99,-90.94"/>
</g>
<!-- pages/Lobby.tsx&#45;&gt;lib/mutations.ts -->
<g id="edge48" class="edge">
<title>pages/Lobby.tsx&#45;&gt;lib/mutations.ts</title>
<path fill="none" stroke="#757575" d="M100.63,-84.84C104.99,-80.86 109.95,-76.33 114.73,-71.97"/>
<polygon fill="#757575" stroke="#757575" points="117.43,-74.24 122.46,-64.91 112.71,-69.07 117.43,-74.24"/>
</g>
<!-- pages/Lobby.tsx&#45;&gt;lib/supabaseClient.ts -->
<g id="edge50" class="edge">
<title>pages/Lobby.tsx&#45;&gt;lib/supabaseClient.ts</title>
<path fill="none" stroke="#757575" d="M89.32,-84.88C90.35,-77.46 91.7,-67.64 92.92,-58.84"/>
<polygon fill="#757575" stroke="#757575" points="96.4,-59.21 94.31,-48.83 89.47,-58.25 96.4,-59.21"/>
</g>
<!-- lib/sessionHooks.ts -->
<g id="node29" class="node">
<title>lib/sessionHooks.ts</title>
<path fill="none" stroke="#c6c5fe" d="M154.03,-112.21C154.03,-112.21 37.36,-112.21 37.36,-112.21 33.53,-112.21 29.7,-108.38 29.7,-104.55 29.7,-104.55 29.7,-96.88 29.7,-96.88 29.7,-93.05 33.53,-89.21 37.36,-89.21 37.36,-89.21 154.03,-89.21 154.03,-89.21 157.86,-89.21 161.7,-93.05 161.7,-96.88 161.7,-96.88 161.7,-104.55 161.7,-104.55 161.7,-108.38 157.86,-112.21 154.03,-112.21"/>
<text text-anchor="middle" x="95.7" y="-97.01" font-family="Arial" font-size="14.00" fill="#c6c5fe">lib/sessionHooks.ts</text>
</g>
<!-- pages/Lobby.tsx&#45;&gt;lib/sessionHooks.ts -->
<g id="edge49" class="edge">
<title>pages/Lobby.tsx&#45;&gt;lib/sessionHooks.ts</title>
<path fill="none" stroke="#757575" d="M95.61,-100.67C95.62,-100.67 95.64,-100.68 95.65,-100.69"/>
<polygon fill="#757575" stroke="#757575" points="85.16,-99.29 95.67,-100.7 88.34,-93.04 85.16,-99.29"/>
</g>
<!-- pages/Quiz.tsx&#45;&gt;lib/mutations.ts -->
<g id="edge52" class="edge">
<title>pages/Quiz.tsx&#45;&gt;lib/mutations.ts</title>
<path fill="none" stroke="#757575" d="M127.57,-53.89C127.64,-53.88 127.71,-53.88 127.78,-53.88"/>
<polygon fill="#757575" stroke="#757575" points="118.24,-58 127.99,-53.86 117.78,-51.01 118.24,-58"/>
</g>
<!-- pages/Quiz.tsx&#45;&gt;lib/types.ts -->
<g id="edge55" class="edge">
<title>pages/Quiz.tsx&#45;&gt;lib/types.ts</title>
<path fill="none" stroke="#757575" d="M79.86,-49.41C79.87,-49.4 79.88,-49.39 79.89,-49.38"/>
<polygon fill="#757575" stroke="#757575" points="76.71,-59.46 79.91,-49.35 71.1,-55.26 76.71,-59.46"/>
</g>
<!-- lib/realtimeHooks.ts -->
<g id="node27" class="node">
<title>lib/realtimeHooks.ts</title>
<path fill="none" stroke="#c6c5fe" d="M131.38,-76.83C131.38,-76.83 11.71,-76.83 11.71,-76.83 7.88,-76.83 4.05,-73 4.05,-69.16 4.05,-69.16 4.05,-61.5 4.05,-61.5 4.05,-57.66 7.88,-53.83 11.71,-53.83 11.71,-53.83 131.38,-53.83 131.38,-53.83 135.21,-53.83 139.05,-57.66 139.05,-61.5 139.05,-61.5 139.05,-69.16 139.05,-69.16 139.05,-73 135.21,-76.83 131.38,-76.83"/>
<text text-anchor="middle" x="71.55" y="-61.63" font-family="Arial" font-size="14.00" fill="#c6c5fe">lib/realtimeHooks.ts</text>
</g>
<!-- pages/Quiz.tsx&#45;&gt;lib/realtimeHooks.ts -->
<g id="edge53" class="edge">
<title>pages/Quiz.tsx&#45;&gt;lib/realtimeHooks.ts</title>
<path fill="none" stroke="#757575" d="M71.57,-65.24C71.57,-65.26 71.56,-65.27 71.56,-65.28"/>
<polygon fill="#757575" stroke="#757575" points="71.09,-54.71 71.55,-65.31 77.8,-56.74 71.09,-54.71"/>
</g>
<!-- pages/Quiz.tsx&#45;&gt;lib/sessionHooks.ts -->
<g id="edge54" class="edge">
<title>pages/Quiz.tsx&#45;&gt;lib/sessionHooks.ts</title>
<path fill="none" stroke="#757575" d="M79.89,-69.18C81.59,-72.58 83.51,-76.4 85.39,-80.16"/>
<polygon fill="#757575" stroke="#757575" points="82.3,-81.8 89.91,-89.17 88.56,-78.66 82.3,-81.8"/>
</g>
<!-- pages/Results.tsx&#45;&gt;lib/mutations.ts -->
<g id="edge56" class="edge">
<title>pages/Results.tsx&#45;&gt;lib/mutations.ts</title>
<path fill="none" stroke="#757575" d="M111.29,-90.13C114.53,-85.13 118.4,-79.16 122.06,-73.49"/>
<polygon fill="#757575" stroke="#757575" points="125.04,-75.33 127.54,-65.03 119.17,-71.52 125.04,-75.33"/>
</g>
<!-- pages/Results.tsx&#45;&gt;lib/supabaseClient.ts -->
<g id="edge58" class="edge">
<title>pages/Results.tsx&#45;&gt;lib/supabaseClient.ts</title>
<path fill="none" stroke="#757575" d="M102.31,-90.28C101.27,-81.64 99.83,-69.56 98.57,-59.11"/>
<polygon fill="#757575" stroke="#757575" points="102.03,-58.51 97.36,-49 95.08,-59.35 102.03,-58.51"/>
</g>
<!-- pages/Results.tsx&#45;&gt;lib/sessionHooks.ts -->
<g id="edge57" class="edge">
<title>pages/Results.tsx&#45;&gt;lib/sessionHooks.ts</title>
<path fill="none" stroke="#757575" d="M95.79,-100.73C95.77,-100.72 95.76,-100.72 95.75,-100.72"/>
<polygon fill="#757575" stroke="#757575" points="106.13,-98.7 95.72,-100.72 105.11,-105.63 106.13,-98.7"/>
</g>
<!-- atoms/index.ts&#45;&gt;lib/types/supabase.ts -->
<g id="edge7" class="edge">
<title>atoms/index.ts&#45;&gt;lib/types/supabase.ts</title>
<path fill="none" stroke="#757575" d="M73.74,-77.71C73.7,-77.63 73.66,-77.55 73.62,-77.48"/>
<polygon fill="#757575" stroke="#757575" points="81.18,-84.56 73.5,-77.25 74.94,-87.75 81.18,-84.56"/>
</g>
<!-- components/ActiveGames.tsx&#45;&gt;lib/mutations.ts -->
<g id="edge8" class="edge">
<title>components/ActiveGames.tsx&#45;&gt;lib/mutations.ts</title>
<path fill="none" stroke="#757575" d="M129.87,-81.63C130.26,-79.5 130.68,-77.21 131.11,-74.9"/>
<polygon fill="#757575" stroke="#757575" points="134.57,-75.44 132.93,-64.97 127.68,-74.18 134.57,-75.44"/>
</g>
<!-- lib/mutations.ts&#45;&gt;lib/supabaseClient.ts -->
<g id="edge19" class="edge">
<title>lib/mutations.ts&#45;&gt;lib/supabaseClient.ts</title>
<path fill="none" stroke="#757575" d="M107.46,-41.89C107.41,-41.87 107.36,-41.85 107.31,-41.83"/>
<polygon fill="#757575" stroke="#757575" points="117.74,-42.39 107.16,-41.77 115.04,-48.85 117.74,-42.39"/>
</g>
<!-- lib/mutations.ts&#45;&gt;lib/types.ts -->
<g id="edge20" class="edge">
<title>lib/mutations.ts&#45;&gt;lib/types.ts</title>
<path fill="none" stroke="#757575" d="M81.29,-49.43C81.07,-49.41 80.88,-49.39 80.71,-49.38"/>
<polygon fill="#757575" stroke="#757575" points="90.51,-46.6 80.28,-49.35 89.99,-53.58 90.51,-46.6"/>
</g>
<!-- components/Flag.tsx -->
<g id="node13" class="node">
<title>components/Flag.tsx</title>
<path fill="none" stroke="#c6c5fe" d="M362.83,-23C362.83,-23 236.17,-23 236.17,-23 232.33,-23 228.5,-19.17 228.5,-15.33 228.5,-15.33 228.5,-7.67 228.5,-7.67 228.5,-3.83 232.33,0 236.17,0 236.17,0 362.83,0 362.83,0 366.67,0 370.5,-3.83 370.5,-7.67 370.5,-7.67 370.5,-15.33 370.5,-15.33 370.5,-19.17 366.67,-23 362.83,-23"/>
<text text-anchor="middle" x="299.5" y="-7.8" font-family="Arial" font-size="14.00" fill="#c6c5fe">components/Flag.tsx</text>
</g>
<!-- lib/flagIcons.ts -->
<g id="node14" class="node">
<title>lib/flagIcons.ts</title>
<path fill="none" stroke="#cfffac" d="M350.83,-23C350.83,-23 264.17,-23 264.17,-23 260.33,-23 256.5,-19.17 256.5,-15.33 256.5,-15.33 256.5,-7.67 256.5,-7.67 256.5,-3.83 260.33,0 264.17,0 264.17,0 350.83,0 350.83,0 354.67,0 358.5,-3.83 358.5,-7.67 358.5,-7.67 358.5,-15.33 358.5,-15.33 358.5,-19.17 354.67,-23 350.83,-23"/>
<text text-anchor="middle" x="307.5" y="-7.8" font-family="Arial" font-size="14.00" fill="#cfffac">lib/flagIcons.ts</text>
</g>
<!-- components/Flag.tsx&#45;&gt;lib/flagIcons.ts -->
<g id="edge9" class="edge">
<title>components/Flag.tsx&#45;&gt;lib/flagIcons.ts</title>
<path fill="none" stroke="#757575" d="M307.41,-11.5C307.42,-11.5 307.44,-11.5 307.45,-11.5"/>
<polygon fill="#757575" stroke="#757575" points="297.49,-15.04 307.48,-11.5 297.46,-8.04 297.49,-15.04"/>
</g>
<!-- components/LobbyStatus.tsx&#45;&gt;lib/supabaseClient.ts -->
<g id="edge10" class="edge">
<title>components/LobbyStatus.tsx&#45;&gt;lib/supabaseClient.ts</title>
<path fill="none" stroke="#757575" d="M95.98,-37.08C95.97,-37.08 95.96,-37.08 95.96,-37.08"/>
<polygon fill="#757575" stroke="#757575" points="105.64,-32.79 95.94,-37.08 106.2,-39.77 105.64,-32.79"/>
</g>
<!-- components/PasswordModal.test.tsx -->
<g id="node17" class="node">
<title>components/PasswordModal.test.tsx</title>
<path fill="none" stroke="#c6c5fe" d="M242.81,-127.27C242.81,-127.27 20.14,-127.27 20.14,-127.27 16.31,-127.27 12.47,-123.44 12.47,-119.61 12.47,-119.61 12.47,-111.94 12.47,-111.94 12.47,-108.11 16.31,-104.27 20.14,-104.27 20.14,-104.27 242.81,-104.27 242.81,-104.27 246.64,-104.27 250.47,-108.11 250.47,-111.94 250.47,-111.94 250.47,-119.61 250.47,-119.61 250.47,-123.44 246.64,-127.27 242.81,-127.27"/>
<text text-anchor="middle" x="131.47" y="-112.07" font-family="Arial" font-size="14.00" fill="#c6c5fe">components/PasswordModal.test.tsx</text>
</g>
<!-- components/PasswordModal.test.tsx&#45;&gt;components/PasswordModal.tsx -->
<g id="edge11" class="edge">
<title>components/PasswordModal.test.tsx&#45;&gt;components/PasswordModal.tsx</title>
<path fill="none" stroke="#757575" d="M127.03,-107.86C127.03,-107.84 127.02,-107.83 127.01,-107.82"/>
<polygon fill="#757575" stroke="#757575" points="134.96,-114.8 127,-107.79 128.85,-118.24 134.96,-114.8"/>
</g>
<!-- components/TeamLogoPicker.test.tsx -->
<g id="node19" class="node">
<title>components/TeamLogoPicker.test.tsx</title>
<path fill="none" stroke="#c6c5fe" d="M259.27,-81.01C259.27,-81.01 32.61,-81.01 32.61,-81.01 28.77,-81.01 24.94,-77.18 24.94,-73.34 24.94,-73.34 24.94,-65.68 24.94,-65.68 24.94,-61.84 28.77,-58.01 32.61,-58.01 32.61,-58.01 259.27,-58.01 259.27,-58.01 263.11,-58.01 266.94,-61.84 266.94,-65.68 266.94,-65.68 266.94,-73.34 266.94,-73.34 266.94,-77.18 263.11,-81.01 259.27,-81.01"/>
<text text-anchor="middle" x="145.94" y="-65.81" font-family="Arial" font-size="14.00" fill="#c6c5fe">components/TeamLogoPicker.test.tsx</text>
</g>
<!-- components/TeamLogoPicker.test.tsx&#45;&gt;components/TeamLogoPicker.tsx -->
<g id="edge12" class="edge">
<title>components/TeamLogoPicker.test.tsx&#45;&gt;components/TeamLogoPicker.tsx</title>
<path fill="none" stroke="#757575" d="M137.35,-69.41C137.34,-69.41 137.32,-69.41 137.31,-69.41"/>
<polygon fill="#757575" stroke="#757575" points="147.33,-66.06 137.28,-69.41 147.23,-73.06 147.33,-66.06"/>
</g>
<!-- components/TeamLogoPicker.tsx&#45;&gt;lib/supabaseClient.ts -->
<g id="edge13" class="edge">
<title>components/TeamLogoPicker.tsx&#45;&gt;lib/supabaseClient.ts</title>
<path fill="none" stroke="#757575" d="M122.34,-57.74C121.15,-56.81 119.94,-55.86 118.72,-54.91"/>
<polygon fill="#757575" stroke="#757575" points="120.72,-52.03 110.69,-48.63 116.41,-57.55 120.72,-52.03"/>
</g>
<!-- index.css -->
<g id="node21" class="node">
<title>index.css</title>
<path fill="none" stroke="#cfffac" d="M145.89,-128.84C145.89,-128.84 88.22,-128.84 88.22,-128.84 84.39,-128.84 80.56,-125.01 80.56,-121.17 80.56,-121.17 80.56,-113.51 80.56,-113.51 80.56,-109.67 84.39,-105.84 88.22,-105.84 88.22,-105.84 145.89,-105.84 145.89,-105.84 149.72,-105.84 153.56,-109.67 153.56,-113.51 153.56,-113.51 153.56,-121.17 153.56,-121.17 153.56,-125.01 149.72,-128.84 145.89,-128.84"/>
<text text-anchor="middle" x="117.06" y="-113.64" font-family="Arial" font-size="14.00" fill="#cfffac">index.css</text>
</g>
<!-- lib/createSession.test.ts -->
<g id="node22" class="node">
<title>lib/createSession.test.ts</title>
<path fill="none" stroke="#c6c5fe" d="M175.77,-46.95C175.77,-46.95 32.1,-46.95 32.1,-46.95 28.27,-46.95 24.43,-43.11 24.43,-39.28 24.43,-39.28 24.43,-31.61 24.43,-31.61 24.43,-27.78 28.27,-23.95 32.1,-23.95 32.1,-23.95 175.77,-23.95 175.77,-23.95 179.6,-23.95 183.43,-27.78 183.43,-31.61 183.43,-31.61 183.43,-39.28 183.43,-39.28 183.43,-43.11 179.6,-46.95 175.77,-46.95"/>
<text text-anchor="middle" x="103.93" y="-31.75" font-family="Arial" font-size="14.00" fill="#c6c5fe">lib/createSession.test.ts</text>
</g>
<!-- lib/createSession.test.ts&#45;&gt;lib/mutations.ts -->
<g id="edge14" class="edge">
<title>lib/createSession.test.ts&#45;&gt;lib/mutations.ts</title>
<path fill="none" stroke="#757575" d="M124.17,-47.13C124.22,-47.15 124.27,-47.18 124.31,-47.21"/>
<polygon fill="#757575" stroke="#757575" points="114.04,-45.32 124.45,-47.29 117.54,-39.25 114.04,-45.32"/>
</g>
<!-- lib/createSession.test.ts&#45;&gt;lib/supabaseClient.ts -->
<g id="edge15" class="edge">
<title>lib/createSession.test.ts&#45;&gt;lib/supabaseClient.ts</title>
<path fill="none" stroke="#757575" d="M96.02,-37.06C96.01,-37.07 95.99,-37.07 95.98,-37.07"/>
<polygon fill="#757575" stroke="#757575" points="105.04,-31.62 95.95,-37.08 106.46,-38.47 105.04,-31.62"/>
</g>
<!-- lib/mutations.test.ts -->
<g id="node23" class="node">
<title>lib/mutations.test.ts</title>
<path fill="none" stroke="#c6c5fe" d="M146.76,-53C146.76,-53 29.09,-53 29.09,-53 25.26,-53 21.43,-49.16 21.43,-45.33 21.43,-45.33 21.43,-37.66 21.43,-37.66 21.43,-33.83 25.26,-30 29.09,-30 29.09,-30 146.76,-30 146.76,-30 150.59,-30 154.43,-33.83 154.43,-37.66 154.43,-37.66 154.43,-45.33 154.43,-45.33 154.43,-49.16 150.59,-53 146.76,-53"/>
<text text-anchor="middle" x="87.93" y="-37.8" font-family="Arial" font-size="14.00" fill="#c6c5fe">lib/mutations.test.ts</text>
</g>
<!-- lib/mutations.test.ts&#45;&gt;lib/mutations.ts -->
<g id="edge16" class="edge">
<title>lib/mutations.test.ts&#45;&gt;lib/mutations.ts</title>
<path fill="none" stroke="#757575" d="M133.49,-53.01C133.74,-53.08 133.97,-53.13 134.16,-53.18"/>
<polygon fill="#757575" stroke="#757575" points="124.1,-54.25 134.65,-53.31 125.82,-47.46 124.1,-54.25"/>
</g>
<!-- lib/mutations.test.ts&#45;&gt;lib/supabaseClient.ts -->
<g id="edge17" class="edge">
<title>lib/mutations.test.ts&#45;&gt;lib/supabaseClient.ts</title>
<path fill="none" stroke="#757575" d="M95.84,-37.13C95.86,-37.12 95.87,-37.12 95.88,-37.11"/>
<polygon fill="#757575" stroke="#757575" points="88.85,-45.01 95.91,-37.09 85.45,-38.88 88.85,-45.01"/>
</g>
<!-- lib/mutations.test.ts&#45;&gt;lib/types.ts -->
<g id="edge18" class="edge">
<title>lib/mutations.test.ts&#45;&gt;lib/types.ts</title>
<path fill="none" stroke="#757575" d="M80.02,-49.24C80,-49.25 79.99,-49.26 79.98,-49.27"/>
<polygon fill="#757575" stroke="#757575" points="84.66,-39.8 79.95,-49.3 89.56,-44.81 84.66,-39.8"/>
</g>
<!-- lib/types/index.ts -->
<g id="node30" class="node">
<title>lib/types/index.ts</title>
<path fill="none" stroke="#c6c5fe" d="M124.16,-92.83C124.16,-92.83 23.5,-92.83 23.5,-92.83 19.66,-92.83 15.83,-89 15.83,-85.17 15.83,-85.17 15.83,-77.5 15.83,-77.5 15.83,-73.67 19.66,-69.83 23.5,-69.83 23.5,-69.83 124.16,-69.83 124.16,-69.83 128,-69.83 131.83,-73.67 131.83,-77.5 131.83,-77.5 131.83,-85.17 131.83,-85.17 131.83,-89 128,-92.83 124.16,-92.83"/>
<text text-anchor="middle" x="73.83" y="-77.63" font-family="Arial" font-size="14.00" fill="#c6c5fe">lib/types/index.ts</text>
</g>
<!-- lib/types.ts&#45;&gt;lib/types/index.ts -->
<g id="edge28" class="edge">
<title>lib/types.ts&#45;&gt;lib/types/index.ts</title>
<path fill="none" stroke="#757575" d="M77.73,-60.88C77.71,-60.97 77.69,-61.06 77.67,-61.15"/>
<polygon fill="#757575" stroke="#757575" points="74.48,-59.21 76.05,-69.69 81.36,-60.52 74.48,-59.21"/>
</g>
<!-- lib/mutations.validation.ts -->
<g id="node25" class="node">
<title>lib/mutations.validation.ts</title>
<path fill="none" stroke="#cfffac" d="M376.42,-179C376.42,-179 223.75,-179 223.75,-179 219.92,-179 216.09,-175.17 216.09,-171.33 216.09,-171.33 216.09,-163.67 216.09,-163.67 216.09,-159.83 219.92,-156 223.75,-156 223.75,-156 376.42,-156 376.42,-156 380.25,-156 384.09,-159.83 384.09,-163.67 384.09,-163.67 384.09,-171.33 384.09,-171.33 384.09,-175.17 380.25,-179 376.42,-179"/>
<text text-anchor="middle" x="300.09" y="-163.8" font-family="Arial" font-size="14.00" fill="#cfffac">lib/mutations.validation.ts</text>
</g>
<!-- lib/presence.ts&#45;&gt;lib/mutations.ts -->
<g id="edge21" class="edge">
<title>lib/presence.ts&#45;&gt;lib/mutations.ts</title>
<path fill="none" stroke="#757575" d="M134.98,-53.32C134.99,-53.33 135,-53.35 135.01,-53.36"/>
<polygon fill="#757575" stroke="#757575" points="125.77,-48.23 135.04,-53.39 131.01,-43.58 125.77,-48.23"/>
</g>
<!-- lib/presence.ts&#45;&gt;lib/supabaseClient.ts -->
<g id="edge22" class="edge">
<title>lib/presence.ts&#45;&gt;lib/supabaseClient.ts</title>
<path fill="none" stroke="#757575" d="M96.02,-37.11C96.01,-37.1 96,-37.1 95.98,-37.1"/>
<polygon fill="#757575" stroke="#757575" points="106.52,-36.24 95.95,-37.09 104.75,-43.02 106.52,-36.24"/>
</g>
<!-- lib/realtimeHooks.ts&#45;&gt;lib/supabaseClient.ts -->
<g id="edge23" class="edge">
<title>lib/realtimeHooks.ts&#45;&gt;lib/supabaseClient.ts</title>
<path fill="none" stroke="#757575" d="M81.75,-53.51C81.83,-53.42 81.92,-53.32 82,-53.22"/>
<polygon fill="#757575" stroke="#757575" points="81.96,-58.62 85.85,-48.76 76.67,-54.04 81.96,-58.62"/>
</g>
<!-- lib/realtimeHooks.ts&#45;&gt;lib/types.ts -->
<g id="edge24" class="edge">
<title>lib/realtimeHooks.ts&#45;&gt;lib/types.ts</title>
<path fill="none" stroke="#757575" d="M77.64,-53.7C77.68,-53.62 77.72,-53.54 77.76,-53.47"/>
<polygon fill="#757575" stroke="#757575" points="76.34,-63.72 77.88,-53.24 70.13,-60.48 76.34,-63.72"/>
</g>
<!-- lib/sessionCode.test.ts -->
<g id="node28" class="node">
<title>lib/sessionCode.test.ts</title>
<path fill="none" stroke="#c6c5fe" d="M188.28,-50.37C188.28,-50.37 51.61,-50.37 51.61,-50.37 47.78,-50.37 43.94,-46.54 43.94,-42.7 43.94,-42.7 43.94,-35.04 43.94,-35.04 43.94,-31.2 47.78,-27.37 51.61,-27.37 51.61,-27.37 188.28,-27.37 188.28,-27.37 192.11,-27.37 195.94,-31.2 195.94,-35.04 195.94,-35.04 195.94,-42.7 195.94,-42.7 195.94,-46.54 192.11,-50.37 188.28,-50.37"/>
<text text-anchor="middle" x="119.94" y="-35.17" font-family="Arial" font-size="14.00" fill="#c6c5fe">lib/sessionCode.test.ts</text>
</g>
<!-- lib/sessionCode.test.ts&#45;&gt;lib/mutations.ts -->
<g id="edge25" class="edge">
<title>lib/sessionCode.test.ts&#45;&gt;lib/mutations.ts</title>
<path fill="none" stroke="#757575" d="M132.15,-50.61C132.2,-50.66 132.25,-50.71 132.3,-50.76"/>
<polygon fill="#757575" stroke="#757575" points="122.83,-46.5 132.46,-50.91 127.68,-41.45 122.83,-46.5"/>
</g>
<!-- lib/sessionCode.test.ts&#45;&gt;lib/supabaseClient.ts -->
<g id="edge26" class="edge">
<title>lib/sessionCode.test.ts&#45;&gt;lib/supabaseClient.ts</title>
<path fill="none" stroke="#757575" d="M96,-37.09C95.99,-37.09 95.98,-37.09 95.97,-37.09"/>
<polygon fill="#757575" stroke="#757575" points="106.2,-34.38 95.95,-37.08 105.65,-41.36 106.2,-34.38"/>
</g>
<!-- lib/sessionHooks.ts&#45;&gt;lib/supabaseClient.ts -->
<g id="edge27" class="edge">
<title>lib/sessionHooks.ts&#45;&gt;lib/supabaseClient.ts</title>
<path fill="none" stroke="#757575" d="M95.74,-89.04C95.77,-80.61 95.81,-68.97 95.85,-58.85"/>
<polygon fill="#757575" stroke="#757575" points="99.35,-58.69 95.89,-48.68 92.35,-58.67 99.35,-58.69"/>
</g>
<!-- lib/types/index.ts&#45;&gt;lib/types/supabase.ts -->
<g id="edge29" class="edge">
<title>lib/types/index.ts&#45;&gt;lib/types/supabase.ts</title>
<path fill="none" stroke="#757575" d="M71.53,-73.42C71.52,-73.41 71.52,-73.4 71.51,-73.39"/>
<polygon fill="#757575" stroke="#757575" points="77.69,-81.97 71.51,-73.36 70.97,-83.95 77.69,-81.97"/>
</g>
<!-- main.tsx -->
<g id="node31" class="node">
<title>main.tsx</title>
<path fill="none" stroke="#c6c5fe" d="M141.52,-120.62C141.52,-120.62 88.85,-120.62 88.85,-120.62 85.02,-120.62 81.19,-116.79 81.19,-112.95 81.19,-112.95 81.19,-105.29 81.19,-105.29 81.19,-101.45 85.02,-97.62 88.85,-97.62 88.85,-97.62 141.52,-97.62 141.52,-97.62 145.35,-97.62 149.19,-101.45 149.19,-105.29 149.19,-105.29 149.19,-112.95 149.19,-112.95 149.19,-116.79 145.35,-120.62 141.52,-120.62"/>
<text text-anchor="middle" x="115.19" y="-105.42" font-family="Arial" font-size="14.00" fill="#c6c5fe">main.tsx</text>
</g>
<!-- main.tsx&#45;&gt;App.tsx -->
<g id="edge30" class="edge">
<title>main.tsx&#45;&gt;App.tsx</title>
<path fill="none" stroke="#757575" d="M111.74,-101.08C111.73,-101.07 111.73,-101.05 111.72,-101.04"/>
<polygon fill="#757575" stroke="#757575" points="118.89,-108.82 111.71,-101.01 112.45,-111.59 118.89,-108.82"/>
</g>
<!-- main.tsx&#45;&gt;index.css -->
<g id="edge31" class="edge">
<title>main.tsx&#45;&gt;index.css</title>
<path fill="none" stroke="#757575" d="M117.04,-117.25C117.04,-117.26 117.04,-117.27 117.04,-117.29"/>
<polygon fill="#757575" stroke="#757575" points="111.39,-108.35 117.05,-117.32 118.22,-106.78 111.39,-108.35"/>
</g>
<!-- setupTests.ts -->
<g id="node32" class="node">
<title>setupTests.ts</title>
<path fill="none" stroke="#cfffac" d="M183.92,-179C183.92,-179 104.25,-179 104.25,-179 100.42,-179 96.59,-175.17 96.59,-171.33 96.59,-171.33 96.59,-163.67 96.59,-163.67 96.59,-159.83 100.42,-156 104.25,-156 104.25,-156 183.92,-156 183.92,-156 187.75,-156 191.59,-159.83 191.59,-163.67 191.59,-163.67 191.59,-171.33 191.59,-171.33 191.59,-175.17 187.75,-179 183.92,-179"/>
<text text-anchor="middle" x="144.09" y="-163.8" font-family="Arial" font-size="14.00" fill="#cfffac">setupTests.ts</text>
</g>
</g>
</svg>
