<?xml version="1.0" encoding="UTF-8" standalone="no"?>
<!DOCTYPE svg PUBLIC "-//W3C//DTD SVG 1.1//EN"
 "http://www.w3.org/Graphics/SVG/1.1/DTD/svg11.dtd">
<!-- Generated by graphviz version 2.43.0 (0)
 -->
<!-- Title: G Pages: 1 -->
<svg width="519pt" height="274pt"
 viewBox="0.00 0.00 519.20 274.20" xmlns="http://www.w3.org/2000/svg" xmlns:xlink="http://www.w3.org/1999/xlink">
<g id="graph0" class="graph" transform="scale(1 1) rotate(0) translate(21.6 252.6)">
<title>G</title>
<polygon fill="#111111" stroke="transparent" points="-21.6,21.6 -21.6,-252.6 497.6,-252.6 497.6,21.6 -21.6,21.6"/>
<!-- App.tsx -->
<g id="node1" class="node">
<title>App.tsx</title>
<path fill="none" stroke="#c6c5fe" d="M134.48,-107.22C134.48,-107.22 87.81,-107.22 87.81,-107.22 83.98,-107.22 80.14,-103.38 80.14,-99.55 80.14,-99.55 80.14,-91.88 80.14,-91.88 80.14,-88.05 83.98,-84.22 87.81,-84.22 87.81,-84.22 134.48,-84.22 134.48,-84.22 138.31,-84.22 142.14,-88.05 142.14,-91.88 142.14,-91.88 142.14,-99.55 142.14,-99.55 142.14,-103.38 138.31,-107.22 134.48,-107.22"/>
<text text-anchor="middle" x="111.14" y="-92.02" font-family="Arial" font-size="14.00" fill="#c6c5fe">App.tsx</text>
</g>
<!-- pages/GameSetup.tsx -->
<g id="node2" class="node">
<title>pages/GameSetup.tsx</title>
<path fill="none" stroke="#c6c5fe" d="M162,-137.51C162,-137.51 25.33,-137.51 25.33,-137.51 21.5,-137.51 17.66,-133.67 17.66,-129.84 17.66,-129.84 17.66,-122.17 17.66,-122.17 17.66,-118.34 21.5,-114.51 25.33,-114.51 25.33,-114.51 162,-114.51 162,-114.51 165.83,-114.51 169.66,-118.34 169.66,-122.17 169.66,-122.17 169.66,-129.84 169.66,-129.84 169.66,-133.67 165.83,-137.51 162,-137.51"/>
<text text-anchor="middle" x="93.66" y="-122.31" font-family="Arial" font-size="14.00" fill="#c6c5fe">pages/GameSetup.tsx</text>
</g>
<!-- App.tsx&#45;&gt;pages/GameSetup.tsx -->
<g id="edge1" class="edge">
<title>App.tsx&#45;&gt;pages/GameSetup.tsx</title>
<path fill="none" stroke="#757575" d="M104.44,-107.34C104.35,-107.48 104.27,-107.63 104.19,-107.77"/>
<polygon fill="#757575" stroke="#757575" points="102.41,-103.85 100.44,-114.26 108.47,-107.35 102.41,-103.85"/>
</g>
<!-- pages/Homepage.tsx -->
<g id="node3" class="node">
<title>pages/Homepage.tsx</title>
<path fill="none" stroke="#c6c5fe" d="M234.81,-142.27C234.81,-142.27 105.15,-142.27 105.15,-142.27 101.31,-142.27 97.48,-138.44 97.48,-134.6 97.48,-134.6 97.48,-126.94 97.48,-126.94 97.48,-123.1 101.31,-119.27 105.15,-119.27 105.15,-119.27 234.81,-119.27 234.81,-119.27 238.65,-119.27 242.48,-123.1 242.48,-126.94 242.48,-126.94 242.48,-134.6 242.48,-134.6 242.48,-138.44 238.65,-142.27 234.81,-142.27"/>
<text text-anchor="middle" x="169.98" y="-127.07" font-family="Arial" font-size="14.00" fill="#c6c5fe">pages/Homepage.tsx</text>
</g>
<!-- App.tsx&#45;&gt;pages/Homepage.tsx -->
<g id="edge2" class="edge">
<title>App.tsx&#45;&gt;pages/Homepage.tsx</title>
<path fill="none" stroke="#757575" d="M130.74,-107.39C134.35,-109.54 138.18,-111.82 141.98,-114.09"/>
<polygon fill="#757575" stroke="#757575" points="140.29,-117.16 150.68,-119.27 143.88,-111.14 140.29,-117.16"/>
</g>
<!-- pages/Join.tsx -->
<g id="node4" class="node">
<title>pages/Join.tsx</title>
<path fill="none" stroke="#c6c5fe" d="M222.46,-126.27C222.46,-126.27 134.79,-126.27 134.79,-126.27 130.96,-126.27 127.12,-122.43 127.12,-118.6 127.12,-118.6 127.12,-110.93 127.12,-110.93 127.12,-107.1 130.96,-103.27 134.79,-103.27 134.79,-103.27 222.46,-103.27 222.46,-103.27 226.29,-103.27 230.12,-107.1 230.12,-110.93 230.12,-110.93 230.12,-118.6 230.12,-118.6 230.12,-122.43 226.29,-126.27 222.46,-126.27"/>
<text text-anchor="middle" x="178.62" y="-111.07" font-family="Arial" font-size="14.00" fill="#c6c5fe">pages/Join.tsx</text>
</g>
<!-- App.tsx&#45;&gt;pages/Join.tsx -->
<g id="edge3" class="edge">
<title>App.tsx&#45;&gt;pages/Join.tsx</title>
<path fill="none" stroke="#757575" d="M142.51,-104.57C142.58,-104.59 142.65,-104.61 142.72,-104.63"/>
<polygon fill="#757575" stroke="#757575" points="132.35,-105.34 142.93,-104.69 134.25,-98.6 132.35,-105.34"/>
</g>
<!-- pages/Lobby.tsx -->
<g id="node5" class="node">
<title>pages/Lobby.tsx</title>
<path fill="none" stroke="#c6c5fe" d="M176.87,-84.4C176.87,-84.4 78.2,-84.4 78.2,-84.4 74.37,-84.4 70.54,-80.57 70.54,-76.74 70.54,-76.74 70.54,-69.07 70.54,-69.07 70.54,-65.24 74.37,-61.4 78.2,-61.4 78.2,-61.4 176.87,-61.4 176.87,-61.4 180.7,-61.4 184.54,-65.24 184.54,-69.07 184.54,-69.07 184.54,-76.74 184.54,-76.74 184.54,-80.57 180.7,-84.4 176.87,-84.4"/>
<text text-anchor="middle" x="127.54" y="-69.2" font-family="Arial" font-size="14.00" fill="#c6c5fe">pages/Lobby.tsx</text>
</g>
<!-- App.tsx&#45;&gt;pages/Lobby.tsx -->
<g id="edge4" class="edge">
<title>App.tsx&#45;&gt;pages/Lobby.tsx</title>
<path fill="none" stroke="#757575" d="M119.53,-84.04C119.56,-84 119.6,-83.96 119.63,-83.91"/>
<polygon fill="#757575" stroke="#757575" points="116.73,-93.95 119.72,-83.78 111.04,-89.86 116.73,-93.95"/>
</g>
<!-- pages/Quiz.tsx -->
<g id="node6" class="node">
<title>pages/Quiz.tsx</title>
<path fill="none" stroke="#c6c5fe" d="M148.97,-113.5C148.97,-113.5 57.31,-113.5 57.31,-113.5 53.47,-113.5 49.64,-109.67 49.64,-105.83 49.64,-105.83 49.64,-98.17 49.64,-98.17 49.64,-94.33 53.47,-90.5 57.31,-90.5 57.31,-90.5 148.97,-90.5 148.97,-90.5 152.81,-90.5 156.64,-94.33 156.64,-98.17 156.64,-98.17 156.64,-105.83 156.64,-105.83 156.64,-109.67 152.81,-113.5 148.97,-113.5"/>
<text text-anchor="middle" x="103.14" y="-98.3" font-family="Arial" font-size="14.00" fill="#c6c5fe">pages/Quiz.tsx</text>
</g>
<!-- App.tsx&#45;&gt;pages/Quiz.tsx -->
<g id="edge5" class="edge">
<title>App.tsx&#45;&gt;pages/Quiz.tsx</title>
<path fill="none" stroke="#757575" d="M103.23,-101.93C103.22,-101.94 103.2,-101.95 103.19,-101.96"/>
<polygon fill="#757575" stroke="#757575" points="108.87,-93.04 103.16,-101.98 113.2,-98.55 108.87,-93.04"/>
</g>
<!-- pages/Results.tsx -->
<g id="node7" class="node">
<title>pages/Results.tsx</title>
<path fill="none" stroke="#c6c5fe" d="M168.21,-99.21C168.21,-99.21 60.55,-99.21 60.55,-99.21 56.71,-99.21 52.88,-95.38 52.88,-91.55 52.88,-91.55 52.88,-83.88 52.88,-83.88 52.88,-80.05 56.71,-76.21 60.55,-76.21 60.55,-76.21 168.21,-76.21 168.21,-76.21 172.05,-76.21 175.88,-80.05 175.88,-83.88 175.88,-83.88 175.88,-91.55 175.88,-91.55 175.88,-95.38 172.05,-99.21 168.21,-99.21"/>
<text text-anchor="middle" x="114.38" y="-84.01" font-family="Arial" font-size="14.00" fill="#c6c5fe">pages/Results.tsx</text>
</g>
<!-- App.tsx&#45;&gt;pages/Results.tsx -->
<g id="edge6" class="edge">
<title>App.tsx&#45;&gt;pages/Results.tsx</title>
<path fill="none" stroke="#757575" d="M114.34,-87.8C114.35,-87.79 114.35,-87.78 114.36,-87.77"/>
<polygon fill="#757575" stroke="#757575" points="113.85,-98.33 114.37,-87.74 107.36,-95.69 113.85,-98.33"/>
</g>
<!-- atoms/index.ts -->
<g id="node8" class="node">
<title>atoms/index.ts</title>
<path fill="none" stroke="#c6c5fe" d="M187.87,-80.6C187.87,-80.6 99.21,-80.6 99.21,-80.6 95.37,-80.6 91.54,-76.77 91.54,-72.94 91.54,-72.94 91.54,-65.27 91.54,-65.27 91.54,-61.44 95.37,-57.6 99.21,-57.6 99.21,-57.6 187.87,-57.6 187.87,-57.6 191.71,-57.6 195.54,-61.44 195.54,-65.27 195.54,-65.27 195.54,-72.94 195.54,-72.94 195.54,-76.77 191.71,-80.6 187.87,-80.6"/>
<text text-anchor="middle" x="143.54" y="-65.4" font-family="Arial" font-size="14.00" fill="#c6c5fe">atoms/index.ts</text>
</g>
<!-- pages/GameSetup.tsx&#45;&gt;atoms/index.ts -->
<g id="edge47" class="edge">
<title>pages/GameSetup.tsx&#45;&gt;atoms/index.ts</title>
<path fill="none" stroke="#757575" d="M103.76,-114.49C110.23,-107.11 118.8,-97.33 126.32,-88.75"/>
<polygon fill="#757575" stroke="#757575" points="129.16,-90.82 133.12,-80.99 123.9,-86.21 129.16,-90.82"/>
</g>
<!-- lib/mutations.ts -->
<g id="node11" class="node">
<title>lib/mutations.ts</title>
<path fill="none" stroke="#c6c5fe" d="M210.54,-158.27C210.54,-158.27 118.88,-158.27 118.88,-158.27 115.04,-158.27 111.21,-154.44 111.21,-150.6 111.21,-150.6 111.21,-142.94 111.21,-142.94 111.21,-139.1 115.04,-135.27 118.88,-135.27 118.88,-135.27 210.54,-135.27 210.54,-135.27 214.38,-135.27 218.21,-139.1 218.21,-142.94 218.21,-142.94 218.21,-150.6 218.21,-150.6 218.21,-154.44 214.38,-158.27 210.54,-158.27"/>
<text text-anchor="middle" x="164.71" y="-143.07" font-family="Arial" font-size="14.00" fill="#c6c5fe">lib/mutations.ts</text>
</g>
<!-- pages/GameSetup.tsx&#45;&gt;lib/mutations.ts -->
<g id="edge50" class="edge">
<title>pages/GameSetup.tsx&#45;&gt;lib/mutations.ts</title>
<path fill="none" stroke="#757575" d="M133.34,-137.6C133.4,-137.62 133.47,-137.64 133.53,-137.66"/>
<polygon fill="#757575" stroke="#757575" points="123.14,-138.26 133.72,-137.71 125.11,-131.55 123.14,-138.26"/>
</g>
<!-- components/Alert.tsx -->
<g id="node12" class="node">
<title>components/Alert.tsx</title>
<path fill="none" stroke="#cfffac" d="M237.78,-134.27C237.78,-134.27 110.12,-134.27 110.12,-134.27 106.28,-134.27 102.45,-130.43 102.45,-126.6 102.45,-126.6 102.45,-118.93 102.45,-118.93 102.45,-115.1 106.28,-111.27 110.12,-111.27 110.12,-111.27 237.78,-111.27 237.78,-111.27 241.62,-111.27 245.45,-115.1 245.45,-118.93 245.45,-118.93 245.45,-126.6 245.45,-126.6 245.45,-130.43 241.62,-134.27 237.78,-134.27"/>
<text text-anchor="middle" x="173.95" y="-119.07" font-family="Arial" font-size="14.00" fill="#cfffac">components/Alert.tsx</text>
</g>
<!-- pages/GameSetup.tsx&#45;&gt;components/Alert.tsx -->
<g id="edge48" class="edge">
<title>pages/GameSetup.tsx&#45;&gt;components/Alert.tsx</title>
<path fill="none" stroke="#757575" d="M170.08,-122.92C170.16,-122.92 170.23,-122.92 170.31,-122.92"/>
<polygon fill="#757575" stroke="#757575" points="160.68,-126.81 170.53,-122.91 160.39,-119.82 160.68,-126.81"/>
</g>
<!-- components/LobbyStatus.tsx -->
<g id="node22" class="node">
<title>components/LobbyStatus.tsx</title>
<path fill="none" stroke="#c6c5fe" d="M183.33,-145.51C183.33,-145.51 7.67,-145.51 7.67,-145.51 3.83,-145.51 0,-141.68 0,-137.84 0,-137.84 0,-130.18 0,-130.18 0,-126.34 3.83,-122.51 7.67,-122.51 7.67,-122.51 183.33,-122.51 183.33,-122.51 187.17,-122.51 191,-126.34 191,-130.18 191,-130.18 191,-137.84 191,-137.84 191,-141.68 187.17,-145.51 183.33,-145.51"/>
<text text-anchor="middle" x="95.5" y="-130.31" font-family="Arial" font-size="14.00" fill="#c6c5fe">components/LobbyStatus.tsx</text>
</g>
<!-- pages/GameSetup.tsx&#45;&gt;components/LobbyStatus.tsx -->
<g id="edge49" class="edge">
<title>pages/GameSetup.tsx&#45;&gt;components/LobbyStatus.tsx</title>
<path fill="none" stroke="#757575" d="M95.48,-133.92C95.48,-133.93 95.49,-133.95 95.49,-133.96"/>
<polygon fill="#757575" stroke="#757575" points="89.82,-125.03 95.49,-133.99 96.64,-123.45 89.82,-125.03"/>
</g>
<!-- lib/supabaseClient.ts -->
<g id="node23" class="node">
<title>lib/supabaseClient.ts</title>
<path fill="none" stroke="#cfffac" d="M171.53,-161.52C171.53,-161.52 45.86,-161.52 45.86,-161.52 42.03,-161.52 38.19,-157.69 38.19,-153.85 38.19,-153.85 38.19,-146.19 38.19,-146.19 38.19,-142.35 42.03,-138.52 45.86,-138.52 45.86,-138.52 171.53,-138.52 171.53,-138.52 175.36,-138.52 179.19,-142.35 179.19,-146.19 179.19,-146.19 179.19,-153.85 179.19,-153.85 179.19,-157.69 175.36,-161.52 171.53,-161.52"/>
<text text-anchor="middle" x="108.69" y="-146.32" font-family="Arial" font-size="14.00" fill="#cfffac">lib/supabaseClient.ts</text>
</g>
<!-- pages/GameSetup.tsx&#45;&gt;lib/supabaseClient.ts -->
<g id="edge52" class="edge">
<title>pages/GameSetup.tsx&#45;&gt;lib/supabaseClient.ts</title>
<path fill="none" stroke="#757575" d="M101,-137.73C101.06,-137.83 101.12,-137.92 101.18,-138.02"/>
<polygon fill="#757575" stroke="#757575" points="93.09,-131.68 101.36,-138.3 99.02,-127.97 93.09,-131.68"/>
</g>
<!-- lib/types.ts -->
<g id="node34" class="node">
<title>lib/types.ts</title>
<path fill="none" stroke="#c6c5fe" d="M125.69,-129.51C125.69,-129.51 61.02,-129.51 61.02,-129.51 57.19,-129.51 53.36,-125.67 53.36,-121.84 53.36,-121.84 53.36,-114.17 53.36,-114.17 53.36,-110.34 57.19,-106.51 61.02,-106.51 61.02,-106.51 125.69,-106.51 125.69,-106.51 129.52,-106.51 133.36,-110.34 133.36,-114.17 133.36,-114.17 133.36,-121.84 133.36,-121.84 133.36,-125.67 129.52,-129.51 125.69,-129.51"/>
<text text-anchor="middle" x="93.36" y="-114.31" font-family="Arial" font-size="14.00" fill="#c6c5fe">lib/types.ts</text>
</g>
<!-- pages/GameSetup.tsx&#45;&gt;lib/types.ts -->
<g id="edge53" class="edge">
<title>pages/GameSetup.tsx&#45;&gt;lib/types.ts</title>
<path fill="none" stroke="#757575" d="M93.36,-118.1C93.36,-118.08 93.36,-118.07 93.36,-118.06"/>
<polygon fill="#757575" stroke="#757575" points="97.27,-127.88 93.36,-118.03 90.28,-128.17 97.27,-127.88"/>
</g>
<!-- lib/presence.ts -->
<g id="node37" class="node">
<title>lib/presence.ts</title>
<path fill="none" stroke="#c6c5fe" d="M145.12,-153.52C145.12,-153.52 56.45,-153.52 56.45,-153.52 52.62,-153.52 48.79,-149.68 48.79,-145.85 48.79,-145.85 48.79,-138.18 48.79,-138.18 48.79,-134.35 52.62,-130.52 56.45,-130.52 56.45,-130.52 145.12,-130.52 145.12,-130.52 148.95,-130.52 152.79,-134.35 152.79,-138.18 152.79,-138.18 152.79,-145.85 152.79,-145.85 152.79,-149.68 148.95,-153.52 145.12,-153.52"/>
<text text-anchor="middle" x="100.79" y="-138.32" font-family="Arial" font-size="14.00" fill="#c6c5fe">lib/presence.ts</text>
</g>
<!-- pages/GameSetup.tsx&#45;&gt;lib/presence.ts -->
<g id="edge51" class="edge">
<title>pages/GameSetup.tsx&#45;&gt;lib/presence.ts</title>
<path fill="none" stroke="#757575" d="M98.84,-137.64C98.87,-137.72 98.91,-137.8 98.94,-137.87"/>
<polygon fill="#757575" stroke="#757575" points="91.78,-130.39 99.04,-138.1 98.17,-127.54 91.78,-130.39"/>
</g>
<!-- components/ActiveGames.tsx -->
<g id="node10" class="node">
<title>components/ActiveGames.tsx</title>
<path fill="none" stroke="#c6c5fe" d="M259.74,-150.27C259.74,-150.27 78.07,-150.27 78.07,-150.27 74.24,-150.27 70.41,-146.44 70.41,-142.6 70.41,-142.6 70.41,-134.94 70.41,-134.94 70.41,-131.1 74.24,-127.27 78.07,-127.27 78.07,-127.27 259.74,-127.27 259.74,-127.27 263.57,-127.27 267.41,-131.1 267.41,-134.94 267.41,-134.94 267.41,-142.6 267.41,-142.6 267.41,-146.44 263.57,-150.27 259.74,-150.27"/>
<text text-anchor="middle" x="168.91" y="-135.07" font-family="Arial" font-size="14.00" fill="#c6c5fe">components/ActiveGames.tsx</text>
</g>
<!-- pages/Homepage.tsx&#45;&gt;components/ActiveGames.tsx -->
<g id="edge54" class="edge">
<title>pages/Homepage.tsx&#45;&gt;components/ActiveGames.tsx</title>
<path fill="none" stroke="#757575" d="M168.92,-138.68C168.92,-138.69 168.91,-138.71 168.91,-138.72"/>
<polygon fill="#757575" stroke="#757575" points="166.8,-128.36 168.91,-138.75 173.74,-129.31 166.8,-128.36"/>
</g>
<!-- pages/Homepage.tsx&#45;&gt;lib/mutations.ts -->
<g id="edge57" class="edge">
<title>pages/Homepage.tsx&#45;&gt;lib/mutations.ts</title>
<path fill="none" stroke="#757575" d="M166.15,-142.4C166.12,-142.47 166.1,-142.55 166.07,-142.63"/>
<polygon fill="#757575" stroke="#757575" points="165.81,-132.26 166,-142.85 172.46,-134.45 165.81,-132.26"/>
</g>
<!-- pages/Homepage.tsx&#45;&gt;components/Alert.tsx -->
<g id="edge55" class="edge">
<title>pages/Homepage.tsx&#45;&gt;components/Alert.tsx</title>
<path fill="none" stroke="#757575" d="M173.91,-122.86C173.91,-122.84 173.92,-122.83 173.93,-122.82"/>
<polygon fill="#757575" stroke="#757575" points="172.61,-133.31 173.94,-122.79 166.34,-130.19 172.61,-133.31"/>
</g>
<!-- components/PasswordModal.tsx -->
<g id="node28" class="node">
<title>components/PasswordModal.tsx</title>
<path fill="none" stroke="#cfffac" d="M277.13,-144.93C277.13,-144.93 80.47,-144.93 80.47,-144.93 76.63,-144.93 72.8,-141.1 72.8,-137.26 72.8,-137.26 72.8,-129.6 72.8,-129.6 72.8,-125.76 76.63,-121.93 80.47,-121.93 80.47,-121.93 277.13,-121.93 277.13,-121.93 280.97,-121.93 284.8,-125.76 284.8,-129.6 284.8,-129.6 284.8,-137.26 284.8,-137.26 284.8,-141.1 280.97,-144.93 277.13,-144.93"/>
<text text-anchor="middle" x="178.8" y="-129.73" font-family="Arial" font-size="14.00" fill="#cfffac">components/PasswordModal.tsx</text>
</g>
<!-- pages/Homepage.tsx&#45;&gt;components/PasswordModal.tsx -->
<g id="edge56" class="edge">
<title>pages/Homepage.tsx&#45;&gt;components/PasswordModal.tsx</title>
<path fill="none" stroke="#757575" d="M178.7,-133.4C178.72,-133.41 178.73,-133.41 178.74,-133.41"/>
<polygon fill="#757575" stroke="#757575" points="168.18,-133.86 178.77,-133.42 170.22,-127.16 168.18,-133.86"/>
</g>
<!-- pages/Join.tsx&#45;&gt;lib/mutations.ts -->
<g id="edge61" class="edge">
<title>pages/Join.tsx&#45;&gt;lib/mutations.ts</title>
<path fill="none" stroke="#757575" d="M173.6,-126.32C173.56,-126.41 173.52,-126.5 173.48,-126.59"/>
<polygon fill="#757575" stroke="#757575" points="170.55,-124.56 169.77,-135.12 176.97,-127.35 170.55,-124.56"/>
</g>
<!-- pages/Join.tsx&#45;&gt;components/Alert.tsx -->
<g id="edge58" class="edge">
<title>pages/Join.tsx&#45;&gt;components/Alert.tsx</title>
<path fill="none" stroke="#757575" d="M174,-122.68C174,-122.69 173.99,-122.71 173.98,-122.72"/>
<polygon fill="#757575" stroke="#757575" points="176,-112.34 173.96,-122.75 182.05,-115.87 176,-112.34"/>
</g>
<!-- components/FlagSelector.tsx -->
<g id="node21" class="node">
<title>components/FlagSelector.tsx</title>
<path fill="none" stroke="#cfffac" d="M274.85,-126.33C274.85,-126.33 99.18,-126.33 99.18,-126.33 95.35,-126.33 91.52,-122.5 91.52,-118.66 91.52,-118.66 91.52,-111 91.52,-111 91.52,-107.16 95.35,-103.33 99.18,-103.33 99.18,-103.33 274.85,-103.33 274.85,-103.33 278.68,-103.33 282.52,-107.16 282.52,-111 282.52,-111 282.52,-118.66 282.52,-118.66 282.52,-122.5 278.68,-126.33 274.85,-126.33"/>
<text text-anchor="middle" x="187.02" y="-111.13" font-family="Arial" font-size="14.00" fill="#cfffac">components/FlagSelector.tsx</text>
</g>
<!-- pages/Join.tsx&#45;&gt;components/FlagSelector.tsx -->
<g id="edge59" class="edge">
<title>pages/Join.tsx&#45;&gt;components/FlagSelector.tsx</title>
<path fill="none" stroke="#757575" d="M186.92,-114.83C186.94,-114.83 186.95,-114.83 186.96,-114.83"/>
<polygon fill="#757575" stroke="#757575" points="176.95,-118.22 186.99,-114.83 177.03,-111.22 176.95,-118.22"/>
</g>
<!-- components/LogoSelector.tsx -->
<g id="node24" class="node">
<title>components/LogoSelector.tsx</title>
<path fill="none" stroke="#c6c5fe" d="M269.79,-118.26C269.79,-118.26 91.12,-118.26 91.12,-118.26 87.29,-118.26 83.45,-114.43 83.45,-110.59 83.45,-110.59 83.45,-102.93 83.45,-102.93 83.45,-99.09 87.29,-95.26 91.12,-95.26 91.12,-95.26 269.79,-95.26 269.79,-95.26 273.62,-95.26 277.45,-99.09 277.45,-102.93 277.45,-102.93 277.45,-110.59 277.45,-110.59 277.45,-114.43 273.62,-118.26 269.79,-118.26"/>
<text text-anchor="middle" x="180.45" y="-103.06" font-family="Arial" font-size="14.00" fill="#c6c5fe">components/LogoSelector.tsx</text>
</g>
<!-- pages/Join.tsx&#45;&gt;components/LogoSelector.tsx -->
<g id="edge60" class="edge">
<title>pages/Join.tsx&#45;&gt;components/LogoSelector.tsx</title>
<path fill="none" stroke="#757575" d="M180.43,-106.85C180.44,-106.84 180.44,-106.82 180.44,-106.81"/>
<polygon fill="#757575" stroke="#757575" points="181.6,-117.32 180.45,-106.78 174.78,-115.74 181.6,-117.32"/>
</g>
<!-- pages/Lobby.tsx&#45;&gt;atoms/index.ts -->
<g id="edge62" class="edge">
<title>pages/Lobby.tsx&#45;&gt;atoms/index.ts</title>
<path fill="none" stroke="#757575" d="M143.49,-69.11C143.5,-69.11 143.51,-69.11 143.51,-69.11"/>
<polygon fill="#757575" stroke="#757575" points="134.62,-74.87 143.53,-69.11 132.97,-68.06 134.62,-74.87"/>
</g>
<!-- lib/types/supabase.ts -->
<g id="node9" class="node">
<title>lib/types/supabase.ts</title>
<path fill="none" stroke="#cfffac" d="M223.38,-87.57C223.38,-87.57 95.72,-87.57 95.72,-87.57 91.88,-87.57 88.05,-83.74 88.05,-79.91 88.05,-79.91 88.05,-72.24 88.05,-72.24 88.05,-68.41 91.88,-64.57 95.72,-64.57 95.72,-64.57 223.38,-64.57 223.38,-64.57 227.22,-64.57 231.05,-68.41 231.05,-72.24 231.05,-72.24 231.05,-79.91 231.05,-79.91 231.05,-83.74 227.22,-87.57 223.38,-87.57"/>
<text text-anchor="middle" x="159.55" y="-72.37" font-family="Arial" font-size="14.00" fill="#cfffac">lib/types/supabase.ts</text>
</g>
<!-- pages/Lobby.tsx&#45;&gt;lib/types/supabase.ts -->
<g id="edge67" class="edge">
<title>pages/Lobby.tsx&#45;&gt;lib/types/supabase.ts</title>
<path fill="none" stroke="#757575" d="M159.46,-76.06C159.47,-76.06 159.49,-76.07 159.5,-76.07"/>
<polygon fill="#757575" stroke="#757575" points="149.22,-78.54 159.53,-76.07 149.93,-71.57 149.22,-78.54"/>
</g>
<!-- pages/Lobby.tsx&#45;&gt;lib/mutations.ts -->
<g id="edge64" class="edge">
<title>pages/Lobby.tsx&#45;&gt;lib/mutations.ts</title>
<path fill="none" stroke="#757575" d="M133.35,-84.44C138.93,-95.55 147.5,-112.58 154.28,-126.04"/>
<polygon fill="#757575" stroke="#757575" points="151.2,-127.71 158.82,-135.06 157.45,-124.56 151.2,-127.71"/>
</g>
<!-- pages/Lobby.tsx&#45;&gt;lib/supabaseClient.ts -->
<g id="edge66" class="edge">
<title>pages/Lobby.tsx&#45;&gt;lib/supabaseClient.ts</title>
<path fill="none" stroke="#757575" d="M124.68,-84.62C121.84,-96.23 117.42,-114.3 113.95,-128.51"/>
<polygon fill="#757575" stroke="#757575" points="110.49,-127.9 111.52,-138.45 117.29,-129.57 110.49,-127.9"/>
</g>
<!-- components/VideoCall.tsx -->
<g id="node31" class="node">
<title>components/VideoCall.tsx</title>
<path fill="none" stroke="#c6c5fe" d="M246.39,-94.76C246.39,-94.76 88.72,-94.76 88.72,-94.76 84.89,-94.76 81.05,-90.93 81.05,-87.09 81.05,-87.09 81.05,-79.43 81.05,-79.43 81.05,-75.59 84.89,-71.76 88.72,-71.76 88.72,-71.76 246.39,-71.76 246.39,-71.76 250.22,-71.76 254.05,-75.59 254.05,-79.43 254.05,-79.43 254.05,-87.09 254.05,-87.09 254.05,-90.93 250.22,-94.76 246.39,-94.76"/>
<text text-anchor="middle" x="167.55" y="-79.56" font-family="Arial" font-size="14.00" fill="#c6c5fe">components/VideoCall.tsx</text>
</g>
<!-- pages/Lobby.tsx&#45;&gt;components/VideoCall.tsx -->
<g id="edge63" class="edge">
<title>pages/Lobby.tsx&#45;&gt;components/VideoCall.tsx</title>
<path fill="none" stroke="#757575" d="M167.44,-83.23C167.46,-83.24 167.47,-83.24 167.49,-83.24"/>
<polygon fill="#757575" stroke="#757575" points="156.96,-84.12 167.52,-83.25 158.73,-77.34 156.96,-84.12"/>
</g>
<!-- lib/sessionHooks.ts -->
<g id="node40" class="node">
<title>lib/sessionHooks.ts</title>
<path fill="none" stroke="#c6c5fe" d="M177.87,-91.21C177.87,-91.21 61.2,-91.21 61.2,-91.21 57.37,-91.21 53.53,-87.38 53.53,-83.55 53.53,-83.55 53.53,-75.88 53.53,-75.88 53.53,-72.05 57.37,-68.21 61.2,-68.21 61.2,-68.21 177.87,-68.21 177.87,-68.21 181.7,-68.21 185.53,-72.05 185.53,-75.88 185.53,-75.88 185.53,-83.55 185.53,-83.55 185.53,-87.38 181.7,-91.21 177.87,-91.21"/>
<text text-anchor="middle" x="119.53" y="-76.01" font-family="Arial" font-size="14.00" fill="#c6c5fe">lib/sessionHooks.ts</text>
</g>
<!-- pages/Lobby.tsx&#45;&gt;lib/sessionHooks.ts -->
<g id="edge65" class="edge">
<title>pages/Lobby.tsx&#45;&gt;lib/sessionHooks.ts</title>
<path fill="none" stroke="#757575" d="M119.62,-79.64C119.61,-79.65 119.6,-79.66 119.59,-79.67"/>
<polygon fill="#757575" stroke="#757575" points="124.91,-70.54 119.56,-79.69 129.45,-75.87 124.91,-70.54"/>
</g>
<!-- pages/Quiz.tsx&#45;&gt;lib/mutations.ts -->
<g id="edge68" class="edge">
<title>pages/Quiz.tsx&#45;&gt;lib/mutations.ts</title>
<path fill="none" stroke="#757575" d="M119,-113.53C125.55,-118.3 133.3,-123.93 140.54,-129.19"/>
<polygon fill="#757575" stroke="#757575" points="138.55,-132.07 148.69,-135.12 142.66,-126.41 138.55,-132.07"/>
</g>
<!-- pages/Quiz.tsx&#45;&gt;lib/types.ts -->
<g id="edge71" class="edge">
<title>pages/Quiz.tsx&#45;&gt;lib/types.ts</title>
<path fill="none" stroke="#757575" d="M96.03,-113.63C95.98,-113.71 95.94,-113.79 95.89,-113.86"/>
<polygon fill="#757575" stroke="#757575" points="97.98,-103.73 95.75,-114.09 103.95,-107.38 97.98,-103.73"/>
</g>
<!-- lib/realtimeHooks.ts -->
<g id="node38" class="node">
<title>lib/realtimeHooks.ts</title>
<path fill="none" stroke="#c6c5fe" d="M155.67,-121.51C155.67,-121.51 36,-121.51 36,-121.51 32.17,-121.51 28.33,-117.67 28.33,-113.84 28.33,-113.84 28.33,-106.17 28.33,-106.17 28.33,-102.34 32.17,-98.51 36,-98.51 36,-98.51 155.67,-98.51 155.67,-98.51 159.5,-98.51 163.33,-102.34 163.33,-106.17 163.33,-106.17 163.33,-113.84 163.33,-113.84 163.33,-117.67 159.5,-121.51 155.67,-121.51"/>
<text text-anchor="middle" x="95.83" y="-106.31" font-family="Arial" font-size="14.00" fill="#c6c5fe">lib/realtimeHooks.ts</text>
</g>
<!-- pages/Quiz.tsx&#45;&gt;lib/realtimeHooks.ts -->
<g id="edge69" class="edge">
<title>pages/Quiz.tsx&#45;&gt;lib/realtimeHooks.ts</title>
<path fill="none" stroke="#757575" d="M95.92,-109.92C95.9,-109.93 95.89,-109.94 95.88,-109.95"/>
<polygon fill="#757575" stroke="#757575" points="100.02,-100.23 95.86,-109.98 105.19,-104.95 100.02,-100.23"/>
</g>
<!-- pages/Quiz.tsx&#45;&gt;lib/sessionHooks.ts -->
<g id="edge70" class="edge">
<title>pages/Quiz.tsx&#45;&gt;lib/sessionHooks.ts</title>
<path fill="none" stroke="#757575" d="M111.72,-90.33C111.75,-90.29 111.78,-90.25 111.81,-90.21"/>
<polygon fill="#757575" stroke="#757575" points="108.8,-100.21 111.91,-90.08 103.16,-96.06 108.8,-100.21"/>
</g>
<!-- pages/Results.tsx&#45;&gt;lib/mutations.ts -->
<g id="edge72" class="edge">
<title>pages/Results.tsx&#45;&gt;lib/mutations.ts</title>
<path fill="none" stroke="#757575" d="M124.32,-99.38C131.15,-107.39 140.36,-118.2 148.27,-127.48"/>
<polygon fill="#757575" stroke="#757575" points="145.64,-129.79 154.79,-135.13 150.96,-125.24 145.64,-129.79"/>
</g>
<!-- pages/Results.tsx&#45;&gt;lib/supabaseClient.ts -->
<g id="edge74" class="edge">
<title>pages/Results.tsx&#45;&gt;lib/supabaseClient.ts</title>
<path fill="none" stroke="#757575" d="M113.31,-99.43C112.57,-107.53 111.57,-118.53 110.68,-128.21"/>
<polygon fill="#757575" stroke="#757575" points="107.18,-128.08 109.76,-138.35 114.15,-128.71 107.18,-128.08"/>
</g>
<!-- pages/Results.tsx&#45;&gt;lib/sessionHooks.ts -->
<g id="edge73" class="edge">
<title>pages/Results.tsx&#45;&gt;lib/sessionHooks.ts</title>
<path fill="none" stroke="#757575" d="M119.48,-79.8C119.49,-79.79 119.49,-79.77 119.5,-79.76"/>
<polygon fill="#757575" stroke="#757575" points="117.03,-90.05 119.52,-79.73 111.15,-86.25 117.03,-90.05"/>
</g>
<!-- atoms/index.ts&#45;&gt;lib/types/supabase.ts -->
<g id="edge7" class="edge">
<title>atoms/index.ts&#45;&gt;lib/types/supabase.ts</title>
<path fill="none" stroke="#757575" d="M159.5,-76.05C159.51,-76.06 159.52,-76.06 159.52,-76.06"/>
<polygon fill="#757575" stroke="#757575" points="148.95,-75.25 159.54,-76.07 151.77,-68.83 148.95,-75.25"/>
</g>
<!-- components/ActiveGames.tsx&#45;&gt;lib/mutations.ts -->
<g id="edge8" class="edge">
<title>components/ActiveGames.tsx&#45;&gt;lib/mutations.ts</title>
<path fill="none" stroke="#757575" d="M164.76,-146.68C164.75,-146.69 164.74,-146.71 164.74,-146.72"/>
<polygon fill="#757575" stroke="#757575" points="166.28,-136.25 164.72,-146.75 172.48,-139.52 166.28,-136.25"/>
</g>
<!-- lib/mutations.ts&#45;&gt;lib/supabaseClient.ts -->
<g id="edge34" class="edge">
<title>lib/mutations.ts&#45;&gt;lib/supabaseClient.ts</title>
<path fill="none" stroke="#757575" d="M111.1,-149.88C111,-149.88 110.91,-149.89 110.82,-149.9"/>
<polygon fill="#757575" stroke="#757575" points="120.34,-145.83 110.56,-149.91 120.74,-152.82 120.34,-145.83"/>
</g>
<!-- lib/mutations.ts&#45;&gt;lib/types.ts -->
<g id="edge35" class="edge">
<title>lib/mutations.ts&#45;&gt;lib/types.ts</title>
<path fill="none" stroke="#757575" d="M136.1,-135.24C134.5,-134.59 132.88,-133.94 131.25,-133.28"/>
<polygon fill="#757575" stroke="#757575" points="132.56,-130.03 121.97,-129.54 129.94,-136.53 132.56,-130.03"/>
</g>
<!-- components/ControlsBar.tsx -->
<g id="node13" class="node">
<title>components/ControlsBar.tsx</title>
<path fill="none" stroke="#cfffac" d="M259.76,-86.73C259.76,-86.73 89.09,-86.73 89.09,-86.73 85.26,-86.73 81.43,-82.9 81.43,-79.06 81.43,-79.06 81.43,-71.4 81.43,-71.4 81.43,-67.56 85.26,-63.73 89.09,-63.73 89.09,-63.73 259.76,-63.73 259.76,-63.73 263.59,-63.73 267.43,-67.56 267.43,-71.4 267.43,-71.4 267.43,-79.06 267.43,-79.06 267.43,-82.9 263.59,-86.73 259.76,-86.73"/>
<text text-anchor="middle" x="174.43" y="-71.53" font-family="Arial" font-size="14.00" fill="#cfffac">components/ControlsBar.tsx</text>
</g>
<!-- components/DailyJoinButton.test.tsx -->
<g id="node14" class="node">
<title>components/DailyJoinButton.test.tsx</title>
<path fill="none" stroke="#c6c5fe" d="M244.61,-74.63C244.61,-74.63 24.95,-74.63 24.95,-74.63 21.11,-74.63 17.28,-70.8 17.28,-66.96 17.28,-66.96 17.28,-59.3 17.28,-59.3 17.28,-55.46 21.11,-51.63 24.95,-51.63 24.95,-51.63 244.61,-51.63 244.61,-51.63 248.45,-51.63 252.28,-55.46 252.28,-59.3 252.28,-59.3 252.28,-66.96 252.28,-66.96 252.28,-70.8 248.45,-74.63 244.61,-74.63"/>
<text text-anchor="middle" x="134.78" y="-59.43" font-family="Arial" font-size="14.00" fill="#c6c5fe">components/DailyJoinButton.test.tsx</text>
</g>
<!-- components/DailyJoinButton.tsx -->
<g id="node15" class="node">
<title>components/DailyJoinButton.tsx</title>
<path fill="none" stroke="#c6c5fe" d="M232.37,-82.69C232.37,-82.69 38.7,-82.69 38.7,-82.69 34.87,-82.69 31.04,-78.86 31.04,-75.03 31.04,-75.03 31.04,-67.36 31.04,-67.36 31.04,-63.53 34.87,-59.69 38.7,-59.69 38.7,-59.69 232.37,-59.69 232.37,-59.69 236.2,-59.69 240.04,-63.53 240.04,-67.36 240.04,-67.36 240.04,-75.03 240.04,-75.03 240.04,-78.86 236.2,-82.69 232.37,-82.69"/>
<text text-anchor="middle" x="135.54" y="-67.49" font-family="Arial" font-size="14.00" fill="#c6c5fe">components/DailyJoinButton.tsx</text>
</g>
<!-- components/DailyJoinButton.test.tsx&#45;&gt;components/DailyJoinButton.tsx -->
<g id="edge9" class="edge">
<title>components/DailyJoinButton.test.tsx&#45;&gt;components/DailyJoinButton.tsx</title>
<path fill="none" stroke="#757575" d="M135.53,-71.1C135.53,-71.12 135.53,-71.13 135.53,-71.14"/>
<polygon fill="#757575" stroke="#757575" points="131.08,-61.55 135.54,-71.17 138.05,-60.88 131.08,-61.55"/>
</g>
<!-- components/DailyJoinButton.tsx&#45;&gt;atoms/index.ts -->
<g id="edge10" class="edge">
<title>components/DailyJoinButton.tsx&#45;&gt;atoms/index.ts</title>
<path fill="none" stroke="#757575" d="M143.45,-69.13C143.47,-69.12 143.48,-69.12 143.49,-69.12"/>
<polygon fill="#757575" stroke="#757575" points="134.73,-75.05 143.52,-69.11 132.95,-68.28 134.73,-75.05"/>
</g>
<!-- components/DailyJoinButton.tsx&#45;&gt;lib/mutations.ts -->
<g id="edge11" class="edge">
<title>components/DailyJoinButton.tsx&#45;&gt;lib/mutations.ts</title>
<path fill="none" stroke="#757575" d="M140.1,-83C144.44,-94.25 151.08,-111.45 156.37,-125.15"/>
<polygon fill="#757575" stroke="#757575" points="153.22,-126.73 160.09,-134.79 159.75,-124.2 153.22,-126.73"/>
</g>
<!-- components/EnhancedLobby.tsx -->
<g id="node16" class="node">
<title>components/EnhancedLobby.tsx</title>
<path fill="none" stroke="#c6c5fe" d="M231.03,-166.97C231.03,-166.97 34.37,-166.97 34.37,-166.97 30.53,-166.97 26.7,-163.13 26.7,-159.3 26.7,-159.3 26.7,-151.63 26.7,-151.63 26.7,-147.8 30.53,-143.97 34.37,-143.97 34.37,-143.97 231.03,-143.97 231.03,-143.97 234.87,-143.97 238.7,-147.8 238.7,-151.63 238.7,-151.63 238.7,-159.3 238.7,-159.3 238.7,-163.13 234.87,-166.97 231.03,-166.97"/>
<text text-anchor="middle" x="132.7" y="-151.77" font-family="Arial" font-size="14.00" fill="#c6c5fe">components/EnhancedLobby.tsx</text>
</g>
<!-- lib/enhancedPresence.ts -->
<g id="node17" class="node">
<title>lib/enhancedPresence.ts</title>
<path fill="none" stroke="#c6c5fe" d="M215.04,-167.1C215.04,-167.1 66.37,-167.1 66.37,-167.1 62.54,-167.1 58.7,-163.27 58.7,-159.43 58.7,-159.43 58.7,-151.77 58.7,-151.77 58.7,-147.93 62.54,-144.1 66.37,-144.1 66.37,-144.1 215.04,-144.1 215.04,-144.1 218.87,-144.1 222.7,-147.93 222.7,-151.77 222.7,-151.77 222.7,-159.43 222.7,-159.43 222.7,-163.27 218.87,-167.1 215.04,-167.1"/>
<text text-anchor="middle" x="140.7" y="-151.9" font-family="Arial" font-size="14.00" fill="#c6c5fe">lib/enhancedPresence.ts</text>
</g>
<!-- components/EnhancedLobby.tsx&#45;&gt;lib/enhancedPresence.ts -->
<g id="edge12" class="edge">
<title>components/EnhancedLobby.tsx&#45;&gt;lib/enhancedPresence.ts</title>
<path fill="none" stroke="#757575" d="M140.61,-155.6C140.63,-155.6 140.64,-155.6 140.65,-155.6"/>
<polygon fill="#757575" stroke="#757575" points="130.61,-158.9 140.68,-155.6 130.75,-151.9 130.61,-158.9"/>
</g>
<!-- lib/enhancedRealtimeHooks.ts -->
<g id="node18" class="node">
<title>lib/enhancedRealtimeHooks.ts</title>
<path fill="none" stroke="#c6c5fe" d="M209.03,-167.7C209.03,-167.7 24.36,-167.7 24.36,-167.7 20.53,-167.7 16.7,-163.87 16.7,-160.04 16.7,-160.04 16.7,-152.37 16.7,-152.37 16.7,-148.54 20.53,-144.7 24.36,-144.7 24.36,-144.7 209.03,-144.7 209.03,-144.7 212.86,-144.7 216.7,-148.54 216.7,-152.37 216.7,-152.37 216.7,-160.04 216.7,-160.04 216.7,-163.87 212.86,-167.7 209.03,-167.7"/>
<text text-anchor="middle" x="116.7" y="-152.5" font-family="Arial" font-size="14.00" fill="#c6c5fe">lib/enhancedRealtimeHooks.ts</text>
</g>
<!-- components/EnhancedLobby.tsx&#45;&gt;lib/enhancedRealtimeHooks.ts -->
<g id="edge13" class="edge">
<title>components/EnhancedLobby.tsx&#45;&gt;lib/enhancedRealtimeHooks.ts</title>
<path fill="none" stroke="#757575" d="M116.74,-156.2C116.73,-156.2 116.73,-156.2 116.72,-156.2"/>
<polygon fill="#757575" stroke="#757575" points="126.51,-152.18 116.71,-156.2 126.88,-159.17 126.51,-152.18"/>
</g>
<!-- lib/enhancedPresence.ts&#45;&gt;lib/mutations.ts -->
<g id="edge27" class="edge">
<title>lib/enhancedPresence.ts&#45;&gt;lib/mutations.ts</title>
<path fill="none" stroke="#757575" d="M164.64,-146.79C164.65,-146.79 164.66,-146.79 164.67,-146.78"/>
<polygon fill="#757575" stroke="#757575" points="156.52,-153.54 164.69,-146.78 154.09,-146.97 156.52,-153.54"/>
</g>
<!-- lib/enhancedPresence.ts&#45;&gt;lib/supabaseClient.ts -->
<g id="edge28" class="edge">
<title>lib/enhancedPresence.ts&#45;&gt;lib/supabaseClient.ts</title>
<path fill="none" stroke="#757575" d="M108.78,-150.03C108.77,-150.03 108.76,-150.03 108.74,-150.03"/>
<polygon fill="#757575" stroke="#757575" points="119.18,-148.32 108.72,-150.02 117.96,-155.22 119.18,-148.32"/>
</g>
<!-- lib/enhancedRealtimeHooks.ts&#45;&gt;lib/supabaseClient.ts -->
<g id="edge29" class="edge">
<title>lib/enhancedRealtimeHooks.ts&#45;&gt;lib/supabaseClient.ts</title>
<path fill="none" stroke="#757575" d="M108.78,-150.09C108.77,-150.08 108.75,-150.07 108.74,-150.06"/>
<polygon fill="#757575" stroke="#757575" points="118.78,-153.39 108.72,-150.04 114.49,-158.93 118.78,-153.39"/>
</g>
<!-- lib/enhancedRealtimeHooks.ts&#45;&gt;lib/types.ts -->
<g id="edge30" class="edge">
<title>lib/enhancedRealtimeHooks.ts&#45;&gt;lib/types.ts</title>
<path fill="none" stroke="#757575" d="M109.57,-144.53C108.39,-142.61 107.14,-140.57 105.88,-138.5"/>
<polygon fill="#757575" stroke="#757575" points="108.64,-136.31 100.44,-129.6 102.67,-139.96 108.64,-136.31"/>
</g>
<!-- components/Flag.tsx -->
<g id="node19" class="node">
<title>components/Flag.tsx</title>
<path fill="none" stroke="#c6c5fe" d="M199.57,-231C199.57,-231 72.91,-231 72.91,-231 69.07,-231 65.24,-227.17 65.24,-223.33 65.24,-223.33 65.24,-215.67 65.24,-215.67 65.24,-211.83 69.07,-208 72.91,-208 72.91,-208 199.57,-208 199.57,-208 203.41,-208 207.24,-211.83 207.24,-215.67 207.24,-215.67 207.24,-223.33 207.24,-223.33 207.24,-227.17 203.41,-231 199.57,-231"/>
<text text-anchor="middle" x="136.24" y="-215.8" font-family="Arial" font-size="14.00" fill="#c6c5fe">components/Flag.tsx</text>
</g>
<!-- lib/flagIcons.ts -->
<g id="node20" class="node">
<title>lib/flagIcons.ts</title>
<path fill="none" stroke="#cfffac" d="M187.57,-231C187.57,-231 100.91,-231 100.91,-231 97.07,-231 93.24,-227.17 93.24,-223.33 93.24,-223.33 93.24,-215.67 93.24,-215.67 93.24,-211.83 97.07,-208 100.91,-208 100.91,-208 187.57,-208 187.57,-208 191.41,-208 195.24,-211.83 195.24,-215.67 195.24,-215.67 195.24,-223.33 195.24,-223.33 195.24,-227.17 191.41,-231 187.57,-231"/>
<text text-anchor="middle" x="144.24" y="-215.8" font-family="Arial" font-size="14.00" fill="#cfffac">lib/flagIcons.ts</text>
</g>
<!-- components/Flag.tsx&#45;&gt;lib/flagIcons.ts -->
<g id="edge14" class="edge">
<title>components/Flag.tsx&#45;&gt;lib/flagIcons.ts</title>
<path fill="none" stroke="#757575" d="M144.15,-219.5C144.16,-219.5 144.18,-219.5 144.19,-219.5"/>
<polygon fill="#757575" stroke="#757575" points="134.23,-223.04 144.22,-219.5 134.2,-216.04 134.23,-223.04"/>
</g>
<!-- components/LobbyStatus.tsx&#45;&gt;lib/supabaseClient.ts -->
<g id="edge15" class="edge">
<title>components/LobbyStatus.tsx&#45;&gt;lib/supabaseClient.ts</title>
<path fill="none" stroke="#757575" d="M105.09,-145.64C105.15,-145.72 105.21,-145.8 105.28,-145.88"/>
<polygon fill="#757575" stroke="#757575" points="96.4,-140.61 105.47,-146.1 101.81,-136.16 96.4,-140.61"/>
</g>
<!-- components/LogoSelector.tsx&#45;&gt;lib/supabaseClient.ts -->
<g id="edge16" class="edge">
<title>components/LogoSelector.tsx&#45;&gt;lib/supabaseClient.ts</title>
<path fill="none" stroke="#757575" d="M161.22,-118.35C153.66,-122.91 144.83,-128.23 136.6,-133.2"/>
<polygon fill="#757575" stroke="#757575" points="134.73,-130.23 127.98,-138.39 138.35,-136.23 134.73,-130.23"/>
</g>
<!-- components/ParticipantTile.test.tsx -->
<g id="node25" class="node">
<title>components/ParticipantTile.test.tsx</title>
<path fill="none" stroke="#c6c5fe" d="M287.04,-110.26C287.04,-110.26 75.37,-110.26 75.37,-110.26 71.54,-110.26 67.71,-106.42 67.71,-102.59 67.71,-102.59 67.71,-94.92 67.71,-94.92 67.71,-91.09 71.54,-87.26 75.37,-87.26 75.37,-87.26 287.04,-87.26 287.04,-87.26 290.87,-87.26 294.71,-91.09 294.71,-94.92 294.71,-94.92 294.71,-102.59 294.71,-102.59 294.71,-106.42 290.87,-110.26 287.04,-110.26"/>
<text text-anchor="middle" x="181.21" y="-95.06" font-family="Arial" font-size="14.00" fill="#c6c5fe">components/ParticipantTile.test.tsx</text>
</g>
<!-- components/ParticipantTile.test.tsx&#45;&gt;lib/types/supabase.ts -->
<g id="edge18" class="edge">
<title>components/ParticipantTile.test.tsx&#45;&gt;lib/types/supabase.ts</title>
<path fill="none" stroke="#757575" d="M170.12,-87.15C170.08,-87.11 170.04,-87.06 170,-87.02"/>
<polygon fill="#757575" stroke="#757575" points="179.31,-91.71 169.87,-86.89 174.25,-96.54 179.31,-91.71"/>
</g>
<!-- components/ParticipantTile.tsx -->
<g id="node26" class="node">
<title>components/ParticipantTile.tsx</title>
<path fill="none" stroke="#c6c5fe" d="M268.39,-102.26C268.39,-102.26 82.72,-102.26 82.72,-102.26 78.89,-102.26 75.05,-98.42 75.05,-94.59 75.05,-94.59 75.05,-86.92 75.05,-86.92 75.05,-83.09 78.89,-79.26 82.72,-79.26 82.72,-79.26 268.39,-79.26 268.39,-79.26 272.22,-79.26 276.05,-83.09 276.05,-86.92 276.05,-86.92 276.05,-94.59 276.05,-94.59 276.05,-98.42 272.22,-102.26 268.39,-102.26"/>
<text text-anchor="middle" x="175.55" y="-87.06" font-family="Arial" font-size="14.00" fill="#c6c5fe">components/ParticipantTile.tsx</text>
</g>
<!-- components/ParticipantTile.test.tsx&#45;&gt;components/ParticipantTile.tsx -->
<g id="edge17" class="edge">
<title>components/ParticipantTile.test.tsx&#45;&gt;components/ParticipantTile.tsx</title>
<path fill="none" stroke="#757575" d="M175.62,-90.85C175.61,-90.83 175.6,-90.82 175.59,-90.81"/>
<polygon fill="#757575" stroke="#757575" points="184.21,-96.93 175.57,-90.78 178.49,-100.98 184.21,-96.93"/>
</g>
<!-- components/ParticipantTile.tsx&#45;&gt;lib/types/supabase.ts -->
<g id="edge19" class="edge">
<title>components/ParticipantTile.tsx&#45;&gt;lib/types/supabase.ts</title>
<path fill="none" stroke="#757575" d="M162.94,-79.19C162.88,-79.13 162.82,-79.07 162.76,-79.02"/>
<polygon fill="#757575" stroke="#757575" points="172.31,-83.03 162.58,-78.85 167.58,-88.19 172.31,-83.03"/>
</g>
<!-- components/PasswordModal.test.tsx -->
<g id="node27" class="node">
<title>components/PasswordModal.test.tsx</title>
<path fill="none" stroke="#c6c5fe" d="M298.36,-148.99C298.36,-148.99 75.69,-148.99 75.69,-148.99 71.86,-148.99 68.03,-145.16 68.03,-141.33 68.03,-141.33 68.03,-133.66 68.03,-133.66 68.03,-129.83 71.86,-125.99 75.69,-125.99 75.69,-125.99 298.36,-125.99 298.36,-125.99 302.19,-125.99 306.03,-129.83 306.03,-133.66 306.03,-133.66 306.03,-141.33 306.03,-141.33 306.03,-145.16 302.19,-148.99 298.36,-148.99"/>
<text text-anchor="middle" x="187.03" y="-133.79" font-family="Arial" font-size="14.00" fill="#c6c5fe">components/PasswordModal.test.tsx</text>
</g>
<!-- components/PasswordModal.test.tsx&#45;&gt;components/PasswordModal.tsx -->
<g id="edge20" class="edge">
<title>components/PasswordModal.test.tsx&#45;&gt;components/PasswordModal.tsx</title>
<path fill="none" stroke="#757575" d="M178.89,-133.48C178.88,-133.47 178.86,-133.46 178.85,-133.46"/>
<polygon fill="#757575" stroke="#757575" points="189.35,-134.75 178.82,-133.44 186.24,-141.03 189.35,-134.75"/>
</g>
<!-- components/TeamLogoPicker.test.tsx -->
<g id="node29" class="node">
<title>components/TeamLogoPicker.test.tsx</title>
<path fill="none" stroke="#c6c5fe" d="M468.33,-218C468.33,-218 241.67,-218 241.67,-218 237.83,-218 234,-214.17 234,-210.33 234,-210.33 234,-202.67 234,-202.67 234,-198.83 237.83,-195 241.67,-195 241.67,-195 468.33,-195 468.33,-195 472.17,-195 476,-198.83 476,-202.67 476,-202.67 476,-210.33 476,-210.33 476,-214.17 472.17,-218 468.33,-218"/>
<text text-anchor="middle" x="355" y="-202.8" font-family="Arial" font-size="14.00" fill="#c6c5fe">components/TeamLogoPicker.test.tsx</text>
</g>
<!-- components/TeamLogoPicker.tsx -->
<g id="node30" class="node">
<title>components/TeamLogoPicker.tsx</title>
<path fill="none" stroke="#cfffac" d="M463.33,-218C463.33,-218 262.67,-218 262.67,-218 258.83,-218 255,-214.17 255,-210.33 255,-210.33 255,-202.67 255,-202.67 255,-198.83 258.83,-195 262.67,-195 262.67,-195 463.33,-195 463.33,-195 467.17,-195 471,-198.83 471,-202.67 471,-202.67 471,-210.33 471,-210.33 471,-214.17 467.17,-218 463.33,-218"/>
<text text-anchor="middle" x="363" y="-202.8" font-family="Arial" font-size="14.00" fill="#cfffac">components/TeamLogoPicker.tsx</text>
</g>
<!-- components/TeamLogoPicker.test.tsx&#45;&gt;components/TeamLogoPicker.tsx -->
<g id="edge21" class="edge">
<title>components/TeamLogoPicker.test.tsx&#45;&gt;components/TeamLogoPicker.tsx</title>
<path fill="none" stroke="#757575" d="M362.91,-206.5C362.93,-206.5 362.94,-206.5 362.95,-206.5"/>
<polygon fill="#757575" stroke="#757575" points="352.99,-210.04 362.98,-206.5 352.96,-203.04 352.99,-210.04"/>
</g>
<!-- components/VideoCall.tsx&#45;&gt;lib/types/supabase.ts -->
<g id="edge24" class="edge">
<title>components/VideoCall.tsx&#45;&gt;lib/types/supabase.ts</title>
<path fill="none" stroke="#757575" d="M159.64,-76.15C159.62,-76.14 159.61,-76.13 159.6,-76.12"/>
<polygon fill="#757575" stroke="#757575" points="169.36,-80.18 159.57,-76.09 164.68,-85.39 169.36,-80.18"/>
</g>
<!-- components/VideoCall.tsx&#45;&gt;components/ControlsBar.tsx -->
<g id="edge22" class="edge">
<title>components/VideoCall.tsx&#45;&gt;components/ControlsBar.tsx</title>
<path fill="none" stroke="#757575" d="M174.35,-75.32C174.36,-75.31 174.37,-75.29 174.38,-75.28"/>
<polygon fill="#757575" stroke="#757575" points="170.55,-85.14 174.41,-75.25 165.23,-80.58 170.55,-85.14"/>
</g>
<!-- components/VideoCall.tsx&#45;&gt;components/ParticipantTile.tsx -->
<g id="edge23" class="edge">
<title>components/VideoCall.tsx&#45;&gt;components/ParticipantTile.tsx</title>
<path fill="none" stroke="#757575" d="M175.46,-90.67C175.48,-90.68 175.49,-90.7 175.5,-90.71"/>
<polygon fill="#757575" stroke="#757575" points="165.83,-86.45 175.53,-90.73 170.62,-81.33 165.83,-86.45"/>
</g>
<!-- index.css -->
<g id="node32" class="node">
<title>index.css</title>
<path fill="none" stroke="#cfffac" d="M123.95,-95.06C123.95,-95.06 66.28,-95.06 66.28,-95.06 62.45,-95.06 58.61,-91.22 58.61,-87.39 58.61,-87.39 58.61,-79.72 58.61,-79.72 58.61,-75.89 62.45,-72.06 66.28,-72.06 66.28,-72.06 123.95,-72.06 123.95,-72.06 127.78,-72.06 131.61,-75.89 131.61,-79.72 131.61,-79.72 131.61,-87.39 131.61,-87.39 131.61,-91.22 127.78,-95.06 123.95,-95.06"/>
<text text-anchor="middle" x="95.11" y="-79.86" font-family="Arial" font-size="14.00" fill="#cfffac">index.css</text>
</g>
<!-- lib/createSession.test.ts -->
<g id="node33" class="node">
<title>lib/createSession.test.ts</title>
<path fill="none" stroke="#c6c5fe" d="M228.54,-163.65C228.54,-163.65 84.87,-163.65 84.87,-163.65 81.04,-163.65 77.21,-159.82 77.21,-155.99 77.21,-155.99 77.21,-148.32 77.21,-148.32 77.21,-144.49 81.04,-140.65 84.87,-140.65 84.87,-140.65 228.54,-140.65 228.54,-140.65 232.37,-140.65 236.21,-144.49 236.21,-148.32 236.21,-148.32 236.21,-155.99 236.21,-155.99 236.21,-159.82 232.37,-163.65 228.54,-163.65"/>
<text text-anchor="middle" x="156.71" y="-148.45" font-family="Arial" font-size="14.00" fill="#c6c5fe">lib/createSession.test.ts</text>
</g>
<!-- lib/createSession.test.ts&#45;&gt;lib/mutations.ts -->
<g id="edge25" class="edge">
<title>lib/createSession.test.ts&#45;&gt;lib/mutations.ts</title>
<path fill="none" stroke="#757575" d="M164.62,-146.83C164.63,-146.82 164.65,-146.81 164.66,-146.8"/>
<polygon fill="#757575" stroke="#757575" points="158.34,-155.29 164.69,-146.78 154.43,-149.48 158.34,-155.29"/>
</g>
<!-- lib/createSession.test.ts&#45;&gt;lib/supabaseClient.ts -->
<g id="edge26" class="edge">
<title>lib/createSession.test.ts&#45;&gt;lib/supabaseClient.ts</title>
<path fill="none" stroke="#757575" d="M108.83,-150.02C108.81,-150.02 108.79,-150.02 108.77,-150.02"/>
<polygon fill="#757575" stroke="#757575" points="118.88,-146.99 108.73,-150.02 118.55,-153.98 118.88,-146.99"/>
</g>
<!-- lib/types/index.ts -->
<g id="node41" class="node">
<title>lib/types/index.ts</title>
<path fill="none" stroke="#c6c5fe" d="M201.88,-82.14C201.88,-82.14 101.21,-82.14 101.21,-82.14 97.38,-82.14 93.54,-78.31 93.54,-74.47 93.54,-74.47 93.54,-66.81 93.54,-66.81 93.54,-62.97 97.38,-59.14 101.21,-59.14 101.21,-59.14 201.88,-59.14 201.88,-59.14 205.71,-59.14 209.54,-62.97 209.54,-66.81 209.54,-66.81 209.54,-74.47 209.54,-74.47 209.54,-78.31 205.71,-82.14 201.88,-82.14"/>
<text text-anchor="middle" x="151.54" y="-66.94" font-family="Arial" font-size="14.00" fill="#c6c5fe">lib/types/index.ts</text>
</g>
<!-- lib/types.ts&#45;&gt;lib/types/index.ts -->
<g id="edge43" class="edge">
<title>lib/types.ts&#45;&gt;lib/types/index.ts</title>
<path fill="none" stroke="#757575" d="M107.74,-106.3C114.22,-101.02 122.03,-94.67 129.24,-88.79"/>
<polygon fill="#757575" stroke="#757575" points="131.78,-91.24 137.33,-82.21 127.36,-85.81 131.78,-91.24"/>
</g>
<!-- lib/mutations.test.ts -->
<g id="node35" class="node">
<title>lib/mutations.test.ts</title>
<path fill="none" stroke="#c6c5fe" d="M183.53,-164.09C183.53,-164.09 65.86,-164.09 65.86,-164.09 62.03,-164.09 58.2,-160.26 58.2,-156.43 58.2,-156.43 58.2,-148.76 58.2,-148.76 58.2,-144.93 62.03,-141.09 65.86,-141.09 65.86,-141.09 183.53,-141.09 183.53,-141.09 187.36,-141.09 191.2,-144.93 191.2,-148.76 191.2,-148.76 191.2,-156.43 191.2,-156.43 191.2,-160.26 187.36,-164.09 183.53,-164.09"/>
<text text-anchor="middle" x="124.7" y="-148.89" font-family="Arial" font-size="14.00" fill="#c6c5fe">lib/mutations.test.ts</text>
</g>
<!-- lib/mutations.test.ts&#45;&gt;lib/mutations.ts -->
<g id="edge31" class="edge">
<title>lib/mutations.test.ts&#45;&gt;lib/mutations.ts</title>
<path fill="none" stroke="#757575" d="M164.59,-146.79C164.61,-146.78 164.63,-146.78 164.64,-146.78"/>
<polygon fill="#757575" stroke="#757575" points="155.3,-151.7 164.68,-146.77 154.27,-144.77 155.3,-151.7"/>
</g>
<!-- lib/mutations.test.ts&#45;&gt;lib/supabaseClient.ts -->
<g id="edge32" class="edge">
<title>lib/mutations.test.ts&#45;&gt;lib/supabaseClient.ts</title>
<path fill="none" stroke="#757575" d="M108.74,-150.03C108.73,-150.02 108.72,-150.02 108.72,-150.02"/>
<polygon fill="#757575" stroke="#757575" points="119.15,-148.21 108.7,-150.02 118,-155.12 119.15,-148.21"/>
</g>
<!-- lib/mutations.test.ts&#45;&gt;lib/types.ts -->
<g id="edge33" class="edge">
<title>lib/mutations.test.ts&#45;&gt;lib/types.ts</title>
<path fill="none" stroke="#757575" d="M114.09,-140.88C113.06,-139.76 112.01,-138.59 110.95,-137.42"/>
<polygon fill="#757575" stroke="#757575" points="113.26,-134.76 103.96,-129.7 108.08,-139.46 113.26,-134.76"/>
</g>
<!-- lib/mutations.validation.ts -->
<g id="node36" class="node">
<title>lib/mutations.validation.ts</title>
<path fill="none" stroke="#cfffac" d="M316.16,-23C316.16,-23 163.49,-23 163.49,-23 159.66,-23 155.83,-19.17 155.83,-15.33 155.83,-15.33 155.83,-7.67 155.83,-7.67 155.83,-3.83 159.66,0 163.49,0 163.49,0 316.16,0 316.16,0 319.99,0 323.83,-3.83 323.83,-7.67 323.83,-7.67 323.83,-15.33 323.83,-15.33 323.83,-19.17 319.99,-23 316.16,-23"/>
<text text-anchor="middle" x="239.83" y="-7.8" font-family="Arial" font-size="14.00" fill="#cfffac">lib/mutations.validation.ts</text>
</g>
<!-- lib/presence.ts&#45;&gt;lib/mutations.ts -->
<g id="edge36" class="edge">
<title>lib/presence.ts&#45;&gt;lib/mutations.ts</title>
<path fill="none" stroke="#757575" d="M152.98,-145.9C153.04,-145.9 153.09,-145.91 153.15,-145.91"/>
<polygon fill="#757575" stroke="#757575" points="143.07,-148.66 153.31,-145.92 143.6,-141.68 143.07,-148.66"/>
</g>
<!-- lib/presence.ts&#45;&gt;lib/supabaseClient.ts -->
<g id="edge37" class="edge">
<title>lib/presence.ts&#45;&gt;lib/supabaseClient.ts</title>
<path fill="none" stroke="#757575" d="M108.6,-149.93C108.62,-149.94 108.63,-149.96 108.64,-149.97"/>
<polygon fill="#757575" stroke="#757575" points="99.14,-145.34 108.67,-150 104.13,-140.41 99.14,-145.34"/>
</g>
<!-- lib/realtimeHooks.ts&#45;&gt;lib/supabaseClient.ts -->
<g id="edge38" class="edge">
<title>lib/realtimeHooks.ts&#45;&gt;lib/supabaseClient.ts</title>
<path fill="none" stroke="#757575" d="M99.62,-121.79C100.34,-124.01 101.1,-126.39 101.87,-128.8"/>
<polygon fill="#757575" stroke="#757575" points="98.58,-130 104.98,-138.45 105.25,-127.86 98.58,-130"/>
</g>
<!-- lib/realtimeHooks.ts&#45;&gt;lib/types.ts -->
<g id="edge39" class="edge">
<title>lib/realtimeHooks.ts&#45;&gt;lib/types.ts</title>
<path fill="none" stroke="#757575" d="M93.38,-117.92C93.38,-117.93 93.38,-117.94 93.37,-117.95"/>
<polygon fill="#757575" stroke="#757575" points="93,-107.39 93.36,-117.98 99.69,-109.47 93,-107.39"/>
</g>
<!-- lib/sessionCode.test.ts -->
<g id="node39" class="node">
<title>lib/sessionCode.test.ts</title>
<path fill="none" stroke="#c6c5fe" d="M217.04,-165.08C217.04,-165.08 80.37,-165.08 80.37,-165.08 76.54,-165.08 72.7,-161.24 72.7,-157.41 72.7,-157.41 72.7,-149.74 72.7,-149.74 72.7,-145.91 76.54,-142.08 80.37,-142.08 80.37,-142.08 217.04,-142.08 217.04,-142.08 220.87,-142.08 224.7,-145.91 224.7,-149.74 224.7,-149.74 224.7,-157.41 224.7,-157.41 224.7,-161.24 220.87,-165.08 217.04,-165.08"/>
<text text-anchor="middle" x="148.7" y="-149.88" font-family="Arial" font-size="14.00" fill="#c6c5fe">lib/sessionCode.test.ts</text>
</g>
<!-- lib/sessionCode.test.ts&#45;&gt;lib/mutations.ts -->
<g id="edge40" class="edge">
<title>lib/sessionCode.test.ts&#45;&gt;lib/mutations.ts</title>
<path fill="none" stroke="#757575" d="M164.66,-146.79C164.67,-146.79 164.68,-146.78 164.68,-146.78"/>
<polygon fill="#757575" stroke="#757575" points="156.87,-153.95 164.7,-146.77 154.11,-147.5 156.87,-153.95"/>
</g>
<!-- lib/sessionCode.test.ts&#45;&gt;lib/supabaseClient.ts -->
<g id="edge41" class="edge">
<title>lib/sessionCode.test.ts&#45;&gt;lib/supabaseClient.ts</title>
<path fill="none" stroke="#757575" d="M108.81,-150.03C108.79,-150.03 108.77,-150.03 108.76,-150.02"/>
<polygon fill="#757575" stroke="#757575" points="119,-147.45 108.72,-150.02 118.36,-154.42 119,-147.45"/>
</g>
<!-- lib/sessionHooks.ts&#45;&gt;lib/supabaseClient.ts -->
<g id="edge42" class="edge">
<title>lib/sessionHooks.ts&#45;&gt;lib/supabaseClient.ts</title>
<path fill="none" stroke="#757575" d="M117.74,-91.32C116.2,-101.34 113.93,-116.07 112.05,-128.27"/>
<polygon fill="#757575" stroke="#757575" points="108.59,-127.74 110.52,-138.16 115.5,-128.81 108.59,-127.74"/>
</g>
<!-- lib/types/index.ts&#45;&gt;lib/types/supabase.ts -->
<g id="edge44" class="edge">
<title>lib/types/index.ts&#45;&gt;lib/types/supabase.ts</title>
<path fill="none" stroke="#757575" d="M159.46,-76.01C159.47,-76.02 159.49,-76.03 159.5,-76.04"/>
<polygon fill="#757575" stroke="#757575" points="149.28,-73.33 159.53,-76.06 153.22,-67.53 149.28,-73.33"/>
</g>
<!-- main.tsx -->
<g id="node42" class="node">
<title>main.tsx</title>
<path fill="none" stroke="#c6c5fe" d="M129.46,-101.65C129.46,-101.65 76.79,-101.65 76.79,-101.65 72.96,-101.65 69.12,-97.82 69.12,-93.99 69.12,-93.99 69.12,-86.32 69.12,-86.32 69.12,-82.49 72.96,-78.65 76.79,-78.65 76.79,-78.65 129.46,-78.65 129.46,-78.65 133.29,-78.65 137.12,-82.49 137.12,-86.32 137.12,-86.32 137.12,-93.99 137.12,-93.99 137.12,-97.82 133.29,-101.65 129.46,-101.65"/>
<text text-anchor="middle" x="103.12" y="-86.45" font-family="Arial" font-size="14.00" fill="#c6c5fe">main.tsx</text>
</g>
<!-- main.tsx&#45;&gt;App.tsx -->
<g id="edge45" class="edge">
<title>main.tsx&#45;&gt;App.tsx</title>
<path fill="none" stroke="#757575" d="M111.05,-95.65C111.07,-95.66 111.08,-95.67 111.09,-95.68"/>
<polygon fill="#757575" stroke="#757575" points="100.9,-92.87 111.12,-95.7 104.9,-87.11 100.9,-92.87"/>
</g>
<!-- main.tsx&#45;&gt;index.css -->
<g id="edge46" class="edge">
<title>main.tsx&#45;&gt;index.css</title>
<path fill="none" stroke="#757575" d="M95.2,-83.63C95.19,-83.62 95.18,-83.61 95.17,-83.6"/>
<polygon fill="#757575" stroke="#757575" points="105.09,-87.24 95.14,-83.57 100.63,-92.65 105.09,-87.24"/>
</g>
<!-- setupTests.ts -->
<g id="node43" class="node">
<title>setupTests.ts</title>
<path fill="none" stroke="#cfffac" d="M126.66,-23C126.66,-23 46.99,-23 46.99,-23 43.16,-23 39.33,-19.17 39.33,-15.33 39.33,-15.33 39.33,-7.67 39.33,-7.67 39.33,-3.83 43.16,0 46.99,0 46.99,0 126.66,0 126.66,0 130.49,0 134.33,-3.83 134.33,-7.67 134.33,-7.67 134.33,-15.33 134.33,-15.33 134.33,-19.17 130.49,-23 126.66,-23"/>
<text text-anchor="middle" x="86.83" y="-7.8" font-family="Arial" font-size="14.00" fill="#cfffac">setupTests.ts</text>
</g>
</g>
</svg>
