<?xml version="1.0" encoding="UTF-8" standalone="no"?>
<!DOCTYPE svg PUBLIC "-//W3C//DTD SVG 1.1//EN"
 "http://www.w3.org/Graphics/SVG/1.1/DTD/svg11.dtd">
<!-- Generated by graphviz version 2.43.0 (0)
 -->
<!-- Title: G Pages: 1 -->
<svg width="415pt" height="234pt"
 viewBox="0.00 0.00 415.42 234.20" xmlns="http://www.w3.org/2000/svg" xmlns:xlink="http://www.w3.org/1999/xlink">
<g id="graph0" class="graph" transform="scale(1 1) rotate(0) translate(21.6 212.6)">
<title>G</title>
<polygon fill="#111111" stroke="transparent" points="-21.6,21.6 -21.6,-212.6 393.82,-212.6 393.82,21.6 -21.6,21.6"/>
<!-- App.tsx -->
<g id="node1" class="node">
<title>App.tsx</title>
<path fill="none" stroke="#c6c5fe" d="M141.59,-115.15C141.59,-115.15 94.92,-115.15 94.92,-115.15 91.09,-115.15 87.26,-111.32 87.26,-107.48 87.26,-107.48 87.26,-99.82 87.26,-99.82 87.26,-95.98 91.09,-92.15 94.92,-92.15 94.92,-92.15 141.59,-92.15 141.59,-92.15 145.42,-92.15 149.26,-95.98 149.26,-99.82 149.26,-99.82 149.26,-107.48 149.26,-107.48 149.26,-111.32 145.42,-115.15 141.59,-115.15"/>
<text text-anchor="middle" x="118.26" y="-99.95" font-family="Arial" font-size="14.00" fill="#c6c5fe">App.tsx</text>
</g>
<!-- pages/GameSetup.tsx -->
<g id="node2" class="node">
<title>pages/GameSetup.tsx</title>
<path fill="none" stroke="#c6c5fe" d="M225.32,-104.89C225.32,-104.89 88.65,-104.89 88.65,-104.89 84.82,-104.89 80.98,-101.05 80.98,-97.22 80.98,-97.22 80.98,-89.55 80.98,-89.55 80.98,-85.72 84.82,-81.89 88.65,-81.89 88.65,-81.89 225.32,-81.89 225.32,-81.89 229.15,-81.89 232.98,-85.72 232.98,-89.55 232.98,-89.55 232.98,-97.22 232.98,-97.22 232.98,-101.05 229.15,-104.89 225.32,-104.89"/>
<text text-anchor="middle" x="156.98" y="-89.69" font-family="Arial" font-size="14.00" fill="#c6c5fe">pages/GameSetup.tsx</text>
</g>
<!-- App.tsx&#45;&gt;pages/GameSetup.tsx -->
<g id="edge1" class="edge">
<title>App.tsx&#45;&gt;pages/GameSetup.tsx</title>
<path fill="none" stroke="#757575" d="M149.52,-95.37C149.58,-95.35 149.65,-95.33 149.72,-95.31"/>
<polygon fill="#757575" stroke="#757575" points="141.16,-101.21 149.93,-95.26 139.36,-94.44 141.16,-101.21"/>
</g>
<!-- pages/Homepage.tsx -->
<g id="node3" class="node">
<title>pages/Homepage.tsx</title>
<path fill="none" stroke="#c6c5fe" d="M191.1,-118.4C191.1,-118.4 61.43,-118.4 61.43,-118.4 57.6,-118.4 53.76,-114.56 53.76,-110.73 53.76,-110.73 53.76,-103.06 53.76,-103.06 53.76,-99.23 57.6,-95.4 61.43,-95.4 61.43,-95.4 191.1,-95.4 191.1,-95.4 194.93,-95.4 198.76,-99.23 198.76,-103.06 198.76,-103.06 198.76,-110.73 198.76,-110.73 198.76,-114.56 194.93,-118.4 191.1,-118.4"/>
<text text-anchor="middle" x="126.26" y="-103.2" font-family="Arial" font-size="14.00" fill="#c6c5fe">pages/Homepage.tsx</text>
</g>
<!-- App.tsx&#45;&gt;pages/Homepage.tsx -->
<g id="edge2" class="edge">
<title>App.tsx&#45;&gt;pages/Homepage.tsx</title>
<path fill="none" stroke="#757575" d="M126.17,-106.86C126.19,-106.87 126.2,-106.87 126.21,-106.88"/>
<polygon fill="#757575" stroke="#757575" points="115.65,-106.35 126.24,-106.89 118.29,-99.87 115.65,-106.35"/>
</g>
<!-- pages/Join.tsx -->
<g id="node4" class="node">
<title>pages/Join.tsx</title>
<path fill="none" stroke="#c6c5fe" d="M194.11,-112.89C194.11,-112.89 106.44,-112.89 106.44,-112.89 102.61,-112.89 98.78,-109.06 98.78,-105.22 98.78,-105.22 98.78,-97.56 98.78,-97.56 98.78,-93.72 102.61,-89.89 106.44,-89.89 106.44,-89.89 194.11,-89.89 194.11,-89.89 197.94,-89.89 201.78,-93.72 201.78,-97.56 201.78,-97.56 201.78,-105.22 201.78,-105.22 201.78,-109.06 197.94,-112.89 194.11,-112.89"/>
<text text-anchor="middle" x="150.28" y="-97.69" font-family="Arial" font-size="14.00" fill="#c6c5fe">pages/Join.tsx</text>
</g>
<!-- App.tsx&#45;&gt;pages/Join.tsx -->
<g id="edge3" class="edge">
<title>App.tsx&#45;&gt;pages/Join.tsx</title>
<path fill="none" stroke="#757575" d="M149.49,-101.45C149.61,-101.44 149.73,-101.43 149.82,-101.42"/>
<polygon fill="#757575" stroke="#757575" points="140.35,-105.6 150.07,-101.4 139.85,-98.62 140.35,-105.6"/>
</g>
<!-- pages/Lobby.tsx -->
<g id="node5" class="node">
<title>pages/Lobby.tsx</title>
<path fill="none" stroke="#c6c5fe" d="M151.14,-92.66C151.14,-92.66 52.47,-92.66 52.47,-92.66 48.64,-92.66 44.81,-88.83 44.81,-84.99 44.81,-84.99 44.81,-77.33 44.81,-77.33 44.81,-73.49 48.64,-69.66 52.47,-69.66 52.47,-69.66 151.14,-69.66 151.14,-69.66 154.97,-69.66 158.81,-73.49 158.81,-77.33 158.81,-77.33 158.81,-84.99 158.81,-84.99 158.81,-88.83 154.97,-92.66 151.14,-92.66"/>
<text text-anchor="middle" x="101.81" y="-77.46" font-family="Arial" font-size="14.00" fill="#c6c5fe">pages/Lobby.tsx</text>
</g>
<!-- App.tsx&#45;&gt;pages/Lobby.tsx -->
<g id="edge4" class="edge">
<title>App.tsx&#45;&gt;pages/Lobby.tsx</title>
<path fill="none" stroke="#757575" d="M109.84,-92.14C109.81,-92.1 109.78,-92.06 109.74,-92.01"/>
<polygon fill="#757575" stroke="#757575" points="118.38,-97.89 109.65,-91.88 112.73,-102.02 118.38,-97.89"/>
</g>
<!-- pages/Quiz.tsx -->
<g id="node6" class="node">
<title>pages/Quiz.tsx</title>
<path fill="none" stroke="#c6c5fe" d="M187.77,-59.99C187.77,-59.99 96.1,-59.99 96.1,-59.99 92.27,-59.99 88.43,-56.16 88.43,-52.33 88.43,-52.33 88.43,-44.66 88.43,-44.66 88.43,-40.83 92.27,-36.99 96.1,-36.99 96.1,-36.99 187.77,-36.99 187.77,-36.99 191.6,-36.99 195.43,-40.83 195.43,-44.66 195.43,-44.66 195.43,-52.33 195.43,-52.33 195.43,-56.16 191.6,-59.99 187.77,-59.99"/>
<text text-anchor="middle" x="141.93" y="-44.79" font-family="Arial" font-size="14.00" fill="#c6c5fe">pages/Quiz.tsx</text>
</g>
<!-- App.tsx&#45;&gt;pages/Quiz.tsx -->
<g id="edge5" class="edge">
<title>App.tsx&#45;&gt;pages/Quiz.tsx</title>
<path fill="none" stroke="#757575" d="M123.28,-91.95C126.07,-85.45 129.63,-77.15 132.9,-69.55"/>
<polygon fill="#757575" stroke="#757575" points="136.19,-70.74 136.92,-60.17 129.76,-67.98 136.19,-70.74"/>
</g>
<!-- pages/Results.tsx -->
<g id="node7" class="node">
<title>pages/Results.tsx</title>
<path fill="none" stroke="#c6c5fe" d="M164.09,-108.67C164.09,-108.67 56.42,-108.67 56.42,-108.67 52.59,-108.67 48.75,-104.83 48.75,-101 48.75,-101 48.75,-93.33 48.75,-93.33 48.75,-89.5 52.59,-85.67 56.42,-85.67 56.42,-85.67 164.09,-85.67 164.09,-85.67 167.92,-85.67 171.75,-89.5 171.75,-93.33 171.75,-93.33 171.75,-101 171.75,-101 171.75,-104.83 167.92,-108.67 164.09,-108.67"/>
<text text-anchor="middle" x="110.25" y="-93.47" font-family="Arial" font-size="14.00" fill="#c6c5fe">pages/Results.tsx</text>
</g>
<!-- App.tsx&#45;&gt;pages/Results.tsx -->
<g id="edge6" class="edge">
<title>App.tsx&#45;&gt;pages/Results.tsx</title>
<path fill="none" stroke="#757575" d="M110.34,-97.24C110.33,-97.23 110.31,-97.22 110.3,-97.21"/>
<polygon fill="#757575" stroke="#757575" points="120.26,-100.77 110.27,-97.19 115.85,-106.21 120.26,-100.77"/>
</g>
<!-- atoms/index.ts -->
<g id="node8" class="node">
<title>atoms/index.ts</title>
<path fill="none" stroke="#c6c5fe" d="M145.97,-84.66C145.97,-84.66 57.3,-84.66 57.3,-84.66 53.47,-84.66 49.64,-80.82 49.64,-76.99 49.64,-76.99 49.64,-69.32 49.64,-69.32 49.64,-65.49 53.47,-61.66 57.3,-61.66 57.3,-61.66 145.97,-61.66 145.97,-61.66 149.8,-61.66 153.64,-65.49 153.64,-69.32 153.64,-69.32 153.64,-76.99 153.64,-76.99 153.64,-80.82 149.8,-84.66 145.97,-84.66"/>
<text text-anchor="middle" x="101.64" y="-69.46" font-family="Arial" font-size="14.00" fill="#c6c5fe">atoms/index.ts</text>
</g>
<!-- pages/GameSetup.tsx&#45;&gt;atoms/index.ts -->
<g id="edge28" class="edge">
<title>pages/GameSetup.tsx&#45;&gt;atoms/index.ts</title>
<path fill="none" stroke="#757575" d="M125.43,-81.85C125.38,-81.84 125.33,-81.82 125.28,-81.8"/>
<polygon fill="#757575" stroke="#757575" points="135.74,-81.9 125.14,-81.75 133.33,-88.47 135.74,-81.9"/>
</g>
<!-- lib/mutations.ts -->
<g id="node11" class="node">
<title>lib/mutations.ts</title>
<path fill="none" stroke="#c6c5fe" d="M195.77,-64.87C195.77,-64.87 104.1,-64.87 104.1,-64.87 100.27,-64.87 96.43,-61.04 96.43,-57.2 96.43,-57.2 96.43,-49.54 96.43,-49.54 96.43,-45.7 100.27,-41.87 104.1,-41.87 104.1,-41.87 195.77,-41.87 195.77,-41.87 199.6,-41.87 203.43,-45.7 203.43,-49.54 203.43,-49.54 203.43,-57.2 203.43,-57.2 203.43,-61.04 199.6,-64.87 195.77,-64.87"/>
<text text-anchor="middle" x="149.93" y="-49.67" font-family="Arial" font-size="14.00" fill="#c6c5fe">lib/mutations.ts</text>
</g>
<!-- pages/GameSetup.tsx&#45;&gt;lib/mutations.ts -->
<g id="edge31" class="edge">
<title>pages/GameSetup.tsx&#45;&gt;lib/mutations.ts</title>
<path fill="none" stroke="#757575" d="M154.91,-81.6C154.53,-79.46 154.13,-77.18 153.72,-74.86"/>
<polygon fill="#757575" stroke="#757575" points="157.15,-74.18 151.97,-64.94 150.26,-75.39 157.15,-74.18"/>
</g>
<!-- components/Alert.tsx -->
<g id="node12" class="node">
<title>components/Alert.tsx</title>
<path fill="none" stroke="#cfffac" d="M206.1,-117.71C206.1,-117.71 78.44,-117.71 78.44,-117.71 74.6,-117.71 70.77,-113.88 70.77,-110.04 70.77,-110.04 70.77,-102.38 70.77,-102.38 70.77,-98.54 74.6,-94.71 78.44,-94.71 78.44,-94.71 206.1,-94.71 206.1,-94.71 209.94,-94.71 213.77,-98.54 213.77,-102.38 213.77,-102.38 213.77,-110.04 213.77,-110.04 213.77,-113.88 209.94,-117.71 206.1,-117.71"/>
<text text-anchor="middle" x="142.27" y="-102.51" font-family="Arial" font-size="14.00" fill="#cfffac">components/Alert.tsx</text>
</g>
<!-- pages/GameSetup.tsx&#45;&gt;components/Alert.tsx -->
<g id="edge29" class="edge">
<title>pages/GameSetup.tsx&#45;&gt;components/Alert.tsx</title>
<path fill="none" stroke="#757575" d="M143.63,-105.03C143.42,-105.21 143.23,-105.37 143.06,-105.52"/>
<polygon fill="#757575" stroke="#757575" points="147.87,-96.68 142.63,-105.89 152.47,-101.96 147.87,-96.68"/>
</g>
<!-- components/LobbyStatus.tsx -->
<g id="node15" class="node">
<title>components/LobbyStatus.tsx</title>
<path fill="none" stroke="#c6c5fe" d="M248.3,-96.89C248.3,-96.89 72.63,-96.89 72.63,-96.89 68.8,-96.89 64.96,-93.05 64.96,-89.22 64.96,-89.22 64.96,-81.55 64.96,-81.55 64.96,-77.72 68.8,-73.89 72.63,-73.89 72.63,-73.89 248.3,-73.89 248.3,-73.89 252.13,-73.89 255.96,-77.72 255.96,-81.55 255.96,-81.55 255.96,-89.22 255.96,-89.22 255.96,-93.05 252.13,-96.89 248.3,-96.89"/>
<text text-anchor="middle" x="160.46" y="-81.69" font-family="Arial" font-size="14.00" fill="#c6c5fe">components/LobbyStatus.tsx</text>
</g>
<!-- pages/GameSetup.tsx&#45;&gt;components/LobbyStatus.tsx -->
<g id="edge30" class="edge">
<title>pages/GameSetup.tsx&#45;&gt;components/LobbyStatus.tsx</title>
<path fill="none" stroke="#757575" d="M160.42,-85.48C160.43,-85.46 160.44,-85.45 160.44,-85.44"/>
<polygon fill="#757575" stroke="#757575" points="159.65,-95.98 160.45,-85.41 153.23,-93.18 159.65,-95.98"/>
</g>
<!-- lib/supabaseClient.ts -->
<g id="node16" class="node">
<title>lib/supabaseClient.ts</title>
<path fill="none" stroke="#cfffac" d="M222.39,-88.88C222.39,-88.88 96.73,-88.88 96.73,-88.88 92.89,-88.88 89.06,-85.05 89.06,-81.22 89.06,-81.22 89.06,-73.55 89.06,-73.55 89.06,-69.72 92.89,-65.88 96.73,-65.88 96.73,-65.88 222.39,-65.88 222.39,-65.88 226.23,-65.88 230.06,-69.72 230.06,-73.55 230.06,-73.55 230.06,-81.22 230.06,-81.22 230.06,-85.05 226.23,-88.88 222.39,-88.88"/>
<text text-anchor="middle" x="159.56" y="-73.68" font-family="Arial" font-size="14.00" fill="#cfffac">lib/supabaseClient.ts</text>
</g>
<!-- pages/GameSetup.tsx&#45;&gt;lib/supabaseClient.ts -->
<g id="edge32" class="edge">
<title>pages/GameSetup.tsx&#45;&gt;lib/supabaseClient.ts</title>
<path fill="none" stroke="#757575" d="M158.85,-81.76C158.87,-81.68 158.88,-81.6 158.89,-81.53"/>
<polygon fill="#757575" stroke="#757575" points="160.79,-91.73 158.93,-81.3 153.88,-90.61 160.79,-91.73"/>
</g>
<!-- lib/types.ts -->
<g id="node22" class="node">
<title>lib/types.ts</title>
<path fill="none" stroke="#c6c5fe" d="M158.26,-59.02C158.26,-59.02 93.59,-59.02 93.59,-59.02 89.76,-59.02 85.93,-55.18 85.93,-51.35 85.93,-51.35 85.93,-43.68 85.93,-43.68 85.93,-39.85 89.76,-36.02 93.59,-36.02 93.59,-36.02 158.26,-36.02 158.26,-36.02 162.09,-36.02 165.93,-39.85 165.93,-43.68 165.93,-43.68 165.93,-51.35 165.93,-51.35 165.93,-55.18 162.09,-59.02 158.26,-59.02"/>
<text text-anchor="middle" x="125.93" y="-43.82" font-family="Arial" font-size="14.00" fill="#c6c5fe">lib/types.ts</text>
</g>
<!-- pages/GameSetup.tsx&#45;&gt;lib/types.ts -->
<g id="edge33" class="edge">
<title>pages/GameSetup.tsx&#45;&gt;lib/types.ts</title>
<path fill="none" stroke="#757575" d="M149.15,-81.81C146.23,-77.5 142.82,-72.47 139.53,-67.61"/>
<polygon fill="#757575" stroke="#757575" points="142.37,-65.56 133.87,-59.25 136.58,-69.49 142.37,-65.56"/>
</g>
<!-- components/ActiveGames.tsx -->
<g id="node10" class="node">
<title>components/ActiveGames.tsx</title>
<path fill="none" stroke="#c6c5fe" d="M225.1,-119.25C225.1,-119.25 43.43,-119.25 43.43,-119.25 39.6,-119.25 35.77,-115.41 35.77,-111.58 35.77,-111.58 35.77,-103.91 35.77,-103.91 35.77,-100.08 39.6,-96.25 43.43,-96.25 43.43,-96.25 225.1,-96.25 225.1,-96.25 228.93,-96.25 232.77,-100.08 232.77,-103.91 232.77,-103.91 232.77,-111.58 232.77,-111.58 232.77,-115.41 228.93,-119.25 225.1,-119.25"/>
<text text-anchor="middle" x="134.27" y="-104.05" font-family="Arial" font-size="14.00" fill="#c6c5fe">components/ActiveGames.tsx</text>
</g>
<!-- pages/Homepage.tsx&#45;&gt;components/ActiveGames.tsx -->
<g id="edge34" class="edge">
<title>pages/Homepage.tsx&#45;&gt;components/ActiveGames.tsx</title>
<path fill="none" stroke="#757575" d="M134.18,-107.74C134.19,-107.74 134.21,-107.74 134.22,-107.74"/>
<polygon fill="#757575" stroke="#757575" points="123.92,-110.14 134.24,-107.75 124.68,-103.18 123.92,-110.14"/>
</g>
<!-- pages/Homepage.tsx&#45;&gt;lib/mutations.ts -->
<g id="edge37" class="edge">
<title>pages/Homepage.tsx&#45;&gt;lib/mutations.ts</title>
<path fill="none" stroke="#757575" d="M131.4,-95.28C134.13,-89.11 137.57,-81.33 140.74,-74.16"/>
<polygon fill="#757575" stroke="#757575" points="143.96,-75.52 144.81,-64.96 137.56,-72.69 143.96,-75.52"/>
</g>
<!-- pages/Homepage.tsx&#45;&gt;components/Alert.tsx -->
<g id="edge35" class="edge">
<title>pages/Homepage.tsx&#45;&gt;components/Alert.tsx</title>
<path fill="none" stroke="#757575" d="M142.22,-106.21C142.23,-106.21 142.24,-106.21 142.24,-106.21"/>
<polygon fill="#757575" stroke="#757575" points="132.44,-110.2 142.26,-106.21 132.09,-103.21 132.44,-110.2"/>
</g>
<!-- components/PasswordModal.tsx -->
<g id="node18" class="node">
<title>components/PasswordModal.tsx</title>
<path fill="none" stroke="#cfffac" d="M219.79,-132.49C219.79,-132.49 23.12,-132.49 23.12,-132.49 19.29,-132.49 15.45,-128.66 15.45,-124.83 15.45,-124.83 15.45,-117.16 15.45,-117.16 15.45,-113.33 19.29,-109.49 23.12,-109.49 23.12,-109.49 219.79,-109.49 219.79,-109.49 223.62,-109.49 227.45,-113.33 227.45,-117.16 227.45,-117.16 227.45,-124.83 227.45,-124.83 227.45,-128.66 223.62,-132.49 219.79,-132.49"/>
<text text-anchor="middle" x="121.45" y="-117.29" font-family="Arial" font-size="14.00" fill="#cfffac">components/PasswordModal.tsx</text>
</g>
<!-- pages/Homepage.tsx&#45;&gt;components/PasswordModal.tsx -->
<g id="edge36" class="edge">
<title>pages/Homepage.tsx&#45;&gt;components/PasswordModal.tsx</title>
<path fill="none" stroke="#757575" d="M122.29,-118.54C122.26,-118.63 122.23,-118.72 122.2,-118.81"/>
<polygon fill="#757575" stroke="#757575" points="122.03,-108.47 122.11,-119.06 128.66,-110.73 122.03,-108.47"/>
</g>
<!-- pages/Join.tsx&#45;&gt;lib/mutations.ts -->
<g id="edge39" class="edge">
<title>pages/Join.tsx&#45;&gt;lib/mutations.ts</title>
<path fill="none" stroke="#757575" d="M150.19,-89.77C150.16,-85.4 150.13,-80.28 150.09,-75.29"/>
<polygon fill="#757575" stroke="#757575" points="153.59,-74.86 150.02,-64.89 146.59,-74.91 153.59,-74.86"/>
</g>
<!-- pages/Join.tsx&#45;&gt;components/Alert.tsx -->
<g id="edge38" class="edge">
<title>pages/Join.tsx&#45;&gt;components/Alert.tsx</title>
<path fill="none" stroke="#757575" d="M142.36,-106.15C142.35,-106.16 142.33,-106.17 142.32,-106.18"/>
<polygon fill="#757575" stroke="#757575" points="149.05,-98.02 142.29,-106.19 152.67,-104.02 149.05,-98.02"/>
</g>
<!-- pages/Join.tsx&#45;&gt;lib/supabaseClient.ts -->
<g id="edge40" class="edge">
<title>pages/Join.tsx&#45;&gt;lib/supabaseClient.ts</title>
<path fill="none" stroke="#757575" d="M154.81,-89.67C154.85,-89.57 154.88,-89.48 154.92,-89.38"/>
<polygon fill="#757575" stroke="#757575" points="154.69,-99.69 155.03,-89.1 148.16,-97.16 154.69,-99.69"/>
</g>
<!-- pages/Lobby.tsx&#45;&gt;atoms/index.ts -->
<g id="edge41" class="edge">
<title>pages/Lobby.tsx&#45;&gt;atoms/index.ts</title>
<path fill="none" stroke="#757575" d="M101.64,-73.25C101.64,-73.23 101.64,-73.22 101.64,-73.21"/>
<polygon fill="#757575" stroke="#757575" points="105.38,-83.09 101.64,-73.18 98.38,-83.26 105.38,-83.09"/>
</g>
<!-- lib/types/supabase.ts -->
<g id="node9" class="node">
<title>lib/types/supabase.ts</title>
<path fill="none" stroke="#cfffac" d="M173.69,-68.65C173.69,-68.65 46.03,-68.65 46.03,-68.65 42.19,-68.65 38.36,-64.82 38.36,-60.99 38.36,-60.99 38.36,-53.32 38.36,-53.32 38.36,-49.49 42.19,-45.65 46.03,-45.65 46.03,-45.65 173.69,-45.65 173.69,-45.65 177.53,-45.65 181.36,-49.49 181.36,-53.32 181.36,-53.32 181.36,-60.99 181.36,-60.99 181.36,-64.82 177.53,-68.65 173.69,-68.65"/>
<text text-anchor="middle" x="109.86" y="-53.45" font-family="Arial" font-size="14.00" fill="#cfffac">lib/types/supabase.ts</text>
</g>
<!-- pages/Lobby.tsx&#45;&gt;lib/types/supabase.ts -->
<g id="edge45" class="edge">
<title>pages/Lobby.tsx&#45;&gt;lib/types/supabase.ts</title>
<path fill="none" stroke="#757575" d="M105.74,-69.44C105.77,-69.34 105.8,-69.25 105.83,-69.15"/>
<polygon fill="#757575" stroke="#757575" points="106.07,-79.46 105.93,-68.87 99.43,-77.23 106.07,-79.46"/>
</g>
<!-- pages/Lobby.tsx&#45;&gt;lib/mutations.ts -->
<g id="edge42" class="edge">
<title>pages/Lobby.tsx&#45;&gt;lib/mutations.ts</title>
<path fill="none" stroke="#757575" d="M121.94,-69.54C122.1,-69.44 122.26,-69.35 122.42,-69.26"/>
<polygon fill="#757575" stroke="#757575" points="122.82,-73.07 129.73,-65.04 119.32,-67.01 122.82,-73.07"/>
</g>
<!-- pages/Lobby.tsx&#45;&gt;lib/supabaseClient.ts -->
<g id="edge44" class="edge">
<title>pages/Lobby.tsx&#45;&gt;lib/supabaseClient.ts</title>
<path fill="none" stroke="#757575" d="M158.91,-77.43C159.02,-77.42 159.11,-77.41 159.19,-77.41"/>
<polygon fill="#757575" stroke="#757575" points="149.64,-81.54 159.39,-77.39 149.18,-74.56 149.64,-81.54"/>
</g>
<!-- lib/sessionHooks.ts -->
<g id="node27" class="node">
<title>lib/sessionHooks.ts</title>
<path fill="none" stroke="#c6c5fe" d="M162.67,-100.66C162.67,-100.66 46,-100.66 46,-100.66 42.17,-100.66 38.33,-96.83 38.33,-93 38.33,-93 38.33,-85.33 38.33,-85.33 38.33,-81.5 42.17,-77.66 46,-77.66 46,-77.66 162.67,-77.66 162.67,-77.66 166.5,-77.66 170.33,-81.5 170.33,-85.33 170.33,-85.33 170.33,-93 170.33,-93 170.33,-96.83 166.5,-100.66 162.67,-100.66"/>
<text text-anchor="middle" x="104.33" y="-85.46" font-family="Arial" font-size="14.00" fill="#c6c5fe">lib/sessionHooks.ts</text>
</g>
<!-- pages/Lobby.tsx&#45;&gt;lib/sessionHooks.ts -->
<g id="edge43" class="edge">
<title>pages/Lobby.tsx&#45;&gt;lib/sessionHooks.ts</title>
<path fill="none" stroke="#757575" d="M104.31,-89.07C104.31,-89.09 104.31,-89.1 104.32,-89.11"/>
<polygon fill="#757575" stroke="#757575" points="97.95,-80.67 104.33,-89.14 104.63,-78.54 97.95,-80.67"/>
</g>
<!-- pages/Quiz.tsx&#45;&gt;lib/mutations.ts -->
<g id="edge46" class="edge">
<title>pages/Quiz.tsx&#45;&gt;lib/mutations.ts</title>
<path fill="none" stroke="#757575" d="M149.84,-53.32C149.86,-53.33 149.87,-53.33 149.88,-53.34"/>
<polygon fill="#757575" stroke="#757575" points="139.54,-51.13 149.91,-53.36 143.19,-45.15 139.54,-51.13"/>
</g>
<!-- pages/Quiz.tsx&#45;&gt;lib/types.ts -->
<g id="edge49" class="edge">
<title>pages/Quiz.tsx&#45;&gt;lib/types.ts</title>
<path fill="none" stroke="#757575" d="M125.97,-47.52C125.96,-47.52 125.96,-47.52 125.95,-47.52"/>
<polygon fill="#757575" stroke="#757575" points="136.16,-44.7 125.94,-47.52 135.68,-51.68 136.16,-44.7"/>
</g>
<!-- lib/realtimeHooks.ts -->
<g id="node25" class="node">
<title>lib/realtimeHooks.ts</title>
<path fill="none" stroke="#c6c5fe" d="M193.77,-58.35C193.77,-58.35 74.1,-58.35 74.1,-58.35 70.27,-58.35 66.43,-54.51 66.43,-50.68 66.43,-50.68 66.43,-43.01 66.43,-43.01 66.43,-39.18 70.27,-35.35 74.1,-35.35 74.1,-35.35 193.77,-35.35 193.77,-35.35 197.6,-35.35 201.43,-39.18 201.43,-43.01 201.43,-43.01 201.43,-50.68 201.43,-50.68 201.43,-54.51 197.6,-58.35 193.77,-58.35"/>
<text text-anchor="middle" x="133.93" y="-43.15" font-family="Arial" font-size="14.00" fill="#c6c5fe">lib/realtimeHooks.ts</text>
</g>
<!-- pages/Quiz.tsx&#45;&gt;lib/realtimeHooks.ts -->
<g id="edge47" class="edge">
<title>pages/Quiz.tsx&#45;&gt;lib/realtimeHooks.ts</title>
<path fill="none" stroke="#757575" d="M134.02,-46.86C134.01,-46.86 133.99,-46.86 133.98,-46.86"/>
<polygon fill="#757575" stroke="#757575" points="144.47,-45.47 133.96,-46.85 143.03,-52.32 144.47,-45.47"/>
</g>
<!-- pages/Quiz.tsx&#45;&gt;lib/sessionHooks.ts -->
<g id="edge48" class="edge">
<title>pages/Quiz.tsx&#45;&gt;lib/sessionHooks.ts</title>
<path fill="none" stroke="#757575" d="M131.26,-60.04C128.43,-63.1 125.29,-66.5 122.18,-69.86"/>
<polygon fill="#757575" stroke="#757575" points="119.38,-67.73 115.16,-77.45 124.52,-72.48 119.38,-67.73"/>
</g>
<!-- pages/Results.tsx&#45;&gt;lib/mutations.ts -->
<g id="edge50" class="edge">
<title>pages/Results.tsx&#45;&gt;lib/mutations.ts</title>
<path fill="none" stroke="#757575" d="M120.68,-85.66C124.29,-81.67 128.45,-77.08 132.48,-72.63"/>
<polygon fill="#757575" stroke="#757575" points="135.32,-74.71 139.44,-64.95 130.13,-70.01 135.32,-74.71"/>
</g>
<!-- pages/Results.tsx&#45;&gt;lib/supabaseClient.ts -->
<g id="edge52" class="edge">
<title>pages/Results.tsx&#45;&gt;lib/supabaseClient.ts</title>
<path fill="none" stroke="#757575" d="M138.93,-85.66C138.98,-85.64 139.02,-85.63 139.06,-85.61"/>
<polygon fill="#757575" stroke="#757575" points="131.21,-92.53 139.19,-85.56 128.6,-86.04 131.21,-92.53"/>
</g>
<!-- pages/Results.tsx&#45;&gt;lib/sessionHooks.ts -->
<g id="edge51" class="edge">
<title>pages/Results.tsx&#45;&gt;lib/sessionHooks.ts</title>
<path fill="none" stroke="#757575" d="M104.4,-89.25C104.39,-89.24 104.38,-89.23 104.37,-89.22"/>
<polygon fill="#757575" stroke="#757575" points="113.12,-95.15 104.35,-89.19 107.49,-99.32 113.12,-95.15"/>
</g>
<!-- atoms/index.ts&#45;&gt;lib/types/supabase.ts -->
<g id="edge7" class="edge">
<title>atoms/index.ts&#45;&gt;lib/types/supabase.ts</title>
<path fill="none" stroke="#757575" d="M107.61,-61.53C107.65,-61.45 107.69,-61.37 107.73,-61.3"/>
<polygon fill="#757575" stroke="#757575" points="106.39,-71.56 107.85,-61.07 100.16,-68.36 106.39,-71.56"/>
</g>
<!-- components/ActiveGames.tsx&#45;&gt;lib/mutations.ts -->
<g id="edge8" class="edge">
<title>components/ActiveGames.tsx&#45;&gt;lib/mutations.ts</title>
<path fill="none" stroke="#757575" d="M137.59,-96.22C139.4,-89.94 141.69,-81.99 143.81,-74.63"/>
<polygon fill="#757575" stroke="#757575" points="147.21,-75.46 146.62,-64.89 140.48,-73.53 147.21,-75.46"/>
</g>
<!-- lib/mutations.ts&#45;&gt;lib/supabaseClient.ts -->
<g id="edge16" class="edge">
<title>lib/mutations.ts&#45;&gt;lib/supabaseClient.ts</title>
<path fill="none" stroke="#757575" d="M154.63,-65.1C154.67,-65.19 154.71,-65.29 154.75,-65.38"/>
<polygon fill="#757575" stroke="#757575" points="147.89,-57.69 154.86,-65.67 154.39,-55.08 147.89,-57.69"/>
</g>
<!-- lib/mutations.ts&#45;&gt;lib/types.ts -->
<g id="edge17" class="edge">
<title>lib/mutations.ts&#45;&gt;lib/types.ts</title>
<path fill="none" stroke="#757575" d="M126,-47.53C125.98,-47.53 125.97,-47.53 125.97,-47.52"/>
<polygon fill="#757575" stroke="#757575" points="136.5,-46.52 125.94,-47.52 134.82,-53.32 136.5,-46.52"/>
</g>
<!-- components/Flag.tsx -->
<g id="node13" class="node">
<title>components/Flag.tsx</title>
<path fill="none" stroke="#c6c5fe" d="M362.96,-23C362.96,-23 236.3,-23 236.3,-23 232.46,-23 228.63,-19.17 228.63,-15.33 228.63,-15.33 228.63,-7.67 228.63,-7.67 228.63,-3.83 232.46,0 236.3,0 236.3,0 362.96,0 362.96,0 366.8,0 370.63,-3.83 370.63,-7.67 370.63,-7.67 370.63,-15.33 370.63,-15.33 370.63,-19.17 366.8,-23 362.96,-23"/>
<text text-anchor="middle" x="299.63" y="-7.8" font-family="Arial" font-size="14.00" fill="#c6c5fe">components/Flag.tsx</text>
</g>
<!-- lib/flagIcons.ts -->
<g id="node14" class="node">
<title>lib/flagIcons.ts</title>
<path fill="none" stroke="#cfffac" d="M350.96,-23C350.96,-23 264.3,-23 264.3,-23 260.46,-23 256.63,-19.17 256.63,-15.33 256.63,-15.33 256.63,-7.67 256.63,-7.67 256.63,-3.83 260.46,0 264.3,0 264.3,0 350.96,0 350.96,0 354.8,0 358.63,-3.83 358.63,-7.67 358.63,-7.67 358.63,-15.33 358.63,-15.33 358.63,-19.17 354.8,-23 350.96,-23"/>
<text text-anchor="middle" x="307.63" y="-7.8" font-family="Arial" font-size="14.00" fill="#cfffac">lib/flagIcons.ts</text>
</g>
<!-- components/Flag.tsx&#45;&gt;lib/flagIcons.ts -->
<g id="edge9" class="edge">
<title>components/Flag.tsx&#45;&gt;lib/flagIcons.ts</title>
<path fill="none" stroke="#757575" d="M307.54,-11.5C307.56,-11.5 307.57,-11.5 307.58,-11.5"/>
<polygon fill="#757575" stroke="#757575" points="297.62,-15.04 307.61,-11.5 297.59,-8.04 297.62,-15.04"/>
</g>
<!-- components/LobbyStatus.tsx&#45;&gt;lib/supabaseClient.ts -->
<g id="edge10" class="edge">
<title>components/LobbyStatus.tsx&#45;&gt;lib/supabaseClient.ts</title>
<path fill="none" stroke="#757575" d="M159.57,-77.47C159.57,-77.46 159.57,-77.45 159.56,-77.43"/>
<polygon fill="#757575" stroke="#757575" points="164.19,-86.94 159.56,-77.41 157.24,-87.75 164.19,-86.94"/>
</g>
<!-- components/PasswordModal.test.tsx -->
<g id="node17" class="node">
<title>components/PasswordModal.test.tsx</title>
<path fill="none" stroke="#c6c5fe" d="M230.33,-141.88C230.33,-141.88 7.67,-141.88 7.67,-141.88 3.83,-141.88 0,-138.05 0,-134.21 0,-134.21 0,-126.55 0,-126.55 0,-122.71 3.83,-118.88 7.67,-118.88 7.67,-118.88 230.33,-118.88 230.33,-118.88 234.17,-118.88 238,-122.71 238,-126.55 238,-126.55 238,-134.21 238,-134.21 238,-138.05 234.17,-141.88 230.33,-141.88"/>
<text text-anchor="middle" x="119" y="-126.68" font-family="Arial" font-size="14.00" fill="#c6c5fe">components/PasswordModal.test.tsx</text>
</g>
<!-- components/PasswordModal.test.tsx&#45;&gt;components/PasswordModal.tsx -->
<g id="edge11" class="edge">
<title>components/PasswordModal.test.tsx&#45;&gt;components/PasswordModal.tsx</title>
<path fill="none" stroke="#757575" d="M121.43,-121.1C121.43,-121.08 121.44,-121.07 121.44,-121.05"/>
<polygon fill="#757575" stroke="#757575" points="122.28,-131.59 121.45,-121.02 115.51,-129.8 122.28,-131.59"/>
</g>
<!-- index.css -->
<g id="node19" class="node">
<title>index.css</title>
<path fill="none" stroke="#cfffac" d="M135.96,-131.16C135.96,-131.16 78.3,-131.16 78.3,-131.16 74.46,-131.16 70.63,-127.33 70.63,-123.49 70.63,-123.49 70.63,-115.83 70.63,-115.83 70.63,-111.99 74.46,-108.16 78.3,-108.16 78.3,-108.16 135.96,-108.16 135.96,-108.16 139.8,-108.16 143.63,-111.99 143.63,-115.83 143.63,-115.83 143.63,-123.49 143.63,-123.49 143.63,-127.33 139.8,-131.16 135.96,-131.16"/>
<text text-anchor="middle" x="107.13" y="-115.96" font-family="Arial" font-size="14.00" fill="#cfffac">index.css</text>
</g>
<!-- lib/createSession.test.ts -->
<g id="node20" class="node">
<title>lib/createSession.test.ts</title>
<path fill="none" stroke="#c6c5fe" d="M232.24,-80.88C232.24,-80.88 88.57,-80.88 88.57,-80.88 84.74,-80.88 80.91,-77.05 80.91,-73.21 80.91,-73.21 80.91,-65.55 80.91,-65.55 80.91,-61.71 84.74,-57.88 88.57,-57.88 88.57,-57.88 232.24,-57.88 232.24,-57.88 236.07,-57.88 239.91,-61.71 239.91,-65.55 239.91,-65.55 239.91,-73.21 239.91,-73.21 239.91,-77.05 236.07,-80.88 232.24,-80.88"/>
<text text-anchor="middle" x="160.41" y="-65.68" font-family="Arial" font-size="14.00" fill="#c6c5fe">lib/createSession.test.ts</text>
</g>
<!-- lib/createSession.test.ts&#45;&gt;lib/mutations.ts -->
<g id="edge12" class="edge">
<title>lib/createSession.test.ts&#45;&gt;lib/mutations.ts</title>
<path fill="none" stroke="#757575" d="M152.8,-57.75C152.74,-57.67 152.69,-57.59 152.64,-57.51"/>
<polygon fill="#757575" stroke="#757575" points="160.9,-63.74 152.5,-57.29 155.04,-67.57 160.9,-63.74"/>
</g>
<!-- lib/createSession.test.ts&#45;&gt;lib/supabaseClient.ts -->
<g id="edge13" class="edge">
<title>lib/createSession.test.ts&#45;&gt;lib/supabaseClient.ts</title>
<path fill="none" stroke="#757575" d="M159.57,-77.29C159.57,-77.31 159.57,-77.32 159.56,-77.33"/>
<polygon fill="#757575" stroke="#757575" points="157.16,-67.04 159.56,-77.36 164.12,-67.8 157.16,-67.04"/>
</g>
<!-- lib/mutations.test.ts -->
<g id="node21" class="node">
<title>lib/mutations.test.ts</title>
<path fill="none" stroke="#c6c5fe" d="M176.74,-62.12C176.74,-62.12 59.08,-62.12 59.08,-62.12 55.24,-62.12 51.41,-58.29 51.41,-54.46 51.41,-54.46 51.41,-46.79 51.41,-46.79 51.41,-42.96 55.24,-39.12 59.08,-39.12 59.08,-39.12 176.74,-39.12 176.74,-39.12 180.58,-39.12 184.41,-42.96 184.41,-46.79 184.41,-46.79 184.41,-54.46 184.41,-54.46 184.41,-58.29 180.58,-62.12 176.74,-62.12"/>
<text text-anchor="middle" x="117.91" y="-46.92" font-family="Arial" font-size="14.00" fill="#c6c5fe">lib/mutations.test.ts</text>
</g>
<!-- lib/mutations.test.ts&#45;&gt;lib/mutations.ts -->
<g id="edge14" class="edge">
<title>lib/mutations.test.ts&#45;&gt;lib/mutations.ts</title>
<path fill="none" stroke="#757575" d="M149.84,-53.36C149.86,-53.36 149.87,-53.37 149.88,-53.37"/>
<polygon fill="#757575" stroke="#757575" points="139.64,-55.97 149.91,-53.37 140.26,-49 139.64,-55.97"/>
</g>
<!-- lib/mutations.test.ts&#45;&gt;lib/types.ts -->
<g id="edge15" class="edge">
<title>lib/mutations.test.ts&#45;&gt;lib/types.ts</title>
<path fill="none" stroke="#757575" d="M125.84,-47.55C125.85,-47.54 125.86,-47.54 125.88,-47.54"/>
<polygon fill="#757575" stroke="#757575" points="117.85,-54.43 125.9,-47.52 115.3,-47.9 117.85,-54.43"/>
</g>
<!-- lib/types/index.ts -->
<g id="node28" class="node">
<title>lib/types/index.ts</title>
<path fill="none" stroke="#c6c5fe" d="M154.37,-76.66C154.37,-76.66 53.7,-76.66 53.7,-76.66 49.87,-76.66 46.03,-72.82 46.03,-68.99 46.03,-68.99 46.03,-61.32 46.03,-61.32 46.03,-57.49 49.87,-53.66 53.7,-53.66 53.7,-53.66 154.37,-53.66 154.37,-53.66 158.2,-53.66 162.03,-57.49 162.03,-61.32 162.03,-61.32 162.03,-68.99 162.03,-68.99 162.03,-72.82 158.2,-76.66 154.37,-76.66"/>
<text text-anchor="middle" x="104.03" y="-61.46" font-family="Arial" font-size="14.00" fill="#c6c5fe">lib/types/index.ts</text>
</g>
<!-- lib/types.ts&#45;&gt;lib/types/index.ts -->
<g id="edge24" class="edge">
<title>lib/types.ts&#45;&gt;lib/types/index.ts</title>
<path fill="none" stroke="#757575" d="M111.45,-59.18C111.38,-59.24 111.32,-59.29 111.26,-59.34"/>
<polygon fill="#757575" stroke="#757575" points="116.66,-50.49 111.07,-59.49 121.05,-55.94 116.66,-50.49"/>
</g>
<!-- lib/mutations.validation.ts -->
<g id="node23" class="node">
<title>lib/mutations.validation.ts</title>
<path fill="none" stroke="#cfffac" d="M364.55,-191C364.55,-191 211.88,-191 211.88,-191 208.05,-191 204.22,-187.17 204.22,-183.33 204.22,-183.33 204.22,-175.67 204.22,-175.67 204.22,-171.83 208.05,-168 211.88,-168 211.88,-168 364.55,-168 364.55,-168 368.38,-168 372.22,-171.83 372.22,-175.67 372.22,-175.67 372.22,-183.33 372.22,-183.33 372.22,-187.17 368.38,-191 364.55,-191"/>
<text text-anchor="middle" x="288.22" y="-175.8" font-family="Arial" font-size="14.00" fill="#cfffac">lib/mutations.validation.ts</text>
</g>
<!-- lib/presence.ts -->
<g id="node24" class="node">
<title>lib/presence.ts</title>
<path fill="none" stroke="#c6c5fe" d="M211.95,-88.88C211.95,-88.88 123.29,-88.88 123.29,-88.88 119.45,-88.88 115.62,-85.05 115.62,-81.22 115.62,-81.22 115.62,-73.55 115.62,-73.55 115.62,-69.72 119.45,-65.88 123.29,-65.88 123.29,-65.88 211.95,-65.88 211.95,-65.88 215.79,-65.88 219.62,-69.72 219.62,-73.55 219.62,-73.55 219.62,-81.22 219.62,-81.22 219.62,-85.05 215.79,-88.88 211.95,-88.88"/>
<text text-anchor="middle" x="167.62" y="-73.68" font-family="Arial" font-size="14.00" fill="#c6c5fe">lib/presence.ts</text>
</g>
<!-- lib/presence.ts&#45;&gt;lib/supabaseClient.ts -->
<g id="edge18" class="edge">
<title>lib/presence.ts&#45;&gt;lib/supabaseClient.ts</title>
<path fill="none" stroke="#757575" d="M159.65,-77.38C159.63,-77.38 159.62,-77.38 159.61,-77.38"/>
<polygon fill="#757575" stroke="#757575" points="169.57,-73.85 159.58,-77.38 169.59,-80.85 169.57,-73.85"/>
</g>
<!-- lib/realtimeHooks.ts&#45;&gt;lib/supabaseClient.ts -->
<g id="edge19" class="edge">
<title>lib/realtimeHooks.ts&#45;&gt;lib/supabaseClient.ts</title>
<path fill="none" stroke="#757575" d="M143.77,-58.57C143.89,-58.71 144.01,-58.85 144.13,-59"/>
<polygon fill="#757575" stroke="#757575" points="140.51,-60.13 149.62,-65.54 145.88,-55.63 140.51,-60.13"/>
</g>
<!-- lib/realtimeHooks.ts&#45;&gt;lib/types.ts -->
<g id="edge20" class="edge">
<title>lib/realtimeHooks.ts&#45;&gt;lib/types.ts</title>
<path fill="none" stroke="#757575" d="M126.02,-47.51C126,-47.51 125.99,-47.51 125.98,-47.51"/>
<polygon fill="#757575" stroke="#757575" points="135.61,-43.16 125.95,-47.51 136.22,-50.14 135.61,-43.16"/>
</g>
<!-- lib/sessionCode.test.ts -->
<g id="node26" class="node">
<title>lib/sessionCode.test.ts</title>
<path fill="none" stroke="#c6c5fe" d="M225.09,-72.88C225.09,-72.88 88.43,-72.88 88.43,-72.88 84.59,-72.88 80.76,-69.04 80.76,-65.21 80.76,-65.21 80.76,-57.54 80.76,-57.54 80.76,-53.71 84.59,-49.88 88.43,-49.88 88.43,-49.88 225.09,-49.88 225.09,-49.88 228.93,-49.88 232.76,-53.71 232.76,-57.54 232.76,-57.54 232.76,-65.21 232.76,-65.21 232.76,-69.04 228.93,-72.88 225.09,-72.88"/>
<text text-anchor="middle" x="156.76" y="-57.68" font-family="Arial" font-size="14.00" fill="#c6c5fe">lib/sessionCode.test.ts</text>
</g>
<!-- lib/sessionCode.test.ts&#45;&gt;lib/mutations.ts -->
<g id="edge21" class="edge">
<title>lib/sessionCode.test.ts&#45;&gt;lib/mutations.ts</title>
<path fill="none" stroke="#757575" d="M150.01,-53.46C150,-53.45 149.99,-53.43 149.98,-53.42"/>
<polygon fill="#757575" stroke="#757575" points="159.12,-58.74 149.95,-53.39 153.79,-63.28 159.12,-58.74"/>
</g>
<!-- lib/sessionCode.test.ts&#45;&gt;lib/supabaseClient.ts -->
<g id="edge22" class="edge">
<title>lib/sessionCode.test.ts&#45;&gt;lib/supabaseClient.ts</title>
<path fill="none" stroke="#757575" d="M158.79,-73.01C158.81,-73.09 158.82,-73.16 158.83,-73.24"/>
<polygon fill="#757575" stroke="#757575" points="153.7,-64.22 158.87,-73.47 160.6,-63.01 153.7,-64.22"/>
</g>
<!-- lib/sessionHooks.ts&#45;&gt;lib/supabaseClient.ts -->
<g id="edge23" class="edge">
<title>lib/sessionHooks.ts&#45;&gt;lib/supabaseClient.ts</title>
<path fill="none" stroke="#757575" d="M158.6,-77.59C158.76,-77.56 158.89,-77.53 159.01,-77.5"/>
<polygon fill="#757575" stroke="#757575" points="150.26,-82.95 159.31,-77.44 148.8,-76.1 150.26,-82.95"/>
</g>
<!-- lib/types/index.ts&#45;&gt;lib/types/supabase.ts -->
<g id="edge25" class="edge">
<title>lib/types/index.ts&#45;&gt;lib/types/supabase.ts</title>
<path fill="none" stroke="#757575" d="M109.8,-57.24C109.81,-57.23 109.82,-57.21 109.82,-57.2"/>
<polygon fill="#757575" stroke="#757575" points="106.78,-67.33 109.84,-57.18 101.12,-63.2 106.78,-67.33"/>
</g>
<!-- main.tsx -->
<g id="node29" class="node">
<title>main.tsx</title>
<path fill="none" stroke="#c6c5fe" d="M138.1,-123.15C138.1,-123.15 85.44,-123.15 85.44,-123.15 81.6,-123.15 77.77,-119.32 77.77,-115.49 77.77,-115.49 77.77,-107.82 77.77,-107.82 77.77,-103.99 81.6,-100.15 85.44,-100.15 85.44,-100.15 138.1,-100.15 138.1,-100.15 141.94,-100.15 145.77,-103.99 145.77,-107.82 145.77,-107.82 145.77,-115.49 145.77,-115.49 145.77,-119.32 141.94,-123.15 138.1,-123.15"/>
<text text-anchor="middle" x="111.77" y="-107.95" font-family="Arial" font-size="14.00" fill="#c6c5fe">main.tsx</text>
</g>
<!-- main.tsx&#45;&gt;App.tsx -->
<g id="edge26" class="edge">
<title>main.tsx&#45;&gt;App.tsx</title>
<path fill="none" stroke="#757575" d="M118.18,-103.74C118.2,-103.73 118.21,-103.71 118.22,-103.7"/>
<polygon fill="#757575" stroke="#757575" points="114.65,-113.66 118.24,-103.67 109.21,-109.24 114.65,-113.66"/>
</g>
<!-- main.tsx&#45;&gt;index.css -->
<g id="edge27" class="edge">
<title>main.tsx&#45;&gt;index.css</title>
<path fill="none" stroke="#757575" d="M107.18,-119.57C107.17,-119.58 107.17,-119.6 107.16,-119.61"/>
<polygon fill="#757575" stroke="#757575" points="109.14,-109.22 107.14,-119.64 115.2,-112.74 109.14,-109.22"/>
</g>
<!-- setupTests.ts -->
<g id="node30" class="node">
<title>setupTests.ts</title>
<path fill="none" stroke="#cfffac" d="M172.05,-191C172.05,-191 92.38,-191 92.38,-191 88.55,-191 84.72,-187.17 84.72,-183.33 84.72,-183.33 84.72,-175.67 84.72,-175.67 84.72,-171.83 88.55,-168 92.38,-168 92.38,-168 172.05,-168 172.05,-168 175.88,-168 179.72,-171.83 179.72,-175.67 179.72,-175.67 179.72,-183.33 179.72,-183.33 179.72,-187.17 175.88,-191 172.05,-191"/>
<text text-anchor="middle" x="132.22" y="-175.8" font-family="Arial" font-size="14.00" fill="#cfffac">setupTests.ts</text>
</g>
</g>
</svg>
