<?xml version="1.0" encoding="UTF-8" standalone="no"?>
<!DOCTYPE svg PUBLIC "-//W3C//DTD SVG 1.1//EN"
 "http://www.w3.org/Graphics/SVG/1.1/DTD/svg11.dtd">
<!-- Generated by graphviz version 2.43.0 (0)
 -->
<!-- Title: G Pages: 1 -->
<svg width="532pt" height="274pt"
 viewBox="0.00 0.00 532.22 274.20" xmlns="http://www.w3.org/2000/svg" xmlns:xlink="http://www.w3.org/1999/xlink">
<g id="graph0" class="graph" transform="scale(1 1) rotate(0) translate(21.6 252.6)">
<title>G</title>
<polygon fill="#111111" stroke="transparent" points="-21.6,21.6 -21.6,-252.6 510.62,-252.6 510.62,21.6 -21.6,21.6"/>
<!-- App.tsx -->
<g id="node1" class="node">
<title>App.tsx</title>
<path fill="none" stroke="#c6c5fe" d="M140.78,-107.55C140.78,-107.55 94.12,-107.55 94.12,-107.55 90.28,-107.55 86.45,-103.71 86.45,-99.88 86.45,-99.88 86.45,-92.21 86.45,-92.21 86.45,-88.38 90.28,-84.55 94.12,-84.55 94.12,-84.55 140.78,-84.55 140.78,-84.55 144.62,-84.55 148.45,-88.38 148.45,-92.21 148.45,-92.21 148.45,-99.88 148.45,-99.88 148.45,-103.71 144.62,-107.55 140.78,-107.55"/>
<text text-anchor="middle" x="117.45" y="-92.35" font-family="Arial" font-size="14.00" fill="#c6c5fe">App.tsx</text>
</g>
<!-- pages/GameSetup.tsx -->
<g id="node2" class="node">
<title>pages/GameSetup.tsx</title>
<path fill="none" stroke="#c6c5fe" d="M162.54,-134.22C162.54,-134.22 25.88,-134.22 25.88,-134.22 22.04,-134.22 18.21,-130.38 18.21,-126.55 18.21,-126.55 18.21,-118.88 18.21,-118.88 18.21,-115.05 22.04,-111.22 25.88,-111.22 25.88,-111.22 162.54,-111.22 162.54,-111.22 166.38,-111.22 170.21,-115.05 170.21,-118.88 170.21,-118.88 170.21,-126.55 170.21,-126.55 170.21,-130.38 166.38,-134.22 162.54,-134.22"/>
<text text-anchor="middle" x="94.21" y="-119.02" font-family="Arial" font-size="14.00" fill="#c6c5fe">pages/GameSetup.tsx</text>
</g>
<!-- App.tsx&#45;&gt;pages/GameSetup.tsx -->
<g id="edge1" class="edge">
<title>App.tsx&#45;&gt;pages/GameSetup.tsx</title>
<path fill="none" stroke="#757575" d="M107.19,-107.82C107.07,-107.96 106.95,-108.1 106.82,-108.24"/>
<polygon fill="#757575" stroke="#757575" points="108.19,-101.34 104.26,-111.18 113.47,-105.94 108.19,-101.34"/>
</g>
<!-- pages/Homepage.tsx -->
<g id="node3" class="node">
<title>pages/Homepage.tsx</title>
<path fill="none" stroke="#c6c5fe" d="M241.22,-141.13C241.22,-141.13 111.55,-141.13 111.55,-141.13 107.72,-141.13 103.89,-137.29 103.89,-133.46 103.89,-133.46 103.89,-125.79 103.89,-125.79 103.89,-121.96 107.72,-118.13 111.55,-118.13 111.55,-118.13 241.22,-118.13 241.22,-118.13 245.05,-118.13 248.89,-121.96 248.89,-125.79 248.89,-125.79 248.89,-133.46 248.89,-133.46 248.89,-137.29 245.05,-141.13 241.22,-141.13"/>
<text text-anchor="middle" x="176.39" y="-125.93" font-family="Arial" font-size="14.00" fill="#c6c5fe">pages/Homepage.tsx</text>
</g>
<!-- App.tsx&#45;&gt;pages/Homepage.tsx -->
<g id="edge2" class="edge">
<title>App.tsx&#45;&gt;pages/Homepage.tsx</title>
<path fill="none" stroke="#757575" d="M137.73,-107.6C140.75,-109.32 143.92,-111.13 147.08,-112.93"/>
<polygon fill="#757575" stroke="#757575" points="145.45,-116.03 155.87,-117.94 148.91,-109.94 145.45,-116.03"/>
</g>
<!-- pages/Join.tsx -->
<g id="node4" class="node">
<title>pages/Join.tsx</title>
<path fill="none" stroke="#c6c5fe" d="M231.11,-125.12C231.11,-125.12 143.44,-125.12 143.44,-125.12 139.61,-125.12 135.78,-121.29 135.78,-117.45 135.78,-117.45 135.78,-109.79 135.78,-109.79 135.78,-105.95 139.61,-102.12 143.44,-102.12 143.44,-102.12 231.11,-102.12 231.11,-102.12 234.94,-102.12 238.78,-105.95 238.78,-109.79 238.78,-109.79 238.78,-117.45 238.78,-117.45 238.78,-121.29 234.94,-125.12 231.11,-125.12"/>
<text text-anchor="middle" x="187.28" y="-109.92" font-family="Arial" font-size="14.00" fill="#c6c5fe">pages/Join.tsx</text>
</g>
<!-- App.tsx&#45;&gt;pages/Join.tsx -->
<g id="edge3" class="edge">
<title>App.tsx&#45;&gt;pages/Join.tsx</title>
<path fill="none" stroke="#757575" d="M148.69,-103.91C148.76,-103.93 148.83,-103.94 148.9,-103.96"/>
<polygon fill="#757575" stroke="#757575" points="138.57,-104.97 149.12,-104.02 140.28,-98.18 138.57,-104.97"/>
</g>
<!-- pages/Lobby.tsx -->
<g id="node5" class="node">
<title>pages/Lobby.tsx</title>
<path fill="none" stroke="#c6c5fe" d="M187.25,-84.22C187.25,-84.22 88.59,-84.22 88.59,-84.22 84.75,-84.22 80.92,-80.39 80.92,-76.55 80.92,-76.55 80.92,-68.89 80.92,-68.89 80.92,-65.05 84.75,-61.22 88.59,-61.22 88.59,-61.22 187.25,-61.22 187.25,-61.22 191.09,-61.22 194.92,-65.05 194.92,-68.89 194.92,-68.89 194.92,-76.55 194.92,-76.55 194.92,-80.39 191.09,-84.22 187.25,-84.22"/>
<text text-anchor="middle" x="137.92" y="-69.02" font-family="Arial" font-size="14.00" fill="#c6c5fe">pages/Lobby.tsx</text>
</g>
<!-- App.tsx&#45;&gt;pages/Lobby.tsx -->
<g id="edge4" class="edge">
<title>App.tsx&#45;&gt;pages/Lobby.tsx</title>
<path fill="none" stroke="#757575" d="M127.69,-84.38C127.73,-84.34 127.76,-84.29 127.8,-84.25"/>
<polygon fill="#757575" stroke="#757575" points="123.96,-93.94 127.92,-84.11 118.7,-89.32 123.96,-93.94"/>
</g>
<!-- pages/Quiz.tsx -->
<g id="node6" class="node">
<title>pages/Quiz.tsx</title>
<path fill="none" stroke="#c6c5fe" d="M155.28,-112.32C155.28,-112.32 63.61,-112.32 63.61,-112.32 59.78,-112.32 55.95,-108.48 55.95,-104.65 55.95,-104.65 55.95,-96.98 55.95,-96.98 55.95,-93.15 59.78,-89.32 63.61,-89.32 63.61,-89.32 155.28,-89.32 155.28,-89.32 159.11,-89.32 162.95,-93.15 162.95,-96.98 162.95,-96.98 162.95,-104.65 162.95,-104.65 162.95,-108.48 159.11,-112.32 155.28,-112.32"/>
<text text-anchor="middle" x="109.45" y="-97.12" font-family="Arial" font-size="14.00" fill="#c6c5fe">pages/Quiz.tsx</text>
</g>
<!-- App.tsx&#45;&gt;pages/Quiz.tsx -->
<g id="edge5" class="edge">
<title>App.tsx&#45;&gt;pages/Quiz.tsx</title>
<path fill="none" stroke="#757575" d="M109.54,-100.76C109.52,-100.77 109.51,-100.78 109.5,-100.79"/>
<polygon fill="#757575" stroke="#757575" points="116.27,-92.66 109.47,-100.8 119.86,-98.68 116.27,-92.66"/>
</g>
<!-- pages/Results.tsx -->
<g id="node7" class="node">
<title>pages/Results.tsx</title>
<path fill="none" stroke="#c6c5fe" d="M175.74,-99.54C175.74,-99.54 68.08,-99.54 68.08,-99.54 64.24,-99.54 60.41,-95.71 60.41,-91.88 60.41,-91.88 60.41,-84.21 60.41,-84.21 60.41,-80.38 64.24,-76.54 68.08,-76.54 68.08,-76.54 175.74,-76.54 175.74,-76.54 179.58,-76.54 183.41,-80.38 183.41,-84.21 183.41,-84.21 183.41,-91.88 183.41,-91.88 183.41,-95.71 179.58,-99.54 175.74,-99.54"/>
<text text-anchor="middle" x="121.91" y="-84.34" font-family="Arial" font-size="14.00" fill="#c6c5fe">pages/Results.tsx</text>
</g>
<!-- App.tsx&#45;&gt;pages/Results.tsx -->
<g id="edge6" class="edge">
<title>App.tsx&#45;&gt;pages/Results.tsx</title>
<path fill="none" stroke="#757575" d="M121.86,-88.13C121.87,-88.12 121.88,-88.11 121.88,-88.09"/>
<polygon fill="#757575" stroke="#757575" points="120.07,-98.51 121.9,-88.07 113.95,-95.1 120.07,-98.51"/>
</g>
<!-- atoms/index.ts -->
<g id="node8" class="node">
<title>atoms/index.ts</title>
<path fill="none" stroke="#c6c5fe" d="M198.26,-82.47C198.26,-82.47 109.59,-82.47 109.59,-82.47 105.76,-82.47 101.93,-78.63 101.93,-74.8 101.93,-74.8 101.93,-67.13 101.93,-67.13 101.93,-63.3 105.76,-59.47 109.59,-59.47 109.59,-59.47 198.26,-59.47 198.26,-59.47 202.09,-59.47 205.93,-63.3 205.93,-67.13 205.93,-67.13 205.93,-74.8 205.93,-74.8 205.93,-78.63 202.09,-82.47 198.26,-82.47"/>
<text text-anchor="middle" x="153.93" y="-67.27" font-family="Arial" font-size="14.00" fill="#c6c5fe">atoms/index.ts</text>
</g>
<!-- pages/GameSetup.tsx&#45;&gt;atoms/index.ts -->
<g id="edge49" class="edge">
<title>pages/GameSetup.tsx&#45;&gt;atoms/index.ts</title>
<path fill="none" stroke="#757575" d="M107.76,-110.97C115.17,-104.56 124.5,-96.46 132.84,-89.24"/>
<polygon fill="#757575" stroke="#757575" points="135.16,-91.86 140.43,-82.66 130.58,-86.57 135.16,-91.86"/>
</g>
<!-- lib/mutations.ts -->
<g id="node11" class="node">
<title>lib/mutations.ts</title>
<path fill="none" stroke="#c6c5fe" d="M218.21,-157.13C218.21,-157.13 126.55,-157.13 126.55,-157.13 122.71,-157.13 118.88,-153.3 118.88,-149.47 118.88,-149.47 118.88,-141.8 118.88,-141.8 118.88,-137.97 122.71,-134.13 126.55,-134.13 126.55,-134.13 218.21,-134.13 218.21,-134.13 222.05,-134.13 225.88,-137.97 225.88,-141.8 225.88,-141.8 225.88,-149.47 225.88,-149.47 225.88,-153.3 222.05,-157.13 218.21,-157.13"/>
<text text-anchor="middle" x="172.38" y="-141.93" font-family="Arial" font-size="14.00" fill="#c6c5fe">lib/mutations.ts</text>
</g>
<!-- pages/GameSetup.tsx&#45;&gt;lib/mutations.ts -->
<g id="edge52" class="edge">
<title>pages/GameSetup.tsx&#45;&gt;lib/mutations.ts</title>
<path fill="none" stroke="#757575" d="M133.75,-134.31C133.83,-134.33 133.9,-134.35 133.98,-134.38"/>
<polygon fill="#757575" stroke="#757575" points="123.62,-134.98 134.21,-134.44 125.6,-128.27 123.62,-134.98"/>
</g>
<!-- components/Alert.tsx -->
<g id="node12" class="node">
<title>components/Alert.tsx</title>
<path fill="none" stroke="#cfffac" d="M243.39,-133.12C243.39,-133.12 115.72,-133.12 115.72,-133.12 111.89,-133.12 108.05,-129.29 108.05,-125.45 108.05,-125.45 108.05,-117.79 108.05,-117.79 108.05,-113.95 111.89,-110.12 115.72,-110.12 115.72,-110.12 243.39,-110.12 243.39,-110.12 247.22,-110.12 251.05,-113.95 251.05,-117.79 251.05,-117.79 251.05,-125.45 251.05,-125.45 251.05,-129.29 247.22,-133.12 243.39,-133.12"/>
<text text-anchor="middle" x="179.55" y="-117.92" font-family="Arial" font-size="14.00" fill="#cfffac">components/Alert.tsx</text>
</g>
<!-- pages/GameSetup.tsx&#45;&gt;components/Alert.tsx -->
<g id="edge50" class="edge">
<title>pages/GameSetup.tsx&#45;&gt;components/Alert.tsx</title>
<path fill="none" stroke="#757575" d="M170.42,-121.74C170.46,-121.74 170.51,-121.74 170.55,-121.74"/>
<polygon fill="#757575" stroke="#757575" points="160.73,-125.37 170.68,-121.73 160.63,-118.37 160.73,-125.37"/>
</g>
<!-- components/LobbyStatus.tsx -->
<g id="node22" class="node">
<title>components/LobbyStatus.tsx</title>
<path fill="none" stroke="#c6c5fe" d="M183.33,-142.22C183.33,-142.22 7.67,-142.22 7.67,-142.22 3.83,-142.22 0,-138.38 0,-134.55 0,-134.55 0,-126.88 0,-126.88 0,-123.05 3.83,-119.22 7.67,-119.22 7.67,-119.22 183.33,-119.22 183.33,-119.22 187.17,-119.22 191,-123.05 191,-126.88 191,-126.88 191,-134.55 191,-134.55 191,-138.38 187.17,-142.22 183.33,-142.22"/>
<text text-anchor="middle" x="95.5" y="-127.02" font-family="Arial" font-size="14.00" fill="#c6c5fe">components/LobbyStatus.tsx</text>
</g>
<!-- pages/GameSetup.tsx&#45;&gt;components/LobbyStatus.tsx -->
<g id="edge51" class="edge">
<title>pages/GameSetup.tsx&#45;&gt;components/LobbyStatus.tsx</title>
<path fill="none" stroke="#757575" d="M95.49,-130.63C95.49,-130.64 95.49,-130.65 95.49,-130.66"/>
<polygon fill="#757575" stroke="#757575" points="90.42,-121.39 95.5,-130.69 97.33,-120.25 90.42,-121.39"/>
</g>
<!-- lib/supabaseClient.ts -->
<g id="node23" class="node">
<title>lib/supabaseClient.ts</title>
<path fill="none" stroke="#cfffac" d="M171.19,-157.24C171.19,-157.24 45.53,-157.24 45.53,-157.24 41.69,-157.24 37.86,-153.41 37.86,-149.57 37.86,-149.57 37.86,-141.91 37.86,-141.91 37.86,-138.07 41.69,-134.24 45.53,-134.24 45.53,-134.24 171.19,-134.24 171.19,-134.24 175.03,-134.24 178.86,-138.07 178.86,-141.91 178.86,-141.91 178.86,-149.57 178.86,-149.57 178.86,-153.41 175.03,-157.24 171.19,-157.24"/>
<text text-anchor="middle" x="108.36" y="-142.04" font-family="Arial" font-size="14.00" fill="#cfffac">lib/supabaseClient.ts</text>
</g>
<!-- pages/GameSetup.tsx&#45;&gt;lib/supabaseClient.ts -->
<g id="edge54" class="edge">
<title>pages/GameSetup.tsx&#45;&gt;lib/supabaseClient.ts</title>
<path fill="none" stroke="#757575" d="M101.29,-134.23C101.31,-134.27 101.34,-134.32 101.37,-134.36"/>
<polygon fill="#757575" stroke="#757575" points="93.23,-127.81 101.45,-134.5 99.2,-124.14 93.23,-127.81"/>
</g>
<!-- lib/types.ts -->
<g id="node35" class="node">
<title>lib/types.ts</title>
<path fill="none" stroke="#c6c5fe" d="M128.87,-126.21C128.87,-126.21 64.2,-126.21 64.2,-126.21 60.37,-126.21 56.54,-122.37 56.54,-118.54 56.54,-118.54 56.54,-110.87 56.54,-110.87 56.54,-107.04 60.37,-103.21 64.2,-103.21 64.2,-103.21 128.87,-103.21 128.87,-103.21 132.7,-103.21 136.54,-107.04 136.54,-110.87 136.54,-110.87 136.54,-118.54 136.54,-118.54 136.54,-122.37 132.7,-126.21 128.87,-126.21"/>
<text text-anchor="middle" x="96.54" y="-111.01" font-family="Arial" font-size="14.00" fill="#c6c5fe">lib/types.ts</text>
</g>
<!-- pages/GameSetup.tsx&#45;&gt;lib/types.ts -->
<g id="edge55" class="edge">
<title>pages/GameSetup.tsx&#45;&gt;lib/types.ts</title>
<path fill="none" stroke="#757575" d="M96.51,-114.8C96.51,-114.78 96.52,-114.77 96.52,-114.76"/>
<polygon fill="#757575" stroke="#757575" points="97.08,-125.32 96.53,-114.73 90.35,-123.35 97.08,-125.32"/>
</g>
<!-- lib/presence.ts -->
<g id="node38" class="node">
<title>lib/presence.ts</title>
<path fill="none" stroke="#c6c5fe" d="M144.69,-150.22C144.69,-150.22 56.02,-150.22 56.02,-150.22 52.19,-150.22 48.36,-146.38 48.36,-142.55 48.36,-142.55 48.36,-134.88 48.36,-134.88 48.36,-131.05 52.19,-127.22 56.02,-127.22 56.02,-127.22 144.69,-127.22 144.69,-127.22 148.52,-127.22 152.36,-131.05 152.36,-134.88 152.36,-134.88 152.36,-142.55 152.36,-142.55 152.36,-146.38 148.52,-150.22 144.69,-150.22"/>
<text text-anchor="middle" x="100.36" y="-135.02" font-family="Arial" font-size="14.00" fill="#c6c5fe">lib/presence.ts</text>
</g>
<!-- pages/GameSetup.tsx&#45;&gt;lib/presence.ts -->
<g id="edge53" class="edge">
<title>pages/GameSetup.tsx&#45;&gt;lib/presence.ts</title>
<path fill="none" stroke="#757575" d="M98.68,-134.35C98.71,-134.42 98.74,-134.5 98.77,-134.58"/>
<polygon fill="#757575" stroke="#757575" points="92,-126.72 98.85,-134.8 98.53,-124.21 92,-126.72"/>
</g>
<!-- components/ActiveGames.tsx -->
<g id="node10" class="node">
<title>components/ActiveGames.tsx</title>
<path fill="none" stroke="#c6c5fe" d="M267.38,-149.13C267.38,-149.13 85.71,-149.13 85.71,-149.13 81.88,-149.13 78.04,-145.3 78.04,-141.47 78.04,-141.47 78.04,-133.8 78.04,-133.8 78.04,-129.97 81.88,-126.13 85.71,-126.13 85.71,-126.13 267.38,-126.13 267.38,-126.13 271.21,-126.13 275.04,-129.97 275.04,-133.8 275.04,-133.8 275.04,-141.47 275.04,-141.47 275.04,-145.3 271.21,-149.13 267.38,-149.13"/>
<text text-anchor="middle" x="176.54" y="-133.93" font-family="Arial" font-size="14.00" fill="#c6c5fe">components/ActiveGames.tsx</text>
</g>
<!-- pages/Homepage.tsx&#45;&gt;components/ActiveGames.tsx -->
<g id="edge56" class="edge">
<title>pages/Homepage.tsx&#45;&gt;components/ActiveGames.tsx</title>
<path fill="none" stroke="#757575" d="M176.54,-137.54C176.54,-137.56 176.54,-137.57 176.54,-137.58"/>
<polygon fill="#757575" stroke="#757575" points="172.81,-127.69 176.54,-137.61 179.81,-127.53 172.81,-127.69"/>
</g>
<!-- pages/Homepage.tsx&#45;&gt;lib/mutations.ts -->
<g id="edge59" class="edge">
<title>pages/Homepage.tsx&#45;&gt;lib/mutations.ts</title>
<path fill="none" stroke="#757575" d="M173.47,-141.26C173.45,-141.34 173.44,-141.42 173.42,-141.49"/>
<polygon fill="#757575" stroke="#757575" points="172.4,-131.17 173.36,-141.72 179.19,-132.87 172.4,-131.17"/>
</g>
<!-- pages/Homepage.tsx&#45;&gt;components/Alert.tsx -->
<g id="edge57" class="edge">
<title>pages/Homepage.tsx&#45;&gt;components/Alert.tsx</title>
<path fill="none" stroke="#757575" d="M179.52,-121.71C179.52,-121.7 179.53,-121.68 179.53,-121.67"/>
<polygon fill="#757575" stroke="#757575" points="179.1,-132.24 179.54,-121.64 172.59,-129.65 179.1,-132.24"/>
</g>
<!-- components/PasswordModal.tsx -->
<g id="node28" class="node">
<title>components/PasswordModal.tsx</title>
<path fill="none" stroke="#cfffac" d="M283.99,-143.95C283.99,-143.95 87.33,-143.95 87.33,-143.95 83.49,-143.95 79.66,-140.11 79.66,-136.28 79.66,-136.28 79.66,-128.61 79.66,-128.61 79.66,-124.78 83.49,-120.95 87.33,-120.95 87.33,-120.95 283.99,-120.95 283.99,-120.95 287.83,-120.95 291.66,-124.78 291.66,-128.61 291.66,-128.61 291.66,-136.28 291.66,-136.28 291.66,-140.11 287.83,-143.95 283.99,-143.95"/>
<text text-anchor="middle" x="185.66" y="-128.75" font-family="Arial" font-size="14.00" fill="#cfffac">components/PasswordModal.tsx</text>
</g>
<!-- pages/Homepage.tsx&#45;&gt;components/PasswordModal.tsx -->
<g id="edge58" class="edge">
<title>pages/Homepage.tsx&#45;&gt;components/PasswordModal.tsx</title>
<path fill="none" stroke="#757575" d="M185.55,-132.42C185.57,-132.42 185.59,-132.43 185.6,-132.43"/>
<polygon fill="#757575" stroke="#757575" points="175.04,-132.86 185.63,-132.44 177.09,-126.16 175.04,-132.86"/>
</g>
<!-- pages/Join.tsx&#45;&gt;lib/mutations.ts -->
<g id="edge63" class="edge">
<title>pages/Join.tsx&#45;&gt;lib/mutations.ts</title>
<path fill="none" stroke="#757575" d="M181.9,-125.18C181.86,-125.27 181.81,-125.36 181.77,-125.45"/>
<polygon fill="#757575" stroke="#757575" points="178.84,-123.44 177.8,-133.99 185.19,-126.4 178.84,-123.44"/>
</g>
<!-- pages/Join.tsx&#45;&gt;components/Alert.tsx -->
<g id="edge60" class="edge">
<title>pages/Join.tsx&#45;&gt;components/Alert.tsx</title>
<path fill="none" stroke="#757575" d="M179.64,-121.53C179.62,-121.55 179.61,-121.56 179.6,-121.57"/>
<polygon fill="#757575" stroke="#757575" points="184.01,-111.96 179.57,-121.6 189.05,-116.83 184.01,-111.96"/>
</g>
<!-- components/FlagSelector.tsx -->
<g id="node21" class="node">
<title>components/FlagSelector.tsx</title>
<path fill="none" stroke="#cfffac" d="M283.11,-126.38C283.11,-126.38 107.45,-126.38 107.45,-126.38 103.61,-126.38 99.78,-122.54 99.78,-118.71 99.78,-118.71 99.78,-111.04 99.78,-111.04 99.78,-107.21 103.61,-103.38 107.45,-103.38 107.45,-103.38 283.11,-103.38 283.11,-103.38 286.95,-103.38 290.78,-107.21 290.78,-111.04 290.78,-111.04 290.78,-118.71 290.78,-118.71 290.78,-122.54 286.95,-126.38 283.11,-126.38"/>
<text text-anchor="middle" x="195.28" y="-111.18" font-family="Arial" font-size="14.00" fill="#cfffac">components/FlagSelector.tsx</text>
</g>
<!-- pages/Join.tsx&#45;&gt;components/FlagSelector.tsx -->
<g id="edge61" class="edge">
<title>pages/Join.tsx&#45;&gt;components/FlagSelector.tsx</title>
<path fill="none" stroke="#757575" d="M195.19,-114.86C195.21,-114.87 195.22,-114.87 195.23,-114.87"/>
<polygon fill="#757575" stroke="#757575" points="184.83,-116.75 195.26,-114.87 185.93,-109.83 184.83,-116.75"/>
</g>
<!-- components/LogoSelector.tsx -->
<g id="node24" class="node">
<title>components/LogoSelector.tsx</title>
<path fill="none" stroke="#c6c5fe" d="M277.52,-117.11C277.52,-117.11 98.86,-117.11 98.86,-117.11 95.02,-117.11 91.19,-113.28 91.19,-109.45 91.19,-109.45 91.19,-101.78 91.19,-101.78 91.19,-97.95 95.02,-94.11 98.86,-94.11 98.86,-94.11 277.52,-94.11 277.52,-94.11 281.36,-94.11 285.19,-97.95 285.19,-101.78 285.19,-101.78 285.19,-109.45 285.19,-109.45 285.19,-113.28 281.36,-117.11 277.52,-117.11"/>
<text text-anchor="middle" x="188.19" y="-101.91" font-family="Arial" font-size="14.00" fill="#c6c5fe">components/LogoSelector.tsx</text>
</g>
<!-- pages/Join.tsx&#45;&gt;components/LogoSelector.tsx -->
<g id="edge62" class="edge">
<title>pages/Join.tsx&#45;&gt;components/LogoSelector.tsx</title>
<path fill="none" stroke="#757575" d="M188.18,-105.7C188.18,-105.69 188.18,-105.67 188.18,-105.66"/>
<polygon fill="#757575" stroke="#757575" points="190.5,-115.98 188.19,-105.64 183.54,-115.16 190.5,-115.98"/>
</g>
<!-- pages/Lobby.tsx&#45;&gt;atoms/index.ts -->
<g id="edge64" class="edge">
<title>pages/Lobby.tsx&#45;&gt;atoms/index.ts</title>
<path fill="none" stroke="#757575" d="M153.88,-70.97C153.89,-70.97 153.89,-70.97 153.9,-70.97"/>
<polygon fill="#757575" stroke="#757575" points="144.38,-75.6 153.91,-70.97 143.57,-68.64 144.38,-75.6"/>
</g>
<!-- lib/types/supabase.ts -->
<g id="node9" class="node">
<title>lib/types/supabase.ts</title>
<path fill="none" stroke="#cfffac" d="M233.77,-91.02C233.77,-91.02 106.11,-91.02 106.11,-91.02 102.27,-91.02 98.44,-87.19 98.44,-83.35 98.44,-83.35 98.44,-75.69 98.44,-75.69 98.44,-71.85 102.27,-68.02 106.11,-68.02 106.11,-68.02 233.77,-68.02 233.77,-68.02 237.61,-68.02 241.44,-71.85 241.44,-75.69 241.44,-75.69 241.44,-83.35 241.44,-83.35 241.44,-87.19 237.61,-91.02 233.77,-91.02"/>
<text text-anchor="middle" x="169.94" y="-75.82" font-family="Arial" font-size="14.00" fill="#cfffac">lib/types/supabase.ts</text>
</g>
<!-- pages/Lobby.tsx&#45;&gt;lib/types/supabase.ts -->
<g id="edge69" class="edge">
<title>pages/Lobby.tsx&#45;&gt;lib/types/supabase.ts</title>
<path fill="none" stroke="#757575" d="M169.85,-79.5C169.86,-79.5 169.88,-79.51 169.89,-79.51"/>
<polygon fill="#757575" stroke="#757575" points="159.4,-80.84 169.92,-79.52 160.87,-73.99 159.4,-80.84"/>
</g>
<!-- pages/Lobby.tsx&#45;&gt;lib/mutations.ts -->
<g id="edge66" class="edge">
<title>pages/Lobby.tsx&#45;&gt;lib/mutations.ts</title>
<path fill="none" stroke="#757575" d="M143.46,-84.44C148.55,-95.21 156.23,-111.46 162.39,-124.5"/>
<polygon fill="#757575" stroke="#757575" points="159.3,-126.16 166.74,-133.71 165.63,-123.17 159.3,-126.16"/>
</g>
<!-- pages/Lobby.tsx&#45;&gt;lib/supabaseClient.ts -->
<g id="edge68" class="edge">
<title>pages/Lobby.tsx&#45;&gt;lib/supabaseClient.ts</title>
<path fill="none" stroke="#757575" d="M133.17,-84.45C128.84,-95.14 122.35,-111.19 117.08,-124.19"/>
<polygon fill="#757575" stroke="#757575" points="113.7,-123.21 113.2,-133.8 120.19,-125.84 113.7,-123.21"/>
</g>
<!-- components/VideoCall.tsx -->
<g id="node31" class="node">
<title>components/VideoCall.tsx</title>
<path fill="none" stroke="#c6c5fe" d="M256.79,-98.9C256.79,-98.9 99.12,-98.9 99.12,-98.9 95.29,-98.9 91.46,-95.07 91.46,-91.23 91.46,-91.23 91.46,-83.57 91.46,-83.57 91.46,-79.73 95.29,-75.9 99.12,-75.9 99.12,-75.9 256.79,-75.9 256.79,-75.9 260.62,-75.9 264.46,-79.73 264.46,-83.57 264.46,-83.57 264.46,-91.23 264.46,-91.23 264.46,-95.07 260.62,-98.9 256.79,-98.9"/>
<text text-anchor="middle" x="177.96" y="-83.7" font-family="Arial" font-size="14.00" fill="#c6c5fe">components/VideoCall.tsx</text>
</g>
<!-- pages/Lobby.tsx&#45;&gt;components/VideoCall.tsx -->
<g id="edge65" class="edge">
<title>pages/Lobby.tsx&#45;&gt;components/VideoCall.tsx</title>
<path fill="none" stroke="#757575" d="M169.47,-84.29C169.54,-84.31 169.62,-84.34 169.7,-84.37"/>
<polygon fill="#757575" stroke="#757575" points="159.33,-84.3 169.93,-84.46 161.74,-77.72 159.33,-84.3"/>
</g>
<!-- lib/sessionHooks.ts -->
<g id="node41" class="node">
<title>lib/sessionHooks.ts</title>
<path fill="none" stroke="#c6c5fe" d="M188.25,-91.73C188.25,-91.73 71.58,-91.73 71.58,-91.73 67.75,-91.73 63.91,-87.89 63.91,-84.06 63.91,-84.06 63.91,-76.39 63.91,-76.39 63.91,-72.56 67.75,-68.73 71.58,-68.73 71.58,-68.73 188.25,-68.73 188.25,-68.73 192.08,-68.73 195.91,-72.56 195.91,-76.39 195.91,-76.39 195.91,-84.06 195.91,-84.06 195.91,-87.89 192.08,-91.73 188.25,-91.73"/>
<text text-anchor="middle" x="129.91" y="-76.53" font-family="Arial" font-size="14.00" fill="#c6c5fe">lib/sessionHooks.ts</text>
</g>
<!-- pages/Lobby.tsx&#45;&gt;lib/sessionHooks.ts -->
<g id="edge67" class="edge">
<title>pages/Lobby.tsx&#45;&gt;lib/sessionHooks.ts</title>
<path fill="none" stroke="#757575" d="M130,-80.14C129.99,-80.16 129.98,-80.17 129.96,-80.18"/>
<polygon fill="#757575" stroke="#757575" points="134.84,-70.8 129.94,-80.21 139.63,-75.91 134.84,-70.8"/>
</g>
<!-- pages/Quiz.tsx&#45;&gt;lib/mutations.ts -->
<g id="edge70" class="edge">
<title>pages/Quiz.tsx&#45;&gt;lib/mutations.ts</title>
<path fill="none" stroke="#757575" d="M125.65,-112.36C132.35,-117.13 140.27,-122.77 147.67,-128.04"/>
<polygon fill="#757575" stroke="#757575" points="145.83,-131.03 156.01,-133.98 149.89,-125.32 145.83,-131.03"/>
</g>
<!-- pages/Quiz.tsx&#45;&gt;lib/types.ts -->
<g id="edge73" class="edge">
<title>pages/Quiz.tsx&#45;&gt;lib/types.ts</title>
<path fill="none" stroke="#757575" d="M98.55,-112.54C98.48,-112.62 98.4,-112.7 98.33,-112.78"/>
<polygon fill="#757575" stroke="#757575" points="102.36,-103.3 98.12,-113 107.49,-108.06 102.36,-103.3"/>
</g>
<!-- lib/realtimeHooks.ts -->
<g id="node39" class="node">
<title>lib/realtimeHooks.ts</title>
<path fill="none" stroke="#c6c5fe" d="M161.27,-118.21C161.27,-118.21 41.61,-118.21 41.61,-118.21 37.77,-118.21 33.94,-114.37 33.94,-110.54 33.94,-110.54 33.94,-102.87 33.94,-102.87 33.94,-99.04 37.77,-95.21 41.61,-95.21 41.61,-95.21 161.27,-95.21 161.27,-95.21 165.11,-95.21 168.94,-99.04 168.94,-102.87 168.94,-102.87 168.94,-110.54 168.94,-110.54 168.94,-114.37 165.11,-118.21 161.27,-118.21"/>
<text text-anchor="middle" x="101.44" y="-103.01" font-family="Arial" font-size="14.00" fill="#c6c5fe">lib/realtimeHooks.ts</text>
</g>
<!-- pages/Quiz.tsx&#45;&gt;lib/realtimeHooks.ts -->
<g id="edge71" class="edge">
<title>pages/Quiz.tsx&#45;&gt;lib/realtimeHooks.ts</title>
<path fill="none" stroke="#757575" d="M101.53,-106.64C101.52,-106.65 101.5,-106.66 101.49,-106.67"/>
<polygon fill="#757575" stroke="#757575" points="107.45,-97.93 101.46,-106.69 111.6,-103.57 107.45,-97.93"/>
</g>
<!-- pages/Quiz.tsx&#45;&gt;lib/sessionHooks.ts -->
<g id="edge72" class="edge">
<title>pages/Quiz.tsx&#45;&gt;lib/sessionHooks.ts</title>
<path fill="none" stroke="#757575" d="M121.11,-89.08C121.19,-89.01 121.26,-88.93 121.33,-88.86"/>
<polygon fill="#757575" stroke="#757575" points="116.98,-98.21 121.54,-88.65 112.01,-93.27 116.98,-98.21"/>
</g>
<!-- pages/Results.tsx&#45;&gt;lib/mutations.ts -->
<g id="edge74" class="edge">
<title>pages/Results.tsx&#45;&gt;lib/mutations.ts</title>
<path fill="none" stroke="#757575" d="M132.12,-99.7C138.83,-107.35 147.75,-117.54 155.5,-126.37"/>
<polygon fill="#757575" stroke="#757575" points="152.96,-128.78 162.18,-134 158.22,-124.17 152.96,-128.78"/>
</g>
<!-- pages/Results.tsx&#45;&gt;lib/supabaseClient.ts -->
<g id="edge76" class="edge">
<title>pages/Results.tsx&#45;&gt;lib/supabaseClient.ts</title>
<path fill="none" stroke="#757575" d="M119.17,-99.72C117.51,-106.76 115.36,-115.94 113.41,-124.25"/>
<polygon fill="#757575" stroke="#757575" points="109.98,-123.55 111.1,-134.08 116.79,-125.15 109.98,-123.55"/>
</g>
<!-- pages/Results.tsx&#45;&gt;lib/sessionHooks.ts -->
<g id="edge75" class="edge">
<title>pages/Results.tsx&#45;&gt;lib/sessionHooks.ts</title>
<path fill="none" stroke="#757575" d="M129.82,-80.32C129.84,-80.3 129.85,-80.29 129.86,-80.28"/>
<polygon fill="#757575" stroke="#757575" points="125.18,-89.75 129.89,-80.25 120.28,-84.74 125.18,-89.75"/>
</g>
<!-- atoms/index.ts&#45;&gt;lib/types/supabase.ts -->
<g id="edge7" class="edge">
<title>atoms/index.ts&#45;&gt;lib/types/supabase.ts</title>
<path fill="none" stroke="#757575" d="M169.9,-79.5C169.9,-79.5 169.91,-79.5 169.92,-79.51"/>
<polygon fill="#757575" stroke="#757575" points="159.44,-77.86 169.93,-79.51 162.76,-71.68 159.44,-77.86"/>
</g>
<!-- components/ActiveGames.tsx&#45;&gt;lib/mutations.ts -->
<g id="edge8" class="edge">
<title>components/ActiveGames.tsx&#45;&gt;lib/mutations.ts</title>
<path fill="none" stroke="#757575" d="M172.43,-145.54C172.42,-145.56 172.41,-145.57 172.4,-145.58"/>
<polygon fill="#757575" stroke="#757575" points="173.92,-135.12 172.39,-145.61 180.13,-138.36 173.92,-135.12"/>
</g>
<!-- lib/mutations.ts&#45;&gt;lib/supabaseClient.ts -->
<g id="edge36" class="edge">
<title>lib/mutations.ts&#45;&gt;lib/supabaseClient.ts</title>
<path fill="none" stroke="#757575" d="M118.65,-145.72C118.6,-145.72 118.55,-145.72 118.5,-145.72"/>
<polygon fill="#757575" stroke="#757575" points="128.35,-142.2 118.36,-145.72 128.37,-149.2 128.35,-142.2"/>
</g>
<!-- lib/dailyTokenManager.ts -->
<g id="node34" class="node">
<title>lib/dailyTokenManager.ts</title>
<path fill="none" stroke="#c6c5fe" d="M239.21,-164.55C239.21,-164.55 89.54,-164.55 89.54,-164.55 85.71,-164.55 81.88,-160.72 81.88,-156.88 81.88,-156.88 81.88,-149.22 81.88,-149.22 81.88,-145.38 85.71,-141.55 89.54,-141.55 89.54,-141.55 239.21,-141.55 239.21,-141.55 243.04,-141.55 246.88,-145.38 246.88,-149.22 246.88,-149.22 246.88,-156.88 246.88,-156.88 246.88,-160.72 243.04,-164.55 239.21,-164.55"/>
<text text-anchor="middle" x="164.38" y="-149.35" font-family="Arial" font-size="14.00" fill="#c6c5fe">lib/dailyTokenManager.ts</text>
</g>
<!-- lib/mutations.ts&#45;&gt;lib/dailyTokenManager.ts -->
<g id="edge35" class="edge">
<title>lib/mutations.ts&#45;&gt;lib/dailyTokenManager.ts</title>
<path fill="none" stroke="#757575" d="M164.47,-152.97C164.45,-152.98 164.44,-152.99 164.43,-153"/>
<polygon fill="#757575" stroke="#757575" points="169.36,-143.65 164.4,-153.03 174.12,-148.79 169.36,-143.65"/>
</g>
<!-- lib/mutations.ts&#45;&gt;lib/types.ts -->
<g id="edge37" class="edge">
<title>lib/mutations.ts&#45;&gt;lib/types.ts</title>
<path fill="none" stroke="#757575" d="M144.14,-134.12C140.88,-132.79 137.52,-131.42 134.16,-130.05"/>
<polygon fill="#757575" stroke="#757575" points="135.38,-126.77 124.8,-126.23 132.74,-133.25 135.38,-126.77"/>
</g>
<!-- components/ControlsBar.tsx -->
<g id="node13" class="node">
<title>components/ControlsBar.tsx</title>
<path fill="none" stroke="#cfffac" d="M270.04,-90.88C270.04,-90.88 99.38,-90.88 99.38,-90.88 95.54,-90.88 91.71,-87.04 91.71,-83.21 91.71,-83.21 91.71,-75.54 91.71,-75.54 91.71,-71.71 95.54,-67.88 99.38,-67.88 99.38,-67.88 270.04,-67.88 270.04,-67.88 273.88,-67.88 277.71,-71.71 277.71,-75.54 277.71,-75.54 277.71,-83.21 277.71,-83.21 277.71,-87.04 273.88,-90.88 270.04,-90.88"/>
<text text-anchor="middle" x="184.71" y="-75.68" font-family="Arial" font-size="14.00" fill="#cfffac">components/ControlsBar.tsx</text>
</g>
<!-- components/DailyJoinButton.test.tsx -->
<g id="node14" class="node">
<title>components/DailyJoinButton.test.tsx</title>
<path fill="none" stroke="#c6c5fe" d="M254.95,-74.55C254.95,-74.55 35.28,-74.55 35.28,-74.55 31.45,-74.55 27.61,-70.71 27.61,-66.88 27.61,-66.88 27.61,-59.21 27.61,-59.21 27.61,-55.38 31.45,-51.55 35.28,-51.55 35.28,-51.55 254.95,-51.55 254.95,-51.55 258.78,-51.55 262.61,-55.38 262.61,-59.21 262.61,-59.21 262.61,-66.88 262.61,-66.88 262.61,-70.71 258.78,-74.55 254.95,-74.55"/>
<text text-anchor="middle" x="145.11" y="-59.35" font-family="Arial" font-size="14.00" fill="#c6c5fe">components/DailyJoinButton.test.tsx</text>
</g>
<!-- components/DailyJoinButton.tsx -->
<g id="node15" class="node">
<title>components/DailyJoinButton.tsx</title>
<path fill="none" stroke="#c6c5fe" d="M242.76,-82.55C242.76,-82.55 49.09,-82.55 49.09,-82.55 45.26,-82.55 41.42,-78.72 41.42,-74.89 41.42,-74.89 41.42,-67.22 41.42,-67.22 41.42,-63.39 45.26,-59.55 49.09,-59.55 49.09,-59.55 242.76,-59.55 242.76,-59.55 246.59,-59.55 250.42,-63.39 250.42,-67.22 250.42,-67.22 250.42,-74.89 250.42,-74.89 250.42,-78.72 246.59,-82.55 242.76,-82.55"/>
<text text-anchor="middle" x="145.92" y="-67.35" font-family="Arial" font-size="14.00" fill="#c6c5fe">components/DailyJoinButton.tsx</text>
</g>
<!-- components/DailyJoinButton.test.tsx&#45;&gt;components/DailyJoinButton.tsx -->
<g id="edge9" class="edge">
<title>components/DailyJoinButton.test.tsx&#45;&gt;components/DailyJoinButton.tsx</title>
<path fill="none" stroke="#757575" d="M145.91,-70.96C145.91,-70.98 145.92,-70.99 145.92,-71"/>
<polygon fill="#757575" stroke="#757575" points="141.4,-61.44 145.92,-71.03 148.37,-60.72 141.4,-61.44"/>
</g>
<!-- components/DailyJoinButton.tsx&#45;&gt;atoms/index.ts -->
<g id="edge10" class="edge">
<title>components/DailyJoinButton.tsx&#45;&gt;atoms/index.ts</title>
<path fill="none" stroke="#757575" d="M153.84,-70.97C153.85,-70.97 153.86,-70.97 153.88,-70.97"/>
<polygon fill="#757575" stroke="#757575" points="143.95,-74.61 153.9,-70.97 143.85,-67.61 143.95,-74.61"/>
</g>
<!-- components/DailyJoinButton.tsx&#45;&gt;lib/mutations.ts -->
<g id="edge11" class="edge">
<title>components/DailyJoinButton.tsx&#45;&gt;lib/mutations.ts</title>
<path fill="none" stroke="#757575" d="M150.06,-82.71C153.99,-93.81 160.01,-110.78 164.81,-124.3"/>
<polygon fill="#757575" stroke="#757575" points="161.54,-125.56 168.19,-133.82 168.14,-123.22 161.54,-125.56"/>
</g>
<!-- components/EnhancedLobby.tsx -->
<g id="node16" class="node">
<title>components/EnhancedLobby.tsx</title>
<path fill="none" stroke="#c6c5fe" d="M230.7,-170.75C230.7,-170.75 34.03,-170.75 34.03,-170.75 30.2,-170.75 26.37,-166.92 26.37,-163.09 26.37,-163.09 26.37,-155.42 26.37,-155.42 26.37,-151.59 30.2,-147.75 34.03,-147.75 34.03,-147.75 230.7,-147.75 230.7,-147.75 234.53,-147.75 238.37,-151.59 238.37,-155.42 238.37,-155.42 238.37,-163.09 238.37,-163.09 238.37,-166.92 234.53,-170.75 230.7,-170.75"/>
<text text-anchor="middle" x="132.37" y="-155.55" font-family="Arial" font-size="14.00" fill="#c6c5fe">components/EnhancedLobby.tsx</text>
</g>
<!-- lib/enhancedPresence.ts -->
<g id="node17" class="node">
<title>lib/enhancedPresence.ts</title>
<path fill="none" stroke="#c6c5fe" d="M214.7,-172.75C214.7,-172.75 66.03,-172.75 66.03,-172.75 62.2,-172.75 58.37,-168.92 58.37,-165.08 58.37,-165.08 58.37,-157.42 58.37,-157.42 58.37,-153.58 62.2,-149.75 66.03,-149.75 66.03,-149.75 214.7,-149.75 214.7,-149.75 218.53,-149.75 222.37,-153.58 222.37,-157.42 222.37,-157.42 222.37,-165.08 222.37,-165.08 222.37,-168.92 218.53,-172.75 214.7,-172.75"/>
<text text-anchor="middle" x="140.37" y="-157.55" font-family="Arial" font-size="14.00" fill="#c6c5fe">lib/enhancedPresence.ts</text>
</g>
<!-- components/EnhancedLobby.tsx&#45;&gt;lib/enhancedPresence.ts -->
<g id="edge12" class="edge">
<title>components/EnhancedLobby.tsx&#45;&gt;lib/enhancedPresence.ts</title>
<path fill="none" stroke="#757575" d="M140.28,-161.23C140.29,-161.23 140.31,-161.24 140.32,-161.24"/>
<polygon fill="#757575" stroke="#757575" points="129.78,-162.19 140.34,-161.25 131.5,-155.4 129.78,-162.19"/>
</g>
<!-- lib/enhancedRealtimeHooks.ts -->
<g id="node18" class="node">
<title>lib/enhancedRealtimeHooks.ts</title>
<path fill="none" stroke="#c6c5fe" d="M208.7,-162.52C208.7,-162.52 24.03,-162.52 24.03,-162.52 20.2,-162.52 16.36,-158.69 16.36,-154.85 16.36,-154.85 16.36,-147.19 16.36,-147.19 16.36,-143.35 20.2,-139.52 24.03,-139.52 24.03,-139.52 208.7,-139.52 208.7,-139.52 212.53,-139.52 216.36,-143.35 216.36,-147.19 216.36,-147.19 216.36,-154.85 216.36,-154.85 216.36,-158.69 212.53,-162.52 208.7,-162.52"/>
<text text-anchor="middle" x="116.36" y="-147.32" font-family="Arial" font-size="14.00" fill="#c6c5fe">lib/enhancedRealtimeHooks.ts</text>
</g>
<!-- components/EnhancedLobby.tsx&#45;&gt;lib/enhancedRealtimeHooks.ts -->
<g id="edge13" class="edge">
<title>components/EnhancedLobby.tsx&#45;&gt;lib/enhancedRealtimeHooks.ts</title>
<path fill="none" stroke="#757575" d="M116.41,-151.04C116.4,-151.04 116.39,-151.03 116.39,-151.03"/>
<polygon fill="#757575" stroke="#757575" points="126.89,-152.52 116.37,-151.02 123.66,-158.75 126.89,-152.52"/>
</g>
<!-- lib/enhancedPresence.ts&#45;&gt;lib/mutations.ts -->
<g id="edge28" class="edge">
<title>lib/enhancedPresence.ts&#45;&gt;lib/mutations.ts</title>
<path fill="none" stroke="#757575" d="M163.97,-149.74C164.04,-149.7 164.12,-149.66 164.19,-149.63"/>
<polygon fill="#757575" stroke="#757575" points="156.96,-157.05 164.41,-149.52 153.89,-150.76 156.96,-157.05"/>
</g>
<!-- lib/enhancedPresence.ts&#45;&gt;lib/supabaseClient.ts -->
<g id="edge29" class="edge">
<title>lib/enhancedPresence.ts&#45;&gt;lib/supabaseClient.ts</title>
<path fill="none" stroke="#757575" d="M116.44,-149.65C116.36,-149.62 116.29,-149.58 116.22,-149.55"/>
<polygon fill="#757575" stroke="#757575" points="126.53,-150.66 116.01,-149.45 123.48,-156.96 126.53,-150.66"/>
</g>
<!-- lib/enhancedRealtimeHooks.ts&#45;&gt;lib/supabaseClient.ts -->
<g id="edge30" class="edge">
<title>lib/enhancedRealtimeHooks.ts&#45;&gt;lib/supabaseClient.ts</title>
<path fill="none" stroke="#757575" d="M108.45,-145.8C108.44,-145.79 108.42,-145.78 108.41,-145.77"/>
<polygon fill="#757575" stroke="#757575" points="118.67,-148.35 108.38,-145.76 114.8,-154.2 118.67,-148.35"/>
</g>
<!-- lib/enhancedRealtimeHooks.ts&#45;&gt;lib/types.ts -->
<g id="edge31" class="edge">
<title>lib/enhancedRealtimeHooks.ts&#45;&gt;lib/types.ts</title>
<path fill="none" stroke="#757575" d="M109.87,-139.13C109.16,-137.84 108.43,-136.5 107.69,-135.14"/>
<polygon fill="#757575" stroke="#757575" points="110.7,-133.35 102.84,-126.25 104.56,-136.71 110.7,-133.35"/>
</g>
<!-- components/Flag.tsx -->
<g id="node19" class="node">
<title>components/Flag.tsx</title>
<path fill="none" stroke="#c6c5fe" d="M212.59,-231C212.59,-231 85.93,-231 85.93,-231 82.09,-231 78.26,-227.17 78.26,-223.33 78.26,-223.33 78.26,-215.67 78.26,-215.67 78.26,-211.83 82.09,-208 85.93,-208 85.93,-208 212.59,-208 212.59,-208 216.43,-208 220.26,-211.83 220.26,-215.67 220.26,-215.67 220.26,-223.33 220.26,-223.33 220.26,-227.17 216.43,-231 212.59,-231"/>
<text text-anchor="middle" x="149.26" y="-215.8" font-family="Arial" font-size="14.00" fill="#c6c5fe">components/Flag.tsx</text>
</g>
<!-- lib/flagIcons.ts -->
<g id="node20" class="node">
<title>lib/flagIcons.ts</title>
<path fill="none" stroke="#cfffac" d="M200.59,-231C200.59,-231 113.93,-231 113.93,-231 110.09,-231 106.26,-227.17 106.26,-223.33 106.26,-223.33 106.26,-215.67 106.26,-215.67 106.26,-211.83 110.09,-208 113.93,-208 113.93,-208 200.59,-208 200.59,-208 204.43,-208 208.26,-211.83 208.26,-215.67 208.26,-215.67 208.26,-223.33 208.26,-223.33 208.26,-227.17 204.43,-231 200.59,-231"/>
<text text-anchor="middle" x="157.26" y="-215.8" font-family="Arial" font-size="14.00" fill="#cfffac">lib/flagIcons.ts</text>
</g>
<!-- components/Flag.tsx&#45;&gt;lib/flagIcons.ts -->
<g id="edge14" class="edge">
<title>components/Flag.tsx&#45;&gt;lib/flagIcons.ts</title>
<path fill="none" stroke="#757575" d="M157.17,-219.5C157.19,-219.5 157.2,-219.5 157.21,-219.5"/>
<polygon fill="#757575" stroke="#757575" points="147.25,-223.04 157.24,-219.5 147.23,-216.04 147.25,-223.04"/>
</g>
<!-- components/LobbyStatus.tsx&#45;&gt;lib/supabaseClient.ts -->
<g id="edge15" class="edge">
<title>components/LobbyStatus.tsx&#45;&gt;lib/supabaseClient.ts</title>
<path fill="none" stroke="#757575" d="M105.38,-142.26C105.43,-142.32 105.48,-142.38 105.54,-142.44"/>
<polygon fill="#757575" stroke="#757575" points="96.53,-137.31 105.7,-142.63 101.85,-132.75 96.53,-137.31"/>
</g>
<!-- components/LogoSelector.tsx&#45;&gt;lib/supabaseClient.ts -->
<g id="edge16" class="edge">
<title>components/LogoSelector.tsx&#45;&gt;lib/supabaseClient.ts</title>
<path fill="none" stroke="#757575" d="M165.1,-117.22C157.4,-121.09 148.69,-125.47 140.44,-129.62"/>
<polygon fill="#757575" stroke="#757575" points="138.76,-126.54 131.4,-134.16 141.9,-132.8 138.76,-126.54"/>
</g>
<!-- components/ParticipantTile.test.tsx -->
<g id="node25" class="node">
<title>components/ParticipantTile.test.tsx</title>
<path fill="none" stroke="#c6c5fe" d="M293.05,-109.11C293.05,-109.11 81.38,-109.11 81.38,-109.11 77.55,-109.11 73.72,-105.28 73.72,-101.44 73.72,-101.44 73.72,-93.78 73.72,-93.78 73.72,-89.94 77.55,-86.11 81.38,-86.11 81.38,-86.11 293.05,-86.11 293.05,-86.11 296.88,-86.11 300.72,-89.94 300.72,-93.78 300.72,-93.78 300.72,-101.44 300.72,-101.44 300.72,-105.28 296.88,-109.11 293.05,-109.11"/>
<text text-anchor="middle" x="187.22" y="-93.91" font-family="Arial" font-size="14.00" fill="#c6c5fe">components/ParticipantTile.test.tsx</text>
</g>
<!-- components/ParticipantTile.test.tsx&#45;&gt;lib/types/supabase.ts -->
<g id="edge18" class="edge">
<title>components/ParticipantTile.test.tsx&#45;&gt;lib/types/supabase.ts</title>
<path fill="none" stroke="#757575" d="M176.18,-86.05C176.13,-86 176.07,-85.94 176.02,-85.89"/>
<polygon fill="#757575" stroke="#757575" points="185.3,-90.54 175.86,-85.72 180.24,-95.37 185.3,-90.54"/>
</g>
<!-- components/ParticipantTile.tsx -->
<g id="node26" class="node">
<title>components/ParticipantTile.tsx</title>
<path fill="none" stroke="#c6c5fe" d="M279.8,-101.11C279.8,-101.11 94.13,-101.11 94.13,-101.11 90.3,-101.11 86.46,-97.28 86.46,-93.44 86.46,-93.44 86.46,-85.78 86.46,-85.78 86.46,-81.94 90.3,-78.11 94.13,-78.11 94.13,-78.11 279.8,-78.11 279.8,-78.11 283.63,-78.11 287.46,-81.94 287.46,-85.78 287.46,-85.78 287.46,-93.44 287.46,-93.44 287.46,-97.28 283.63,-101.11 279.8,-101.11"/>
<text text-anchor="middle" x="186.96" y="-85.91" font-family="Arial" font-size="14.00" fill="#c6c5fe">components/ParticipantTile.tsx</text>
</g>
<!-- components/ParticipantTile.test.tsx&#45;&gt;components/ParticipantTile.tsx -->
<g id="edge17" class="edge">
<title>components/ParticipantTile.test.tsx&#45;&gt;components/ParticipantTile.tsx</title>
<path fill="none" stroke="#757575" d="M186.97,-89.7C186.97,-89.68 186.97,-89.67 186.97,-89.66"/>
<polygon fill="#757575" stroke="#757575" points="190.81,-99.5 186.96,-89.63 183.82,-99.75 190.81,-99.5"/>
</g>
<!-- components/ParticipantTile.tsx&#45;&gt;lib/types/supabase.ts -->
<g id="edge19" class="edge">
<title>components/ParticipantTile.tsx&#45;&gt;lib/types/supabase.ts</title>
<path fill="none" stroke="#757575" d="M169.99,-79.55C169.98,-79.55 169.98,-79.54 169.97,-79.54"/>
<polygon fill="#757575" stroke="#757575" points="180.36,-81.64 169.95,-79.53 176.77,-87.67 180.36,-81.64"/>
</g>
<!-- components/PasswordModal.test.tsx -->
<g id="node27" class="node">
<title>components/PasswordModal.test.tsx</title>
<path fill="none" stroke="#c6c5fe" d="M305.33,-147.75C305.33,-147.75 82.67,-147.75 82.67,-147.75 78.83,-147.75 75,-143.92 75,-140.09 75,-140.09 75,-132.42 75,-132.42 75,-128.59 78.83,-124.75 82.67,-124.75 82.67,-124.75 305.33,-124.75 305.33,-124.75 309.17,-124.75 313,-128.59 313,-132.42 313,-132.42 313,-140.09 313,-140.09 313,-143.92 309.17,-147.75 305.33,-147.75"/>
<text text-anchor="middle" x="194" y="-132.55" font-family="Arial" font-size="14.00" fill="#c6c5fe">components/PasswordModal.test.tsx</text>
</g>
<!-- components/PasswordModal.test.tsx&#45;&gt;components/PasswordModal.tsx -->
<g id="edge20" class="edge">
<title>components/PasswordModal.test.tsx&#45;&gt;components/PasswordModal.tsx</title>
<path fill="none" stroke="#757575" d="M185.75,-132.49C185.74,-132.48 185.72,-132.48 185.71,-132.47"/>
<polygon fill="#757575" stroke="#757575" points="196.24,-133.44 185.68,-132.46 193.32,-139.81 196.24,-133.44"/>
</g>
<!-- components/TeamLogoPicker.test.tsx -->
<g id="node29" class="node">
<title>components/TeamLogoPicker.test.tsx</title>
<path fill="none" stroke="#c6c5fe" d="M481.35,-218C481.35,-218 254.69,-218 254.69,-218 250.85,-218 247.02,-214.17 247.02,-210.33 247.02,-210.33 247.02,-202.67 247.02,-202.67 247.02,-198.83 250.85,-195 254.69,-195 254.69,-195 481.35,-195 481.35,-195 485.19,-195 489.02,-198.83 489.02,-202.67 489.02,-202.67 489.02,-210.33 489.02,-210.33 489.02,-214.17 485.19,-218 481.35,-218"/>
<text text-anchor="middle" x="368.02" y="-202.8" font-family="Arial" font-size="14.00" fill="#c6c5fe">components/TeamLogoPicker.test.tsx</text>
</g>
<!-- components/TeamLogoPicker.tsx -->
<g id="node30" class="node">
<title>components/TeamLogoPicker.tsx</title>
<path fill="none" stroke="#cfffac" d="M476.36,-218C476.36,-218 275.69,-218 275.69,-218 271.86,-218 268.02,-214.17 268.02,-210.33 268.02,-210.33 268.02,-202.67 268.02,-202.67 268.02,-198.83 271.86,-195 275.69,-195 275.69,-195 476.36,-195 476.36,-195 480.19,-195 484.02,-198.83 484.02,-202.67 484.02,-202.67 484.02,-210.33 484.02,-210.33 484.02,-214.17 480.19,-218 476.36,-218"/>
<text text-anchor="middle" x="376.02" y="-202.8" font-family="Arial" font-size="14.00" fill="#cfffac">components/TeamLogoPicker.tsx</text>
</g>
<!-- components/TeamLogoPicker.test.tsx&#45;&gt;components/TeamLogoPicker.tsx -->
<g id="edge21" class="edge">
<title>components/TeamLogoPicker.test.tsx&#45;&gt;components/TeamLogoPicker.tsx</title>
<path fill="none" stroke="#757575" d="M375.93,-206.5C375.95,-206.5 375.96,-206.5 375.97,-206.5"/>
<polygon fill="#757575" stroke="#757575" points="366.01,-210.04 376,-206.5 365.99,-203.04 366.01,-210.04"/>
</g>
<!-- components/VideoCall.tsx&#45;&gt;lib/types/supabase.ts -->
<g id="edge24" class="edge">
<title>components/VideoCall.tsx&#45;&gt;lib/types/supabase.ts</title>
<path fill="none" stroke="#757575" d="M170.03,-79.61C170.02,-79.59 170,-79.58 169.99,-79.57"/>
<polygon fill="#757575" stroke="#757575" points="179.56,-84.06 169.96,-79.54 174.65,-89.06 179.56,-84.06"/>
</g>
<!-- components/VideoCall.tsx&#45;&gt;components/ControlsBar.tsx -->
<g id="edge22" class="edge">
<title>components/VideoCall.tsx&#45;&gt;components/ControlsBar.tsx</title>
<path fill="none" stroke="#757575" d="M184.63,-79.47C184.65,-79.45 184.66,-79.44 184.67,-79.43"/>
<polygon fill="#757575" stroke="#757575" points="180.92,-89.31 184.69,-79.4 175.56,-84.8 180.92,-89.31"/>
</g>
<!-- components/VideoCall.tsx&#45;&gt;components/ParticipantTile.tsx -->
<g id="edge23" class="edge">
<title>components/VideoCall.tsx&#45;&gt;components/ParticipantTile.tsx</title>
<path fill="none" stroke="#757575" d="M186.86,-89.58C186.88,-89.59 186.89,-89.59 186.91,-89.59"/>
<polygon fill="#757575" stroke="#757575" points="176.38,-90.6 186.94,-89.6 178.07,-83.8 176.38,-90.6"/>
</g>
<!-- index.css -->
<g id="node32" class="node">
<title>index.css</title>
<path fill="none" stroke="#cfffac" d="M130.23,-93.49C130.23,-93.49 72.56,-93.49 72.56,-93.49 68.73,-93.49 64.9,-89.66 64.9,-85.82 64.9,-85.82 64.9,-78.16 64.9,-78.16 64.9,-74.32 68.73,-70.49 72.56,-70.49 72.56,-70.49 130.23,-70.49 130.23,-70.49 134.06,-70.49 137.9,-74.32 137.9,-78.16 137.9,-78.16 137.9,-85.82 137.9,-85.82 137.9,-89.66 134.06,-93.49 130.23,-93.49"/>
<text text-anchor="middle" x="101.4" y="-78.29" font-family="Arial" font-size="14.00" fill="#cfffac">index.css</text>
</g>
<!-- lib/createSession.test.ts -->
<g id="node33" class="node">
<title>lib/createSession.test.ts</title>
<path fill="none" stroke="#c6c5fe" d="M228.21,-169.93C228.21,-169.93 84.54,-169.93 84.54,-169.93 80.71,-169.93 76.87,-166.1 76.87,-162.26 76.87,-162.26 76.87,-154.6 76.87,-154.6 76.87,-150.76 80.71,-146.93 84.54,-146.93 84.54,-146.93 228.21,-146.93 228.21,-146.93 232.04,-146.93 235.87,-150.76 235.87,-154.6 235.87,-154.6 235.87,-162.26 235.87,-162.26 235.87,-166.1 232.04,-169.93 228.21,-169.93"/>
<text text-anchor="middle" x="156.37" y="-154.73" font-family="Arial" font-size="14.00" fill="#c6c5fe">lib/createSession.test.ts</text>
</g>
<!-- lib/createSession.test.ts&#45;&gt;lib/mutations.ts -->
<g id="edge25" class="edge">
<title>lib/createSession.test.ts&#45;&gt;lib/mutations.ts</title>
<path fill="none" stroke="#757575" d="M170.9,-146.82C171.13,-146.63 171.34,-146.47 171.52,-146.32"/>
<polygon fill="#757575" stroke="#757575" points="166.36,-154.93 171.98,-145.95 161.99,-149.46 166.36,-154.93"/>
</g>
<!-- lib/createSession.test.ts&#45;&gt;lib/supabaseClient.ts -->
<g id="edge26" class="edge">
<title>lib/createSession.test.ts&#45;&gt;lib/supabaseClient.ts</title>
<path fill="none" stroke="#757575" d="M112.79,-146.91C112.71,-146.89 112.62,-146.87 112.54,-146.84"/>
<polygon fill="#757575" stroke="#757575" points="122.85,-145.95 112.29,-146.78 121.06,-152.72 122.85,-145.95"/>
</g>
<!-- lib/dailyTokenManager.ts&#45;&gt;lib/types.ts -->
<g id="edge27" class="edge">
<title>lib/dailyTokenManager.ts&#45;&gt;lib/types.ts</title>
<path fill="none" stroke="#757575" d="M144.02,-141.55C138.49,-138.42 132.38,-134.97 126.44,-131.61"/>
<polygon fill="#757575" stroke="#757575" points="127.77,-128.34 117.35,-126.47 124.33,-134.44 127.77,-128.34"/>
</g>
<!-- lib/types/index.ts -->
<g id="node42" class="node">
<title>lib/types/index.ts</title>
<path fill="none" stroke="#c6c5fe" d="M212.27,-85.96C212.27,-85.96 111.6,-85.96 111.6,-85.96 107.77,-85.96 103.93,-82.12 103.93,-78.29 103.93,-78.29 103.93,-70.62 103.93,-70.62 103.93,-66.79 107.77,-62.96 111.6,-62.96 111.6,-62.96 212.27,-62.96 212.27,-62.96 216.1,-62.96 219.93,-66.79 219.93,-70.62 219.93,-70.62 219.93,-78.29 219.93,-78.29 219.93,-82.12 216.1,-85.96 212.27,-85.96"/>
<text text-anchor="middle" x="161.93" y="-70.76" font-family="Arial" font-size="14.00" fill="#c6c5fe">lib/types/index.ts</text>
</g>
<!-- lib/types.ts&#45;&gt;lib/types/index.ts -->
<g id="edge45" class="edge">
<title>lib/types.ts&#45;&gt;lib/types/index.ts</title>
<path fill="none" stroke="#757575" d="M115.45,-103.07C121.23,-99.51 127.71,-95.52 133.96,-91.68"/>
<polygon fill="#757575" stroke="#757575" points="136.15,-94.44 142.83,-86.21 132.48,-88.47 136.15,-94.44"/>
</g>
<!-- lib/mutations.test.ts -->
<g id="node36" class="node">
<title>lib/mutations.test.ts</title>
<path fill="none" stroke="#c6c5fe" d="M183.2,-167.71C183.2,-167.71 65.53,-167.71 65.53,-167.71 61.7,-167.71 57.87,-163.88 57.87,-160.04 57.87,-160.04 57.87,-152.38 57.87,-152.38 57.87,-148.54 61.7,-144.71 65.53,-144.71 65.53,-144.71 183.2,-144.71 183.2,-144.71 187.03,-144.71 190.87,-148.54 190.87,-152.38 190.87,-152.38 190.87,-160.04 190.87,-160.04 190.87,-163.88 187.03,-167.71 183.2,-167.71"/>
<text text-anchor="middle" x="124.37" y="-152.51" font-family="Arial" font-size="14.00" fill="#c6c5fe">lib/mutations.test.ts</text>
</g>
<!-- lib/mutations.test.ts&#45;&gt;lib/mutations.ts -->
<g id="edge32" class="edge">
<title>lib/mutations.test.ts&#45;&gt;lib/mutations.ts</title>
<path fill="none" stroke="#757575" d="M172.24,-145.66C172.26,-145.66 172.28,-145.66 172.3,-145.65"/>
<polygon fill="#757575" stroke="#757575" points="163.34,-151.23 172.34,-145.64 161.82,-144.39 163.34,-151.23"/>
</g>
<!-- lib/mutations.test.ts&#45;&gt;lib/supabaseClient.ts -->
<g id="edge33" class="edge">
<title>lib/mutations.test.ts&#45;&gt;lib/supabaseClient.ts</title>
<path fill="none" stroke="#757575" d="M108.41,-145.77C108.4,-145.77 108.39,-145.76 108.39,-145.76"/>
<polygon fill="#757575" stroke="#757575" points="118.67,-148.32 108.37,-145.75 114.82,-154.18 118.67,-148.32"/>
</g>
<!-- lib/mutations.test.ts&#45;&gt;lib/types.ts -->
<g id="edge34" class="edge">
<title>lib/mutations.test.ts&#45;&gt;lib/types.ts</title>
<path fill="none" stroke="#757575" d="M116.47,-144.43C114.45,-141.42 112.23,-138.11 110.02,-134.82"/>
<polygon fill="#757575" stroke="#757575" points="112.84,-132.73 104.36,-126.38 107.02,-136.63 112.84,-132.73"/>
</g>
<!-- lib/mutations.validation.ts -->
<g id="node37" class="node">
<title>lib/mutations.validation.ts</title>
<path fill="none" stroke="#cfffac" d="M329.18,-23C329.18,-23 176.52,-23 176.52,-23 172.68,-23 168.85,-19.17 168.85,-15.33 168.85,-15.33 168.85,-7.67 168.85,-7.67 168.85,-3.83 172.68,0 176.52,0 176.52,0 329.18,0 329.18,0 333.02,0 336.85,-3.83 336.85,-7.67 336.85,-7.67 336.85,-15.33 336.85,-15.33 336.85,-19.17 333.02,-23 329.18,-23"/>
<text text-anchor="middle" x="252.85" y="-7.8" font-family="Arial" font-size="14.00" fill="#cfffac">lib/mutations.validation.ts</text>
</g>
<!-- lib/presence.ts&#45;&gt;lib/mutations.ts -->
<g id="edge38" class="edge">
<title>lib/presence.ts&#45;&gt;lib/mutations.ts</title>
<path fill="none" stroke="#757575" d="M152.7,-143.74C152.74,-143.75 152.79,-143.75 152.83,-143.76"/>
<polygon fill="#757575" stroke="#757575" points="142.67,-146.29 152.96,-143.77 143.34,-139.32 142.67,-146.29"/>
</g>
<!-- lib/presence.ts&#45;&gt;lib/supabaseClient.ts -->
<g id="edge39" class="edge">
<title>lib/presence.ts&#45;&gt;lib/supabaseClient.ts</title>
<path fill="none" stroke="#757575" d="M108.27,-145.66C108.28,-145.67 108.3,-145.69 108.31,-145.7"/>
<polygon fill="#757575" stroke="#757575" points="98.5,-141.75 108.34,-145.72 103.13,-136.48 98.5,-141.75"/>
</g>
<!-- lib/realtimeHooks.ts&#45;&gt;lib/supabaseClient.ts -->
<g id="edge40" class="edge">
<title>lib/realtimeHooks.ts&#45;&gt;lib/supabaseClient.ts</title>
<path fill="none" stroke="#757575" d="M103.48,-118.21C103.81,-120.1 104.17,-122.11 104.53,-124.15"/>
<polygon fill="#757575" stroke="#757575" points="101.12,-124.95 106.31,-134.19 108.01,-123.73 101.12,-124.95"/>
</g>
<!-- lib/realtimeHooks.ts&#45;&gt;lib/types.ts -->
<g id="edge41" class="edge">
<title>lib/realtimeHooks.ts&#45;&gt;lib/types.ts</title>
<path fill="none" stroke="#757575" d="M96.59,-114.62C96.58,-114.63 96.57,-114.65 96.57,-114.66"/>
<polygon fill="#757575" stroke="#757575" points="98.8,-104.32 96.55,-114.69 104.78,-107.99 98.8,-104.32"/>
</g>
<!-- lib/sessionCode.test.ts -->
<g id="node40" class="node">
<title>lib/sessionCode.test.ts</title>
<path fill="none" stroke="#c6c5fe" d="M216.71,-172.68C216.71,-172.68 80.04,-172.68 80.04,-172.68 76.21,-172.68 72.37,-168.84 72.37,-165.01 72.37,-165.01 72.37,-157.34 72.37,-157.34 72.37,-153.51 76.21,-149.68 80.04,-149.68 80.04,-149.68 216.71,-149.68 216.71,-149.68 220.54,-149.68 224.37,-153.51 224.37,-157.34 224.37,-157.34 224.37,-165.01 224.37,-165.01 224.37,-168.84 220.54,-172.68 216.71,-172.68"/>
<text text-anchor="middle" x="148.37" y="-157.48" font-family="Arial" font-size="14.00" fill="#c6c5fe">lib/sessionCode.test.ts</text>
</g>
<!-- lib/sessionCode.test.ts&#45;&gt;lib/mutations.ts -->
<g id="edge42" class="edge">
<title>lib/sessionCode.test.ts&#45;&gt;lib/mutations.ts</title>
<path fill="none" stroke="#757575" d="M166.32,-149.56C166.37,-149.52 166.43,-149.49 166.48,-149.45"/>
<polygon fill="#757575" stroke="#757575" points="160.15,-157.72 166.64,-149.35 156.35,-151.85 160.15,-157.72"/>
</g>
<!-- lib/sessionCode.test.ts&#45;&gt;lib/supabaseClient.ts -->
<g id="edge43" class="edge">
<title>lib/sessionCode.test.ts&#45;&gt;lib/supabaseClient.ts</title>
<path fill="none" stroke="#757575" d="M118.46,-149.64C118.41,-149.62 118.37,-149.6 118.32,-149.58"/>
<polygon fill="#757575" stroke="#757575" points="128.78,-149.87 118.19,-149.53 126.26,-156.4 128.78,-149.87"/>
</g>
<!-- lib/sessionHooks.ts&#45;&gt;lib/supabaseClient.ts -->
<g id="edge44" class="edge">
<title>lib/sessionHooks.ts&#45;&gt;lib/supabaseClient.ts</title>
<path fill="none" stroke="#757575" d="M126.06,-91.94C123.09,-100.98 118.89,-113.72 115.34,-124.53"/>
<polygon fill="#757575" stroke="#757575" points="111.98,-123.54 112.18,-134.13 118.63,-125.72 111.98,-123.54"/>
</g>
<!-- lib/types/index.ts&#45;&gt;lib/types/supabase.ts -->
<g id="edge46" class="edge">
<title>lib/types/index.ts&#45;&gt;lib/types/supabase.ts</title>
<path fill="none" stroke="#757575" d="M169.85,-79.46C169.87,-79.47 169.88,-79.48 169.89,-79.49"/>
<polygon fill="#757575" stroke="#757575" points="159.59,-77.11 169.92,-79.51 163.34,-71.19 159.59,-77.11"/>
</g>
<!-- main.tsx -->
<g id="node43" class="node">
<title>main.tsx</title>
<path fill="none" stroke="#c6c5fe" d="M135.76,-100.76C135.76,-100.76 83.09,-100.76 83.09,-100.76 79.26,-100.76 75.43,-96.93 75.43,-93.1 75.43,-93.1 75.43,-85.43 75.43,-85.43 75.43,-81.6 79.26,-77.76 83.09,-77.76 83.09,-77.76 135.76,-77.76 135.76,-77.76 139.59,-77.76 143.43,-81.6 143.43,-85.43 143.43,-85.43 143.43,-93.1 143.43,-93.1 143.43,-96.93 139.59,-100.76 135.76,-100.76"/>
<text text-anchor="middle" x="109.43" y="-85.56" font-family="Arial" font-size="14.00" fill="#c6c5fe">main.tsx</text>
</g>
<!-- main.tsx&#45;&gt;App.tsx -->
<g id="edge47" class="edge">
<title>main.tsx&#45;&gt;App.tsx</title>
<path fill="none" stroke="#757575" d="M117.36,-95.97C117.37,-95.98 117.39,-95.99 117.4,-96"/>
<polygon fill="#757575" stroke="#757575" points="107.52,-92.24 117.43,-96.03 112.05,-86.89 107.52,-92.24"/>
</g>
<!-- main.tsx&#45;&gt;index.css -->
<g id="edge48" class="edge">
<title>main.tsx&#45;&gt;index.css</title>
<path fill="none" stroke="#757575" d="M101.49,-82.07C101.47,-82.06 101.46,-82.05 101.45,-82.04"/>
<polygon fill="#757575" stroke="#757575" points="111.19,-86.14 101.42,-82.01 106.48,-91.33 111.19,-86.14"/>
</g>
<!-- setupTests.ts -->
<g id="node44" class="node">
<title>setupTests.ts</title>
<path fill="none" stroke="#cfffac" d="M139.68,-23C139.68,-23 60.02,-23 60.02,-23 56.18,-23 52.35,-19.17 52.35,-15.33 52.35,-15.33 52.35,-7.67 52.35,-7.67 52.35,-3.83 56.18,0 60.02,0 60.02,0 139.68,0 139.68,0 143.52,0 147.35,-3.83 147.35,-7.67 147.35,-7.67 147.35,-15.33 147.35,-15.33 147.35,-19.17 143.52,-23 139.68,-23"/>
<text text-anchor="middle" x="99.85" y="-7.8" font-family="Arial" font-size="14.00" fill="#cfffac">setupTests.ts</text>
</g>
</g>
</svg>
