<?xml version="1.0" encoding="UTF-8" standalone="no"?>
<!DOCTYPE svg PUBLIC "-//W3C//DTD SVG 1.1//EN"
 "http://www.w3.org/Graphics/SVG/1.1/DTD/svg11.dtd">
<!-- Generated by graphviz version 2.43.0 (0)
 -->
<!-- Title: G Pages: 1 -->
<svg width="533pt" height="274pt"
 viewBox="0.00 0.00 532.53 274.20" xmlns="http://www.w3.org/2000/svg" xmlns:xlink="http://www.w3.org/1999/xlink">
<g id="graph0" class="graph" transform="scale(1 1) rotate(0) translate(21.6 252.6)">
<title>G</title>
<polygon fill="#111111" stroke="transparent" points="-21.6,21.6 -21.6,-252.6 510.93,-252.6 510.93,21.6 -21.6,21.6"/>
<!-- App.tsx -->
<g id="node1" class="node">
<title>App.tsx</title>
<path fill="none" stroke="#c6c5fe" d="M138.76,-102.75C138.76,-102.75 92.09,-102.75 92.09,-102.75 88.26,-102.75 84.43,-98.92 84.43,-95.08 84.43,-95.08 84.43,-87.42 84.43,-87.42 84.43,-83.58 88.26,-79.75 92.09,-79.75 92.09,-79.75 138.76,-79.75 138.76,-79.75 142.59,-79.75 146.43,-83.58 146.43,-87.42 146.43,-87.42 146.43,-95.08 146.43,-95.08 146.43,-98.92 142.59,-102.75 138.76,-102.75"/>
<text text-anchor="middle" x="115.43" y="-87.55" font-family="Arial" font-size="14.00" fill="#c6c5fe">App.tsx</text>
</g>
<!-- pages/GameSetup.tsx -->
<g id="node2" class="node">
<title>pages/GameSetup.tsx</title>
<path fill="none" stroke="#c6c5fe" d="M162.48,-127.61C162.48,-127.61 25.81,-127.61 25.81,-127.61 21.98,-127.61 18.14,-123.78 18.14,-119.94 18.14,-119.94 18.14,-112.28 18.14,-112.28 18.14,-108.44 21.98,-104.61 25.81,-104.61 25.81,-104.61 162.48,-104.61 162.48,-104.61 166.31,-104.61 170.14,-108.44 170.14,-112.28 170.14,-112.28 170.14,-119.94 170.14,-119.94 170.14,-123.78 166.31,-127.61 162.48,-127.61"/>
<text text-anchor="middle" x="94.14" y="-112.41" font-family="Arial" font-size="14.00" fill="#c6c5fe">pages/GameSetup.tsx</text>
</g>
<!-- App.tsx&#45;&gt;pages/GameSetup.tsx -->
<g id="edge1" class="edge">
<title>App.tsx&#45;&gt;pages/GameSetup.tsx</title>
<path fill="none" stroke="#757575" d="M105.53,-102.81C105.42,-102.93 105.32,-103.06 105.21,-103.19"/>
<polygon fill="#757575" stroke="#757575" points="108.07,-94.46 104.23,-104.33 113.39,-99.01 108.07,-94.46"/>
</g>
<!-- pages/Homepage.tsx -->
<g id="node3" class="node">
<title>pages/Homepage.tsx</title>
<path fill="none" stroke="#c6c5fe" d="M238.32,-138.02C238.32,-138.02 108.65,-138.02 108.65,-138.02 104.82,-138.02 100.98,-134.18 100.98,-130.35 100.98,-130.35 100.98,-122.68 100.98,-122.68 100.98,-118.85 104.82,-115.02 108.65,-115.02 108.65,-115.02 238.32,-115.02 238.32,-115.02 242.15,-115.02 245.98,-118.85 245.98,-122.68 245.98,-122.68 245.98,-130.35 245.98,-130.35 245.98,-134.18 242.15,-138.02 238.32,-138.02"/>
<text text-anchor="middle" x="173.48" y="-122.82" font-family="Arial" font-size="14.00" fill="#c6c5fe">pages/Homepage.tsx</text>
</g>
<!-- App.tsx&#45;&gt;pages/Homepage.tsx -->
<g id="edge2" class="edge">
<title>App.tsx&#45;&gt;pages/Homepage.tsx</title>
<path fill="none" stroke="#757575" d="M134.44,-102.8C138.01,-104.97 141.81,-107.28 145.59,-109.57"/>
<polygon fill="#757575" stroke="#757575" points="143.87,-112.62 154.23,-114.82 147.5,-106.64 143.87,-112.62"/>
</g>
<!-- pages/Join.tsx -->
<g id="node4" class="node">
<title>pages/Join.tsx</title>
<path fill="none" stroke="#c6c5fe" d="M223.8,-122.01C223.8,-122.01 136.14,-122.01 136.14,-122.01 132.3,-122.01 128.47,-118.18 128.47,-114.34 128.47,-114.34 128.47,-106.68 128.47,-106.68 128.47,-102.84 132.3,-99.01 136.14,-99.01 136.14,-99.01 223.8,-99.01 223.8,-99.01 227.64,-99.01 231.47,-102.84 231.47,-106.68 231.47,-106.68 231.47,-114.34 231.47,-114.34 231.47,-118.18 227.64,-122.01 223.8,-122.01"/>
<text text-anchor="middle" x="179.97" y="-106.81" font-family="Arial" font-size="14.00" fill="#c6c5fe">pages/Join.tsx</text>
</g>
<!-- App.tsx&#45;&gt;pages/Join.tsx -->
<g id="edge3" class="edge">
<title>App.tsx&#45;&gt;pages/Join.tsx</title>
<path fill="none" stroke="#757575" d="M146.56,-100.54C146.63,-100.56 146.69,-100.58 146.76,-100.6"/>
<polygon fill="#757575" stroke="#757575" points="136.37,-101.15 146.95,-100.66 138.37,-94.44 136.37,-101.15"/>
</g>
<!-- pages/Lobby.tsx -->
<g id="node5" class="node">
<title>pages/Lobby.tsx</title>
<path fill="none" stroke="#c6c5fe" d="M183.81,-82.34C183.81,-82.34 85.15,-82.34 85.15,-82.34 81.31,-82.34 77.48,-78.51 77.48,-74.68 77.48,-74.68 77.48,-67.01 77.48,-67.01 77.48,-63.18 81.31,-59.34 85.15,-59.34 85.15,-59.34 183.81,-59.34 183.81,-59.34 187.65,-59.34 191.48,-63.18 191.48,-67.01 191.48,-67.01 191.48,-74.68 191.48,-74.68 191.48,-78.51 187.65,-82.34 183.81,-82.34"/>
<text text-anchor="middle" x="134.48" y="-67.14" font-family="Arial" font-size="14.00" fill="#c6c5fe">pages/Lobby.tsx</text>
</g>
<!-- App.tsx&#45;&gt;pages/Lobby.tsx -->
<g id="edge4" class="edge">
<title>App.tsx&#45;&gt;pages/Lobby.tsx</title>
<path fill="none" stroke="#757575" d="M126.29,-79.62C126.36,-79.54 126.42,-79.47 126.49,-79.4"/>
<polygon fill="#757575" stroke="#757575" points="122.42,-88.89 126.69,-79.19 117.3,-84.11 122.42,-88.89"/>
</g>
<!-- pages/Quiz.tsx -->
<g id="node6" class="node">
<title>pages/Quiz.tsx</title>
<path fill="none" stroke="#c6c5fe" d="M152.37,-103.6C152.37,-103.6 60.7,-103.6 60.7,-103.6 56.87,-103.6 53.03,-99.76 53.03,-95.93 53.03,-95.93 53.03,-88.26 53.03,-88.26 53.03,-84.43 56.87,-80.6 60.7,-80.6 60.7,-80.6 152.37,-80.6 152.37,-80.6 156.2,-80.6 160.03,-84.43 160.03,-88.26 160.03,-88.26 160.03,-95.93 160.03,-95.93 160.03,-99.76 156.2,-103.6 152.37,-103.6"/>
<text text-anchor="middle" x="106.53" y="-88.4" font-family="Arial" font-size="14.00" fill="#c6c5fe">pages/Quiz.tsx</text>
</g>
<!-- App.tsx&#45;&gt;pages/Quiz.tsx -->
<g id="edge5" class="edge">
<title>App.tsx&#45;&gt;pages/Quiz.tsx</title>
<path fill="none" stroke="#757575" d="M106.63,-92.09C106.62,-92.09 106.6,-92.09 106.59,-92.09"/>
<polygon fill="#757575" stroke="#757575" points="116.17,-87.63 106.56,-92.09 116.86,-94.6 116.17,-87.63"/>
</g>
<!-- pages/Results.tsx -->
<g id="node7" class="node">
<title>pages/Results.tsx</title>
<path fill="none" stroke="#c6c5fe" d="M172.3,-94.02C172.3,-94.02 64.64,-94.02 64.64,-94.02 60.8,-94.02 56.97,-90.19 56.97,-86.35 56.97,-86.35 56.97,-78.69 56.97,-78.69 56.97,-74.85 60.8,-71.02 64.64,-71.02 64.64,-71.02 172.3,-71.02 172.3,-71.02 176.14,-71.02 179.97,-74.85 179.97,-78.69 179.97,-78.69 179.97,-86.35 179.97,-86.35 179.97,-90.19 176.14,-94.02 172.3,-94.02"/>
<text text-anchor="middle" x="118.47" y="-78.82" font-family="Arial" font-size="14.00" fill="#c6c5fe">pages/Results.tsx</text>
</g>
<!-- App.tsx&#45;&gt;pages/Results.tsx -->
<g id="edge6" class="edge">
<title>App.tsx&#45;&gt;pages/Results.tsx</title>
<path fill="none" stroke="#757575" d="M118.44,-82.62C118.44,-82.6 118.45,-82.59 118.45,-82.58"/>
<polygon fill="#757575" stroke="#757575" points="118.45,-93.15 118.46,-82.55 111.84,-90.83 118.45,-93.15"/>
</g>
<!-- atoms/index.ts -->
<g id="node8" class="node">
<title>atoms/index.ts</title>
<path fill="none" stroke="#c6c5fe" d="M194.82,-82.59C194.82,-82.59 106.15,-82.59 106.15,-82.59 102.32,-82.59 98.49,-78.76 98.49,-74.92 98.49,-74.92 98.49,-67.26 98.49,-67.26 98.49,-63.42 102.32,-59.59 106.15,-59.59 106.15,-59.59 194.82,-59.59 194.82,-59.59 198.65,-59.59 202.49,-63.42 202.49,-67.26 202.49,-67.26 202.49,-74.92 202.49,-74.92 202.49,-78.76 198.65,-82.59 194.82,-82.59"/>
<text text-anchor="middle" x="150.49" y="-67.39" font-family="Arial" font-size="14.00" fill="#c6c5fe">atoms/index.ts</text>
</g>
<!-- pages/GameSetup.tsx&#45;&gt;atoms/index.ts -->
<g id="edge45" class="edge">
<title>pages/GameSetup.tsx&#45;&gt;atoms/index.ts</title>
<path fill="none" stroke="#757575" d="M108.65,-104.52C114.52,-99.83 121.44,-94.3 127.93,-89.11"/>
<polygon fill="#757575" stroke="#757575" points="130.2,-91.78 135.83,-82.8 125.83,-86.31 130.2,-91.78"/>
</g>
<!-- lib/mutations.ts -->
<g id="node11" class="node">
<title>lib/mutations.ts</title>
<path fill="none" stroke="#c6c5fe" d="M209.23,-154.02C209.23,-154.02 117.57,-154.02 117.57,-154.02 113.73,-154.02 109.9,-150.19 109.9,-146.36 109.9,-146.36 109.9,-138.69 109.9,-138.69 109.9,-134.86 113.73,-131.02 117.57,-131.02 117.57,-131.02 209.23,-131.02 209.23,-131.02 213.07,-131.02 216.9,-134.86 216.9,-138.69 216.9,-138.69 216.9,-146.36 216.9,-146.36 216.9,-150.19 213.07,-154.02 209.23,-154.02"/>
<text text-anchor="middle" x="163.4" y="-138.82" font-family="Arial" font-size="14.00" fill="#c6c5fe">lib/mutations.ts</text>
</g>
<!-- pages/GameSetup.tsx&#45;&gt;lib/mutations.ts -->
<g id="edge48" class="edge">
<title>pages/GameSetup.tsx&#45;&gt;lib/mutations.ts</title>
<path fill="none" stroke="#757575" d="M124.32,-127.62C124.41,-127.65 124.5,-127.69 124.59,-127.72"/>
<polygon fill="#757575" stroke="#757575" points="122.52,-130.68 133.11,-130.97 125.01,-124.14 122.52,-130.68"/>
</g>
<!-- components/Alert.tsx -->
<g id="node12" class="node">
<title>components/Alert.tsx</title>
<path fill="none" stroke="#cfffac" d="M241.5,-130.01C241.5,-130.01 113.83,-130.01 113.83,-130.01 110,-130.01 106.16,-126.18 106.16,-122.35 106.16,-122.35 106.16,-114.68 106.16,-114.68 106.16,-110.85 110,-107.01 113.83,-107.01 113.83,-107.01 241.5,-107.01 241.5,-107.01 245.33,-107.01 249.16,-110.85 249.16,-114.68 249.16,-114.68 249.16,-122.35 249.16,-122.35 249.16,-126.18 245.33,-130.01 241.5,-130.01"/>
<text text-anchor="middle" x="177.66" y="-114.81" font-family="Arial" font-size="14.00" fill="#cfffac">components/Alert.tsx</text>
</g>
<!-- pages/GameSetup.tsx&#45;&gt;components/Alert.tsx -->
<g id="edge46" class="edge">
<title>pages/GameSetup.tsx&#45;&gt;components/Alert.tsx</title>
<path fill="none" stroke="#757575" d="M170.25,-118.3C170.32,-118.3 170.4,-118.3 170.47,-118.31"/>
<polygon fill="#757575" stroke="#757575" points="160.58,-121.52 170.68,-118.31 160.78,-114.52 160.58,-121.52"/>
</g>
<!-- components/LobbyStatus.tsx -->
<g id="node22" class="node">
<title>components/LobbyStatus.tsx</title>
<path fill="none" stroke="#c6c5fe" d="M183.33,-135.61C183.33,-135.61 7.67,-135.61 7.67,-135.61 3.83,-135.61 0,-131.78 0,-127.94 0,-127.94 0,-120.28 0,-120.28 0,-116.44 3.83,-112.61 7.67,-112.61 7.67,-112.61 183.33,-112.61 183.33,-112.61 187.17,-112.61 191,-116.44 191,-120.28 191,-120.28 191,-127.94 191,-127.94 191,-131.78 187.17,-135.61 183.33,-135.61"/>
<text text-anchor="middle" x="95.5" y="-120.41" font-family="Arial" font-size="14.00" fill="#c6c5fe">components/LobbyStatus.tsx</text>
</g>
<!-- pages/GameSetup.tsx&#45;&gt;components/LobbyStatus.tsx -->
<g id="edge47" class="edge">
<title>pages/GameSetup.tsx&#45;&gt;components/LobbyStatus.tsx</title>
<path fill="none" stroke="#757575" d="M95.48,-124.02C95.49,-124.04 95.49,-124.05 95.49,-124.06"/>
<polygon fill="#757575" stroke="#757575" points="90.34,-114.82 95.5,-124.09 97.25,-113.63 90.34,-114.82"/>
</g>
<!-- lib/supabaseClient.ts -->
<g id="node23" class="node">
<title>lib/supabaseClient.ts</title>
<path fill="none" stroke="#cfffac" d="M170.21,-151.61C170.21,-151.61 44.54,-151.61 44.54,-151.61 40.71,-151.61 36.88,-147.78 36.88,-143.94 36.88,-143.94 36.88,-136.28 36.88,-136.28 36.88,-132.44 40.71,-128.61 44.54,-128.61 44.54,-128.61 170.21,-128.61 170.21,-128.61 174.04,-128.61 177.88,-132.44 177.88,-136.28 177.88,-136.28 177.88,-143.94 177.88,-143.94 177.88,-147.78 174.04,-151.61 170.21,-151.61"/>
<text text-anchor="middle" x="107.38" y="-136.41" font-family="Arial" font-size="14.00" fill="#cfffac">lib/supabaseClient.ts</text>
</g>
<!-- pages/GameSetup.tsx&#45;&gt;lib/supabaseClient.ts -->
<g id="edge50" class="edge">
<title>pages/GameSetup.tsx&#45;&gt;lib/supabaseClient.ts</title>
<path fill="none" stroke="#757575" d="M100.61,-127.83C100.66,-127.92 100.71,-128.02 100.76,-128.11"/>
<polygon fill="#757575" stroke="#757575" points="93.02,-121.33 100.92,-128.4 99.15,-117.95 93.02,-121.33"/>
</g>
<!-- lib/types.ts -->
<g id="node33" class="node">
<title>lib/types.ts</title>
<path fill="none" stroke="#c6c5fe" d="M127.87,-119.6C127.87,-119.6 63.2,-119.6 63.2,-119.6 59.37,-119.6 55.53,-115.77 55.53,-111.94 55.53,-111.94 55.53,-104.27 55.53,-104.27 55.53,-100.44 59.37,-96.6 63.2,-96.6 63.2,-96.6 127.87,-96.6 127.87,-96.6 131.7,-96.6 135.53,-100.44 135.53,-104.27 135.53,-104.27 135.53,-111.94 135.53,-111.94 135.53,-115.77 131.7,-119.6 127.87,-119.6"/>
<text text-anchor="middle" x="95.53" y="-104.4" font-family="Arial" font-size="14.00" fill="#c6c5fe">lib/types.ts</text>
</g>
<!-- pages/GameSetup.tsx&#45;&gt;lib/types.ts -->
<g id="edge51" class="edge">
<title>pages/GameSetup.tsx&#45;&gt;lib/types.ts</title>
<path fill="none" stroke="#757575" d="M95.52,-108.19C95.52,-108.18 95.52,-108.17 95.52,-108.16"/>
<polygon fill="#757575" stroke="#757575" points="97.24,-118.59 95.53,-108.13 90.34,-117.37 97.24,-118.59"/>
</g>
<!-- lib/presence.ts -->
<g id="node36" class="node">
<title>lib/presence.ts</title>
<path fill="none" stroke="#c6c5fe" d="M143.71,-143.62C143.71,-143.62 55.04,-143.62 55.04,-143.62 51.21,-143.62 47.38,-139.78 47.38,-135.95 47.38,-135.95 47.38,-128.28 47.38,-128.28 47.38,-124.45 51.21,-120.62 55.04,-120.62 55.04,-120.62 143.71,-120.62 143.71,-120.62 147.54,-120.62 151.38,-124.45 151.38,-128.28 151.38,-128.28 151.38,-135.95 151.38,-135.95 151.38,-139.78 147.54,-143.62 143.71,-143.62"/>
<text text-anchor="middle" x="99.38" y="-128.42" font-family="Arial" font-size="14.00" fill="#c6c5fe">lib/presence.ts</text>
</g>
<!-- pages/GameSetup.tsx&#45;&gt;lib/presence.ts -->
<g id="edge49" class="edge">
<title>pages/GameSetup.tsx&#45;&gt;lib/presence.ts</title>
<path fill="none" stroke="#757575" d="M97.95,-127.74C97.97,-127.82 98,-127.9 98.02,-127.97"/>
<polygon fill="#757575" stroke="#757575" points="91.66,-119.78 98.1,-128.2 98.31,-117.61 91.66,-119.78"/>
</g>
<!-- components/ActiveGames.tsx -->
<g id="node10" class="node">
<title>components/ActiveGames.tsx</title>
<path fill="none" stroke="#c6c5fe" d="M260.01,-146.02C260.01,-146.02 78.34,-146.02 78.34,-146.02 74.51,-146.02 70.67,-142.19 70.67,-138.35 70.67,-138.35 70.67,-130.69 70.67,-130.69 70.67,-126.85 74.51,-123.02 78.34,-123.02 78.34,-123.02 260.01,-123.02 260.01,-123.02 263.84,-123.02 267.67,-126.85 267.67,-130.69 267.67,-130.69 267.67,-138.35 267.67,-138.35 267.67,-142.19 263.84,-146.02 260.01,-146.02"/>
<text text-anchor="middle" x="169.17" y="-130.82" font-family="Arial" font-size="14.00" fill="#c6c5fe">components/ActiveGames.tsx</text>
</g>
<!-- pages/Homepage.tsx&#45;&gt;components/ActiveGames.tsx -->
<g id="edge52" class="edge">
<title>pages/Homepage.tsx&#45;&gt;components/ActiveGames.tsx</title>
<path fill="none" stroke="#757575" d="M169.22,-134.43C169.22,-134.44 169.21,-134.46 169.2,-134.47"/>
<polygon fill="#757575" stroke="#757575" points="170.86,-124.02 169.19,-134.5 177.03,-127.35 170.86,-124.02"/>
</g>
<!-- pages/Homepage.tsx&#45;&gt;lib/mutations.ts -->
<g id="edge55" class="edge">
<title>pages/Homepage.tsx&#45;&gt;lib/mutations.ts</title>
<path fill="none" stroke="#757575" d="M166.15,-138.15C166.11,-138.23 166.06,-138.3 166.01,-138.38"/>
<polygon fill="#757575" stroke="#757575" points="168.24,-128.28 165.87,-138.61 174.16,-132.01 168.24,-128.28"/>
</g>
<!-- pages/Homepage.tsx&#45;&gt;components/Alert.tsx -->
<g id="edge53" class="edge">
<title>pages/Homepage.tsx&#45;&gt;components/Alert.tsx</title>
<path fill="none" stroke="#757575" d="M177.62,-118.6C177.62,-118.59 177.63,-118.58 177.64,-118.56"/>
<polygon fill="#757575" stroke="#757575" points="176.11,-129.03 177.65,-118.54 169.9,-125.78 176.11,-129.03"/>
</g>
<!-- components/PasswordModal.tsx -->
<g id="node27" class="node">
<title>components/PasswordModal.tsx</title>
<path fill="none" stroke="#cfffac" d="M280.27,-140.57C280.27,-140.57 83.61,-140.57 83.61,-140.57 79.77,-140.57 75.94,-136.74 75.94,-132.9 75.94,-132.9 75.94,-125.24 75.94,-125.24 75.94,-121.4 79.77,-117.57 83.61,-117.57 83.61,-117.57 280.27,-117.57 280.27,-117.57 284.11,-117.57 287.94,-121.4 287.94,-125.24 287.94,-125.24 287.94,-132.9 287.94,-132.9 287.94,-136.74 284.11,-140.57 280.27,-140.57"/>
<text text-anchor="middle" x="181.94" y="-125.37" font-family="Arial" font-size="14.00" fill="#cfffac">components/PasswordModal.tsx</text>
</g>
<!-- pages/Homepage.tsx&#45;&gt;components/PasswordModal.tsx -->
<g id="edge54" class="edge">
<title>pages/Homepage.tsx&#45;&gt;components/PasswordModal.tsx</title>
<path fill="none" stroke="#757575" d="M181.85,-129.04C181.86,-129.04 181.87,-129.05 181.89,-129.05"/>
<polygon fill="#757575" stroke="#757575" points="171.32,-129.5 181.92,-129.06 173.36,-122.8 171.32,-129.5"/>
</g>
<!-- pages/Join.tsx&#45;&gt;lib/mutations.ts -->
<g id="edge59" class="edge">
<title>pages/Join.tsx&#45;&gt;lib/mutations.ts</title>
<path fill="none" stroke="#757575" d="M173.99,-122.07C173.94,-122.16 173.89,-122.25 173.85,-122.34"/>
<polygon fill="#757575" stroke="#757575" points="170.92,-120.39 169.43,-130.88 177.13,-123.6 170.92,-120.39"/>
</g>
<!-- pages/Join.tsx&#45;&gt;components/Alert.tsx -->
<g id="edge56" class="edge">
<title>pages/Join.tsx&#45;&gt;components/Alert.tsx</title>
<path fill="none" stroke="#757575" d="M177.69,-118.42C177.69,-118.44 177.68,-118.45 177.68,-118.46"/>
<polygon fill="#757575" stroke="#757575" points="177.1,-107.9 177.67,-118.49 183.83,-109.86 177.1,-107.9"/>
</g>
<!-- components/FlagSelector.tsx -->
<g id="node21" class="node">
<title>components/FlagSelector.tsx</title>
<path fill="none" stroke="#cfffac" d="M275.81,-122.44C275.81,-122.44 100.15,-122.44 100.15,-122.44 96.31,-122.44 92.48,-118.61 92.48,-114.78 92.48,-114.78 92.48,-107.11 92.48,-107.11 92.48,-103.28 96.31,-99.44 100.15,-99.44 100.15,-99.44 275.81,-99.44 275.81,-99.44 279.65,-99.44 283.48,-103.28 283.48,-107.11 283.48,-107.11 283.48,-114.78 283.48,-114.78 283.48,-118.61 279.65,-122.44 275.81,-122.44"/>
<text text-anchor="middle" x="187.98" y="-107.24" font-family="Arial" font-size="14.00" fill="#cfffac">components/FlagSelector.tsx</text>
</g>
<!-- pages/Join.tsx&#45;&gt;components/FlagSelector.tsx -->
<g id="edge57" class="edge">
<title>pages/Join.tsx&#45;&gt;components/FlagSelector.tsx</title>
<path fill="none" stroke="#757575" d="M187.89,-110.94C187.9,-110.94 187.92,-110.94 187.93,-110.94"/>
<polygon fill="#757575" stroke="#757575" points="177.77,-113.87 187.96,-110.94 178.17,-106.88 177.77,-113.87"/>
</g>
<!-- components/LogoSelector.tsx -->
<g id="node24" class="node">
<title>components/LogoSelector.tsx</title>
<path fill="none" stroke="#c6c5fe" d="M270.39,-114.01C270.39,-114.01 91.72,-114.01 91.72,-114.01 87.89,-114.01 84.05,-110.17 84.05,-106.34 84.05,-106.34 84.05,-98.67 84.05,-98.67 84.05,-94.84 87.89,-91.01 91.72,-91.01 91.72,-91.01 270.39,-91.01 270.39,-91.01 274.22,-91.01 278.05,-94.84 278.05,-98.67 278.05,-98.67 278.05,-106.34 278.05,-106.34 278.05,-110.17 274.22,-114.01 270.39,-114.01"/>
<text text-anchor="middle" x="181.05" y="-98.81" font-family="Arial" font-size="14.00" fill="#c6c5fe">components/LogoSelector.tsx</text>
</g>
<!-- pages/Join.tsx&#45;&gt;components/LogoSelector.tsx -->
<g id="edge58" class="edge">
<title>pages/Join.tsx&#45;&gt;components/LogoSelector.tsx</title>
<path fill="none" stroke="#757575" d="M181.04,-102.6C181.04,-102.58 181.04,-102.57 181.05,-102.56"/>
<polygon fill="#757575" stroke="#757575" points="183.15,-112.92 181.05,-102.53 176.21,-111.96 183.15,-112.92"/>
</g>
<!-- pages/Lobby.tsx&#45;&gt;atoms/index.ts -->
<g id="edge60" class="edge">
<title>pages/Lobby.tsx&#45;&gt;atoms/index.ts</title>
<path fill="none" stroke="#757575" d="M150.44,-71.09C150.45,-71.09 150.46,-71.09 150.46,-71.09"/>
<polygon fill="#757575" stroke="#757575" points="140.4,-74.37 150.48,-71.09 140.55,-67.37 140.4,-74.37"/>
</g>
<!-- lib/types/supabase.ts -->
<g id="node9" class="node">
<title>lib/types/supabase.ts</title>
<path fill="none" stroke="#cfffac" d="M230.32,-90C230.32,-90 102.65,-90 102.65,-90 98.82,-90 94.99,-86.17 94.99,-82.34 94.99,-82.34 94.99,-74.67 94.99,-74.67 94.99,-70.84 98.82,-67 102.65,-67 102.65,-67 230.32,-67 230.32,-67 234.15,-67 237.99,-70.84 237.99,-74.67 237.99,-74.67 237.99,-82.34 237.99,-82.34 237.99,-86.17 234.15,-90 230.32,-90"/>
<text text-anchor="middle" x="166.49" y="-74.8" font-family="Arial" font-size="14.00" fill="#cfffac">lib/types/supabase.ts</text>
</g>
<!-- pages/Lobby.tsx&#45;&gt;lib/types/supabase.ts -->
<g id="edge65" class="edge">
<title>pages/Lobby.tsx&#45;&gt;lib/types/supabase.ts</title>
<path fill="none" stroke="#757575" d="M166.4,-78.48C166.41,-78.48 166.42,-78.49 166.44,-78.49"/>
<polygon fill="#757575" stroke="#757575" points="155.91,-79.55 166.46,-78.5 157.56,-72.74 155.91,-79.55"/>
</g>
<!-- pages/Lobby.tsx&#45;&gt;lib/mutations.ts -->
<g id="edge62" class="edge">
<title>pages/Lobby.tsx&#45;&gt;lib/mutations.ts</title>
<path fill="none" stroke="#757575" d="M139.13,-82.36C143.36,-92.85 149.72,-108.61 154.86,-121.37"/>
<polygon fill="#757575" stroke="#757575" points="151.68,-122.83 158.67,-130.8 158.17,-120.21 151.68,-122.83"/>
</g>
<!-- pages/Lobby.tsx&#45;&gt;lib/supabaseClient.ts -->
<g id="edge64" class="edge">
<title>pages/Lobby.tsx&#45;&gt;lib/supabaseClient.ts</title>
<path fill="none" stroke="#757575" d="M129.88,-82.59C126,-92.5 120.35,-106.94 115.69,-118.87"/>
<polygon fill="#757575" stroke="#757575" points="112.29,-117.95 111.91,-128.53 118.81,-120.5 112.29,-117.95"/>
</g>
<!-- components/VideoCall.tsx -->
<g id="node30" class="node">
<title>components/VideoCall.tsx</title>
<path fill="none" stroke="#c6c5fe" d="M252.02,-98C252.02,-98 94.35,-98 94.35,-98 90.52,-98 86.69,-94.17 86.69,-90.34 86.69,-90.34 86.69,-82.67 86.69,-82.67 86.69,-78.84 90.52,-75 94.35,-75 94.35,-75 252.02,-75 252.02,-75 255.85,-75 259.69,-78.84 259.69,-82.67 259.69,-82.67 259.69,-90.34 259.69,-90.34 259.69,-94.17 255.85,-98 252.02,-98"/>
<text text-anchor="middle" x="173.19" y="-82.8" font-family="Arial" font-size="14.00" fill="#c6c5fe">components/VideoCall.tsx</text>
</g>
<!-- pages/Lobby.tsx&#45;&gt;components/VideoCall.tsx -->
<g id="edge61" class="edge">
<title>pages/Lobby.tsx&#45;&gt;components/VideoCall.tsx</title>
<path fill="none" stroke="#757575" d="M163.02,-82.39C163.06,-82.41 163.11,-82.43 163.15,-82.44"/>
<polygon fill="#757575" stroke="#757575" points="152.7,-81.99 163.29,-82.5 155.33,-75.5 152.7,-81.99"/>
</g>
<!-- lib/sessionHooks.ts -->
<g id="node39" class="node">
<title>lib/sessionHooks.ts</title>
<path fill="none" stroke="#c6c5fe" d="M184.8,-86.39C184.8,-86.39 68.14,-86.39 68.14,-86.39 64.3,-86.39 60.47,-82.56 60.47,-78.72 60.47,-78.72 60.47,-71.06 60.47,-71.06 60.47,-67.22 64.3,-63.39 68.14,-63.39 68.14,-63.39 184.8,-63.39 184.8,-63.39 188.64,-63.39 192.47,-67.22 192.47,-71.06 192.47,-71.06 192.47,-78.72 192.47,-78.72 192.47,-82.56 188.64,-86.39 184.8,-86.39"/>
<text text-anchor="middle" x="126.47" y="-71.19" font-family="Arial" font-size="14.00" fill="#c6c5fe">lib/sessionHooks.ts</text>
</g>
<!-- pages/Lobby.tsx&#45;&gt;lib/sessionHooks.ts -->
<g id="edge63" class="edge">
<title>pages/Lobby.tsx&#45;&gt;lib/sessionHooks.ts</title>
<path fill="none" stroke="#757575" d="M126.56,-74.84C126.55,-74.85 126.53,-74.86 126.52,-74.86"/>
<polygon fill="#757575" stroke="#757575" points="133.84,-67.23 126.49,-74.88 137.01,-73.48 133.84,-67.23"/>
</g>
<!-- pages/Quiz.tsx&#45;&gt;lib/mutations.ts -->
<g id="edge66" class="edge">
<title>pages/Quiz.tsx&#45;&gt;lib/mutations.ts</title>
<path fill="none" stroke="#757575" d="M119.72,-103.79C126.47,-109.78 134.84,-117.2 142.45,-123.94"/>
<polygon fill="#757575" stroke="#757575" points="140.48,-126.88 150.28,-130.89 145.12,-121.64 140.48,-126.88"/>
</g>
<!-- pages/Quiz.tsx&#45;&gt;lib/types.ts -->
<g id="edge69" class="edge">
<title>pages/Quiz.tsx&#45;&gt;lib/types.ts</title>
<path fill="none" stroke="#757575" d="M98.54,-103.73C98.48,-103.81 98.43,-103.88 98.38,-103.96"/>
<polygon fill="#757575" stroke="#757575" points="101,-93.96 98.22,-104.19 106.77,-97.93 101,-93.96"/>
</g>
<!-- lib/realtimeHooks.ts -->
<g id="node37" class="node">
<title>lib/realtimeHooks.ts</title>
<path fill="none" stroke="#c6c5fe" d="M158.64,-111.6C158.64,-111.6 38.97,-111.6 38.97,-111.6 35.14,-111.6 31.31,-107.76 31.31,-103.93 31.31,-103.93 31.31,-96.26 31.31,-96.26 31.31,-92.43 35.14,-88.6 38.97,-88.6 38.97,-88.6 158.64,-88.6 158.64,-88.6 162.47,-88.6 166.31,-92.43 166.31,-96.26 166.31,-96.26 166.31,-103.93 166.31,-103.93 166.31,-107.76 162.47,-111.6 158.64,-111.6"/>
<text text-anchor="middle" x="98.81" y="-96.4" font-family="Arial" font-size="14.00" fill="#c6c5fe">lib/realtimeHooks.ts</text>
</g>
<!-- pages/Quiz.tsx&#45;&gt;lib/realtimeHooks.ts -->
<g id="edge67" class="edge">
<title>pages/Quiz.tsx&#45;&gt;lib/realtimeHooks.ts</title>
<path fill="none" stroke="#757575" d="M98.89,-100.01C98.88,-100.02 98.87,-100.04 98.86,-100.05"/>
<polygon fill="#757575" stroke="#757575" points="103.26,-90.44 98.83,-100.07 108.3,-95.31 103.26,-90.44"/>
</g>
<!-- pages/Quiz.tsx&#45;&gt;lib/sessionHooks.ts -->
<g id="edge68" class="edge">
<title>pages/Quiz.tsx&#45;&gt;lib/sessionHooks.ts</title>
<path fill="none" stroke="#757575" d="M120.16,-80.33C120.22,-80.29 120.27,-80.24 120.33,-80.19"/>
<polygon fill="#757575" stroke="#757575" points="115.2,-89.24 120.49,-80.05 110.63,-83.94 115.2,-89.24"/>
</g>
<!-- pages/Results.tsx&#45;&gt;lib/mutations.ts -->
<g id="edge70" class="edge">
<title>pages/Results.tsx&#45;&gt;lib/mutations.ts</title>
<path fill="none" stroke="#757575" d="M127.13,-94.09C133.22,-102.22 141.53,-113.31 148.65,-122.83"/>
<polygon fill="#757575" stroke="#757575" points="145.97,-125.08 154.76,-130.99 151.57,-120.89 145.97,-125.08"/>
</g>
<!-- pages/Results.tsx&#45;&gt;lib/supabaseClient.ts -->
<g id="edge72" class="edge">
<title>pages/Results.tsx&#45;&gt;lib/supabaseClient.ts</title>
<path fill="none" stroke="#757575" d="M116.23,-94.17C114.89,-101.12 113.15,-110.16 111.56,-118.38"/>
<polygon fill="#757575" stroke="#757575" points="108.07,-117.99 109.62,-128.47 114.95,-119.32 108.07,-117.99"/>
</g>
<!-- pages/Results.tsx&#45;&gt;lib/sessionHooks.ts -->
<g id="edge71" class="edge">
<title>pages/Results.tsx&#45;&gt;lib/sessionHooks.ts</title>
<path fill="none" stroke="#757575" d="M126.38,-74.98C126.4,-74.96 126.41,-74.95 126.42,-74.94"/>
<polygon fill="#757575" stroke="#757575" points="121.62,-84.36 126.45,-74.91 116.79,-79.29 121.62,-84.36"/>
</g>
<!-- atoms/index.ts&#45;&gt;lib/types/supabase.ts -->
<g id="edge7" class="edge">
<title>atoms/index.ts&#45;&gt;lib/types/supabase.ts</title>
<path fill="none" stroke="#757575" d="M166.44,-78.48C166.45,-78.49 166.46,-78.49 166.46,-78.49"/>
<polygon fill="#757575" stroke="#757575" points="155.91,-77.44 166.48,-78.5 158.88,-71.08 155.91,-77.44"/>
</g>
<!-- components/ActiveGames.tsx&#45;&gt;lib/mutations.ts -->
<g id="edge8" class="edge">
<title>components/ActiveGames.tsx&#45;&gt;lib/mutations.ts</title>
<path fill="none" stroke="#757575" d="M163.46,-142.43C163.45,-142.45 163.44,-142.46 163.44,-142.47"/>
<polygon fill="#757575" stroke="#757575" points="166.44,-132.33 163.42,-142.5 172.12,-136.44 166.44,-132.33"/>
</g>
<!-- lib/mutations.ts&#45;&gt;lib/supabaseClient.ts -->
<g id="edge32" class="edge">
<title>lib/mutations.ts&#45;&gt;lib/supabaseClient.ts</title>
<path fill="none" stroke="#757575" d="M109.78,-140.21C109.69,-140.21 109.6,-140.21 109.5,-140.2"/>
<polygon fill="#757575" stroke="#757575" points="119.38,-137.13 109.24,-140.19 119.08,-144.12 119.38,-137.13"/>
</g>
<!-- lib/mutations.ts&#45;&gt;lib/types.ts -->
<g id="edge33" class="edge">
<title>lib/mutations.ts&#45;&gt;lib/types.ts</title>
<path fill="none" stroke="#757575" d="M140.42,-130.87C136.33,-128.8 132,-126.6 127.71,-124.42"/>
<polygon fill="#757575" stroke="#757575" points="128.99,-121.15 118.49,-119.75 125.82,-127.39 128.99,-121.15"/>
</g>
<!-- components/ControlsBar.tsx -->
<g id="node13" class="node">
<title>components/ControlsBar.tsx</title>
<path fill="none" stroke="#cfffac" d="M266.55,-91.28C266.55,-91.28 95.88,-91.28 95.88,-91.28 92.05,-91.28 88.22,-87.44 88.22,-83.61 88.22,-83.61 88.22,-75.94 88.22,-75.94 88.22,-72.11 92.05,-68.28 95.88,-68.28 95.88,-68.28 266.55,-68.28 266.55,-68.28 270.38,-68.28 274.22,-72.11 274.22,-75.94 274.22,-75.94 274.22,-83.61 274.22,-83.61 274.22,-87.44 270.38,-91.28 266.55,-91.28"/>
<text text-anchor="middle" x="181.22" y="-76.08" font-family="Arial" font-size="14.00" fill="#cfffac">components/ControlsBar.tsx</text>
</g>
<!-- components/DailyJoinButton.test.tsx -->
<g id="node14" class="node">
<title>components/DailyJoinButton.test.tsx</title>
<path fill="none" stroke="#c6c5fe" d="M252.43,-74.38C252.43,-74.38 32.76,-74.38 32.76,-74.38 28.93,-74.38 25.09,-70.55 25.09,-66.71 25.09,-66.71 25.09,-59.05 25.09,-59.05 25.09,-55.21 28.93,-51.38 32.76,-51.38 32.76,-51.38 252.43,-51.38 252.43,-51.38 256.26,-51.38 260.09,-55.21 260.09,-59.05 260.09,-59.05 260.09,-66.71 260.09,-66.71 260.09,-70.55 256.26,-74.38 252.43,-74.38"/>
<text text-anchor="middle" x="142.59" y="-59.18" font-family="Arial" font-size="14.00" fill="#c6c5fe">components/DailyJoinButton.test.tsx</text>
</g>
<!-- components/DailyJoinButton.tsx -->
<g id="node15" class="node">
<title>components/DailyJoinButton.tsx</title>
<path fill="none" stroke="#c6c5fe" d="M239.32,-82.41C239.32,-82.41 45.65,-82.41 45.65,-82.41 41.82,-82.41 37.98,-78.58 37.98,-74.75 37.98,-74.75 37.98,-67.08 37.98,-67.08 37.98,-63.25 41.82,-59.41 45.65,-59.41 45.65,-59.41 239.32,-59.41 239.32,-59.41 243.15,-59.41 246.98,-63.25 246.98,-67.08 246.98,-67.08 246.98,-74.75 246.98,-74.75 246.98,-78.58 243.15,-82.41 239.32,-82.41"/>
<text text-anchor="middle" x="142.48" y="-67.21" font-family="Arial" font-size="14.00" fill="#c6c5fe">components/DailyJoinButton.tsx</text>
</g>
<!-- components/DailyJoinButton.test.tsx&#45;&gt;components/DailyJoinButton.tsx -->
<g id="edge9" class="edge">
<title>components/DailyJoinButton.test.tsx&#45;&gt;components/DailyJoinButton.tsx</title>
<path fill="none" stroke="#757575" d="M142.49,-70.82C142.48,-70.84 142.48,-70.85 142.48,-70.86"/>
<polygon fill="#757575" stroke="#757575" points="139.15,-60.83 142.48,-70.89 146.15,-60.95 139.15,-60.83"/>
</g>
<!-- components/DailyJoinButton.tsx&#45;&gt;atoms/index.ts -->
<g id="edge10" class="edge">
<title>components/DailyJoinButton.tsx&#45;&gt;atoms/index.ts</title>
<path fill="none" stroke="#757575" d="M150.4,-71.09C150.41,-71.09 150.42,-71.09 150.44,-71.09"/>
<polygon fill="#757575" stroke="#757575" points="140.38,-74.33 150.46,-71.09 140.56,-67.33 140.38,-74.33"/>
</g>
<!-- components/DailyJoinButton.tsx&#45;&gt;lib/mutations.ts -->
<g id="edge11" class="edge">
<title>components/DailyJoinButton.tsx&#45;&gt;lib/mutations.ts</title>
<path fill="none" stroke="#757575" d="M145.84,-82.42C148.88,-92.8 153.41,-108.33 157.12,-121.01"/>
<polygon fill="#757575" stroke="#757575" points="153.81,-122.19 159.98,-130.81 160.53,-120.23 153.81,-122.19"/>
</g>
<!-- components/EnhancedLobby.tsx -->
<g id="node16" class="node">
<title>components/EnhancedLobby.tsx</title>
<path fill="none" stroke="#c6c5fe" d="M229.72,-164.97C229.72,-164.97 33.05,-164.97 33.05,-164.97 29.22,-164.97 25.39,-161.14 25.39,-157.31 25.39,-157.31 25.39,-149.64 25.39,-149.64 25.39,-145.81 29.22,-141.97 33.05,-141.97 33.05,-141.97 229.72,-141.97 229.72,-141.97 233.55,-141.97 237.39,-145.81 237.39,-149.64 237.39,-149.64 237.39,-157.31 237.39,-157.31 237.39,-161.14 233.55,-164.97 229.72,-164.97"/>
<text text-anchor="middle" x="131.39" y="-149.77" font-family="Arial" font-size="14.00" fill="#c6c5fe">components/EnhancedLobby.tsx</text>
</g>
<!-- lib/enhancedPresence.ts -->
<g id="node17" class="node">
<title>lib/enhancedPresence.ts</title>
<path fill="none" stroke="#c6c5fe" d="M213.72,-165.14C213.72,-165.14 65.05,-165.14 65.05,-165.14 61.22,-165.14 57.39,-161.31 57.39,-157.47 57.39,-157.47 57.39,-149.81 57.39,-149.81 57.39,-145.97 61.22,-142.14 65.05,-142.14 65.05,-142.14 213.72,-142.14 213.72,-142.14 217.55,-142.14 221.39,-145.97 221.39,-149.81 221.39,-149.81 221.39,-157.47 221.39,-157.47 221.39,-161.31 217.55,-165.14 213.72,-165.14"/>
<text text-anchor="middle" x="139.39" y="-149.94" font-family="Arial" font-size="14.00" fill="#c6c5fe">lib/enhancedPresence.ts</text>
</g>
<!-- components/EnhancedLobby.tsx&#45;&gt;lib/enhancedPresence.ts -->
<g id="edge12" class="edge">
<title>components/EnhancedLobby.tsx&#45;&gt;lib/enhancedPresence.ts</title>
<path fill="none" stroke="#757575" d="M139.3,-153.64C139.31,-153.64 139.33,-153.64 139.34,-153.64"/>
<polygon fill="#757575" stroke="#757575" points="129.28,-156.89 139.37,-153.64 129.45,-149.9 129.28,-156.89"/>
</g>
<!-- lib/enhancedRealtimeHooks.ts -->
<g id="node18" class="node">
<title>lib/enhancedRealtimeHooks.ts</title>
<path fill="none" stroke="#c6c5fe" d="M207.71,-157.74C207.71,-157.74 23.04,-157.74 23.04,-157.74 19.21,-157.74 15.38,-153.91 15.38,-150.08 15.38,-150.08 15.38,-142.41 15.38,-142.41 15.38,-138.58 19.21,-134.74 23.04,-134.74 23.04,-134.74 207.71,-134.74 207.71,-134.74 211.54,-134.74 215.38,-138.58 215.38,-142.41 215.38,-142.41 215.38,-150.08 215.38,-150.08 215.38,-153.91 211.54,-157.74 207.71,-157.74"/>
<text text-anchor="middle" x="115.38" y="-142.54" font-family="Arial" font-size="14.00" fill="#c6c5fe">lib/enhancedRealtimeHooks.ts</text>
</g>
<!-- components/EnhancedLobby.tsx&#45;&gt;lib/enhancedRealtimeHooks.ts -->
<g id="edge13" class="edge">
<title>components/EnhancedLobby.tsx&#45;&gt;lib/enhancedRealtimeHooks.ts</title>
<path fill="none" stroke="#757575" d="M115.42,-146.26C115.42,-146.26 115.41,-146.26 115.4,-146.26"/>
<polygon fill="#757575" stroke="#757575" points="125.96,-147.21 115.39,-146.25 123.06,-153.59 125.96,-147.21"/>
</g>
<!-- lib/enhancedPresence.ts&#45;&gt;lib/mutations.ts -->
<g id="edge25" class="edge">
<title>lib/enhancedPresence.ts&#45;&gt;lib/mutations.ts</title>
<path fill="none" stroke="#757575" d="M163.33,-142.56C163.34,-142.55 163.35,-142.55 163.36,-142.54"/>
<polygon fill="#757575" stroke="#757575" points="155.78,-149.93 163.38,-142.53 152.82,-143.58 155.78,-149.93"/>
</g>
<!-- lib/enhancedPresence.ts&#45;&gt;lib/supabaseClient.ts -->
<g id="edge26" class="edge">
<title>lib/enhancedPresence.ts&#45;&gt;lib/supabaseClient.ts</title>
<path fill="none" stroke="#757575" d="M112.1,-142.11C112.01,-142.07 111.92,-142.03 111.84,-141.99"/>
<polygon fill="#757575" stroke="#757575" points="122.15,-142.56 111.58,-141.89 119.43,-149 122.15,-142.56"/>
</g>
<!-- lib/enhancedRealtimeHooks.ts&#45;&gt;lib/supabaseClient.ts -->
<g id="edge27" class="edge">
<title>lib/enhancedRealtimeHooks.ts&#45;&gt;lib/supabaseClient.ts</title>
<path fill="none" stroke="#757575" d="M107.47,-140.18C107.45,-140.17 107.44,-140.16 107.43,-140.15"/>
<polygon fill="#757575" stroke="#757575" points="117.47,-143.44 107.4,-140.13 113.21,-149 117.47,-143.44"/>
</g>
<!-- lib/enhancedRealtimeHooks.ts&#45;&gt;lib/types.ts -->
<g id="edge28" class="edge">
<title>lib/enhancedRealtimeHooks.ts&#45;&gt;lib/types.ts</title>
<path fill="none" stroke="#757575" d="M109.32,-134.59C108.32,-132.67 107.25,-130.63 106.18,-128.57"/>
<polygon fill="#757575" stroke="#757575" points="109.28,-126.94 101.56,-119.68 103.07,-130.17 109.28,-126.94"/>
</g>
<!-- components/Flag.tsx -->
<g id="node19" class="node">
<title>components/Flag.tsx</title>
<path fill="none" stroke="#c6c5fe" d="M212.9,-231C212.9,-231 86.23,-231 86.23,-231 82.4,-231 78.57,-227.17 78.57,-223.33 78.57,-223.33 78.57,-215.67 78.57,-215.67 78.57,-211.83 82.4,-208 86.23,-208 86.23,-208 212.9,-208 212.9,-208 216.73,-208 220.57,-211.83 220.57,-215.67 220.57,-215.67 220.57,-223.33 220.57,-223.33 220.57,-227.17 216.73,-231 212.9,-231"/>
<text text-anchor="middle" x="149.57" y="-215.8" font-family="Arial" font-size="14.00" fill="#c6c5fe">components/Flag.tsx</text>
</g>
<!-- lib/flagIcons.ts -->
<g id="node20" class="node">
<title>lib/flagIcons.ts</title>
<path fill="none" stroke="#cfffac" d="M200.9,-231C200.9,-231 114.23,-231 114.23,-231 110.4,-231 106.57,-227.17 106.57,-223.33 106.57,-223.33 106.57,-215.67 106.57,-215.67 106.57,-211.83 110.4,-208 114.23,-208 114.23,-208 200.9,-208 200.9,-208 204.73,-208 208.57,-211.83 208.57,-215.67 208.57,-215.67 208.57,-223.33 208.57,-223.33 208.57,-227.17 204.73,-231 200.9,-231"/>
<text text-anchor="middle" x="157.57" y="-215.8" font-family="Arial" font-size="14.00" fill="#cfffac">lib/flagIcons.ts</text>
</g>
<!-- components/Flag.tsx&#45;&gt;lib/flagIcons.ts -->
<g id="edge14" class="edge">
<title>components/Flag.tsx&#45;&gt;lib/flagIcons.ts</title>
<path fill="none" stroke="#757575" d="M157.48,-219.5C157.49,-219.5 157.5,-219.5 157.52,-219.5"/>
<polygon fill="#757575" stroke="#757575" points="147.56,-223.04 157.54,-219.5 147.53,-216.04 147.56,-223.04"/>
</g>
<!-- components/LobbyStatus.tsx&#45;&gt;lib/supabaseClient.ts -->
<g id="edge15" class="edge">
<title>components/LobbyStatus.tsx&#45;&gt;lib/supabaseClient.ts</title>
<path fill="none" stroke="#757575" d="M104.13,-135.74C104.19,-135.82 104.25,-135.89 104.3,-135.97"/>
<polygon fill="#757575" stroke="#757575" points="95.7,-130.25 104.47,-136.2 101.32,-126.08 95.7,-130.25"/>
</g>
<!-- components/LogoSelector.tsx&#45;&gt;lib/supabaseClient.ts -->
<g id="edge16" class="edge">
<title>components/LogoSelector.tsx&#45;&gt;lib/supabaseClient.ts</title>
<path fill="none" stroke="#757575" d="M158.15,-114.2C152.13,-117.27 145.53,-120.64 139.14,-123.9"/>
<polygon fill="#757575" stroke="#757575" points="137.33,-120.89 130.02,-128.55 140.52,-127.13 137.33,-120.89"/>
</g>
<!-- components/ParticipantTile.tsx -->
<g id="node25" class="node">
<title>components/ParticipantTile.tsx</title>
<path fill="none" stroke="#c6c5fe" d="M271.88,-106C271.88,-106 86.21,-106 86.21,-106 82.38,-106 78.55,-102.17 78.55,-98.34 78.55,-98.34 78.55,-90.67 78.55,-90.67 78.55,-86.84 82.38,-83 86.21,-83 86.21,-83 271.88,-83 271.88,-83 275.71,-83 279.55,-86.84 279.55,-90.67 279.55,-90.67 279.55,-98.34 279.55,-98.34 279.55,-102.17 275.71,-106 271.88,-106"/>
<text text-anchor="middle" x="179.05" y="-90.8" font-family="Arial" font-size="14.00" fill="#c6c5fe">components/ParticipantTile.tsx</text>
</g>
<!-- components/ParticipantTile.tsx&#45;&gt;lib/types/supabase.ts -->
<g id="edge17" class="edge">
<title>components/ParticipantTile.tsx&#45;&gt;lib/types/supabase.ts</title>
<path fill="none" stroke="#757575" d="M169.92,-82.88C169.86,-82.8 169.8,-82.72 169.74,-82.64"/>
<polygon fill="#757575" stroke="#757575" points="178.49,-88.12 169.56,-82.42 172.98,-92.45 178.49,-88.12"/>
</g>
<!-- components/PasswordModal.test.tsx -->
<g id="node26" class="node">
<title>components/PasswordModal.test.tsx</title>
<path fill="none" stroke="#c6c5fe" d="M301.51,-144.09C301.51,-144.09 78.85,-144.09 78.85,-144.09 75.01,-144.09 71.18,-140.26 71.18,-136.42 71.18,-136.42 71.18,-128.76 71.18,-128.76 71.18,-124.92 75.01,-121.09 78.85,-121.09 78.85,-121.09 301.51,-121.09 301.51,-121.09 305.35,-121.09 309.18,-124.92 309.18,-128.76 309.18,-128.76 309.18,-136.42 309.18,-136.42 309.18,-140.26 305.35,-144.09 301.51,-144.09"/>
<text text-anchor="middle" x="190.18" y="-128.89" font-family="Arial" font-size="14.00" fill="#c6c5fe">components/PasswordModal.test.tsx</text>
</g>
<!-- components/PasswordModal.test.tsx&#45;&gt;components/PasswordModal.tsx -->
<g id="edge18" class="edge">
<title>components/PasswordModal.test.tsx&#45;&gt;components/PasswordModal.tsx</title>
<path fill="none" stroke="#757575" d="M182.03,-129.11C182.02,-129.1 182,-129.1 181.99,-129.09"/>
<polygon fill="#757575" stroke="#757575" points="192.54,-129.81 181.96,-129.08 189.78,-136.25 192.54,-129.81"/>
</g>
<!-- components/TeamLogoPicker.test.tsx -->
<g id="node28" class="node">
<title>components/TeamLogoPicker.test.tsx</title>
<path fill="none" stroke="#c6c5fe" d="M481.66,-218C481.66,-218 254.99,-218 254.99,-218 251.16,-218 247.33,-214.17 247.33,-210.33 247.33,-210.33 247.33,-202.67 247.33,-202.67 247.33,-198.83 251.16,-195 254.99,-195 254.99,-195 481.66,-195 481.66,-195 485.49,-195 489.33,-198.83 489.33,-202.67 489.33,-202.67 489.33,-210.33 489.33,-210.33 489.33,-214.17 485.49,-218 481.66,-218"/>
<text text-anchor="middle" x="368.33" y="-202.8" font-family="Arial" font-size="14.00" fill="#c6c5fe">components/TeamLogoPicker.test.tsx</text>
</g>
<!-- components/TeamLogoPicker.tsx -->
<g id="node29" class="node">
<title>components/TeamLogoPicker.tsx</title>
<path fill="none" stroke="#cfffac" d="M476.66,-218C476.66,-218 275.99,-218 275.99,-218 272.16,-218 268.33,-214.17 268.33,-210.33 268.33,-210.33 268.33,-202.67 268.33,-202.67 268.33,-198.83 272.16,-195 275.99,-195 275.99,-195 476.66,-195 476.66,-195 480.49,-195 484.33,-198.83 484.33,-202.67 484.33,-202.67 484.33,-210.33 484.33,-210.33 484.33,-214.17 480.49,-218 476.66,-218"/>
<text text-anchor="middle" x="376.33" y="-202.8" font-family="Arial" font-size="14.00" fill="#cfffac">components/TeamLogoPicker.tsx</text>
</g>
<!-- components/TeamLogoPicker.test.tsx&#45;&gt;components/TeamLogoPicker.tsx -->
<g id="edge19" class="edge">
<title>components/TeamLogoPicker.test.tsx&#45;&gt;components/TeamLogoPicker.tsx</title>
<path fill="none" stroke="#757575" d="M376.24,-206.5C376.25,-206.5 376.27,-206.5 376.28,-206.5"/>
<polygon fill="#757575" stroke="#757575" points="366.32,-210.04 376.3,-206.5 366.29,-203.04 366.32,-210.04"/>
</g>
<!-- components/VideoCall.tsx&#45;&gt;lib/types/supabase.ts -->
<g id="edge22" class="edge">
<title>components/VideoCall.tsx&#45;&gt;lib/types/supabase.ts</title>
<path fill="none" stroke="#757575" d="M166.56,-78.59C166.55,-78.58 166.54,-78.57 166.53,-78.55"/>
<polygon fill="#757575" stroke="#757575" points="175.62,-83.95 166.51,-78.53 170.25,-88.45 175.62,-83.95"/>
</g>
<!-- components/VideoCall.tsx&#45;&gt;components/ControlsBar.tsx -->
<g id="edge20" class="edge">
<title>components/VideoCall.tsx&#45;&gt;components/ControlsBar.tsx</title>
<path fill="none" stroke="#757575" d="M181.13,-79.85C181.14,-79.84 181.15,-79.83 181.17,-79.82"/>
<polygon fill="#757575" stroke="#757575" points="175.77,-88.91 181.19,-79.79 171.27,-83.54 175.77,-88.91"/>
</g>
<!-- components/VideoCall.tsx&#45;&gt;components/ParticipantTile.tsx -->
<g id="edge21" class="edge">
<title>components/VideoCall.tsx&#45;&gt;components/ParticipantTile.tsx</title>
<path fill="none" stroke="#757575" d="M178.98,-94.41C178.99,-94.43 179,-94.44 179.01,-94.45"/>
<polygon fill="#757575" stroke="#757575" points="170.28,-88.48 179.03,-94.48 175.93,-84.34 170.28,-88.48"/>
</g>
<!-- index.css -->
<g id="node31" class="node">
<title>index.css</title>
<path fill="none" stroke="#cfffac" d="M128.21,-86.92C128.21,-86.92 70.55,-86.92 70.55,-86.92 66.71,-86.92 62.88,-83.08 62.88,-79.25 62.88,-79.25 62.88,-71.58 62.88,-71.58 62.88,-67.75 66.71,-63.92 70.55,-63.92 70.55,-63.92 128.21,-63.92 128.21,-63.92 132.05,-63.92 135.88,-67.75 135.88,-71.58 135.88,-71.58 135.88,-79.25 135.88,-79.25 135.88,-83.08 132.05,-86.92 128.21,-86.92"/>
<text text-anchor="middle" x="99.38" y="-71.72" font-family="Arial" font-size="14.00" fill="#cfffac">index.css</text>
</g>
<!-- lib/createSession.test.ts -->
<g id="node32" class="node">
<title>lib/createSession.test.ts</title>
<path fill="none" stroke="#c6c5fe" d="M227.23,-160.11C227.23,-160.11 83.56,-160.11 83.56,-160.11 79.73,-160.11 75.89,-156.28 75.89,-152.45 75.89,-152.45 75.89,-144.78 75.89,-144.78 75.89,-140.95 79.73,-137.11 83.56,-137.11 83.56,-137.11 227.23,-137.11 227.23,-137.11 231.06,-137.11 234.89,-140.95 234.89,-144.78 234.89,-144.78 234.89,-152.45 234.89,-152.45 234.89,-156.28 231.06,-160.11 227.23,-160.11"/>
<text text-anchor="middle" x="155.39" y="-144.91" font-family="Arial" font-size="14.00" fill="#c6c5fe">lib/createSession.test.ts</text>
</g>
<!-- lib/createSession.test.ts&#45;&gt;lib/mutations.ts -->
<g id="edge23" class="edge">
<title>lib/createSession.test.ts&#45;&gt;lib/mutations.ts</title>
<path fill="none" stroke="#757575" d="M163.31,-142.59C163.32,-142.58 163.34,-142.57 163.35,-142.56"/>
<polygon fill="#757575" stroke="#757575" points="157.53,-151.39 163.38,-142.54 153.29,-145.82 157.53,-151.39"/>
</g>
<!-- lib/createSession.test.ts&#45;&gt;lib/supabaseClient.ts -->
<g id="edge24" class="edge">
<title>lib/createSession.test.ts&#45;&gt;lib/supabaseClient.ts</title>
<path fill="none" stroke="#757575" d="M107.51,-140.13C107.49,-140.13 107.47,-140.13 107.45,-140.12"/>
<polygon fill="#757575" stroke="#757575" points="117.88,-138.43 107.41,-140.12 116.64,-145.33 117.88,-138.43"/>
</g>
<!-- lib/types/index.ts -->
<g id="node40" class="node">
<title>lib/types/index.ts</title>
<path fill="none" stroke="#c6c5fe" d="M208.82,-85.61C208.82,-85.61 108.15,-85.61 108.15,-85.61 104.32,-85.61 100.49,-81.78 100.49,-77.95 100.49,-77.95 100.49,-70.28 100.49,-70.28 100.49,-66.45 104.32,-62.61 108.15,-62.61 108.15,-62.61 208.82,-62.61 208.82,-62.61 212.65,-62.61 216.49,-66.45 216.49,-70.28 216.49,-70.28 216.49,-77.95 216.49,-77.95 216.49,-81.78 212.65,-85.61 208.82,-85.61"/>
<text text-anchor="middle" x="158.49" y="-70.41" font-family="Arial" font-size="14.00" fill="#c6c5fe">lib/types/index.ts</text>
</g>
<!-- lib/types.ts&#45;&gt;lib/types/index.ts -->
<g id="edge41" class="edge">
<title>lib/types.ts&#45;&gt;lib/types/index.ts</title>
<path fill="none" stroke="#757575" d="M116.85,-96.6C120.36,-94.7 124.06,-92.7 127.74,-90.71"/>
<polygon fill="#757575" stroke="#757575" points="129.63,-93.67 136.77,-85.84 126.3,-87.51 129.63,-93.67"/>
</g>
<!-- lib/mutations.test.ts -->
<g id="node34" class="node">
<title>lib/mutations.test.ts</title>
<path fill="none" stroke="#c6c5fe" d="M182.22,-162.02C182.22,-162.02 64.55,-162.02 64.55,-162.02 60.72,-162.02 56.88,-158.18 56.88,-154.35 56.88,-154.35 56.88,-146.68 56.88,-146.68 56.88,-142.85 60.72,-139.02 64.55,-139.02 64.55,-139.02 182.22,-139.02 182.22,-139.02 186.05,-139.02 189.88,-142.85 189.88,-146.68 189.88,-146.68 189.88,-154.35 189.88,-154.35 189.88,-158.18 186.05,-162.02 182.22,-162.02"/>
<text text-anchor="middle" x="123.38" y="-146.82" font-family="Arial" font-size="14.00" fill="#c6c5fe">lib/mutations.test.ts</text>
</g>
<!-- lib/mutations.test.ts&#45;&gt;lib/mutations.ts -->
<g id="edge29" class="edge">
<title>lib/mutations.test.ts&#45;&gt;lib/mutations.ts</title>
<path fill="none" stroke="#757575" d="M163.28,-142.55C163.3,-142.54 163.32,-142.54 163.33,-142.54"/>
<polygon fill="#757575" stroke="#757575" points="154.26,-147.94 163.37,-142.53 152.87,-141.08 154.26,-147.94"/>
</g>
<!-- lib/mutations.test.ts&#45;&gt;lib/supabaseClient.ts -->
<g id="edge30" class="edge">
<title>lib/mutations.test.ts&#45;&gt;lib/supabaseClient.ts</title>
<path fill="none" stroke="#757575" d="M107.42,-140.14C107.42,-140.13 107.41,-140.13 107.4,-140.13"/>
<polygon fill="#757575" stroke="#757575" points="117.7,-142.66 107.39,-140.12 113.86,-148.53 117.7,-142.66"/>
</g>
<!-- lib/mutations.test.ts&#45;&gt;lib/types.ts -->
<g id="edge31" class="edge">
<title>lib/mutations.test.ts&#45;&gt;lib/types.ts</title>
<path fill="none" stroke="#757575" d="M115.77,-138.93C113.56,-135.56 111.08,-131.79 108.64,-128.06"/>
<polygon fill="#757575" stroke="#757575" points="111.55,-126.12 103.13,-119.68 105.7,-129.96 111.55,-126.12"/>
</g>
<!-- lib/mutations.validation.ts -->
<g id="node35" class="node">
<title>lib/mutations.validation.ts</title>
<path fill="none" stroke="#cfffac" d="M329.49,-23C329.49,-23 176.82,-23 176.82,-23 172.99,-23 169.15,-19.17 169.15,-15.33 169.15,-15.33 169.15,-7.67 169.15,-7.67 169.15,-3.83 172.99,0 176.82,0 176.82,0 329.49,0 329.49,0 333.32,0 337.15,-3.83 337.15,-7.67 337.15,-7.67 337.15,-15.33 337.15,-15.33 337.15,-19.17 333.32,-23 329.49,-23"/>
<text text-anchor="middle" x="253.15" y="-7.8" font-family="Arial" font-size="14.00" fill="#cfffac">lib/mutations.validation.ts</text>
</g>
<!-- lib/presence.ts&#45;&gt;lib/mutations.ts -->
<g id="edge34" class="edge">
<title>lib/presence.ts&#45;&gt;lib/mutations.ts</title>
<path fill="none" stroke="#757575" d="M151.66,-140.61C151.71,-140.62 151.76,-140.63 151.82,-140.64"/>
<polygon fill="#757575" stroke="#757575" points="141.55,-142.51 151.98,-140.67 142.67,-135.6 141.55,-142.51"/>
</g>
<!-- lib/presence.ts&#45;&gt;lib/supabaseClient.ts -->
<g id="edge35" class="edge">
<title>lib/presence.ts&#45;&gt;lib/supabaseClient.ts</title>
<path fill="none" stroke="#757575" d="M107.29,-140.02C107.3,-140.03 107.31,-140.05 107.33,-140.06"/>
<polygon fill="#757575" stroke="#757575" points="97.8,-135.49 107.35,-140.09 102.75,-130.53 97.8,-135.49"/>
</g>
<!-- lib/realtimeHooks.ts&#45;&gt;lib/supabaseClient.ts -->
<g id="edge36" class="edge">
<title>lib/realtimeHooks.ts&#45;&gt;lib/supabaseClient.ts</title>
<path fill="none" stroke="#757575" d="M101.33,-111.89C101.79,-114.02 102.28,-116.31 102.77,-118.62"/>
<polygon fill="#757575" stroke="#757575" points="99.38,-119.5 104.9,-128.54 106.23,-118.03 99.38,-119.5"/>
</g>
<!-- lib/realtimeHooks.ts&#45;&gt;lib/types.ts -->
<g id="edge37" class="edge">
<title>lib/realtimeHooks.ts&#45;&gt;lib/types.ts</title>
<path fill="none" stroke="#757575" d="M95.57,-108.01C95.56,-108.03 95.56,-108.04 95.55,-108.05"/>
<polygon fill="#757575" stroke="#757575" points="96.11,-97.49 95.54,-108.08 102.59,-100.16 96.11,-97.49"/>
</g>
<!-- lib/sessionCode.test.ts -->
<g id="node38" class="node">
<title>lib/sessionCode.test.ts</title>
<path fill="none" stroke="#c6c5fe" d="M215.72,-163.53C215.72,-163.53 79.06,-163.53 79.06,-163.53 75.22,-163.53 71.39,-159.69 71.39,-155.86 71.39,-155.86 71.39,-148.19 71.39,-148.19 71.39,-144.36 75.22,-140.53 79.06,-140.53 79.06,-140.53 215.72,-140.53 215.72,-140.53 219.56,-140.53 223.39,-144.36 223.39,-148.19 223.39,-148.19 223.39,-155.86 223.39,-155.86 223.39,-159.69 219.56,-163.53 215.72,-163.53"/>
<text text-anchor="middle" x="147.39" y="-148.33" font-family="Arial" font-size="14.00" fill="#c6c5fe">lib/sessionCode.test.ts</text>
</g>
<!-- lib/sessionCode.test.ts&#45;&gt;lib/mutations.ts -->
<g id="edge38" class="edge">
<title>lib/sessionCode.test.ts&#45;&gt;lib/mutations.ts</title>
<path fill="none" stroke="#757575" d="M163.35,-142.55C163.36,-142.55 163.37,-142.54 163.37,-142.54"/>
<polygon fill="#757575" stroke="#757575" points="156.58,-150.68 163.39,-142.53 152.98,-144.65 156.58,-150.68"/>
</g>
<!-- lib/sessionCode.test.ts&#45;&gt;lib/supabaseClient.ts -->
<g id="edge39" class="edge">
<title>lib/sessionCode.test.ts&#45;&gt;lib/supabaseClient.ts</title>
<path fill="none" stroke="#757575" d="M108.71,-140.51C108.5,-140.44 108.31,-140.39 108.14,-140.34"/>
<polygon fill="#757575" stroke="#757575" points="118.31,-139.71 107.72,-140.21 116.31,-146.42 118.31,-139.71"/>
</g>
<!-- lib/sessionHooks.ts&#45;&gt;lib/supabaseClient.ts -->
<g id="edge40" class="edge">
<title>lib/sessionHooks.ts&#45;&gt;lib/supabaseClient.ts</title>
<path fill="none" stroke="#757575" d="M123.06,-86.55C120.45,-95.45 116.79,-107.97 113.66,-118.66"/>
<polygon fill="#757575" stroke="#757575" points="110.21,-117.97 110.76,-128.55 116.93,-119.94 110.21,-117.97"/>
</g>
<!-- lib/types/index.ts&#45;&gt;lib/types/supabase.ts -->
<g id="edge42" class="edge">
<title>lib/types/index.ts&#45;&gt;lib/types/supabase.ts</title>
<path fill="none" stroke="#757575" d="M166.4,-78.45C166.41,-78.46 166.43,-78.47 166.44,-78.48"/>
<polygon fill="#757575" stroke="#757575" points="156.01,-76.73 166.47,-78.49 159.38,-70.59 156.01,-76.73"/>
</g>
<!-- main.tsx -->
<g id="node41" class="node">
<title>main.tsx</title>
<path fill="none" stroke="#c6c5fe" d="M133.76,-94.74C133.76,-94.74 81.09,-94.74 81.09,-94.74 77.26,-94.74 73.43,-90.91 73.43,-87.08 73.43,-87.08 73.43,-79.41 73.43,-79.41 73.43,-75.58 77.26,-71.74 81.09,-71.74 81.09,-71.74 133.76,-71.74 133.76,-71.74 137.59,-71.74 141.43,-75.58 141.43,-79.41 141.43,-79.41 141.43,-87.08 141.43,-87.08 141.43,-90.91 137.59,-94.74 133.76,-94.74"/>
<text text-anchor="middle" x="107.43" y="-79.54" font-family="Arial" font-size="14.00" fill="#c6c5fe">main.tsx</text>
</g>
<!-- main.tsx&#45;&gt;App.tsx -->
<g id="edge43" class="edge">
<title>main.tsx&#45;&gt;App.tsx</title>
<path fill="none" stroke="#757575" d="M115.34,-91.16C115.35,-91.17 115.36,-91.19 115.38,-91.2"/>
<polygon fill="#757575" stroke="#757575" points="105.85,-86.62 115.4,-91.23 110.81,-81.67 105.85,-86.62"/>
</g>
<!-- main.tsx&#45;&gt;index.css -->
<g id="edge44" class="edge">
<title>main.tsx&#45;&gt;index.css</title>
<path fill="none" stroke="#757575" d="M99.47,-75.5C99.46,-75.49 99.44,-75.48 99.43,-75.47"/>
<polygon fill="#757575" stroke="#757575" points="109.02,-79.91 99.4,-75.44 104.14,-84.93 109.02,-79.91"/>
</g>
<!-- setupTests.ts -->
<g id="node42" class="node">
<title>setupTests.ts</title>
<path fill="none" stroke="#cfffac" d="M139.99,-23C139.99,-23 60.32,-23 60.32,-23 56.49,-23 52.65,-19.17 52.65,-15.33 52.65,-15.33 52.65,-7.67 52.65,-7.67 52.65,-3.83 56.49,0 60.32,0 60.32,0 139.99,0 139.99,0 143.82,0 147.65,-3.83 147.65,-7.67 147.65,-7.67 147.65,-15.33 147.65,-15.33 147.65,-19.17 143.82,-23 139.99,-23"/>
<text text-anchor="middle" x="100.15" y="-7.8" font-family="Arial" font-size="14.00" fill="#cfffac">setupTests.ts</text>
</g>
</g>
</svg>
