<?xml version="1.0" encoding="UTF-8" standalone="no"?>
<!DOCTYPE svg PUBLIC "-//W3C//DTD SVG 1.1//EN"
 "http://www.w3.org/Graphics/SVG/1.1/DTD/svg11.dtd">
<!-- Generated by graphviz version 2.43.0 (0)
 -->
<!-- Title: G Pages: 1 -->
<svg width="406pt" height="197pt"
 viewBox="0.00 0.00 406.42 196.85" xmlns="http://www.w3.org/2000/svg" xmlns:xlink="http://www.w3.org/1999/xlink">
<g id="graph0" class="graph" transform="scale(1 1) rotate(0) translate(21.6 175.25)">
<title>G</title>
<polygon fill="#111111" stroke="transparent" points="-21.6,21.6 -21.6,-175.25 384.82,-175.25 384.82,21.6 -21.6,21.6"/>
<!-- App.tsx -->
<g id="node1" class="node">
<title>App.tsx</title>
<path fill="none" stroke="#c6c5fe" d="M141.59,-79.81C141.59,-79.81 94.92,-79.81 94.92,-79.81 91.09,-79.81 87.26,-75.97 87.26,-72.14 87.26,-72.14 87.26,-64.47 87.26,-64.47 87.26,-60.64 91.09,-56.81 94.92,-56.81 94.92,-56.81 141.59,-56.81 141.59,-56.81 145.42,-56.81 149.26,-60.64 149.26,-64.47 149.26,-64.47 149.26,-72.14 149.26,-72.14 149.26,-75.97 145.42,-79.81 141.59,-79.81"/>
<text text-anchor="middle" x="118.26" y="-64.61" font-family="Arial" font-size="14.00" fill="#c6c5fe">App.tsx</text>
</g>
<!-- pages/GameSetup.tsx -->
<g id="node2" class="node">
<title>pages/GameSetup.tsx</title>
<path fill="none" stroke="#c6c5fe" d="M225.32,-69.54C225.32,-69.54 88.65,-69.54 88.65,-69.54 84.82,-69.54 80.98,-65.71 80.98,-61.87 80.98,-61.87 80.98,-54.21 80.98,-54.21 80.98,-50.37 84.82,-46.54 88.65,-46.54 88.65,-46.54 225.32,-46.54 225.32,-46.54 229.15,-46.54 232.98,-50.37 232.98,-54.21 232.98,-54.21 232.98,-61.87 232.98,-61.87 232.98,-65.71 229.15,-69.54 225.32,-69.54"/>
<text text-anchor="middle" x="156.98" y="-54.34" font-family="Arial" font-size="14.00" fill="#c6c5fe">pages/GameSetup.tsx</text>
</g>
<!-- App.tsx&#45;&gt;pages/GameSetup.tsx -->
<g id="edge1" class="edge">
<title>App.tsx&#45;&gt;pages/GameSetup.tsx</title>
<path fill="none" stroke="#757575" d="M149.52,-60.02C149.58,-60 149.65,-59.98 149.72,-59.97"/>
<polygon fill="#757575" stroke="#757575" points="141.16,-65.86 149.93,-59.91 139.36,-59.09 141.16,-65.86"/>
</g>
<!-- pages/Homepage.tsx -->
<g id="node3" class="node">
<title>pages/Homepage.tsx</title>
<path fill="none" stroke="#c6c5fe" d="M191.1,-83.05C191.1,-83.05 61.43,-83.05 61.43,-83.05 57.6,-83.05 53.76,-79.22 53.76,-75.38 53.76,-75.38 53.76,-67.72 53.76,-67.72 53.76,-63.88 57.6,-60.05 61.43,-60.05 61.43,-60.05 191.1,-60.05 191.1,-60.05 194.93,-60.05 198.76,-63.88 198.76,-67.72 198.76,-67.72 198.76,-75.38 198.76,-75.38 198.76,-79.22 194.93,-83.05 191.1,-83.05"/>
<text text-anchor="middle" x="126.26" y="-67.85" font-family="Arial" font-size="14.00" fill="#c6c5fe">pages/Homepage.tsx</text>
</g>
<!-- App.tsx&#45;&gt;pages/Homepage.tsx -->
<g id="edge2" class="edge">
<title>App.tsx&#45;&gt;pages/Homepage.tsx</title>
<path fill="none" stroke="#757575" d="M126.17,-71.51C126.19,-71.52 126.2,-71.53 126.21,-71.53"/>
<polygon fill="#757575" stroke="#757575" points="115.65,-71.01 126.24,-71.54 118.29,-64.52 115.65,-71.01"/>
</g>
<!-- pages/Join.tsx -->
<g id="node4" class="node">
<title>pages/Join.tsx</title>
<path fill="none" stroke="#c6c5fe" d="M194.11,-77.54C194.11,-77.54 106.44,-77.54 106.44,-77.54 102.61,-77.54 98.78,-73.71 98.78,-69.88 98.78,-69.88 98.78,-62.21 98.78,-62.21 98.78,-58.38 102.61,-54.54 106.44,-54.54 106.44,-54.54 194.11,-54.54 194.11,-54.54 197.94,-54.54 201.78,-58.38 201.78,-62.21 201.78,-62.21 201.78,-69.88 201.78,-69.88 201.78,-73.71 197.94,-77.54 194.11,-77.54"/>
<text text-anchor="middle" x="150.28" y="-62.34" font-family="Arial" font-size="14.00" fill="#c6c5fe">pages/Join.tsx</text>
</g>
<!-- App.tsx&#45;&gt;pages/Join.tsx -->
<g id="edge3" class="edge">
<title>App.tsx&#45;&gt;pages/Join.tsx</title>
<path fill="none" stroke="#757575" d="M149.49,-66.1C149.61,-66.09 149.73,-66.08 149.82,-66.08"/>
<polygon fill="#757575" stroke="#757575" points="140.35,-70.26 150.07,-66.06 139.85,-63.27 140.35,-70.26"/>
</g>
<!-- pages/Lobby.tsx -->
<g id="node5" class="node">
<title>pages/Lobby.tsx</title>
<path fill="none" stroke="#c6c5fe" d="M151.14,-57.31C151.14,-57.31 52.47,-57.31 52.47,-57.31 48.64,-57.31 44.81,-53.48 44.81,-49.65 44.81,-49.65 44.81,-41.98 44.81,-41.98 44.81,-38.15 48.64,-34.31 52.47,-34.31 52.47,-34.31 151.14,-34.31 151.14,-34.31 154.97,-34.31 158.81,-38.15 158.81,-41.98 158.81,-41.98 158.81,-49.65 158.81,-49.65 158.81,-53.48 154.97,-57.31 151.14,-57.31"/>
<text text-anchor="middle" x="101.81" y="-42.11" font-family="Arial" font-size="14.00" fill="#c6c5fe">pages/Lobby.tsx</text>
</g>
<!-- App.tsx&#45;&gt;pages/Lobby.tsx -->
<g id="edge4" class="edge">
<title>App.tsx&#45;&gt;pages/Lobby.tsx</title>
<path fill="none" stroke="#757575" d="M109.84,-56.8C109.81,-56.75 109.78,-56.71 109.74,-56.67"/>
<polygon fill="#757575" stroke="#757575" points="118.38,-62.54 109.65,-56.54 112.73,-66.68 118.38,-62.54"/>
</g>
<!-- pages/Quiz.tsx -->
<g id="node6" class="node">
<title>pages/Quiz.tsx</title>
<path fill="none" stroke="#c6c5fe" d="M187.77,-24.65C187.77,-24.65 96.1,-24.65 96.1,-24.65 92.27,-24.65 88.43,-20.81 88.43,-16.98 88.43,-16.98 88.43,-9.31 88.43,-9.31 88.43,-5.48 92.27,-1.65 96.1,-1.65 96.1,-1.65 187.77,-1.65 187.77,-1.65 191.6,-1.65 195.43,-5.48 195.43,-9.31 195.43,-9.31 195.43,-16.98 195.43,-16.98 195.43,-20.81 191.6,-24.65 187.77,-24.65"/>
<text text-anchor="middle" x="141.93" y="-9.45" font-family="Arial" font-size="14.00" fill="#c6c5fe">pages/Quiz.tsx</text>
</g>
<!-- App.tsx&#45;&gt;pages/Quiz.tsx -->
<g id="edge5" class="edge">
<title>App.tsx&#45;&gt;pages/Quiz.tsx</title>
<path fill="none" stroke="#757575" d="M123.28,-56.61C126.07,-50.1 129.63,-41.8 132.9,-34.2"/>
<polygon fill="#757575" stroke="#757575" points="136.19,-35.4 136.92,-24.83 129.76,-32.64 136.19,-35.4"/>
</g>
<!-- pages/Results.tsx -->
<g id="node7" class="node">
<title>pages/Results.tsx</title>
<path fill="none" stroke="#c6c5fe" d="M164.09,-73.32C164.09,-73.32 56.42,-73.32 56.42,-73.32 52.59,-73.32 48.75,-69.49 48.75,-65.66 48.75,-65.66 48.75,-57.99 48.75,-57.99 48.75,-54.16 52.59,-50.32 56.42,-50.32 56.42,-50.32 164.09,-50.32 164.09,-50.32 167.92,-50.32 171.75,-54.16 171.75,-57.99 171.75,-57.99 171.75,-65.66 171.75,-65.66 171.75,-69.49 167.92,-73.32 164.09,-73.32"/>
<text text-anchor="middle" x="110.25" y="-58.12" font-family="Arial" font-size="14.00" fill="#c6c5fe">pages/Results.tsx</text>
</g>
<!-- App.tsx&#45;&gt;pages/Results.tsx -->
<g id="edge6" class="edge">
<title>App.tsx&#45;&gt;pages/Results.tsx</title>
<path fill="none" stroke="#757575" d="M110.34,-61.89C110.33,-61.88 110.31,-61.87 110.3,-61.86"/>
<polygon fill="#757575" stroke="#757575" points="120.26,-65.42 110.27,-61.84 115.85,-70.87 120.26,-65.42"/>
</g>
<!-- atoms/index.ts -->
<g id="node8" class="node">
<title>atoms/index.ts</title>
<path fill="none" stroke="#c6c5fe" d="M145.97,-49.31C145.97,-49.31 57.3,-49.31 57.3,-49.31 53.47,-49.31 49.64,-45.48 49.64,-41.65 49.64,-41.65 49.64,-33.98 49.64,-33.98 49.64,-30.15 53.47,-26.31 57.3,-26.31 57.3,-26.31 145.97,-26.31 145.97,-26.31 149.8,-26.31 153.64,-30.15 153.64,-33.98 153.64,-33.98 153.64,-41.65 153.64,-41.65 153.64,-45.48 149.8,-49.31 145.97,-49.31"/>
<text text-anchor="middle" x="101.64" y="-34.11" font-family="Arial" font-size="14.00" fill="#c6c5fe">atoms/index.ts</text>
</g>
<!-- pages/GameSetup.tsx&#45;&gt;atoms/index.ts -->
<g id="edge27" class="edge">
<title>pages/GameSetup.tsx&#45;&gt;atoms/index.ts</title>
<path fill="none" stroke="#757575" d="M125.43,-46.51C125.38,-46.49 125.33,-46.47 125.28,-46.45"/>
<polygon fill="#757575" stroke="#757575" points="135.74,-46.55 125.14,-46.4 133.33,-53.13 135.74,-46.55"/>
</g>
<!-- lib/mutations.ts -->
<g id="node11" class="node">
<title>lib/mutations.ts</title>
<path fill="none" stroke="#c6c5fe" d="M195.77,-29.53C195.77,-29.53 104.1,-29.53 104.1,-29.53 100.27,-29.53 96.43,-25.69 96.43,-21.86 96.43,-21.86 96.43,-14.19 96.43,-14.19 96.43,-10.36 100.27,-6.53 104.1,-6.53 104.1,-6.53 195.77,-6.53 195.77,-6.53 199.6,-6.53 203.43,-10.36 203.43,-14.19 203.43,-14.19 203.43,-21.86 203.43,-21.86 203.43,-25.69 199.6,-29.53 195.77,-29.53"/>
<text text-anchor="middle" x="149.93" y="-14.33" font-family="Arial" font-size="14.00" fill="#c6c5fe">lib/mutations.ts</text>
</g>
<!-- pages/GameSetup.tsx&#45;&gt;lib/mutations.ts -->
<g id="edge30" class="edge">
<title>pages/GameSetup.tsx&#45;&gt;lib/mutations.ts</title>
<path fill="none" stroke="#757575" d="M154.91,-46.25C154.53,-44.12 154.13,-41.83 153.72,-39.52"/>
<polygon fill="#757575" stroke="#757575" points="157.15,-38.83 151.97,-29.59 150.26,-40.05 157.15,-38.83"/>
</g>
<!-- components/Alert.tsx -->
<g id="node12" class="node">
<title>components/Alert.tsx</title>
<path fill="none" stroke="#cfffac" d="M206.1,-82.36C206.1,-82.36 78.44,-82.36 78.44,-82.36 74.6,-82.36 70.77,-78.53 70.77,-74.7 70.77,-74.7 70.77,-67.03 70.77,-67.03 70.77,-63.2 74.6,-59.36 78.44,-59.36 78.44,-59.36 206.1,-59.36 206.1,-59.36 209.94,-59.36 213.77,-63.2 213.77,-67.03 213.77,-67.03 213.77,-74.7 213.77,-74.7 213.77,-78.53 209.94,-82.36 206.1,-82.36"/>
<text text-anchor="middle" x="142.27" y="-67.16" font-family="Arial" font-size="14.00" fill="#cfffac">components/Alert.tsx</text>
</g>
<!-- pages/GameSetup.tsx&#45;&gt;components/Alert.tsx -->
<g id="edge28" class="edge">
<title>pages/GameSetup.tsx&#45;&gt;components/Alert.tsx</title>
<path fill="none" stroke="#757575" d="M143.63,-69.68C143.42,-69.86 143.23,-70.03 143.06,-70.17"/>
<polygon fill="#757575" stroke="#757575" points="147.87,-61.34 142.63,-70.55 152.47,-66.61 147.87,-61.34"/>
</g>
<!-- components/LobbyStatus.tsx -->
<g id="node13" class="node">
<title>components/LobbyStatus.tsx</title>
<path fill="none" stroke="#c6c5fe" d="M248.3,-61.54C248.3,-61.54 72.63,-61.54 72.63,-61.54 68.8,-61.54 64.96,-57.71 64.96,-53.87 64.96,-53.87 64.96,-46.21 64.96,-46.21 64.96,-42.37 68.8,-38.54 72.63,-38.54 72.63,-38.54 248.3,-38.54 248.3,-38.54 252.13,-38.54 255.96,-42.37 255.96,-46.21 255.96,-46.21 255.96,-53.87 255.96,-53.87 255.96,-57.71 252.13,-61.54 248.3,-61.54"/>
<text text-anchor="middle" x="160.46" y="-46.34" font-family="Arial" font-size="14.00" fill="#c6c5fe">components/LobbyStatus.tsx</text>
</g>
<!-- pages/GameSetup.tsx&#45;&gt;components/LobbyStatus.tsx -->
<g id="edge29" class="edge">
<title>pages/GameSetup.tsx&#45;&gt;components/LobbyStatus.tsx</title>
<path fill="none" stroke="#757575" d="M160.42,-50.13C160.43,-50.12 160.44,-50.1 160.44,-50.09"/>
<polygon fill="#757575" stroke="#757575" points="159.65,-60.64 160.45,-50.06 153.23,-57.83 159.65,-60.64"/>
</g>
<!-- lib/supabaseClient.ts -->
<g id="node14" class="node">
<title>lib/supabaseClient.ts</title>
<path fill="none" stroke="#cfffac" d="M222.39,-53.54C222.39,-53.54 96.73,-53.54 96.73,-53.54 92.89,-53.54 89.06,-49.7 89.06,-45.87 89.06,-45.87 89.06,-38.2 89.06,-38.2 89.06,-34.37 92.89,-30.54 96.73,-30.54 96.73,-30.54 222.39,-30.54 222.39,-30.54 226.23,-30.54 230.06,-34.37 230.06,-38.2 230.06,-38.2 230.06,-45.87 230.06,-45.87 230.06,-49.7 226.23,-53.54 222.39,-53.54"/>
<text text-anchor="middle" x="159.56" y="-38.34" font-family="Arial" font-size="14.00" fill="#cfffac">lib/supabaseClient.ts</text>
</g>
<!-- pages/GameSetup.tsx&#45;&gt;lib/supabaseClient.ts -->
<g id="edge31" class="edge">
<title>pages/GameSetup.tsx&#45;&gt;lib/supabaseClient.ts</title>
<path fill="none" stroke="#757575" d="M158.85,-46.41C158.87,-46.33 158.88,-46.26 158.89,-46.18"/>
<polygon fill="#757575" stroke="#757575" points="160.79,-56.38 158.93,-45.95 153.88,-55.27 160.79,-56.38"/>
</g>
<!-- lib/types.ts -->
<g id="node20" class="node">
<title>lib/types.ts</title>
<path fill="none" stroke="#c6c5fe" d="M158.26,-23.67C158.26,-23.67 93.59,-23.67 93.59,-23.67 89.76,-23.67 85.93,-19.84 85.93,-16 85.93,-16 85.93,-8.34 85.93,-8.34 85.93,-4.5 89.76,-0.67 93.59,-0.67 93.59,-0.67 158.26,-0.67 158.26,-0.67 162.09,-0.67 165.93,-4.5 165.93,-8.34 165.93,-8.34 165.93,-16 165.93,-16 165.93,-19.84 162.09,-23.67 158.26,-23.67"/>
<text text-anchor="middle" x="125.93" y="-8.47" font-family="Arial" font-size="14.00" fill="#c6c5fe">lib/types.ts</text>
</g>
<!-- pages/GameSetup.tsx&#45;&gt;lib/types.ts -->
<g id="edge32" class="edge">
<title>pages/GameSetup.tsx&#45;&gt;lib/types.ts</title>
<path fill="none" stroke="#757575" d="M149.15,-46.47C146.23,-42.15 142.82,-37.12 139.53,-32.27"/>
<polygon fill="#757575" stroke="#757575" points="142.37,-30.22 133.87,-23.9 136.58,-34.14 142.37,-30.22"/>
</g>
<!-- components/ActiveGames.tsx -->
<g id="node10" class="node">
<title>components/ActiveGames.tsx</title>
<path fill="none" stroke="#c6c5fe" d="M225.1,-83.9C225.1,-83.9 43.43,-83.9 43.43,-83.9 39.6,-83.9 35.77,-80.07 35.77,-76.24 35.77,-76.24 35.77,-68.57 35.77,-68.57 35.77,-64.74 39.6,-60.9 43.43,-60.9 43.43,-60.9 225.1,-60.9 225.1,-60.9 228.93,-60.9 232.77,-64.74 232.77,-68.57 232.77,-68.57 232.77,-76.24 232.77,-76.24 232.77,-80.07 228.93,-83.9 225.1,-83.9"/>
<text text-anchor="middle" x="134.27" y="-68.7" font-family="Arial" font-size="14.00" fill="#c6c5fe">components/ActiveGames.tsx</text>
</g>
<!-- pages/Homepage.tsx&#45;&gt;components/ActiveGames.tsx -->
<g id="edge33" class="edge">
<title>pages/Homepage.tsx&#45;&gt;components/ActiveGames.tsx</title>
<path fill="none" stroke="#757575" d="M134.18,-72.39C134.19,-72.39 134.21,-72.4 134.22,-72.4"/>
<polygon fill="#757575" stroke="#757575" points="123.92,-74.79 134.24,-72.4 124.68,-67.83 123.92,-74.79"/>
</g>
<!-- pages/Homepage.tsx&#45;&gt;lib/mutations.ts -->
<g id="edge36" class="edge">
<title>pages/Homepage.tsx&#45;&gt;lib/mutations.ts</title>
<path fill="none" stroke="#757575" d="M131.4,-59.94C134.13,-53.76 137.57,-45.99 140.74,-38.82"/>
<polygon fill="#757575" stroke="#757575" points="143.96,-40.18 144.81,-29.62 137.56,-37.35 143.96,-40.18"/>
</g>
<!-- pages/Homepage.tsx&#45;&gt;components/Alert.tsx -->
<g id="edge34" class="edge">
<title>pages/Homepage.tsx&#45;&gt;components/Alert.tsx</title>
<path fill="none" stroke="#757575" d="M142.22,-70.86C142.23,-70.86 142.24,-70.86 142.24,-70.86"/>
<polygon fill="#757575" stroke="#757575" points="132.44,-74.86 142.26,-70.86 132.09,-67.86 132.44,-74.86"/>
</g>
<!-- components/PasswordModal.tsx -->
<g id="node16" class="node">
<title>components/PasswordModal.tsx</title>
<path fill="none" stroke="#cfffac" d="M219.79,-97.15C219.79,-97.15 23.12,-97.15 23.12,-97.15 19.29,-97.15 15.45,-93.32 15.45,-89.48 15.45,-89.48 15.45,-81.82 15.45,-81.82 15.45,-77.98 19.29,-74.15 23.12,-74.15 23.12,-74.15 219.79,-74.15 219.79,-74.15 223.62,-74.15 227.45,-77.98 227.45,-81.82 227.45,-81.82 227.45,-89.48 227.45,-89.48 227.45,-93.32 223.62,-97.15 219.79,-97.15"/>
<text text-anchor="middle" x="121.45" y="-81.95" font-family="Arial" font-size="14.00" fill="#cfffac">components/PasswordModal.tsx</text>
</g>
<!-- pages/Homepage.tsx&#45;&gt;components/PasswordModal.tsx -->
<g id="edge35" class="edge">
<title>pages/Homepage.tsx&#45;&gt;components/PasswordModal.tsx</title>
<path fill="none" stroke="#757575" d="M122.29,-83.19C122.26,-83.28 122.23,-83.37 122.2,-83.46"/>
<polygon fill="#757575" stroke="#757575" points="122.03,-73.12 122.11,-83.72 128.66,-75.38 122.03,-73.12"/>
</g>
<!-- pages/Join.tsx&#45;&gt;lib/mutations.ts -->
<g id="edge38" class="edge">
<title>pages/Join.tsx&#45;&gt;lib/mutations.ts</title>
<path fill="none" stroke="#757575" d="M150.19,-54.42C150.16,-50.05 150.13,-44.94 150.09,-39.94"/>
<polygon fill="#757575" stroke="#757575" points="153.59,-39.52 150.02,-29.54 146.59,-39.57 153.59,-39.52"/>
</g>
<!-- pages/Join.tsx&#45;&gt;components/Alert.tsx -->
<g id="edge37" class="edge">
<title>pages/Join.tsx&#45;&gt;components/Alert.tsx</title>
<path fill="none" stroke="#757575" d="M142.36,-70.81C142.35,-70.82 142.33,-70.83 142.32,-70.83"/>
<polygon fill="#757575" stroke="#757575" points="149.05,-62.68 142.29,-70.85 152.67,-68.68 149.05,-62.68"/>
</g>
<!-- pages/Join.tsx&#45;&gt;lib/supabaseClient.ts -->
<g id="edge39" class="edge">
<title>pages/Join.tsx&#45;&gt;lib/supabaseClient.ts</title>
<path fill="none" stroke="#757575" d="M154.81,-54.32C154.85,-54.23 154.88,-54.13 154.92,-54.04"/>
<polygon fill="#757575" stroke="#757575" points="154.69,-64.34 155.03,-53.75 148.16,-61.81 154.69,-64.34"/>
</g>
<!-- pages/Lobby.tsx&#45;&gt;atoms/index.ts -->
<g id="edge40" class="edge">
<title>pages/Lobby.tsx&#45;&gt;atoms/index.ts</title>
<path fill="none" stroke="#757575" d="M101.64,-37.9C101.64,-37.89 101.64,-37.87 101.64,-37.86"/>
<polygon fill="#757575" stroke="#757575" points="105.38,-47.75 101.64,-37.84 98.38,-47.92 105.38,-47.75"/>
</g>
<!-- lib/types/supabase.ts -->
<g id="node9" class="node">
<title>lib/types/supabase.ts</title>
<path fill="none" stroke="#cfffac" d="M173.69,-33.31C173.69,-33.31 46.03,-33.31 46.03,-33.31 42.19,-33.31 38.36,-29.47 38.36,-25.64 38.36,-25.64 38.36,-17.97 38.36,-17.97 38.36,-14.14 42.19,-10.31 46.03,-10.31 46.03,-10.31 173.69,-10.31 173.69,-10.31 177.53,-10.31 181.36,-14.14 181.36,-17.97 181.36,-17.97 181.36,-25.64 181.36,-25.64 181.36,-29.47 177.53,-33.31 173.69,-33.31"/>
<text text-anchor="middle" x="109.86" y="-18.11" font-family="Arial" font-size="14.00" fill="#cfffac">lib/types/supabase.ts</text>
</g>
<!-- pages/Lobby.tsx&#45;&gt;lib/types/supabase.ts -->
<g id="edge44" class="edge">
<title>pages/Lobby.tsx&#45;&gt;lib/types/supabase.ts</title>
<path fill="none" stroke="#757575" d="M105.74,-34.09C105.77,-34 105.8,-33.9 105.83,-33.81"/>
<polygon fill="#757575" stroke="#757575" points="106.07,-44.11 105.93,-33.52 99.43,-41.89 106.07,-44.11"/>
</g>
<!-- pages/Lobby.tsx&#45;&gt;lib/mutations.ts -->
<g id="edge41" class="edge">
<title>pages/Lobby.tsx&#45;&gt;lib/mutations.ts</title>
<path fill="none" stroke="#757575" d="M121.94,-34.19C122.1,-34.1 122.26,-34 122.42,-33.91"/>
<polygon fill="#757575" stroke="#757575" points="122.82,-37.72 129.73,-29.69 119.32,-31.66 122.82,-37.72"/>
</g>
<!-- pages/Lobby.tsx&#45;&gt;lib/supabaseClient.ts -->
<g id="edge43" class="edge">
<title>pages/Lobby.tsx&#45;&gt;lib/supabaseClient.ts</title>
<path fill="none" stroke="#757575" d="M158.91,-42.08C159.02,-42.07 159.11,-42.07 159.19,-42.06"/>
<polygon fill="#757575" stroke="#757575" points="149.64,-46.2 159.39,-42.05 149.18,-39.21 149.64,-46.2"/>
</g>
<!-- lib/sessionHooks.ts -->
<g id="node25" class="node">
<title>lib/sessionHooks.ts</title>
<path fill="none" stroke="#c6c5fe" d="M162.67,-65.32C162.67,-65.32 46,-65.32 46,-65.32 42.17,-65.32 38.33,-61.49 38.33,-57.65 38.33,-57.65 38.33,-49.99 38.33,-49.99 38.33,-46.15 42.17,-42.32 46,-42.32 46,-42.32 162.67,-42.32 162.67,-42.32 166.5,-42.32 170.33,-46.15 170.33,-49.99 170.33,-49.99 170.33,-57.65 170.33,-57.65 170.33,-61.49 166.5,-65.32 162.67,-65.32"/>
<text text-anchor="middle" x="104.33" y="-50.12" font-family="Arial" font-size="14.00" fill="#c6c5fe">lib/sessionHooks.ts</text>
</g>
<!-- pages/Lobby.tsx&#45;&gt;lib/sessionHooks.ts -->
<g id="edge42" class="edge">
<title>pages/Lobby.tsx&#45;&gt;lib/sessionHooks.ts</title>
<path fill="none" stroke="#757575" d="M104.31,-53.73C104.31,-53.74 104.31,-53.76 104.32,-53.77"/>
<polygon fill="#757575" stroke="#757575" points="97.95,-45.32 104.33,-53.8 104.63,-43.2 97.95,-45.32"/>
</g>
<!-- pages/Quiz.tsx&#45;&gt;lib/mutations.ts -->
<g id="edge45" class="edge">
<title>pages/Quiz.tsx&#45;&gt;lib/mutations.ts</title>
<path fill="none" stroke="#757575" d="M149.84,-17.97C149.86,-17.98 149.87,-17.99 149.88,-17.99"/>
<polygon fill="#757575" stroke="#757575" points="139.54,-15.78 149.91,-18.01 143.19,-9.8 139.54,-15.78"/>
</g>
<!-- pages/Quiz.tsx&#45;&gt;lib/types.ts -->
<g id="edge48" class="edge">
<title>pages/Quiz.tsx&#45;&gt;lib/types.ts</title>
<path fill="none" stroke="#757575" d="M125.97,-12.17C125.96,-12.17 125.96,-12.17 125.95,-12.17"/>
<polygon fill="#757575" stroke="#757575" points="136.16,-9.35 125.94,-12.17 135.68,-16.34 136.16,-9.35"/>
</g>
<!-- lib/realtimeHooks.ts -->
<g id="node23" class="node">
<title>lib/realtimeHooks.ts</title>
<path fill="none" stroke="#c6c5fe" d="M193.77,-23C193.77,-23 74.1,-23 74.1,-23 70.27,-23 66.43,-19.17 66.43,-15.33 66.43,-15.33 66.43,-7.67 66.43,-7.67 66.43,-3.83 70.27,0 74.1,0 74.1,0 193.77,0 193.77,0 197.6,0 201.43,-3.83 201.43,-7.67 201.43,-7.67 201.43,-15.33 201.43,-15.33 201.43,-19.17 197.6,-23 193.77,-23"/>
<text text-anchor="middle" x="133.93" y="-7.8" font-family="Arial" font-size="14.00" fill="#c6c5fe">lib/realtimeHooks.ts</text>
</g>
<!-- pages/Quiz.tsx&#45;&gt;lib/realtimeHooks.ts -->
<g id="edge46" class="edge">
<title>pages/Quiz.tsx&#45;&gt;lib/realtimeHooks.ts</title>
<path fill="none" stroke="#757575" d="M134.02,-11.52C134.01,-11.52 133.99,-11.51 133.98,-11.51"/>
<polygon fill="#757575" stroke="#757575" points="144.47,-10.12 133.96,-11.5 143.03,-16.98 144.47,-10.12"/>
</g>
<!-- pages/Quiz.tsx&#45;&gt;lib/sessionHooks.ts -->
<g id="edge47" class="edge">
<title>pages/Quiz.tsx&#45;&gt;lib/sessionHooks.ts</title>
<path fill="none" stroke="#757575" d="M131.26,-24.69C128.43,-27.76 125.29,-31.15 122.18,-34.51"/>
<polygon fill="#757575" stroke="#757575" points="119.38,-32.38 115.16,-42.1 124.52,-37.14 119.38,-32.38"/>
</g>
<!-- pages/Results.tsx&#45;&gt;lib/mutations.ts -->
<g id="edge49" class="edge">
<title>pages/Results.tsx&#45;&gt;lib/mutations.ts</title>
<path fill="none" stroke="#757575" d="M120.68,-50.31C124.29,-46.32 128.45,-41.73 132.48,-37.29"/>
<polygon fill="#757575" stroke="#757575" points="135.32,-39.37 139.44,-29.61 130.13,-34.67 135.32,-39.37"/>
</g>
<!-- pages/Results.tsx&#45;&gt;lib/supabaseClient.ts -->
<g id="edge51" class="edge">
<title>pages/Results.tsx&#45;&gt;lib/supabaseClient.ts</title>
<path fill="none" stroke="#757575" d="M138.93,-50.31C138.98,-50.3 139.02,-50.28 139.06,-50.26"/>
<polygon fill="#757575" stroke="#757575" points="131.21,-57.19 139.19,-50.21 128.6,-50.69 131.21,-57.19"/>
</g>
<!-- pages/Results.tsx&#45;&gt;lib/sessionHooks.ts -->
<g id="edge50" class="edge">
<title>pages/Results.tsx&#45;&gt;lib/sessionHooks.ts</title>
<path fill="none" stroke="#757575" d="M104.4,-53.91C104.39,-53.89 104.38,-53.88 104.37,-53.87"/>
<polygon fill="#757575" stroke="#757575" points="113.12,-59.8 104.35,-53.84 107.49,-63.97 113.12,-59.8"/>
</g>
<!-- atoms/index.ts&#45;&gt;lib/types/supabase.ts -->
<g id="edge7" class="edge">
<title>atoms/index.ts&#45;&gt;lib/types/supabase.ts</title>
<path fill="none" stroke="#757575" d="M107.61,-26.18C107.65,-26.1 107.69,-26.03 107.73,-25.95"/>
<polygon fill="#757575" stroke="#757575" points="106.39,-36.22 107.85,-25.72 100.16,-33.02 106.39,-36.22"/>
</g>
<!-- components/ActiveGames.tsx&#45;&gt;lib/mutations.ts -->
<g id="edge8" class="edge">
<title>components/ActiveGames.tsx&#45;&gt;lib/mutations.ts</title>
<path fill="none" stroke="#757575" d="M137.59,-60.87C139.4,-54.6 141.69,-46.64 143.81,-39.29"/>
<polygon fill="#757575" stroke="#757575" points="147.21,-40.12 146.62,-29.54 140.48,-38.18 147.21,-40.12"/>
</g>
<!-- lib/mutations.ts&#45;&gt;lib/supabaseClient.ts -->
<g id="edge15" class="edge">
<title>lib/mutations.ts&#45;&gt;lib/supabaseClient.ts</title>
<path fill="none" stroke="#757575" d="M154.63,-29.75C154.67,-29.85 154.71,-29.94 154.75,-30.04"/>
<polygon fill="#757575" stroke="#757575" points="147.89,-22.34 154.86,-30.32 154.39,-19.74 147.89,-22.34"/>
</g>
<!-- lib/mutations.ts&#45;&gt;lib/types.ts -->
<g id="edge16" class="edge">
<title>lib/mutations.ts&#45;&gt;lib/types.ts</title>
<path fill="none" stroke="#757575" d="M126,-12.19C125.98,-12.18 125.97,-12.18 125.97,-12.18"/>
<polygon fill="#757575" stroke="#757575" points="136.5,-11.18 125.94,-12.17 134.82,-17.98 136.5,-11.18"/>
</g>
<!-- components/LobbyStatus.tsx&#45;&gt;lib/supabaseClient.ts -->
<g id="edge9" class="edge">
<title>components/LobbyStatus.tsx&#45;&gt;lib/supabaseClient.ts</title>
<path fill="none" stroke="#757575" d="M159.57,-42.13C159.57,-42.11 159.57,-42.1 159.56,-42.09"/>
<polygon fill="#757575" stroke="#757575" points="164.19,-51.59 159.56,-42.06 157.24,-52.4 164.19,-51.59"/>
</g>
<!-- components/PasswordModal.test.tsx -->
<g id="node15" class="node">
<title>components/PasswordModal.test.tsx</title>
<path fill="none" stroke="#c6c5fe" d="M230.33,-106.53C230.33,-106.53 7.67,-106.53 7.67,-106.53 3.83,-106.53 0,-102.7 0,-98.87 0,-98.87 0,-91.2 0,-91.2 0,-87.37 3.83,-83.53 7.67,-83.53 7.67,-83.53 230.33,-83.53 230.33,-83.53 234.17,-83.53 238,-87.37 238,-91.2 238,-91.2 238,-98.87 238,-98.87 238,-102.7 234.17,-106.53 230.33,-106.53"/>
<text text-anchor="middle" x="119" y="-91.33" font-family="Arial" font-size="14.00" fill="#c6c5fe">components/PasswordModal.test.tsx</text>
</g>
<!-- components/PasswordModal.test.tsx&#45;&gt;components/PasswordModal.tsx -->
<g id="edge10" class="edge">
<title>components/PasswordModal.test.tsx&#45;&gt;components/PasswordModal.tsx</title>
<path fill="none" stroke="#757575" d="M121.43,-85.75C121.43,-85.74 121.44,-85.72 121.44,-85.71"/>
<polygon fill="#757575" stroke="#757575" points="122.28,-96.24 121.45,-85.68 115.51,-94.46 122.28,-96.24"/>
</g>
<!-- index.css -->
<g id="node17" class="node">
<title>index.css</title>
<path fill="none" stroke="#cfffac" d="M135.96,-95.81C135.96,-95.81 78.3,-95.81 78.3,-95.81 74.46,-95.81 70.63,-91.98 70.63,-88.15 70.63,-88.15 70.63,-80.48 70.63,-80.48 70.63,-76.65 74.46,-72.81 78.3,-72.81 78.3,-72.81 135.96,-72.81 135.96,-72.81 139.8,-72.81 143.63,-76.65 143.63,-80.48 143.63,-80.48 143.63,-88.15 143.63,-88.15 143.63,-91.98 139.8,-95.81 135.96,-95.81"/>
<text text-anchor="middle" x="107.13" y="-80.61" font-family="Arial" font-size="14.00" fill="#cfffac">index.css</text>
</g>
<!-- lib/createSession.test.ts -->
<g id="node18" class="node">
<title>lib/createSession.test.ts</title>
<path fill="none" stroke="#c6c5fe" d="M232.24,-45.53C232.24,-45.53 88.57,-45.53 88.57,-45.53 84.74,-45.53 80.91,-41.7 80.91,-37.87 80.91,-37.87 80.91,-30.2 80.91,-30.2 80.91,-26.37 84.74,-22.53 88.57,-22.53 88.57,-22.53 232.24,-22.53 232.24,-22.53 236.07,-22.53 239.91,-26.37 239.91,-30.2 239.91,-30.2 239.91,-37.87 239.91,-37.87 239.91,-41.7 236.07,-45.53 232.24,-45.53"/>
<text text-anchor="middle" x="160.41" y="-30.33" font-family="Arial" font-size="14.00" fill="#c6c5fe">lib/createSession.test.ts</text>
</g>
<!-- lib/createSession.test.ts&#45;&gt;lib/mutations.ts -->
<g id="edge11" class="edge">
<title>lib/createSession.test.ts&#45;&gt;lib/mutations.ts</title>
<path fill="none" stroke="#757575" d="M152.8,-22.4C152.74,-22.32 152.69,-22.25 152.64,-22.17"/>
<polygon fill="#757575" stroke="#757575" points="160.9,-28.39 152.5,-21.94 155.04,-32.23 160.9,-28.39"/>
</g>
<!-- lib/createSession.test.ts&#45;&gt;lib/supabaseClient.ts -->
<g id="edge12" class="edge">
<title>lib/createSession.test.ts&#45;&gt;lib/supabaseClient.ts</title>
<path fill="none" stroke="#757575" d="M159.57,-41.95C159.57,-41.96 159.57,-41.98 159.56,-41.99"/>
<polygon fill="#757575" stroke="#757575" points="157.16,-31.69 159.56,-42.02 164.12,-32.45 157.16,-31.69"/>
</g>
<!-- lib/mutations.test.ts -->
<g id="node19" class="node">
<title>lib/mutations.test.ts</title>
<path fill="none" stroke="#c6c5fe" d="M176.74,-26.78C176.74,-26.78 59.08,-26.78 59.08,-26.78 55.24,-26.78 51.41,-22.94 51.41,-19.11 51.41,-19.11 51.41,-11.44 51.41,-11.44 51.41,-7.61 55.24,-3.78 59.08,-3.78 59.08,-3.78 176.74,-3.78 176.74,-3.78 180.58,-3.78 184.41,-7.61 184.41,-11.44 184.41,-11.44 184.41,-19.11 184.41,-19.11 184.41,-22.94 180.58,-26.78 176.74,-26.78"/>
<text text-anchor="middle" x="117.91" y="-11.58" font-family="Arial" font-size="14.00" fill="#c6c5fe">lib/mutations.test.ts</text>
</g>
<!-- lib/mutations.test.ts&#45;&gt;lib/mutations.ts -->
<g id="edge13" class="edge">
<title>lib/mutations.test.ts&#45;&gt;lib/mutations.ts</title>
<path fill="none" stroke="#757575" d="M149.84,-18.02C149.86,-18.02 149.87,-18.02 149.88,-18.02"/>
<polygon fill="#757575" stroke="#757575" points="139.64,-20.62 149.91,-18.02 140.26,-13.65 139.64,-20.62"/>
</g>
<!-- lib/mutations.test.ts&#45;&gt;lib/types.ts -->
<g id="edge14" class="edge">
<title>lib/mutations.test.ts&#45;&gt;lib/types.ts</title>
<path fill="none" stroke="#757575" d="M125.84,-12.2C125.85,-12.2 125.86,-12.19 125.88,-12.19"/>
<polygon fill="#757575" stroke="#757575" points="117.85,-19.08 125.9,-12.18 115.3,-12.55 117.85,-19.08"/>
</g>
<!-- lib/types/index.ts -->
<g id="node26" class="node">
<title>lib/types/index.ts</title>
<path fill="none" stroke="#c6c5fe" d="M154.37,-41.31C154.37,-41.31 53.7,-41.31 53.7,-41.31 49.87,-41.31 46.03,-37.48 46.03,-33.65 46.03,-33.65 46.03,-25.98 46.03,-25.98 46.03,-22.15 49.87,-18.31 53.7,-18.31 53.7,-18.31 154.37,-18.31 154.37,-18.31 158.2,-18.31 162.03,-22.15 162.03,-25.98 162.03,-25.98 162.03,-33.65 162.03,-33.65 162.03,-37.48 158.2,-41.31 154.37,-41.31"/>
<text text-anchor="middle" x="104.03" y="-26.11" font-family="Arial" font-size="14.00" fill="#c6c5fe">lib/types/index.ts</text>
</g>
<!-- lib/types.ts&#45;&gt;lib/types/index.ts -->
<g id="edge23" class="edge">
<title>lib/types.ts&#45;&gt;lib/types/index.ts</title>
<path fill="none" stroke="#757575" d="M111.45,-23.84C111.38,-23.89 111.32,-23.94 111.26,-23.99"/>
<polygon fill="#757575" stroke="#757575" points="116.66,-15.14 111.07,-24.14 121.05,-20.59 116.66,-15.14"/>
</g>
<!-- lib/mutations.validation.ts -->
<g id="node21" class="node">
<title>lib/mutations.validation.ts</title>
<path fill="none" stroke="#cfffac" d="M355.55,-153.65C355.55,-153.65 202.88,-153.65 202.88,-153.65 199.05,-153.65 195.22,-149.82 195.22,-145.99 195.22,-145.99 195.22,-138.32 195.22,-138.32 195.22,-134.49 199.05,-130.65 202.88,-130.65 202.88,-130.65 355.55,-130.65 355.55,-130.65 359.38,-130.65 363.22,-134.49 363.22,-138.32 363.22,-138.32 363.22,-145.99 363.22,-145.99 363.22,-149.82 359.38,-153.65 355.55,-153.65"/>
<text text-anchor="middle" x="279.22" y="-138.45" font-family="Arial" font-size="14.00" fill="#cfffac">lib/mutations.validation.ts</text>
</g>
<!-- lib/presence.ts -->
<g id="node22" class="node">
<title>lib/presence.ts</title>
<path fill="none" stroke="#c6c5fe" d="M211.95,-53.54C211.95,-53.54 123.29,-53.54 123.29,-53.54 119.45,-53.54 115.62,-49.7 115.62,-45.87 115.62,-45.87 115.62,-38.2 115.62,-38.2 115.62,-34.37 119.45,-30.54 123.29,-30.54 123.29,-30.54 211.95,-30.54 211.95,-30.54 215.79,-30.54 219.62,-34.37 219.62,-38.2 219.62,-38.2 219.62,-45.87 219.62,-45.87 219.62,-49.7 215.79,-53.54 211.95,-53.54"/>
<text text-anchor="middle" x="167.62" y="-38.34" font-family="Arial" font-size="14.00" fill="#c6c5fe">lib/presence.ts</text>
</g>
<!-- lib/presence.ts&#45;&gt;lib/supabaseClient.ts -->
<g id="edge17" class="edge">
<title>lib/presence.ts&#45;&gt;lib/supabaseClient.ts</title>
<path fill="none" stroke="#757575" d="M159.65,-42.04C159.63,-42.04 159.62,-42.04 159.61,-42.04"/>
<polygon fill="#757575" stroke="#757575" points="169.57,-38.5 159.58,-42.04 169.59,-45.5 169.57,-38.5"/>
</g>
<!-- lib/realtimeHooks.ts&#45;&gt;lib/supabaseClient.ts -->
<g id="edge18" class="edge">
<title>lib/realtimeHooks.ts&#45;&gt;lib/supabaseClient.ts</title>
<path fill="none" stroke="#757575" d="M143.77,-23.22C143.89,-23.36 144.01,-23.51 144.13,-23.65"/>
<polygon fill="#757575" stroke="#757575" points="140.51,-24.79 149.62,-30.2 145.88,-20.29 140.51,-24.79"/>
</g>
<!-- lib/realtimeHooks.ts&#45;&gt;lib/types.ts -->
<g id="edge19" class="edge">
<title>lib/realtimeHooks.ts&#45;&gt;lib/types.ts</title>
<path fill="none" stroke="#757575" d="M126.02,-12.16C126,-12.16 125.99,-12.16 125.98,-12.17"/>
<polygon fill="#757575" stroke="#757575" points="135.61,-7.81 125.95,-12.17 136.22,-14.79 135.61,-7.81"/>
</g>
<!-- lib/sessionCode.test.ts -->
<g id="node24" class="node">
<title>lib/sessionCode.test.ts</title>
<path fill="none" stroke="#c6c5fe" d="M225.09,-37.53C225.09,-37.53 88.43,-37.53 88.43,-37.53 84.59,-37.53 80.76,-33.7 80.76,-29.86 80.76,-29.86 80.76,-22.2 80.76,-22.2 80.76,-18.36 84.59,-14.53 88.43,-14.53 88.43,-14.53 225.09,-14.53 225.09,-14.53 228.93,-14.53 232.76,-18.36 232.76,-22.2 232.76,-22.2 232.76,-29.86 232.76,-29.86 232.76,-33.7 228.93,-37.53 225.09,-37.53"/>
<text text-anchor="middle" x="156.76" y="-22.33" font-family="Arial" font-size="14.00" fill="#c6c5fe">lib/sessionCode.test.ts</text>
</g>
<!-- lib/sessionCode.test.ts&#45;&gt;lib/mutations.ts -->
<g id="edge20" class="edge">
<title>lib/sessionCode.test.ts&#45;&gt;lib/mutations.ts</title>
<path fill="none" stroke="#757575" d="M150.01,-18.12C150,-18.1 149.99,-18.09 149.98,-18.08"/>
<polygon fill="#757575" stroke="#757575" points="159.12,-23.39 149.95,-18.05 153.79,-27.94 159.12,-23.39"/>
</g>
<!-- lib/sessionCode.test.ts&#45;&gt;lib/supabaseClient.ts -->
<g id="edge21" class="edge">
<title>lib/sessionCode.test.ts&#45;&gt;lib/supabaseClient.ts</title>
<path fill="none" stroke="#757575" d="M158.79,-37.66C158.81,-37.74 158.82,-37.82 158.83,-37.9"/>
<polygon fill="#757575" stroke="#757575" points="153.7,-28.88 158.87,-38.12 160.6,-27.67 153.7,-28.88"/>
</g>
<!-- lib/sessionHooks.ts&#45;&gt;lib/supabaseClient.ts -->
<g id="edge22" class="edge">
<title>lib/sessionHooks.ts&#45;&gt;lib/supabaseClient.ts</title>
<path fill="none" stroke="#757575" d="M158.6,-42.24C158.76,-42.21 158.89,-42.18 159.01,-42.15"/>
<polygon fill="#757575" stroke="#757575" points="150.26,-47.6 159.31,-42.09 148.8,-40.76 150.26,-47.6"/>
</g>
<!-- lib/types/index.ts&#45;&gt;lib/types/supabase.ts -->
<g id="edge24" class="edge">
<title>lib/types/index.ts&#45;&gt;lib/types/supabase.ts</title>
<path fill="none" stroke="#757575" d="M109.8,-21.9C109.81,-21.88 109.82,-21.87 109.82,-21.86"/>
<polygon fill="#757575" stroke="#757575" points="106.78,-31.98 109.84,-21.83 101.12,-27.86 106.78,-31.98"/>
</g>
<!-- main.tsx -->
<g id="node27" class="node">
<title>main.tsx</title>
<path fill="none" stroke="#c6c5fe" d="M138.1,-87.81C138.1,-87.81 85.44,-87.81 85.44,-87.81 81.6,-87.81 77.77,-83.97 77.77,-80.14 77.77,-80.14 77.77,-72.47 77.77,-72.47 77.77,-68.64 81.6,-64.81 85.44,-64.81 85.44,-64.81 138.1,-64.81 138.1,-64.81 141.94,-64.81 145.77,-68.64 145.77,-72.47 145.77,-72.47 145.77,-80.14 145.77,-80.14 145.77,-83.97 141.94,-87.81 138.1,-87.81"/>
<text text-anchor="middle" x="111.77" y="-72.61" font-family="Arial" font-size="14.00" fill="#c6c5fe">main.tsx</text>
</g>
<!-- main.tsx&#45;&gt;App.tsx -->
<g id="edge25" class="edge">
<title>main.tsx&#45;&gt;App.tsx</title>
<path fill="none" stroke="#757575" d="M118.18,-68.4C118.2,-68.38 118.21,-68.37 118.22,-68.36"/>
<polygon fill="#757575" stroke="#757575" points="114.65,-78.31 118.24,-68.33 109.21,-73.89 114.65,-78.31"/>
</g>
<!-- main.tsx&#45;&gt;index.css -->
<g id="edge26" class="edge">
<title>main.tsx&#45;&gt;index.css</title>
<path fill="none" stroke="#757575" d="M107.18,-84.22C107.17,-84.24 107.17,-84.25 107.16,-84.26"/>
<polygon fill="#757575" stroke="#757575" points="109.14,-73.87 107.14,-84.29 115.2,-77.39 109.14,-73.87"/>
</g>
<!-- setupTests.ts -->
<g id="node28" class="node">
<title>setupTests.ts</title>
<path fill="none" stroke="#cfffac" d="M166.05,-153.65C166.05,-153.65 86.38,-153.65 86.38,-153.65 82.55,-153.65 78.72,-149.82 78.72,-145.99 78.72,-145.99 78.72,-138.32 78.72,-138.32 78.72,-134.49 82.55,-130.65 86.38,-130.65 86.38,-130.65 166.05,-130.65 166.05,-130.65 169.88,-130.65 173.72,-134.49 173.72,-138.32 173.72,-138.32 173.72,-145.99 173.72,-145.99 173.72,-149.82 169.88,-153.65 166.05,-153.65"/>
<text text-anchor="middle" x="126.22" y="-138.45" font-family="Arial" font-size="14.00" fill="#cfffac">setupTests.ts</text>
</g>
</g>
</svg>
