<?xml version="1.0" encoding="UTF-8" standalone="no"?>
<!DOCTYPE svg PUBLIC "-//W3C//DTD SVG 1.1//EN"
 "http://www.w3.org/Graphics/SVG/1.1/DTD/svg11.dtd">
<!-- Generated by graphviz version 2.43.0 (0)
 -->
<!-- Title: G Pages: 1 -->
<svg width="406pt" height="196pt"
 viewBox="0.00 0.00 406.37 196.39" xmlns="http://www.w3.org/2000/svg" xmlns:xlink="http://www.w3.org/1999/xlink">
<g id="graph0" class="graph" transform="scale(1 1) rotate(0) translate(21.6 174.79)">
<title>G</title>
<polygon fill="#111111" stroke="transparent" points="-21.6,21.6 -21.6,-174.79 384.77,-174.79 384.77,21.6 -21.6,21.6"/>
<!-- App.tsx -->
<g id="node1" class="node">
<title>App.tsx</title>
<path fill="none" stroke="#c6c5fe" d="M144.53,-60.35C144.53,-60.35 97.86,-60.35 97.86,-60.35 94.03,-60.35 90.2,-56.52 90.2,-52.69 90.2,-52.69 90.2,-45.02 90.2,-45.02 90.2,-41.19 94.03,-37.35 97.86,-37.35 97.86,-37.35 144.53,-37.35 144.53,-37.35 148.36,-37.35 152.2,-41.19 152.2,-45.02 152.2,-45.02 152.2,-52.69 152.2,-52.69 152.2,-56.52 148.36,-60.35 144.53,-60.35"/>
<text text-anchor="middle" x="121.2" y="-45.15" font-family="Arial" font-size="14.00" fill="#c6c5fe">App.tsx</text>
</g>
<!-- pages/GameSetup.tsx -->
<g id="node2" class="node">
<title>pages/GameSetup.tsx</title>
<path fill="none" stroke="#c6c5fe" d="M169.15,-55.69C169.15,-55.69 32.49,-55.69 32.49,-55.69 28.65,-55.69 24.82,-51.86 24.82,-48.03 24.82,-48.03 24.82,-40.36 24.82,-40.36 24.82,-36.53 28.65,-32.69 32.49,-32.69 32.49,-32.69 169.15,-32.69 169.15,-32.69 172.99,-32.69 176.82,-36.53 176.82,-40.36 176.82,-40.36 176.82,-48.03 176.82,-48.03 176.82,-51.86 172.99,-55.69 169.15,-55.69"/>
<text text-anchor="middle" x="100.82" y="-40.49" font-family="Arial" font-size="14.00" fill="#c6c5fe">pages/GameSetup.tsx</text>
</g>
<!-- App.tsx&#45;&gt;pages/GameSetup.tsx -->
<g id="edge1" class="edge">
<title>App.tsx&#45;&gt;pages/GameSetup.tsx</title>
<path fill="none" stroke="#757575" d="M100.88,-44.21C100.87,-44.2 100.86,-44.2 100.85,-44.2"/>
<polygon fill="#757575" stroke="#757575" points="111.38,-43.05 100.83,-44.2 109.79,-49.88 111.38,-43.05"/>
</g>
<!-- pages/Homepage.tsx -->
<g id="node3" class="node">
<title>pages/Homepage.tsx</title>
<path fill="none" stroke="#c6c5fe" d="M176.37,-55.7C176.37,-55.7 46.7,-55.7 46.7,-55.7 42.87,-55.7 39.04,-51.87 39.04,-48.03 39.04,-48.03 39.04,-40.37 39.04,-40.37 39.04,-36.53 42.87,-32.7 46.7,-32.7 46.7,-32.7 176.37,-32.7 176.37,-32.7 180.2,-32.7 184.04,-36.53 184.04,-40.37 184.04,-40.37 184.04,-48.03 184.04,-48.03 184.04,-51.87 180.2,-55.7 176.37,-55.7"/>
<text text-anchor="middle" x="111.54" y="-40.5" font-family="Arial" font-size="14.00" fill="#c6c5fe">pages/Homepage.tsx</text>
</g>
<!-- App.tsx&#45;&gt;pages/Homepage.tsx -->
<g id="edge2" class="edge">
<title>App.tsx&#45;&gt;pages/Homepage.tsx</title>
<path fill="none" stroke="#757575" d="M111.64,-44.25C111.63,-44.24 111.61,-44.23 111.6,-44.23"/>
<polygon fill="#757575" stroke="#757575" points="122.1,-45.41 111.56,-44.21 119.05,-51.72 122.1,-45.41"/>
</g>
<!-- pages/Join.tsx -->
<g id="node4" class="node">
<title>pages/Join.tsx</title>
<path fill="none" stroke="#c6c5fe" d="M134.99,-60.34C134.99,-60.34 47.33,-60.34 47.33,-60.34 43.49,-60.34 39.66,-56.51 39.66,-52.68 39.66,-52.68 39.66,-45.01 39.66,-45.01 39.66,-41.18 43.49,-37.34 47.33,-37.34 47.33,-37.34 134.99,-37.34 134.99,-37.34 138.83,-37.34 142.66,-41.18 142.66,-45.01 142.66,-45.01 142.66,-52.68 142.66,-52.68 142.66,-56.51 138.83,-60.34 134.99,-60.34"/>
<text text-anchor="middle" x="91.16" y="-45.14" font-family="Arial" font-size="14.00" fill="#c6c5fe">pages/Join.tsx</text>
</g>
<!-- App.tsx&#45;&gt;pages/Join.tsx -->
<g id="edge3" class="edge">
<title>App.tsx&#45;&gt;pages/Join.tsx</title>
<path fill="none" stroke="#757575" d="M91.24,-48.84C91.23,-48.84 91.22,-48.84 91.21,-48.84"/>
<polygon fill="#757575" stroke="#757575" points="101.19,-45.38 91.18,-48.84 101.17,-52.38 101.19,-45.38"/>
</g>
<!-- pages/Lobby.tsx -->
<g id="node5" class="node">
<title>pages/Lobby.tsx</title>
<path fill="none" stroke="#c6c5fe" d="M131.34,-79.14C131.34,-79.14 32.67,-79.14 32.67,-79.14 28.84,-79.14 25,-75.3 25,-71.47 25,-71.47 25,-63.8 25,-63.8 25,-59.97 28.84,-56.14 32.67,-56.14 32.67,-56.14 131.34,-56.14 131.34,-56.14 135.17,-56.14 139,-59.97 139,-63.8 139,-63.8 139,-71.47 139,-71.47 139,-75.3 135.17,-79.14 131.34,-79.14"/>
<text text-anchor="middle" x="82" y="-63.94" font-family="Arial" font-size="14.00" fill="#c6c5fe">pages/Lobby.tsx</text>
</g>
<!-- App.tsx&#45;&gt;pages/Lobby.tsx -->
<g id="edge4" class="edge">
<title>App.tsx&#45;&gt;pages/Lobby.tsx</title>
<path fill="none" stroke="#757575" d="M97.04,-60.43C96.98,-60.46 96.92,-60.49 96.86,-60.52"/>
<polygon fill="#757575" stroke="#757575" points="104.17,-53.13 96.67,-60.61 107.2,-59.44 104.17,-53.13"/>
</g>
<!-- pages/Quiz.tsx -->
<g id="node6" class="node">
<title>pages/Quiz.tsx</title>
<path fill="none" stroke="#c6c5fe" d="M167.05,-98.03C167.05,-98.03 75.38,-98.03 75.38,-98.03 71.55,-98.03 67.71,-94.19 67.71,-90.36 67.71,-90.36 67.71,-82.69 67.71,-82.69 67.71,-78.86 71.55,-75.03 75.38,-75.03 75.38,-75.03 167.05,-75.03 167.05,-75.03 170.88,-75.03 174.71,-78.86 174.71,-82.69 174.71,-82.69 174.71,-90.36 174.71,-90.36 174.71,-94.19 170.88,-98.03 167.05,-98.03"/>
<text text-anchor="middle" x="121.21" y="-82.83" font-family="Arial" font-size="14.00" fill="#c6c5fe">pages/Quiz.tsx</text>
</g>
<!-- App.tsx&#45;&gt;pages/Quiz.tsx -->
<g id="edge5" class="edge">
<title>App.tsx&#45;&gt;pages/Quiz.tsx</title>
<path fill="none" stroke="#757575" d="M121.2,-60.36C121.2,-61.79 121.2,-63.29 121.2,-64.82"/>
<polygon fill="#757575" stroke="#757575" points="117.7,-64.83 121.21,-74.83 124.7,-64.83 117.7,-64.83"/>
</g>
<!-- pages/Results.tsx -->
<g id="node7" class="node">
<title>pages/Results.tsx</title>
<path fill="none" stroke="#c6c5fe" d="M154.68,-102.72C154.68,-102.72 47.01,-102.72 47.01,-102.72 43.18,-102.72 39.35,-98.89 39.35,-95.05 39.35,-95.05 39.35,-87.39 39.35,-87.39 39.35,-83.55 43.18,-79.72 47.01,-79.72 47.01,-79.72 154.68,-79.72 154.68,-79.72 158.51,-79.72 162.35,-83.55 162.35,-87.39 162.35,-87.39 162.35,-95.05 162.35,-95.05 162.35,-98.89 158.51,-102.72 154.68,-102.72"/>
<text text-anchor="middle" x="100.85" y="-87.52" font-family="Arial" font-size="14.00" fill="#c6c5fe">pages/Results.tsx</text>
</g>
<!-- App.tsx&#45;&gt;pages/Results.tsx -->
<g id="edge6" class="edge">
<title>App.tsx&#45;&gt;pages/Results.tsx</title>
<path fill="none" stroke="#757575" d="M115.64,-60.43C114.16,-63.51 112.51,-66.94 110.87,-70.36"/>
<polygon fill="#757575" stroke="#757575" points="107.58,-69.13 106.4,-79.66 113.89,-72.16 107.58,-69.13"/>
</g>
<!-- lib/mutations.ts -->
<g id="node12" class="node">
<title>lib/mutations.ts</title>
<path fill="none" stroke="#c6c5fe" d="M130.31,-68.73C130.31,-68.73 38.65,-68.73 38.65,-68.73 34.81,-68.73 30.98,-64.89 30.98,-61.06 30.98,-61.06 30.98,-53.39 30.98,-53.39 30.98,-49.56 34.81,-45.73 38.65,-45.73 38.65,-45.73 130.31,-45.73 130.31,-45.73 134.15,-45.73 137.98,-49.56 137.98,-53.39 137.98,-53.39 137.98,-61.06 137.98,-61.06 137.98,-64.89 134.15,-68.73 130.31,-68.73"/>
<text text-anchor="middle" x="84.48" y="-53.53" font-family="Arial" font-size="14.00" fill="#c6c5fe">lib/mutations.ts</text>
</g>
<!-- pages/GameSetup.tsx&#45;&gt;lib/mutations.ts -->
<g id="edge22" class="edge">
<title>pages/GameSetup.tsx&#45;&gt;lib/mutations.ts</title>
<path fill="none" stroke="#757575" d="M85.99,-56.02C85.75,-56.21 85.54,-56.38 85.36,-56.53"/>
<polygon fill="#757575" stroke="#757575" points="90.52,-47.93 84.88,-56.9 94.88,-53.4 90.52,-47.93"/>
</g>
<!-- lib/types.ts -->
<g id="node13" class="node">
<title>lib/types.ts</title>
<path fill="none" stroke="#c6c5fe" d="M161.74,-79.19C161.74,-79.19 97.08,-79.19 97.08,-79.19 93.24,-79.19 89.41,-75.36 89.41,-71.53 89.41,-71.53 89.41,-63.86 89.41,-63.86 89.41,-60.03 93.24,-56.19 97.08,-56.19 97.08,-56.19 161.74,-56.19 161.74,-56.19 165.58,-56.19 169.41,-60.03 169.41,-63.86 169.41,-63.86 169.41,-71.53 169.41,-71.53 169.41,-75.36 165.58,-79.19 161.74,-79.19"/>
<text text-anchor="middle" x="129.41" y="-63.99" font-family="Arial" font-size="14.00" fill="#c6c5fe">lib/types.ts</text>
</g>
<!-- pages/GameSetup.tsx&#45;&gt;lib/types.ts -->
<g id="edge23" class="edge">
<title>pages/GameSetup.tsx&#45;&gt;lib/types.ts</title>
<path fill="none" stroke="#757575" d="M115.11,-55.94C115.17,-55.99 115.23,-56.04 115.28,-56.08"/>
<polygon fill="#757575" stroke="#757575" points="105.5,-52.57 115.45,-56.22 109.95,-47.16 105.5,-52.57"/>
</g>
<!-- components/PasswordModal.tsx -->
<g id="node9" class="node">
<title>components/PasswordModal.tsx</title>
<path fill="none" stroke="#cfffac" d="M214.14,-36.98C214.14,-36.98 17.47,-36.98 17.47,-36.98 13.64,-36.98 9.81,-33.15 9.81,-29.32 9.81,-29.32 9.81,-21.65 9.81,-21.65 9.81,-17.82 13.64,-13.98 17.47,-13.98 17.47,-13.98 214.14,-13.98 214.14,-13.98 217.97,-13.98 221.81,-17.82 221.81,-21.65 221.81,-21.65 221.81,-29.32 221.81,-29.32 221.81,-33.15 217.97,-36.98 214.14,-36.98"/>
<text text-anchor="middle" x="115.81" y="-21.78" font-family="Arial" font-size="14.00" fill="#cfffac">components/PasswordModal.tsx</text>
</g>
<!-- pages/Homepage.tsx&#45;&gt;components/PasswordModal.tsx -->
<g id="edge24" class="edge">
<title>pages/Homepage.tsx&#45;&gt;components/PasswordModal.tsx</title>
<path fill="none" stroke="#757575" d="M114.17,-32.67C114.18,-32.61 114.2,-32.54 114.21,-32.49"/>
<polygon fill="#757575" stroke="#757575" points="115.43,-42.84 114.25,-32.31 108.61,-41.27 115.43,-42.84"/>
</g>
<!-- pages/Homepage.tsx&#45;&gt;lib/mutations.ts -->
<g id="edge25" class="edge">
<title>pages/Homepage.tsx&#45;&gt;lib/mutations.ts</title>
<path fill="none" stroke="#757575" d="M87.37,-55.83C87.32,-55.86 87.26,-55.88 87.21,-55.91"/>
<polygon fill="#757575" stroke="#757575" points="94.54,-48.49 87.05,-55.99 97.58,-54.8 94.54,-48.49"/>
</g>
<!-- pages/Join.tsx&#45;&gt;lib/mutations.ts -->
<g id="edge26" class="edge">
<title>pages/Join.tsx&#45;&gt;lib/mutations.ts</title>
<path fill="none" stroke="#757575" d="M84.55,-57.13C84.54,-57.15 84.53,-57.16 84.52,-57.17"/>
<polygon fill="#757575" stroke="#757575" points="88,-47.19 84.5,-57.2 93.48,-51.56 88,-47.19"/>
</g>
<!-- lib/supabaseClient.ts -->
<g id="node14" class="node">
<title>lib/supabaseClient.ts</title>
<path fill="none" stroke="#cfffac" d="M155.21,-96.68C155.21,-96.68 29.55,-96.68 29.55,-96.68 25.71,-96.68 21.88,-92.85 21.88,-89.02 21.88,-89.02 21.88,-81.35 21.88,-81.35 21.88,-77.52 25.71,-73.68 29.55,-73.68 29.55,-73.68 155.21,-73.68 155.21,-73.68 159.05,-73.68 162.88,-77.52 162.88,-81.35 162.88,-81.35 162.88,-89.02 162.88,-89.02 162.88,-92.85 159.05,-96.68 155.21,-96.68"/>
<text text-anchor="middle" x="92.38" y="-81.48" font-family="Arial" font-size="14.00" fill="#cfffac">lib/supabaseClient.ts</text>
</g>
<!-- pages/Join.tsx&#45;&gt;lib/supabaseClient.ts -->
<g id="edge27" class="edge">
<title>pages/Join.tsx&#45;&gt;lib/supabaseClient.ts</title>
<path fill="none" stroke="#757575" d="M91.56,-60.74C91.59,-61.65 91.62,-62.58 91.65,-63.52"/>
<polygon fill="#757575" stroke="#757575" points="88.16,-63.75 91.99,-73.63 95.15,-63.52 88.16,-63.75"/>
</g>
<!-- pages/Lobby.tsx&#45;&gt;lib/mutations.ts -->
<g id="edge28" class="edge">
<title>pages/Lobby.tsx&#45;&gt;lib/mutations.ts</title>
<path fill="none" stroke="#757575" d="M84.45,-57.34C84.46,-57.32 84.46,-57.31 84.46,-57.29"/>
<polygon fill="#757575" stroke="#757575" points="85.54,-67.8 84.47,-57.26 78.73,-66.17 85.54,-67.8"/>
</g>
<!-- pages/Lobby.tsx&#45;&gt;lib/supabaseClient.ts -->
<g id="edge30" class="edge">
<title>pages/Lobby.tsx&#45;&gt;lib/supabaseClient.ts</title>
<path fill="none" stroke="#757575" d="M88.87,-79.24C88.9,-79.29 88.93,-79.35 88.96,-79.4"/>
<polygon fill="#757575" stroke="#757575" points="80.94,-72.72 89.05,-79.55 86.97,-69.16 80.94,-72.72"/>
</g>
<!-- lib/sessionHooks.ts -->
<g id="node19" class="node">
<title>lib/sessionHooks.ts</title>
<path fill="none" stroke="#c6c5fe" d="M169.87,-102.71C169.87,-102.71 53.21,-102.71 53.21,-102.71 49.37,-102.71 45.54,-98.87 45.54,-95.04 45.54,-95.04 45.54,-87.37 45.54,-87.37 45.54,-83.54 49.37,-79.71 53.21,-79.71 53.21,-79.71 169.87,-79.71 169.87,-79.71 173.71,-79.71 177.54,-83.54 177.54,-87.37 177.54,-87.37 177.54,-95.04 177.54,-95.04 177.54,-98.87 173.71,-102.71 169.87,-102.71"/>
<text text-anchor="middle" x="111.54" y="-87.51" font-family="Arial" font-size="14.00" fill="#c6c5fe">lib/sessionHooks.ts</text>
</g>
<!-- pages/Lobby.tsx&#45;&gt;lib/sessionHooks.ts -->
<g id="edge29" class="edge">
<title>pages/Lobby.tsx&#45;&gt;lib/sessionHooks.ts</title>
<path fill="none" stroke="#757575" d="M96.43,-79.14C96.48,-79.19 96.54,-79.24 96.6,-79.29"/>
<polygon fill="#757575" stroke="#757575" points="86.78,-75.92 96.78,-79.43 91.14,-70.45 86.78,-75.92"/>
</g>
<!-- pages/Quiz.tsx&#45;&gt;lib/mutations.ts -->
<g id="edge31" class="edge">
<title>pages/Quiz.tsx&#45;&gt;lib/mutations.ts</title>
<path fill="none" stroke="#757575" d="M106.7,-74.95C106.55,-74.83 106.39,-74.71 106.24,-74.58"/>
<polygon fill="#757575" stroke="#757575" points="109.37,-72.61 99.37,-69.11 105.01,-78.08 109.37,-72.61"/>
</g>
<!-- pages/Quiz.tsx&#45;&gt;lib/types.ts -->
<g id="edge34" class="edge">
<title>pages/Quiz.tsx&#45;&gt;lib/types.ts</title>
<path fill="none" stroke="#757575" d="M126.27,-74.92C126.29,-74.86 126.32,-74.8 126.34,-74.74"/>
<polygon fill="#757575" stroke="#757575" points="125.64,-85.13 126.42,-74.56 119.22,-82.33 125.64,-85.13"/>
</g>
<!-- lib/realtimeHooks.ts -->
<g id="node17" class="node">
<title>lib/realtimeHooks.ts</title>
<path fill="none" stroke="#c6c5fe" d="M187.72,-89.65C187.72,-89.65 68.05,-89.65 68.05,-89.65 64.22,-89.65 60.39,-85.82 60.39,-81.98 60.39,-81.98 60.39,-74.32 60.39,-74.32 60.39,-70.48 64.22,-66.65 68.05,-66.65 68.05,-66.65 187.72,-66.65 187.72,-66.65 191.55,-66.65 195.39,-70.48 195.39,-74.32 195.39,-74.32 195.39,-81.98 195.39,-81.98 195.39,-85.82 191.55,-89.65 187.72,-89.65"/>
<text text-anchor="middle" x="127.89" y="-74.45" font-family="Arial" font-size="14.00" fill="#c6c5fe">lib/realtimeHooks.ts</text>
</g>
<!-- pages/Quiz.tsx&#45;&gt;lib/realtimeHooks.ts -->
<g id="edge32" class="edge">
<title>pages/Quiz.tsx&#45;&gt;lib/realtimeHooks.ts</title>
<path fill="none" stroke="#757575" d="M127.81,-78.24C127.82,-78.23 127.83,-78.22 127.84,-78.2"/>
<polygon fill="#757575" stroke="#757575" points="124.37,-88.19 127.87,-78.17 118.89,-83.82 124.37,-88.19"/>
</g>
<!-- pages/Quiz.tsx&#45;&gt;lib/sessionHooks.ts -->
<g id="edge33" class="edge">
<title>pages/Quiz.tsx&#45;&gt;lib/sessionHooks.ts</title>
<path fill="none" stroke="#757575" d="M111.65,-91.15C111.63,-91.16 111.62,-91.17 111.6,-91.18"/>
<polygon fill="#757575" stroke="#757575" points="119.04,-83.67 111.57,-91.19 122.1,-89.97 119.04,-83.67"/>
</g>
<!-- pages/Results.tsx&#45;&gt;lib/mutations.ts -->
<g id="edge35" class="edge">
<title>pages/Results.tsx&#45;&gt;lib/mutations.ts</title>
<path fill="none" stroke="#757575" d="M95.31,-79.71C95.1,-79.29 94.89,-78.86 94.69,-78.43"/>
<polygon fill="#757575" stroke="#757575" points="97.73,-76.68 90.24,-69.19 91.42,-79.72 97.73,-76.68"/>
</g>
<!-- pages/Results.tsx&#45;&gt;lib/supabaseClient.ts -->
<g id="edge37" class="edge">
<title>pages/Results.tsx&#45;&gt;lib/supabaseClient.ts</title>
<path fill="none" stroke="#757575" d="M92.48,-85.25C92.46,-85.24 92.45,-85.23 92.43,-85.22"/>
<polygon fill="#757575" stroke="#757575" points="102.59,-88.17 92.4,-85.2 98.52,-93.87 102.59,-88.17"/>
</g>
<!-- pages/Results.tsx&#45;&gt;lib/sessionHooks.ts -->
<g id="edge36" class="edge">
<title>pages/Results.tsx&#45;&gt;lib/sessionHooks.ts</title>
<path fill="none" stroke="#757575" d="M111.42,-91.21C111.44,-91.21 111.46,-91.21 111.47,-91.21"/>
<polygon fill="#757575" stroke="#757575" points="101.52,-94.75 111.51,-91.21 101.5,-87.75 101.52,-94.75"/>
</g>
<!-- components/PasswordModal.test.tsx -->
<g id="node8" class="node">
<title>components/PasswordModal.test.tsx</title>
<path fill="none" stroke="#c6c5fe" d="M230.33,-23C230.33,-23 7.67,-23 7.67,-23 3.83,-23 0,-19.17 0,-15.33 0,-15.33 0,-7.67 0,-7.67 0,-3.83 3.83,0 7.67,0 7.67,0 230.33,0 230.33,0 234.17,0 238,-3.83 238,-7.67 238,-7.67 238,-15.33 238,-15.33 238,-19.17 234.17,-23 230.33,-23"/>
<text text-anchor="middle" x="119" y="-7.8" font-family="Arial" font-size="14.00" fill="#c6c5fe">components/PasswordModal.test.tsx</text>
</g>
<!-- components/PasswordModal.test.tsx&#45;&gt;components/PasswordModal.tsx -->
<g id="edge7" class="edge">
<title>components/PasswordModal.test.tsx&#45;&gt;components/PasswordModal.tsx</title>
<path fill="none" stroke="#757575" d="M116.36,-23.05C116.34,-23.14 116.32,-23.23 116.3,-23.31"/>
<polygon fill="#757575" stroke="#757575" points="115.06,-13.04 116.24,-23.57 121.89,-14.6 115.06,-13.04"/>
</g>
<!-- index.css -->
<g id="node10" class="node">
<title>index.css</title>
<path fill="none" stroke="#cfffac" d="M163.95,-42.9C163.95,-42.9 106.28,-42.9 106.28,-42.9 102.45,-42.9 98.61,-39.07 98.61,-35.24 98.61,-35.24 98.61,-27.57 98.61,-27.57 98.61,-23.74 102.45,-19.9 106.28,-19.9 106.28,-19.9 163.95,-19.9 163.95,-19.9 167.78,-19.9 171.61,-23.74 171.61,-27.57 171.61,-27.57 171.61,-35.24 171.61,-35.24 171.61,-39.07 167.78,-42.9 163.95,-42.9"/>
<text text-anchor="middle" x="135.11" y="-27.7" font-family="Arial" font-size="14.00" fill="#cfffac">index.css</text>
</g>
<!-- lib/mutations.test.ts -->
<g id="node11" class="node">
<title>lib/mutations.test.ts</title>
<path fill="none" stroke="#c6c5fe" d="M186.72,-68.74C186.72,-68.74 69.05,-68.74 69.05,-68.74 65.22,-68.74 61.39,-64.9 61.39,-61.07 61.39,-61.07 61.39,-53.4 61.39,-53.4 61.39,-49.57 65.22,-45.74 69.05,-45.74 69.05,-45.74 186.72,-45.74 186.72,-45.74 190.55,-45.74 194.39,-49.57 194.39,-53.4 194.39,-53.4 194.39,-61.07 194.39,-61.07 194.39,-64.9 190.55,-68.74 186.72,-68.74"/>
<text text-anchor="middle" x="127.89" y="-53.54" font-family="Arial" font-size="14.00" fill="#c6c5fe">lib/mutations.test.ts</text>
</g>
<!-- lib/mutations.test.ts&#45;&gt;lib/mutations.ts -->
<g id="edge8" class="edge">
<title>lib/mutations.test.ts&#45;&gt;lib/mutations.ts</title>
<path fill="none" stroke="#757575" d="M84.6,-57.23C84.58,-57.23 84.56,-57.23 84.55,-57.23"/>
<polygon fill="#757575" stroke="#757575" points="94.52,-53.75 84.51,-57.23 94.5,-60.75 94.52,-53.75"/>
</g>
<!-- lib/mutations.test.ts&#45;&gt;lib/types.ts -->
<g id="edge9" class="edge">
<title>lib/mutations.test.ts&#45;&gt;lib/types.ts</title>
<path fill="none" stroke="#757575" d="M129.39,-67.58C129.4,-67.6 129.4,-67.61 129.4,-67.63"/>
<polygon fill="#757575" stroke="#757575" points="124.48,-58.28 129.41,-67.66 131.4,-57.25 124.48,-58.28"/>
</g>
<!-- lib/mutations.ts&#45;&gt;lib/types.ts -->
<g id="edge11" class="edge">
<title>lib/mutations.ts&#45;&gt;lib/types.ts</title>
<path fill="none" stroke="#757575" d="M129.28,-67.66C129.3,-67.67 129.32,-67.67 129.34,-67.68"/>
<polygon fill="#757575" stroke="#757575" points="118.84,-68.81 129.38,-67.69 120.44,-61.99 118.84,-68.81"/>
</g>
<!-- lib/mutations.ts&#45;&gt;lib/supabaseClient.ts -->
<g id="edge10" class="edge">
<title>lib/mutations.ts&#45;&gt;lib/supabaseClient.ts</title>
<path fill="none" stroke="#757575" d="M87.78,-68.92C87.81,-69.02 87.84,-69.12 87.87,-69.21"/>
<polygon fill="#757575" stroke="#757575" points="83.03,-64.95 89.11,-73.63 89.76,-63.05 83.03,-64.95"/>
</g>
<!-- lib/types/index.ts -->
<g id="node20" class="node">
<title>lib/types/index.ts</title>
<path fill="none" stroke="#c6c5fe" d="M187.75,-79.19C187.75,-79.19 87.08,-79.19 87.08,-79.19 83.25,-79.19 79.41,-75.36 79.41,-71.53 79.41,-71.53 79.41,-63.86 79.41,-63.86 79.41,-60.03 83.25,-56.19 87.08,-56.19 87.08,-56.19 187.75,-56.19 187.75,-56.19 191.58,-56.19 195.41,-60.03 195.41,-63.86 195.41,-63.86 195.41,-71.53 195.41,-71.53 195.41,-75.36 191.58,-79.19 187.75,-79.19"/>
<text text-anchor="middle" x="137.41" y="-63.99" font-family="Arial" font-size="14.00" fill="#c6c5fe">lib/types/index.ts</text>
</g>
<!-- lib/types.ts&#45;&gt;lib/types/index.ts -->
<g id="edge18" class="edge">
<title>lib/types.ts&#45;&gt;lib/types/index.ts</title>
<path fill="none" stroke="#757575" d="M137.32,-67.69C137.34,-67.69 137.35,-67.69 137.36,-67.69"/>
<polygon fill="#757575" stroke="#757575" points="127.38,-71.16 137.39,-67.69 127.4,-64.16 127.38,-71.16"/>
</g>
<!-- lib/mutations.validation.ts -->
<g id="node15" class="node">
<title>lib/mutations.validation.ts</title>
<path fill="none" stroke="#cfffac" d="M355.51,-153.19C355.51,-153.19 202.84,-153.19 202.84,-153.19 199.01,-153.19 195.17,-149.36 195.17,-145.53 195.17,-145.53 195.17,-137.86 195.17,-137.86 195.17,-134.03 199.01,-130.19 202.84,-130.19 202.84,-130.19 355.51,-130.19 355.51,-130.19 359.34,-130.19 363.17,-134.03 363.17,-137.86 363.17,-137.86 363.17,-145.53 363.17,-145.53 363.17,-149.36 359.34,-153.19 355.51,-153.19"/>
<text text-anchor="middle" x="279.17" y="-137.99" font-family="Arial" font-size="14.00" fill="#cfffac">lib/mutations.validation.ts</text>
</g>
<!-- lib/presence.ts -->
<g id="node16" class="node">
<title>lib/presence.ts</title>
<path fill="none" stroke="#c6c5fe" d="M130.33,-104.68C130.33,-104.68 41.66,-104.68 41.66,-104.68 37.83,-104.68 33.99,-100.85 33.99,-97.02 33.99,-97.02 33.99,-89.35 33.99,-89.35 33.99,-85.52 37.83,-81.68 41.66,-81.68 41.66,-81.68 130.33,-81.68 130.33,-81.68 134.16,-81.68 137.99,-85.52 137.99,-89.35 137.99,-89.35 137.99,-97.02 137.99,-97.02 137.99,-100.85 134.16,-104.68 130.33,-104.68"/>
<text text-anchor="middle" x="85.99" y="-89.48" font-family="Arial" font-size="14.00" fill="#c6c5fe">lib/presence.ts</text>
</g>
<!-- lib/presence.ts&#45;&gt;lib/supabaseClient.ts -->
<g id="edge12" class="edge">
<title>lib/presence.ts&#45;&gt;lib/supabaseClient.ts</title>
<path fill="none" stroke="#757575" d="M92.31,-85.27C92.32,-85.26 92.33,-85.25 92.34,-85.24"/>
<polygon fill="#757575" stroke="#757575" points="88.85,-95.22 92.36,-85.21 83.38,-90.84 88.85,-95.22"/>
</g>
<!-- lib/realtimeHooks.ts&#45;&gt;lib/types.ts -->
<g id="edge14" class="edge">
<title>lib/realtimeHooks.ts&#45;&gt;lib/types.ts</title>
<path fill="none" stroke="#757575" d="M129.39,-67.81C129.4,-67.79 129.4,-67.77 129.4,-67.76"/>
<polygon fill="#757575" stroke="#757575" points="131.4,-78.13 129.41,-67.72 124.48,-77.11 131.4,-78.13"/>
</g>
<!-- lib/realtimeHooks.ts&#45;&gt;lib/supabaseClient.ts -->
<g id="edge13" class="edge">
<title>lib/realtimeHooks.ts&#45;&gt;lib/supabaseClient.ts</title>
<path fill="none" stroke="#757575" d="M92.48,-85.16C92.47,-85.17 92.45,-85.17 92.44,-85.17"/>
<polygon fill="#757575" stroke="#757575" points="101.53,-79.78 92.41,-85.18 102.9,-86.64 101.53,-79.78"/>
</g>
<!-- lib/sessionCode.test.ts -->
<g id="node18" class="node">
<title>lib/sessionCode.test.ts</title>
<path fill="none" stroke="#c6c5fe" d="M152.71,-89.12C152.71,-89.12 16.04,-89.12 16.04,-89.12 12.21,-89.12 8.38,-85.29 8.38,-81.45 8.38,-81.45 8.38,-73.79 8.38,-73.79 8.38,-69.95 12.21,-66.12 16.04,-66.12 16.04,-66.12 152.71,-66.12 152.71,-66.12 156.54,-66.12 160.38,-69.95 160.38,-73.79 160.38,-73.79 160.38,-81.45 160.38,-81.45 160.38,-85.29 156.54,-89.12 152.71,-89.12"/>
<text text-anchor="middle" x="84.38" y="-73.92" font-family="Arial" font-size="14.00" fill="#c6c5fe">lib/sessionCode.test.ts</text>
</g>
<!-- lib/sessionCode.test.ts&#45;&gt;lib/mutations.ts -->
<g id="edge15" class="edge">
<title>lib/sessionCode.test.ts&#45;&gt;lib/mutations.ts</title>
<path fill="none" stroke="#757575" d="M84.43,-65.99C84.43,-65.92 84.44,-65.85 84.44,-65.78"/>
<polygon fill="#757575" stroke="#757575" points="87.88,-75.58 84.44,-65.57 80.88,-75.55 87.88,-75.58"/>
</g>
<!-- lib/sessionCode.test.ts&#45;&gt;lib/supabaseClient.ts -->
<g id="edge16" class="edge">
<title>lib/sessionCode.test.ts&#45;&gt;lib/supabaseClient.ts</title>
<path fill="none" stroke="#757575" d="M92.29,-85.1C92.3,-85.11 92.32,-85.13 92.33,-85.14"/>
<polygon fill="#757575" stroke="#757575" points="82.68,-80.83 92.36,-85.16 87.49,-75.74 82.68,-80.83"/>
</g>
<!-- lib/sessionHooks.ts&#45;&gt;lib/supabaseClient.ts -->
<g id="edge17" class="edge">
<title>lib/sessionHooks.ts&#45;&gt;lib/supabaseClient.ts</title>
<path fill="none" stroke="#757575" d="M92.44,-85.2C92.43,-85.2 92.42,-85.2 92.41,-85.19"/>
<polygon fill="#757575" stroke="#757575" points="103,-84.88 92.39,-85.19 100.87,-91.56 103,-84.88"/>
</g>
<!-- lib/types/supabase.ts -->
<g id="node21" class="node">
<title>lib/types/supabase.ts</title>
<path fill="none" stroke="#cfffac" d="M210.12,-79.19C210.12,-79.19 82.45,-79.19 82.45,-79.19 78.62,-79.19 74.78,-75.36 74.78,-71.53 74.78,-71.53 74.78,-63.86 74.78,-63.86 74.78,-60.03 78.62,-56.19 82.45,-56.19 82.45,-56.19 210.12,-56.19 210.12,-56.19 213.95,-56.19 217.78,-60.03 217.78,-63.86 217.78,-63.86 217.78,-71.53 217.78,-71.53 217.78,-75.36 213.95,-79.19 210.12,-79.19"/>
<text text-anchor="middle" x="146.28" y="-63.99" font-family="Arial" font-size="14.00" fill="#cfffac">lib/types/supabase.ts</text>
</g>
<!-- lib/types/index.ts&#45;&gt;lib/types/supabase.ts -->
<g id="edge19" class="edge">
<title>lib/types/index.ts&#45;&gt;lib/types/supabase.ts</title>
<path fill="none" stroke="#757575" d="M146.18,-67.69C146.2,-67.69 146.21,-67.69 146.23,-67.69"/>
<polygon fill="#757575" stroke="#757575" points="136.25,-71.16 146.26,-67.69 136.27,-64.16 136.25,-71.16"/>
</g>
<!-- main.tsx -->
<g id="node22" class="node">
<title>main.tsx</title>
<path fill="none" stroke="#c6c5fe" d="M155.07,-50.9C155.07,-50.9 102.4,-50.9 102.4,-50.9 98.57,-50.9 94.73,-47.07 94.73,-43.24 94.73,-43.24 94.73,-35.57 94.73,-35.57 94.73,-31.74 98.57,-27.9 102.4,-27.9 102.4,-27.9 155.07,-27.9 155.07,-27.9 158.9,-27.9 162.73,-31.74 162.73,-35.57 162.73,-35.57 162.73,-43.24 162.73,-43.24 162.73,-47.07 158.9,-50.9 155.07,-50.9"/>
<text text-anchor="middle" x="128.73" y="-35.7" font-family="Arial" font-size="14.00" fill="#c6c5fe">main.tsx</text>
</g>
<!-- main.tsx&#45;&gt;App.tsx -->
<g id="edge20" class="edge">
<title>main.tsx&#45;&gt;App.tsx</title>
<path fill="none" stroke="#757575" d="M121.28,-48.75C121.27,-48.76 121.26,-48.78 121.25,-48.79"/>
<polygon fill="#757575" stroke="#757575" points="124.73,-38.82 121.22,-48.83 130.2,-43.19 124.73,-38.82"/>
</g>
<!-- main.tsx&#45;&gt;index.css -->
<g id="edge21" class="edge">
<title>main.tsx&#45;&gt;index.css</title>
<path fill="none" stroke="#757575" d="M135.04,-31.49C135.05,-31.48 135.06,-31.47 135.07,-31.45"/>
<polygon fill="#757575" stroke="#757575" points="131.59,-41.44 135.1,-31.43 126.11,-37.06 131.59,-41.44"/>
</g>
<!-- setupTests.ts -->
<g id="node23" class="node">
<title>setupTests.ts</title>
<path fill="none" stroke="#cfffac" d="M166.01,-153.19C166.01,-153.19 86.34,-153.19 86.34,-153.19 82.51,-153.19 78.67,-149.36 78.67,-145.53 78.67,-145.53 78.67,-137.86 78.67,-137.86 78.67,-134.03 82.51,-130.19 86.34,-130.19 86.34,-130.19 166.01,-130.19 166.01,-130.19 169.84,-130.19 173.67,-134.03 173.67,-137.86 173.67,-137.86 173.67,-145.53 173.67,-145.53 173.67,-149.36 169.84,-153.19 166.01,-153.19"/>
<text text-anchor="middle" x="126.17" y="-137.99" font-family="Arial" font-size="14.00" fill="#cfffac">setupTests.ts</text>
</g>
</g>
</svg>
