<?xml version="1.0" encoding="UTF-8" standalone="no"?>
<!DOCTYPE svg PUBLIC "-//W3C//DTD SVG 1.1//EN"
 "http://www.w3.org/Graphics/SVG/1.1/DTD/svg11.dtd">
<!-- Generated by graphviz version 2.43.0 (0)
 -->
<!-- Title: G Pages: 1 -->
<svg width="513pt" height="294pt"
 viewBox="0.00 0.00 512.94 294.20" xmlns="http://www.w3.org/2000/svg" xmlns:xlink="http://www.w3.org/1999/xlink">
<g id="graph0" class="graph" transform="scale(1 1) rotate(0) translate(21.6 272.6)">
<title>G</title>
<polygon fill="#111111" stroke="transparent" points="-21.6,21.6 -21.6,-272.6 491.34,-272.6 491.34,21.6 -21.6,21.6"/>
<!-- App.tsx -->
<g id="node1" class="node">
<title>App.tsx</title>
<path fill="none" stroke="#c6c5fe" d="M145.71,-135.57C145.71,-135.57 99.05,-135.57 99.05,-135.57 95.21,-135.57 91.38,-131.74 91.38,-127.9 91.38,-127.9 91.38,-120.24 91.38,-120.24 91.38,-116.4 95.21,-112.57 99.05,-112.57 99.05,-112.57 145.71,-112.57 145.71,-112.57 149.55,-112.57 153.38,-116.4 153.38,-120.24 153.38,-120.24 153.38,-127.9 153.38,-127.9 153.38,-131.74 149.55,-135.57 145.71,-135.57"/>
<text text-anchor="middle" x="122.38" y="-120.37" font-family="Arial" font-size="14.00" fill="#c6c5fe">App.tsx</text>
</g>
<!-- pages/GameSetup.tsx -->
<g id="node2" class="node">
<title>pages/GameSetup.tsx</title>
<path fill="none" stroke="#c6c5fe" d="M234.76,-93.1C234.76,-93.1 98.09,-93.1 98.09,-93.1 94.26,-93.1 90.42,-89.26 90.42,-85.43 90.42,-85.43 90.42,-77.76 90.42,-77.76 90.42,-73.93 94.26,-70.1 98.09,-70.1 98.09,-70.1 234.76,-70.1 234.76,-70.1 238.59,-70.1 242.42,-73.93 242.42,-77.76 242.42,-77.76 242.42,-85.43 242.42,-85.43 242.42,-89.26 238.59,-93.1 234.76,-93.1"/>
<text text-anchor="middle" x="166.42" y="-77.9" font-family="Arial" font-size="14.00" fill="#c6c5fe">pages/GameSetup.tsx</text>
</g>
<!-- App.tsx&#45;&gt;pages/GameSetup.tsx -->
<g id="edge1" class="edge">
<title>App.tsx&#45;&gt;pages/GameSetup.tsx</title>
<path fill="none" stroke="#757575" d="M134.42,-112.46C138.3,-108.72 142.71,-104.46 146.99,-100.34"/>
<polygon fill="#757575" stroke="#757575" points="149.63,-102.65 154.4,-93.19 144.77,-97.61 149.63,-102.65"/>
</g>
<!-- pages/Homepage.tsx -->
<g id="node3" class="node">
<title>pages/Homepage.tsx</title>
<path fill="none" stroke="#c6c5fe" d="M227,-133.11C227,-133.11 97.33,-133.11 97.33,-133.11 93.5,-133.11 89.66,-129.28 89.66,-125.45 89.66,-125.45 89.66,-117.78 89.66,-117.78 89.66,-113.95 93.5,-110.11 97.33,-110.11 97.33,-110.11 227,-110.11 227,-110.11 230.83,-110.11 234.66,-113.95 234.66,-117.78 234.66,-117.78 234.66,-125.45 234.66,-125.45 234.66,-129.28 230.83,-133.11 227,-133.11"/>
<text text-anchor="middle" x="162.16" y="-117.91" font-family="Arial" font-size="14.00" fill="#c6c5fe">pages/Homepage.tsx</text>
</g>
<!-- App.tsx&#45;&gt;pages/Homepage.tsx -->
<g id="edge2" class="edge">
<title>App.tsx&#45;&gt;pages/Homepage.tsx</title>
<path fill="none" stroke="#757575" d="M153.73,-122.13C153.8,-122.13 153.88,-122.12 153.96,-122.12"/>
<polygon fill="#757575" stroke="#757575" points="144.42,-126.22 154.19,-122.11 143.99,-119.23 144.42,-126.22"/>
</g>
<!-- pages/Join.tsx -->
<g id="node4" class="node">
<title>pages/Join.tsx</title>
<path fill="none" stroke="#c6c5fe" d="M210.74,-109.1C210.74,-109.1 123.08,-109.1 123.08,-109.1 119.24,-109.1 115.41,-105.27 115.41,-101.44 115.41,-101.44 115.41,-93.77 115.41,-93.77 115.41,-89.94 119.24,-86.1 123.08,-86.1 123.08,-86.1 210.74,-86.1 210.74,-86.1 214.58,-86.1 218.41,-89.94 218.41,-93.77 218.41,-93.77 218.41,-101.44 218.41,-101.44 218.41,-105.27 214.58,-109.1 210.74,-109.1"/>
<text text-anchor="middle" x="166.91" y="-93.9" font-family="Arial" font-size="14.00" fill="#c6c5fe">pages/Join.tsx</text>
</g>
<!-- App.tsx&#45;&gt;pages/Join.tsx -->
<g id="edge3" class="edge">
<title>App.tsx&#45;&gt;pages/Join.tsx</title>
<path fill="none" stroke="#757575" d="M141.78,-112.54C141.9,-112.47 142.02,-112.4 142.13,-112.33"/>
<polygon fill="#757575" stroke="#757575" points="140.63,-117.3 147.44,-109.18 137.05,-111.28 140.63,-117.3"/>
</g>
<!-- pages/Lobby.tsx -->
<g id="node5" class="node">
<title>pages/Lobby.tsx</title>
<path fill="none" stroke="#c6c5fe" d="M149.2,-125.69C149.2,-125.69 50.53,-125.69 50.53,-125.69 46.7,-125.69 42.87,-121.86 42.87,-118.02 42.87,-118.02 42.87,-110.36 42.87,-110.36 42.87,-106.52 46.7,-102.69 50.53,-102.69 50.53,-102.69 149.2,-102.69 149.2,-102.69 153.03,-102.69 156.87,-106.52 156.87,-110.36 156.87,-110.36 156.87,-118.02 156.87,-118.02 156.87,-121.86 153.03,-125.69 149.2,-125.69"/>
<text text-anchor="middle" x="99.87" y="-110.49" font-family="Arial" font-size="14.00" fill="#c6c5fe">pages/Lobby.tsx</text>
</g>
<!-- App.tsx&#45;&gt;pages/Lobby.tsx -->
<g id="edge4" class="edge">
<title>App.tsx&#45;&gt;pages/Lobby.tsx</title>
<path fill="none" stroke="#757575" d="M99.93,-114.22C99.92,-114.21 99.91,-114.21 99.9,-114.2"/>
<polygon fill="#757575" stroke="#757575" points="110.46,-115.04 99.88,-114.2 107.63,-121.45 110.46,-115.04"/>
</g>
<!-- pages/Quiz.tsx -->
<g id="node6" class="node">
<title>pages/Quiz.tsx</title>
<path fill="none" stroke="#c6c5fe" d="M176.22,-140.3C176.22,-140.3 84.55,-140.3 84.55,-140.3 80.72,-140.3 76.88,-136.47 76.88,-132.63 76.88,-132.63 76.88,-124.97 76.88,-124.97 76.88,-121.13 80.72,-117.3 84.55,-117.3 84.55,-117.3 176.22,-117.3 176.22,-117.3 180.05,-117.3 183.88,-121.13 183.88,-124.97 183.88,-124.97 183.88,-132.63 183.88,-132.63 183.88,-136.47 180.05,-140.3 176.22,-140.3"/>
<text text-anchor="middle" x="130.38" y="-125.1" font-family="Arial" font-size="14.00" fill="#c6c5fe">pages/Quiz.tsx</text>
</g>
<!-- App.tsx&#45;&gt;pages/Quiz.tsx -->
<g id="edge5" class="edge">
<title>App.tsx&#45;&gt;pages/Quiz.tsx</title>
<path fill="none" stroke="#757575" d="M130.29,-128.75C130.31,-128.76 130.32,-128.76 130.33,-128.77"/>
<polygon fill="#757575" stroke="#757575" points="119.96,-126.7 130.36,-128.79 123.54,-120.67 119.96,-126.7"/>
</g>
<!-- pages/Results.tsx -->
<g id="node7" class="node">
<title>pages/Results.tsx</title>
<path fill="none" stroke="#c6c5fe" d="M168.21,-135.84C168.21,-135.84 60.54,-135.84 60.54,-135.84 56.71,-135.84 52.87,-132.01 52.87,-128.17 52.87,-128.17 52.87,-120.51 52.87,-120.51 52.87,-116.67 56.71,-112.84 60.54,-112.84 60.54,-112.84 168.21,-112.84 168.21,-112.84 172.04,-112.84 175.87,-116.67 175.87,-120.51 175.87,-120.51 175.87,-128.17 175.87,-128.17 175.87,-132.01 172.04,-135.84 168.21,-135.84"/>
<text text-anchor="middle" x="114.37" y="-120.64" font-family="Arial" font-size="14.00" fill="#c6c5fe">pages/Results.tsx</text>
</g>
<!-- App.tsx&#45;&gt;pages/Results.tsx -->
<g id="edge6" class="edge">
<title>App.tsx&#45;&gt;pages/Results.tsx</title>
<path fill="none" stroke="#757575" d="M114.46,-124.34C114.45,-124.34 114.44,-124.34 114.42,-124.34"/>
<polygon fill="#757575" stroke="#757575" points="124.26,-120.47 114.4,-124.34 124.52,-127.46 124.26,-120.47"/>
</g>
<!-- atoms/index.ts -->
<g id="node8" class="node">
<title>atoms/index.ts</title>
<path fill="none" stroke="#c6c5fe" d="M140.68,-117.69C140.68,-117.69 52.01,-117.69 52.01,-117.69 48.18,-117.69 44.35,-113.85 44.35,-110.02 44.35,-110.02 44.35,-102.35 44.35,-102.35 44.35,-98.52 48.18,-94.69 52.01,-94.69 52.01,-94.69 140.68,-94.69 140.68,-94.69 144.51,-94.69 148.35,-98.52 148.35,-102.35 148.35,-102.35 148.35,-110.02 148.35,-110.02 148.35,-113.85 144.51,-117.69 140.68,-117.69"/>
<text text-anchor="middle" x="96.35" y="-102.49" font-family="Arial" font-size="14.00" fill="#c6c5fe">atoms/index.ts</text>
</g>
<!-- pages/GameSetup.tsx&#45;&gt;atoms/index.ts -->
<g id="edge38" class="edge">
<title>pages/GameSetup.tsx&#45;&gt;atoms/index.ts</title>
<path fill="none" stroke="#757575" d="M133.44,-93.17C133.35,-93.2 133.26,-93.23 133.17,-93.27"/>
<polygon fill="#757575" stroke="#757575" points="137.45,-88.05 129.17,-94.67 139.77,-94.66 137.45,-88.05"/>
</g>
<!-- lib/mutations.ts -->
<g id="node11" class="node">
<title>lib/mutations.ts</title>
<path fill="none" stroke="#c6c5fe" d="M213.87,-117.11C213.87,-117.11 122.21,-117.11 122.21,-117.11 118.37,-117.11 114.54,-113.27 114.54,-109.44 114.54,-109.44 114.54,-101.77 114.54,-101.77 114.54,-97.94 118.37,-94.11 122.21,-94.11 122.21,-94.11 213.87,-94.11 213.87,-94.11 217.71,-94.11 221.54,-97.94 221.54,-101.77 221.54,-101.77 221.54,-109.44 221.54,-109.44 221.54,-113.27 217.71,-117.11 213.87,-117.11"/>
<text text-anchor="middle" x="168.04" y="-101.91" font-family="Arial" font-size="14.00" fill="#c6c5fe">lib/mutations.ts</text>
</g>
<!-- pages/GameSetup.tsx&#45;&gt;lib/mutations.ts -->
<g id="edge41" class="edge">
<title>pages/GameSetup.tsx&#45;&gt;lib/mutations.ts</title>
<path fill="none" stroke="#757575" d="M167.21,-93.32C167.22,-93.42 167.23,-93.51 167.23,-93.61"/>
<polygon fill="#757575" stroke="#757575" points="163.08,-84.15 167.25,-93.89 170.07,-83.68 163.08,-84.15"/>
</g>
<!-- components/Alert.tsx -->
<g id="node12" class="node">
<title>components/Alert.tsx</title>
<path fill="none" stroke="#cfffac" d="M231.48,-101.1C231.48,-101.1 103.81,-101.1 103.81,-101.1 99.98,-101.1 96.15,-97.27 96.15,-93.44 96.15,-93.44 96.15,-85.77 96.15,-85.77 96.15,-81.94 99.98,-78.1 103.81,-78.1 103.81,-78.1 231.48,-78.1 231.48,-78.1 235.31,-78.1 239.15,-81.94 239.15,-85.77 239.15,-85.77 239.15,-93.44 239.15,-93.44 239.15,-97.27 235.31,-101.1 231.48,-101.1"/>
<text text-anchor="middle" x="167.65" y="-85.9" font-family="Arial" font-size="14.00" fill="#cfffac">components/Alert.tsx</text>
</g>
<!-- pages/GameSetup.tsx&#45;&gt;components/Alert.tsx -->
<g id="edge39" class="edge">
<title>pages/GameSetup.tsx&#45;&gt;components/Alert.tsx</title>
<path fill="none" stroke="#757575" d="M167.63,-89.51C167.64,-89.53 167.64,-89.54 167.64,-89.55"/>
<polygon fill="#757575" stroke="#757575" points="162.64,-80.23 167.64,-89.58 169.56,-79.15 162.64,-80.23"/>
</g>
<!-- components/LobbyStatus.tsx -->
<g id="node19" class="node">
<title>components/LobbyStatus.tsx</title>
<path fill="none" stroke="#c6c5fe" d="M233.84,-72.44C233.84,-72.44 58.17,-72.44 58.17,-72.44 54.34,-72.44 50.51,-68.61 50.51,-64.78 50.51,-64.78 50.51,-57.11 50.51,-57.11 50.51,-53.28 54.34,-49.44 58.17,-49.44 58.17,-49.44 233.84,-49.44 233.84,-49.44 237.67,-49.44 241.51,-53.28 241.51,-57.11 241.51,-57.11 241.51,-64.78 241.51,-64.78 241.51,-68.61 237.67,-72.44 233.84,-72.44"/>
<text text-anchor="middle" x="146.01" y="-57.24" font-family="Arial" font-size="14.00" fill="#c6c5fe">components/LobbyStatus.tsx</text>
</g>
<!-- pages/GameSetup.tsx&#45;&gt;components/LobbyStatus.tsx -->
<g id="edge40" class="edge">
<title>pages/GameSetup.tsx&#45;&gt;components/LobbyStatus.tsx</title>
<path fill="none" stroke="#757575" d="M154.78,-69.82C154.71,-69.75 154.64,-69.68 154.57,-69.61"/>
<polygon fill="#757575" stroke="#757575" points="163.88,-74.04 154.36,-69.39 158.9,-78.96 163.88,-74.04"/>
</g>
<!-- lib/supabaseClient.ts -->
<g id="node20" class="node">
<title>lib/supabaseClient.ts</title>
<path fill="none" stroke="#cfffac" d="M184.84,-72.93C184.84,-72.93 59.17,-72.93 59.17,-72.93 55.34,-72.93 51.5,-69.1 51.5,-65.27 51.5,-65.27 51.5,-57.6 51.5,-57.6 51.5,-53.77 55.34,-49.93 59.17,-49.93 59.17,-49.93 184.84,-49.93 184.84,-49.93 188.67,-49.93 192.5,-53.77 192.5,-57.6 192.5,-57.6 192.5,-65.27 192.5,-65.27 192.5,-69.1 188.67,-72.93 184.84,-72.93"/>
<text text-anchor="middle" x="122" y="-57.73" font-family="Arial" font-size="14.00" fill="#cfffac">lib/supabaseClient.ts</text>
</g>
<!-- pages/GameSetup.tsx&#45;&gt;lib/supabaseClient.ts -->
<g id="edge43" class="edge">
<title>pages/GameSetup.tsx&#45;&gt;lib/supabaseClient.ts</title>
<path fill="none" stroke="#757575" d="M140.84,-69.99C140.76,-69.95 140.69,-69.92 140.61,-69.88"/>
<polygon fill="#757575" stroke="#757575" points="150.93,-70.72 140.38,-69.78 148.04,-77.1 150.93,-70.72"/>
</g>
<!-- lib/types.ts -->
<g id="node28" class="node">
<title>lib/types.ts</title>
<path fill="none" stroke="#c6c5fe" d="M178.72,-143.87C178.72,-143.87 114.06,-143.87 114.06,-143.87 110.22,-143.87 106.39,-140.04 106.39,-136.2 106.39,-136.2 106.39,-128.54 106.39,-128.54 106.39,-124.7 110.22,-120.87 114.06,-120.87 114.06,-120.87 178.72,-120.87 178.72,-120.87 182.56,-120.87 186.39,-124.7 186.39,-128.54 186.39,-128.54 186.39,-136.2 186.39,-136.2 186.39,-140.04 182.56,-143.87 178.72,-143.87"/>
<text text-anchor="middle" x="146.39" y="-128.67" font-family="Arial" font-size="14.00" fill="#c6c5fe">lib/types.ts</text>
</g>
<!-- pages/GameSetup.tsx&#45;&gt;lib/types.ts -->
<g id="edge44" class="edge">
<title>pages/GameSetup.tsx&#45;&gt;lib/types.ts</title>
<path fill="none" stroke="#757575" d="M161.88,-93.12C159.81,-98.37 157.29,-104.75 154.88,-110.84"/>
<polygon fill="#757575" stroke="#757575" points="151.47,-109.96 151.06,-120.54 157.98,-112.52 151.47,-109.96"/>
</g>
<!-- lib/presence.ts -->
<g id="node31" class="node">
<title>lib/presence.ts</title>
<path fill="none" stroke="#c6c5fe" d="M206.34,-85.09C206.34,-85.09 117.68,-85.09 117.68,-85.09 113.84,-85.09 110.01,-81.26 110.01,-77.43 110.01,-77.43 110.01,-69.76 110.01,-69.76 110.01,-65.93 113.84,-62.09 117.68,-62.09 117.68,-62.09 206.34,-62.09 206.34,-62.09 210.18,-62.09 214.01,-65.93 214.01,-69.76 214.01,-69.76 214.01,-77.43 214.01,-77.43 214.01,-81.26 210.18,-85.09 206.34,-85.09"/>
<text text-anchor="middle" x="162.01" y="-69.89" font-family="Arial" font-size="14.00" fill="#c6c5fe">lib/presence.ts</text>
</g>
<!-- pages/GameSetup.tsx&#45;&gt;lib/presence.ts -->
<g id="edge42" class="edge">
<title>pages/GameSetup.tsx&#45;&gt;lib/presence.ts</title>
<path fill="none" stroke="#757575" d="M162.06,-73.68C162.05,-73.67 162.05,-73.66 162.04,-73.65"/>
<polygon fill="#757575" stroke="#757575" points="169.93,-80.68 162.02,-73.62 163.8,-84.07 169.93,-80.68"/>
</g>
<!-- components/ActiveGames.tsx -->
<g id="node10" class="node">
<title>components/ActiveGames.tsx</title>
<path fill="none" stroke="#c6c5fe" d="M257.51,-125.11C257.51,-125.11 75.84,-125.11 75.84,-125.11 72.01,-125.11 68.18,-121.28 68.18,-117.44 68.18,-117.44 68.18,-109.78 68.18,-109.78 68.18,-105.94 72.01,-102.11 75.84,-102.11 75.84,-102.11 257.51,-102.11 257.51,-102.11 261.34,-102.11 265.18,-105.94 265.18,-109.78 265.18,-109.78 265.18,-117.44 265.18,-117.44 265.18,-121.28 261.34,-125.11 257.51,-125.11"/>
<text text-anchor="middle" x="166.68" y="-109.91" font-family="Arial" font-size="14.00" fill="#c6c5fe">components/ActiveGames.tsx</text>
</g>
<!-- pages/Homepage.tsx&#45;&gt;components/ActiveGames.tsx -->
<g id="edge45" class="edge">
<title>pages/Homepage.tsx&#45;&gt;components/ActiveGames.tsx</title>
<path fill="none" stroke="#757575" d="M166.63,-113.7C166.63,-113.69 166.64,-113.67 166.65,-113.66"/>
<polygon fill="#757575" stroke="#757575" points="164.79,-124.07 166.66,-113.63 158.69,-120.62 164.79,-124.07"/>
</g>
<!-- pages/Homepage.tsx&#45;&gt;lib/mutations.ts -->
<g id="edge48" class="edge">
<title>pages/Homepage.tsx&#45;&gt;lib/mutations.ts</title>
<path fill="none" stroke="#757575" d="M166.44,-109.98C166.46,-109.9 166.49,-109.83 166.52,-109.75"/>
<polygon fill="#757575" stroke="#757575" points="166.44,-120.12 166.6,-109.52 159.87,-117.7 166.44,-120.12"/>
</g>
<!-- pages/Homepage.tsx&#45;&gt;components/Alert.tsx -->
<g id="edge46" class="edge">
<title>pages/Homepage.tsx&#45;&gt;components/Alert.tsx</title>
<path fill="none" stroke="#757575" d="M164.14,-110.06C164.16,-109.97 164.17,-109.88 164.19,-109.79"/>
<polygon fill="#757575" stroke="#757575" points="167.41,-111.7 165.65,-101.25 160.51,-110.51 167.41,-111.7"/>
</g>
<!-- components/PasswordModal.tsx -->
<g id="node23" class="node">
<title>components/PasswordModal.tsx</title>
<path fill="none" stroke="#cfffac" d="M268.51,-141.02C268.51,-141.02 71.85,-141.02 71.85,-141.02 68.01,-141.02 64.18,-137.18 64.18,-133.35 64.18,-133.35 64.18,-125.68 64.18,-125.68 64.18,-121.85 68.01,-118.02 71.85,-118.02 71.85,-118.02 268.51,-118.02 268.51,-118.02 272.35,-118.02 276.18,-121.85 276.18,-125.68 276.18,-125.68 276.18,-133.35 276.18,-133.35 276.18,-137.18 272.35,-141.02 268.51,-141.02"/>
<text text-anchor="middle" x="170.18" y="-125.82" font-family="Arial" font-size="14.00" fill="#cfffac">components/PasswordModal.tsx</text>
</g>
<!-- pages/Homepage.tsx&#45;&gt;components/PasswordModal.tsx -->
<g id="edge47" class="edge">
<title>pages/Homepage.tsx&#45;&gt;components/PasswordModal.tsx</title>
<path fill="none" stroke="#757575" d="M170.09,-129.43C170.1,-129.44 170.12,-129.46 170.13,-129.47"/>
<polygon fill="#757575" stroke="#757575" points="160.57,-124.96 170.16,-129.49 165.49,-119.97 160.57,-124.96"/>
</g>
<!-- pages/Join.tsx&#45;&gt;lib/mutations.ts -->
<g id="edge52" class="edge">
<title>pages/Join.tsx&#45;&gt;lib/mutations.ts</title>
<path fill="none" stroke="#757575" d="M168.03,-105.52C168.03,-105.53 168.03,-105.54 168.03,-105.56"/>
<polygon fill="#757575" stroke="#757575" points="163.14,-96.18 168.04,-105.58 170.07,-95.18 163.14,-96.18"/>
</g>
<!-- pages/Join.tsx&#45;&gt;components/Alert.tsx -->
<g id="edge49" class="edge">
<title>pages/Join.tsx&#45;&gt;components/Alert.tsx</title>
<path fill="none" stroke="#757575" d="M167.64,-89.69C167.64,-89.68 167.64,-89.66 167.64,-89.65"/>
<polygon fill="#757575" stroke="#757575" points="170.18,-99.92 167.65,-89.62 163.21,-99.25 170.18,-99.92"/>
</g>
<!-- components/FlagSelector.tsx -->
<g id="node18" class="node">
<title>components/FlagSelector.tsx</title>
<path fill="none" stroke="#cfffac" d="M263.28,-109.1C263.28,-109.1 87.61,-109.1 87.61,-109.1 83.78,-109.1 79.95,-105.27 79.95,-101.44 79.95,-101.44 79.95,-93.77 79.95,-93.77 79.95,-89.94 83.78,-86.1 87.61,-86.1 87.61,-86.1 263.28,-86.1 263.28,-86.1 267.11,-86.1 270.95,-89.94 270.95,-93.77 270.95,-93.77 270.95,-101.44 270.95,-101.44 270.95,-105.27 267.11,-109.1 263.28,-109.1"/>
<text text-anchor="middle" x="175.45" y="-93.9" font-family="Arial" font-size="14.00" fill="#cfffac">components/FlagSelector.tsx</text>
</g>
<!-- pages/Join.tsx&#45;&gt;components/FlagSelector.tsx -->
<g id="edge50" class="edge">
<title>pages/Join.tsx&#45;&gt;components/FlagSelector.tsx</title>
<path fill="none" stroke="#757575" d="M175.35,-97.6C175.37,-97.6 175.38,-97.6 175.39,-97.6"/>
<polygon fill="#757575" stroke="#757575" points="165.43,-101.14 175.42,-97.6 165.41,-94.14 165.43,-101.14"/>
</g>
<!-- components/LogoSelector.tsx -->
<g id="node21" class="node">
<title>components/LogoSelector.tsx</title>
<path fill="none" stroke="#c6c5fe" d="M227.34,-70.56C227.34,-70.56 48.67,-70.56 48.67,-70.56 44.84,-70.56 41.01,-66.73 41.01,-62.89 41.01,-62.89 41.01,-55.23 41.01,-55.23 41.01,-51.39 44.84,-47.56 48.67,-47.56 48.67,-47.56 227.34,-47.56 227.34,-47.56 231.17,-47.56 235.01,-51.39 235.01,-55.23 235.01,-55.23 235.01,-62.89 235.01,-62.89 235.01,-66.73 231.17,-70.56 227.34,-70.56"/>
<text text-anchor="middle" x="138.01" y="-55.36" font-family="Arial" font-size="14.00" fill="#c6c5fe">components/LogoSelector.tsx</text>
</g>
<!-- pages/Join.tsx&#45;&gt;components/LogoSelector.tsx -->
<g id="edge51" class="edge">
<title>pages/Join.tsx&#45;&gt;components/LogoSelector.tsx</title>
<path fill="none" stroke="#757575" d="M158.08,-85.83C156.4,-83.59 154.6,-81.19 152.79,-78.78"/>
<polygon fill="#757575" stroke="#757575" points="155.58,-76.66 146.78,-70.76 149.98,-80.86 155.58,-76.66"/>
</g>
<!-- pages/Lobby.tsx&#45;&gt;atoms/index.ts -->
<g id="edge53" class="edge">
<title>pages/Lobby.tsx&#45;&gt;atoms/index.ts</title>
<path fill="none" stroke="#757575" d="M96.38,-106.28C96.38,-106.26 96.37,-106.25 96.37,-106.24"/>
<polygon fill="#757575" stroke="#757575" points="103.61,-113.95 96.36,-106.21 97.2,-116.78 103.61,-113.95"/>
</g>
<!-- lib/types/supabase.ts -->
<g id="node9" class="node">
<title>lib/types/supabase.ts</title>
<path fill="none" stroke="#cfffac" d="M160.87,-101.68C160.87,-101.68 33.2,-101.68 33.2,-101.68 29.37,-101.68 25.54,-97.85 25.54,-94.01 25.54,-94.01 25.54,-86.35 25.54,-86.35 25.54,-82.51 29.37,-78.68 33.2,-78.68 33.2,-78.68 160.87,-78.68 160.87,-78.68 164.7,-78.68 168.54,-82.51 168.54,-86.35 168.54,-86.35 168.54,-94.01 168.54,-94.01 168.54,-97.85 164.7,-101.68 160.87,-101.68"/>
<text text-anchor="middle" x="97.04" y="-86.48" font-family="Arial" font-size="14.00" fill="#cfffac">lib/types/supabase.ts</text>
</g>
<!-- pages/Lobby.tsx&#45;&gt;lib/types/supabase.ts -->
<g id="edge57" class="edge">
<title>pages/Lobby.tsx&#45;&gt;lib/types/supabase.ts</title>
<path fill="none" stroke="#757575" d="M98.49,-102.47C98.47,-102.37 98.46,-102.28 98.45,-102.18"/>
<polygon fill="#757575" stroke="#757575" points="103.07,-111.41 98.42,-101.89 96.12,-112.24 103.07,-111.41"/>
</g>
<!-- pages/Lobby.tsx&#45;&gt;lib/mutations.ts -->
<g id="edge54" class="edge">
<title>pages/Lobby.tsx&#45;&gt;lib/mutations.ts</title>
<path fill="none" stroke="#757575" d="M157.09,-106.99C157.14,-106.98 157.19,-106.97 157.24,-106.97"/>
<polygon fill="#757575" stroke="#757575" points="147.91,-111.67 157.39,-106.95 147.03,-104.73 147.91,-111.67"/>
</g>
<!-- pages/Lobby.tsx&#45;&gt;lib/supabaseClient.ts -->
<g id="edge56" class="edge">
<title>pages/Lobby.tsx&#45;&gt;lib/supabaseClient.ts</title>
<path fill="none" stroke="#757575" d="M104.78,-102.48C107.25,-96.61 110.31,-89.31 113.16,-82.51"/>
<polygon fill="#757575" stroke="#757575" points="116.46,-83.68 117.1,-73.11 110.01,-80.98 116.46,-83.68"/>
</g>
<!-- lib/sessionHooks.ts -->
<g id="node34" class="node">
<title>lib/sessionHooks.ts</title>
<path fill="none" stroke="#c6c5fe" d="M164.7,-133.69C164.7,-133.69 48.04,-133.69 48.04,-133.69 44.2,-133.69 40.37,-129.86 40.37,-126.02 40.37,-126.02 40.37,-118.36 40.37,-118.36 40.37,-114.52 44.2,-110.69 48.04,-110.69 48.04,-110.69 164.7,-110.69 164.7,-110.69 168.54,-110.69 172.37,-114.52 172.37,-118.36 172.37,-118.36 172.37,-126.02 172.37,-126.02 172.37,-129.86 168.54,-133.69 164.7,-133.69"/>
<text text-anchor="middle" x="106.37" y="-118.49" font-family="Arial" font-size="14.00" fill="#c6c5fe">lib/sessionHooks.ts</text>
</g>
<!-- pages/Lobby.tsx&#45;&gt;lib/sessionHooks.ts -->
<g id="edge55" class="edge">
<title>pages/Lobby.tsx&#45;&gt;lib/sessionHooks.ts</title>
<path fill="none" stroke="#757575" d="M106.3,-122.1C106.31,-122.12 106.32,-122.13 106.33,-122.14"/>
<polygon fill="#757575" stroke="#757575" points="97.32,-116.61 106.35,-122.17 102.75,-112.19 97.32,-116.61"/>
</g>
<!-- pages/Quiz.tsx&#45;&gt;lib/mutations.ts -->
<g id="edge58" class="edge">
<title>pages/Quiz.tsx&#45;&gt;lib/mutations.ts</title>
<path fill="none" stroke="#757575" d="M149.21,-117.2C149.29,-117.16 149.36,-117.11 149.43,-117.07"/>
<polygon fill="#757575" stroke="#757575" points="142.98,-125.16 149.65,-116.93 139.3,-119.2 142.98,-125.16"/>
</g>
<!-- pages/Quiz.tsx&#45;&gt;lib/types.ts -->
<g id="edge61" class="edge">
<title>pages/Quiz.tsx&#45;&gt;lib/types.ts</title>
<path fill="none" stroke="#757575" d="M146.34,-132.36C146.35,-132.36 146.36,-132.36 146.36,-132.36"/>
<polygon fill="#757575" stroke="#757575" points="135.84,-133.56 146.38,-132.37 137.4,-126.72 135.84,-133.56"/>
</g>
<!-- lib/realtimeHooks.ts -->
<g id="node32" class="node">
<title>lib/realtimeHooks.ts</title>
<path fill="none" stroke="#c6c5fe" d="M198.22,-145.39C198.22,-145.39 78.55,-145.39 78.55,-145.39 74.72,-145.39 70.88,-141.56 70.88,-137.72 70.88,-137.72 70.88,-130.06 70.88,-130.06 70.88,-126.22 74.72,-122.39 78.55,-122.39 78.55,-122.39 198.22,-122.39 198.22,-122.39 202.05,-122.39 205.88,-126.22 205.88,-130.06 205.88,-130.06 205.88,-137.72 205.88,-137.72 205.88,-141.56 202.05,-145.39 198.22,-145.39"/>
<text text-anchor="middle" x="138.38" y="-130.19" font-family="Arial" font-size="14.00" fill="#c6c5fe">lib/realtimeHooks.ts</text>
</g>
<!-- pages/Quiz.tsx&#45;&gt;lib/realtimeHooks.ts -->
<g id="edge59" class="edge">
<title>pages/Quiz.tsx&#45;&gt;lib/realtimeHooks.ts</title>
<path fill="none" stroke="#757575" d="M138.3,-133.83C138.31,-133.84 138.32,-133.85 138.33,-133.86"/>
<polygon fill="#757575" stroke="#757575" points="128.04,-131.45 138.36,-133.88 131.8,-125.54 128.04,-131.45"/>
</g>
<!-- pages/Quiz.tsx&#45;&gt;lib/sessionHooks.ts -->
<g id="edge60" class="edge">
<title>pages/Quiz.tsx&#45;&gt;lib/sessionHooks.ts</title>
<path fill="none" stroke="#757575" d="M106.44,-122.21C106.43,-122.21 106.42,-122.2 106.41,-122.2"/>
<polygon fill="#757575" stroke="#757575" points="116.97,-121.51 106.39,-122.2 115.09,-128.26 116.97,-121.51"/>
</g>
<!-- pages/Results.tsx&#45;&gt;lib/mutations.ts -->
<g id="edge62" class="edge">
<title>pages/Results.tsx&#45;&gt;lib/mutations.ts</title>
<path fill="none" stroke="#757575" d="M147.45,-112.8C147.49,-112.78 147.53,-112.77 147.57,-112.75"/>
<polygon fill="#757575" stroke="#757575" points="139.42,-119.31 147.7,-112.71 137.11,-112.7 139.42,-119.31"/>
</g>
<!-- pages/Results.tsx&#45;&gt;lib/supabaseClient.ts -->
<g id="edge64" class="edge">
<title>pages/Results.tsx&#45;&gt;lib/supabaseClient.ts</title>
<path fill="none" stroke="#757575" d="M115.77,-112.8C116.77,-104.57 118.14,-93.25 119.35,-83.33"/>
<polygon fill="#757575" stroke="#757575" points="122.83,-83.68 120.56,-73.33 115.88,-82.83 122.83,-83.68"/>
</g>
<!-- pages/Results.tsx&#45;&gt;lib/sessionHooks.ts -->
<g id="edge63" class="edge">
<title>pages/Results.tsx&#45;&gt;lib/sessionHooks.ts</title>
<path fill="none" stroke="#757575" d="M106.46,-122.21C106.45,-122.21 106.43,-122.21 106.42,-122.2"/>
<polygon fill="#757575" stroke="#757575" points="116.97,-121.44 106.39,-122.2 115.14,-128.2 116.97,-121.44"/>
</g>
<!-- atoms/index.ts&#45;&gt;lib/types/supabase.ts -->
<g id="edge7" class="edge">
<title>atoms/index.ts&#45;&gt;lib/types/supabase.ts</title>
<path fill="none" stroke="#757575" d="M96.85,-94.55C96.85,-94.48 96.85,-94.4 96.86,-94.32"/>
<polygon fill="#757575" stroke="#757575" points="99.93,-104.24 96.87,-94.1 92.94,-103.93 99.93,-104.24"/>
</g>
<!-- components/ActiveGames.tsx&#45;&gt;lib/mutations.ts -->
<g id="edge8" class="edge">
<title>components/ActiveGames.tsx&#45;&gt;lib/mutations.ts</title>
<path fill="none" stroke="#757575" d="M168.03,-105.7C168.03,-105.68 168.03,-105.67 168.03,-105.66"/>
<polygon fill="#757575" stroke="#757575" points="169.78,-116.09 168.04,-105.63 162.88,-114.89 169.78,-116.09"/>
</g>
<!-- lib/mutations.ts&#45;&gt;lib/supabaseClient.ts -->
<g id="edge25" class="edge">
<title>lib/mutations.ts&#45;&gt;lib/supabaseClient.ts</title>
<path fill="none" stroke="#757575" d="M155.95,-94C151.54,-89.77 146.44,-84.88 141.55,-80.19"/>
<polygon fill="#757575" stroke="#757575" points="143.82,-77.51 134.18,-73.12 138.97,-82.57 143.82,-77.51"/>
</g>
<!-- lib/mutations.ts&#45;&gt;lib/types.ts -->
<g id="edge26" class="edge">
<title>lib/mutations.ts&#45;&gt;lib/types.ts</title>
<path fill="none" stroke="#757575" d="M158.73,-117.11C158.62,-117.25 158.5,-117.4 158.39,-117.54"/>
<polygon fill="#757575" stroke="#757575" points="159.53,-110.56 155.96,-120.53 164.98,-114.96 159.53,-110.56"/>
</g>
<!-- components/EnhancedLobby.tsx -->
<g id="node13" class="node">
<title>components/EnhancedLobby.tsx</title>
<path fill="none" stroke="#c6c5fe" d="M204.33,-85.67C204.33,-85.67 7.67,-85.67 7.67,-85.67 3.83,-85.67 0,-81.84 0,-78.01 0,-78.01 0,-70.34 0,-70.34 0,-66.51 3.83,-62.67 7.67,-62.67 7.67,-62.67 204.33,-62.67 204.33,-62.67 208.17,-62.67 212,-66.51 212,-70.34 212,-70.34 212,-78.01 212,-78.01 212,-81.84 208.17,-85.67 204.33,-85.67"/>
<text text-anchor="middle" x="106" y="-70.47" font-family="Arial" font-size="14.00" fill="#c6c5fe">components/EnhancedLobby.tsx</text>
</g>
<!-- lib/enhancedPresence.ts -->
<g id="node14" class="node">
<title>lib/enhancedPresence.ts</title>
<path fill="none" stroke="#c6c5fe" d="M174.18,-93.68C174.18,-93.68 25.51,-93.68 25.51,-93.68 21.68,-93.68 17.85,-89.84 17.85,-86.01 17.85,-86.01 17.85,-78.34 17.85,-78.34 17.85,-74.51 21.68,-70.68 25.51,-70.68 25.51,-70.68 174.18,-70.68 174.18,-70.68 178.01,-70.68 181.85,-74.51 181.85,-78.34 181.85,-78.34 181.85,-86.01 181.85,-86.01 181.85,-89.84 178.01,-93.68 174.18,-93.68"/>
<text text-anchor="middle" x="99.85" y="-78.48" font-family="Arial" font-size="14.00" fill="#c6c5fe">lib/enhancedPresence.ts</text>
</g>
<!-- components/EnhancedLobby.tsx&#45;&gt;lib/enhancedPresence.ts -->
<g id="edge9" class="edge">
<title>components/EnhancedLobby.tsx&#45;&gt;lib/enhancedPresence.ts</title>
<path fill="none" stroke="#757575" d="M99.92,-82.09C99.9,-82.1 99.89,-82.12 99.89,-82.13"/>
<polygon fill="#757575" stroke="#757575" points="103.19,-72.08 99.86,-82.15 108.75,-76.36 103.19,-72.08"/>
</g>
<!-- lib/enhancedRealtimeHooks.ts -->
<g id="node15" class="node">
<title>lib/enhancedRealtimeHooks.ts</title>
<path fill="none" stroke="#c6c5fe" d="M206.33,-77.93C206.33,-77.93 21.67,-77.93 21.67,-77.93 17.83,-77.93 14,-74.1 14,-70.27 14,-70.27 14,-62.6 14,-62.6 14,-58.77 17.83,-54.93 21.67,-54.93 21.67,-54.93 206.33,-54.93 206.33,-54.93 210.17,-54.93 214,-58.77 214,-62.6 214,-62.6 214,-70.27 214,-70.27 214,-74.1 210.17,-77.93 206.33,-77.93"/>
<text text-anchor="middle" x="114" y="-62.73" font-family="Arial" font-size="14.00" fill="#c6c5fe">lib/enhancedRealtimeHooks.ts</text>
</g>
<!-- components/EnhancedLobby.tsx&#45;&gt;lib/enhancedRealtimeHooks.ts -->
<g id="edge10" class="edge">
<title>components/EnhancedLobby.tsx&#45;&gt;lib/enhancedRealtimeHooks.ts</title>
<path fill="none" stroke="#757575" d="M113.91,-66.52C113.92,-66.5 113.94,-66.49 113.95,-66.48"/>
<polygon fill="#757575" stroke="#757575" points="109.22,-75.93 113.98,-66.45 104.35,-70.9 109.22,-75.93"/>
</g>
<!-- lib/enhancedPresence.ts&#45;&gt;lib/mutations.ts -->
<g id="edge18" class="edge">
<title>lib/enhancedPresence.ts&#45;&gt;lib/mutations.ts</title>
<path fill="none" stroke="#757575" d="M133.54,-93.76C133.68,-93.8 133.81,-93.85 133.95,-93.89"/>
<polygon fill="#757575" stroke="#757575" points="123.75,-94.09 134.35,-94.03 126.03,-87.47 123.75,-94.09"/>
</g>
<!-- lib/enhancedPresence.ts&#45;&gt;lib/supabaseClient.ts -->
<g id="edge19" class="edge">
<title>lib/enhancedPresence.ts&#45;&gt;lib/supabaseClient.ts</title>
<path fill="none" stroke="#757575" d="M112.22,-70.59C112.3,-70.52 112.38,-70.44 112.46,-70.37"/>
<polygon fill="#757575" stroke="#757575" points="107.79,-79.54 112.7,-70.15 103,-74.43 107.79,-79.54"/>
</g>
<!-- lib/enhancedRealtimeHooks.ts&#45;&gt;lib/supabaseClient.ts -->
<g id="edge20" class="edge">
<title>lib/enhancedRealtimeHooks.ts&#45;&gt;lib/supabaseClient.ts</title>
<path fill="none" stroke="#757575" d="M121.91,-61.49C121.93,-61.48 121.94,-61.47 121.95,-61.47"/>
<polygon fill="#757575" stroke="#757575" points="115.35,-69.73 121.98,-61.45 111.63,-63.79 115.35,-69.73"/>
</g>
<!-- lib/enhancedRealtimeHooks.ts&#45;&gt;lib/types.ts -->
<g id="edge21" class="edge">
<title>lib/enhancedRealtimeHooks.ts&#45;&gt;lib/types.ts</title>
<path fill="none" stroke="#757575" d="M119.79,-78.22C124.35,-87.5 130.82,-100.67 136.23,-111.7"/>
<polygon fill="#757575" stroke="#757575" points="133.1,-113.25 140.65,-120.68 139.38,-110.16 133.1,-113.25"/>
</g>
<!-- components/Flag.tsx -->
<g id="node16" class="node">
<title>components/Flag.tsx</title>
<path fill="none" stroke="#c6c5fe" d="M194.32,-227C194.32,-227 67.65,-227 67.65,-227 63.82,-227 59.98,-223.17 59.98,-219.33 59.98,-219.33 59.98,-211.67 59.98,-211.67 59.98,-207.83 63.82,-204 67.65,-204 67.65,-204 194.32,-204 194.32,-204 198.15,-204 201.98,-207.83 201.98,-211.67 201.98,-211.67 201.98,-219.33 201.98,-219.33 201.98,-223.17 198.15,-227 194.32,-227"/>
<text text-anchor="middle" x="130.98" y="-211.8" font-family="Arial" font-size="14.00" fill="#c6c5fe">components/Flag.tsx</text>
</g>
<!-- lib/flagIcons.ts -->
<g id="node17" class="node">
<title>lib/flagIcons.ts</title>
<path fill="none" stroke="#cfffac" d="M182.32,-227C182.32,-227 95.65,-227 95.65,-227 91.82,-227 87.98,-223.17 87.98,-219.33 87.98,-219.33 87.98,-211.67 87.98,-211.67 87.98,-207.83 91.82,-204 95.65,-204 95.65,-204 182.32,-204 182.32,-204 186.15,-204 189.98,-207.83 189.98,-211.67 189.98,-211.67 189.98,-219.33 189.98,-219.33 189.98,-223.17 186.15,-227 182.32,-227"/>
<text text-anchor="middle" x="138.98" y="-211.8" font-family="Arial" font-size="14.00" fill="#cfffac">lib/flagIcons.ts</text>
</g>
<!-- components/Flag.tsx&#45;&gt;lib/flagIcons.ts -->
<g id="edge11" class="edge">
<title>components/Flag.tsx&#45;&gt;lib/flagIcons.ts</title>
<path fill="none" stroke="#757575" d="M138.89,-215.5C138.91,-215.5 138.92,-215.5 138.93,-215.5"/>
<polygon fill="#757575" stroke="#757575" points="128.97,-219.04 138.96,-215.5 128.95,-212.04 128.97,-219.04"/>
</g>
<!-- components/LobbyStatus.tsx&#45;&gt;lib/supabaseClient.ts -->
<g id="edge12" class="edge">
<title>components/LobbyStatus.tsx&#45;&gt;lib/supabaseClient.ts</title>
<path fill="none" stroke="#757575" d="M122.07,-61.43C122.06,-61.43 122.05,-61.43 122.04,-61.43"/>
<polygon fill="#757575" stroke="#757575" points="131.93,-57.69 122.02,-61.43 132.11,-64.68 131.93,-57.69"/>
</g>
<!-- components/LogoSelector.tsx&#45;&gt;lib/supabaseClient.ts -->
<g id="edge13" class="edge">
<title>components/LogoSelector.tsx&#45;&gt;lib/supabaseClient.ts</title>
<path fill="none" stroke="#757575" d="M122.05,-61.43C122.04,-61.43 122.03,-61.43 122.03,-61.43"/>
<polygon fill="#757575" stroke="#757575" points="131.37,-56.44 122.01,-61.43 132.44,-63.37 131.37,-56.44"/>
</g>
<!-- components/PasswordModal.test.tsx -->
<g id="node22" class="node">
<title>components/PasswordModal.test.tsx</title>
<path fill="none" stroke="#c6c5fe" d="M289.52,-148.17C289.52,-148.17 66.85,-148.17 66.85,-148.17 63.02,-148.17 59.19,-144.34 59.19,-140.5 59.19,-140.5 59.19,-132.84 59.19,-132.84 59.19,-129 63.02,-125.17 66.85,-125.17 66.85,-125.17 289.52,-125.17 289.52,-125.17 293.35,-125.17 297.19,-129 297.19,-132.84 297.19,-132.84 297.19,-140.5 297.19,-140.5 297.19,-144.34 293.35,-148.17 289.52,-148.17"/>
<text text-anchor="middle" x="178.19" y="-132.97" font-family="Arial" font-size="14.00" fill="#c6c5fe">components/PasswordModal.test.tsx</text>
</g>
<!-- components/PasswordModal.test.tsx&#45;&gt;components/PasswordModal.tsx -->
<g id="edge14" class="edge">
<title>components/PasswordModal.test.tsx&#45;&gt;components/PasswordModal.tsx</title>
<path fill="none" stroke="#757575" d="M170.27,-129.6C170.26,-129.58 170.24,-129.57 170.23,-129.56"/>
<polygon fill="#757575" stroke="#757575" points="180,-133.6 170.2,-129.54 175.33,-138.82 180,-133.6"/>
</g>
<!-- components/TeamLogoPicker.test.tsx -->
<g id="node24" class="node">
<title>components/TeamLogoPicker.test.tsx</title>
<path fill="none" stroke="#c6c5fe" d="M462.08,-203C462.08,-203 235.41,-203 235.41,-203 231.58,-203 227.74,-199.17 227.74,-195.33 227.74,-195.33 227.74,-187.67 227.74,-187.67 227.74,-183.83 231.58,-180 235.41,-180 235.41,-180 462.08,-180 462.08,-180 465.91,-180 469.74,-183.83 469.74,-187.67 469.74,-187.67 469.74,-195.33 469.74,-195.33 469.74,-199.17 465.91,-203 462.08,-203"/>
<text text-anchor="middle" x="348.74" y="-187.8" font-family="Arial" font-size="14.00" fill="#c6c5fe">components/TeamLogoPicker.test.tsx</text>
</g>
<!-- components/TeamLogoPicker.tsx -->
<g id="node25" class="node">
<title>components/TeamLogoPicker.tsx</title>
<path fill="none" stroke="#cfffac" d="M457.08,-203C457.08,-203 256.41,-203 256.41,-203 252.58,-203 248.74,-199.17 248.74,-195.33 248.74,-195.33 248.74,-187.67 248.74,-187.67 248.74,-183.83 252.58,-180 256.41,-180 256.41,-180 457.08,-180 457.08,-180 460.91,-180 464.74,-183.83 464.74,-187.67 464.74,-187.67 464.74,-195.33 464.74,-195.33 464.74,-199.17 460.91,-203 457.08,-203"/>
<text text-anchor="middle" x="356.74" y="-187.8" font-family="Arial" font-size="14.00" fill="#cfffac">components/TeamLogoPicker.tsx</text>
</g>
<!-- components/TeamLogoPicker.test.tsx&#45;&gt;components/TeamLogoPicker.tsx -->
<g id="edge15" class="edge">
<title>components/TeamLogoPicker.test.tsx&#45;&gt;components/TeamLogoPicker.tsx</title>
<path fill="none" stroke="#757575" d="M356.65,-191.5C356.67,-191.5 356.68,-191.5 356.69,-191.5"/>
<polygon fill="#757575" stroke="#757575" points="346.73,-195.04 356.72,-191.5 346.71,-188.04 346.73,-195.04"/>
</g>
<!-- index.css -->
<g id="node26" class="node">
<title>index.css</title>
<path fill="none" stroke="#cfffac" d="M146.74,-151.87C146.74,-151.87 89.07,-151.87 89.07,-151.87 85.24,-151.87 81.41,-148.03 81.41,-144.2 81.41,-144.2 81.41,-136.53 81.41,-136.53 81.41,-132.7 85.24,-128.87 89.07,-128.87 89.07,-128.87 146.74,-128.87 146.74,-128.87 150.57,-128.87 154.41,-132.7 154.41,-136.53 154.41,-136.53 154.41,-144.2 154.41,-144.2 154.41,-148.03 150.57,-151.87 146.74,-151.87"/>
<text text-anchor="middle" x="117.91" y="-136.67" font-family="Arial" font-size="14.00" fill="#cfffac">index.css</text>
</g>
<!-- lib/createSession.test.ts -->
<g id="node27" class="node">
<title>lib/createSession.test.ts</title>
<path fill="none" stroke="#c6c5fe" d="M201.84,-70.65C201.84,-70.65 58.17,-70.65 58.17,-70.65 54.34,-70.65 50.5,-66.82 50.5,-62.99 50.5,-62.99 50.5,-55.32 50.5,-55.32 50.5,-51.49 54.34,-47.65 58.17,-47.65 58.17,-47.65 201.84,-47.65 201.84,-47.65 205.67,-47.65 209.5,-51.49 209.5,-55.32 209.5,-55.32 209.5,-62.99 209.5,-62.99 209.5,-66.82 205.67,-70.65 201.84,-70.65"/>
<text text-anchor="middle" x="130" y="-55.45" font-family="Arial" font-size="14.00" fill="#c6c5fe">lib/createSession.test.ts</text>
</g>
<!-- lib/createSession.test.ts&#45;&gt;lib/mutations.ts -->
<g id="edge16" class="edge">
<title>lib/createSession.test.ts&#45;&gt;lib/mutations.ts</title>
<path fill="none" stroke="#757575" d="M139.6,-70.87C143.42,-75.53 147.9,-81.01 152.17,-86.23"/>
<polygon fill="#757575" stroke="#757575" points="149.53,-88.53 158.58,-94.05 154.95,-84.09 149.53,-88.53"/>
</g>
<!-- lib/createSession.test.ts&#45;&gt;lib/supabaseClient.ts -->
<g id="edge17" class="edge">
<title>lib/createSession.test.ts&#45;&gt;lib/supabaseClient.ts</title>
<path fill="none" stroke="#757575" d="M122.09,-61.41C122.08,-61.41 122.07,-61.42 122.05,-61.42"/>
<polygon fill="#757575" stroke="#757575" points="130.67,-55.29 122.03,-61.43 132.61,-62.03 130.67,-55.29"/>
</g>
<!-- lib/types/index.ts -->
<g id="node35" class="node">
<title>lib/types/index.ts</title>
<path fill="none" stroke="#c6c5fe" d="M146.06,-109.68C146.06,-109.68 45.39,-109.68 45.39,-109.68 41.56,-109.68 37.72,-105.85 37.72,-102.02 37.72,-102.02 37.72,-94.35 37.72,-94.35 37.72,-90.52 41.56,-86.68 45.39,-86.68 45.39,-86.68 146.06,-86.68 146.06,-86.68 149.89,-86.68 153.72,-90.52 153.72,-94.35 153.72,-94.35 153.72,-102.02 153.72,-102.02 153.72,-105.85 149.89,-109.68 146.06,-109.68"/>
<text text-anchor="middle" x="95.72" y="-94.48" font-family="Arial" font-size="14.00" fill="#c6c5fe">lib/types/index.ts</text>
</g>
<!-- lib/types.ts&#45;&gt;lib/types/index.ts -->
<g id="edge34" class="edge">
<title>lib/types.ts&#45;&gt;lib/types/index.ts</title>
<path fill="none" stroke="#757575" d="M129.24,-120.8C126.68,-119.07 123.99,-117.26 121.31,-115.45"/>
<polygon fill="#757575" stroke="#757575" points="123.11,-112.44 112.86,-109.74 119.19,-118.24 123.11,-112.44"/>
</g>
<!-- lib/mutations.test.ts -->
<g id="node29" class="node">
<title>lib/mutations.test.ts</title>
<path fill="none" stroke="#c6c5fe" d="M213.23,-141.11C213.23,-141.11 95.56,-141.11 95.56,-141.11 91.73,-141.11 87.89,-137.28 87.89,-133.45 87.89,-133.45 87.89,-125.78 87.89,-125.78 87.89,-121.95 91.73,-118.11 95.56,-118.11 95.56,-118.11 213.23,-118.11 213.23,-118.11 217.06,-118.11 220.89,-121.95 220.89,-125.78 220.89,-125.78 220.89,-133.45 220.89,-133.45 220.89,-137.28 217.06,-141.11 213.23,-141.11"/>
<text text-anchor="middle" x="154.39" y="-125.91" font-family="Arial" font-size="14.00" fill="#c6c5fe">lib/mutations.test.ts</text>
</g>
<!-- lib/mutations.test.ts&#45;&gt;lib/mutations.ts -->
<g id="edge22" class="edge">
<title>lib/mutations.test.ts&#45;&gt;lib/mutations.ts</title>
<path fill="none" stroke="#757575" d="M161.06,-117.89C161.11,-117.8 161.17,-117.7 161.22,-117.61"/>
<polygon fill="#757575" stroke="#757575" points="159.48,-127.74 161.38,-117.32 153.4,-124.28 159.48,-127.74"/>
</g>
<!-- lib/mutations.test.ts&#45;&gt;lib/supabaseClient.ts -->
<g id="edge23" class="edge">
<title>lib/mutations.test.ts&#45;&gt;lib/supabaseClient.ts</title>
<path fill="none" stroke="#757575" d="M148.9,-118.05C144.27,-108.31 137.54,-94.14 131.97,-82.41"/>
<polygon fill="#757575" stroke="#757575" points="135.09,-80.82 127.63,-73.29 128.76,-83.82 135.09,-80.82"/>
</g>
<!-- lib/mutations.test.ts&#45;&gt;lib/types.ts -->
<g id="edge24" class="edge">
<title>lib/mutations.test.ts&#45;&gt;lib/types.ts</title>
<path fill="none" stroke="#757575" d="M146.48,-132.34C146.46,-132.34 146.45,-132.35 146.44,-132.35"/>
<polygon fill="#757575" stroke="#757575" points="154.72,-125.77 146.41,-132.36 157.02,-132.39 154.72,-125.77"/>
</g>
<!-- lib/mutations.validation.ts -->
<g id="node30" class="node">
<title>lib/mutations.validation.ts</title>
<path fill="none" stroke="#cfffac" d="M315.9,-23C315.9,-23 163.24,-23 163.24,-23 159.4,-23 155.57,-19.17 155.57,-15.33 155.57,-15.33 155.57,-7.67 155.57,-7.67 155.57,-3.83 159.4,0 163.24,0 163.24,0 315.9,0 315.9,0 319.74,0 323.57,-3.83 323.57,-7.67 323.57,-7.67 323.57,-15.33 323.57,-15.33 323.57,-19.17 319.74,-23 315.9,-23"/>
<text text-anchor="middle" x="239.57" y="-7.8" font-family="Arial" font-size="14.00" fill="#cfffac">lib/mutations.validation.ts</text>
</g>
<!-- lib/presence.ts&#45;&gt;lib/mutations.ts -->
<g id="edge27" class="edge">
<title>lib/presence.ts&#45;&gt;lib/mutations.ts</title>
<path fill="none" stroke="#757575" d="M164.19,-85.15C164.21,-85.24 164.22,-85.33 164.24,-85.42"/>
<polygon fill="#757575" stroke="#757575" points="160.56,-84.78 165.85,-93.96 167.44,-83.48 160.56,-84.78"/>
</g>
<!-- lib/presence.ts&#45;&gt;lib/supabaseClient.ts -->
<g id="edge28" class="edge">
<title>lib/presence.ts&#45;&gt;lib/supabaseClient.ts</title>
<path fill="none" stroke="#757575" d="M124.15,-62.09C124.07,-62.06 123.99,-62.04 123.91,-62.01"/>
<polygon fill="#757575" stroke="#757575" points="134.26,-61.5 123.67,-61.94 132.22,-68.2 134.26,-61.5"/>
</g>
<!-- lib/realtimeHooks.ts&#45;&gt;lib/supabaseClient.ts -->
<g id="edge29" class="edge">
<title>lib/realtimeHooks.ts&#45;&gt;lib/supabaseClient.ts</title>
<path fill="none" stroke="#757575" d="M135.75,-122.25C133.38,-111.75 129.82,-96.03 126.92,-83.2"/>
<polygon fill="#757575" stroke="#757575" points="130.3,-82.27 124.68,-73.29 123.47,-83.81 130.3,-82.27"/>
</g>
<!-- lib/realtimeHooks.ts&#45;&gt;lib/types.ts -->
<g id="edge30" class="edge">
<title>lib/realtimeHooks.ts&#45;&gt;lib/types.ts</title>
<path fill="none" stroke="#757575" d="M146.3,-132.39C146.31,-132.38 146.33,-132.38 146.34,-132.38"/>
<polygon fill="#757575" stroke="#757575" points="137.2,-137.71 146.37,-132.37 135.88,-130.83 137.2,-137.71"/>
</g>
<!-- lib/sessionCode.test.ts -->
<g id="node33" class="node">
<title>lib/sessionCode.test.ts</title>
<path fill="none" stroke="#c6c5fe" d="M222.34,-77.24C222.34,-77.24 85.68,-77.24 85.68,-77.24 81.84,-77.24 78.01,-73.41 78.01,-69.58 78.01,-69.58 78.01,-61.91 78.01,-61.91 78.01,-58.08 81.84,-54.24 85.68,-54.24 85.68,-54.24 222.34,-54.24 222.34,-54.24 226.18,-54.24 230.01,-58.08 230.01,-61.91 230.01,-61.91 230.01,-69.58 230.01,-69.58 230.01,-73.41 226.18,-77.24 222.34,-77.24"/>
<text text-anchor="middle" x="154.01" y="-62.04" font-family="Arial" font-size="14.00" fill="#c6c5fe">lib/sessionCode.test.ts</text>
</g>
<!-- lib/sessionCode.test.ts&#45;&gt;lib/mutations.ts -->
<g id="edge31" class="edge">
<title>lib/sessionCode.test.ts&#45;&gt;lib/mutations.ts</title>
<path fill="none" stroke="#757575" d="M158.14,-77.49C158.92,-79.7 159.76,-82.07 160.6,-84.46"/>
<polygon fill="#757575" stroke="#757575" points="157.36,-85.81 163.99,-94.08 163.97,-83.49 157.36,-85.81"/>
</g>
<!-- lib/sessionCode.test.ts&#45;&gt;lib/supabaseClient.ts -->
<g id="edge32" class="edge">
<title>lib/sessionCode.test.ts&#45;&gt;lib/supabaseClient.ts</title>
<path fill="none" stroke="#757575" d="M122.09,-61.45C122.08,-61.44 122.07,-61.44 122.06,-61.44"/>
<polygon fill="#757575" stroke="#757575" points="132.41,-59.33 122.03,-61.44 131.46,-66.27 132.41,-59.33"/>
</g>
<!-- lib/sessionHooks.ts&#45;&gt;lib/supabaseClient.ts -->
<g id="edge33" class="edge">
<title>lib/sessionHooks.ts&#45;&gt;lib/supabaseClient.ts</title>
<path fill="none" stroke="#757575" d="M109.38,-110.48C111.4,-102.66 114.1,-92.15 116.49,-82.87"/>
<polygon fill="#757575" stroke="#757575" points="119.9,-83.67 119,-73.11 113.12,-81.93 119.9,-83.67"/>
</g>
<!-- lib/types/index.ts&#45;&gt;lib/types/supabase.ts -->
<g id="edge35" class="edge">
<title>lib/types/index.ts&#45;&gt;lib/types/supabase.ts</title>
<path fill="none" stroke="#757575" d="M97.02,-90.27C97.02,-90.26 97.03,-90.24 97.03,-90.23"/>
<polygon fill="#757575" stroke="#757575" points="98.84,-100.65 97.03,-90.2 91.93,-99.49 98.84,-100.65"/>
</g>
<!-- main.tsx -->
<g id="node36" class="node">
<title>main.tsx</title>
<path fill="none" stroke="#c6c5fe" d="M146.13,-143.84C146.13,-143.84 93.46,-143.84 93.46,-143.84 89.63,-143.84 85.8,-140.01 85.8,-136.18 85.8,-136.18 85.8,-128.51 85.8,-128.51 85.8,-124.68 89.63,-120.84 93.46,-120.84 93.46,-120.84 146.13,-120.84 146.13,-120.84 149.96,-120.84 153.8,-124.68 153.8,-128.51 153.8,-128.51 153.8,-136.18 153.8,-136.18 153.8,-140.01 149.96,-143.84 146.13,-143.84"/>
<text text-anchor="middle" x="119.8" y="-128.64" font-family="Arial" font-size="14.00" fill="#c6c5fe">main.tsx</text>
</g>
<!-- main.tsx&#45;&gt;App.tsx -->
<g id="edge36" class="edge">
<title>main.tsx&#45;&gt;App.tsx</title>
<path fill="none" stroke="#757575" d="M122.35,-124.16C122.36,-124.15 122.36,-124.13 122.36,-124.12"/>
<polygon fill="#757575" stroke="#757575" points="122.71,-134.69 122.37,-124.09 116.03,-132.59 122.71,-134.69"/>
</g>
<!-- main.tsx&#45;&gt;index.css -->
<g id="edge37" class="edge">
<title>main.tsx&#45;&gt;index.css</title>
<path fill="none" stroke="#757575" d="M117.93,-140.28C117.92,-140.29 117.92,-140.31 117.92,-140.32"/>
<polygon fill="#757575" stroke="#757575" points="116.82,-129.8 117.91,-140.35 123.64,-131.42 116.82,-129.8"/>
</g>
<!-- setupTests.ts -->
<g id="node37" class="node">
<title>setupTests.ts</title>
<path fill="none" stroke="#cfffac" d="M363.4,-251C363.4,-251 283.74,-251 283.74,-251 279.9,-251 276.07,-247.17 276.07,-243.33 276.07,-243.33 276.07,-235.67 276.07,-235.67 276.07,-231.83 279.9,-228 283.74,-228 283.74,-228 363.4,-228 363.4,-228 367.24,-228 371.07,-231.83 371.07,-235.67 371.07,-235.67 371.07,-243.33 371.07,-243.33 371.07,-247.17 367.24,-251 363.4,-251"/>
<text text-anchor="middle" x="323.57" y="-235.8" font-family="Arial" font-size="14.00" fill="#cfffac">setupTests.ts</text>
</g>
</g>
</svg>
