<?xml version="1.0" encoding="UTF-8" standalone="no"?>
<!DOCTYPE svg PUBLIC "-//W3C//DTD SVG 1.1//EN"
 "http://www.w3.org/Graphics/SVG/1.1/DTD/svg11.dtd">
<!-- Generated by graphviz version 2.43.0 (0)
 -->
<!-- Title: G Pages: 1 -->
<svg width="415pt" height="175pt"
 viewBox="0.00 0.00 415.32 174.97" xmlns="http://www.w3.org/2000/svg" xmlns:xlink="http://www.w3.org/1999/xlink">
<g id="graph0" class="graph" transform="scale(1 1) rotate(0) translate(21.6 153.37)">
<title>G</title>
<polygon fill="#111111" stroke="transparent" points="-21.6,21.6 -21.6,-153.37 393.72,-153.37 393.72,21.6 -21.6,21.6"/>
<!-- App.tsx -->
<g id="node1" class="node">
<title>App.tsx</title>
<path fill="none" stroke="#c6c5fe" d="M170.93,-51.75C170.93,-51.75 124.26,-51.75 124.26,-51.75 120.43,-51.75 116.59,-47.92 116.59,-44.08 116.59,-44.08 116.59,-36.42 116.59,-36.42 116.59,-32.58 120.43,-28.75 124.26,-28.75 124.26,-28.75 170.93,-28.75 170.93,-28.75 174.76,-28.75 178.59,-32.58 178.59,-36.42 178.59,-36.42 178.59,-44.08 178.59,-44.08 178.59,-47.92 174.76,-51.75 170.93,-51.75"/>
<text text-anchor="middle" x="147.59" y="-36.55" font-family="Arial" font-size="14.00" fill="#c6c5fe">App.tsx</text>
</g>
<!-- pages/GameSetup.tsx -->
<g id="node2" class="node">
<title>pages/GameSetup.tsx</title>
<path fill="none" stroke="#c6c5fe" d="M165.67,-47.78C165.67,-47.78 29.01,-47.78 29.01,-47.78 25.17,-47.78 21.34,-43.94 21.34,-40.11 21.34,-40.11 21.34,-32.44 21.34,-32.44 21.34,-28.61 25.17,-24.78 29.01,-24.78 29.01,-24.78 165.67,-24.78 165.67,-24.78 169.51,-24.78 173.34,-28.61 173.34,-32.44 173.34,-32.44 173.34,-40.11 173.34,-40.11 173.34,-43.94 169.51,-47.78 165.67,-47.78"/>
<text text-anchor="middle" x="97.34" y="-32.58" font-family="Arial" font-size="14.00" fill="#c6c5fe">pages/GameSetup.tsx</text>
</g>
<!-- App.tsx&#45;&gt;pages/GameSetup.tsx -->
<g id="edge1" class="edge">
<title>App.tsx&#45;&gt;pages/GameSetup.tsx</title>
<path fill="none" stroke="#757575" d="M116.34,-37.78C116.26,-37.77 116.18,-37.77 116.1,-37.76"/>
<polygon fill="#757575" stroke="#757575" points="126.11,-35.04 115.86,-37.74 125.55,-42.02 126.11,-35.04"/>
</g>
<!-- pages/Homepage.tsx -->
<g id="node3" class="node">
<title>pages/Homepage.tsx</title>
<path fill="none" stroke="#c6c5fe" d="M209.5,-68.06C209.5,-68.06 79.83,-68.06 79.83,-68.06 76,-68.06 72.16,-64.23 72.16,-60.4 72.16,-60.4 72.16,-52.73 72.16,-52.73 72.16,-48.9 76,-45.06 79.83,-45.06 79.83,-45.06 209.5,-45.06 209.5,-45.06 213.33,-45.06 217.16,-48.9 217.16,-52.73 217.16,-52.73 217.16,-60.4 217.16,-60.4 217.16,-64.23 213.33,-68.06 209.5,-68.06"/>
<text text-anchor="middle" x="144.66" y="-52.86" font-family="Arial" font-size="14.00" fill="#c6c5fe">pages/Homepage.tsx</text>
</g>
<!-- App.tsx&#45;&gt;pages/Homepage.tsx -->
<g id="edge2" class="edge">
<title>App.tsx&#45;&gt;pages/Homepage.tsx</title>
<path fill="none" stroke="#757575" d="M145.53,-51.76C145.51,-51.84 145.5,-51.93 145.48,-52.01"/>
<polygon fill="#757575" stroke="#757575" points="143.76,-41.79 145.44,-52.26 150.65,-43.03 143.76,-41.79"/>
</g>
<!-- pages/Join.tsx -->
<g id="node4" class="node">
<title>pages/Join.tsx</title>
<path fill="none" stroke="#c6c5fe" d="M164.49,-80.27C164.49,-80.27 76.82,-80.27 76.82,-80.27 72.99,-80.27 69.16,-76.43 69.16,-72.6 69.16,-72.6 69.16,-64.93 69.16,-64.93 69.16,-61.1 72.99,-57.27 76.82,-57.27 76.82,-57.27 164.49,-57.27 164.49,-57.27 168.32,-57.27 172.16,-61.1 172.16,-64.93 172.16,-64.93 172.16,-72.6 172.16,-72.6 172.16,-76.43 168.32,-80.27 164.49,-80.27"/>
<text text-anchor="middle" x="120.66" y="-65.07" font-family="Arial" font-size="14.00" fill="#c6c5fe">pages/Join.tsx</text>
</g>
<!-- App.tsx&#45;&gt;pages/Join.tsx -->
<g id="edge3" class="edge">
<title>App.tsx&#45;&gt;pages/Join.tsx</title>
<path fill="none" stroke="#757575" d="M136.64,-51.85C136.54,-51.96 136.43,-52.07 136.33,-52.17"/>
<polygon fill="#757575" stroke="#757575" points="136.01,-47.41 131.69,-57.09 141.1,-52.22 136.01,-47.41"/>
</g>
<!-- pages/Lobby.tsx -->
<g id="node5" class="node">
<title>pages/Lobby.tsx</title>
<path fill="none" stroke="#c6c5fe" d="M199.15,-42.96C199.15,-42.96 100.48,-42.96 100.48,-42.96 96.65,-42.96 92.82,-39.13 92.82,-35.3 92.82,-35.3 92.82,-27.63 92.82,-27.63 92.82,-23.8 96.65,-19.96 100.48,-19.96 100.48,-19.96 199.15,-19.96 199.15,-19.96 202.98,-19.96 206.82,-23.8 206.82,-27.63 206.82,-27.63 206.82,-35.3 206.82,-35.3 206.82,-39.13 202.98,-42.96 199.15,-42.96"/>
<text text-anchor="middle" x="149.82" y="-27.76" font-family="Arial" font-size="14.00" fill="#c6c5fe">pages/Lobby.tsx</text>
</g>
<!-- App.tsx&#45;&gt;pages/Lobby.tsx -->
<g id="edge4" class="edge">
<title>App.tsx&#45;&gt;pages/Lobby.tsx</title>
<path fill="none" stroke="#757575" d="M149.79,-31.56C149.8,-31.54 149.8,-31.53 149.8,-31.52"/>
<polygon fill="#757575" stroke="#757575" points="150.73,-42.05 149.81,-31.49 143.94,-40.32 150.73,-42.05"/>
</g>
<!-- pages/Quiz.tsx -->
<g id="node6" class="node">
<title>pages/Quiz.tsx</title>
<path fill="none" stroke="#c6c5fe" d="M183.66,-27.59C183.66,-27.59 91.99,-27.59 91.99,-27.59 88.16,-27.59 84.33,-23.76 84.33,-19.93 84.33,-19.93 84.33,-12.26 84.33,-12.26 84.33,-8.43 88.16,-4.59 91.99,-4.59 91.99,-4.59 183.66,-4.59 183.66,-4.59 187.49,-4.59 191.33,-8.43 191.33,-12.26 191.33,-12.26 191.33,-19.93 191.33,-19.93 191.33,-23.76 187.49,-27.59 183.66,-27.59"/>
<text text-anchor="middle" x="137.83" y="-12.39" font-family="Arial" font-size="14.00" fill="#c6c5fe">pages/Quiz.tsx</text>
</g>
<!-- App.tsx&#45;&gt;pages/Quiz.tsx -->
<g id="edge5" class="edge">
<title>App.tsx&#45;&gt;pages/Quiz.tsx</title>
<path fill="none" stroke="#757575" d="M142.94,-28.74C142.88,-28.59 142.82,-28.45 142.76,-28.3"/>
<polygon fill="#757575" stroke="#757575" points="149.58,-35.82 142.58,-27.86 143.09,-38.45 149.58,-35.82"/>
</g>
<!-- pages/Results.tsx -->
<g id="node7" class="node">
<title>pages/Results.tsx</title>
<path fill="none" stroke="#c6c5fe" d="M204.1,-60.06C204.1,-60.06 96.43,-60.06 96.43,-60.06 92.6,-60.06 88.77,-56.23 88.77,-52.39 88.77,-52.39 88.77,-44.73 88.77,-44.73 88.77,-40.89 92.6,-37.06 96.43,-37.06 96.43,-37.06 204.1,-37.06 204.1,-37.06 207.93,-37.06 211.77,-40.89 211.77,-44.73 211.77,-44.73 211.77,-52.39 211.77,-52.39 211.77,-56.23 207.93,-60.06 204.1,-60.06"/>
<text text-anchor="middle" x="150.27" y="-44.86" font-family="Arial" font-size="14.00" fill="#c6c5fe">pages/Results.tsx</text>
</g>
<!-- App.tsx&#45;&gt;pages/Results.tsx -->
<g id="edge6" class="edge">
<title>App.tsx&#45;&gt;pages/Results.tsx</title>
<path fill="none" stroke="#757575" d="M150.24,-48.47C150.24,-48.48 150.24,-48.49 150.25,-48.51"/>
<polygon fill="#757575" stroke="#757575" points="143.84,-40.09 150.26,-48.54 150.51,-37.93 143.84,-40.09"/>
</g>
<!-- lib/mutations.ts -->
<g id="node9" class="node">
<title>lib/mutations.ts</title>
<path fill="none" stroke="#c6c5fe" d="M174.49,-79.39C174.49,-79.39 82.83,-79.39 82.83,-79.39 78.99,-79.39 75.16,-75.55 75.16,-71.72 75.16,-71.72 75.16,-64.05 75.16,-64.05 75.16,-60.22 78.99,-56.39 82.83,-56.39 82.83,-56.39 174.49,-56.39 174.49,-56.39 178.33,-56.39 182.16,-60.22 182.16,-64.05 182.16,-64.05 182.16,-71.72 182.16,-71.72 182.16,-75.55 178.33,-79.39 174.49,-79.39"/>
<text text-anchor="middle" x="128.66" y="-64.19" font-family="Arial" font-size="14.00" fill="#c6c5fe">lib/mutations.ts</text>
</g>
<!-- pages/GameSetup.tsx&#45;&gt;lib/mutations.ts -->
<g id="edge28" class="edge">
<title>pages/GameSetup.tsx&#45;&gt;lib/mutations.ts</title>
<path fill="none" stroke="#757575" d="M109,-48.05C109.33,-48.38 109.67,-48.72 110,-49.05"/>
<polygon fill="#757575" stroke="#757575" points="107.57,-51.57 117.09,-56.21 112.54,-46.64 107.57,-51.57"/>
</g>
<!-- components/Alert.tsx -->
<g id="node10" class="node">
<title>components/Alert.tsx</title>
<path fill="none" stroke="#cfffac" d="M153.17,-46.44C153.17,-46.44 25.5,-46.44 25.5,-46.44 21.67,-46.44 17.83,-42.61 17.83,-38.77 17.83,-38.77 17.83,-31.11 17.83,-31.11 17.83,-27.27 21.67,-23.44 25.5,-23.44 25.5,-23.44 153.17,-23.44 153.17,-23.44 157,-23.44 160.83,-27.27 160.83,-31.11 160.83,-31.11 160.83,-38.77 160.83,-38.77 160.83,-42.61 157,-46.44 153.17,-46.44"/>
<text text-anchor="middle" x="89.33" y="-31.24" font-family="Arial" font-size="14.00" fill="#cfffac">components/Alert.tsx</text>
</g>
<!-- pages/GameSetup.tsx&#45;&gt;components/Alert.tsx -->
<g id="edge26" class="edge">
<title>pages/GameSetup.tsx&#45;&gt;components/Alert.tsx</title>
<path fill="none" stroke="#757575" d="M89.42,-34.95C89.41,-34.95 89.39,-34.95 89.38,-34.95"/>
<polygon fill="#757575" stroke="#757575" points="99.81,-33.17 89.36,-34.94 98.63,-40.07 99.81,-33.17"/>
</g>
<!-- components/LobbyStatus.tsx -->
<g id="node11" class="node">
<title>components/LobbyStatus.tsx</title>
<path fill="none" stroke="#c6c5fe" d="M183.33,-56.1C183.33,-56.1 7.67,-56.1 7.67,-56.1 3.83,-56.1 0,-52.26 0,-48.43 0,-48.43 0,-40.76 0,-40.76 0,-36.93 3.83,-33.1 7.67,-33.1 7.67,-33.1 183.33,-33.1 183.33,-33.1 187.17,-33.1 191,-36.93 191,-40.76 191,-40.76 191,-48.43 191,-48.43 191,-52.26 187.17,-56.1 183.33,-56.1"/>
<text text-anchor="middle" x="95.5" y="-40.9" font-family="Arial" font-size="14.00" fill="#c6c5fe">components/LobbyStatus.tsx</text>
</g>
<!-- pages/GameSetup.tsx&#45;&gt;components/LobbyStatus.tsx -->
<g id="edge27" class="edge">
<title>pages/GameSetup.tsx&#45;&gt;components/LobbyStatus.tsx</title>
<path fill="none" stroke="#757575" d="M95.52,-44.5C95.52,-44.52 95.51,-44.53 95.51,-44.54"/>
<polygon fill="#757575" stroke="#757575" points="94.27,-34.04 95.51,-44.57 101.11,-35.57 94.27,-34.04"/>
</g>
<!-- lib/supabaseClient.ts -->
<g id="node12" class="node">
<title>lib/supabaseClient.ts</title>
<path fill="none" stroke="#cfffac" d="M162.75,-64.11C162.75,-64.11 37.08,-64.11 37.08,-64.11 33.25,-64.11 29.41,-60.27 29.41,-56.44 29.41,-56.44 29.41,-48.77 29.41,-48.77 29.41,-44.94 33.25,-41.11 37.08,-41.11 37.08,-41.11 162.75,-41.11 162.75,-41.11 166.58,-41.11 170.41,-44.94 170.41,-48.77 170.41,-48.77 170.41,-56.44 170.41,-56.44 170.41,-60.27 166.58,-64.11 162.75,-64.11"/>
<text text-anchor="middle" x="99.91" y="-48.91" font-family="Arial" font-size="14.00" fill="#cfffac">lib/supabaseClient.ts</text>
</g>
<!-- pages/GameSetup.tsx&#45;&gt;lib/supabaseClient.ts -->
<g id="edge29" class="edge">
<title>pages/GameSetup.tsx&#45;&gt;lib/supabaseClient.ts</title>
<path fill="none" stroke="#757575" d="M99.15,-47.79C99.17,-47.88 99.18,-47.96 99.19,-48.05"/>
<polygon fill="#757575" stroke="#757575" points="94.22,-38.96 99.23,-48.29 101.13,-37.87 94.22,-38.96"/>
</g>
<!-- lib/types.ts -->
<g id="node18" class="node">
<title>lib/types.ts</title>
<path fill="none" stroke="#c6c5fe" d="M144.4,-25.33C144.4,-25.33 79.74,-25.33 79.74,-25.33 75.9,-25.33 72.07,-21.5 72.07,-17.66 72.07,-17.66 72.07,-10 72.07,-10 72.07,-6.16 75.9,-2.33 79.74,-2.33 79.74,-2.33 144.4,-2.33 144.4,-2.33 148.24,-2.33 152.07,-6.16 152.07,-10 152.07,-10 152.07,-17.66 152.07,-17.66 152.07,-21.5 148.24,-25.33 144.4,-25.33"/>
<text text-anchor="middle" x="112.07" y="-10.13" font-family="Arial" font-size="14.00" fill="#c6c5fe">lib/types.ts</text>
</g>
<!-- pages/GameSetup.tsx&#45;&gt;lib/types.ts -->
<g id="edge30" class="edge">
<title>pages/GameSetup.tsx&#45;&gt;lib/types.ts</title>
<path fill="none" stroke="#757575" d="M105.05,-24.53C105.08,-24.48 105.11,-24.44 105.13,-24.4"/>
<polygon fill="#757575" stroke="#757575" points="102.65,-34.56 105.22,-24.27 96.8,-30.71 102.65,-34.56"/>
</g>
<!-- components/ActiveGames.tsx -->
<g id="node8" class="node">
<title>components/ActiveGames.tsx</title>
<path fill="none" stroke="#c6c5fe" d="M227.5,-75.54C227.5,-75.54 45.83,-75.54 45.83,-75.54 42,-75.54 38.16,-71.71 38.16,-67.88 38.16,-67.88 38.16,-60.21 38.16,-60.21 38.16,-56.38 42,-52.54 45.83,-52.54 45.83,-52.54 227.5,-52.54 227.5,-52.54 231.33,-52.54 235.16,-56.38 235.16,-60.21 235.16,-60.21 235.16,-67.88 235.16,-67.88 235.16,-71.71 231.33,-75.54 227.5,-75.54"/>
<text text-anchor="middle" x="136.66" y="-60.34" font-family="Arial" font-size="14.00" fill="#c6c5fe">components/ActiveGames.tsx</text>
</g>
<!-- pages/Homepage.tsx&#45;&gt;components/ActiveGames.tsx -->
<g id="edge31" class="edge">
<title>pages/Homepage.tsx&#45;&gt;components/ActiveGames.tsx</title>
<path fill="none" stroke="#757575" d="M136.75,-63.96C136.74,-63.97 136.73,-63.98 136.71,-64"/>
<polygon fill="#757575" stroke="#757575" points="141.61,-54.63 136.69,-64.02 146.39,-59.74 141.61,-54.63"/>
</g>
<!-- pages/Homepage.tsx&#45;&gt;lib/mutations.ts -->
<g id="edge33" class="edge">
<title>pages/Homepage.tsx&#45;&gt;lib/mutations.ts</title>
<path fill="none" stroke="#757575" d="M128.71,-67.85C128.7,-67.86 128.69,-67.86 128.69,-67.87"/>
<polygon fill="#757575" stroke="#757575" points="134.82,-59.22 128.67,-67.88 138.87,-64.94 134.82,-59.22"/>
</g>
<!-- components/PasswordModal.tsx -->
<g id="node14" class="node">
<title>components/PasswordModal.tsx</title>
<path fill="none" stroke="#cfffac" d="M251,-74.31C251,-74.31 54.34,-74.31 54.34,-74.31 50.5,-74.31 46.67,-70.48 46.67,-66.65 46.67,-66.65 46.67,-58.98 46.67,-58.98 46.67,-55.15 50.5,-51.31 54.34,-51.31 54.34,-51.31 251,-51.31 251,-51.31 254.84,-51.31 258.67,-55.15 258.67,-58.98 258.67,-58.98 258.67,-66.65 258.67,-66.65 258.67,-70.48 254.84,-74.31 251,-74.31"/>
<text text-anchor="middle" x="152.67" y="-59.11" font-family="Arial" font-size="14.00" fill="#cfffac">components/PasswordModal.tsx</text>
</g>
<!-- pages/Homepage.tsx&#45;&gt;components/PasswordModal.tsx -->
<g id="edge32" class="edge">
<title>pages/Homepage.tsx&#45;&gt;components/PasswordModal.tsx</title>
<path fill="none" stroke="#757575" d="M152.58,-62.74C152.6,-62.75 152.61,-62.76 152.62,-62.77"/>
<polygon fill="#757575" stroke="#757575" points="142.6,-59.39 152.65,-62.79 146.92,-53.87 142.6,-59.39"/>
</g>
<!-- pages/Join.tsx&#45;&gt;lib/mutations.ts -->
<g id="edge34" class="edge">
<title>pages/Join.tsx&#45;&gt;lib/mutations.ts</title>
<path fill="none" stroke="#757575" d="M128.57,-67.9C128.58,-67.89 128.6,-67.89 128.61,-67.89"/>
<polygon fill="#757575" stroke="#757575" points="119.09,-72.49 128.64,-67.89 118.3,-65.54 119.09,-72.49"/>
</g>
<!-- pages/Join.tsx&#45;&gt;lib/supabaseClient.ts -->
<g id="edge35" class="edge">
<title>pages/Join.tsx&#45;&gt;lib/supabaseClient.ts</title>
<path fill="none" stroke="#757575" d="M105.58,-57.02C105.53,-56.98 105.48,-56.94 105.43,-56.9"/>
<polygon fill="#757575" stroke="#757575" points="115.32,-60.18 105.28,-56.79 111.02,-65.7 115.32,-60.18"/>
</g>
<!-- pages/Lobby.tsx&#45;&gt;lib/mutations.ts -->
<g id="edge36" class="edge">
<title>pages/Lobby.tsx&#45;&gt;lib/mutations.ts</title>
<path fill="none" stroke="#757575" d="M143.12,-42.99C142.27,-44.45 141.39,-45.98 140.49,-47.53"/>
<polygon fill="#757575" stroke="#757575" points="137.38,-45.91 135.38,-56.31 143.43,-49.42 137.38,-45.91"/>
</g>
<!-- pages/Lobby.tsx&#45;&gt;lib/supabaseClient.ts -->
<g id="edge38" class="edge">
<title>pages/Lobby.tsx&#45;&gt;lib/supabaseClient.ts</title>
<path fill="none" stroke="#757575" d="M122.53,-43.02C122.48,-43.04 122.44,-43.06 122.39,-43.08"/>
<polygon fill="#757575" stroke="#757575" points="130.1,-36.01 122.26,-43.14 132.83,-42.46 130.1,-36.01"/>
</g>
<!-- lib/sessionHooks.ts -->
<g id="node23" class="node">
<title>lib/sessionHooks.ts</title>
<path fill="none" stroke="#c6c5fe" d="M204.16,-34.96C204.16,-34.96 87.5,-34.96 87.5,-34.96 83.66,-34.96 79.83,-31.13 79.83,-27.29 79.83,-27.29 79.83,-19.63 79.83,-19.63 79.83,-15.79 83.66,-11.96 87.5,-11.96 87.5,-11.96 204.16,-11.96 204.16,-11.96 208,-11.96 211.83,-15.79 211.83,-19.63 211.83,-19.63 211.83,-27.29 211.83,-27.29 211.83,-31.13 208,-34.96 204.16,-34.96"/>
<text text-anchor="middle" x="145.83" y="-19.76" font-family="Arial" font-size="14.00" fill="#c6c5fe">lib/sessionHooks.ts</text>
</g>
<!-- pages/Lobby.tsx&#45;&gt;lib/sessionHooks.ts -->
<g id="edge37" class="edge">
<title>pages/Lobby.tsx&#45;&gt;lib/sessionHooks.ts</title>
<path fill="none" stroke="#757575" d="M145.87,-23.55C145.87,-23.53 145.86,-23.52 145.86,-23.51"/>
<polygon fill="#757575" stroke="#757575" points="153.45,-30.87 145.84,-23.48 147.18,-34 153.45,-30.87"/>
</g>
<!-- lib/types/supabase.ts -->
<g id="node25" class="node">
<title>lib/types/supabase.ts</title>
<path fill="none" stroke="#cfffac" d="M161.58,-38.57C161.58,-38.57 33.91,-38.57 33.91,-38.57 30.08,-38.57 26.24,-34.74 26.24,-30.91 26.24,-30.91 26.24,-23.24 26.24,-23.24 26.24,-19.41 30.08,-15.57 33.91,-15.57 33.91,-15.57 161.58,-15.57 161.58,-15.57 165.41,-15.57 169.24,-19.41 169.24,-23.24 169.24,-23.24 169.24,-30.91 169.24,-30.91 169.24,-34.74 165.41,-38.57 161.58,-38.57"/>
<text text-anchor="middle" x="97.74" y="-23.37" font-family="Arial" font-size="14.00" fill="#cfffac">lib/types/supabase.ts</text>
</g>
<!-- pages/Lobby.tsx&#45;&gt;lib/types/supabase.ts -->
<g id="edge39" class="edge">
<title>pages/Lobby.tsx&#45;&gt;lib/types/supabase.ts</title>
<path fill="none" stroke="#757575" d="M97.89,-27.09C97.87,-27.08 97.85,-27.08 97.83,-27.08"/>
<polygon fill="#757575" stroke="#757575" points="108.05,-24.45 97.78,-27.08 107.45,-31.42 108.05,-24.45"/>
</g>
<!-- pages/Quiz.tsx&#45;&gt;lib/mutations.ts -->
<g id="edge40" class="edge">
<title>pages/Quiz.tsx&#45;&gt;lib/mutations.ts</title>
<path fill="none" stroke="#757575" d="M135.75,-27.85C134.78,-33.28 133.61,-39.9 132.5,-46.19"/>
<polygon fill="#757575" stroke="#757575" points="129.03,-45.72 130.73,-56.18 135.92,-46.94 129.03,-45.72"/>
</g>
<!-- pages/Quiz.tsx&#45;&gt;lib/types.ts -->
<g id="edge43" class="edge">
<title>pages/Quiz.tsx&#45;&gt;lib/types.ts</title>
<path fill="none" stroke="#757575" d="M112.14,-13.84C112.13,-13.83 112.12,-13.83 112.11,-13.83"/>
<polygon fill="#757575" stroke="#757575" points="122.37,-11.26 112.09,-13.83 121.73,-18.23 122.37,-11.26"/>
</g>
<!-- lib/realtimeHooks.ts -->
<g id="node21" class="node">
<title>lib/realtimeHooks.ts</title>
<path fill="none" stroke="#c6c5fe" d="M189.5,-23.81C189.5,-23.81 69.84,-23.81 69.84,-23.81 66,-23.81 62.17,-19.97 62.17,-16.14 62.17,-16.14 62.17,-8.47 62.17,-8.47 62.17,-4.64 66,-0.81 69.84,-0.81 69.84,-0.81 189.5,-0.81 189.5,-0.81 193.34,-0.81 197.17,-4.64 197.17,-8.47 197.17,-8.47 197.17,-16.14 197.17,-16.14 197.17,-19.97 193.34,-23.81 189.5,-23.81"/>
<text text-anchor="middle" x="129.67" y="-8.61" font-family="Arial" font-size="14.00" fill="#c6c5fe">lib/realtimeHooks.ts</text>
</g>
<!-- pages/Quiz.tsx&#45;&gt;lib/realtimeHooks.ts -->
<g id="edge41" class="edge">
<title>pages/Quiz.tsx&#45;&gt;lib/realtimeHooks.ts</title>
<path fill="none" stroke="#757575" d="M129.76,-12.35C129.75,-12.34 129.73,-12.34 129.72,-12.33"/>
<polygon fill="#757575" stroke="#757575" points="140.25,-13.37 129.69,-12.32 137.29,-19.72 140.25,-13.37"/>
</g>
<!-- pages/Quiz.tsx&#45;&gt;lib/sessionHooks.ts -->
<g id="edge42" class="edge">
<title>pages/Quiz.tsx&#45;&gt;lib/sessionHooks.ts</title>
<path fill="none" stroke="#757575" d="M145.74,-23.38C145.75,-23.39 145.77,-23.4 145.78,-23.41"/>
<polygon fill="#757575" stroke="#757575" points="136.07,-19.24 145.81,-23.44 140.81,-14.08 136.07,-19.24"/>
</g>
<!-- pages/Results.tsx&#45;&gt;lib/mutations.ts -->
<g id="edge44" class="edge">
<title>pages/Results.tsx&#45;&gt;lib/mutations.ts</title>
<path fill="none" stroke="#757575" d="M136.95,-60.47C136.88,-60.53 136.81,-60.59 136.74,-60.66"/>
<polygon fill="#757575" stroke="#757575" points="141.66,-51.56 136.54,-60.84 146.32,-56.78 141.66,-51.56"/>
</g>
<!-- pages/Results.tsx&#45;&gt;lib/supabaseClient.ts -->
<g id="edge46" class="edge">
<title>pages/Results.tsx&#45;&gt;lib/supabaseClient.ts</title>
<path fill="none" stroke="#757575" d="M100.06,-52.59C100.03,-52.6 100.01,-52.6 99.99,-52.6"/>
<polygon fill="#757575" stroke="#757575" points="109.63,-48.29 99.95,-52.6 110.2,-55.27 109.63,-48.29"/>
</g>
<!-- pages/Results.tsx&#45;&gt;lib/sessionHooks.ts -->
<g id="edge45" class="edge">
<title>pages/Results.tsx&#45;&gt;lib/sessionHooks.ts</title>
<path fill="none" stroke="#757575" d="M148.2,-36.89C148.18,-36.74 148.15,-36.58 148.12,-36.43"/>
<polygon fill="#757575" stroke="#757575" points="153.06,-44.28 147.88,-35.05 146.17,-45.5 153.06,-44.28"/>
</g>
<!-- components/ActiveGames.tsx&#45;&gt;lib/mutations.ts -->
<g id="edge7" class="edge">
<title>components/ActiveGames.tsx&#45;&gt;lib/mutations.ts</title>
<path fill="none" stroke="#757575" d="M128.75,-67.84C128.73,-67.85 128.72,-67.86 128.71,-67.86"/>
<polygon fill="#757575" stroke="#757575" points="136.18,-60.37 128.68,-67.88 139.22,-66.68 136.18,-60.37"/>
</g>
<!-- lib/mutations.ts&#45;&gt;lib/supabaseClient.ts -->
<g id="edge14" class="edge">
<title>lib/mutations.ts&#45;&gt;lib/supabaseClient.ts</title>
<path fill="none" stroke="#757575" d="M106.87,-56.3C106.81,-56.27 106.75,-56.24 106.68,-56.2"/>
<polygon fill="#757575" stroke="#757575" points="116.97,-57.71 106.5,-56.11 113.69,-63.89 116.97,-57.71"/>
</g>
<!-- lib/mutations.ts&#45;&gt;lib/types.ts -->
<g id="edge15" class="edge">
<title>lib/mutations.ts&#45;&gt;lib/types.ts</title>
<path fill="none" stroke="#757575" d="M125.06,-56.16C123.19,-50.06 120.85,-42.43 118.67,-35.32"/>
<polygon fill="#757575" stroke="#757575" points="121.94,-34.07 115.66,-25.54 115.25,-36.12 121.94,-34.07"/>
</g>
<!-- components/LobbyStatus.tsx&#45;&gt;lib/supabaseClient.ts -->
<g id="edge8" class="edge">
<title>components/LobbyStatus.tsx&#45;&gt;lib/supabaseClient.ts</title>
<path fill="none" stroke="#757575" d="M99.86,-52.52C99.87,-52.53 99.88,-52.54 99.88,-52.55"/>
<polygon fill="#757575" stroke="#757575" points="91.99,-45.51 99.9,-52.58 98.12,-42.13 91.99,-45.51"/>
</g>
<!-- components/PasswordModal.test.tsx -->
<g id="node13" class="node">
<title>components/PasswordModal.test.tsx</title>
<path fill="none" stroke="#c6c5fe" d="M272.01,-80.79C272.01,-80.79 49.34,-80.79 49.34,-80.79 45.51,-80.79 41.68,-76.95 41.68,-73.12 41.68,-73.12 41.68,-65.45 41.68,-65.45 41.68,-61.62 45.51,-57.79 49.34,-57.79 49.34,-57.79 272.01,-57.79 272.01,-57.79 275.84,-57.79 279.68,-61.62 279.68,-65.45 279.68,-65.45 279.68,-73.12 279.68,-73.12 279.68,-76.95 275.84,-80.79 272.01,-80.79"/>
<text text-anchor="middle" x="160.68" y="-65.59" font-family="Arial" font-size="14.00" fill="#c6c5fe">components/PasswordModal.test.tsx</text>
</g>
<!-- components/PasswordModal.test.tsx&#45;&gt;components/PasswordModal.tsx -->
<g id="edge9" class="edge">
<title>components/PasswordModal.test.tsx&#45;&gt;components/PasswordModal.tsx</title>
<path fill="none" stroke="#757575" d="M152.76,-62.89C152.75,-62.87 152.73,-62.86 152.72,-62.85"/>
<polygon fill="#757575" stroke="#757575" points="162.68,-66.41 152.69,-62.83 158.27,-71.85 162.68,-66.41"/>
</g>
<!-- index.css -->
<g id="node15" class="node">
<title>index.css</title>
<path fill="none" stroke="#cfffac" d="M192.44,-51.76C192.44,-51.76 134.77,-51.76 134.77,-51.76 130.94,-51.76 127.11,-47.93 127.11,-44.09 127.11,-44.09 127.11,-36.43 127.11,-36.43 127.11,-32.59 130.94,-28.76 134.77,-28.76 134.77,-28.76 192.44,-28.76 192.44,-28.76 196.27,-28.76 200.11,-32.59 200.11,-36.43 200.11,-36.43 200.11,-44.09 200.11,-44.09 200.11,-47.93 196.27,-51.76 192.44,-51.76"/>
<text text-anchor="middle" x="163.61" y="-36.56" font-family="Arial" font-size="14.00" fill="#cfffac">index.css</text>
</g>
<!-- lib/createSession.test.ts -->
<g id="node16" class="node">
<title>lib/createSession.test.ts</title>
<path fill="none" stroke="#c6c5fe" d="M184.48,-77.87C184.48,-77.87 40.82,-77.87 40.82,-77.87 36.98,-77.87 33.15,-74.03 33.15,-70.2 33.15,-70.2 33.15,-62.53 33.15,-62.53 33.15,-58.7 36.98,-54.87 40.82,-54.87 40.82,-54.87 184.48,-54.87 184.48,-54.87 188.32,-54.87 192.15,-58.7 192.15,-62.53 192.15,-62.53 192.15,-70.2 192.15,-70.2 192.15,-74.03 188.32,-77.87 184.48,-77.87"/>
<text text-anchor="middle" x="112.65" y="-62.67" font-family="Arial" font-size="14.00" fill="#c6c5fe">lib/createSession.test.ts</text>
</g>
<!-- lib/createSession.test.ts&#45;&gt;lib/mutations.ts -->
<g id="edge10" class="edge">
<title>lib/createSession.test.ts&#45;&gt;lib/mutations.ts</title>
<path fill="none" stroke="#757575" d="M128.61,-67.88C128.62,-67.88 128.63,-67.88 128.63,-67.88"/>
<polygon fill="#757575" stroke="#757575" points="118.34,-70.36 128.65,-67.89 119.04,-63.39 118.34,-70.36"/>
</g>
<!-- lib/createSession.test.ts&#45;&gt;lib/supabaseClient.ts -->
<g id="edge11" class="edge">
<title>lib/createSession.test.ts&#45;&gt;lib/supabaseClient.ts</title>
<path fill="none" stroke="#757575" d="M101.9,-54.76C101.83,-54.67 101.76,-54.6 101.68,-54.52"/>
<polygon fill="#757575" stroke="#757575" points="110.84,-59.25 101.47,-54.29 105.7,-64.01 110.84,-59.25"/>
</g>
<!-- lib/mutations.test.ts -->
<g id="node17" class="node">
<title>lib/mutations.test.ts</title>
<path fill="none" stroke="#c6c5fe" d="M179.58,-23C179.58,-23 61.91,-23 61.91,-23 58.08,-23 54.25,-19.17 54.25,-15.33 54.25,-15.33 54.25,-7.67 54.25,-7.67 54.25,-3.83 58.08,0 61.91,0 61.91,0 179.58,0 179.58,0 183.41,0 187.25,-3.83 187.25,-7.67 187.25,-7.67 187.25,-15.33 187.25,-15.33 187.25,-19.17 183.41,-23 179.58,-23"/>
<text text-anchor="middle" x="120.75" y="-7.8" font-family="Arial" font-size="14.00" fill="#c6c5fe">lib/mutations.test.ts</text>
</g>
<!-- lib/mutations.test.ts&#45;&gt;lib/mutations.ts -->
<g id="edge12" class="edge">
<title>lib/mutations.test.ts&#45;&gt;lib/mutations.ts</title>
<path fill="none" stroke="#757575" d="M122.39,-23.18C123.32,-29.84 124.52,-38.38 125.62,-46.22"/>
<polygon fill="#757575" stroke="#757575" points="122.17,-46.8 127.02,-56.22 129.1,-45.83 122.17,-46.8"/>
</g>
<!-- lib/mutations.test.ts&#45;&gt;lib/types.ts -->
<g id="edge13" class="edge">
<title>lib/mutations.test.ts&#45;&gt;lib/types.ts</title>
<path fill="none" stroke="#757575" d="M112.17,-13.8C112.15,-13.81 112.14,-13.81 112.12,-13.81"/>
<polygon fill="#757575" stroke="#757575" points="120.84,-7.83 112.09,-13.82 122.67,-14.59 120.84,-7.83"/>
</g>
<!-- lib/types/index.ts -->
<g id="node24" class="node">
<title>lib/types/index.ts</title>
<path fill="none" stroke="#c6c5fe" d="M154.4,-30.57C154.4,-30.57 53.73,-30.57 53.73,-30.57 49.9,-30.57 46.06,-26.73 46.06,-22.9 46.06,-22.9 46.06,-15.23 46.06,-15.23 46.06,-11.4 49.9,-7.57 53.73,-7.57 53.73,-7.57 154.4,-7.57 154.4,-7.57 158.23,-7.57 162.06,-11.4 162.06,-15.23 162.06,-15.23 162.06,-22.9 162.06,-22.9 162.06,-26.73 158.23,-30.57 154.4,-30.57"/>
<text text-anchor="middle" x="104.06" y="-15.37" font-family="Arial" font-size="14.00" fill="#c6c5fe">lib/types/index.ts</text>
</g>
<!-- lib/types.ts&#45;&gt;lib/types/index.ts -->
<g id="edge22" class="edge">
<title>lib/types.ts&#45;&gt;lib/types/index.ts</title>
<path fill="none" stroke="#757575" d="M104.15,-19.01C104.14,-19.02 104.13,-19.03 104.12,-19.03"/>
<polygon fill="#757575" stroke="#757575" points="110.54,-10.63 104.09,-19.05 114.38,-16.49 110.54,-10.63"/>
</g>
<!-- lib/mutations.validation.ts -->
<g id="node19" class="node">
<title>lib/mutations.validation.ts</title>
<path fill="none" stroke="#cfffac" d="M364.46,-131.77C364.46,-131.77 211.79,-131.77 211.79,-131.77 207.96,-131.77 204.12,-127.94 204.12,-124.11 204.12,-124.11 204.12,-116.44 204.12,-116.44 204.12,-112.61 207.96,-108.77 211.79,-108.77 211.79,-108.77 364.46,-108.77 364.46,-108.77 368.29,-108.77 372.12,-112.61 372.12,-116.44 372.12,-116.44 372.12,-124.11 372.12,-124.11 372.12,-127.94 368.29,-131.77 364.46,-131.77"/>
<text text-anchor="middle" x="288.12" y="-116.57" font-family="Arial" font-size="14.00" fill="#cfffac">lib/mutations.validation.ts</text>
</g>
<!-- lib/presence.ts -->
<g id="node20" class="node">
<title>lib/presence.ts</title>
<path fill="none" stroke="#c6c5fe" d="M136.2,-68.41C136.2,-68.41 47.53,-68.41 47.53,-68.41 43.7,-68.41 39.87,-64.58 39.87,-60.75 39.87,-60.75 39.87,-53.08 39.87,-53.08 39.87,-49.25 43.7,-45.41 47.53,-45.41 47.53,-45.41 136.2,-45.41 136.2,-45.41 140.03,-45.41 143.87,-49.25 143.87,-53.08 143.87,-53.08 143.87,-60.75 143.87,-60.75 143.87,-64.58 140.03,-68.41 136.2,-68.41"/>
<text text-anchor="middle" x="91.87" y="-53.21" font-family="Arial" font-size="14.00" fill="#c6c5fe">lib/presence.ts</text>
</g>
<!-- lib/presence.ts&#45;&gt;lib/supabaseClient.ts -->
<g id="edge16" class="edge">
<title>lib/presence.ts&#45;&gt;lib/supabaseClient.ts</title>
<path fill="none" stroke="#757575" d="M99.82,-52.65C99.84,-52.65 99.85,-52.64 99.86,-52.63"/>
<polygon fill="#757575" stroke="#757575" points="92.73,-60.44 99.89,-52.62 89.41,-54.27 92.73,-60.44"/>
</g>
<!-- lib/realtimeHooks.ts&#45;&gt;lib/supabaseClient.ts -->
<g id="edge17" class="edge">
<title>lib/realtimeHooks.ts&#45;&gt;lib/supabaseClient.ts</title>
<path fill="none" stroke="#757575" d="M120.9,-24.18C118.89,-26.91 116.69,-29.88 114.5,-32.85"/>
<polygon fill="#757575" stroke="#757575" points="111.64,-30.83 108.51,-40.96 117.27,-34.99 111.64,-30.83"/>
</g>
<!-- lib/realtimeHooks.ts&#45;&gt;lib/types.ts -->
<g id="edge18" class="edge">
<title>lib/realtimeHooks.ts&#45;&gt;lib/types.ts</title>
<path fill="none" stroke="#757575" d="M112.12,-13.82C112.11,-13.83 112.1,-13.83 112.1,-13.83"/>
<polygon fill="#757575" stroke="#757575" points="121.72,-9.42 112.08,-13.83 122.37,-16.4 121.72,-9.42"/>
</g>
<!-- lib/sessionCode.test.ts -->
<g id="node22" class="node">
<title>lib/sessionCode.test.ts</title>
<path fill="none" stroke="#c6c5fe" d="M172.98,-72.66C172.98,-72.66 36.31,-72.66 36.31,-72.66 32.48,-72.66 28.64,-68.83 28.64,-64.99 28.64,-64.99 28.64,-57.33 28.64,-57.33 28.64,-53.49 32.48,-49.66 36.31,-49.66 36.31,-49.66 172.98,-49.66 172.98,-49.66 176.81,-49.66 180.64,-53.49 180.64,-57.33 180.64,-57.33 180.64,-64.99 180.64,-64.99 180.64,-68.83 176.81,-72.66 172.98,-72.66"/>
<text text-anchor="middle" x="104.64" y="-57.46" font-family="Arial" font-size="14.00" fill="#c6c5fe">lib/sessionCode.test.ts</text>
</g>
<!-- lib/sessionCode.test.ts&#45;&gt;lib/mutations.ts -->
<g id="edge19" class="edge">
<title>lib/sessionCode.test.ts&#45;&gt;lib/mutations.ts</title>
<path fill="none" stroke="#757575" d="M128.59,-67.87C128.6,-67.87 128.61,-67.87 128.62,-67.88"/>
<polygon fill="#757575" stroke="#757575" points="118.06,-68.52 128.64,-67.88 119.97,-61.78 118.06,-68.52"/>
</g>
<!-- lib/sessionCode.test.ts&#45;&gt;lib/supabaseClient.ts -->
<g id="edge20" class="edge">
<title>lib/sessionCode.test.ts&#45;&gt;lib/supabaseClient.ts</title>
<path fill="none" stroke="#757575" d="M99.97,-52.7C99.96,-52.69 99.95,-52.67 99.94,-52.66"/>
<polygon fill="#757575" stroke="#757575" points="107.85,-59.68 99.93,-52.63 101.72,-63.08 107.85,-59.68"/>
</g>
<!-- lib/sessionHooks.ts&#45;&gt;lib/supabaseClient.ts -->
<g id="edge21" class="edge">
<title>lib/sessionHooks.ts&#45;&gt;lib/supabaseClient.ts</title>
<path fill="none" stroke="#757575" d="M127.68,-34.98C127.39,-35.16 127.1,-35.35 126.81,-35.54"/>
<polygon fill="#757575" stroke="#757575" points="124.8,-32.66 118.23,-40.98 128.55,-38.57 124.8,-32.66"/>
</g>
<!-- lib/types/index.ts&#45;&gt;lib/types/supabase.ts -->
<g id="edge23" class="edge">
<title>lib/types/index.ts&#45;&gt;lib/types/supabase.ts</title>
<path fill="none" stroke="#757575" d="M97.82,-26.98C97.8,-27 97.79,-27.01 97.79,-27.02"/>
<polygon fill="#757575" stroke="#757575" points="101.22,-17.02 97.76,-27.05 106.72,-21.37 101.22,-17.02"/>
</g>
<!-- main.tsx -->
<g id="node26" class="node">
<title>main.tsx</title>
<path fill="none" stroke="#c6c5fe" d="M181.93,-51.75C181.93,-51.75 129.27,-51.75 129.27,-51.75 125.43,-51.75 121.6,-47.92 121.6,-44.09 121.6,-44.09 121.6,-36.42 121.6,-36.42 121.6,-32.59 125.43,-28.75 129.27,-28.75 129.27,-28.75 181.93,-28.75 181.93,-28.75 185.77,-28.75 189.6,-32.59 189.6,-36.42 189.6,-36.42 189.6,-44.09 189.6,-44.09 189.6,-47.92 185.77,-51.75 181.93,-51.75"/>
<text text-anchor="middle" x="155.6" y="-36.55" font-family="Arial" font-size="14.00" fill="#c6c5fe">main.tsx</text>
</g>
<!-- main.tsx&#45;&gt;App.tsx -->
<g id="edge24" class="edge">
<title>main.tsx&#45;&gt;App.tsx</title>
<path fill="none" stroke="#757575" d="M147.68,-40.25C147.67,-40.25 147.66,-40.25 147.65,-40.25"/>
<polygon fill="#757575" stroke="#757575" points="157.63,-36.79 147.62,-40.25 157.6,-43.79 157.63,-36.79"/>
</g>
<!-- main.tsx&#45;&gt;index.css -->
<g id="edge25" class="edge">
<title>main.tsx&#45;&gt;index.css</title>
<path fill="none" stroke="#757575" d="M163.52,-40.26C163.53,-40.26 163.55,-40.26 163.56,-40.26"/>
<polygon fill="#757575" stroke="#757575" points="153.57,-43.72 163.58,-40.26 153.6,-36.72 153.57,-43.72"/>
</g>
<!-- setupTests.ts -->
<g id="node27" class="node">
<title>setupTests.ts</title>
<path fill="none" stroke="#cfffac" d="M171.96,-131.77C171.96,-131.77 92.29,-131.77 92.29,-131.77 88.46,-131.77 84.62,-127.94 84.62,-124.11 84.62,-124.11 84.62,-116.44 84.62,-116.44 84.62,-112.61 88.46,-108.77 92.29,-108.77 92.29,-108.77 171.96,-108.77 171.96,-108.77 175.79,-108.77 179.62,-112.61 179.62,-116.44 179.62,-116.44 179.62,-124.11 179.62,-124.11 179.62,-127.94 175.79,-131.77 171.96,-131.77"/>
<text text-anchor="middle" x="132.12" y="-116.57" font-family="Arial" font-size="14.00" fill="#cfffac">setupTests.ts</text>
</g>
</g>
</svg>
