<?xml version="1.0" encoding="UTF-8" standalone="no"?>
<!DOCTYPE svg PUBLIC "-//W3C//DTD SVG 1.1//EN"
 "http://www.w3.org/Graphics/SVG/1.1/DTD/svg11.dtd">
<!-- Generated by graphviz version 2.43.0 (0)
 -->
<!-- Title: G Pages: 1 -->
<svg width="427pt" height="234pt"
 viewBox="0.00 0.00 427.08 234.20" xmlns="http://www.w3.org/2000/svg" xmlns:xlink="http://www.w3.org/1999/xlink">
<g id="graph0" class="graph" transform="scale(1 1) rotate(0) translate(21.6 212.6)">
<title>G</title>
<polygon fill="#111111" stroke="transparent" points="-21.6,21.6 -21.6,-212.6 405.48,-212.6 405.48,21.6 -21.6,21.6"/>
<!-- App.tsx -->
<g id="node1" class="node">
<title>App.tsx</title>
<path fill="none" stroke="#c6c5fe" d="M123.8,-118.25C123.8,-118.25 77.13,-118.25 77.13,-118.25 73.3,-118.25 69.46,-114.42 69.46,-110.58 69.46,-110.58 69.46,-102.92 69.46,-102.92 69.46,-99.08 73.3,-95.25 77.13,-95.25 77.13,-95.25 123.8,-95.25 123.8,-95.25 127.63,-95.25 131.46,-99.08 131.46,-102.92 131.46,-102.92 131.46,-110.58 131.46,-110.58 131.46,-114.42 127.63,-118.25 123.8,-118.25"/>
<text text-anchor="middle" x="100.46" y="-103.05" font-family="Arial" font-size="14.00" fill="#c6c5fe">App.tsx</text>
</g>
<!-- pages/GameSetup.tsx -->
<g id="node2" class="node">
<title>pages/GameSetup.tsx</title>
<path fill="none" stroke="#c6c5fe" d="M211.08,-83.33C211.08,-83.33 74.41,-83.33 74.41,-83.33 70.58,-83.33 66.74,-79.5 66.74,-75.66 66.74,-75.66 66.74,-68 66.74,-68 66.74,-64.16 70.58,-60.33 74.41,-60.33 74.41,-60.33 211.08,-60.33 211.08,-60.33 214.91,-60.33 218.74,-64.16 218.74,-68 218.74,-68 218.74,-75.66 218.74,-75.66 218.74,-79.5 214.91,-83.33 211.08,-83.33"/>
<text text-anchor="middle" x="142.74" y="-68.13" font-family="Arial" font-size="14.00" fill="#c6c5fe">pages/GameSetup.tsx</text>
</g>
<!-- App.tsx&#45;&gt;pages/GameSetup.tsx -->
<g id="edge1" class="edge">
<title>App.tsx&#45;&gt;pages/GameSetup.tsx</title>
<path fill="none" stroke="#757575" d="M114.78,-94.93C116.75,-93.3 118.81,-91.6 120.87,-89.89"/>
<polygon fill="#757575" stroke="#757575" points="123.25,-92.47 128.73,-83.4 118.79,-87.07 123.25,-92.47"/>
</g>
<!-- pages/Homepage.tsx -->
<g id="node3" class="node">
<title>pages/Homepage.tsx</title>
<path fill="none" stroke="#c6c5fe" d="M181.3,-121.06C181.3,-121.06 51.64,-121.06 51.64,-121.06 47.8,-121.06 43.97,-117.22 43.97,-113.39 43.97,-113.39 43.97,-105.72 43.97,-105.72 43.97,-101.89 47.8,-98.06 51.64,-98.06 51.64,-98.06 181.3,-98.06 181.3,-98.06 185.14,-98.06 188.97,-101.89 188.97,-105.72 188.97,-105.72 188.97,-113.39 188.97,-113.39 188.97,-117.22 185.14,-121.06 181.3,-121.06"/>
<text text-anchor="middle" x="116.47" y="-105.86" font-family="Arial" font-size="14.00" fill="#c6c5fe">pages/Homepage.tsx</text>
</g>
<!-- App.tsx&#45;&gt;pages/Homepage.tsx -->
<g id="edge2" class="edge">
<title>App.tsx&#45;&gt;pages/Homepage.tsx</title>
<path fill="none" stroke="#757575" d="M116.42,-109.55C116.43,-109.55 116.44,-109.55 116.44,-109.55"/>
<polygon fill="#757575" stroke="#757575" points="105.98,-111.22 116.46,-109.55 107.23,-104.32 105.98,-111.22"/>
</g>
<!-- pages/Join.tsx -->
<g id="node4" class="node">
<title>pages/Join.tsx</title>
<path fill="none" stroke="#c6c5fe" d="M186.98,-99.34C186.98,-99.34 99.31,-99.34 99.31,-99.34 95.48,-99.34 91.64,-95.51 91.64,-91.67 91.64,-91.67 91.64,-84.01 91.64,-84.01 91.64,-80.17 95.48,-76.34 99.31,-76.34 99.31,-76.34 186.98,-76.34 186.98,-76.34 190.81,-76.34 194.64,-80.17 194.64,-84.01 194.64,-84.01 194.64,-91.67 194.64,-91.67 194.64,-95.51 190.81,-99.34 186.98,-99.34"/>
<text text-anchor="middle" x="143.14" y="-84.14" font-family="Arial" font-size="14.00" fill="#c6c5fe">pages/Join.tsx</text>
</g>
<!-- App.tsx&#45;&gt;pages/Join.tsx -->
<g id="edge3" class="edge">
<title>App.tsx&#45;&gt;pages/Join.tsx</title>
<path fill="none" stroke="#757575" d="M126.76,-95.1C126.83,-95.07 126.9,-95.04 126.97,-95.01"/>
<polygon fill="#757575" stroke="#757575" points="119.45,-102.17 127.18,-94.91 116.61,-95.77 119.45,-102.17"/>
</g>
<!-- pages/Lobby.tsx -->
<g id="node5" class="node">
<title>pages/Lobby.tsx</title>
<path fill="none" stroke="#c6c5fe" d="M127.65,-103.27C127.65,-103.27 28.98,-103.27 28.98,-103.27 25.15,-103.27 21.31,-99.43 21.31,-95.6 21.31,-95.6 21.31,-87.93 21.31,-87.93 21.31,-84.1 25.15,-80.27 28.98,-80.27 28.98,-80.27 127.65,-80.27 127.65,-80.27 131.48,-80.27 135.31,-84.1 135.31,-87.93 135.31,-87.93 135.31,-95.6 135.31,-95.6 135.31,-99.43 131.48,-103.27 127.65,-103.27"/>
<text text-anchor="middle" x="78.31" y="-88.07" font-family="Arial" font-size="14.00" fill="#c6c5fe">pages/Lobby.tsx</text>
</g>
<!-- App.tsx&#45;&gt;pages/Lobby.tsx -->
<g id="edge4" class="edge">
<title>App.tsx&#45;&gt;pages/Lobby.tsx</title>
<path fill="none" stroke="#757575" d="M83.45,-95.24C83.4,-95.21 83.36,-95.18 83.31,-95.15"/>
<polygon fill="#757575" stroke="#757575" points="93.42,-97.76 83.17,-95.06 89.5,-103.56 93.42,-97.76"/>
</g>
<!-- pages/Quiz.tsx -->
<g id="node6" class="node">
<title>pages/Quiz.tsx</title>
<path fill="none" stroke="#c6c5fe" d="M154.3,-121.59C154.3,-121.59 62.63,-121.59 62.63,-121.59 58.8,-121.59 54.97,-117.75 54.97,-113.92 54.97,-113.92 54.97,-106.25 54.97,-106.25 54.97,-102.42 58.8,-98.59 62.63,-98.59 62.63,-98.59 154.3,-98.59 154.3,-98.59 158.13,-98.59 161.97,-102.42 161.97,-106.25 161.97,-106.25 161.97,-113.92 161.97,-113.92 161.97,-117.75 158.13,-121.59 154.3,-121.59"/>
<text text-anchor="middle" x="108.47" y="-106.39" font-family="Arial" font-size="14.00" fill="#c6c5fe">pages/Quiz.tsx</text>
</g>
<!-- App.tsx&#45;&gt;pages/Quiz.tsx -->
<g id="edge5" class="edge">
<title>App.tsx&#45;&gt;pages/Quiz.tsx</title>
<path fill="none" stroke="#757575" d="M108.38,-110.05C108.39,-110.05 108.4,-110.06 108.42,-110.06"/>
<polygon fill="#757575" stroke="#757575" points="97.86,-109.44 108.44,-110.08 100.57,-102.98 97.86,-109.44"/>
</g>
<!-- pages/Results.tsx -->
<g id="node7" class="node">
<title>pages/Results.tsx</title>
<path fill="none" stroke="#c6c5fe" d="M146.3,-117.08C146.3,-117.08 38.63,-117.08 38.63,-117.08 34.8,-117.08 30.96,-113.24 30.96,-109.41 30.96,-109.41 30.96,-101.74 30.96,-101.74 30.96,-97.91 34.8,-94.08 38.63,-94.08 38.63,-94.08 146.3,-94.08 146.3,-94.08 150.13,-94.08 153.96,-97.91 153.96,-101.74 153.96,-101.74 153.96,-109.41 153.96,-109.41 153.96,-113.24 150.13,-117.08 146.3,-117.08"/>
<text text-anchor="middle" x="92.46" y="-101.88" font-family="Arial" font-size="14.00" fill="#c6c5fe">pages/Results.tsx</text>
</g>
<!-- App.tsx&#45;&gt;pages/Results.tsx -->
<g id="edge6" class="edge">
<title>App.tsx&#45;&gt;pages/Results.tsx</title>
<path fill="none" stroke="#757575" d="M92.55,-105.59C92.54,-105.59 92.52,-105.59 92.51,-105.58"/>
<polygon fill="#757575" stroke="#757575" points="102.9,-103.6 92.49,-105.58 101.86,-110.52 102.9,-103.6"/>
</g>
<!-- atoms/index.ts -->
<g id="node8" class="node">
<title>atoms/index.ts</title>
<path fill="none" stroke="#c6c5fe" d="M120.22,-95.26C120.22,-95.26 31.55,-95.26 31.55,-95.26 27.72,-95.26 23.88,-91.43 23.88,-87.6 23.88,-87.6 23.88,-79.93 23.88,-79.93 23.88,-76.1 27.72,-72.26 31.55,-72.26 31.55,-72.26 120.22,-72.26 120.22,-72.26 124.05,-72.26 127.88,-76.1 127.88,-79.93 127.88,-79.93 127.88,-87.6 127.88,-87.6 127.88,-91.43 124.05,-95.26 120.22,-95.26"/>
<text text-anchor="middle" x="75.88" y="-80.06" font-family="Arial" font-size="14.00" fill="#c6c5fe">atoms/index.ts</text>
</g>
<!-- pages/GameSetup.tsx&#45;&gt;atoms/index.ts -->
<g id="edge31" class="edge">
<title>pages/GameSetup.tsx&#45;&gt;atoms/index.ts</title>
<path fill="none" stroke="#757575" d="M78.11,-83.36C78.02,-83.38 77.93,-83.4 77.85,-83.41"/>
<polygon fill="#757575" stroke="#757575" points="86.83,-78.25 77.6,-83.45 88.06,-85.14 86.83,-78.25"/>
</g>
<!-- lib/mutations.ts -->
<g id="node11" class="node">
<title>lib/mutations.ts</title>
<path fill="none" stroke="#c6c5fe" d="M178.31,-115.34C178.31,-115.34 86.65,-115.34 86.65,-115.34 82.81,-115.34 78.98,-111.51 78.98,-107.68 78.98,-107.68 78.98,-100.01 78.98,-100.01 78.98,-96.18 82.81,-92.34 86.65,-92.34 86.65,-92.34 178.31,-92.34 178.31,-92.34 182.15,-92.34 185.98,-96.18 185.98,-100.01 185.98,-100.01 185.98,-107.68 185.98,-107.68 185.98,-111.51 182.15,-115.34 178.31,-115.34"/>
<text text-anchor="middle" x="132.48" y="-100.14" font-family="Arial" font-size="14.00" fill="#c6c5fe">lib/mutations.ts</text>
</g>
<!-- pages/GameSetup.tsx&#45;&gt;lib/mutations.ts -->
<g id="edge34" class="edge">
<title>pages/GameSetup.tsx&#45;&gt;lib/mutations.ts</title>
<path fill="none" stroke="#757575" d="M139.04,-83.39C139.01,-83.48 138.98,-83.57 138.95,-83.66"/>
<polygon fill="#757575" stroke="#757575" points="135.93,-81.6 136.21,-92.19 142.6,-83.74 135.93,-81.6"/>
</g>
<!-- components/Alert.tsx -->
<g id="node12" class="node">
<title>components/Alert.tsx</title>
<path fill="none" stroke="#cfffac" d="M203.53,-107.34C203.53,-107.34 75.87,-107.34 75.87,-107.34 72.03,-107.34 68.2,-103.51 68.2,-99.68 68.2,-99.68 68.2,-92.01 68.2,-92.01 68.2,-88.18 72.03,-84.34 75.87,-84.34 75.87,-84.34 203.53,-84.34 203.53,-84.34 207.37,-84.34 211.2,-88.18 211.2,-92.01 211.2,-92.01 211.2,-99.68 211.2,-99.68 211.2,-103.51 207.37,-107.34 203.53,-107.34"/>
<text text-anchor="middle" x="139.7" y="-92.14" font-family="Arial" font-size="14.00" fill="#cfffac">components/Alert.tsx</text>
</g>
<!-- pages/GameSetup.tsx&#45;&gt;components/Alert.tsx -->
<g id="edge32" class="edge">
<title>pages/GameSetup.tsx&#45;&gt;components/Alert.tsx</title>
<path fill="none" stroke="#757575" d="M141.26,-83.56C141.24,-83.65 141.23,-83.75 141.22,-83.84"/>
<polygon fill="#757575" stroke="#757575" points="138.97,-73.76 141.18,-84.13 145.92,-74.65 138.97,-73.76"/>
</g>
<!-- components/LobbyStatus.tsx -->
<g id="node15" class="node">
<title>components/LobbyStatus.tsx</title>
<path fill="none" stroke="#c6c5fe" d="M226.91,-75.33C226.91,-75.33 51.24,-75.33 51.24,-75.33 47.41,-75.33 43.57,-71.5 43.57,-67.66 43.57,-67.66 43.57,-60 43.57,-60 43.57,-56.16 47.41,-52.33 51.24,-52.33 51.24,-52.33 226.91,-52.33 226.91,-52.33 230.74,-52.33 234.57,-56.16 234.57,-60 234.57,-60 234.57,-67.66 234.57,-67.66 234.57,-71.5 230.74,-75.33 226.91,-75.33"/>
<text text-anchor="middle" x="139.07" y="-60.13" font-family="Arial" font-size="14.00" fill="#c6c5fe">components/LobbyStatus.tsx</text>
</g>
<!-- pages/GameSetup.tsx&#45;&gt;components/LobbyStatus.tsx -->
<g id="edge33" class="edge">
<title>pages/GameSetup.tsx&#45;&gt;components/LobbyStatus.tsx</title>
<path fill="none" stroke="#757575" d="M139.12,-63.92C139.11,-63.9 139.1,-63.89 139.1,-63.88"/>
<polygon fill="#757575" stroke="#757575" points="146.45,-71.48 139.09,-63.85 140.09,-74.41 146.45,-71.48"/>
</g>
<!-- lib/supabaseClient.ts -->
<g id="node16" class="node">
<title>lib/supabaseClient.ts</title>
<path fill="none" stroke="#cfffac" d="M171.24,-58.18C171.24,-58.18 45.58,-58.18 45.58,-58.18 41.74,-58.18 37.91,-54.35 37.91,-50.52 37.91,-50.52 37.91,-42.85 37.91,-42.85 37.91,-39.02 41.74,-35.18 45.58,-35.18 45.58,-35.18 171.24,-35.18 171.24,-35.18 175.08,-35.18 178.91,-39.02 178.91,-42.85 178.91,-42.85 178.91,-50.52 178.91,-50.52 178.91,-54.35 175.08,-58.18 171.24,-58.18"/>
<text text-anchor="middle" x="108.41" y="-42.98" font-family="Arial" font-size="14.00" fill="#cfffac">lib/supabaseClient.ts</text>
</g>
<!-- pages/GameSetup.tsx&#45;&gt;lib/supabaseClient.ts -->
<g id="edge36" class="edge">
<title>pages/GameSetup.tsx&#45;&gt;lib/supabaseClient.ts</title>
<path fill="none" stroke="#757575" d="M126.78,-60.14C126.68,-60.06 126.57,-59.99 126.47,-59.91"/>
<polygon fill="#757575" stroke="#757575" points="134.39,-61.38 124.26,-58.29 130.26,-67.02 134.39,-61.38"/>
</g>
<!-- lib/types.ts -->
<g id="node24" class="node">
<title>lib/types.ts</title>
<path fill="none" stroke="#c6c5fe" d="M116.74,-71.25C116.74,-71.25 52.07,-71.25 52.07,-71.25 48.24,-71.25 44.4,-67.42 44.4,-63.58 44.4,-63.58 44.4,-55.92 44.4,-55.92 44.4,-52.08 48.24,-48.25 52.07,-48.25 52.07,-48.25 116.74,-48.25 116.74,-48.25 120.57,-48.25 124.4,-52.08 124.4,-55.92 124.4,-55.92 124.4,-63.58 124.4,-63.58 124.4,-67.42 120.57,-71.25 116.74,-71.25"/>
<text text-anchor="middle" x="84.4" y="-56.05" font-family="Arial" font-size="14.00" fill="#c6c5fe">lib/types.ts</text>
</g>
<!-- pages/GameSetup.tsx&#45;&gt;lib/types.ts -->
<g id="edge37" class="edge">
<title>pages/GameSetup.tsx&#45;&gt;lib/types.ts</title>
<path fill="none" stroke="#757575" d="M87.22,-60.33C87.16,-60.32 87.11,-60.31 87.05,-60.3"/>
<polygon fill="#757575" stroke="#757575" points="97.4,-58.87 86.89,-60.26 95.97,-65.72 97.4,-58.87"/>
</g>
<!-- lib/presence.ts -->
<g id="node26" class="node">
<title>lib/presence.ts</title>
<path fill="none" stroke="#c6c5fe" d="M168.75,-61.5C168.75,-61.5 80.08,-61.5 80.08,-61.5 76.25,-61.5 72.42,-57.66 72.42,-53.83 72.42,-53.83 72.42,-46.16 72.42,-46.16 72.42,-42.33 76.25,-38.5 80.08,-38.5 80.08,-38.5 168.75,-38.5 168.75,-38.5 172.58,-38.5 176.42,-42.33 176.42,-46.16 176.42,-46.16 176.42,-53.83 176.42,-53.83 176.42,-57.66 172.58,-61.5 168.75,-61.5"/>
<text text-anchor="middle" x="124.42" y="-46.3" font-family="Arial" font-size="14.00" fill="#c6c5fe">lib/presence.ts</text>
</g>
<!-- pages/GameSetup.tsx&#45;&gt;lib/presence.ts -->
<g id="edge35" class="edge">
<title>pages/GameSetup.tsx&#45;&gt;lib/presence.ts</title>
<path fill="none" stroke="#757575" d="M132.94,-60.15C132.87,-60.07 132.8,-59.98 132.73,-59.9"/>
<polygon fill="#757575" stroke="#757575" points="141.64,-65.07 132.53,-59.66 136.28,-69.57 141.64,-65.07"/>
</g>
<!-- components/ActiveGames.tsx -->
<g id="node10" class="node">
<title>components/ActiveGames.tsx</title>
<path fill="none" stroke="#c6c5fe" d="M215.31,-119.47C215.31,-119.47 33.64,-119.47 33.64,-119.47 29.81,-119.47 25.97,-115.64 25.97,-111.81 25.97,-111.81 25.97,-104.14 25.97,-104.14 25.97,-100.31 29.81,-96.47 33.64,-96.47 33.64,-96.47 215.31,-96.47 215.31,-96.47 219.14,-96.47 222.97,-100.31 222.97,-104.14 222.97,-104.14 222.97,-111.81 222.97,-111.81 222.97,-115.64 219.14,-119.47 215.31,-119.47"/>
<text text-anchor="middle" x="124.47" y="-104.27" font-family="Arial" font-size="14.00" fill="#c6c5fe">components/ActiveGames.tsx</text>
</g>
<!-- pages/Homepage.tsx&#45;&gt;components/ActiveGames.tsx -->
<g id="edge38" class="edge">
<title>pages/Homepage.tsx&#45;&gt;components/ActiveGames.tsx</title>
<path fill="none" stroke="#757575" d="M124.38,-107.99C124.4,-107.99 124.41,-107.99 124.42,-107.98"/>
<polygon fill="#757575" stroke="#757575" points="115.33,-113.38 124.45,-107.98 113.95,-106.51 115.33,-113.38"/>
</g>
<!-- pages/Homepage.tsx&#45;&gt;lib/mutations.ts -->
<g id="edge41" class="edge">
<title>pages/Homepage.tsx&#45;&gt;lib/mutations.ts</title>
<path fill="none" stroke="#757575" d="M132.43,-103.86C132.44,-103.86 132.45,-103.85 132.45,-103.85"/>
<polygon fill="#757575" stroke="#757575" points="124.24,-110.55 132.47,-103.85 121.85,-103.95 124.24,-110.55"/>
</g>
<!-- pages/Homepage.tsx&#45;&gt;components/Alert.tsx -->
<g id="edge39" class="edge">
<title>pages/Homepage.tsx&#45;&gt;components/Alert.tsx</title>
<path fill="none" stroke="#757575" d="M136.07,-97.98C136.14,-97.94 136.2,-97.9 136.27,-97.87"/>
<polygon fill="#757575" stroke="#757575" points="129.64,-105.85 136.47,-97.75 126.08,-99.82 129.64,-105.85"/>
</g>
<!-- components/PasswordModal.tsx -->
<g id="node18" class="node">
<title>components/PasswordModal.tsx</title>
<path fill="none" stroke="#cfffac" d="M216.49,-129.06C216.49,-129.06 19.82,-129.06 19.82,-129.06 15.99,-129.06 12.15,-125.23 12.15,-121.4 12.15,-121.4 12.15,-113.73 12.15,-113.73 12.15,-109.9 15.99,-106.06 19.82,-106.06 19.82,-106.06 216.49,-106.06 216.49,-106.06 220.32,-106.06 224.15,-109.9 224.15,-113.73 224.15,-113.73 224.15,-121.4 224.15,-121.4 224.15,-125.23 220.32,-129.06 216.49,-129.06"/>
<text text-anchor="middle" x="118.15" y="-113.86" font-family="Arial" font-size="14.00" fill="#cfffac">components/PasswordModal.tsx</text>
</g>
<!-- pages/Homepage.tsx&#45;&gt;components/PasswordModal.tsx -->
<g id="edge40" class="edge">
<title>pages/Homepage.tsx&#45;&gt;components/PasswordModal.tsx</title>
<path fill="none" stroke="#757575" d="M118.13,-117.47C118.14,-117.49 118.14,-117.5 118.14,-117.51"/>
<polygon fill="#757575" stroke="#757575" points="112.64,-108.48 118.15,-117.54 119.49,-107.02 112.64,-108.48"/>
</g>
<!-- pages/Join.tsx&#45;&gt;lib/mutations.ts -->
<g id="edge44" class="edge">
<title>pages/Join.tsx&#45;&gt;lib/mutations.ts</title>
<path fill="none" stroke="#757575" d="M135.39,-99.47C135.34,-99.55 135.29,-99.62 135.24,-99.7"/>
<polygon fill="#757575" stroke="#757575" points="137.72,-89.66 135.09,-99.93 143.55,-93.55 137.72,-89.66"/>
</g>
<!-- pages/Join.tsx&#45;&gt;components/Alert.tsx -->
<g id="edge42" class="edge">
<title>pages/Join.tsx&#45;&gt;components/Alert.tsx</title>
<path fill="none" stroke="#757575" d="M139.74,-95.75C139.73,-95.77 139.73,-95.78 139.72,-95.79"/>
<polygon fill="#757575" stroke="#757575" points="140.47,-85.24 139.71,-95.82 146.9,-88.02 140.47,-85.24"/>
</g>
<!-- pages/Join.tsx&#45;&gt;lib/supabaseClient.ts -->
<g id="edge45" class="edge">
<title>pages/Join.tsx&#45;&gt;lib/supabaseClient.ts</title>
<path fill="none" stroke="#757575" d="M133.28,-76.16C130.62,-73 127.67,-69.5 124.75,-66.05"/>
<polygon fill="#757575" stroke="#757575" points="127.3,-63.64 118.17,-58.26 121.95,-68.15 127.3,-63.64"/>
</g>
<!-- components/TeamLogoPicker.tsx -->
<g id="node20" class="node">
<title>components/TeamLogoPicker.tsx</title>
<path fill="none" stroke="#c6c5fe" d="M243.89,-91.33C243.89,-91.33 43.22,-91.33 43.22,-91.33 39.39,-91.33 35.55,-87.5 35.55,-83.67 35.55,-83.67 35.55,-76 35.55,-76 35.55,-72.17 39.39,-68.33 43.22,-68.33 43.22,-68.33 243.89,-68.33 243.89,-68.33 247.72,-68.33 251.55,-72.17 251.55,-76 251.55,-76 251.55,-83.67 251.55,-83.67 251.55,-87.5 247.72,-91.33 243.89,-91.33"/>
<text text-anchor="middle" x="143.55" y="-76.13" font-family="Arial" font-size="14.00" fill="#c6c5fe">components/TeamLogoPicker.tsx</text>
</g>
<!-- pages/Join.tsx&#45;&gt;components/TeamLogoPicker.tsx -->
<g id="edge43" class="edge">
<title>pages/Join.tsx&#45;&gt;components/TeamLogoPicker.tsx</title>
<path fill="none" stroke="#757575" d="M143.55,-79.92C143.55,-79.91 143.55,-79.9 143.55,-79.88"/>
<polygon fill="#757575" stroke="#757575" points="146.5,-90.03 143.55,-79.86 139.51,-89.65 146.5,-90.03"/>
</g>
<!-- pages/Lobby.tsx&#45;&gt;atoms/index.ts -->
<g id="edge46" class="edge">
<title>pages/Lobby.tsx&#45;&gt;atoms/index.ts</title>
<path fill="none" stroke="#757575" d="M75.91,-83.85C75.91,-83.84 75.9,-83.82 75.9,-83.81"/>
<polygon fill="#757575" stroke="#757575" points="82.17,-92.33 75.89,-83.78 75.47,-94.38 82.17,-92.33"/>
</g>
<!-- lib/types/supabase.ts -->
<g id="node9" class="node">
<title>lib/types/supabase.ts</title>
<path fill="none" stroke="#cfffac" d="M142.84,-79.25C142.84,-79.25 15.17,-79.25 15.17,-79.25 11.34,-79.25 7.51,-75.42 7.51,-71.58 7.51,-71.58 7.51,-63.92 7.51,-63.92 7.51,-60.08 11.34,-56.25 15.17,-56.25 15.17,-56.25 142.84,-56.25 142.84,-56.25 146.67,-56.25 150.51,-60.08 150.51,-63.92 150.51,-63.92 150.51,-71.58 150.51,-71.58 150.51,-75.42 146.67,-79.25 142.84,-79.25"/>
<text text-anchor="middle" x="79.01" y="-64.05" font-family="Arial" font-size="14.00" fill="#cfffac">lib/types/supabase.ts</text>
</g>
<!-- pages/Lobby.tsx&#45;&gt;lib/types/supabase.ts -->
<g id="edge50" class="edge">
<title>pages/Lobby.tsx&#45;&gt;lib/types/supabase.ts</title>
<path fill="none" stroke="#757575" d="M78.65,-80.04C78.65,-79.95 78.66,-79.85 78.66,-79.75"/>
<polygon fill="#757575" stroke="#757575" points="81.87,-89.57 78.67,-79.47 74.88,-89.36 81.87,-89.57"/>
</g>
<!-- pages/Lobby.tsx&#45;&gt;lib/mutations.ts -->
<g id="edge47" class="edge">
<title>pages/Lobby.tsx&#45;&gt;lib/mutations.ts</title>
<path fill="none" stroke="#757575" d="M130.15,-103.32C130.24,-103.34 130.33,-103.36 130.42,-103.38"/>
<polygon fill="#757575" stroke="#757575" points="120.15,-104.68 130.68,-103.44 121.68,-97.85 120.15,-104.68"/>
</g>
<!-- pages/Lobby.tsx&#45;&gt;lib/supabaseClient.ts -->
<g id="edge49" class="edge">
<title>pages/Lobby.tsx&#45;&gt;lib/supabaseClient.ts</title>
<path fill="none" stroke="#757575" d="M86.22,-79.92C88.94,-75.85 92.06,-71.18 95.09,-66.64"/>
<polygon fill="#757575" stroke="#757575" points="98.02,-68.56 100.66,-58.29 92.2,-64.67 98.02,-68.56"/>
</g>
<!-- lib/sessionHooks.ts -->
<g id="node29" class="node">
<title>lib/sessionHooks.ts</title>
<path fill="none" stroke="#c6c5fe" d="M142.79,-111.27C142.79,-111.27 26.13,-111.27 26.13,-111.27 22.29,-111.27 18.46,-107.44 18.46,-103.61 18.46,-103.61 18.46,-95.94 18.46,-95.94 18.46,-92.11 22.29,-88.27 26.13,-88.27 26.13,-88.27 142.79,-88.27 142.79,-88.27 146.63,-88.27 150.46,-92.11 150.46,-95.94 150.46,-95.94 150.46,-103.61 150.46,-103.61 150.46,-107.44 146.63,-111.27 142.79,-111.27"/>
<text text-anchor="middle" x="84.46" y="-96.07" font-family="Arial" font-size="14.00" fill="#c6c5fe">lib/sessionHooks.ts</text>
</g>
<!-- pages/Lobby.tsx&#45;&gt;lib/sessionHooks.ts -->
<g id="edge48" class="edge">
<title>pages/Lobby.tsx&#45;&gt;lib/sessionHooks.ts</title>
<path fill="none" stroke="#757575" d="M84.39,-99.68C84.4,-99.7 84.41,-99.71 84.42,-99.72"/>
<polygon fill="#757575" stroke="#757575" points="75.56,-93.95 84.44,-99.75 81.12,-89.68 75.56,-93.95"/>
</g>
<!-- pages/Quiz.tsx&#45;&gt;lib/mutations.ts -->
<g id="edge51" class="edge">
<title>pages/Quiz.tsx&#45;&gt;lib/mutations.ts</title>
<path fill="none" stroke="#757575" d="M132.41,-103.86C132.42,-103.86 132.43,-103.85 132.44,-103.85"/>
<polygon fill="#757575" stroke="#757575" points="123.67,-109.78 132.46,-103.85 121.89,-103.01 123.67,-109.78"/>
</g>
<!-- pages/Quiz.tsx&#45;&gt;lib/types.ts -->
<g id="edge54" class="edge">
<title>pages/Quiz.tsx&#45;&gt;lib/types.ts</title>
<path fill="none" stroke="#757575" d="M102.89,-98.41C100.33,-93.07 97.23,-86.59 94.31,-80.47"/>
<polygon fill="#757575" stroke="#757575" points="97.42,-78.87 89.95,-71.36 91.11,-81.89 97.42,-78.87"/>
</g>
<!-- lib/realtimeHooks.ts -->
<g id="node27" class="node">
<title>lib/realtimeHooks.ts</title>
<path fill="none" stroke="#c6c5fe" d="M160.24,-60.11C160.24,-60.11 40.57,-60.11 40.57,-60.11 36.74,-60.11 32.91,-56.27 32.91,-52.44 32.91,-52.44 32.91,-44.77 32.91,-44.77 32.91,-40.94 36.74,-37.11 40.57,-37.11 40.57,-37.11 160.24,-37.11 160.24,-37.11 164.07,-37.11 167.91,-40.94 167.91,-44.77 167.91,-44.77 167.91,-52.44 167.91,-52.44 167.91,-56.27 164.07,-60.11 160.24,-60.11"/>
<text text-anchor="middle" x="100.41" y="-44.91" font-family="Arial" font-size="14.00" fill="#c6c5fe">lib/realtimeHooks.ts</text>
</g>
<!-- pages/Quiz.tsx&#45;&gt;lib/realtimeHooks.ts -->
<g id="edge52" class="edge">
<title>pages/Quiz.tsx&#45;&gt;lib/realtimeHooks.ts</title>
<path fill="none" stroke="#757575" d="M106.95,-98.52C105.9,-90.54 104.48,-79.68 103.23,-70.12"/>
<polygon fill="#757575" stroke="#757575" points="106.69,-69.58 101.91,-60.12 99.74,-70.49 106.69,-69.58"/>
</g>
<!-- pages/Quiz.tsx&#45;&gt;lib/sessionHooks.ts -->
<g id="edge53" class="edge">
<title>pages/Quiz.tsx&#45;&gt;lib/sessionHooks.ts</title>
<path fill="none" stroke="#757575" d="M84.53,-99.8C84.52,-99.8 84.51,-99.79 84.5,-99.79"/>
<polygon fill="#757575" stroke="#757575" points="95.06,-100.54 84.48,-99.78 92.28,-106.97 95.06,-100.54"/>
</g>
<!-- pages/Results.tsx&#45;&gt;lib/mutations.ts -->
<g id="edge55" class="edge">
<title>pages/Results.tsx&#45;&gt;lib/mutations.ts</title>
<path fill="none" stroke="#757575" d="M132.36,-103.85C132.38,-103.85 132.4,-103.85 132.41,-103.84"/>
<polygon fill="#757575" stroke="#757575" points="122.62,-107.8 132.45,-103.84 122.3,-100.81 122.62,-107.8"/>
</g>
<!-- pages/Results.tsx&#45;&gt;lib/supabaseClient.ts -->
<g id="edge57" class="edge">
<title>pages/Results.tsx&#45;&gt;lib/supabaseClient.ts</title>
<path fill="none" stroke="#757575" d="M95.61,-93.94C97.6,-86.6 100.23,-76.9 102.59,-68.19"/>
<polygon fill="#757575" stroke="#757575" points="106.03,-68.86 105.27,-58.3 99.27,-67.03 106.03,-68.86"/>
</g>
<!-- pages/Results.tsx&#45;&gt;lib/sessionHooks.ts -->
<g id="edge56" class="edge">
<title>pages/Results.tsx&#45;&gt;lib/sessionHooks.ts</title>
<path fill="none" stroke="#757575" d="M84.55,-99.84C84.54,-99.83 84.52,-99.82 84.51,-99.81"/>
<polygon fill="#757575" stroke="#757575" points="94.64,-102.84 84.48,-99.79 90.53,-108.51 94.64,-102.84"/>
</g>
<!-- atoms/index.ts&#45;&gt;lib/types/supabase.ts -->
<g id="edge7" class="edge">
<title>atoms/index.ts&#45;&gt;lib/types/supabase.ts</title>
<path fill="none" stroke="#757575" d="M78.15,-72.13C78.17,-72.05 78.18,-71.97 78.2,-71.89"/>
<polygon fill="#757575" stroke="#757575" points="79.76,-82.15 78.24,-71.67 72.89,-80.81 79.76,-82.15"/>
</g>
<!-- components/ActiveGames.tsx&#45;&gt;lib/mutations.ts -->
<g id="edge8" class="edge">
<title>components/ActiveGames.tsx&#45;&gt;lib/mutations.ts</title>
<path fill="none" stroke="#757575" d="M132.39,-103.89C132.4,-103.88 132.42,-103.87 132.43,-103.87"/>
<polygon fill="#757575" stroke="#757575" points="125.18,-111.57 132.46,-103.85 121.96,-105.34 125.18,-111.57"/>
</g>
<!-- lib/mutations.ts&#45;&gt;lib/supabaseClient.ts -->
<g id="edge19" class="edge">
<title>lib/mutations.ts&#45;&gt;lib/supabaseClient.ts</title>
<path fill="none" stroke="#757575" d="M127.61,-92.28C124.64,-85.23 120.76,-76 117.26,-67.7"/>
<polygon fill="#757575" stroke="#757575" points="120.38,-66.09 113.27,-58.23 113.93,-68.81 120.38,-66.09"/>
</g>
<!-- lib/mutations.ts&#45;&gt;lib/types.ts -->
<g id="edge20" class="edge">
<title>lib/mutations.ts&#45;&gt;lib/types.ts</title>
<path fill="none" stroke="#757575" d="M119.85,-92.26C115.25,-88.04 109.92,-83.15 104.82,-78.47"/>
<polygon fill="#757575" stroke="#757575" points="106.85,-75.59 97.12,-71.41 102.12,-80.75 106.85,-75.59"/>
</g>
<!-- components/Flag.tsx -->
<g id="node13" class="node">
<title>components/Flag.tsx</title>
<path fill="none" stroke="#c6c5fe" d="M350.62,-23C350.62,-23 223.96,-23 223.96,-23 220.12,-23 216.29,-19.17 216.29,-15.33 216.29,-15.33 216.29,-7.67 216.29,-7.67 216.29,-3.83 220.12,0 223.96,0 223.96,0 350.62,0 350.62,0 354.46,0 358.29,-3.83 358.29,-7.67 358.29,-7.67 358.29,-15.33 358.29,-15.33 358.29,-19.17 354.46,-23 350.62,-23"/>
<text text-anchor="middle" x="287.29" y="-7.8" font-family="Arial" font-size="14.00" fill="#c6c5fe">components/Flag.tsx</text>
</g>
<!-- lib/flagIcons.ts -->
<g id="node14" class="node">
<title>lib/flagIcons.ts</title>
<path fill="none" stroke="#cfffac" d="M338.62,-23C338.62,-23 251.96,-23 251.96,-23 248.12,-23 244.29,-19.17 244.29,-15.33 244.29,-15.33 244.29,-7.67 244.29,-7.67 244.29,-3.83 248.12,0 251.96,0 251.96,0 338.62,0 338.62,0 342.46,0 346.29,-3.83 346.29,-7.67 346.29,-7.67 346.29,-15.33 346.29,-15.33 346.29,-19.17 342.46,-23 338.62,-23"/>
<text text-anchor="middle" x="295.29" y="-7.8" font-family="Arial" font-size="14.00" fill="#cfffac">lib/flagIcons.ts</text>
</g>
<!-- components/Flag.tsx&#45;&gt;lib/flagIcons.ts -->
<g id="edge9" class="edge">
<title>components/Flag.tsx&#45;&gt;lib/flagIcons.ts</title>
<path fill="none" stroke="#757575" d="M295.2,-11.5C295.22,-11.5 295.23,-11.5 295.24,-11.5"/>
<polygon fill="#757575" stroke="#757575" points="285.28,-15.04 295.27,-11.5 285.26,-8.04 285.28,-15.04"/>
</g>
<!-- components/LobbyStatus.tsx&#45;&gt;lib/supabaseClient.ts -->
<g id="edge10" class="edge">
<title>components/LobbyStatus.tsx&#45;&gt;lib/supabaseClient.ts</title>
<path fill="none" stroke="#757575" d="M118.45,-52.3C118.41,-52.27 118.36,-52.25 118.32,-52.23"/>
<polygon fill="#757575" stroke="#757575" points="128.63,-53.98 118.19,-52.15 125.21,-60.09 128.63,-53.98"/>
</g>
<!-- components/PasswordModal.test.tsx -->
<g id="node17" class="node">
<title>components/PasswordModal.test.tsx</title>
<path fill="none" stroke="#c6c5fe" d="M230.33,-137.32C230.33,-137.32 7.67,-137.32 7.67,-137.32 3.83,-137.32 0,-133.49 0,-129.65 0,-129.65 0,-121.99 0,-121.99 0,-118.15 3.83,-114.32 7.67,-114.32 7.67,-114.32 230.33,-114.32 230.33,-114.32 234.17,-114.32 238,-118.15 238,-121.99 238,-121.99 238,-129.65 238,-129.65 238,-133.49 234.17,-137.32 230.33,-137.32"/>
<text text-anchor="middle" x="119" y="-122.12" font-family="Arial" font-size="14.00" fill="#c6c5fe">components/PasswordModal.test.tsx</text>
</g>
<!-- components/PasswordModal.test.tsx&#45;&gt;components/PasswordModal.tsx -->
<g id="edge11" class="edge">
<title>components/PasswordModal.test.tsx&#45;&gt;components/PasswordModal.tsx</title>
<path fill="none" stroke="#757575" d="M118.16,-117.66C118.16,-117.64 118.16,-117.63 118.16,-117.62"/>
<polygon fill="#757575" stroke="#757575" points="122.69,-127.17 118.16,-117.59 115.72,-127.9 122.69,-127.17"/>
</g>
<!-- components/TeamLogoPicker.test.tsx -->
<g id="node19" class="node">
<title>components/TeamLogoPicker.test.tsx</title>
<path fill="none" stroke="#c6c5fe" d="M264.91,-91.32C264.91,-91.32 38.25,-91.32 38.25,-91.32 34.41,-91.32 30.58,-87.49 30.58,-83.66 30.58,-83.66 30.58,-75.99 30.58,-75.99 30.58,-72.16 34.41,-68.32 38.25,-68.32 38.25,-68.32 264.91,-68.32 264.91,-68.32 268.75,-68.32 272.58,-72.16 272.58,-75.99 272.58,-75.99 272.58,-83.66 272.58,-83.66 272.58,-87.49 268.75,-91.32 264.91,-91.32"/>
<text text-anchor="middle" x="151.58" y="-76.12" font-family="Arial" font-size="14.00" fill="#c6c5fe">components/TeamLogoPicker.test.tsx</text>
</g>
<!-- components/TeamLogoPicker.test.tsx&#45;&gt;components/TeamLogoPicker.tsx -->
<g id="edge12" class="edge">
<title>components/TeamLogoPicker.test.tsx&#45;&gt;components/TeamLogoPicker.tsx</title>
<path fill="none" stroke="#757575" d="M143.64,-79.83C143.63,-79.83 143.61,-79.83 143.6,-79.83"/>
<polygon fill="#757575" stroke="#757575" points="153.56,-76.29 143.58,-79.83 153.59,-83.29 153.56,-76.29"/>
</g>
<!-- components/TeamLogoPicker.tsx&#45;&gt;lib/supabaseClient.ts -->
<g id="edge13" class="edge">
<title>components/TeamLogoPicker.tsx&#45;&gt;lib/supabaseClient.ts</title>
<path fill="none" stroke="#757575" d="M131.26,-68.24C130.33,-67.36 129.37,-66.45 128.4,-65.54"/>
<polygon fill="#757575" stroke="#757575" points="130.67,-62.87 120.99,-58.55 125.86,-67.96 130.67,-62.87"/>
</g>
<!-- index.css -->
<g id="node21" class="node">
<title>index.css</title>
<path fill="none" stroke="#cfffac" d="M123.93,-134.27C123.93,-134.27 66.26,-134.27 66.26,-134.27 62.43,-134.27 58.59,-130.43 58.59,-126.6 58.59,-126.6 58.59,-118.93 58.59,-118.93 58.59,-115.1 62.43,-111.27 66.26,-111.27 66.26,-111.27 123.93,-111.27 123.93,-111.27 127.76,-111.27 131.59,-115.1 131.59,-118.93 131.59,-118.93 131.59,-126.6 131.59,-126.6 131.59,-130.43 127.76,-134.27 123.93,-134.27"/>
<text text-anchor="middle" x="95.09" y="-119.07" font-family="Arial" font-size="14.00" fill="#cfffac">index.css</text>
</g>
<!-- lib/createSession.test.ts -->
<g id="node22" class="node">
<title>lib/createSession.test.ts</title>
<path fill="none" stroke="#c6c5fe" d="M204.25,-67.33C204.25,-67.33 60.58,-67.33 60.58,-67.33 56.75,-67.33 52.92,-63.49 52.92,-59.66 52.92,-59.66 52.92,-51.99 52.92,-51.99 52.92,-48.16 56.75,-44.33 60.58,-44.33 60.58,-44.33 204.25,-44.33 204.25,-44.33 208.08,-44.33 211.92,-48.16 211.92,-51.99 211.92,-51.99 211.92,-59.66 211.92,-59.66 211.92,-63.49 208.08,-67.33 204.25,-67.33"/>
<text text-anchor="middle" x="132.42" y="-52.13" font-family="Arial" font-size="14.00" fill="#c6c5fe">lib/createSession.test.ts</text>
</g>
<!-- lib/createSession.test.ts&#45;&gt;lib/mutations.ts -->
<g id="edge14" class="edge">
<title>lib/createSession.test.ts&#45;&gt;lib/mutations.ts</title>
<path fill="none" stroke="#757575" d="M132.43,-67.45C132.44,-71.81 132.44,-76.93 132.45,-81.92"/>
<polygon fill="#757575" stroke="#757575" points="128.95,-82.33 132.46,-92.33 135.95,-82.32 128.95,-82.33"/>
</g>
<!-- lib/createSession.test.ts&#45;&gt;lib/supabaseClient.ts -->
<g id="edge15" class="edge">
<title>lib/createSession.test.ts&#45;&gt;lib/supabaseClient.ts</title>
<path fill="none" stroke="#757575" d="M108.48,-46.71C108.47,-46.71 108.46,-46.7 108.45,-46.7"/>
<polygon fill="#757575" stroke="#757575" points="119.03,-47.01 108.43,-46.69 116.52,-53.55 119.03,-47.01"/>
</g>
<!-- lib/mutations.test.ts -->
<g id="node23" class="node">
<title>lib/mutations.test.ts</title>
<path fill="none" stroke="#c6c5fe" d="M151.24,-64.57C151.24,-64.57 33.57,-64.57 33.57,-64.57 29.74,-64.57 25.9,-60.74 25.9,-56.91 25.9,-56.91 25.9,-49.24 25.9,-49.24 25.9,-45.41 29.74,-41.57 33.57,-41.57 33.57,-41.57 151.24,-41.57 151.24,-41.57 155.07,-41.57 158.9,-45.41 158.9,-49.24 158.9,-49.24 158.9,-56.91 158.9,-56.91 158.9,-60.74 155.07,-64.57 151.24,-64.57"/>
<text text-anchor="middle" x="92.4" y="-49.37" font-family="Arial" font-size="14.00" fill="#c6c5fe">lib/mutations.test.ts</text>
</g>
<!-- lib/mutations.test.ts&#45;&gt;lib/mutations.ts -->
<g id="edge16" class="edge">
<title>lib/mutations.test.ts&#45;&gt;lib/mutations.ts</title>
<path fill="none" stroke="#757575" d="M101.5,-64.59C106.04,-70.35 111.67,-77.49 116.88,-84.09"/>
<polygon fill="#757575" stroke="#757575" points="114.2,-86.33 123.14,-92.01 119.69,-82 114.2,-86.33"/>
</g>
<!-- lib/mutations.test.ts&#45;&gt;lib/supabaseClient.ts -->
<g id="edge17" class="edge">
<title>lib/mutations.test.ts&#45;&gt;lib/supabaseClient.ts</title>
<path fill="none" stroke="#757575" d="M108.36,-46.7C108.37,-46.7 108.38,-46.7 108.38,-46.7"/>
<polygon fill="#757575" stroke="#757575" points="100.42,-53.69 108.4,-46.69 97.79,-47.18 100.42,-53.69"/>
</g>
<!-- lib/mutations.test.ts&#45;&gt;lib/types.ts -->
<g id="edge18" class="edge">
<title>lib/mutations.test.ts&#45;&gt;lib/types.ts</title>
<path fill="none" stroke="#757575" d="M84.49,-59.67C84.48,-59.69 84.47,-59.7 84.45,-59.71"/>
<polygon fill="#757575" stroke="#757575" points="89.86,-50.62 84.43,-59.73 94.36,-56 89.86,-50.62"/>
</g>
<!-- lib/types/index.ts -->
<g id="node30" class="node">
<title>lib/types/index.ts</title>
<path fill="none" stroke="#c6c5fe" d="M126.18,-87.26C126.18,-87.26 25.52,-87.26 25.52,-87.26 21.68,-87.26 17.85,-83.42 17.85,-79.59 17.85,-79.59 17.85,-71.92 17.85,-71.92 17.85,-68.09 21.68,-64.26 25.52,-64.26 25.52,-64.26 126.18,-64.26 126.18,-64.26 130.02,-64.26 133.85,-68.09 133.85,-71.92 133.85,-71.92 133.85,-79.59 133.85,-79.59 133.85,-83.42 130.02,-87.26 126.18,-87.26"/>
<text text-anchor="middle" x="75.85" y="-72.06" font-family="Arial" font-size="14.00" fill="#c6c5fe">lib/types/index.ts</text>
</g>
<!-- lib/types.ts&#45;&gt;lib/types/index.ts -->
<g id="edge27" class="edge">
<title>lib/types.ts&#45;&gt;lib/types/index.ts</title>
<path fill="none" stroke="#757575" d="M78.19,-71.38C78.15,-71.46 78.11,-71.54 78.06,-71.61"/>
<polygon fill="#757575" stroke="#757575" points="79.57,-61.37 77.94,-71.84 85.74,-64.67 79.57,-61.37"/>
</g>
<!-- lib/mutations.validation.ts -->
<g id="node25" class="node">
<title>lib/mutations.validation.ts</title>
<path fill="none" stroke="#cfffac" d="M376.21,-191C376.21,-191 223.55,-191 223.55,-191 219.71,-191 215.88,-187.17 215.88,-183.33 215.88,-183.33 215.88,-175.67 215.88,-175.67 215.88,-171.83 219.71,-168 223.55,-168 223.55,-168 376.21,-168 376.21,-168 380.05,-168 383.88,-171.83 383.88,-175.67 383.88,-175.67 383.88,-183.33 383.88,-183.33 383.88,-187.17 380.05,-191 376.21,-191"/>
<text text-anchor="middle" x="299.88" y="-175.8" font-family="Arial" font-size="14.00" fill="#cfffac">lib/mutations.validation.ts</text>
</g>
<!-- lib/presence.ts&#45;&gt;lib/supabaseClient.ts -->
<g id="edge21" class="edge">
<title>lib/presence.ts&#45;&gt;lib/supabaseClient.ts</title>
<path fill="none" stroke="#757575" d="M108.46,-46.69C108.45,-46.69 108.44,-46.69 108.44,-46.69"/>
<polygon fill="#757575" stroke="#757575" points="118.94,-45.34 108.42,-46.69 117.49,-52.2 118.94,-45.34"/>
</g>
<!-- lib/realtimeHooks.ts&#45;&gt;lib/supabaseClient.ts -->
<g id="edge22" class="edge">
<title>lib/realtimeHooks.ts&#45;&gt;lib/supabaseClient.ts</title>
<path fill="none" stroke="#757575" d="M108.32,-46.71C108.33,-46.7 108.35,-46.7 108.36,-46.7"/>
<polygon fill="#757575" stroke="#757575" points="99.49,-52.46 108.39,-46.69 97.84,-45.65 99.49,-52.46"/>
</g>
<!-- lib/realtimeHooks.ts&#45;&gt;lib/types.ts -->
<g id="edge23" class="edge">
<title>lib/realtimeHooks.ts&#45;&gt;lib/types.ts</title>
<path fill="none" stroke="#757575" d="M84.45,-59.72C84.44,-59.72 84.43,-59.73 84.43,-59.73"/>
<polygon fill="#757575" stroke="#757575" points="90.62,-51.13 84.41,-59.74 94.64,-56.88 90.62,-51.13"/>
</g>
<!-- lib/sessionCode.test.ts -->
<g id="node28" class="node">
<title>lib/sessionCode.test.ts</title>
<path fill="none" stroke="#c6c5fe" d="M184.75,-58.61C184.75,-58.61 48.08,-58.61 48.08,-58.61 44.25,-58.61 40.41,-54.78 40.41,-50.94 40.41,-50.94 40.41,-43.28 40.41,-43.28 40.41,-39.44 44.25,-35.61 48.08,-35.61 48.08,-35.61 184.75,-35.61 184.75,-35.61 188.58,-35.61 192.41,-39.44 192.41,-43.28 192.41,-43.28 192.41,-50.94 192.41,-50.94 192.41,-54.78 188.58,-58.61 184.75,-58.61"/>
<text text-anchor="middle" x="116.41" y="-43.41" font-family="Arial" font-size="14.00" fill="#c6c5fe">lib/sessionCode.test.ts</text>
</g>
<!-- lib/sessionCode.test.ts&#45;&gt;lib/mutations.ts -->
<g id="edge24" class="edge">
<title>lib/sessionCode.test.ts&#45;&gt;lib/mutations.ts</title>
<path fill="none" stroke="#757575" d="M119.74,-58.86C121.66,-65.63 124.13,-74.35 126.38,-82.31"/>
<polygon fill="#757575" stroke="#757575" points="123.06,-83.43 129.15,-92.1 129.8,-81.53 123.06,-83.43"/>
</g>
<!-- lib/sessionCode.test.ts&#45;&gt;lib/supabaseClient.ts -->
<g id="edge25" class="edge">
<title>lib/sessionCode.test.ts&#45;&gt;lib/supabaseClient.ts</title>
<path fill="none" stroke="#757575" d="M108.5,-46.69C108.49,-46.69 108.47,-46.69 108.46,-46.69"/>
<polygon fill="#757575" stroke="#757575" points="118.62,-43.75 108.43,-46.69 118.22,-50.74 118.62,-43.75"/>
</g>
<!-- lib/sessionHooks.ts&#45;&gt;lib/supabaseClient.ts -->
<g id="edge26" class="edge">
<title>lib/sessionHooks.ts&#45;&gt;lib/supabaseClient.ts</title>
<path fill="none" stroke="#757575" d="M89.66,-88.25C92.32,-82.35 95.65,-74.98 98.76,-68.08"/>
<polygon fill="#757575" stroke="#757575" points="102.14,-69.1 103.06,-58.55 95.76,-66.23 102.14,-69.1"/>
</g>
<!-- lib/types/index.ts&#45;&gt;lib/types/supabase.ts -->
<g id="edge28" class="edge">
<title>lib/types/index.ts&#45;&gt;lib/types/supabase.ts</title>
<path fill="none" stroke="#757575" d="M78.97,-67.84C78.98,-67.83 78.98,-67.81 78.99,-67.8"/>
<polygon fill="#757575" stroke="#757575" points="78.57,-78.37 79,-67.77 72.05,-75.79 78.57,-78.37"/>
</g>
<!-- main.tsx -->
<g id="node31" class="node">
<title>main.tsx</title>
<path fill="none" stroke="#c6c5fe" d="M124.59,-126.26C124.59,-126.26 71.93,-126.26 71.93,-126.26 68.09,-126.26 64.26,-122.43 64.26,-118.59 64.26,-118.59 64.26,-110.93 64.26,-110.93 64.26,-107.09 68.09,-103.26 71.93,-103.26 71.93,-103.26 124.59,-103.26 124.59,-103.26 128.43,-103.26 132.26,-107.09 132.26,-110.93 132.26,-110.93 132.26,-118.59 132.26,-118.59 132.26,-122.43 128.43,-126.26 124.59,-126.26"/>
<text text-anchor="middle" x="98.26" y="-111.06" font-family="Arial" font-size="14.00" fill="#c6c5fe">main.tsx</text>
</g>
<!-- main.tsx&#45;&gt;App.tsx -->
<g id="edge29" class="edge">
<title>main.tsx&#45;&gt;App.tsx</title>
<path fill="none" stroke="#757575" d="M100.44,-106.84C100.44,-106.82 100.45,-106.81 100.45,-106.8"/>
<polygon fill="#757575" stroke="#757575" points="101.16,-117.35 100.46,-106.77 94.41,-115.48 101.16,-117.35"/>
</g>
<!-- main.tsx&#45;&gt;index.css -->
<g id="edge30" class="edge">
<title>main.tsx&#45;&gt;index.css</title>
<path fill="none" stroke="#757575" d="M95.13,-122.68C95.12,-122.69 95.12,-122.7 95.11,-122.71"/>
<polygon fill="#757575" stroke="#757575" points="95.55,-112.15 95.1,-122.74 102.06,-114.74 95.55,-112.15"/>
</g>
<!-- setupTests.ts -->
<g id="node32" class="node">
<title>setupTests.ts</title>
<path fill="none" stroke="#cfffac" d="M183.71,-191C183.71,-191 104.05,-191 104.05,-191 100.21,-191 96.38,-187.17 96.38,-183.33 96.38,-183.33 96.38,-175.67 96.38,-175.67 96.38,-171.83 100.21,-168 104.05,-168 104.05,-168 183.71,-168 183.71,-168 187.55,-168 191.38,-171.83 191.38,-175.67 191.38,-175.67 191.38,-183.33 191.38,-183.33 191.38,-187.17 187.55,-191 183.71,-191"/>
<text text-anchor="middle" x="143.88" y="-175.8" font-family="Arial" font-size="14.00" fill="#cfffac">setupTests.ts</text>
</g>
</g>
</svg>
