<?xml version="1.0" encoding="UTF-8" standalone="no"?>
<!DOCTYPE svg PUBLIC "-//W3C//DTD SVG 1.1//EN"
 "http://www.w3.org/Graphics/SVG/1.1/DTD/svg11.dtd">
<!-- Generated by graphviz version 2.43.0 (0)
 -->
<!-- Title: G Pages: 1 -->
<svg width="420pt" height="196pt"
 viewBox="0.00 0.00 419.52 196.31" xmlns="http://www.w3.org/2000/svg" xmlns:xlink="http://www.w3.org/1999/xlink">
<g id="graph0" class="graph" transform="scale(1 1) rotate(0) translate(21.6 174.71)">
<title>G</title>
<polygon fill="#111111" stroke="transparent" points="-21.6,21.6 -21.6,-174.71 397.92,-174.71 397.92,21.6 -21.6,21.6"/>
<!-- App.tsx -->
<g id="node1" class="node">
<title>App.tsx</title>
<path fill="none" stroke="#c6c5fe" d="M131.66,-51.81C131.66,-51.81 85,-51.81 85,-51.81 81.16,-51.81 77.33,-47.98 77.33,-44.14 77.33,-44.14 77.33,-36.48 77.33,-36.48 77.33,-32.64 81.16,-28.81 85,-28.81 85,-28.81 131.66,-28.81 131.66,-28.81 135.5,-28.81 139.33,-32.64 139.33,-36.48 139.33,-36.48 139.33,-44.14 139.33,-44.14 139.33,-47.98 135.5,-51.81 131.66,-51.81"/>
<text text-anchor="middle" x="108.33" y="-36.61" font-family="Arial" font-size="14.00" fill="#c6c5fe">App.tsx</text>
</g>
<!-- pages/GameSetup.tsx -->
<g id="node2" class="node">
<title>pages/GameSetup.tsx</title>
<path fill="none" stroke="#c6c5fe" d="M219.6,-38.01C219.6,-38.01 82.93,-38.01 82.93,-38.01 79.1,-38.01 75.26,-34.17 75.26,-30.34 75.26,-30.34 75.26,-22.67 75.26,-22.67 75.26,-18.84 79.1,-15.01 82.93,-15.01 82.93,-15.01 219.6,-15.01 219.6,-15.01 223.43,-15.01 227.26,-18.84 227.26,-22.67 227.26,-22.67 227.26,-30.34 227.26,-30.34 227.26,-34.17 223.43,-38.01 219.6,-38.01"/>
<text text-anchor="middle" x="151.26" y="-22.81" font-family="Arial" font-size="14.00" fill="#c6c5fe">pages/GameSetup.tsx</text>
</g>
<!-- App.tsx&#45;&gt;pages/GameSetup.tsx -->
<g id="edge1" class="edge">
<title>App.tsx&#45;&gt;pages/GameSetup.tsx</title>
<path fill="none" stroke="#757575" d="M139.53,-30.28C139.58,-30.26 139.64,-30.24 139.69,-30.23"/>
<polygon fill="#757575" stroke="#757575" points="131.4,-36.57 139.84,-30.18 129.25,-29.91 131.4,-36.57"/>
</g>
<!-- pages/Homepage.tsx -->
<g id="node3" class="node">
<title>pages/Homepage.tsx</title>
<path fill="none" stroke="#c6c5fe" d="M189.02,-81.17C189.02,-81.17 59.35,-81.17 59.35,-81.17 55.52,-81.17 51.69,-77.34 51.69,-73.51 51.69,-73.51 51.69,-65.84 51.69,-65.84 51.69,-62.01 55.52,-58.17 59.35,-58.17 59.35,-58.17 189.02,-58.17 189.02,-58.17 192.85,-58.17 196.69,-62.01 196.69,-65.84 196.69,-65.84 196.69,-73.51 196.69,-73.51 196.69,-77.34 192.85,-81.17 189.02,-81.17"/>
<text text-anchor="middle" x="124.19" y="-65.97" font-family="Arial" font-size="14.00" fill="#c6c5fe">pages/Homepage.tsx</text>
</g>
<!-- App.tsx&#45;&gt;pages/Homepage.tsx -->
<g id="edge2" class="edge">
<title>App.tsx&#45;&gt;pages/Homepage.tsx</title>
<path fill="none" stroke="#757575" d="M114.6,-51.92C114.67,-52.04 114.74,-52.17 114.81,-52.3"/>
<polygon fill="#757575" stroke="#757575" points="110.13,-51.02 117.97,-58.15 116.29,-47.69 110.13,-51.02"/>
</g>
<!-- pages/Join.tsx -->
<g id="node4" class="node">
<title>pages/Join.tsx</title>
<path fill="none" stroke="#c6c5fe" d="M151.96,-42.27C151.96,-42.27 64.29,-42.27 64.29,-42.27 60.46,-42.27 56.62,-38.44 56.62,-34.61 56.62,-34.61 56.62,-26.94 56.62,-26.94 56.62,-23.11 60.46,-19.27 64.29,-19.27 64.29,-19.27 151.96,-19.27 151.96,-19.27 155.79,-19.27 159.62,-23.11 159.62,-26.94 159.62,-26.94 159.62,-34.61 159.62,-34.61 159.62,-38.44 155.79,-42.27 151.96,-42.27"/>
<text text-anchor="middle" x="108.12" y="-27.07" font-family="Arial" font-size="14.00" fill="#c6c5fe">pages/Join.tsx</text>
</g>
<!-- App.tsx&#45;&gt;pages/Join.tsx -->
<g id="edge3" class="edge">
<title>App.tsx&#45;&gt;pages/Join.tsx</title>
<path fill="none" stroke="#757575" d="M108.13,-30.88C108.13,-30.86 108.13,-30.85 108.13,-30.84"/>
<polygon fill="#757575" stroke="#757575" points="111.87,-40.71 108.13,-30.8 104.87,-40.89 111.87,-40.71"/>
</g>
<!-- pages/Lobby.tsx -->
<g id="node5" class="node">
<title>pages/Lobby.tsx</title>
<path fill="none" stroke="#c6c5fe" d="M154.41,-61.04C154.41,-61.04 55.75,-61.04 55.75,-61.04 51.91,-61.04 48.08,-57.2 48.08,-53.37 48.08,-53.37 48.08,-45.7 48.08,-45.7 48.08,-41.87 51.91,-38.04 55.75,-38.04 55.75,-38.04 154.41,-38.04 154.41,-38.04 158.25,-38.04 162.08,-41.87 162.08,-45.7 162.08,-45.7 162.08,-53.37 162.08,-53.37 162.08,-57.2 158.25,-61.04 154.41,-61.04"/>
<text text-anchor="middle" x="105.08" y="-45.84" font-family="Arial" font-size="14.00" fill="#c6c5fe">pages/Lobby.tsx</text>
</g>
<!-- App.tsx&#45;&gt;pages/Lobby.tsx -->
<g id="edge4" class="edge">
<title>App.tsx&#45;&gt;pages/Lobby.tsx</title>
<path fill="none" stroke="#757575" d="M105.12,-49.43C105.11,-49.45 105.1,-49.46 105.1,-49.48"/>
<polygon fill="#757575" stroke="#757575" points="105.13,-38.91 105.09,-49.51 111.73,-41.24 105.13,-38.91"/>
</g>
<!-- pages/Quiz.tsx -->
<g id="node6" class="node">
<title>pages/Quiz.tsx</title>
<path fill="none" stroke="#c6c5fe" d="M197.1,-74.21C197.1,-74.21 105.43,-74.21 105.43,-74.21 101.6,-74.21 97.77,-70.37 97.77,-66.54 97.77,-66.54 97.77,-58.87 97.77,-58.87 97.77,-55.04 101.6,-51.21 105.43,-51.21 105.43,-51.21 197.1,-51.21 197.1,-51.21 200.93,-51.21 204.77,-55.04 204.77,-58.87 204.77,-58.87 204.77,-66.54 204.77,-66.54 204.77,-70.37 200.93,-74.21 197.1,-74.21"/>
<text text-anchor="middle" x="151.27" y="-59.01" font-family="Arial" font-size="14.00" fill="#c6c5fe">pages/Quiz.tsx</text>
</g>
<!-- App.tsx&#45;&gt;pages/Quiz.tsx -->
<g id="edge5" class="edge">
<title>App.tsx&#45;&gt;pages/Quiz.tsx</title>
<path fill="none" stroke="#757575" d="M130.55,-51.9C130.63,-51.94 130.72,-51.99 130.8,-52.03"/>
<polygon fill="#757575" stroke="#757575" points="120.56,-50.63 131.04,-52.16 123.8,-44.43 120.56,-50.63"/>
</g>
<!-- pages/Results.tsx -->
<g id="node7" class="node">
<title>pages/Results.tsx</title>
<path fill="none" stroke="#c6c5fe" d="M169.24,-77.93C169.24,-77.93 61.57,-77.93 61.57,-77.93 57.74,-77.93 53.91,-74.1 53.91,-70.27 53.91,-70.27 53.91,-62.6 53.91,-62.6 53.91,-58.77 57.74,-54.93 61.57,-54.93 61.57,-54.93 169.24,-54.93 169.24,-54.93 173.07,-54.93 176.91,-58.77 176.91,-62.6 176.91,-62.6 176.91,-70.27 176.91,-70.27 176.91,-74.1 173.07,-77.93 169.24,-77.93"/>
<text text-anchor="middle" x="115.41" y="-62.73" font-family="Arial" font-size="14.00" fill="#c6c5fe">pages/Results.tsx</text>
</g>
<!-- App.tsx&#45;&gt;pages/Results.tsx -->
<g id="edge6" class="edge">
<title>App.tsx&#45;&gt;pages/Results.tsx</title>
<path fill="none" stroke="#757575" d="M111.45,-51.84C111.49,-51.97 111.52,-52.09 111.55,-52.21"/>
<polygon fill="#757575" stroke="#757575" points="106.26,-46.07 112.26,-54.81 113.02,-44.24 106.26,-46.07"/>
</g>
<!-- lib/mutations.ts -->
<g id="node9" class="node">
<title>lib/mutations.ts</title>
<path fill="none" stroke="#c6c5fe" d="M189.1,-80.25C189.1,-80.25 97.43,-80.25 97.43,-80.25 93.6,-80.25 89.76,-76.42 89.76,-72.58 89.76,-72.58 89.76,-64.92 89.76,-64.92 89.76,-61.08 93.6,-57.25 97.43,-57.25 97.43,-57.25 189.1,-57.25 189.1,-57.25 192.93,-57.25 196.76,-61.08 196.76,-64.92 196.76,-64.92 196.76,-72.58 196.76,-72.58 196.76,-76.42 192.93,-80.25 189.1,-80.25"/>
<text text-anchor="middle" x="143.26" y="-65.05" font-family="Arial" font-size="14.00" fill="#c6c5fe">lib/mutations.ts</text>
</g>
<!-- pages/GameSetup.tsx&#45;&gt;lib/mutations.ts -->
<g id="edge27" class="edge">
<title>pages/GameSetup.tsx&#45;&gt;lib/mutations.ts</title>
<path fill="none" stroke="#757575" d="M149.08,-38.05C148.53,-40.94 147.93,-44.13 147.32,-47.33"/>
<polygon fill="#757575" stroke="#757575" points="143.87,-46.74 145.45,-57.22 150.75,-48.05 143.87,-46.74"/>
</g>
<!-- components/LobbyStatus.tsx -->
<g id="node10" class="node">
<title>components/LobbyStatus.tsx</title>
<path fill="none" stroke="#c6c5fe" d="M231.1,-31.97C231.1,-31.97 55.43,-31.97 55.43,-31.97 51.6,-31.97 47.76,-28.13 47.76,-24.3 47.76,-24.3 47.76,-16.63 47.76,-16.63 47.76,-12.8 51.6,-8.97 55.43,-8.97 55.43,-8.97 231.1,-8.97 231.1,-8.97 234.93,-8.97 238.76,-12.8 238.76,-16.63 238.76,-16.63 238.76,-24.3 238.76,-24.3 238.76,-28.13 234.93,-31.97 231.1,-31.97"/>
<text text-anchor="middle" x="143.26" y="-16.77" font-family="Arial" font-size="14.00" fill="#c6c5fe">components/LobbyStatus.tsx</text>
</g>
<!-- pages/GameSetup.tsx&#45;&gt;components/LobbyStatus.tsx -->
<g id="edge26" class="edge">
<title>pages/GameSetup.tsx&#45;&gt;components/LobbyStatus.tsx</title>
<path fill="none" stroke="#757575" d="M143.35,-20.53C143.34,-20.52 143.33,-20.51 143.31,-20.51"/>
<polygon fill="#757575" stroke="#757575" points="153.39,-23.72 143.29,-20.48 149.16,-29.32 153.39,-23.72"/>
</g>
<!-- lib/supabaseClient.ts -->
<g id="node11" class="node">
<title>lib/supabaseClient.ts</title>
<path fill="none" stroke="#cfffac" d="M196.47,-31C196.47,-31 70.81,-31 70.81,-31 66.97,-31 63.14,-27.17 63.14,-23.34 63.14,-23.34 63.14,-15.67 63.14,-15.67 63.14,-11.84 66.97,-8 70.81,-8 70.81,-8 196.47,-8 196.47,-8 200.31,-8 204.14,-11.84 204.14,-15.67 204.14,-15.67 204.14,-23.34 204.14,-23.34 204.14,-27.17 200.31,-31 196.47,-31"/>
<text text-anchor="middle" x="133.64" y="-15.8" font-family="Arial" font-size="14.00" fill="#cfffac">lib/supabaseClient.ts</text>
</g>
<!-- pages/GameSetup.tsx&#45;&gt;lib/supabaseClient.ts -->
<g id="edge28" class="edge">
<title>pages/GameSetup.tsx&#45;&gt;lib/supabaseClient.ts</title>
<path fill="none" stroke="#757575" d="M133.69,-19.52C133.68,-19.52 133.68,-19.52 133.67,-19.52"/>
<polygon fill="#757575" stroke="#757575" points="144.26,-19.98 133.65,-19.51 141.65,-26.49 144.26,-19.98"/>
</g>
<!-- lib/types.ts -->
<g id="node17" class="node">
<title>lib/types.ts</title>
<path fill="none" stroke="#c6c5fe" d="M188.13,-56.11C188.13,-56.11 123.46,-56.11 123.46,-56.11 119.63,-56.11 115.8,-52.27 115.8,-48.44 115.8,-48.44 115.8,-40.77 115.8,-40.77 115.8,-36.94 119.63,-33.11 123.46,-33.11 123.46,-33.11 188.13,-33.11 188.13,-33.11 191.96,-33.11 195.8,-36.94 195.8,-40.77 195.8,-40.77 195.8,-48.44 195.8,-48.44 195.8,-52.27 191.96,-56.11 188.13,-56.11"/>
<text text-anchor="middle" x="155.8" y="-40.91" font-family="Arial" font-size="14.00" fill="#c6c5fe">lib/types.ts</text>
</g>
<!-- pages/GameSetup.tsx&#45;&gt;lib/types.ts -->
<g id="edge29" class="edge">
<title>pages/GameSetup.tsx&#45;&gt;lib/types.ts</title>
<path fill="none" stroke="#757575" d="M154.16,-38.07C154.17,-38.13 154.19,-38.18 154.2,-38.24"/>
<polygon fill="#757575" stroke="#757575" points="148.41,-29.55 154.24,-38.4 155.2,-27.85 148.41,-29.55"/>
</g>
<!-- components/ActiveGames.tsx -->
<g id="node8" class="node">
<title>components/ActiveGames.tsx</title>
<path fill="none" stroke="#c6c5fe" d="M224.67,-82.83C224.67,-82.83 43,-82.83 43,-82.83 39.17,-82.83 35.33,-78.99 35.33,-75.16 35.33,-75.16 35.33,-67.49 35.33,-67.49 35.33,-63.66 39.17,-59.83 43,-59.83 43,-59.83 224.67,-59.83 224.67,-59.83 228.5,-59.83 232.33,-63.66 232.33,-67.49 232.33,-67.49 232.33,-75.16 232.33,-75.16 232.33,-78.99 228.5,-82.83 224.67,-82.83"/>
<text text-anchor="middle" x="133.83" y="-67.63" font-family="Arial" font-size="14.00" fill="#c6c5fe">components/ActiveGames.tsx</text>
</g>
<!-- pages/Homepage.tsx&#45;&gt;components/ActiveGames.tsx -->
<g id="edge30" class="edge">
<title>pages/Homepage.tsx&#45;&gt;components/ActiveGames.tsx</title>
<path fill="none" stroke="#757575" d="M133.72,-71.31C133.74,-71.31 133.76,-71.31 133.77,-71.32"/>
<polygon fill="#757575" stroke="#757575" points="123.35,-73.06 133.81,-71.32 124.55,-66.16 123.35,-73.06"/>
</g>
<!-- pages/Homepage.tsx&#45;&gt;lib/mutations.ts -->
<g id="edge32" class="edge">
<title>pages/Homepage.tsx&#45;&gt;lib/mutations.ts</title>
<path fill="none" stroke="#757575" d="M143.21,-68.75C143.22,-68.75 143.23,-68.75 143.23,-68.75"/>
<polygon fill="#757575" stroke="#757575" points="133.45,-72.79 143.25,-68.75 133.07,-65.79 133.45,-72.79"/>
</g>
<!-- components/PasswordModal.tsx -->
<g id="node13" class="node">
<title>components/PasswordModal.tsx</title>
<path fill="none" stroke="#cfffac" d="M220.24,-89.18C220.24,-89.18 23.57,-89.18 23.57,-89.18 19.74,-89.18 15.91,-85.34 15.91,-81.51 15.91,-81.51 15.91,-73.84 15.91,-73.84 15.91,-70.01 19.74,-66.18 23.57,-66.18 23.57,-66.18 220.24,-66.18 220.24,-66.18 224.07,-66.18 227.91,-70.01 227.91,-73.84 227.91,-73.84 227.91,-81.51 227.91,-81.51 227.91,-85.34 224.07,-89.18 220.24,-89.18"/>
<text text-anchor="middle" x="121.91" y="-73.98" font-family="Arial" font-size="14.00" fill="#cfffac">components/PasswordModal.tsx</text>
</g>
<!-- pages/Homepage.tsx&#45;&gt;components/PasswordModal.tsx -->
<g id="edge31" class="edge">
<title>pages/Homepage.tsx&#45;&gt;components/PasswordModal.tsx</title>
<path fill="none" stroke="#757575" d="M121.93,-77.59C121.93,-77.6 121.93,-77.62 121.92,-77.63"/>
<polygon fill="#757575" stroke="#757575" points="121.31,-67.07 121.91,-77.65 128.05,-69 121.31,-67.07"/>
</g>
<!-- pages/Join.tsx&#45;&gt;lib/mutations.ts -->
<g id="edge33" class="edge">
<title>pages/Join.tsx&#45;&gt;lib/mutations.ts</title>
<path fill="none" stroke="#757575" d="M118.86,-42.38C121.04,-44.73 123.38,-47.27 125.73,-49.8"/>
<polygon fill="#757575" stroke="#757575" points="123.23,-52.26 132.6,-57.22 128.37,-47.5 123.23,-52.26"/>
</g>
<!-- pages/Join.tsx&#45;&gt;lib/supabaseClient.ts -->
<g id="edge34" class="edge">
<title>pages/Join.tsx&#45;&gt;lib/supabaseClient.ts</title>
<path fill="none" stroke="#757575" d="M133.57,-19.54C133.58,-19.53 133.59,-19.53 133.6,-19.52"/>
<polygon fill="#757575" stroke="#757575" points="125.89,-26.78 133.62,-19.51 123.05,-20.37 125.89,-26.78"/>
</g>
<!-- pages/Lobby.tsx&#45;&gt;lib/mutations.ts -->
<g id="edge35" class="edge">
<title>pages/Lobby.tsx&#45;&gt;lib/mutations.ts</title>
<path fill="none" stroke="#757575" d="M128.17,-61.16C128.23,-61.19 128.3,-61.22 128.36,-61.25"/>
<polygon fill="#757575" stroke="#757575" points="118.04,-59.97 128.55,-61.35 121.19,-53.72 118.04,-59.97"/>
</g>
<!-- pages/Lobby.tsx&#45;&gt;lib/supabaseClient.ts -->
<g id="edge37" class="edge">
<title>pages/Lobby.tsx&#45;&gt;lib/supabaseClient.ts</title>
<path fill="none" stroke="#757575" d="M116.04,-38.01C116.17,-37.87 116.31,-37.73 116.44,-37.59"/>
<polygon fill="#757575" stroke="#757575" points="118.21,-40.81 122.57,-31.15 113.14,-35.98 118.21,-40.81"/>
</g>
<!-- lib/sessionHooks.ts -->
<g id="node22" class="node">
<title>lib/sessionHooks.ts</title>
<path fill="none" stroke="#c6c5fe" d="M166.44,-69.93C166.44,-69.93 49.77,-69.93 49.77,-69.93 45.94,-69.93 42.1,-66.1 42.1,-62.26 42.1,-62.26 42.1,-54.6 42.1,-54.6 42.1,-50.76 45.94,-46.93 49.77,-46.93 49.77,-46.93 166.44,-46.93 166.44,-46.93 170.27,-46.93 174.1,-50.76 174.1,-54.6 174.1,-54.6 174.1,-62.26 174.1,-62.26 174.1,-66.1 170.27,-69.93 166.44,-69.93"/>
<text text-anchor="middle" x="108.1" y="-54.73" font-family="Arial" font-size="14.00" fill="#c6c5fe">lib/sessionHooks.ts</text>
</g>
<!-- pages/Lobby.tsx&#45;&gt;lib/sessionHooks.ts -->
<g id="edge36" class="edge">
<title>pages/Lobby.tsx&#45;&gt;lib/sessionHooks.ts</title>
<path fill="none" stroke="#757575" d="M108.07,-58.33C108.07,-58.35 108.08,-58.36 108.08,-58.37"/>
<polygon fill="#757575" stroke="#757575" points="101.54,-50.07 108.09,-58.4 108.17,-47.8 101.54,-50.07"/>
</g>
<!-- pages/Quiz.tsx&#45;&gt;lib/mutations.ts -->
<g id="edge38" class="edge">
<title>pages/Quiz.tsx&#45;&gt;lib/mutations.ts</title>
<path fill="none" stroke="#757575" d="M143.35,-68.68C143.34,-68.69 143.33,-68.7 143.31,-68.71"/>
<polygon fill="#757575" stroke="#757575" points="149.16,-59.9 143.29,-68.73 153.39,-65.49 149.16,-59.9"/>
</g>
<!-- pages/Quiz.tsx&#45;&gt;lib/types.ts -->
<g id="edge41" class="edge">
<title>pages/Quiz.tsx&#45;&gt;lib/types.ts</title>
<path fill="none" stroke="#757575" d="M154.16,-51.14C154.17,-51.09 154.19,-51.03 154.2,-50.97"/>
<polygon fill="#757575" stroke="#757575" points="155.21,-61.36 154.24,-50.81 148.42,-59.66 155.21,-61.36"/>
</g>
<!-- lib/realtimeHooks.ts -->
<g id="node20" class="node">
<title>lib/realtimeHooks.ts</title>
<path fill="none" stroke="#c6c5fe" d="M215.96,-65.82C215.96,-65.82 96.3,-65.82 96.3,-65.82 92.46,-65.82 88.63,-61.99 88.63,-58.16 88.63,-58.16 88.63,-50.49 88.63,-50.49 88.63,-46.66 92.46,-42.82 96.3,-42.82 96.3,-42.82 215.96,-42.82 215.96,-42.82 219.8,-42.82 223.63,-46.66 223.63,-50.49 223.63,-50.49 223.63,-58.16 223.63,-58.16 223.63,-61.99 219.8,-65.82 215.96,-65.82"/>
<text text-anchor="middle" x="156.13" y="-50.62" font-family="Arial" font-size="14.00" fill="#c6c5fe">lib/realtimeHooks.ts</text>
</g>
<!-- pages/Quiz.tsx&#45;&gt;lib/realtimeHooks.ts -->
<g id="edge39" class="edge">
<title>pages/Quiz.tsx&#45;&gt;lib/realtimeHooks.ts</title>
<path fill="none" stroke="#757575" d="M156.07,-54.42C156.08,-54.4 156.09,-54.39 156.1,-54.38"/>
<polygon fill="#757575" stroke="#757575" points="154.11,-64.76 156.12,-54.35 148.05,-61.24 154.11,-64.76"/>
</g>
<!-- pages/Quiz.tsx&#45;&gt;lib/sessionHooks.ts -->
<g id="edge40" class="edge">
<title>pages/Quiz.tsx&#45;&gt;lib/sessionHooks.ts</title>
<path fill="none" stroke="#757575" d="M108.23,-58.44C108.21,-58.44 108.19,-58.44 108.17,-58.44"/>
<polygon fill="#757575" stroke="#757575" points="118.44,-55.96 108.13,-58.43 117.73,-62.93 118.44,-55.96"/>
</g>
<!-- pages/Results.tsx&#45;&gt;lib/mutations.ts -->
<g id="edge42" class="edge">
<title>pages/Results.tsx&#45;&gt;lib/mutations.ts</title>
<path fill="none" stroke="#757575" d="M143.18,-68.74C143.2,-68.74 143.21,-68.75 143.22,-68.75"/>
<polygon fill="#757575" stroke="#757575" points="132.97,-71.37 143.24,-68.75 133.58,-64.4 132.97,-71.37"/>
</g>
<!-- pages/Results.tsx&#45;&gt;lib/supabaseClient.ts -->
<g id="edge44" class="edge">
<title>pages/Results.tsx&#45;&gt;lib/supabaseClient.ts</title>
<path fill="none" stroke="#757575" d="M120.01,-54.59C121.66,-50.34 123.58,-45.4 125.45,-40.59"/>
<polygon fill="#757575" stroke="#757575" points="128.74,-41.77 129.1,-31.18 122.22,-39.23 128.74,-41.77"/>
</g>
<!-- pages/Results.tsx&#45;&gt;lib/sessionHooks.ts -->
<g id="edge43" class="edge">
<title>pages/Results.tsx&#45;&gt;lib/sessionHooks.ts</title>
<path fill="none" stroke="#757575" d="M108.18,-58.52C108.17,-58.51 108.16,-58.49 108.15,-58.48"/>
<polygon fill="#757575" stroke="#757575" points="117.46,-63.49 108.12,-58.45 112.28,-68.21 117.46,-63.49"/>
</g>
<!-- components/ActiveGames.tsx&#45;&gt;lib/mutations.ts -->
<g id="edge7" class="edge">
<title>components/ActiveGames.tsx&#45;&gt;lib/mutations.ts</title>
<path fill="none" stroke="#757575" d="M143.16,-68.78C143.17,-68.77 143.19,-68.77 143.2,-68.77"/>
<polygon fill="#757575" stroke="#757575" points="134.52,-74.79 143.24,-68.76 132.66,-68.04 134.52,-74.79"/>
</g>
<!-- lib/mutations.ts&#45;&gt;lib/supabaseClient.ts -->
<g id="edge14" class="edge">
<title>lib/mutations.ts&#45;&gt;lib/supabaseClient.ts</title>
<path fill="none" stroke="#757575" d="M140.98,-57.08C140.05,-52.3 138.94,-46.6 137.86,-41.11"/>
<polygon fill="#757575" stroke="#757575" points="141.26,-40.23 135.9,-31.09 134.39,-41.58 141.26,-40.23"/>
</g>
<!-- lib/mutations.ts&#45;&gt;lib/types.ts -->
<g id="edge15" class="edge">
<title>lib/mutations.ts&#45;&gt;lib/types.ts</title>
<path fill="none" stroke="#757575" d="M149.24,-57.24C149.31,-57.1 149.39,-56.95 149.46,-56.81"/>
<polygon fill="#757575" stroke="#757575" points="148.19,-66.86 149.69,-56.37 141.98,-63.63 148.19,-66.86"/>
</g>
<!-- components/LobbyStatus.tsx&#45;&gt;lib/supabaseClient.ts -->
<g id="edge8" class="edge">
<title>components/LobbyStatus.tsx&#45;&gt;lib/supabaseClient.ts</title>
<path fill="none" stroke="#757575" d="M133.75,-19.52C133.73,-19.51 133.72,-19.51 133.7,-19.51"/>
<polygon fill="#757575" stroke="#757575" points="143.98,-17.05 133.67,-19.51 143.26,-24.01 143.98,-17.05"/>
</g>
<!-- components/PasswordModal.test.tsx -->
<g id="node12" class="node">
<title>components/PasswordModal.test.tsx</title>
<path fill="none" stroke="#c6c5fe" d="M230.33,-99.37C230.33,-99.37 7.67,-99.37 7.67,-99.37 3.83,-99.37 0,-95.53 0,-91.7 0,-91.7 0,-84.03 0,-84.03 0,-80.2 3.83,-76.37 7.67,-76.37 7.67,-76.37 230.33,-76.37 230.33,-76.37 234.17,-76.37 238,-80.2 238,-84.03 238,-84.03 238,-91.7 238,-91.7 238,-95.53 234.17,-99.37 230.33,-99.37"/>
<text text-anchor="middle" x="119" y="-84.17" font-family="Arial" font-size="14.00" fill="#c6c5fe">components/PasswordModal.test.tsx</text>
</g>
<!-- components/PasswordModal.test.tsx&#45;&gt;components/PasswordModal.tsx -->
<g id="edge9" class="edge">
<title>components/PasswordModal.test.tsx&#45;&gt;components/PasswordModal.tsx</title>
<path fill="none" stroke="#757575" d="M121.87,-77.79C121.88,-77.77 121.88,-77.76 121.89,-77.74"/>
<polygon fill="#757575" stroke="#757575" points="122.5,-88.29 121.9,-77.71 115.77,-86.36 122.5,-88.29"/>
</g>
<!-- index.css -->
<g id="node14" class="node">
<title>index.css</title>
<path fill="none" stroke="#cfffac" d="M121.15,-48.82C121.15,-48.82 63.49,-48.82 63.49,-48.82 59.65,-48.82 55.82,-44.98 55.82,-41.15 55.82,-41.15 55.82,-33.48 55.82,-33.48 55.82,-29.65 59.65,-25.82 63.49,-25.82 63.49,-25.82 121.15,-25.82 121.15,-25.82 124.99,-25.82 128.82,-29.65 128.82,-33.48 128.82,-33.48 128.82,-41.15 128.82,-41.15 128.82,-44.98 124.99,-48.82 121.15,-48.82"/>
<text text-anchor="middle" x="92.32" y="-33.62" font-family="Arial" font-size="14.00" fill="#cfffac">index.css</text>
</g>
<!-- lib/createSession.test.ts -->
<g id="node15" class="node">
<title>lib/createSession.test.ts</title>
<path fill="none" stroke="#c6c5fe" d="M187.24,-34.27C187.24,-34.27 43.57,-34.27 43.57,-34.27 39.74,-34.27 35.91,-30.44 35.91,-26.6 35.91,-26.6 35.91,-18.94 35.91,-18.94 35.91,-15.1 39.74,-11.27 43.57,-11.27 43.57,-11.27 187.24,-11.27 187.24,-11.27 191.07,-11.27 194.91,-15.1 194.91,-18.94 194.91,-18.94 194.91,-26.6 194.91,-26.6 194.91,-30.44 191.07,-34.27 187.24,-34.27"/>
<text text-anchor="middle" x="115.41" y="-19.07" font-family="Arial" font-size="14.00" fill="#c6c5fe">lib/createSession.test.ts</text>
</g>
<!-- lib/createSession.test.ts&#45;&gt;lib/mutations.ts -->
<g id="edge10" class="edge">
<title>lib/createSession.test.ts&#45;&gt;lib/mutations.ts</title>
<path fill="none" stroke="#757575" d="M122.44,-34.37C124.99,-38.59 127.96,-43.49 130.84,-48.24"/>
<polygon fill="#757575" stroke="#757575" points="127.96,-50.25 136.14,-56.99 133.95,-46.62 127.96,-50.25"/>
</g>
<!-- lib/createSession.test.ts&#45;&gt;lib/supabaseClient.ts -->
<g id="edge11" class="edge">
<title>lib/createSession.test.ts&#45;&gt;lib/supabaseClient.ts</title>
<path fill="none" stroke="#757575" d="M133.59,-19.51C133.6,-19.51 133.6,-19.51 133.61,-19.51"/>
<polygon fill="#757575" stroke="#757575" points="124.42,-24.76 133.63,-19.51 123.15,-17.87 124.42,-24.76"/>
</g>
<!-- lib/mutations.test.ts -->
<g id="node16" class="node">
<title>lib/mutations.test.ts</title>
<path fill="none" stroke="#c6c5fe" d="M214.94,-46.39C214.94,-46.39 97.28,-46.39 97.28,-46.39 93.44,-46.39 89.61,-42.56 89.61,-38.72 89.61,-38.72 89.61,-31.06 89.61,-31.06 89.61,-27.22 93.44,-23.39 97.28,-23.39 97.28,-23.39 214.94,-23.39 214.94,-23.39 218.78,-23.39 222.61,-27.22 222.61,-31.06 222.61,-31.06 222.61,-38.72 222.61,-38.72 222.61,-42.56 218.78,-46.39 214.94,-46.39"/>
<text text-anchor="middle" x="156.11" y="-31.19" font-family="Arial" font-size="14.00" fill="#c6c5fe">lib/mutations.test.ts</text>
</g>
<!-- lib/mutations.test.ts&#45;&gt;lib/mutations.ts -->
<g id="edge12" class="edge">
<title>lib/mutations.test.ts&#45;&gt;lib/mutations.ts</title>
<path fill="none" stroke="#757575" d="M151.62,-46.73C151.5,-47.05 151.38,-47.37 151.26,-47.68"/>
<polygon fill="#757575" stroke="#757575" points="147.96,-46.49 147.69,-57.09 154.51,-48.98 147.96,-46.49"/>
</g>
<!-- lib/mutations.test.ts&#45;&gt;lib/types.ts -->
<g id="edge13" class="edge">
<title>lib/mutations.test.ts&#45;&gt;lib/types.ts</title>
<path fill="none" stroke="#757575" d="M155.8,-44.5C155.8,-44.51 155.8,-44.53 155.8,-44.54"/>
<polygon fill="#757575" stroke="#757575" points="152.65,-34.46 155.8,-44.58 159.65,-34.71 152.65,-34.46"/>
</g>
<!-- lib/types/index.ts -->
<g id="node23" class="node">
<title>lib/types/index.ts</title>
<path fill="none" stroke="#c6c5fe" d="M214.13,-56.11C214.13,-56.11 113.47,-56.11 113.47,-56.11 109.63,-56.11 105.8,-52.27 105.8,-48.44 105.8,-48.44 105.8,-40.77 105.8,-40.77 105.8,-36.94 109.63,-33.11 113.47,-33.11 113.47,-33.11 214.13,-33.11 214.13,-33.11 217.97,-33.11 221.8,-36.94 221.8,-40.77 221.8,-40.77 221.8,-48.44 221.8,-48.44 221.8,-52.27 217.97,-56.11 214.13,-56.11"/>
<text text-anchor="middle" x="163.8" y="-40.91" font-family="Arial" font-size="14.00" fill="#c6c5fe">lib/types/index.ts</text>
</g>
<!-- lib/types.ts&#45;&gt;lib/types/index.ts -->
<g id="edge22" class="edge">
<title>lib/types.ts&#45;&gt;lib/types/index.ts</title>
<path fill="none" stroke="#757575" d="M163.71,-44.61C163.73,-44.61 163.74,-44.61 163.75,-44.61"/>
<polygon fill="#757575" stroke="#757575" points="153.79,-48.14 163.78,-44.61 153.77,-41.14 153.79,-48.14"/>
</g>
<!-- lib/mutations.validation.ts -->
<g id="node18" class="node">
<title>lib/mutations.validation.ts</title>
<path fill="none" stroke="#cfffac" d="M368.65,-153.11C368.65,-153.11 215.98,-153.11 215.98,-153.11 212.15,-153.11 208.32,-149.27 208.32,-145.44 208.32,-145.44 208.32,-137.77 208.32,-137.77 208.32,-133.94 212.15,-130.11 215.98,-130.11 215.98,-130.11 368.65,-130.11 368.65,-130.11 372.48,-130.11 376.32,-133.94 376.32,-137.77 376.32,-137.77 376.32,-145.44 376.32,-145.44 376.32,-149.27 372.48,-153.11 368.65,-153.11"/>
<text text-anchor="middle" x="292.32" y="-137.91" font-family="Arial" font-size="14.00" fill="#cfffac">lib/mutations.validation.ts</text>
</g>
<!-- lib/presence.ts -->
<g id="node19" class="node">
<title>lib/presence.ts</title>
<path fill="none" stroke="#c6c5fe" d="M178.72,-23C178.72,-23 90.05,-23 90.05,-23 86.22,-23 82.38,-19.17 82.38,-15.33 82.38,-15.33 82.38,-7.67 82.38,-7.67 82.38,-3.83 86.22,0 90.05,0 90.05,0 178.72,0 178.72,0 182.55,0 186.38,-3.83 186.38,-7.67 186.38,-7.67 186.38,-15.33 186.38,-15.33 186.38,-19.17 182.55,-23 178.72,-23"/>
<text text-anchor="middle" x="134.38" y="-7.8" font-family="Arial" font-size="14.00" fill="#c6c5fe">lib/presence.ts</text>
</g>
<!-- lib/presence.ts&#45;&gt;lib/supabaseClient.ts -->
<g id="edge16" class="edge">
<title>lib/presence.ts&#45;&gt;lib/supabaseClient.ts</title>
<path fill="none" stroke="#757575" d="M133.65,-19.41C133.65,-19.43 133.65,-19.44 133.65,-19.45"/>
<polygon fill="#757575" stroke="#757575" points="131.11,-9.19 133.64,-19.48 138.08,-9.86 131.11,-9.19"/>
</g>
<!-- lib/realtimeHooks.ts&#45;&gt;lib/supabaseClient.ts -->
<g id="edge17" class="edge">
<title>lib/realtimeHooks.ts&#45;&gt;lib/supabaseClient.ts</title>
<path fill="none" stroke="#757575" d="M148.52,-42.53C147.93,-41.63 147.33,-40.7 146.72,-39.75"/>
<polygon fill="#757575" stroke="#757575" points="149.61,-37.78 141.25,-31.28 143.73,-41.58 149.61,-37.78"/>
</g>
<!-- lib/realtimeHooks.ts&#45;&gt;lib/types.ts -->
<g id="edge18" class="edge">
<title>lib/realtimeHooks.ts&#45;&gt;lib/types.ts</title>
<path fill="none" stroke="#757575" d="M155.8,-44.72C155.8,-44.7 155.8,-44.68 155.8,-44.67"/>
<polygon fill="#757575" stroke="#757575" points="159.67,-54.5 155.8,-44.63 152.67,-54.76 159.67,-54.5"/>
</g>
<!-- lib/sessionCode.test.ts -->
<g id="node21" class="node">
<title>lib/sessionCode.test.ts</title>
<path fill="none" stroke="#c6c5fe" d="M192.37,-30.28C192.37,-30.28 55.71,-30.28 55.71,-30.28 51.87,-30.28 48.04,-26.45 48.04,-22.61 48.04,-22.61 48.04,-14.95 48.04,-14.95 48.04,-11.11 51.87,-7.28 55.71,-7.28 55.71,-7.28 192.37,-7.28 192.37,-7.28 196.21,-7.28 200.04,-11.11 200.04,-14.95 200.04,-14.95 200.04,-22.61 200.04,-22.61 200.04,-26.45 196.21,-30.28 192.37,-30.28"/>
<text text-anchor="middle" x="124.04" y="-15.08" font-family="Arial" font-size="14.00" fill="#c6c5fe">lib/sessionCode.test.ts</text>
</g>
<!-- lib/sessionCode.test.ts&#45;&gt;lib/mutations.ts -->
<g id="edge19" class="edge">
<title>lib/sessionCode.test.ts&#45;&gt;lib/mutations.ts</title>
<path fill="none" stroke="#757575" d="M128.5,-30.37C130.49,-35.54 132.9,-41.8 135.18,-47.75"/>
<polygon fill="#757575" stroke="#757575" points="131.97,-49.15 138.83,-57.22 138.5,-46.63 131.97,-49.15"/>
</g>
<!-- lib/sessionCode.test.ts&#45;&gt;lib/supabaseClient.ts -->
<g id="edge20" class="edge">
<title>lib/sessionCode.test.ts&#45;&gt;lib/supabaseClient.ts</title>
<path fill="none" stroke="#757575" d="M133.53,-19.5C133.55,-19.5 133.57,-19.5 133.58,-19.5"/>
<polygon fill="#757575" stroke="#757575" points="123.37,-22.21 133.61,-19.5 123.91,-15.23 123.37,-22.21"/>
</g>
<!-- lib/sessionHooks.ts&#45;&gt;lib/supabaseClient.ts -->
<g id="edge21" class="edge">
<title>lib/sessionHooks.ts&#45;&gt;lib/supabaseClient.ts</title>
<path fill="none" stroke="#757575" d="M115.9,-46.54C117.32,-44.39 118.82,-42.09 120.34,-39.78"/>
<polygon fill="#757575" stroke="#757575" points="123.5,-41.34 126.06,-31.06 117.65,-37.5 123.5,-41.34"/>
</g>
<!-- lib/types/supabase.ts -->
<g id="node24" class="node">
<title>lib/types/supabase.ts</title>
<path fill="none" stroke="#cfffac" d="M235.63,-56.11C235.63,-56.11 107.97,-56.11 107.97,-56.11 104.13,-56.11 100.3,-52.27 100.3,-48.44 100.3,-48.44 100.3,-40.77 100.3,-40.77 100.3,-36.94 104.13,-33.11 107.97,-33.11 107.97,-33.11 235.63,-33.11 235.63,-33.11 239.47,-33.11 243.3,-36.94 243.3,-40.77 243.3,-40.77 243.3,-48.44 243.3,-48.44 243.3,-52.27 239.47,-56.11 235.63,-56.11"/>
<text text-anchor="middle" x="171.8" y="-40.91" font-family="Arial" font-size="14.00" fill="#cfffac">lib/types/supabase.ts</text>
</g>
<!-- lib/types/index.ts&#45;&gt;lib/types/supabase.ts -->
<g id="edge23" class="edge">
<title>lib/types/index.ts&#45;&gt;lib/types/supabase.ts</title>
<path fill="none" stroke="#757575" d="M171.71,-44.61C171.73,-44.61 171.74,-44.61 171.75,-44.61"/>
<polygon fill="#757575" stroke="#757575" points="161.79,-48.14 171.78,-44.61 161.77,-41.14 161.79,-48.14"/>
</g>
<!-- main.tsx -->
<g id="node25" class="node">
<title>main.tsx</title>
<path fill="none" stroke="#c6c5fe" d="M126.66,-50.31C126.66,-50.31 73.99,-50.31 73.99,-50.31 70.16,-50.31 66.33,-46.48 66.33,-42.65 66.33,-42.65 66.33,-34.98 66.33,-34.98 66.33,-31.15 70.16,-27.31 73.99,-27.31 73.99,-27.31 126.66,-27.31 126.66,-27.31 130.49,-27.31 134.33,-31.15 134.33,-34.98 134.33,-34.98 134.33,-42.65 134.33,-42.65 134.33,-46.48 130.49,-50.31 126.66,-50.31"/>
<text text-anchor="middle" x="100.33" y="-35.11" font-family="Arial" font-size="14.00" fill="#c6c5fe">main.tsx</text>
</g>
<!-- main.tsx&#45;&gt;App.tsx -->
<g id="edge24" class="edge">
<title>main.tsx&#45;&gt;App.tsx</title>
<path fill="none" stroke="#757575" d="M108.24,-40.29C108.25,-40.3 108.27,-40.3 108.28,-40.3"/>
<polygon fill="#757575" stroke="#757575" points="97.82,-41.88 108.31,-40.31 99.13,-35 97.82,-41.88"/>
</g>
<!-- main.tsx&#45;&gt;index.css -->
<g id="edge25" class="edge">
<title>main.tsx&#45;&gt;index.css</title>
<path fill="none" stroke="#757575" d="M92.41,-37.33C92.4,-37.33 92.38,-37.33 92.37,-37.33"/>
<polygon fill="#757575" stroke="#757575" points="102.83,-35.75 92.34,-37.32 101.52,-42.63 102.83,-35.75"/>
</g>
<!-- setupTests.ts -->
<g id="node26" class="node">
<title>setupTests.ts</title>
<path fill="none" stroke="#cfffac" d="M179.15,-153.11C179.15,-153.11 99.48,-153.11 99.48,-153.11 95.65,-153.11 91.82,-149.27 91.82,-145.44 91.82,-145.44 91.82,-137.77 91.82,-137.77 91.82,-133.94 95.65,-130.11 99.48,-130.11 99.48,-130.11 179.15,-130.11 179.15,-130.11 182.98,-130.11 186.82,-133.94 186.82,-137.77 186.82,-137.77 186.82,-145.44 186.82,-145.44 186.82,-149.27 182.98,-153.11 179.15,-153.11"/>
<text text-anchor="middle" x="139.32" y="-137.91" font-family="Arial" font-size="14.00" fill="#cfffac">setupTests.ts</text>
</g>
</g>
</svg>
