<?xml version="1.0" encoding="UTF-8" standalone="no"?>
<!DOCTYPE svg PUBLIC "-//W3C//DTD SVG 1.1//EN"
 "http://www.w3.org/Graphics/SVG/1.1/DTD/svg11.dtd">
<!-- Generated by graphviz version 2.43.0 (0)
 -->
<!-- Title: G Pages: 1 -->
<svg width="432pt" height="197pt"
 viewBox="0.00 0.00 431.71 196.79" xmlns="http://www.w3.org/2000/svg" xmlns:xlink="http://www.w3.org/1999/xlink">
<g id="graph0" class="graph" transform="scale(1 1) rotate(0) translate(21.6 175.19)">
<title>G</title>
<polygon fill="#111111" stroke="transparent" points="-21.6,21.6 -21.6,-175.19 410.11,-175.19 410.11,21.6 -21.6,21.6"/>
<!-- App.tsx -->
<g id="node1" class="node">
<title>App.tsx</title>
<path fill="none" stroke="#c6c5fe" d="M175.84,-39.01C175.84,-39.01 129.17,-39.01 129.17,-39.01 125.34,-39.01 121.51,-35.17 121.51,-31.34 121.51,-31.34 121.51,-23.67 121.51,-23.67 121.51,-19.84 125.34,-16.01 129.17,-16.01 129.17,-16.01 175.84,-16.01 175.84,-16.01 179.67,-16.01 183.51,-19.84 183.51,-23.67 183.51,-23.67 183.51,-31.34 183.51,-31.34 183.51,-35.17 179.67,-39.01 175.84,-39.01"/>
<text text-anchor="middle" x="152.51" y="-23.81" font-family="Arial" font-size="14.00" fill="#c6c5fe">App.tsx</text>
</g>
<!-- pages/GameSetup.tsx -->
<g id="node2" class="node">
<title>pages/GameSetup.tsx</title>
<path fill="none" stroke="#c6c5fe" d="M240.39,-44.31C240.39,-44.31 103.72,-44.31 103.72,-44.31 99.89,-44.31 96.05,-40.48 96.05,-36.64 96.05,-36.64 96.05,-28.98 96.05,-28.98 96.05,-25.14 99.89,-21.31 103.72,-21.31 103.72,-21.31 240.39,-21.31 240.39,-21.31 244.22,-21.31 248.05,-25.14 248.05,-28.98 248.05,-28.98 248.05,-36.64 248.05,-36.64 248.05,-40.48 244.22,-44.31 240.39,-44.31"/>
<text text-anchor="middle" x="172.05" y="-29.11" font-family="Arial" font-size="14.00" fill="#c6c5fe">pages/GameSetup.tsx</text>
</g>
<!-- App.tsx&#45;&gt;pages/GameSetup.tsx -->
<g id="edge1" class="edge">
<title>App.tsx&#45;&gt;pages/GameSetup.tsx</title>
<path fill="none" stroke="#757575" d="M172,-32.8C172.01,-32.8 172.02,-32.8 172.02,-32.8"/>
<polygon fill="#757575" stroke="#757575" points="161.46,-33.53 172.04,-32.81 163.32,-26.77 161.46,-33.53"/>
</g>
<!-- pages/Homepage.tsx -->
<g id="node3" class="node">
<title>pages/Homepage.tsx</title>
<path fill="none" stroke="#c6c5fe" d="M199.16,-81.72C199.16,-81.72 69.49,-81.72 69.49,-81.72 65.66,-81.72 61.82,-77.89 61.82,-74.05 61.82,-74.05 61.82,-66.39 61.82,-66.39 61.82,-62.55 65.66,-58.72 69.49,-58.72 69.49,-58.72 199.16,-58.72 199.16,-58.72 202.99,-58.72 206.82,-62.55 206.82,-66.39 206.82,-66.39 206.82,-74.05 206.82,-74.05 206.82,-77.89 202.99,-81.72 199.16,-81.72"/>
<text text-anchor="middle" x="134.32" y="-66.52" font-family="Arial" font-size="14.00" fill="#c6c5fe">pages/Homepage.tsx</text>
</g>
<!-- App.tsx&#45;&gt;pages/Homepage.tsx -->
<g id="edge2" class="edge">
<title>App.tsx&#45;&gt;pages/Homepage.tsx</title>
<path fill="none" stroke="#757575" d="M147.54,-39.18C146.22,-42.29 144.74,-45.74 143.28,-49.18"/>
<polygon fill="#757575" stroke="#757575" points="139.98,-47.99 139.29,-58.56 146.42,-50.73 139.98,-47.99"/>
</g>
<!-- pages/Join.tsx -->
<g id="node4" class="node">
<title>pages/Join.tsx</title>
<path fill="none" stroke="#c6c5fe" d="M185.8,-38.51C185.8,-38.51 98.13,-38.51 98.13,-38.51 94.3,-38.51 90.46,-34.68 90.46,-30.84 90.46,-30.84 90.46,-23.18 90.46,-23.18 90.46,-19.34 94.3,-15.51 98.13,-15.51 98.13,-15.51 185.8,-15.51 185.8,-15.51 189.63,-15.51 193.46,-19.34 193.46,-23.18 193.46,-23.18 193.46,-30.84 193.46,-30.84 193.46,-34.68 189.63,-38.51 185.8,-38.51"/>
<text text-anchor="middle" x="141.96" y="-23.31" font-family="Arial" font-size="14.00" fill="#c6c5fe">pages/Join.tsx</text>
</g>
<!-- App.tsx&#45;&gt;pages/Join.tsx -->
<g id="edge3" class="edge">
<title>App.tsx&#45;&gt;pages/Join.tsx</title>
<path fill="none" stroke="#757575" d="M142.08,-27.02C142.06,-27.02 142.04,-27.01 142.03,-27.01"/>
<polygon fill="#757575" stroke="#757575" points="152.16,-24.01 141.99,-27.01 151.81,-31.01 152.16,-24.01"/>
</g>
<!-- pages/Lobby.tsx -->
<g id="node5" class="node">
<title>pages/Lobby.tsx</title>
<path fill="none" stroke="#c6c5fe" d="M182.33,-44.26C182.33,-44.26 83.66,-44.26 83.66,-44.26 79.83,-44.26 76,-40.42 76,-36.59 76,-36.59 76,-28.92 76,-28.92 76,-25.09 79.83,-21.26 83.66,-21.26 83.66,-21.26 182.33,-21.26 182.33,-21.26 186.16,-21.26 190,-25.09 190,-28.92 190,-28.92 190,-36.59 190,-36.59 190,-40.42 186.16,-44.26 182.33,-44.26"/>
<text text-anchor="middle" x="133" y="-29.06" font-family="Arial" font-size="14.00" fill="#c6c5fe">pages/Lobby.tsx</text>
</g>
<!-- App.tsx&#45;&gt;pages/Lobby.tsx -->
<g id="edge4" class="edge">
<title>App.tsx&#45;&gt;pages/Lobby.tsx</title>
<path fill="none" stroke="#757575" d="M133.05,-32.74C133.04,-32.74 133.04,-32.74 133.03,-32.75"/>
<polygon fill="#757575" stroke="#757575" points="141.75,-26.73 133.01,-32.75 143.59,-33.49 141.75,-26.73"/>
</g>
<!-- pages/Quiz.tsx -->
<g id="node6" class="node">
<title>pages/Quiz.tsx</title>
<path fill="none" stroke="#c6c5fe" d="M217.88,-83.17C217.88,-83.17 126.22,-83.17 126.22,-83.17 122.38,-83.17 118.55,-79.34 118.55,-75.5 118.55,-75.5 118.55,-67.84 118.55,-67.84 118.55,-64 122.38,-60.17 126.22,-60.17 126.22,-60.17 217.88,-60.17 217.88,-60.17 221.72,-60.17 225.55,-64 225.55,-67.84 225.55,-67.84 225.55,-75.5 225.55,-75.5 225.55,-79.34 221.72,-83.17 217.88,-83.17"/>
<text text-anchor="middle" x="172.05" y="-67.97" font-family="Arial" font-size="14.00" fill="#c6c5fe">pages/Quiz.tsx</text>
</g>
<!-- App.tsx&#45;&gt;pages/Quiz.tsx -->
<g id="edge5" class="edge">
<title>App.tsx&#45;&gt;pages/Quiz.tsx</title>
<path fill="none" stroke="#757575" d="M157.64,-39.11C159.2,-42.63 160.96,-46.62 162.71,-50.56"/>
<polygon fill="#757575" stroke="#757575" points="159.63,-52.26 166.88,-59.99 166.03,-49.43 159.63,-52.26"/>
</g>
<!-- pages/Results.tsx -->
<g id="node7" class="node">
<title>pages/Results.tsx</title>
<path fill="none" stroke="#c6c5fe" d="M180.77,-73.71C180.77,-73.71 73.11,-73.71 73.11,-73.71 69.27,-73.71 65.44,-69.88 65.44,-66.05 65.44,-66.05 65.44,-58.38 65.44,-58.38 65.44,-54.55 69.27,-50.71 73.11,-50.71 73.11,-50.71 180.77,-50.71 180.77,-50.71 184.61,-50.71 188.44,-54.55 188.44,-58.38 188.44,-58.38 188.44,-66.05 188.44,-66.05 188.44,-69.88 184.61,-73.71 180.77,-73.71"/>
<text text-anchor="middle" x="126.94" y="-58.51" font-family="Arial" font-size="14.00" fill="#c6c5fe">pages/Results.tsx</text>
</g>
<!-- App.tsx&#45;&gt;pages/Results.tsx -->
<g id="edge6" class="edge">
<title>App.tsx&#45;&gt;pages/Results.tsx</title>
<path fill="none" stroke="#757575" d="M143.85,-39.26C143.1,-40.28 142.33,-41.32 141.55,-42.38"/>
<polygon fill="#757575" stroke="#757575" points="138.7,-40.35 135.59,-50.48 144.34,-44.5 138.7,-40.35"/>
</g>
<!-- lib/mutations.ts -->
<g id="node9" class="node">
<title>lib/mutations.ts</title>
<path fill="none" stroke="#c6c5fe" d="M208.98,-89.19C208.98,-89.19 117.32,-89.19 117.32,-89.19 113.48,-89.19 109.65,-85.36 109.65,-81.52 109.65,-81.52 109.65,-73.86 109.65,-73.86 109.65,-70.02 113.48,-66.19 117.32,-66.19 117.32,-66.19 208.98,-66.19 208.98,-66.19 212.82,-66.19 216.65,-70.02 216.65,-73.86 216.65,-73.86 216.65,-81.52 216.65,-81.52 216.65,-85.36 212.82,-89.19 208.98,-89.19"/>
<text text-anchor="middle" x="163.15" y="-73.99" font-family="Arial" font-size="14.00" fill="#c6c5fe">lib/mutations.ts</text>
</g>
<!-- pages/GameSetup.tsx&#45;&gt;lib/mutations.ts -->
<g id="edge25" class="edge">
<title>pages/GameSetup.tsx&#45;&gt;lib/mutations.ts</title>
<path fill="none" stroke="#757575" d="M169.72,-44.6C169.01,-48.14 168.22,-52.13 167.44,-56.08"/>
<polygon fill="#757575" stroke="#757575" points="163.96,-55.64 165.44,-66.13 170.82,-57.01 163.96,-55.64"/>
</g>
<!-- components/LobbyStatus.tsx -->
<g id="node10" class="node">
<title>components/LobbyStatus.tsx</title>
<path fill="none" stroke="#c6c5fe" d="M250.95,-38.5C250.95,-38.5 75.28,-38.5 75.28,-38.5 71.45,-38.5 67.62,-34.66 67.62,-30.83 67.62,-30.83 67.62,-23.16 67.62,-23.16 67.62,-19.33 71.45,-15.5 75.28,-15.5 75.28,-15.5 250.95,-15.5 250.95,-15.5 254.78,-15.5 258.62,-19.33 258.62,-23.16 258.62,-23.16 258.62,-30.83 258.62,-30.83 258.62,-34.66 254.78,-38.5 250.95,-38.5"/>
<text text-anchor="middle" x="163.12" y="-23.3" font-family="Arial" font-size="14.00" fill="#c6c5fe">components/LobbyStatus.tsx</text>
</g>
<!-- pages/GameSetup.tsx&#45;&gt;components/LobbyStatus.tsx -->
<g id="edge24" class="edge">
<title>pages/GameSetup.tsx&#45;&gt;components/LobbyStatus.tsx</title>
<path fill="none" stroke="#757575" d="M163.22,-27.06C163.2,-27.05 163.19,-27.04 163.17,-27.03"/>
<polygon fill="#757575" stroke="#757575" points="173.44,-29.54 163.14,-27.01 169.62,-35.41 173.44,-29.54"/>
</g>
<!-- lib/types.ts -->
<g id="node16" class="node">
<title>lib/types.ts</title>
<path fill="none" stroke="#c6c5fe" d="M210.82,-63.59C210.82,-63.59 146.15,-63.59 146.15,-63.59 142.32,-63.59 138.49,-59.75 138.49,-55.92 138.49,-55.92 138.49,-48.25 138.49,-48.25 138.49,-44.42 142.32,-40.59 146.15,-40.59 146.15,-40.59 210.82,-40.59 210.82,-40.59 214.65,-40.59 218.49,-44.42 218.49,-48.25 218.49,-48.25 218.49,-55.92 218.49,-55.92 218.49,-59.75 214.65,-63.59 210.82,-63.59"/>
<text text-anchor="middle" x="178.49" y="-48.39" font-family="Arial" font-size="14.00" fill="#c6c5fe">lib/types.ts</text>
</g>
<!-- pages/GameSetup.tsx&#45;&gt;lib/types.ts -->
<g id="edge26" class="edge">
<title>pages/GameSetup.tsx&#45;&gt;lib/types.ts</title>
<path fill="none" stroke="#757575" d="M176.02,-44.69C176.04,-44.75 176.06,-44.81 176.08,-44.88"/>
<polygon fill="#757575" stroke="#757575" points="169.65,-36.68 176.14,-45.06 176.29,-34.47 169.65,-36.68"/>
</g>
<!-- components/ActiveGames.tsx -->
<g id="node8" class="node">
<title>components/ActiveGames.tsx</title>
<path fill="none" stroke="#c6c5fe" d="M233.16,-89.11C233.16,-89.11 51.5,-89.11 51.5,-89.11 47.66,-89.11 43.83,-85.27 43.83,-81.44 43.83,-81.44 43.83,-73.77 43.83,-73.77 43.83,-69.94 47.66,-66.11 51.5,-66.11 51.5,-66.11 233.16,-66.11 233.16,-66.11 237,-66.11 240.83,-69.94 240.83,-73.77 240.83,-73.77 240.83,-81.44 240.83,-81.44 240.83,-85.27 237,-89.11 233.16,-89.11"/>
<text text-anchor="middle" x="142.33" y="-73.91" font-family="Arial" font-size="14.00" fill="#c6c5fe">components/ActiveGames.tsx</text>
</g>
<!-- pages/Homepage.tsx&#45;&gt;components/ActiveGames.tsx -->
<g id="edge27" class="edge">
<title>pages/Homepage.tsx&#45;&gt;components/ActiveGames.tsx</title>
<path fill="none" stroke="#757575" d="M142.24,-77.52C142.26,-77.54 142.27,-77.55 142.28,-77.56"/>
<polygon fill="#757575" stroke="#757575" points="132.58,-73.37 142.31,-77.58 137.33,-68.22 132.58,-73.37"/>
</g>
<!-- pages/Homepage.tsx&#45;&gt;lib/mutations.ts -->
<g id="edge29" class="edge">
<title>pages/Homepage.tsx&#45;&gt;lib/mutations.ts</title>
<path fill="none" stroke="#757575" d="M163.07,-77.67C163.08,-77.67 163.09,-77.68 163.1,-77.68"/>
<polygon fill="#757575" stroke="#757575" points="152.56,-78.54 163.13,-77.69 154.34,-71.76 152.56,-78.54"/>
</g>
<!-- components/PasswordModal.tsx -->
<g id="node13" class="node">
<title>components/PasswordModal.tsx</title>
<path fill="none" stroke="#cfffac" d="M224.67,-89.73C224.67,-89.73 28,-89.73 28,-89.73 24.17,-89.73 20.34,-85.89 20.34,-82.06 20.34,-82.06 20.34,-74.39 20.34,-74.39 20.34,-70.56 24.17,-66.73 28,-66.73 28,-66.73 224.67,-66.73 224.67,-66.73 228.5,-66.73 232.34,-70.56 232.34,-74.39 232.34,-74.39 232.34,-82.06 232.34,-82.06 232.34,-85.89 228.5,-89.73 224.67,-89.73"/>
<text text-anchor="middle" x="126.34" y="-74.53" font-family="Arial" font-size="14.00" fill="#cfffac">components/PasswordModal.tsx</text>
</g>
<!-- pages/Homepage.tsx&#45;&gt;components/PasswordModal.tsx -->
<g id="edge28" class="edge">
<title>pages/Homepage.tsx&#45;&gt;components/PasswordModal.tsx</title>
<path fill="none" stroke="#757575" d="M126.43,-78.14C126.41,-78.15 126.4,-78.16 126.39,-78.18"/>
<polygon fill="#757575" stroke="#757575" points="130.95,-68.64 126.36,-78.2 135.91,-73.59 130.95,-68.64"/>
</g>
<!-- pages/Join.tsx&#45;&gt;lib/mutations.ts -->
<g id="edge30" class="edge">
<title>pages/Join.tsx&#45;&gt;lib/mutations.ts</title>
<path fill="none" stroke="#757575" d="M146.88,-38.77C149.07,-44.01 151.72,-50.36 154.25,-56.39"/>
<polygon fill="#757575" stroke="#757575" points="151.18,-58.12 158.26,-66 157.63,-55.42 151.18,-58.12"/>
</g>
<!-- lib/supabaseClient.ts -->
<g id="node11" class="node">
<title>lib/supabaseClient.ts</title>
<path fill="none" stroke="#cfffac" d="M191.45,-53.69C191.45,-53.69 65.78,-53.69 65.78,-53.69 61.95,-53.69 58.11,-49.86 58.11,-46.02 58.11,-46.02 58.11,-38.36 58.11,-38.36 58.11,-34.52 61.95,-30.69 65.78,-30.69 65.78,-30.69 191.45,-30.69 191.45,-30.69 195.28,-30.69 199.11,-34.52 199.11,-38.36 199.11,-38.36 199.11,-46.02 199.11,-46.02 199.11,-49.86 195.28,-53.69 191.45,-53.69"/>
<text text-anchor="middle" x="128.61" y="-38.49" font-family="Arial" font-size="14.00" fill="#cfffac">lib/supabaseClient.ts</text>
</g>
<!-- pages/Join.tsx&#45;&gt;lib/supabaseClient.ts -->
<g id="edge31" class="edge">
<title>pages/Join.tsx&#45;&gt;lib/supabaseClient.ts</title>
<path fill="none" stroke="#757575" d="M131.71,-38.67C131.65,-38.73 131.6,-38.8 131.54,-38.86"/>
<polygon fill="#757575" stroke="#757575" points="135.36,-29.22 131.38,-39.04 140.61,-33.85 135.36,-29.22"/>
</g>
<!-- pages/Lobby.tsx&#45;&gt;lib/mutations.ts -->
<g id="edge32" class="edge">
<title>pages/Lobby.tsx&#45;&gt;lib/mutations.ts</title>
<path fill="none" stroke="#757575" d="M140.92,-44.56C143.64,-48.62 146.77,-53.28 149.8,-57.8"/>
<polygon fill="#757575" stroke="#757575" points="146.91,-59.77 155.39,-66.12 152.72,-55.86 146.91,-59.77"/>
</g>
<!-- pages/Lobby.tsx&#45;&gt;lib/supabaseClient.ts -->
<g id="edge34" class="edge">
<title>pages/Lobby.tsx&#45;&gt;lib/supabaseClient.ts</title>
<path fill="none" stroke="#757575" d="M128.66,-42.08C128.65,-42.1 128.65,-42.12 128.64,-42.13"/>
<polygon fill="#757575" stroke="#757575" points="129.68,-31.61 128.63,-42.16 136.03,-34.57 129.68,-31.61"/>
</g>
<!-- lib/sessionHooks.ts -->
<g id="node21" class="node">
<title>lib/sessionHooks.ts</title>
<path fill="none" stroke="#c6c5fe" d="M183.19,-63.54C183.19,-63.54 66.52,-63.54 66.52,-63.54 62.69,-63.54 58.85,-59.71 58.85,-55.87 58.85,-55.87 58.85,-48.21 58.85,-48.21 58.85,-44.37 62.69,-40.54 66.52,-40.54 66.52,-40.54 183.19,-40.54 183.19,-40.54 187.02,-40.54 190.85,-44.37 190.85,-48.21 190.85,-48.21 190.85,-55.87 190.85,-55.87 190.85,-59.71 187.02,-63.54 183.19,-63.54"/>
<text text-anchor="middle" x="124.85" y="-48.34" font-family="Arial" font-size="14.00" fill="#c6c5fe">lib/sessionHooks.ts</text>
</g>
<!-- pages/Lobby.tsx&#45;&gt;lib/sessionHooks.ts -->
<g id="edge33" class="edge">
<title>pages/Lobby.tsx&#45;&gt;lib/sessionHooks.ts</title>
<path fill="none" stroke="#757575" d="M127.98,-44.64C127.95,-44.7 127.93,-44.76 127.9,-44.82"/>
<polygon fill="#757575" stroke="#757575" points="128.49,-34.43 127.82,-45.01 134.94,-37.16 128.49,-34.43"/>
</g>
<!-- pages/Quiz.tsx&#45;&gt;lib/mutations.ts -->
<g id="edge35" class="edge">
<title>pages/Quiz.tsx&#45;&gt;lib/mutations.ts</title>
<path fill="none" stroke="#757575" d="M163.25,-77.62C163.23,-77.63 163.22,-77.64 163.21,-77.65"/>
<polygon fill="#757575" stroke="#757575" points="169.5,-69.16 163.18,-77.67 173.43,-74.96 169.5,-69.16"/>
</g>
<!-- pages/Quiz.tsx&#45;&gt;lib/types.ts -->
<g id="edge38" class="edge">
<title>pages/Quiz.tsx&#45;&gt;lib/types.ts</title>
<path fill="none" stroke="#757575" d="M175.87,-60.05C175.89,-59.99 175.91,-59.92 175.93,-59.86"/>
<polygon fill="#757575" stroke="#757575" points="176.2,-70.25 176,-59.66 169.55,-68.06 176.2,-70.25"/>
</g>
<!-- lib/realtimeHooks.ts -->
<g id="node19" class="node">
<title>lib/realtimeHooks.ts</title>
<path fill="none" stroke="#c6c5fe" d="M237.74,-74.18C237.74,-74.18 118.08,-74.18 118.08,-74.18 114.24,-74.18 110.41,-70.35 110.41,-66.51 110.41,-66.51 110.41,-58.85 110.41,-58.85 110.41,-55.01 114.24,-51.18 118.08,-51.18 118.08,-51.18 237.74,-51.18 237.74,-51.18 241.58,-51.18 245.41,-55.01 245.41,-58.85 245.41,-58.85 245.41,-66.51 245.41,-66.51 245.41,-70.35 241.58,-74.18 237.74,-74.18"/>
<text text-anchor="middle" x="177.91" y="-58.98" font-family="Arial" font-size="14.00" fill="#c6c5fe">lib/realtimeHooks.ts</text>
</g>
<!-- pages/Quiz.tsx&#45;&gt;lib/realtimeHooks.ts -->
<g id="edge36" class="edge">
<title>pages/Quiz.tsx&#45;&gt;lib/realtimeHooks.ts</title>
<path fill="none" stroke="#757575" d="M177.84,-62.78C177.86,-62.76 177.87,-62.75 177.87,-62.74"/>
<polygon fill="#757575" stroke="#757575" points="175.35,-73 177.89,-62.7 169.49,-69.17 175.35,-73"/>
</g>
<!-- pages/Quiz.tsx&#45;&gt;lib/sessionHooks.ts -->
<g id="edge37" class="edge">
<title>pages/Quiz.tsx&#45;&gt;lib/sessionHooks.ts</title>
<path fill="none" stroke="#757575" d="M144.32,-60.14C144.24,-60.1 144.16,-60.07 144.08,-60.04"/>
<polygon fill="#757575" stroke="#757575" points="154.42,-60.55 143.84,-59.94 151.73,-67.01 154.42,-60.55"/>
</g>
<!-- pages/Results.tsx&#45;&gt;lib/mutations.ts -->
<g id="edge39" class="edge">
<title>pages/Results.tsx&#45;&gt;lib/mutations.ts</title>
<path fill="none" stroke="#757575" d="M154.01,-73.79C154.09,-73.82 154.18,-73.85 154.26,-73.89"/>
<polygon fill="#757575" stroke="#757575" points="143.93,-73.28 154.5,-73.99 146.68,-66.84 143.93,-73.28"/>
</g>
<!-- pages/Results.tsx&#45;&gt;lib/supabaseClient.ts -->
<g id="edge41" class="edge">
<title>pages/Results.tsx&#45;&gt;lib/supabaseClient.ts</title>
<path fill="none" stroke="#757575" d="M127.93,-50.33C127.94,-50.27 127.94,-50.2 127.95,-50.13"/>
<polygon fill="#757575" stroke="#757575" points="130.62,-60.19 127.97,-49.93 123.64,-59.6 130.62,-60.19"/>
</g>
<!-- pages/Results.tsx&#45;&gt;lib/sessionHooks.ts -->
<g id="edge40" class="edge">
<title>pages/Results.tsx&#45;&gt;lib/sessionHooks.ts</title>
<path fill="none" stroke="#757575" d="M124.88,-52.15C124.87,-52.14 124.87,-52.12 124.87,-52.1"/>
<polygon fill="#757575" stroke="#757575" points="130.32,-61.15 124.86,-52.07 123.46,-62.58 130.32,-61.15"/>
</g>
<!-- components/ActiveGames.tsx&#45;&gt;lib/mutations.ts -->
<g id="edge7" class="edge">
<title>components/ActiveGames.tsx&#45;&gt;lib/mutations.ts</title>
<path fill="none" stroke="#757575" d="M163.09,-77.69C163.1,-77.69 163.11,-77.69 163.12,-77.69"/>
<polygon fill="#757575" stroke="#757575" points="153.1,-81.1 163.14,-77.69 153.17,-74.1 153.1,-81.1"/>
</g>
<!-- lib/mutations.ts&#45;&gt;lib/supabaseClient.ts -->
<g id="edge12" class="edge">
<title>lib/mutations.ts&#45;&gt;lib/supabaseClient.ts</title>
<path fill="none" stroke="#757575" d="M151.84,-66.07C150.31,-64.49 148.7,-62.84 147.08,-61.17"/>
<polygon fill="#757575" stroke="#757575" points="149.55,-58.69 140.07,-53.96 144.53,-63.57 149.55,-58.69"/>
</g>
<!-- lib/mutations.ts&#45;&gt;lib/types.ts -->
<g id="edge13" class="edge">
<title>lib/mutations.ts&#45;&gt;lib/types.ts</title>
<path fill="none" stroke="#757575" d="M170.1,-66.09C170.16,-66 170.21,-65.9 170.27,-65.81"/>
<polygon fill="#757575" stroke="#757575" points="169.3,-74.24 171.44,-63.86 163.29,-70.64 169.3,-74.24"/>
</g>
<!-- components/LobbyStatus.tsx&#45;&gt;lib/supabaseClient.ts -->
<g id="edge8" class="edge">
<title>components/LobbyStatus.tsx&#45;&gt;lib/supabaseClient.ts</title>
<path fill="none" stroke="#757575" d="M136.96,-38.51C136.89,-38.55 136.81,-38.58 136.74,-38.61"/>
<polygon fill="#757575" stroke="#757575" points="144.26,-31.47 136.52,-38.71 147.08,-37.88 144.26,-31.47"/>
</g>
<!-- components/PasswordModal.test.tsx -->
<g id="node12" class="node">
<title>components/PasswordModal.test.tsx</title>
<path fill="none" stroke="#c6c5fe" d="M230.33,-97.73C230.33,-97.73 7.67,-97.73 7.67,-97.73 3.83,-97.73 0,-93.9 0,-90.06 0,-90.06 0,-82.4 0,-82.4 0,-78.56 3.83,-74.73 7.67,-74.73 7.67,-74.73 230.33,-74.73 230.33,-74.73 234.17,-74.73 238,-78.56 238,-82.4 238,-82.4 238,-90.06 238,-90.06 238,-93.9 234.17,-97.73 230.33,-97.73"/>
<text text-anchor="middle" x="119" y="-82.53" font-family="Arial" font-size="14.00" fill="#c6c5fe">components/PasswordModal.test.tsx</text>
</g>
<!-- components/PasswordModal.test.tsx&#45;&gt;components/PasswordModal.tsx -->
<g id="edge9" class="edge">
<title>components/PasswordModal.test.tsx&#45;&gt;components/PasswordModal.tsx</title>
<path fill="none" stroke="#757575" d="M126.26,-78.32C126.27,-78.3 126.28,-78.29 126.29,-78.28"/>
<polygon fill="#757575" stroke="#757575" points="122.13,-88 126.32,-78.25 116.97,-83.26 122.13,-88"/>
</g>
<!-- index.css -->
<g id="node14" class="node">
<title>index.css</title>
<path fill="none" stroke="#cfffac" d="M181.34,-23C181.34,-23 123.67,-23 123.67,-23 119.84,-23 116.01,-19.17 116.01,-15.33 116.01,-15.33 116.01,-7.67 116.01,-7.67 116.01,-3.83 119.84,0 123.67,0 123.67,0 181.34,0 181.34,0 185.17,0 189.01,-3.83 189.01,-7.67 189.01,-7.67 189.01,-15.33 189.01,-15.33 189.01,-19.17 185.17,-23 181.34,-23"/>
<text text-anchor="middle" x="152.51" y="-7.8" font-family="Arial" font-size="14.00" fill="#cfffac">index.css</text>
</g>
<!-- lib/mutations.test.ts -->
<g id="node15" class="node">
<title>lib/mutations.test.ts</title>
<path fill="none" stroke="#c6c5fe" d="M236.74,-53.07C236.74,-53.07 119.08,-53.07 119.08,-53.07 115.24,-53.07 111.41,-49.24 111.41,-45.41 111.41,-45.41 111.41,-37.74 111.41,-37.74 111.41,-33.91 115.24,-30.07 119.08,-30.07 119.08,-30.07 236.74,-30.07 236.74,-30.07 240.58,-30.07 244.41,-33.91 244.41,-37.74 244.41,-37.74 244.41,-45.41 244.41,-45.41 244.41,-49.24 240.58,-53.07 236.74,-53.07"/>
<text text-anchor="middle" x="177.91" y="-37.87" font-family="Arial" font-size="14.00" fill="#c6c5fe">lib/mutations.test.ts</text>
</g>
<!-- lib/mutations.test.ts&#45;&gt;lib/mutations.ts -->
<g id="edge10" class="edge">
<title>lib/mutations.test.ts&#45;&gt;lib/mutations.ts</title>
<path fill="none" stroke="#757575" d="M173.08,-53.4C172.67,-54.39 172.26,-55.4 171.84,-56.43"/>
<polygon fill="#757575" stroke="#757575" points="168.59,-55.13 168.04,-65.71 175.07,-57.78 168.59,-55.13"/>
</g>
<!-- lib/mutations.test.ts&#45;&gt;lib/types.ts -->
<g id="edge11" class="edge">
<title>lib/mutations.test.ts&#45;&gt;lib/types.ts</title>
<path fill="none" stroke="#757575" d="M178.48,-51.97C178.48,-51.99 178.48,-52.01 178.48,-52.02"/>
<polygon fill="#757575" stroke="#757575" points="174.42,-42.27 178.49,-52.06 181.41,-41.87 174.42,-42.27"/>
</g>
<!-- lib/types/index.ts -->
<g id="node22" class="node">
<title>lib/types/index.ts</title>
<path fill="none" stroke="#c6c5fe" d="M236.82,-63.59C236.82,-63.59 136.16,-63.59 136.16,-63.59 132.32,-63.59 128.49,-59.75 128.49,-55.92 128.49,-55.92 128.49,-48.25 128.49,-48.25 128.49,-44.42 132.32,-40.59 136.16,-40.59 136.16,-40.59 236.82,-40.59 236.82,-40.59 240.66,-40.59 244.49,-44.42 244.49,-48.25 244.49,-48.25 244.49,-55.92 244.49,-55.92 244.49,-59.75 240.66,-63.59 236.82,-63.59"/>
<text text-anchor="middle" x="186.49" y="-48.39" font-family="Arial" font-size="14.00" fill="#c6c5fe">lib/types/index.ts</text>
</g>
<!-- lib/types.ts&#45;&gt;lib/types/index.ts -->
<g id="edge20" class="edge">
<title>lib/types.ts&#45;&gt;lib/types/index.ts</title>
<path fill="none" stroke="#757575" d="M186.4,-52.09C186.41,-52.09 186.43,-52.09 186.44,-52.09"/>
<polygon fill="#757575" stroke="#757575" points="176.48,-55.62 186.47,-52.09 176.45,-48.62 176.48,-55.62"/>
</g>
<!-- lib/mutations.validation.ts -->
<g id="node17" class="node">
<title>lib/mutations.validation.ts</title>
<path fill="none" stroke="#cfffac" d="M380.84,-153.59C380.84,-153.59 228.17,-153.59 228.17,-153.59 224.34,-153.59 220.51,-149.75 220.51,-145.92 220.51,-145.92 220.51,-138.25 220.51,-138.25 220.51,-134.42 224.34,-130.59 228.17,-130.59 228.17,-130.59 380.84,-130.59 380.84,-130.59 384.67,-130.59 388.51,-134.42 388.51,-138.25 388.51,-138.25 388.51,-145.92 388.51,-145.92 388.51,-149.75 384.67,-153.59 380.84,-153.59"/>
<text text-anchor="middle" x="304.51" y="-138.39" font-family="Arial" font-size="14.00" fill="#cfffac">lib/mutations.validation.ts</text>
</g>
<!-- lib/presence.ts -->
<g id="node18" class="node">
<title>lib/presence.ts</title>
<path fill="none" stroke="#c6c5fe" d="M164.94,-50.37C164.94,-50.37 76.27,-50.37 76.27,-50.37 72.44,-50.37 68.61,-46.54 68.61,-42.71 68.61,-42.71 68.61,-35.04 68.61,-35.04 68.61,-31.21 72.44,-27.37 76.27,-27.37 76.27,-27.37 164.94,-27.37 164.94,-27.37 168.77,-27.37 172.61,-31.21 172.61,-35.04 172.61,-35.04 172.61,-42.71 172.61,-42.71 172.61,-46.54 168.77,-50.37 164.94,-50.37"/>
<text text-anchor="middle" x="120.61" y="-35.17" font-family="Arial" font-size="14.00" fill="#c6c5fe">lib/presence.ts</text>
</g>
<!-- lib/presence.ts&#45;&gt;lib/supabaseClient.ts -->
<g id="edge14" class="edge">
<title>lib/presence.ts&#45;&gt;lib/supabaseClient.ts</title>
<path fill="none" stroke="#757575" d="M128.52,-42.15C128.54,-42.16 128.55,-42.16 128.56,-42.17"/>
<polygon fill="#757575" stroke="#757575" points="118,-41.57 128.59,-42.18 120.69,-35.1 118,-41.57"/>
</g>
<!-- lib/realtimeHooks.ts&#45;&gt;lib/supabaseClient.ts -->
<g id="edge15" class="edge">
<title>lib/realtimeHooks.ts&#45;&gt;lib/supabaseClient.ts</title>
<path fill="none" stroke="#757575" d="M150.09,-51.12C150.05,-51.1 150,-51.08 149.96,-51.06"/>
<polygon fill="#757575" stroke="#757575" points="160.41,-51.62 149.83,-51.01 157.72,-58.08 160.41,-51.62"/>
</g>
<!-- lib/realtimeHooks.ts&#45;&gt;lib/types.ts -->
<g id="edge16" class="edge">
<title>lib/realtimeHooks.ts&#45;&gt;lib/types.ts</title>
<path fill="none" stroke="#757575" d="M178.48,-52.21C178.48,-52.19 178.48,-52.17 178.48,-52.16"/>
<polygon fill="#757575" stroke="#757575" points="181.41,-62.3 178.49,-52.12 174.42,-61.9 181.41,-62.3"/>
</g>
<!-- lib/sessionCode.test.ts -->
<g id="node20" class="node">
<title>lib/sessionCode.test.ts</title>
<path fill="none" stroke="#c6c5fe" d="M221.07,-91.33C221.07,-91.33 84.4,-91.33 84.4,-91.33 80.57,-91.33 76.73,-87.49 76.73,-83.66 76.73,-83.66 76.73,-75.99 76.73,-75.99 76.73,-72.16 80.57,-68.33 84.4,-68.33 84.4,-68.33 221.07,-68.33 221.07,-68.33 224.9,-68.33 228.73,-72.16 228.73,-75.99 228.73,-75.99 228.73,-83.66 228.73,-83.66 228.73,-87.49 224.9,-91.33 221.07,-91.33"/>
<text text-anchor="middle" x="152.73" y="-76.13" font-family="Arial" font-size="14.00" fill="#c6c5fe">lib/sessionCode.test.ts</text>
</g>
<!-- lib/sessionCode.test.ts&#45;&gt;lib/mutations.ts -->
<g id="edge17" class="edge">
<title>lib/sessionCode.test.ts&#45;&gt;lib/mutations.ts</title>
<path fill="none" stroke="#757575" d="M163.03,-77.71C163.05,-77.71 163.07,-77.71 163.08,-77.7"/>
<polygon fill="#757575" stroke="#757575" points="154.03,-83.15 163.12,-77.7 152.61,-76.3 154.03,-83.15"/>
</g>
<!-- lib/sessionCode.test.ts&#45;&gt;lib/supabaseClient.ts -->
<g id="edge18" class="edge">
<title>lib/sessionCode.test.ts&#45;&gt;lib/supabaseClient.ts</title>
<path fill="none" stroke="#757575" d="M145.1,-67.92C144.03,-66.24 142.89,-64.47 141.75,-62.69"/>
<polygon fill="#757575" stroke="#757575" points="144.46,-60.42 136.11,-53.89 138.56,-64.2 144.46,-60.42"/>
</g>
<!-- lib/sessionHooks.ts&#45;&gt;lib/supabaseClient.ts -->
<g id="edge19" class="edge">
<title>lib/sessionHooks.ts&#45;&gt;lib/supabaseClient.ts</title>
<path fill="none" stroke="#757575" d="M128.57,-42.3C128.58,-42.28 128.58,-42.27 128.59,-42.25"/>
<polygon fill="#757575" stroke="#757575" points="128.29,-52.82 128.6,-42.22 121.75,-50.31 128.29,-52.82"/>
</g>
<!-- lib/types/supabase.ts -->
<g id="node23" class="node">
<title>lib/types/supabase.ts</title>
<path fill="none" stroke="#cfffac" d="M258.33,-63.57C258.33,-63.57 130.66,-63.57 130.66,-63.57 126.83,-63.57 122.99,-59.74 122.99,-55.9 122.99,-55.9 122.99,-48.24 122.99,-48.24 122.99,-44.4 126.83,-40.57 130.66,-40.57 130.66,-40.57 258.33,-40.57 258.33,-40.57 262.16,-40.57 265.99,-44.4 265.99,-48.24 265.99,-48.24 265.99,-55.9 265.99,-55.9 265.99,-59.74 262.16,-63.57 258.33,-63.57"/>
<text text-anchor="middle" x="194.49" y="-48.37" font-family="Arial" font-size="14.00" fill="#cfffac">lib/types/supabase.ts</text>
</g>
<!-- lib/types/index.ts&#45;&gt;lib/types/supabase.ts -->
<g id="edge21" class="edge">
<title>lib/types/index.ts&#45;&gt;lib/types/supabase.ts</title>
<path fill="none" stroke="#757575" d="M194.4,-52.07C194.42,-52.07 194.43,-52.07 194.44,-52.07"/>
<polygon fill="#757575" stroke="#757575" points="184.49,-55.63 194.47,-52.07 184.45,-48.63 184.49,-55.63"/>
</g>
<!-- main.tsx -->
<g id="node24" class="node">
<title>main.tsx</title>
<path fill="none" stroke="#c6c5fe" d="M178.84,-31C178.84,-31 126.17,-31 126.17,-31 122.34,-31 118.51,-27.17 118.51,-23.33 118.51,-23.33 118.51,-15.67 118.51,-15.67 118.51,-11.83 122.34,-8 126.17,-8 126.17,-8 178.84,-8 178.84,-8 182.67,-8 186.51,-11.83 186.51,-15.67 186.51,-15.67 186.51,-23.33 186.51,-23.33 186.51,-27.17 182.67,-31 178.84,-31"/>
<text text-anchor="middle" x="152.51" y="-15.8" font-family="Arial" font-size="14.00" fill="#c6c5fe">main.tsx</text>
</g>
<!-- main.tsx&#45;&gt;App.tsx -->
<g id="edge22" class="edge">
<title>main.tsx&#45;&gt;App.tsx</title>
<path fill="none" stroke="#757575" d="M152.51,-27.42C152.51,-27.43 152.51,-27.45 152.51,-27.46"/>
<polygon fill="#757575" stroke="#757575" points="148.97,-17.5 152.51,-27.49 155.97,-17.47 148.97,-17.5"/>
</g>
<!-- main.tsx&#45;&gt;index.css -->
<g id="edge23" class="edge">
<title>main.tsx&#45;&gt;index.css</title>
<path fill="none" stroke="#757575" d="M152.51,-11.59C152.51,-11.58 152.51,-11.56 152.51,-11.55"/>
<polygon fill="#757575" stroke="#757575" points="156.04,-21.51 152.51,-11.52 149.04,-21.54 156.04,-21.51"/>
</g>
<!-- setupTests.ts -->
<g id="node25" class="node">
<title>setupTests.ts</title>
<path fill="none" stroke="#cfffac" d="M191.34,-153.59C191.34,-153.59 111.67,-153.59 111.67,-153.59 107.84,-153.59 104.01,-149.75 104.01,-145.92 104.01,-145.92 104.01,-138.25 104.01,-138.25 104.01,-134.42 107.84,-130.59 111.67,-130.59 111.67,-130.59 191.34,-130.59 191.34,-130.59 195.17,-130.59 199.01,-134.42 199.01,-138.25 199.01,-138.25 199.01,-145.92 199.01,-145.92 199.01,-149.75 195.17,-153.59 191.34,-153.59"/>
<text text-anchor="middle" x="151.51" y="-138.39" font-family="Arial" font-size="14.00" fill="#cfffac">setupTests.ts</text>
</g>
</g>
</svg>
