<?xml version="1.0" encoding="UTF-8" standalone="no"?>
<!DOCTYPE svg PUBLIC "-//W3C//DTD SVG 1.1//EN"
 "http://www.w3.org/Graphics/SVG/1.1/DTD/svg11.dtd">
<!-- Generated by graphviz version 2.43.0 (0)
 -->
<!-- Title: G Pages: 1 -->
<svg width="514pt" height="282pt"
 viewBox="0.00 0.00 513.54 282.20" xmlns="http://www.w3.org/2000/svg" xmlns:xlink="http://www.w3.org/1999/xlink">
<g id="graph0" class="graph" transform="scale(1 1) rotate(0) translate(21.6 260.6)">
<title>G</title>
<polygon fill="#111111" stroke="transparent" points="-21.6,21.6 -21.6,-260.6 491.94,-260.6 491.94,21.6 -21.6,21.6"/>
<!-- App.tsx -->
<g id="node1" class="node">
<title>App.tsx</title>
<path fill="none" stroke="#c6c5fe" d="M179.26,-139.2C179.26,-139.2 132.6,-139.2 132.6,-139.2 128.76,-139.2 124.93,-135.37 124.93,-131.53 124.93,-131.53 124.93,-123.87 124.93,-123.87 124.93,-120.03 128.76,-116.2 132.6,-116.2 132.6,-116.2 179.26,-116.2 179.26,-116.2 183.1,-116.2 186.93,-120.03 186.93,-123.87 186.93,-123.87 186.93,-131.53 186.93,-131.53 186.93,-135.37 183.1,-139.2 179.26,-139.2"/>
<text text-anchor="middle" x="155.93" y="-124" font-family="Arial" font-size="14.00" fill="#c6c5fe">App.tsx</text>
</g>
<!-- pages/GameSetup.tsx -->
<g id="node2" class="node">
<title>pages/GameSetup.tsx</title>
<path fill="none" stroke="#c6c5fe" d="M165.15,-105.81C165.15,-105.81 28.48,-105.81 28.48,-105.81 24.65,-105.81 20.82,-101.98 20.82,-98.15 20.82,-98.15 20.82,-90.48 20.82,-90.48 20.82,-86.65 24.65,-82.81 28.48,-82.81 28.48,-82.81 165.15,-82.81 165.15,-82.81 168.98,-82.81 172.82,-86.65 172.82,-90.48 172.82,-90.48 172.82,-98.15 172.82,-98.15 172.82,-101.98 168.98,-105.81 165.15,-105.81"/>
<text text-anchor="middle" x="96.82" y="-90.61" font-family="Arial" font-size="14.00" fill="#c6c5fe">pages/GameSetup.tsx</text>
</g>
<!-- App.tsx&#45;&gt;pages/GameSetup.tsx -->
<g id="edge1" class="edge">
<title>App.tsx&#45;&gt;pages/GameSetup.tsx</title>
<path fill="none" stroke="#757575" d="M135.25,-116.02C132.23,-114.32 129.07,-112.53 125.92,-110.75"/>
<polygon fill="#757575" stroke="#757575" points="127.61,-107.68 117.18,-105.81 124.17,-113.78 127.61,-107.68"/>
</g>
<!-- pages/Homepage.tsx -->
<g id="node3" class="node">
<title>pages/Homepage.tsx</title>
<path fill="none" stroke="#c6c5fe" d="M232.09,-126.85C232.09,-126.85 102.42,-126.85 102.42,-126.85 98.59,-126.85 94.75,-123.02 94.75,-119.19 94.75,-119.19 94.75,-111.52 94.75,-111.52 94.75,-107.69 98.59,-103.85 102.42,-103.85 102.42,-103.85 232.09,-103.85 232.09,-103.85 235.92,-103.85 239.75,-107.69 239.75,-111.52 239.75,-111.52 239.75,-119.19 239.75,-119.19 239.75,-123.02 235.92,-126.85 232.09,-126.85"/>
<text text-anchor="middle" x="167.25" y="-111.65" font-family="Arial" font-size="14.00" fill="#c6c5fe">pages/Homepage.tsx</text>
</g>
<!-- App.tsx&#45;&gt;pages/Homepage.tsx -->
<g id="edge2" class="edge">
<title>App.tsx&#45;&gt;pages/Homepage.tsx</title>
<path fill="none" stroke="#757575" d="M166.51,-116.16C166.63,-116.04 166.73,-115.92 166.82,-115.82"/>
<polygon fill="#757575" stroke="#757575" points="162.88,-125.3 167.06,-115.57 157.72,-120.57 162.88,-125.3"/>
</g>
<!-- pages/Join.tsx -->
<g id="node4" class="node">
<title>pages/Join.tsx</title>
<path fill="none" stroke="#c6c5fe" d="M215.36,-110.85C215.36,-110.85 127.7,-110.85 127.7,-110.85 123.86,-110.85 120.03,-107.02 120.03,-103.18 120.03,-103.18 120.03,-95.52 120.03,-95.52 120.03,-91.68 123.86,-87.85 127.7,-87.85 127.7,-87.85 215.36,-87.85 215.36,-87.85 219.2,-87.85 223.03,-91.68 223.03,-95.52 223.03,-95.52 223.03,-103.18 223.03,-103.18 223.03,-107.02 219.2,-110.85 215.36,-110.85"/>
<text text-anchor="middle" x="171.53" y="-95.65" font-family="Arial" font-size="14.00" fill="#c6c5fe">pages/Join.tsx</text>
</g>
<!-- App.tsx&#45;&gt;pages/Join.tsx -->
<g id="edge3" class="edge">
<title>App.tsx&#45;&gt;pages/Join.tsx</title>
<path fill="none" stroke="#757575" d="M162.27,-116.17C162.33,-116.06 162.39,-115.95 162.45,-115.85"/>
<polygon fill="#757575" stroke="#757575" points="163.38,-121.41 165.14,-110.96 157.25,-118.04 163.38,-121.41"/>
</g>
<!-- pages/Lobby.tsx -->
<g id="node5" class="node">
<title>pages/Lobby.tsx</title>
<path fill="none" stroke="#c6c5fe" d="M185.56,-77.6C185.56,-77.6 86.89,-77.6 86.89,-77.6 83.06,-77.6 79.23,-73.76 79.23,-69.93 79.23,-69.93 79.23,-62.26 79.23,-62.26 79.23,-58.43 83.06,-54.6 86.89,-54.6 86.89,-54.6 185.56,-54.6 185.56,-54.6 189.39,-54.6 193.23,-58.43 193.23,-62.26 193.23,-62.26 193.23,-69.93 193.23,-69.93 193.23,-73.76 189.39,-77.6 185.56,-77.6"/>
<text text-anchor="middle" x="136.23" y="-62.4" font-family="Arial" font-size="14.00" fill="#c6c5fe">pages/Lobby.tsx</text>
</g>
<!-- App.tsx&#45;&gt;pages/Lobby.tsx -->
<g id="edge4" class="edge">
<title>App.tsx&#45;&gt;pages/Lobby.tsx</title>
<path fill="none" stroke="#757575" d="M152.22,-116.11C149.64,-108.02 146.11,-96.99 143.02,-87.35"/>
<polygon fill="#757575" stroke="#757575" points="146.3,-86.09 139.92,-77.63 139.63,-88.22 146.3,-86.09"/>
</g>
<!-- pages/Quiz.tsx -->
<g id="node6" class="node">
<title>pages/Quiz.tsx</title>
<path fill="none" stroke="#c6c5fe" d="M178.2,-154.26C178.2,-154.26 86.54,-154.26 86.54,-154.26 82.7,-154.26 78.87,-150.42 78.87,-146.59 78.87,-146.59 78.87,-138.92 78.87,-138.92 78.87,-135.09 82.7,-131.26 86.54,-131.26 86.54,-131.26 178.2,-131.26 178.2,-131.26 182.04,-131.26 185.87,-135.09 185.87,-138.92 185.87,-138.92 185.87,-146.59 185.87,-146.59 185.87,-150.42 182.04,-154.26 178.2,-154.26"/>
<text text-anchor="middle" x="132.37" y="-139.06" font-family="Arial" font-size="14.00" fill="#c6c5fe">pages/Quiz.tsx</text>
</g>
<!-- App.tsx&#45;&gt;pages/Quiz.tsx -->
<g id="edge5" class="edge">
<title>App.tsx&#45;&gt;pages/Quiz.tsx</title>
<path fill="none" stroke="#757575" d="M137.83,-139.26C137.79,-139.29 137.74,-139.33 137.69,-139.36"/>
<polygon fill="#757575" stroke="#757575" points="144.08,-131.11 137.54,-139.45 147.85,-137.01 144.08,-131.11"/>
</g>
<!-- pages/Results.tsx -->
<g id="node7" class="node">
<title>pages/Results.tsx</title>
<path fill="none" stroke="#c6c5fe" d="M202.21,-147.2C202.21,-147.2 94.55,-147.2 94.55,-147.2 90.71,-147.2 86.88,-143.37 86.88,-139.53 86.88,-139.53 86.88,-131.87 86.88,-131.87 86.88,-128.03 90.71,-124.2 94.55,-124.2 94.55,-124.2 202.21,-124.2 202.21,-124.2 206.05,-124.2 209.88,-128.03 209.88,-131.87 209.88,-131.87 209.88,-139.53 209.88,-139.53 209.88,-143.37 206.05,-147.2 202.21,-147.2"/>
<text text-anchor="middle" x="148.38" y="-132" font-family="Arial" font-size="14.00" fill="#c6c5fe">pages/Results.tsx</text>
</g>
<!-- App.tsx&#45;&gt;pages/Results.tsx -->
<g id="edge6" class="edge">
<title>App.tsx&#45;&gt;pages/Results.tsx</title>
<path fill="none" stroke="#757575" d="M148.46,-135.61C148.45,-135.63 148.44,-135.64 148.43,-135.65"/>
<polygon fill="#757575" stroke="#757575" points="152.72,-125.99 148.4,-135.68 157.82,-130.8 152.72,-125.99"/>
</g>
<!-- atoms/index.ts -->
<g id="node8" class="node">
<title>atoms/index.ts</title>
<path fill="none" stroke="#c6c5fe" d="M204.57,-81.87C204.57,-81.87 115.9,-81.87 115.9,-81.87 112.07,-81.87 108.23,-78.04 108.23,-74.2 108.23,-74.2 108.23,-66.54 108.23,-66.54 108.23,-62.7 112.07,-58.87 115.9,-58.87 115.9,-58.87 204.57,-58.87 204.57,-58.87 208.4,-58.87 212.23,-62.7 212.23,-66.54 212.23,-66.54 212.23,-74.2 212.23,-74.2 212.23,-78.04 208.4,-81.87 204.57,-81.87"/>
<text text-anchor="middle" x="160.23" y="-66.67" font-family="Arial" font-size="14.00" fill="#c6c5fe">atoms/index.ts</text>
</g>
<!-- pages/GameSetup.tsx&#45;&gt;atoms/index.ts -->
<g id="edge43" class="edge">
<title>pages/GameSetup.tsx&#45;&gt;atoms/index.ts</title>
<path fill="none" stroke="#757575" d="M127.41,-82.76C127.51,-82.73 127.6,-82.69 127.7,-82.65"/>
<polygon fill="#757575" stroke="#757575" points="121.57,-88.71 129.69,-81.9 119.1,-82.16 121.57,-88.71"/>
</g>
<!-- lib/mutations.ts -->
<g id="node11" class="node">
<title>lib/mutations.ts</title>
<path fill="none" stroke="#c6c5fe" d="M170.2,-154.65C170.2,-154.65 78.54,-154.65 78.54,-154.65 74.7,-154.65 70.87,-150.82 70.87,-146.98 70.87,-146.98 70.87,-139.32 70.87,-139.32 70.87,-135.48 74.7,-131.65 78.54,-131.65 78.54,-131.65 170.2,-131.65 170.2,-131.65 174.04,-131.65 177.87,-135.48 177.87,-139.32 177.87,-139.32 177.87,-146.98 177.87,-146.98 177.87,-150.82 174.04,-154.65 170.2,-154.65"/>
<text text-anchor="middle" x="124.37" y="-139.45" font-family="Arial" font-size="14.00" fill="#c6c5fe">lib/mutations.ts</text>
</g>
<!-- pages/GameSetup.tsx&#45;&gt;lib/mutations.ts -->
<g id="edge46" class="edge">
<title>pages/GameSetup.tsx&#45;&gt;lib/mutations.ts</title>
<path fill="none" stroke="#757575" d="M103.35,-105.89C106.12,-110.8 109.44,-116.69 112.61,-122.31"/>
<polygon fill="#757575" stroke="#757575" points="109.73,-124.33 117.7,-131.32 115.83,-120.89 109.73,-124.33"/>
</g>
<!-- components/Alert.tsx -->
<g id="node12" class="node">
<title>components/Alert.tsx</title>
<path fill="none" stroke="#cfffac" d="M235.36,-118.85C235.36,-118.85 107.7,-118.85 107.7,-118.85 103.86,-118.85 100.03,-115.02 100.03,-111.19 100.03,-111.19 100.03,-103.52 100.03,-103.52 100.03,-99.69 103.86,-95.85 107.7,-95.85 107.7,-95.85 235.36,-95.85 235.36,-95.85 239.2,-95.85 243.03,-99.69 243.03,-103.52 243.03,-103.52 243.03,-111.19 243.03,-111.19 243.03,-115.02 239.2,-118.85 235.36,-118.85"/>
<text text-anchor="middle" x="171.53" y="-103.65" font-family="Arial" font-size="14.00" fill="#cfffac">components/Alert.tsx</text>
</g>
<!-- pages/GameSetup.tsx&#45;&gt;components/Alert.tsx -->
<g id="edge44" class="edge">
<title>pages/GameSetup.tsx&#45;&gt;components/Alert.tsx</title>
<path fill="none" stroke="#757575" d="M162.96,-105.86C163.04,-105.87 163.12,-105.89 163.2,-105.9"/>
<polygon fill="#757575" stroke="#757575" points="152.99,-107.67 163.45,-105.94 154.2,-100.77 152.99,-107.67"/>
</g>
<!-- components/LobbyStatus.tsx -->
<g id="node22" class="node">
<title>components/LobbyStatus.tsx</title>
<path fill="none" stroke="#c6c5fe" d="M183.33,-113.81C183.33,-113.81 7.67,-113.81 7.67,-113.81 3.83,-113.81 0,-109.98 0,-106.15 0,-106.15 0,-98.48 0,-98.48 0,-94.65 3.83,-90.81 7.67,-90.81 7.67,-90.81 183.33,-90.81 183.33,-90.81 187.17,-90.81 191,-94.65 191,-98.48 191,-98.48 191,-106.15 191,-106.15 191,-109.98 187.17,-113.81 183.33,-113.81"/>
<text text-anchor="middle" x="95.5" y="-98.61" font-family="Arial" font-size="14.00" fill="#c6c5fe">components/LobbyStatus.tsx</text>
</g>
<!-- pages/GameSetup.tsx&#45;&gt;components/LobbyStatus.tsx -->
<g id="edge45" class="edge">
<title>pages/GameSetup.tsx&#45;&gt;components/LobbyStatus.tsx</title>
<path fill="none" stroke="#757575" d="M95.51,-102.22C95.51,-102.24 95.51,-102.25 95.51,-102.26"/>
<polygon fill="#757575" stroke="#757575" points="93.7,-91.85 95.5,-102.29 100.61,-93 93.7,-91.85"/>
</g>
<!-- lib/supabaseClient.ts -->
<g id="node23" class="node">
<title>lib/supabaseClient.ts</title>
<path fill="none" stroke="#cfffac" d="M161.22,-129.82C161.22,-129.82 35.56,-129.82 35.56,-129.82 31.72,-129.82 27.89,-125.98 27.89,-122.15 27.89,-122.15 27.89,-114.48 27.89,-114.48 27.89,-110.65 31.72,-106.82 35.56,-106.82 35.56,-106.82 161.22,-106.82 161.22,-106.82 165.06,-106.82 168.89,-110.65 168.89,-114.48 168.89,-114.48 168.89,-122.15 168.89,-122.15 168.89,-125.98 165.06,-129.82 161.22,-129.82"/>
<text text-anchor="middle" x="98.39" y="-114.62" font-family="Arial" font-size="14.00" fill="#cfffac">lib/supabaseClient.ts</text>
</g>
<!-- pages/GameSetup.tsx&#45;&gt;lib/supabaseClient.ts -->
<g id="edge48" class="edge">
<title>pages/GameSetup.tsx&#45;&gt;lib/supabaseClient.ts</title>
<path fill="none" stroke="#757575" d="M97.58,-106.03C97.59,-106.13 97.6,-106.22 97.6,-106.32"/>
<polygon fill="#757575" stroke="#757575" points="93.47,-96.86 97.62,-106.61 100.46,-96.4 93.47,-96.86"/>
</g>
<!-- lib/types.ts -->
<g id="node31" class="node">
<title>lib/types.ts</title>
<path fill="none" stroke="#c6c5fe" d="M136.55,-89.81C136.55,-89.81 71.88,-89.81 71.88,-89.81 68.05,-89.81 64.22,-85.98 64.22,-82.14 64.22,-82.14 64.22,-74.48 64.22,-74.48 64.22,-70.64 68.05,-66.81 71.88,-66.81 71.88,-66.81 136.55,-66.81 136.55,-66.81 140.38,-66.81 144.22,-70.64 144.22,-74.48 144.22,-74.48 144.22,-82.14 144.22,-82.14 144.22,-85.98 140.38,-89.81 136.55,-89.81"/>
<text text-anchor="middle" x="104.22" y="-74.61" font-family="Arial" font-size="14.00" fill="#c6c5fe">lib/types.ts</text>
</g>
<!-- pages/GameSetup.tsx&#45;&gt;lib/types.ts -->
<g id="edge49" class="edge">
<title>pages/GameSetup.tsx&#45;&gt;lib/types.ts</title>
<path fill="none" stroke="#757575" d="M102.19,-82.68C102.23,-82.6 102.27,-82.53 102.3,-82.45"/>
<polygon fill="#757575" stroke="#757575" points="101.38,-92.77 102.41,-82.22 95.03,-89.83 101.38,-92.77"/>
</g>
<!-- lib/presence.ts -->
<g id="node34" class="node">
<title>lib/presence.ts</title>
<path fill="none" stroke="#c6c5fe" d="M140.45,-121.81C140.45,-121.81 51.78,-121.81 51.78,-121.81 47.95,-121.81 44.11,-117.98 44.11,-114.15 44.11,-114.15 44.11,-106.48 44.11,-106.48 44.11,-102.65 47.95,-98.81 51.78,-98.81 51.78,-98.81 140.45,-98.81 140.45,-98.81 144.28,-98.81 148.11,-102.65 148.11,-106.48 148.11,-106.48 148.11,-114.15 148.11,-114.15 148.11,-117.98 144.28,-121.81 140.45,-121.81"/>
<text text-anchor="middle" x="96.11" y="-106.61" font-family="Arial" font-size="14.00" fill="#c6c5fe">lib/presence.ts</text>
</g>
<!-- pages/GameSetup.tsx&#45;&gt;lib/presence.ts -->
<g id="edge47" class="edge">
<title>pages/GameSetup.tsx&#45;&gt;lib/presence.ts</title>
<path fill="none" stroke="#757575" d="M96.3,-105.94C96.3,-106.02 96.3,-106.1 96.29,-106.17"/>
<polygon fill="#757575" stroke="#757575" points="93.23,-96.25 96.28,-106.4 100.22,-96.57 93.23,-96.25"/>
</g>
<!-- components/ActiveGames.tsx -->
<g id="node10" class="node">
<title>components/ActiveGames.tsx</title>
<path fill="none" stroke="#c6c5fe" d="M254.77,-134.86C254.77,-134.86 73.1,-134.86 73.1,-134.86 69.27,-134.86 65.43,-131.03 65.43,-127.19 65.43,-127.19 65.43,-119.53 65.43,-119.53 65.43,-115.69 69.27,-111.86 73.1,-111.86 73.1,-111.86 254.77,-111.86 254.77,-111.86 258.6,-111.86 262.43,-115.69 262.43,-119.53 262.43,-119.53 262.43,-127.19 262.43,-127.19 262.43,-131.03 258.6,-134.86 254.77,-134.86"/>
<text text-anchor="middle" x="163.93" y="-119.66" font-family="Arial" font-size="14.00" fill="#c6c5fe">components/ActiveGames.tsx</text>
</g>
<!-- pages/Homepage.tsx&#45;&gt;components/ActiveGames.tsx -->
<g id="edge50" class="edge">
<title>pages/Homepage.tsx&#45;&gt;components/ActiveGames.tsx</title>
<path fill="none" stroke="#757575" d="M163.97,-123.27C163.97,-123.29 163.96,-123.3 163.96,-123.31"/>
<polygon fill="#757575" stroke="#757575" points="164.56,-112.75 163.94,-123.34 171.03,-115.45 164.56,-112.75"/>
</g>
<!-- pages/Homepage.tsx&#45;&gt;lib/mutations.ts -->
<g id="edge53" class="edge">
<title>pages/Homepage.tsx&#45;&gt;lib/mutations.ts</title>
<path fill="none" stroke="#757575" d="M149.32,-126.98C149.17,-127.07 149.03,-127.17 148.89,-127.26"/>
<polygon fill="#757575" stroke="#757575" points="148.86,-123.1 142.38,-131.48 152.67,-128.98 148.86,-123.1"/>
</g>
<!-- pages/Homepage.tsx&#45;&gt;components/Alert.tsx -->
<g id="edge51" class="edge">
<title>pages/Homepage.tsx&#45;&gt;components/Alert.tsx</title>
<path fill="none" stroke="#757575" d="M171.48,-107.44C171.49,-107.43 171.5,-107.42 171.5,-107.4"/>
<polygon fill="#757575" stroke="#757575" points="169.88,-117.86 171.52,-107.38 163.7,-114.54 169.88,-117.86"/>
</g>
<!-- components/PasswordModal.tsx -->
<g id="node26" class="node">
<title>components/PasswordModal.tsx</title>
<path fill="none" stroke="#cfffac" d="M273.6,-130.27C273.6,-130.27 76.94,-130.27 76.94,-130.27 73.1,-130.27 69.27,-126.43 69.27,-122.6 69.27,-122.6 69.27,-114.93 69.27,-114.93 69.27,-111.1 73.1,-107.27 76.94,-107.27 76.94,-107.27 273.6,-107.27 273.6,-107.27 277.44,-107.27 281.27,-111.1 281.27,-114.93 281.27,-114.93 281.27,-122.6 281.27,-122.6 281.27,-126.43 277.44,-130.27 273.6,-130.27"/>
<text text-anchor="middle" x="175.27" y="-115.07" font-family="Arial" font-size="14.00" fill="#cfffac">components/PasswordModal.tsx</text>
</g>
<!-- pages/Homepage.tsx&#45;&gt;components/PasswordModal.tsx -->
<g id="edge52" class="edge">
<title>pages/Homepage.tsx&#45;&gt;components/PasswordModal.tsx</title>
<path fill="none" stroke="#757575" d="M175.18,-118.73C175.19,-118.74 175.21,-118.74 175.22,-118.75"/>
<polygon fill="#757575" stroke="#757575" points="164.67,-118.04 175.25,-118.76 167.42,-111.6 164.67,-118.04"/>
</g>
<!-- pages/Join.tsx&#45;&gt;lib/mutations.ts -->
<g id="edge57" class="edge">
<title>pages/Join.tsx&#45;&gt;lib/mutations.ts</title>
<path fill="none" stroke="#757575" d="M159.14,-110.86C154.63,-115.05 149.4,-119.9 144.4,-124.55"/>
<polygon fill="#757575" stroke="#757575" points="141.79,-122.2 136.84,-131.57 146.55,-127.33 141.79,-122.2"/>
</g>
<!-- pages/Join.tsx&#45;&gt;components/Alert.tsx -->
<g id="edge54" class="edge">
<title>pages/Join.tsx&#45;&gt;components/Alert.tsx</title>
<path fill="none" stroke="#757575" d="M171.53,-107.26C171.53,-107.28 171.53,-107.29 171.53,-107.3"/>
<polygon fill="#757575" stroke="#757575" points="167.99,-97.34 171.53,-107.33 174.99,-97.32 167.99,-97.34"/>
</g>
<!-- components/FlagSelector.tsx -->
<g id="node21" class="node">
<title>components/FlagSelector.tsx</title>
<path fill="none" stroke="#cfffac" d="M267.44,-110.85C267.44,-110.85 91.77,-110.85 91.77,-110.85 87.94,-110.85 84.11,-107.02 84.11,-103.18 84.11,-103.18 84.11,-95.52 84.11,-95.52 84.11,-91.68 87.94,-87.85 91.77,-87.85 91.77,-87.85 267.44,-87.85 267.44,-87.85 271.27,-87.85 275.11,-91.68 275.11,-95.52 275.11,-95.52 275.11,-103.18 275.11,-103.18 275.11,-107.02 271.27,-110.85 267.44,-110.85"/>
<text text-anchor="middle" x="179.61" y="-95.65" font-family="Arial" font-size="14.00" fill="#cfffac">components/FlagSelector.tsx</text>
</g>
<!-- pages/Join.tsx&#45;&gt;components/FlagSelector.tsx -->
<g id="edge55" class="edge">
<title>pages/Join.tsx&#45;&gt;components/FlagSelector.tsx</title>
<path fill="none" stroke="#757575" d="M179.52,-99.35C179.53,-99.35 179.54,-99.35 179.55,-99.35"/>
<polygon fill="#757575" stroke="#757575" points="169.57,-102.82 179.58,-99.35 169.6,-95.82 169.57,-102.82"/>
</g>
<!-- components/LogoSelector.tsx -->
<g id="node24" class="node">
<title>components/LogoSelector.tsx</title>
<path fill="none" stroke="#c6c5fe" d="M262.12,-102.85C262.12,-102.85 83.45,-102.85 83.45,-102.85 79.62,-102.85 75.78,-99.01 75.78,-95.18 75.78,-95.18 75.78,-87.51 75.78,-87.51 75.78,-83.68 79.62,-79.85 83.45,-79.85 83.45,-79.85 262.12,-79.85 262.12,-79.85 265.95,-79.85 269.78,-83.68 269.78,-87.51 269.78,-87.51 269.78,-95.18 269.78,-95.18 269.78,-99.01 265.95,-102.85 262.12,-102.85"/>
<text text-anchor="middle" x="172.78" y="-87.65" font-family="Arial" font-size="14.00" fill="#c6c5fe">components/LogoSelector.tsx</text>
</g>
<!-- pages/Join.tsx&#45;&gt;components/LogoSelector.tsx -->
<g id="edge56" class="edge">
<title>pages/Join.tsx&#45;&gt;components/LogoSelector.tsx</title>
<path fill="none" stroke="#757575" d="M172.77,-91.44C172.77,-91.42 172.77,-91.41 172.77,-91.4"/>
<polygon fill="#757575" stroke="#757575" points="174.66,-101.8 172.78,-91.37 167.74,-100.7 174.66,-101.8"/>
</g>
<!-- pages/Lobby.tsx&#45;&gt;atoms/index.ts -->
<g id="edge58" class="edge">
<title>pages/Lobby.tsx&#45;&gt;atoms/index.ts</title>
<path fill="none" stroke="#757575" d="M160.17,-70.36C160.18,-70.36 160.19,-70.36 160.2,-70.36"/>
<polygon fill="#757575" stroke="#757575" points="149.74,-72.02 160.22,-70.37 151,-65.13 149.74,-72.02"/>
</g>
<!-- lib/types/supabase.ts -->
<g id="node9" class="node">
<title>lib/types/supabase.ts</title>
<path fill="none" stroke="#cfffac" d="M235.97,-94.84C235.97,-94.84 108.3,-94.84 108.3,-94.84 104.47,-94.84 100.63,-91.01 100.63,-87.18 100.63,-87.18 100.63,-79.51 100.63,-79.51 100.63,-75.68 104.47,-71.84 108.3,-71.84 108.3,-71.84 235.97,-71.84 235.97,-71.84 239.8,-71.84 243.63,-75.68 243.63,-79.51 243.63,-79.51 243.63,-87.18 243.63,-87.18 243.63,-91.01 239.8,-94.84 235.97,-94.84"/>
<text text-anchor="middle" x="172.13" y="-79.64" font-family="Arial" font-size="14.00" fill="#cfffac">lib/types/supabase.ts</text>
</g>
<!-- pages/Lobby.tsx&#45;&gt;lib/types/supabase.ts -->
<g id="edge63" class="edge">
<title>pages/Lobby.tsx&#45;&gt;lib/types/supabase.ts</title>
<path fill="none" stroke="#757575" d="M160.38,-77.7C160.43,-77.72 160.48,-77.75 160.53,-77.77"/>
<polygon fill="#757575" stroke="#757575" points="150.15,-76.67 160.68,-77.84 153.18,-70.35 150.15,-76.67"/>
</g>
<!-- pages/Lobby.tsx&#45;&gt;lib/mutations.ts -->
<g id="edge60" class="edge">
<title>pages/Lobby.tsx&#45;&gt;lib/mutations.ts</title>
<path fill="none" stroke="#757575" d="M134.43,-77.8C132.64,-89.41 129.86,-107.46 127.68,-121.66"/>
<polygon fill="#757575" stroke="#757575" points="124.21,-121.17 126.15,-131.59 131.13,-122.24 124.21,-121.17"/>
</g>
<!-- components/DailyJoinButton.tsx -->
<g id="node14" class="node">
<title>components/DailyJoinButton.tsx</title>
<path fill="none" stroke="#c6c5fe" d="M241.06,-79.77C241.06,-79.77 47.39,-79.77 47.39,-79.77 43.56,-79.77 39.73,-75.94 39.73,-72.1 39.73,-72.1 39.73,-64.44 39.73,-64.44 39.73,-60.6 43.56,-56.77 47.39,-56.77 47.39,-56.77 241.06,-56.77 241.06,-56.77 244.89,-56.77 248.73,-60.6 248.73,-64.44 248.73,-64.44 248.73,-72.1 248.73,-72.1 248.73,-75.94 244.89,-79.77 241.06,-79.77"/>
<text text-anchor="middle" x="144.23" y="-64.57" font-family="Arial" font-size="14.00" fill="#c6c5fe">components/DailyJoinButton.tsx</text>
</g>
<!-- pages/Lobby.tsx&#45;&gt;components/DailyJoinButton.tsx -->
<g id="edge59" class="edge">
<title>pages/Lobby.tsx&#45;&gt;components/DailyJoinButton.tsx</title>
<path fill="none" stroke="#757575" d="M144.14,-68.25C144.15,-68.25 144.17,-68.25 144.18,-68.26"/>
<polygon fill="#757575" stroke="#757575" points="133.63,-69 144.2,-68.26 135.48,-62.24 133.63,-69"/>
</g>
<!-- pages/Lobby.tsx&#45;&gt;lib/supabaseClient.ts -->
<g id="edge62" class="edge">
<title>pages/Lobby.tsx&#45;&gt;lib/supabaseClient.ts</title>
<path fill="none" stroke="#757575" d="M127.83,-77.69C123.42,-83.77 117.89,-91.4 112.82,-98.4"/>
<polygon fill="#757575" stroke="#757575" points="109.8,-96.61 106.76,-106.76 115.47,-100.72 109.8,-96.61"/>
</g>
<!-- lib/sessionHooks.ts -->
<g id="node37" class="node">
<title>lib/sessionHooks.ts</title>
<path fill="none" stroke="#c6c5fe" d="M198.71,-152.05C198.71,-152.05 82.04,-152.05 82.04,-152.05 78.21,-152.05 74.38,-148.22 74.38,-144.39 74.38,-144.39 74.38,-136.72 74.38,-136.72 74.38,-132.89 78.21,-129.05 82.04,-129.05 82.04,-129.05 198.71,-129.05 198.71,-129.05 202.54,-129.05 206.38,-132.89 206.38,-136.72 206.38,-136.72 206.38,-144.39 206.38,-144.39 206.38,-148.22 202.54,-152.05 198.71,-152.05"/>
<text text-anchor="middle" x="140.38" y="-136.85" font-family="Arial" font-size="14.00" fill="#c6c5fe">lib/sessionHooks.ts</text>
</g>
<!-- pages/Lobby.tsx&#45;&gt;lib/sessionHooks.ts -->
<g id="edge61" class="edge">
<title>pages/Lobby.tsx&#45;&gt;lib/sessionHooks.ts</title>
<path fill="none" stroke="#757575" d="M136.87,-77.73C137.48,-88.6 138.4,-105.1 139.15,-118.46"/>
<polygon fill="#757575" stroke="#757575" points="135.67,-118.97 139.72,-128.76 142.66,-118.58 135.67,-118.97"/>
</g>
<!-- pages/Quiz.tsx&#45;&gt;lib/mutations.ts -->
<g id="edge64" class="edge">
<title>pages/Quiz.tsx&#45;&gt;lib/mutations.ts</title>
<path fill="none" stroke="#757575" d="M124.46,-143.14C124.45,-143.15 124.43,-143.15 124.42,-143.15"/>
<polygon fill="#757575" stroke="#757575" points="134.2,-139.13 124.39,-143.15 134.57,-146.12 134.2,-139.13"/>
</g>
<!-- pages/Quiz.tsx&#45;&gt;lib/types.ts -->
<g id="edge67" class="edge">
<title>pages/Quiz.tsx&#45;&gt;lib/types.ts</title>
<path fill="none" stroke="#757575" d="M127.34,-131.23C123.5,-122.45 118.11,-110.12 113.5,-99.57"/>
<polygon fill="#757575" stroke="#757575" points="116.61,-97.93 109.4,-90.17 110.19,-100.73 116.61,-97.93"/>
</g>
<!-- lib/realtimeHooks.ts -->
<g id="node35" class="node">
<title>lib/realtimeHooks.ts</title>
<path fill="none" stroke="#c6c5fe" d="M162.06,-137.82C162.06,-137.82 42.39,-137.82 42.39,-137.82 38.56,-137.82 34.72,-133.99 34.72,-130.15 34.72,-130.15 34.72,-122.49 34.72,-122.49 34.72,-118.65 38.56,-114.82 42.39,-114.82 42.39,-114.82 162.06,-114.82 162.06,-114.82 165.89,-114.82 169.72,-118.65 169.72,-122.49 169.72,-122.49 169.72,-130.15 169.72,-130.15 169.72,-133.99 165.89,-137.82 162.06,-137.82"/>
<text text-anchor="middle" x="102.22" y="-122.62" font-family="Arial" font-size="14.00" fill="#c6c5fe">lib/realtimeHooks.ts</text>
</g>
<!-- pages/Quiz.tsx&#45;&gt;lib/realtimeHooks.ts -->
<g id="edge65" class="edge">
<title>pages/Quiz.tsx&#45;&gt;lib/realtimeHooks.ts</title>
<path fill="none" stroke="#757575" d="M111.11,-131.16C111.03,-131.12 110.95,-131.08 110.87,-131.04"/>
<polygon fill="#757575" stroke="#757575" points="121.1,-132.62 110.64,-130.91 117.75,-138.77 121.1,-132.62"/>
</g>
<!-- pages/Quiz.tsx&#45;&gt;lib/sessionHooks.ts -->
<g id="edge66" class="edge">
<title>pages/Quiz.tsx&#45;&gt;lib/sessionHooks.ts</title>
<path fill="none" stroke="#757575" d="M140.29,-140.58C140.3,-140.57 140.31,-140.57 140.33,-140.57"/>
<polygon fill="#757575" stroke="#757575" points="131.65,-146.61 140.35,-140.56 129.77,-139.86 131.65,-146.61"/>
</g>
<!-- pages/Results.tsx&#45;&gt;lib/mutations.ts -->
<g id="edge68" class="edge">
<title>pages/Results.tsx&#45;&gt;lib/mutations.ts</title>
<path fill="none" stroke="#757575" d="M124.44,-143.13C124.43,-143.13 124.42,-143.13 124.41,-143.14"/>
<polygon fill="#757575" stroke="#757575" points="132.89,-136.81 124.39,-143.14 134.99,-143.49 132.89,-136.81"/>
</g>
<!-- pages/Results.tsx&#45;&gt;lib/supabaseClient.ts -->
<g id="edge70" class="edge">
<title>pages/Results.tsx&#45;&gt;lib/supabaseClient.ts</title>
<path fill="none" stroke="#757575" d="M115.04,-124.11C114.97,-124.08 114.89,-124.06 114.82,-124.03"/>
<polygon fill="#757575" stroke="#757575" points="125.2,-123.94 114.61,-123.96 122.9,-130.55 125.2,-123.94"/>
</g>
<!-- pages/Results.tsx&#45;&gt;lib/sessionHooks.ts -->
<g id="edge69" class="edge">
<title>pages/Results.tsx&#45;&gt;lib/sessionHooks.ts</title>
<path fill="none" stroke="#757575" d="M140.47,-140.5C140.45,-140.51 140.44,-140.52 140.43,-140.52"/>
<polygon fill="#757575" stroke="#757575" points="147.14,-132.35 140.4,-140.54 150.78,-138.33 147.14,-132.35"/>
</g>
<!-- atoms/index.ts&#45;&gt;lib/types/supabase.ts -->
<g id="edge7" class="edge">
<title>atoms/index.ts&#45;&gt;lib/types/supabase.ts</title>
<path fill="none" stroke="#757575" d="M171.04,-82.15C171.21,-82.33 171.36,-82.5 171.49,-82.65"/>
<polygon fill="#757575" stroke="#757575" points="162.5,-78.02 171.84,-83.02 167.66,-73.29 162.5,-78.02"/>
</g>
<!-- components/ActiveGames.tsx&#45;&gt;lib/mutations.ts -->
<g id="edge8" class="edge">
<title>components/ActiveGames.tsx&#45;&gt;lib/mutations.ts</title>
<path fill="none" stroke="#757575" d="M140.92,-134.87C140.85,-134.91 140.78,-134.94 140.72,-134.97"/>
<polygon fill="#757575" stroke="#757575" points="147.89,-127.47 140.51,-135.08 151.02,-133.73 147.89,-127.47"/>
</g>
<!-- lib/mutations.ts&#45;&gt;lib/supabaseClient.ts -->
<g id="edge30" class="edge">
<title>lib/mutations.ts&#45;&gt;lib/supabaseClient.ts</title>
<path fill="none" stroke="#757575" d="M112.29,-131.61C112.16,-131.48 112.03,-131.35 111.9,-131.23"/>
<polygon fill="#757575" stroke="#757575" points="120.35,-134.46 110.7,-130.08 115.51,-139.52 120.35,-134.46"/>
</g>
<!-- lib/mutations.ts&#45;&gt;lib/types.ts -->
<g id="edge31" class="edge">
<title>lib/mutations.ts&#45;&gt;lib/types.ts</title>
<path fill="none" stroke="#757575" d="M120.77,-131.56C118.05,-122.81 114.24,-110.57 110.97,-100.02"/>
<polygon fill="#757575" stroke="#757575" points="114.24,-98.75 107.92,-90.24 107.55,-100.83 114.24,-98.75"/>
</g>
<!-- components/DailyJoinButton.stories.tsx -->
<g id="node13" class="node">
<title>components/DailyJoinButton.stories.tsx</title>
<path fill="none" stroke="#c6c5fe" d="M271.06,-78.95C271.06,-78.95 33.4,-78.95 33.4,-78.95 29.56,-78.95 25.73,-75.12 25.73,-71.29 25.73,-71.29 25.73,-63.62 25.73,-63.62 25.73,-59.79 29.56,-55.95 33.4,-55.95 33.4,-55.95 271.06,-55.95 271.06,-55.95 274.9,-55.95 278.73,-59.79 278.73,-63.62 278.73,-63.62 278.73,-71.29 278.73,-71.29 278.73,-75.12 274.9,-78.95 271.06,-78.95"/>
<text text-anchor="middle" x="152.23" y="-63.75" font-family="Arial" font-size="14.00" fill="#c6c5fe">components/DailyJoinButton.stories.tsx</text>
</g>
<!-- components/DailyJoinButton.stories.tsx&#45;&gt;atoms/index.ts -->
<g id="edge9" class="edge">
<title>components/DailyJoinButton.stories.tsx&#45;&gt;atoms/index.ts</title>
<path fill="none" stroke="#757575" d="M160.14,-70.34C160.16,-70.34 160.17,-70.35 160.18,-70.35"/>
<polygon fill="#757575" stroke="#757575" points="149.61,-70.21 160.21,-70.36 152.02,-63.63 149.61,-70.21"/>
</g>
<!-- components/DailyJoinButton.stories.tsx&#45;&gt;components/DailyJoinButton.tsx -->
<g id="edge10" class="edge">
<title>components/DailyJoinButton.stories.tsx&#45;&gt;components/DailyJoinButton.tsx</title>
<path fill="none" stroke="#757575" d="M144.32,-68.26C144.3,-68.26 144.29,-68.26 144.28,-68.27"/>
<polygon fill="#757575" stroke="#757575" points="153.83,-63.74 144.25,-68.27 154.57,-70.7 153.83,-63.74"/>
</g>
<!-- components/DailyJoinButton.tsx&#45;&gt;atoms/index.ts -->
<g id="edge12" class="edge">
<title>components/DailyJoinButton.tsx&#45;&gt;atoms/index.ts</title>
<path fill="none" stroke="#757575" d="M160.19,-70.36C160.2,-70.36 160.2,-70.37 160.21,-70.37"/>
<polygon fill="#757575" stroke="#757575" points="149.83,-72.48 160.22,-70.37 150.78,-65.54 149.83,-72.48"/>
</g>
<!-- components/DailyJoinButton.tsx&#45;&gt;lib/mutations.ts -->
<g id="edge13" class="edge">
<title>components/DailyJoinButton.tsx&#45;&gt;lib/mutations.ts</title>
<path fill="none" stroke="#757575" d="M141.13,-79.97C138.2,-91.01 133.74,-107.82 130.16,-121.33"/>
<polygon fill="#757575" stroke="#757575" points="126.7,-120.72 127.52,-131.28 133.46,-122.52 126.7,-120.72"/>
</g>
<!-- components/DailyJoinButton.test.tsx -->
<g id="node15" class="node">
<title>components/DailyJoinButton.test.tsx</title>
<path fill="none" stroke="#c6c5fe" d="M254.5,-70.93C254.5,-70.93 34.84,-70.93 34.84,-70.93 31,-70.93 27.17,-67.1 27.17,-63.27 27.17,-63.27 27.17,-55.6 27.17,-55.6 27.17,-51.77 31,-47.93 34.84,-47.93 34.84,-47.93 254.5,-47.93 254.5,-47.93 258.34,-47.93 262.17,-51.77 262.17,-55.6 262.17,-55.6 262.17,-63.27 262.17,-63.27 262.17,-67.1 258.34,-70.93 254.5,-70.93"/>
<text text-anchor="middle" x="144.67" y="-55.73" font-family="Arial" font-size="14.00" fill="#c6c5fe">components/DailyJoinButton.test.tsx</text>
</g>
<!-- components/DailyJoinButton.test.tsx&#45;&gt;components/DailyJoinButton.tsx -->
<g id="edge11" class="edge">
<title>components/DailyJoinButton.test.tsx&#45;&gt;components/DailyJoinButton.tsx</title>
<path fill="none" stroke="#757575" d="M144.23,-68.17C144.23,-68.19 144.23,-68.2 144.23,-68.21"/>
<polygon fill="#757575" stroke="#757575" points="141.27,-58.07 144.23,-68.25 148.26,-58.44 141.27,-58.07"/>
</g>
<!-- components/EnhancedLobby.tsx -->
<g id="node16" class="node">
<title>components/EnhancedLobby.tsx</title>
<path fill="none" stroke="#c6c5fe" d="M218.55,-77.81C218.55,-77.81 21.89,-77.81 21.89,-77.81 18.05,-77.81 14.22,-73.98 14.22,-70.15 14.22,-70.15 14.22,-62.48 14.22,-62.48 14.22,-58.65 18.05,-54.81 21.89,-54.81 21.89,-54.81 218.55,-54.81 218.55,-54.81 222.39,-54.81 226.22,-58.65 226.22,-62.48 226.22,-62.48 226.22,-70.15 226.22,-70.15 226.22,-73.98 222.39,-77.81 218.55,-77.81"/>
<text text-anchor="middle" x="120.22" y="-62.61" font-family="Arial" font-size="14.00" fill="#c6c5fe">components/EnhancedLobby.tsx</text>
</g>
<!-- lib/enhancedPresence.ts -->
<g id="node17" class="node">
<title>lib/enhancedPresence.ts</title>
<path fill="none" stroke="#c6c5fe" d="M186.55,-82.16C186.55,-82.16 37.88,-82.16 37.88,-82.16 34.05,-82.16 30.22,-78.32 30.22,-74.49 30.22,-74.49 30.22,-66.82 30.22,-66.82 30.22,-62.99 34.05,-59.16 37.88,-59.16 37.88,-59.16 186.55,-59.16 186.55,-59.16 190.38,-59.16 194.22,-62.99 194.22,-66.82 194.22,-66.82 194.22,-74.49 194.22,-74.49 194.22,-78.32 190.38,-82.16 186.55,-82.16"/>
<text text-anchor="middle" x="112.22" y="-66.96" font-family="Arial" font-size="14.00" fill="#c6c5fe">lib/enhancedPresence.ts</text>
</g>
<!-- components/EnhancedLobby.tsx&#45;&gt;lib/enhancedPresence.ts -->
<g id="edge14" class="edge">
<title>components/EnhancedLobby.tsx&#45;&gt;lib/enhancedPresence.ts</title>
<path fill="none" stroke="#757575" d="M112.31,-70.61C112.29,-70.62 112.28,-70.62 112.27,-70.63"/>
<polygon fill="#757575" stroke="#757575" points="119.36,-62.78 112.24,-70.65 122.71,-68.94 119.36,-62.78"/>
</g>
<!-- lib/enhancedRealtimeHooks.ts -->
<g id="node18" class="node">
<title>lib/enhancedRealtimeHooks.ts</title>
<path fill="none" stroke="#c6c5fe" d="M220.56,-77.19C220.56,-77.19 35.89,-77.19 35.89,-77.19 32.06,-77.19 28.22,-73.35 28.22,-69.52 28.22,-69.52 28.22,-61.85 28.22,-61.85 28.22,-58.02 32.06,-54.19 35.89,-54.19 35.89,-54.19 220.56,-54.19 220.56,-54.19 224.39,-54.19 228.22,-58.02 228.22,-61.85 228.22,-61.85 228.22,-69.52 228.22,-69.52 228.22,-73.35 224.39,-77.19 220.56,-77.19"/>
<text text-anchor="middle" x="128.22" y="-61.99" font-family="Arial" font-size="14.00" fill="#c6c5fe">lib/enhancedRealtimeHooks.ts</text>
</g>
<!-- components/EnhancedLobby.tsx&#45;&gt;lib/enhancedRealtimeHooks.ts -->
<g id="edge15" class="edge">
<title>components/EnhancedLobby.tsx&#45;&gt;lib/enhancedRealtimeHooks.ts</title>
<path fill="none" stroke="#757575" d="M128.13,-65.7C128.15,-65.69 128.16,-65.69 128.17,-65.69"/>
<polygon fill="#757575" stroke="#757575" points="118.51,-69.99 128.2,-65.69 117.95,-63.01 118.51,-69.99"/>
</g>
<!-- lib/enhancedPresence.ts&#45;&gt;lib/mutations.ts -->
<g id="edge23" class="edge">
<title>lib/enhancedPresence.ts&#45;&gt;lib/mutations.ts</title>
<path fill="none" stroke="#757575" d="M114.17,-82.3C115.93,-92.81 118.57,-108.54 120.72,-121.37"/>
<polygon fill="#757575" stroke="#757575" points="117.28,-122.01 122.38,-131.29 124.18,-120.85 117.28,-122.01"/>
</g>
<!-- lib/enhancedPresence.ts&#45;&gt;lib/supabaseClient.ts -->
<g id="edge24" class="edge">
<title>lib/enhancedPresence.ts&#45;&gt;lib/supabaseClient.ts</title>
<path fill="none" stroke="#757575" d="M108.87,-82.19C107.6,-86.58 106.11,-91.73 104.65,-96.74"/>
<polygon fill="#757575" stroke="#757575" points="101.23,-95.98 101.8,-106.56 107.95,-97.93 101.23,-95.98"/>
</g>
<!-- lib/enhancedRealtimeHooks.ts&#45;&gt;lib/supabaseClient.ts -->
<g id="edge25" class="edge">
<title>lib/enhancedRealtimeHooks.ts&#45;&gt;lib/supabaseClient.ts</title>
<path fill="none" stroke="#757575" d="M121.6,-77.37C118.2,-83.36 113.96,-90.85 110.04,-97.77"/>
<polygon fill="#757575" stroke="#757575" points="106.88,-96.24 104.99,-106.67 112.97,-99.7 106.88,-96.24"/>
</g>
<!-- lib/enhancedRealtimeHooks.ts&#45;&gt;lib/types.ts -->
<g id="edge26" class="edge">
<title>lib/enhancedRealtimeHooks.ts&#45;&gt;lib/types.ts</title>
<path fill="none" stroke="#757575" d="M106.1,-77.32C106.03,-77.36 105.96,-77.4 105.89,-77.43"/>
<polygon fill="#757575" stroke="#757575" points="112.9,-69.78 105.68,-77.54 116.16,-75.98 112.9,-69.78"/>
</g>
<!-- components/Flag.tsx -->
<g id="node19" class="node">
<title>components/Flag.tsx</title>
<path fill="none" stroke="#c6c5fe" d="M194.92,-227C194.92,-227 68.25,-227 68.25,-227 64.42,-227 60.58,-223.17 60.58,-219.33 60.58,-219.33 60.58,-211.67 60.58,-211.67 60.58,-207.83 64.42,-204 68.25,-204 68.25,-204 194.92,-204 194.92,-204 198.75,-204 202.58,-207.83 202.58,-211.67 202.58,-211.67 202.58,-219.33 202.58,-219.33 202.58,-223.17 198.75,-227 194.92,-227"/>
<text text-anchor="middle" x="131.58" y="-211.8" font-family="Arial" font-size="14.00" fill="#c6c5fe">components/Flag.tsx</text>
</g>
<!-- lib/flagIcons.ts -->
<g id="node20" class="node">
<title>lib/flagIcons.ts</title>
<path fill="none" stroke="#cfffac" d="M182.92,-227C182.92,-227 96.25,-227 96.25,-227 92.42,-227 88.58,-223.17 88.58,-219.33 88.58,-219.33 88.58,-211.67 88.58,-211.67 88.58,-207.83 92.42,-204 96.25,-204 96.25,-204 182.92,-204 182.92,-204 186.75,-204 190.58,-207.83 190.58,-211.67 190.58,-211.67 190.58,-219.33 190.58,-219.33 190.58,-223.17 186.75,-227 182.92,-227"/>
<text text-anchor="middle" x="139.58" y="-211.8" font-family="Arial" font-size="14.00" fill="#cfffac">lib/flagIcons.ts</text>
</g>
<!-- components/Flag.tsx&#45;&gt;lib/flagIcons.ts -->
<g id="edge16" class="edge">
<title>components/Flag.tsx&#45;&gt;lib/flagIcons.ts</title>
<path fill="none" stroke="#757575" d="M139.49,-215.5C139.51,-215.5 139.52,-215.5 139.53,-215.5"/>
<polygon fill="#757575" stroke="#757575" points="129.57,-219.04 139.56,-215.5 129.55,-212.04 129.57,-219.04"/>
</g>
<!-- components/LobbyStatus.tsx&#45;&gt;lib/supabaseClient.ts -->
<g id="edge17" class="edge">
<title>components/LobbyStatus.tsx&#45;&gt;lib/supabaseClient.ts</title>
<path fill="none" stroke="#757575" d="M97.6,-113.94C97.62,-114.02 97.63,-114.1 97.64,-114.18"/>
<polygon fill="#757575" stroke="#757575" points="92.46,-105.19 97.68,-114.4 99.35,-103.94 92.46,-105.19"/>
</g>
<!-- components/LogoSelector.tsx&#45;&gt;lib/supabaseClient.ts -->
<g id="edge18" class="edge">
<title>components/LogoSelector.tsx&#45;&gt;lib/supabaseClient.ts</title>
<path fill="none" stroke="#757575" d="M140.8,-102.94C140.48,-103.06 140.15,-103.18 139.83,-103.3"/>
<polygon fill="#757575" stroke="#757575" points="138.55,-100.03 130.34,-106.73 140.94,-106.61 138.55,-100.03"/>
</g>
<!-- components/PasswordModal.test.tsx -->
<g id="node25" class="node">
<title>components/PasswordModal.test.tsx</title>
<path fill="none" stroke="#c6c5fe" d="M294.94,-134.33C294.94,-134.33 72.27,-134.33 72.27,-134.33 68.44,-134.33 64.61,-130.49 64.61,-126.66 64.61,-126.66 64.61,-118.99 64.61,-118.99 64.61,-115.16 68.44,-111.33 72.27,-111.33 72.27,-111.33 294.94,-111.33 294.94,-111.33 298.77,-111.33 302.61,-115.16 302.61,-118.99 302.61,-118.99 302.61,-126.66 302.61,-126.66 302.61,-130.49 298.77,-134.33 294.94,-134.33"/>
<text text-anchor="middle" x="183.61" y="-119.13" font-family="Arial" font-size="14.00" fill="#c6c5fe">components/PasswordModal.test.tsx</text>
</g>
<!-- components/PasswordModal.test.tsx&#45;&gt;components/PasswordModal.tsx -->
<g id="edge19" class="edge">
<title>components/PasswordModal.test.tsx&#45;&gt;components/PasswordModal.tsx</title>
<path fill="none" stroke="#757575" d="M175.36,-118.81C175.35,-118.81 175.33,-118.8 175.32,-118.79"/>
<polygon fill="#757575" stroke="#757575" points="185.83,-120.03 175.29,-118.78 182.75,-126.32 185.83,-120.03"/>
</g>
<!-- components/TeamLogoPicker.test.tsx -->
<g id="node27" class="node">
<title>components/TeamLogoPicker.test.tsx</title>
<path fill="none" stroke="#c6c5fe" d="M462.68,-191C462.68,-191 236.01,-191 236.01,-191 232.18,-191 228.34,-187.17 228.34,-183.33 228.34,-183.33 228.34,-175.67 228.34,-175.67 228.34,-171.83 232.18,-168 236.01,-168 236.01,-168 462.68,-168 462.68,-168 466.51,-168 470.34,-171.83 470.34,-175.67 470.34,-175.67 470.34,-183.33 470.34,-183.33 470.34,-187.17 466.51,-191 462.68,-191"/>
<text text-anchor="middle" x="349.34" y="-175.8" font-family="Arial" font-size="14.00" fill="#c6c5fe">components/TeamLogoPicker.test.tsx</text>
</g>
<!-- components/TeamLogoPicker.tsx -->
<g id="node28" class="node">
<title>components/TeamLogoPicker.tsx</title>
<path fill="none" stroke="#cfffac" d="M457.68,-191C457.68,-191 257.01,-191 257.01,-191 253.18,-191 249.34,-187.17 249.34,-183.33 249.34,-183.33 249.34,-175.67 249.34,-175.67 249.34,-171.83 253.18,-168 257.01,-168 257.01,-168 457.68,-168 457.68,-168 461.51,-168 465.34,-171.83 465.34,-175.67 465.34,-175.67 465.34,-183.33 465.34,-183.33 465.34,-187.17 461.51,-191 457.68,-191"/>
<text text-anchor="middle" x="357.34" y="-175.8" font-family="Arial" font-size="14.00" fill="#cfffac">components/TeamLogoPicker.tsx</text>
</g>
<!-- components/TeamLogoPicker.test.tsx&#45;&gt;components/TeamLogoPicker.tsx -->
<g id="edge20" class="edge">
<title>components/TeamLogoPicker.test.tsx&#45;&gt;components/TeamLogoPicker.tsx</title>
<path fill="none" stroke="#757575" d="M357.25,-179.5C357.27,-179.5 357.28,-179.5 357.29,-179.5"/>
<polygon fill="#757575" stroke="#757575" points="347.33,-183.04 357.32,-179.5 347.31,-176.04 347.33,-183.04"/>
</g>
<!-- index.css -->
<g id="node29" class="node">
<title>index.css</title>
<path fill="none" stroke="#cfffac" d="M197.39,-155.25C197.39,-155.25 139.73,-155.25 139.73,-155.25 135.89,-155.25 132.06,-151.42 132.06,-147.59 132.06,-147.59 132.06,-139.92 132.06,-139.92 132.06,-136.09 135.89,-132.25 139.73,-132.25 139.73,-132.25 197.39,-132.25 197.39,-132.25 201.23,-132.25 205.06,-136.09 205.06,-139.92 205.06,-139.92 205.06,-147.59 205.06,-147.59 205.06,-151.42 201.23,-155.25 197.39,-155.25"/>
<text text-anchor="middle" x="168.56" y="-140.05" font-family="Arial" font-size="14.00" fill="#cfffac">index.css</text>
</g>
<!-- lib/createSession.test.ts -->
<g id="node30" class="node">
<title>lib/createSession.test.ts</title>
<path fill="none" stroke="#c6c5fe" d="M188.2,-152.53C188.2,-152.53 44.53,-152.53 44.53,-152.53 40.7,-152.53 36.86,-148.7 36.86,-144.86 36.86,-144.86 36.86,-137.2 36.86,-137.2 36.86,-133.36 40.7,-129.53 44.53,-129.53 44.53,-129.53 188.2,-129.53 188.2,-129.53 192.03,-129.53 195.86,-133.36 195.86,-137.2 195.86,-137.2 195.86,-144.86 195.86,-144.86 195.86,-148.7 192.03,-152.53 188.2,-152.53"/>
<text text-anchor="middle" x="116.36" y="-137.33" font-family="Arial" font-size="14.00" fill="#c6c5fe">lib/createSession.test.ts</text>
</g>
<!-- lib/createSession.test.ts&#45;&gt;lib/mutations.ts -->
<g id="edge21" class="edge">
<title>lib/createSession.test.ts&#45;&gt;lib/mutations.ts</title>
<path fill="none" stroke="#757575" d="M124.28,-143.13C124.3,-143.13 124.31,-143.13 124.32,-143.14"/>
<polygon fill="#757575" stroke="#757575" points="113.78,-143.94 124.35,-143.14 115.58,-137.18 113.78,-143.94"/>
</g>
<!-- lib/createSession.test.ts&#45;&gt;lib/supabaseClient.ts -->
<g id="edge22" class="edge">
<title>lib/createSession.test.ts&#45;&gt;lib/supabaseClient.ts</title>
<path fill="none" stroke="#757575" d="M107.17,-129.41C107.13,-129.36 107.1,-129.32 107.06,-129.28"/>
<polygon fill="#757575" stroke="#757575" points="115.91,-134.82 106.96,-129.15 110.42,-139.16 115.91,-134.82"/>
</g>
<!-- lib/types/index.ts -->
<g id="node38" class="node">
<title>lib/types/index.ts</title>
<path fill="none" stroke="#c6c5fe" d="M218.57,-86.84C218.57,-86.84 117.9,-86.84 117.9,-86.84 114.07,-86.84 110.24,-83.01 110.24,-79.17 110.24,-79.17 110.24,-71.51 110.24,-71.51 110.24,-67.67 114.07,-63.84 117.9,-63.84 117.9,-63.84 218.57,-63.84 218.57,-63.84 222.4,-63.84 226.24,-67.67 226.24,-71.51 226.24,-71.51 226.24,-79.17 226.24,-79.17 226.24,-83.01 222.4,-86.84 218.57,-86.84"/>
<text text-anchor="middle" x="168.24" y="-71.64" font-family="Arial" font-size="14.00" fill="#c6c5fe">lib/types/index.ts</text>
</g>
<!-- lib/types.ts&#45;&gt;lib/types/index.ts -->
<g id="edge39" class="edge">
<title>lib/types.ts&#45;&gt;lib/types/index.ts</title>
<path fill="none" stroke="#757575" d="M144.4,-76.45C144.45,-76.44 144.5,-76.44 144.55,-76.44"/>
<polygon fill="#757575" stroke="#757575" points="134.87,-80.4 144.7,-76.43 134.54,-73.41 134.87,-80.4"/>
</g>
<!-- lib/mutations.test.ts -->
<g id="node32" class="node">
<title>lib/mutations.test.ts</title>
<path fill="none" stroke="#c6c5fe" d="M158.45,-97.81C158.45,-97.81 40.78,-97.81 40.78,-97.81 36.95,-97.81 33.11,-93.98 33.11,-90.15 33.11,-90.15 33.11,-82.48 33.11,-82.48 33.11,-78.65 36.95,-74.81 40.78,-74.81 40.78,-74.81 158.45,-74.81 158.45,-74.81 162.28,-74.81 166.11,-78.65 166.11,-82.48 166.11,-82.48 166.11,-90.15 166.11,-90.15 166.11,-93.98 162.28,-97.81 158.45,-97.81"/>
<text text-anchor="middle" x="99.61" y="-82.61" font-family="Arial" font-size="14.00" fill="#c6c5fe">lib/mutations.test.ts</text>
</g>
<!-- lib/mutations.test.ts&#45;&gt;lib/mutations.ts -->
<g id="edge27" class="edge">
<title>lib/mutations.test.ts&#45;&gt;lib/mutations.ts</title>
<path fill="none" stroke="#757575" d="M104.62,-97.81C107.64,-104.73 111.57,-113.75 115.13,-121.93"/>
<polygon fill="#757575" stroke="#757575" points="112,-123.5 119.2,-131.27 118.41,-120.71 112,-123.5"/>
</g>
<!-- lib/mutations.test.ts&#45;&gt;lib/supabaseClient.ts -->
<g id="edge28" class="edge">
<title>lib/mutations.test.ts&#45;&gt;lib/supabaseClient.ts</title>
<path fill="none" stroke="#757575" d="M99.17,-97.87C99.17,-97.96 99.17,-98.05 99.16,-98.14"/>
<polygon fill="#757575" stroke="#757575" points="95.72,-96.55 98.84,-106.67 102.72,-96.81 95.72,-96.55"/>
</g>
<!-- lib/mutations.test.ts&#45;&gt;lib/types.ts -->
<g id="edge29" class="edge">
<title>lib/mutations.test.ts&#45;&gt;lib/types.ts</title>
<path fill="none" stroke="#757575" d="M104.16,-78.4C104.17,-78.38 104.18,-78.37 104.19,-78.36"/>
<polygon fill="#757575" stroke="#757575" points="102.24,-88.76 104.2,-78.33 96.17,-85.25 102.24,-88.76"/>
</g>
<!-- lib/mutations.validation.ts -->
<g id="node33" class="node">
<title>lib/mutations.validation.ts</title>
<path fill="none" stroke="#cfffac" d="M316.5,-23C316.5,-23 163.84,-23 163.84,-23 160,-23 156.17,-19.17 156.17,-15.33 156.17,-15.33 156.17,-7.67 156.17,-7.67 156.17,-3.83 160,0 163.84,0 163.84,0 316.5,0 316.5,0 320.34,0 324.17,-3.83 324.17,-7.67 324.17,-7.67 324.17,-15.33 324.17,-15.33 324.17,-19.17 320.34,-23 316.5,-23"/>
<text text-anchor="middle" x="240.17" y="-7.8" font-family="Arial" font-size="14.00" fill="#cfffac">lib/mutations.validation.ts</text>
</g>
<!-- lib/presence.ts&#45;&gt;lib/mutations.ts -->
<g id="edge32" class="edge">
<title>lib/presence.ts&#45;&gt;lib/mutations.ts</title>
<path fill="none" stroke="#757575" d="M106.31,-122.17C106.81,-122.75 107.32,-123.33 107.83,-123.93"/>
<polygon fill="#757575" stroke="#757575" points="105.29,-126.35 114.47,-131.64 110.6,-121.78 105.29,-126.35"/>
</g>
<!-- lib/presence.ts&#45;&gt;lib/supabaseClient.ts -->
<g id="edge33" class="edge">
<title>lib/presence.ts&#45;&gt;lib/supabaseClient.ts</title>
<path fill="none" stroke="#757575" d="M98.37,-118.23C98.37,-118.24 98.37,-118.25 98.38,-118.27"/>
<polygon fill="#757575" stroke="#757575" points="92.25,-109.64 98.39,-118.29 98.99,-107.71 92.25,-109.64"/>
</g>
<!-- lib/realtimeHooks.ts&#45;&gt;lib/supabaseClient.ts -->
<g id="edge34" class="edge">
<title>lib/realtimeHooks.ts&#45;&gt;lib/supabaseClient.ts</title>
<path fill="none" stroke="#757575" d="M98.43,-118.41C98.43,-118.39 98.42,-118.38 98.42,-118.37"/>
<polygon fill="#757575" stroke="#757575" points="105.9,-125.85 98.4,-118.34 99.58,-128.88 105.9,-125.85"/>
</g>
<!-- lib/realtimeHooks.ts&#45;&gt;lib/types.ts -->
<g id="edge35" class="edge">
<title>lib/realtimeHooks.ts&#45;&gt;lib/types.ts</title>
<path fill="none" stroke="#757575" d="M102.71,-114.7C102.89,-110.22 103.11,-104.94 103.32,-99.82"/>
<polygon fill="#757575" stroke="#757575" points="106.82,-99.96 103.74,-89.82 99.83,-99.67 106.82,-99.96"/>
</g>
<!-- lib/sessionCode.test.ts -->
<g id="node36" class="node">
<title>lib/sessionCode.test.ts</title>
<path fill="none" stroke="#c6c5fe" d="M176.7,-145.82C176.7,-145.82 40.03,-145.82 40.03,-145.82 36.2,-145.82 32.36,-141.99 32.36,-138.16 32.36,-138.16 32.36,-130.49 32.36,-130.49 32.36,-126.66 36.2,-122.82 40.03,-122.82 40.03,-122.82 176.7,-122.82 176.7,-122.82 180.53,-122.82 184.36,-126.66 184.36,-130.49 184.36,-130.49 184.36,-138.16 184.36,-138.16 184.36,-141.99 180.53,-145.82 176.7,-145.82"/>
<text text-anchor="middle" x="108.36" y="-130.62" font-family="Arial" font-size="14.00" fill="#c6c5fe">lib/sessionCode.test.ts</text>
</g>
<!-- lib/sessionCode.test.ts&#45;&gt;lib/mutations.ts -->
<g id="edge36" class="edge">
<title>lib/sessionCode.test.ts&#45;&gt;lib/mutations.ts</title>
<path fill="none" stroke="#757575" d="M124.33,-143.12C124.33,-143.13 124.34,-143.13 124.35,-143.13"/>
<polygon fill="#757575" stroke="#757575" points="113.89,-141.35 124.36,-143.14 117.3,-135.22 113.89,-141.35"/>
</g>
<!-- lib/sessionCode.test.ts&#45;&gt;lib/supabaseClient.ts -->
<g id="edge37" class="edge">
<title>lib/sessionCode.test.ts&#45;&gt;lib/supabaseClient.ts</title>
<path fill="none" stroke="#757575" d="M101.12,-122.69C101.07,-122.61 101.02,-122.54 100.97,-122.46"/>
<polygon fill="#757575" stroke="#757575" points="109.09,-128.87 100.83,-122.23 103.15,-132.57 109.09,-128.87"/>
</g>
<!-- lib/sessionHooks.ts&#45;&gt;lib/supabaseClient.ts -->
<g id="edge38" class="edge">
<title>lib/sessionHooks.ts&#45;&gt;lib/supabaseClient.ts</title>
<path fill="none" stroke="#757575" d="M118.4,-128.91C118.32,-128.87 118.24,-128.83 118.16,-128.79"/>
<polygon fill="#757575" stroke="#757575" points="128.4,-130.25 117.92,-128.66 125.12,-136.44 128.4,-130.25"/>
</g>
<!-- lib/types/index.ts&#45;&gt;lib/types/supabase.ts -->
<g id="edge40" class="edge">
<title>lib/types/index.ts&#45;&gt;lib/types/supabase.ts</title>
<path fill="none" stroke="#757575" d="M172.09,-83.25C172.1,-83.27 172.1,-83.28 172.11,-83.29"/>
<polygon fill="#757575" stroke="#757575" points="164.58,-75.87 172.12,-83.32 170.87,-72.79 164.58,-75.87"/>
</g>
<!-- main.tsx -->
<g id="node39" class="node">
<title>main.tsx</title>
<path fill="none" stroke="#c6c5fe" d="M189.4,-147.24C189.4,-147.24 136.73,-147.24 136.73,-147.24 132.9,-147.24 129.07,-143.4 129.07,-139.57 129.07,-139.57 129.07,-131.9 129.07,-131.9 129.07,-128.07 132.9,-124.24 136.73,-124.24 136.73,-124.24 189.4,-124.24 189.4,-124.24 193.23,-124.24 197.07,-128.07 197.07,-131.9 197.07,-131.9 197.07,-139.57 197.07,-139.57 197.07,-143.4 193.23,-147.24 189.4,-147.24"/>
<text text-anchor="middle" x="163.07" y="-132.04" font-family="Arial" font-size="14.00" fill="#c6c5fe">main.tsx</text>
</g>
<!-- main.tsx&#45;&gt;App.tsx -->
<g id="edge41" class="edge">
<title>main.tsx&#45;&gt;App.tsx</title>
<path fill="none" stroke="#757575" d="M156.01,-127.79C156,-127.77 155.98,-127.76 155.97,-127.75"/>
<polygon fill="#757575" stroke="#757575" points="165.22,-132.88 155.95,-127.72 159.98,-137.53 165.22,-132.88"/>
</g>
<!-- main.tsx&#45;&gt;index.css -->
<g id="edge42" class="edge">
<title>main.tsx&#45;&gt;index.css</title>
<path fill="none" stroke="#757575" d="M168.5,-143.66C168.51,-143.68 168.52,-143.69 168.53,-143.7"/>
<polygon fill="#757575" stroke="#757575" points="159.99,-137.46 168.55,-143.73 165.77,-133.49 159.99,-137.46"/>
</g>
<!-- setupTests.ts -->
<g id="node40" class="node">
<title>setupTests.ts</title>
<path fill="none" stroke="#cfffac" d="M352,-239C352,-239 272.34,-239 272.34,-239 268.5,-239 264.67,-235.17 264.67,-231.33 264.67,-231.33 264.67,-223.67 264.67,-223.67 264.67,-219.83 268.5,-216 272.34,-216 272.34,-216 352,-216 352,-216 355.84,-216 359.67,-219.83 359.67,-223.67 359.67,-223.67 359.67,-231.33 359.67,-231.33 359.67,-235.17 355.84,-239 352,-239"/>
<text text-anchor="middle" x="312.17" y="-223.8" font-family="Arial" font-size="14.00" fill="#cfffac">setupTests.ts</text>
</g>
</g>
</svg>
