<?xml version="1.0" encoding="UTF-8" standalone="no"?>
<!DOCTYPE svg PUBLIC "-//W3C//DTD SVG 1.1//EN"
 "http://www.w3.org/Graphics/SVG/1.1/DTD/svg11.dtd">
<!-- Generated by graphviz version 2.43.0 (0)
 -->
<!-- Title: G Pages: 1 -->
<svg width="403pt" height="174pt"
 viewBox="0.00 0.00 403.04 174.33" xmlns="http://www.w3.org/2000/svg" xmlns:xlink="http://www.w3.org/1999/xlink">
<g id="graph0" class="graph" transform="scale(1 1) rotate(0) translate(21.6 152.73)">
<title>G</title>
<polygon fill="#111111" stroke="transparent" points="-21.6,21.6 -21.6,-152.73 381.44,-152.73 381.44,21.6 -21.6,21.6"/>
<!-- App.tsx -->
<g id="node1" class="node">
<title>App.tsx</title>
<path fill="none" stroke="#c6c5fe" d="M146.03,-37.77C146.03,-37.77 99.36,-37.77 99.36,-37.77 95.53,-37.77 91.7,-33.94 91.7,-30.1 91.7,-30.1 91.7,-22.44 91.7,-22.44 91.7,-18.6 95.53,-14.77 99.36,-14.77 99.36,-14.77 146.03,-14.77 146.03,-14.77 149.86,-14.77 153.7,-18.6 153.7,-22.44 153.7,-22.44 153.7,-30.1 153.7,-30.1 153.7,-33.94 149.86,-37.77 146.03,-37.77"/>
<text text-anchor="middle" x="122.7" y="-22.57" font-family="Arial" font-size="14.00" fill="#c6c5fe">App.tsx</text>
</g>
<!-- pages/GameSetup.tsx -->
<g id="node2" class="node">
<title>pages/GameSetup.tsx</title>
<path fill="none" stroke="#c6c5fe" d="M189.82,-65.19C189.82,-65.19 53.16,-65.19 53.16,-65.19 49.32,-65.19 45.49,-61.36 45.49,-57.52 45.49,-57.52 45.49,-49.86 45.49,-49.86 45.49,-46.02 49.32,-42.19 53.16,-42.19 53.16,-42.19 189.82,-42.19 189.82,-42.19 193.66,-42.19 197.49,-46.02 197.49,-49.86 197.49,-49.86 197.49,-57.52 197.49,-57.52 197.49,-61.36 193.66,-65.19 189.82,-65.19"/>
<text text-anchor="middle" x="121.49" y="-49.99" font-family="Arial" font-size="14.00" fill="#c6c5fe">pages/GameSetup.tsx</text>
</g>
<!-- App.tsx&#45;&gt;pages/GameSetup.tsx -->
<g id="edge1" class="edge">
<title>App.tsx&#45;&gt;pages/GameSetup.tsx</title>
<path fill="none" stroke="#757575" d="M122.18,-38.06C122.17,-38.22 122.16,-38.38 122.16,-38.54"/>
<polygon fill="#757575" stroke="#757575" points="118.95,-31.77 122.01,-41.91 125.94,-32.07 118.95,-31.77"/>
</g>
<!-- pages/Homepage.tsx -->
<g id="node3" class="node">
<title>pages/Homepage.tsx</title>
<path fill="none" stroke="#c6c5fe" d="M182.59,-51.15C182.59,-51.15 52.92,-51.15 52.92,-51.15 49.09,-51.15 45.25,-47.32 45.25,-43.48 45.25,-43.48 45.25,-35.82 45.25,-35.82 45.25,-31.98 49.09,-28.15 52.92,-28.15 52.92,-28.15 182.59,-28.15 182.59,-28.15 186.42,-28.15 190.25,-31.98 190.25,-35.82 190.25,-35.82 190.25,-43.48 190.25,-43.48 190.25,-47.32 186.42,-51.15 182.59,-51.15"/>
<text text-anchor="middle" x="117.75" y="-35.95" font-family="Arial" font-size="14.00" fill="#c6c5fe">pages/Homepage.tsx</text>
</g>
<!-- App.tsx&#45;&gt;pages/Homepage.tsx -->
<g id="edge2" class="edge">
<title>App.tsx&#45;&gt;pages/Homepage.tsx</title>
<path fill="none" stroke="#757575" d="M118.36,-38.01C118.31,-38.13 118.27,-38.25 118.23,-38.37"/>
<polygon fill="#757575" stroke="#757575" points="118.1,-28.61 117.92,-39.2 124.67,-31.04 118.1,-28.61"/>
</g>
<!-- pages/Join.tsx -->
<g id="node4" class="node">
<title>pages/Join.tsx</title>
<path fill="none" stroke="#c6c5fe" d="M175.61,-75.48C175.61,-75.48 87.95,-75.48 87.95,-75.48 84.11,-75.48 80.28,-71.65 80.28,-67.81 80.28,-67.81 80.28,-60.15 80.28,-60.15 80.28,-56.31 84.11,-52.48 87.95,-52.48 87.95,-52.48 175.61,-52.48 175.61,-52.48 179.45,-52.48 183.28,-56.31 183.28,-60.15 183.28,-60.15 183.28,-67.81 183.28,-67.81 183.28,-71.65 179.45,-75.48 175.61,-75.48"/>
<text text-anchor="middle" x="131.78" y="-60.28" font-family="Arial" font-size="14.00" fill="#c6c5fe">pages/Join.tsx</text>
</g>
<!-- App.tsx&#45;&gt;pages/Join.tsx -->
<g id="edge3" class="edge">
<title>App.tsx&#45;&gt;pages/Join.tsx</title>
<path fill="none" stroke="#757575" d="M125.47,-37.79C125.82,-39.22 126.18,-40.73 126.55,-42.25"/>
<polygon fill="#757575" stroke="#757575" points="123.21,-43.37 128.96,-52.27 130.02,-41.73 123.21,-43.37"/>
</g>
<!-- pages/Lobby.tsx -->
<g id="node5" class="node">
<title>pages/Lobby.tsx</title>
<path fill="none" stroke="#c6c5fe" d="M219.52,-65.19C219.52,-65.19 120.85,-65.19 120.85,-65.19 117.02,-65.19 113.19,-61.36 113.19,-57.52 113.19,-57.52 113.19,-49.86 113.19,-49.86 113.19,-46.02 117.02,-42.19 120.85,-42.19 120.85,-42.19 219.52,-42.19 219.52,-42.19 223.35,-42.19 227.19,-46.02 227.19,-49.86 227.19,-49.86 227.19,-57.52 227.19,-57.52 227.19,-61.36 223.35,-65.19 219.52,-65.19"/>
<text text-anchor="middle" x="170.19" y="-49.99" font-family="Arial" font-size="14.00" fill="#c6c5fe">pages/Lobby.tsx</text>
</g>
<!-- App.tsx&#45;&gt;pages/Lobby.tsx -->
<g id="edge4" class="edge">
<title>App.tsx&#45;&gt;pages/Lobby.tsx</title>
<path fill="none" stroke="#757575" d="M142.84,-37.9C142.99,-37.99 143.14,-38.07 143.29,-38.16"/>
<polygon fill="#757575" stroke="#757575" points="139.76,-40.16 150.17,-42.13 143.26,-34.1 139.76,-40.16"/>
</g>
<!-- pages/Quiz.tsx -->
<g id="node6" class="node">
<title>pages/Quiz.tsx</title>
<path fill="none" stroke="#c6c5fe" d="M205.73,-26.78C205.73,-26.78 114.06,-26.78 114.06,-26.78 110.23,-26.78 106.4,-22.95 106.4,-19.11 106.4,-19.11 106.4,-11.45 106.4,-11.45 106.4,-7.61 110.23,-3.78 114.06,-3.78 114.06,-3.78 205.73,-3.78 205.73,-3.78 209.56,-3.78 213.4,-7.61 213.4,-11.45 213.4,-11.45 213.4,-19.11 213.4,-19.11 213.4,-22.95 209.56,-26.78 205.73,-26.78"/>
<text text-anchor="middle" x="159.9" y="-11.58" font-family="Arial" font-size="14.00" fill="#c6c5fe">pages/Quiz.tsx</text>
</g>
<!-- App.tsx&#45;&gt;pages/Quiz.tsx -->
<g id="edge5" class="edge">
<title>App.tsx&#45;&gt;pages/Quiz.tsx</title>
<path fill="none" stroke="#757575" d="M153.75,-17.1C153.81,-17.08 153.87,-17.06 153.92,-17.04"/>
<polygon fill="#757575" stroke="#757575" points="145.5,-23.19 154.09,-16.99 143.51,-16.48 145.5,-23.19"/>
</g>
<!-- pages/Results.tsx -->
<g id="node7" class="node">
<title>pages/Results.tsx</title>
<path fill="none" stroke="#c6c5fe" d="M213.73,-75.48C213.73,-75.48 106.06,-75.48 106.06,-75.48 102.23,-75.48 98.4,-71.65 98.4,-67.81 98.4,-67.81 98.4,-60.15 98.4,-60.15 98.4,-56.31 102.23,-52.48 106.06,-52.48 106.06,-52.48 213.73,-52.48 213.73,-52.48 217.56,-52.48 221.4,-56.31 221.4,-60.15 221.4,-60.15 221.4,-67.81 221.4,-67.81 221.4,-71.65 217.56,-75.48 213.73,-75.48"/>
<text text-anchor="middle" x="159.9" y="-60.28" font-family="Arial" font-size="14.00" fill="#c6c5fe">pages/Results.tsx</text>
</g>
<!-- App.tsx&#45;&gt;pages/Results.tsx -->
<g id="edge6" class="edge">
<title>App.tsx&#45;&gt;pages/Results.tsx</title>
<path fill="none" stroke="#757575" d="M134.06,-37.79C136.32,-40.08 138.76,-42.55 141.2,-45.02"/>
<polygon fill="#757575" stroke="#757575" points="138.83,-47.61 148.35,-52.27 143.81,-42.69 138.83,-47.61"/>
</g>
<!-- lib/mutations.ts -->
<g id="node10" class="node">
<title>lib/mutations.ts</title>
<path fill="none" stroke="#c6c5fe" d="M191.67,-79.25C191.67,-79.25 100,-79.25 100,-79.25 96.17,-79.25 92.34,-75.41 92.34,-71.58 92.34,-71.58 92.34,-63.91 92.34,-63.91 92.34,-60.08 96.17,-56.25 100,-56.25 100,-56.25 191.67,-56.25 191.67,-56.25 195.5,-56.25 199.34,-60.08 199.34,-63.91 199.34,-63.91 199.34,-71.58 199.34,-71.58 199.34,-75.41 195.5,-79.25 191.67,-79.25"/>
<text text-anchor="middle" x="145.84" y="-64.05" font-family="Arial" font-size="14.00" fill="#c6c5fe">lib/mutations.ts</text>
</g>
<!-- pages/GameSetup.tsx&#45;&gt;lib/mutations.ts -->
<g id="edge15" class="edge">
<title>pages/GameSetup.tsx&#45;&gt;lib/mutations.ts</title>
<path fill="none" stroke="#757575" d="M141.6,-65.3C141.68,-65.34 141.75,-65.39 141.83,-65.43"/>
<polygon fill="#757575" stroke="#757575" points="131.65,-63.59 142.06,-65.57 135.15,-57.53 131.65,-63.59"/>
</g>
<!-- lib/types.ts -->
<g id="node12" class="node">
<title>lib/types.ts</title>
<path fill="none" stroke="#cfffac" d="M164.11,-26.78C164.11,-26.78 99.44,-26.78 99.44,-26.78 95.61,-26.78 91.78,-22.95 91.78,-19.11 91.78,-19.11 91.78,-11.45 91.78,-11.45 91.78,-7.61 95.61,-3.78 99.44,-3.78 99.44,-3.78 164.11,-3.78 164.11,-3.78 167.94,-3.78 171.78,-7.61 171.78,-11.45 171.78,-11.45 171.78,-19.11 171.78,-19.11 171.78,-22.95 167.94,-26.78 164.11,-26.78"/>
<text text-anchor="middle" x="131.78" y="-11.58" font-family="Arial" font-size="14.00" fill="#cfffac">lib/types.ts</text>
</g>
<!-- pages/GameSetup.tsx&#45;&gt;lib/types.ts -->
<g id="edge16" class="edge">
<title>pages/GameSetup.tsx&#45;&gt;lib/types.ts</title>
<path fill="none" stroke="#757575" d="M124.63,-41.96C125.07,-40.32 125.53,-38.59 126,-36.84"/>
<polygon fill="#757575" stroke="#757575" points="129.45,-37.5 128.65,-26.94 122.68,-35.69 129.45,-37.5"/>
</g>
<!-- components/PasswordModal.tsx -->
<g id="node8" class="node">
<title>components/PasswordModal.tsx</title>
<path fill="none" stroke="#cfffac" d="M204.33,-51.12C204.33,-51.12 7.67,-51.12 7.67,-51.12 3.83,-51.12 0,-47.28 0,-43.45 0,-43.45 0,-35.78 0,-35.78 0,-31.95 3.83,-28.12 7.67,-28.12 7.67,-28.12 204.33,-28.12 204.33,-28.12 208.17,-28.12 212,-31.95 212,-35.78 212,-35.78 212,-43.45 212,-43.45 212,-47.28 208.17,-51.12 204.33,-51.12"/>
<text text-anchor="middle" x="106" y="-35.92" font-family="Arial" font-size="14.00" fill="#cfffac">components/PasswordModal.tsx</text>
</g>
<!-- pages/Homepage.tsx&#45;&gt;components/PasswordModal.tsx -->
<g id="edge17" class="edge">
<title>pages/Homepage.tsx&#45;&gt;components/PasswordModal.tsx</title>
<path fill="none" stroke="#757575" d="M106.13,-39.62C106.11,-39.62 106.09,-39.62 106.08,-39.62"/>
<polygon fill="#757575" stroke="#757575" points="116.05,-36.17 106.03,-39.62 116.02,-43.17 116.05,-36.17"/>
</g>
<!-- pages/Homepage.tsx&#45;&gt;lib/mutations.ts -->
<g id="edge18" class="edge">
<title>pages/Homepage.tsx&#45;&gt;lib/mutations.ts</title>
<path fill="none" stroke="#757575" d="M129.5,-51.4C129.6,-51.5 129.7,-51.6 129.79,-51.7"/>
<polygon fill="#757575" stroke="#757575" points="124.68,-51.53 134.23,-56.13 129.63,-46.58 124.68,-51.53"/>
</g>
<!-- pages/Join.tsx&#45;&gt;lib/mutations.ts -->
<g id="edge19" class="edge">
<title>pages/Join.tsx&#45;&gt;lib/mutations.ts</title>
<path fill="none" stroke="#757575" d="M145.68,-67.7C145.71,-67.71 145.73,-67.72 145.75,-67.72"/>
<polygon fill="#757575" stroke="#757575" points="135.23,-68.51 145.8,-67.74 137.05,-61.75 135.23,-68.51"/>
</g>
<!-- lib/supabaseClient.ts -->
<g id="node11" class="node">
<title>lib/supabaseClient.ts</title>
<path fill="none" stroke="#cfffac" d="M236.79,-51.13C236.79,-51.13 111.12,-51.13 111.12,-51.13 107.29,-51.13 103.45,-47.3 103.45,-43.46 103.45,-43.46 103.45,-35.8 103.45,-35.8 103.45,-31.96 107.29,-28.13 111.12,-28.13 111.12,-28.13 236.79,-28.13 236.79,-28.13 240.62,-28.13 244.45,-31.96 244.45,-35.8 244.45,-35.8 244.45,-43.46 244.45,-43.46 244.45,-47.3 240.62,-51.13 236.79,-51.13"/>
<text text-anchor="middle" x="173.95" y="-35.93" font-family="Arial" font-size="14.00" fill="#cfffac">lib/supabaseClient.ts</text>
</g>
<!-- pages/Join.tsx&#45;&gt;lib/supabaseClient.ts -->
<g id="edge20" class="edge">
<title>pages/Join.tsx&#45;&gt;lib/supabaseClient.ts</title>
<path fill="none" stroke="#757575" d="M151.88,-52.38C151.96,-52.33 152.05,-52.28 152.13,-52.23"/>
<polygon fill="#757575" stroke="#757575" points="147.01,-59.23 153.92,-51.2 143.51,-53.17 147.01,-59.23"/>
</g>
<!-- pages/Lobby.tsx&#45;&gt;lib/mutations.ts -->
<g id="edge21" class="edge">
<title>pages/Lobby.tsx&#45;&gt;lib/mutations.ts</title>
<path fill="none" stroke="#757575" d="M150.08,-65.3C150,-65.34 149.92,-65.39 149.84,-65.43"/>
<polygon fill="#757575" stroke="#757575" points="156.53,-57.53 149.62,-65.57 160.03,-63.59 156.53,-57.53"/>
</g>
<!-- pages/Lobby.tsx&#45;&gt;lib/supabaseClient.ts -->
<g id="edge23" class="edge">
<title>pages/Lobby.tsx&#45;&gt;lib/supabaseClient.ts</title>
<path fill="none" stroke="#757575" d="M173.3,-42.08C173.32,-41.99 173.35,-41.9 173.37,-41.81"/>
<polygon fill="#757575" stroke="#757575" points="174.23,-52.12 173.44,-41.56 167.47,-50.31 174.23,-52.12"/>
</g>
<!-- lib/sessionHooks.ts -->
<g id="node16" class="node">
<title>lib/sessionHooks.ts</title>
<path fill="none" stroke="#c6c5fe" d="M228.52,-37.07C228.52,-37.07 111.85,-37.07 111.85,-37.07 108.02,-37.07 104.19,-33.24 104.19,-29.41 104.19,-29.41 104.19,-21.74 104.19,-21.74 104.19,-17.91 108.02,-14.07 111.85,-14.07 111.85,-14.07 228.52,-14.07 228.52,-14.07 232.35,-14.07 236.19,-17.91 236.19,-21.74 236.19,-21.74 236.19,-29.41 236.19,-29.41 236.19,-33.24 232.35,-37.07 228.52,-37.07"/>
<text text-anchor="middle" x="170.19" y="-21.87" font-family="Arial" font-size="14.00" fill="#c6c5fe">lib/sessionHooks.ts</text>
</g>
<!-- pages/Lobby.tsx&#45;&gt;lib/sessionHooks.ts -->
<g id="edge22" class="edge">
<title>pages/Lobby.tsx&#45;&gt;lib/sessionHooks.ts</title>
<path fill="none" stroke="#757575" d="M170.19,-41.93C170.19,-41.83 170.19,-41.73 170.19,-41.63"/>
<polygon fill="#757575" stroke="#757575" points="173.69,-47.2 170.19,-37.2 166.69,-47.2 173.69,-47.2"/>
</g>
<!-- pages/Quiz.tsx&#45;&gt;lib/mutations.ts -->
<g id="edge24" class="edge">
<title>pages/Quiz.tsx&#45;&gt;lib/mutations.ts</title>
<path fill="none" stroke="#757575" d="M156.78,-26.92C155.25,-32.63 153.36,-39.69 151.58,-46.32"/>
<polygon fill="#757575" stroke="#757575" points="148.16,-45.57 148.95,-56.14 154.92,-47.38 148.16,-45.57"/>
</g>
<!-- pages/Quiz.tsx&#45;&gt;lib/types.ts -->
<g id="edge27" class="edge">
<title>pages/Quiz.tsx&#45;&gt;lib/types.ts</title>
<path fill="none" stroke="#757575" d="M131.86,-15.28C131.84,-15.28 131.83,-15.28 131.82,-15.28"/>
<polygon fill="#757575" stroke="#757575" points="141.81,-11.82 131.8,-15.28 141.78,-18.82 141.81,-11.82"/>
</g>
<!-- lib/realtimeHooks.ts -->
<g id="node15" class="node">
<title>lib/realtimeHooks.ts</title>
<path fill="none" stroke="#c6c5fe" d="M205.65,-23C205.65,-23 85.98,-23 85.98,-23 82.15,-23 78.31,-19.17 78.31,-15.33 78.31,-15.33 78.31,-7.67 78.31,-7.67 78.31,-3.83 82.15,0 85.98,0 85.98,0 205.65,0 205.65,0 209.48,0 213.31,-3.83 213.31,-7.67 213.31,-7.67 213.31,-15.33 213.31,-15.33 213.31,-19.17 209.48,-23 205.65,-23"/>
<text text-anchor="middle" x="145.81" y="-7.8" font-family="Arial" font-size="14.00" fill="#c6c5fe">lib/realtimeHooks.ts</text>
</g>
<!-- pages/Quiz.tsx&#45;&gt;lib/realtimeHooks.ts -->
<g id="edge25" class="edge">
<title>pages/Quiz.tsx&#45;&gt;lib/realtimeHooks.ts</title>
<path fill="none" stroke="#757575" d="M145.97,-11.54C145.95,-11.54 145.92,-11.53 145.9,-11.52"/>
<polygon fill="#757575" stroke="#757575" points="156.42,-10.74 145.85,-11.51 154.6,-17.5 156.42,-10.74"/>
</g>
<!-- pages/Quiz.tsx&#45;&gt;lib/sessionHooks.ts -->
<g id="edge26" class="edge">
<title>pages/Quiz.tsx&#45;&gt;lib/sessionHooks.ts</title>
<path fill="none" stroke="#757575" d="M170.07,-25.46C170.09,-25.48 170.11,-25.49 170.12,-25.51"/>
<polygon fill="#757575" stroke="#757575" points="160.6,-20.94 170.16,-25.54 165.56,-15.99 160.6,-20.94"/>
</g>
<!-- pages/Results.tsx&#45;&gt;lib/mutations.ts -->
<g id="edge28" class="edge">
<title>pages/Results.tsx&#45;&gt;lib/mutations.ts</title>
<path fill="none" stroke="#757575" d="M146,-67.7C145.97,-67.71 145.95,-67.72 145.93,-67.72"/>
<polygon fill="#757575" stroke="#757575" points="154.63,-61.75 145.88,-67.74 156.45,-68.51 154.63,-61.75"/>
</g>
<!-- pages/Results.tsx&#45;&gt;lib/supabaseClient.ts -->
<g id="edge30" class="edge">
<title>pages/Results.tsx&#45;&gt;lib/supabaseClient.ts</title>
<path fill="none" stroke="#757575" d="M166.6,-52.38C166.65,-52.28 166.71,-52.18 166.77,-52.08"/>
<polygon fill="#757575" stroke="#757575" points="165.31,-61.61 167.27,-51.2 159.24,-58.11 165.31,-61.61"/>
</g>
<!-- pages/Results.tsx&#45;&gt;lib/sessionHooks.ts -->
<g id="edge29" class="edge">
<title>pages/Results.tsx&#45;&gt;lib/sessionHooks.ts</title>
<path fill="none" stroke="#757575" d="M163.04,-52.25C163.48,-50.61 163.94,-48.89 164.41,-47.14"/>
<polygon fill="#757575" stroke="#757575" points="167.86,-47.8 167.06,-37.23 161.09,-45.99 167.86,-47.8"/>
</g>
<!-- index.css -->
<g id="node9" class="node">
<title>index.css</title>
<path fill="none" stroke="#cfffac" d="M135.53,-28.53C135.53,-28.53 77.86,-28.53 77.86,-28.53 74.03,-28.53 70.19,-24.7 70.19,-20.86 70.19,-20.86 70.19,-13.2 70.19,-13.2 70.19,-9.36 74.03,-5.53 77.86,-5.53 77.86,-5.53 135.53,-5.53 135.53,-5.53 139.36,-5.53 143.19,-9.36 143.19,-13.2 143.19,-13.2 143.19,-20.86 143.19,-20.86 143.19,-24.7 139.36,-28.53 135.53,-28.53"/>
<text text-anchor="middle" x="106.69" y="-13.33" font-family="Arial" font-size="14.00" fill="#cfffac">index.css</text>
</g>
<!-- lib/mutations.ts&#45;&gt;lib/supabaseClient.ts -->
<g id="edge7" class="edge">
<title>lib/mutations.ts&#45;&gt;lib/supabaseClient.ts</title>
<path fill="none" stroke="#757575" d="M157.6,-55.99C157.7,-55.89 157.79,-55.79 157.89,-55.69"/>
<polygon fill="#757575" stroke="#757575" points="157.73,-60.8 162.33,-51.25 152.78,-55.85 157.73,-60.8"/>
</g>
<!-- lib/mutations.ts&#45;&gt;lib/types.ts -->
<g id="edge8" class="edge">
<title>lib/mutations.ts&#45;&gt;lib/types.ts</title>
<path fill="none" stroke="#757575" d="M142.72,-56.1C141.19,-50.4 139.3,-43.34 137.52,-36.71"/>
<polygon fill="#757575" stroke="#757575" points="140.86,-35.64 134.89,-26.89 134.1,-37.46 140.86,-35.64"/>
</g>
<!-- lib/mutations.validation.ts -->
<g id="node13" class="node">
<title>lib/mutations.validation.ts</title>
<path fill="none" stroke="#cfffac" d="M352.17,-131.13C352.17,-131.13 199.5,-131.13 199.5,-131.13 195.67,-131.13 191.84,-127.3 191.84,-123.46 191.84,-123.46 191.84,-115.8 191.84,-115.8 191.84,-111.96 195.67,-108.13 199.5,-108.13 199.5,-108.13 352.17,-108.13 352.17,-108.13 356,-108.13 359.84,-111.96 359.84,-115.8 359.84,-115.8 359.84,-123.46 359.84,-123.46 359.84,-127.3 356,-131.13 352.17,-131.13"/>
<text text-anchor="middle" x="275.84" y="-115.93" font-family="Arial" font-size="14.00" fill="#cfffac">lib/mutations.validation.ts</text>
</g>
<!-- lib/presence.ts -->
<g id="node14" class="node">
<title>lib/presence.ts</title>
<path fill="none" stroke="#c6c5fe" d="M226.44,-51.13C226.44,-51.13 137.77,-51.13 137.77,-51.13 133.94,-51.13 130.1,-47.3 130.1,-43.46 130.1,-43.46 130.1,-35.8 130.1,-35.8 130.1,-31.96 133.94,-28.13 137.77,-28.13 137.77,-28.13 226.44,-28.13 226.44,-28.13 230.27,-28.13 234.1,-31.96 234.1,-35.8 234.1,-35.8 234.1,-43.46 234.1,-43.46 234.1,-47.3 230.27,-51.13 226.44,-51.13"/>
<text text-anchor="middle" x="182.1" y="-35.93" font-family="Arial" font-size="14.00" fill="#c6c5fe">lib/presence.ts</text>
</g>
<!-- lib/presence.ts&#45;&gt;lib/supabaseClient.ts -->
<g id="edge9" class="edge">
<title>lib/presence.ts&#45;&gt;lib/supabaseClient.ts</title>
<path fill="none" stroke="#757575" d="M174.05,-39.63C174.03,-39.63 174.02,-39.63 174.01,-39.63"/>
<polygon fill="#757575" stroke="#757575" points="183.96,-36.1 173.98,-39.63 183.99,-43.1 183.96,-36.1"/>
</g>
<!-- lib/realtimeHooks.ts&#45;&gt;lib/supabaseClient.ts -->
<g id="edge10" class="edge">
<title>lib/realtimeHooks.ts&#45;&gt;lib/supabaseClient.ts</title>
<path fill="none" stroke="#757575" d="M157.58,-23.27C157.68,-23.36 157.78,-23.46 157.88,-23.56"/>
<polygon fill="#757575" stroke="#757575" points="152.77,-23.41 162.32,-28 157.72,-18.46 152.77,-23.41"/>
</g>
<!-- lib/realtimeHooks.ts&#45;&gt;lib/types.ts -->
<g id="edge11" class="edge">
<title>lib/realtimeHooks.ts&#45;&gt;lib/types.ts</title>
<path fill="none" stroke="#757575" d="M131.93,-15.24C131.91,-15.24 131.88,-15.25 131.86,-15.25"/>
<polygon fill="#757575" stroke="#757575" points="140.56,-9.27 131.82,-15.27 142.39,-16.03 140.56,-9.27"/>
</g>
<!-- lib/sessionHooks.ts&#45;&gt;lib/supabaseClient.ts -->
<g id="edge12" class="edge">
<title>lib/sessionHooks.ts&#45;&gt;lib/supabaseClient.ts</title>
<path fill="none" stroke="#757575" d="M173.3,-37.18C173.32,-37.27 173.35,-37.36 173.37,-37.45"/>
<polygon fill="#757575" stroke="#757575" points="167.47,-28.95 173.44,-37.71 174.23,-27.14 167.47,-28.95"/>
</g>
<!-- main.tsx -->
<g id="node17" class="node">
<title>main.tsx</title>
<path fill="none" stroke="#c6c5fe" d="M141.03,-33.15C141.03,-33.15 88.36,-33.15 88.36,-33.15 84.53,-33.15 80.69,-29.32 80.69,-25.48 80.69,-25.48 80.69,-17.82 80.69,-17.82 80.69,-13.98 84.53,-10.15 88.36,-10.15 88.36,-10.15 141.03,-10.15 141.03,-10.15 144.86,-10.15 148.69,-13.98 148.69,-17.82 148.69,-17.82 148.69,-25.48 148.69,-25.48 148.69,-29.32 144.86,-33.15 141.03,-33.15"/>
<text text-anchor="middle" x="114.69" y="-17.95" font-family="Arial" font-size="14.00" fill="#c6c5fe">main.tsx</text>
</g>
<!-- main.tsx&#45;&gt;App.tsx -->
<g id="edge13" class="edge">
<title>main.tsx&#45;&gt;App.tsx</title>
<path fill="none" stroke="#757575" d="M122.61,-26.22C122.62,-26.23 122.63,-26.23 122.64,-26.24"/>
<polygon fill="#757575" stroke="#757575" points="112.25,-24.27 122.67,-26.26 115.76,-18.21 112.25,-24.27"/>
</g>
<!-- main.tsx&#45;&gt;index.css -->
<g id="edge14" class="edge">
<title>main.tsx&#45;&gt;index.css</title>
<path fill="none" stroke="#757575" d="M106.78,-17.08C106.77,-17.07 106.76,-17.07 106.74,-17.06"/>
<polygon fill="#757575" stroke="#757575" points="117.14,-19.03 106.72,-17.04 113.63,-25.09 117.14,-19.03"/>
</g>
<!-- setupTests.ts -->
<g id="node18" class="node">
<title>setupTests.ts</title>
<path fill="none" stroke="#cfffac" d="M159.67,-131.13C159.67,-131.13 80,-131.13 80,-131.13 76.17,-131.13 72.34,-127.3 72.34,-123.46 72.34,-123.46 72.34,-115.8 72.34,-115.8 72.34,-111.96 76.17,-108.13 80,-108.13 80,-108.13 159.67,-108.13 159.67,-108.13 163.5,-108.13 167.34,-111.96 167.34,-115.8 167.34,-115.8 167.34,-123.46 167.34,-123.46 167.34,-127.3 163.5,-131.13 159.67,-131.13"/>
<text text-anchor="middle" x="119.84" y="-115.93" font-family="Arial" font-size="14.00" fill="#cfffac">setupTests.ts</text>
</g>
</g>
</svg>
