<?xml version="1.0" encoding="UTF-8" standalone="no"?>
<!DOCTYPE svg PUBLIC "-//W3C//DTD SVG 1.1//EN"
 "http://www.w3.org/Graphics/SVG/1.1/DTD/svg11.dtd">
<!-- Generated by graphviz version 2.43.0 (0)
 -->
<!-- Title: G Pages: 1 -->
<svg width="403pt" height="187pt"
 viewBox="0.00 0.00 403.06 187.02" xmlns="http://www.w3.org/2000/svg" xmlns:xlink="http://www.w3.org/1999/xlink">
<g id="graph0" class="graph" transform="scale(1 1) rotate(0) translate(21.6 165.42)">
<title>G</title>
<polygon fill="#111111" stroke="transparent" points="-21.6,21.6 -21.6,-165.42 381.46,-165.42 381.46,21.6 -21.6,21.6"/>
<!-- App.tsx -->
<g id="node1" class="node">
<title>App.tsx</title>
<path fill="none" stroke="#c6c5fe" d="M171.74,-47.82C171.74,-47.82 125.07,-47.82 125.07,-47.82 121.24,-47.82 117.4,-43.99 117.4,-40.16 117.4,-40.16 117.4,-32.49 117.4,-32.49 117.4,-28.66 121.24,-24.82 125.07,-24.82 125.07,-24.82 171.74,-24.82 171.74,-24.82 175.57,-24.82 179.4,-28.66 179.4,-32.49 179.4,-32.49 179.4,-40.16 179.4,-40.16 179.4,-43.99 175.57,-47.82 171.74,-47.82"/>
<text text-anchor="middle" x="148.4" y="-32.62" font-family="Arial" font-size="14.00" fill="#c6c5fe">App.tsx</text>
</g>
<!-- pages/GameSetup.tsx -->
<g id="node2" class="node">
<title>pages/GameSetup.tsx</title>
<path fill="none" stroke="#c6c5fe" d="M226.32,-67.73C226.32,-67.73 89.66,-67.73 89.66,-67.73 85.82,-67.73 81.99,-63.9 81.99,-60.06 81.99,-60.06 81.99,-52.4 81.99,-52.4 81.99,-48.56 85.82,-44.73 89.66,-44.73 89.66,-44.73 226.32,-44.73 226.32,-44.73 230.16,-44.73 233.99,-48.56 233.99,-52.4 233.99,-52.4 233.99,-60.06 233.99,-60.06 233.99,-63.9 230.16,-67.73 226.32,-67.73"/>
<text text-anchor="middle" x="157.99" y="-52.53" font-family="Arial" font-size="14.00" fill="#c6c5fe">pages/GameSetup.tsx</text>
</g>
<!-- App.tsx&#45;&gt;pages/GameSetup.tsx -->
<g id="edge1" class="edge">
<title>App.tsx&#45;&gt;pages/GameSetup.tsx</title>
<path fill="none" stroke="#757575" d="M154.09,-48.13C154.12,-48.2 154.15,-48.27 154.19,-48.33"/>
<polygon fill="#757575" stroke="#757575" points="146.79,-41.04 154.28,-48.53 153.09,-38 146.79,-41.04"/>
</g>
<!-- pages/Homepage.tsx -->
<g id="node3" class="node">
<title>pages/Homepage.tsx</title>
<path fill="none" stroke="#c6c5fe" d="M215.76,-58.87C215.76,-58.87 86.09,-58.87 86.09,-58.87 82.26,-58.87 78.42,-55.04 78.42,-51.2 78.42,-51.2 78.42,-43.54 78.42,-43.54 78.42,-39.7 82.26,-35.87 86.09,-35.87 86.09,-35.87 215.76,-35.87 215.76,-35.87 219.59,-35.87 223.42,-39.7 223.42,-43.54 223.42,-43.54 223.42,-51.2 223.42,-51.2 223.42,-55.04 219.59,-58.87 215.76,-58.87"/>
<text text-anchor="middle" x="150.92" y="-43.67" font-family="Arial" font-size="14.00" fill="#c6c5fe">pages/Homepage.tsx</text>
</g>
<!-- App.tsx&#45;&gt;pages/Homepage.tsx -->
<g id="edge2" class="edge">
<title>App.tsx&#45;&gt;pages/Homepage.tsx</title>
<path fill="none" stroke="#757575" d="M150.9,-47.25C150.9,-47.27 150.9,-47.28 150.91,-47.3"/>
<polygon fill="#757575" stroke="#757575" points="145.26,-38.37 150.92,-47.34 152.08,-36.8 145.26,-38.37"/>
</g>
<!-- pages/Join.tsx -->
<g id="node4" class="node">
<title>pages/Join.tsx</title>
<path fill="none" stroke="#c6c5fe" d="M212.03,-72.65C212.03,-72.65 124.36,-72.65 124.36,-72.65 120.53,-72.65 116.7,-68.81 116.7,-64.98 116.7,-64.98 116.7,-57.31 116.7,-57.31 116.7,-53.48 120.53,-49.65 124.36,-49.65 124.36,-49.65 212.03,-49.65 212.03,-49.65 215.86,-49.65 219.7,-53.48 219.7,-57.31 219.7,-57.31 219.7,-64.98 219.7,-64.98 219.7,-68.81 215.86,-72.65 212.03,-72.65"/>
<text text-anchor="middle" x="168.2" y="-57.45" font-family="Arial" font-size="14.00" fill="#c6c5fe">pages/Join.tsx</text>
</g>
<!-- App.tsx&#45;&gt;pages/Join.tsx -->
<g id="edge3" class="edge">
<title>App.tsx&#45;&gt;pages/Join.tsx</title>
<path fill="none" stroke="#757575" d="M157.6,-47.86C157.71,-47.99 157.81,-48.12 157.91,-48.24"/>
<polygon fill="#757575" stroke="#757575" points="149.85,-43.75 158.82,-49.38 155.32,-39.38 149.85,-43.75"/>
</g>
<!-- pages/Lobby.tsx -->
<g id="node5" class="node">
<title>pages/Lobby.tsx</title>
<path fill="none" stroke="#c6c5fe" d="M239.07,-67.73C239.07,-67.73 140.41,-67.73 140.41,-67.73 136.57,-67.73 132.74,-63.9 132.74,-60.06 132.74,-60.06 132.74,-52.4 132.74,-52.4 132.74,-48.56 136.57,-44.73 140.41,-44.73 140.41,-44.73 239.07,-44.73 239.07,-44.73 242.91,-44.73 246.74,-48.56 246.74,-52.4 246.74,-52.4 246.74,-60.06 246.74,-60.06 246.74,-63.9 242.91,-67.73 239.07,-67.73"/>
<text text-anchor="middle" x="189.74" y="-52.53" font-family="Arial" font-size="14.00" fill="#c6c5fe">pages/Lobby.tsx</text>
</g>
<!-- App.tsx&#45;&gt;pages/Lobby.tsx -->
<g id="edge4" class="edge">
<title>App.tsx&#45;&gt;pages/Lobby.tsx</title>
<path fill="none" stroke="#757575" d="M172.45,-47.9C172.52,-47.94 172.59,-47.97 172.66,-48.01"/>
<polygon fill="#757575" stroke="#757575" points="162.34,-46.92 172.87,-48.11 165.38,-40.61 162.34,-46.92"/>
</g>
<!-- pages/Quiz.tsx -->
<g id="node6" class="node">
<title>pages/Quiz.tsx</title>
<path fill="none" stroke="#c6c5fe" d="M225.36,-23C225.36,-23 133.7,-23 133.7,-23 129.86,-23 126.03,-19.17 126.03,-15.33 126.03,-15.33 126.03,-7.67 126.03,-7.67 126.03,-3.83 129.86,0 133.7,0 133.7,0 225.36,0 225.36,0 229.2,0 233.03,-3.83 233.03,-7.67 233.03,-7.67 233.03,-15.33 233.03,-15.33 233.03,-19.17 229.2,-23 225.36,-23"/>
<text text-anchor="middle" x="179.53" y="-7.8" font-family="Arial" font-size="14.00" fill="#c6c5fe">pages/Quiz.tsx</text>
</g>
<!-- App.tsx&#45;&gt;pages/Quiz.tsx -->
<g id="edge5" class="edge">
<title>App.tsx&#45;&gt;pages/Quiz.tsx</title>
<path fill="none" stroke="#757575" d="M162.87,-24.78C163.03,-24.66 163.19,-24.53 163.35,-24.4"/>
<polygon fill="#757575" stroke="#757575" points="159.14,-32.23 164.78,-23.26 154.78,-26.76 159.14,-32.23"/>
</g>
<!-- pages/Results.tsx -->
<g id="node7" class="node">
<title>pages/Results.tsx</title>
<path fill="none" stroke="#c6c5fe" d="M250.64,-36.78C250.64,-36.78 142.97,-36.78 142.97,-36.78 139.14,-36.78 135.3,-32.94 135.3,-29.11 135.3,-29.11 135.3,-21.44 135.3,-21.44 135.3,-17.61 139.14,-13.78 142.97,-13.78 142.97,-13.78 250.64,-13.78 250.64,-13.78 254.47,-13.78 258.3,-17.61 258.3,-21.44 258.3,-21.44 258.3,-29.11 258.3,-29.11 258.3,-32.94 254.47,-36.78 250.64,-36.78"/>
<text text-anchor="middle" x="196.8" y="-21.58" font-family="Arial" font-size="14.00" fill="#c6c5fe">pages/Results.tsx</text>
</g>
<!-- App.tsx&#45;&gt;pages/Results.tsx -->
<g id="edge6" class="edge">
<title>App.tsx&#45;&gt;pages/Results.tsx</title>
<path fill="none" stroke="#757575" d="M179.6,-29.2C179.68,-29.19 179.75,-29.17 179.82,-29.15"/>
<polygon fill="#757575" stroke="#757575" points="171.07,-34.74 180.04,-29.1 169.51,-27.92 171.07,-34.74"/>
</g>
<!-- lib/mutations.ts -->
<g id="node12" class="node">
<title>lib/mutations.ts</title>
<path fill="none" stroke="#c6c5fe" d="M225.36,-72.65C225.36,-72.65 133.7,-72.65 133.7,-72.65 129.86,-72.65 126.03,-68.81 126.03,-64.98 126.03,-64.98 126.03,-57.31 126.03,-57.31 126.03,-53.48 129.86,-49.65 133.7,-49.65 133.7,-49.65 225.36,-49.65 225.36,-49.65 229.2,-49.65 233.03,-53.48 233.03,-57.31 233.03,-57.31 233.03,-64.98 233.03,-64.98 233.03,-68.81 229.2,-72.65 225.36,-72.65"/>
<text text-anchor="middle" x="179.53" y="-57.45" font-family="Arial" font-size="14.00" fill="#c6c5fe">lib/mutations.ts</text>
</g>
<!-- pages/GameSetup.tsx&#45;&gt;lib/mutations.ts -->
<g id="edge20" class="edge">
<title>pages/GameSetup.tsx&#45;&gt;lib/mutations.ts</title>
<path fill="none" stroke="#757575" d="M179.47,-61.13C179.48,-61.13 179.49,-61.14 179.49,-61.14"/>
<polygon fill="#757575" stroke="#757575" points="168.97,-62.29 179.51,-61.14 170.56,-55.47 168.97,-62.29"/>
</g>
<!-- lib/types.ts -->
<g id="node13" class="node">
<title>lib/types.ts</title>
<path fill="none" stroke="#cfffac" d="M190.32,-27.92C190.32,-27.92 125.66,-27.92 125.66,-27.92 121.82,-27.92 117.99,-24.08 117.99,-20.25 117.99,-20.25 117.99,-12.58 117.99,-12.58 117.99,-8.75 121.82,-4.92 125.66,-4.92 125.66,-4.92 190.32,-4.92 190.32,-4.92 194.16,-4.92 197.99,-8.75 197.99,-12.58 197.99,-12.58 197.99,-20.25 197.99,-20.25 197.99,-24.08 194.16,-27.92 190.32,-27.92"/>
<text text-anchor="middle" x="157.99" y="-12.72" font-family="Arial" font-size="14.00" fill="#cfffac">lib/types.ts</text>
</g>
<!-- pages/GameSetup.tsx&#45;&gt;lib/types.ts -->
<g id="edge21" class="edge">
<title>pages/GameSetup.tsx&#45;&gt;lib/types.ts</title>
<path fill="none" stroke="#757575" d="M157.99,-44.5C157.99,-42.46 157.99,-40.27 157.99,-38.06"/>
<polygon fill="#757575" stroke="#757575" points="161.49,-37.93 157.99,-27.93 154.49,-37.93 161.49,-37.93"/>
</g>
<!-- components/PasswordModal.tsx -->
<g id="node9" class="node">
<title>components/PasswordModal.tsx</title>
<path fill="none" stroke="#cfffac" d="M230.98,-67.67C230.98,-67.67 34.32,-67.67 34.32,-67.67 30.48,-67.67 26.65,-63.84 26.65,-60 26.65,-60 26.65,-52.34 26.65,-52.34 26.65,-48.5 30.48,-44.67 34.32,-44.67 34.32,-44.67 230.98,-44.67 230.98,-44.67 234.82,-44.67 238.65,-48.5 238.65,-52.34 238.65,-52.34 238.65,-60 238.65,-60 238.65,-63.84 234.82,-67.67 230.98,-67.67"/>
<text text-anchor="middle" x="132.65" y="-52.47" font-family="Arial" font-size="14.00" fill="#cfffac">components/PasswordModal.tsx</text>
</g>
<!-- pages/Homepage.tsx&#45;&gt;components/PasswordModal.tsx -->
<g id="edge22" class="edge">
<title>pages/Homepage.tsx&#45;&gt;components/PasswordModal.tsx</title>
<path fill="none" stroke="#757575" d="M132.7,-56.14C132.69,-56.15 132.69,-56.15 132.68,-56.16"/>
<polygon fill="#757575" stroke="#757575" points="140.15,-48.64 132.66,-56.16 143.21,-54.95 140.15,-48.64"/>
</g>
<!-- pages/Homepage.tsx&#45;&gt;lib/mutations.ts -->
<g id="edge23" class="edge">
<title>pages/Homepage.tsx&#45;&gt;lib/mutations.ts</title>
<path fill="none" stroke="#757575" d="M174.81,-58.87C174.89,-58.91 174.98,-58.96 175.07,-59"/>
<polygon fill="#757575" stroke="#757575" points="164.79,-57.93 175.32,-59.12 167.83,-51.63 164.79,-57.93"/>
</g>
<!-- pages/Join.tsx&#45;&gt;lib/mutations.ts -->
<g id="edge24" class="edge">
<title>pages/Join.tsx&#45;&gt;lib/mutations.ts</title>
<path fill="none" stroke="#757575" d="M179.4,-61.15C179.42,-61.15 179.44,-61.15 179.46,-61.15"/>
<polygon fill="#757575" stroke="#757575" points="169.51,-64.67 179.5,-61.15 169.49,-57.67 169.51,-64.67"/>
</g>
<!-- lib/supabaseClient.ts -->
<g id="node14" class="node">
<title>lib/supabaseClient.ts</title>
<path fill="none" stroke="#cfffac" d="M261.32,-47.82C261.32,-47.82 135.66,-47.82 135.66,-47.82 131.82,-47.82 127.99,-43.99 127.99,-40.16 127.99,-40.16 127.99,-32.49 127.99,-32.49 127.99,-28.66 131.82,-24.82 135.66,-24.82 135.66,-24.82 261.32,-24.82 261.32,-24.82 265.16,-24.82 268.99,-28.66 268.99,-32.49 268.99,-32.49 268.99,-40.16 268.99,-40.16 268.99,-43.99 265.16,-47.82 261.32,-47.82"/>
<text text-anchor="middle" x="198.49" y="-32.62" font-family="Arial" font-size="14.00" fill="#cfffac">lib/supabaseClient.ts</text>
</g>
<!-- pages/Join.tsx&#45;&gt;lib/supabaseClient.ts -->
<g id="edge25" class="edge">
<title>pages/Join.tsx&#45;&gt;lib/supabaseClient.ts</title>
<path fill="none" stroke="#757575" d="M182.28,-49.61C182.43,-49.48 182.59,-49.35 182.74,-49.23"/>
<polygon fill="#757575" stroke="#757575" points="178.62,-57.13 184.14,-48.08 174.18,-51.72 178.62,-57.13"/>
</g>
<!-- pages/Lobby.tsx&#45;&gt;lib/mutations.ts -->
<g id="edge26" class="edge">
<title>pages/Lobby.tsx&#45;&gt;lib/mutations.ts</title>
<path fill="none" stroke="#757575" d="M179.64,-61.09C179.63,-61.1 179.61,-61.11 179.59,-61.11"/>
<polygon fill="#757575" stroke="#757575" points="187.05,-53.62 179.56,-61.13 190.09,-59.93 187.05,-53.62"/>
</g>
<!-- pages/Lobby.tsx&#45;&gt;lib/supabaseClient.ts -->
<g id="edge28" class="edge">
<title>pages/Lobby.tsx&#45;&gt;lib/supabaseClient.ts</title>
<path fill="none" stroke="#757575" d="M194.93,-44.42C194.96,-44.35 194.99,-44.29 195.02,-44.22"/>
<polygon fill="#757575" stroke="#757575" points="194.28,-54.58 195.11,-44.02 187.87,-51.77 194.28,-54.58"/>
</g>
<!-- lib/sessionHooks.ts -->
<g id="node19" class="node">
<title>lib/sessionHooks.ts</title>
<path fill="none" stroke="#c6c5fe" d="M248.07,-27.92C248.07,-27.92 131.41,-27.92 131.41,-27.92 127.57,-27.92 123.74,-24.08 123.74,-20.25 123.74,-20.25 123.74,-12.58 123.74,-12.58 123.74,-8.75 127.57,-4.92 131.41,-4.92 131.41,-4.92 248.07,-4.92 248.07,-4.92 251.91,-4.92 255.74,-8.75 255.74,-12.58 255.74,-12.58 255.74,-20.25 255.74,-20.25 255.74,-24.08 251.91,-27.92 248.07,-27.92"/>
<text text-anchor="middle" x="189.74" y="-12.72" font-family="Arial" font-size="14.00" fill="#c6c5fe">lib/sessionHooks.ts</text>
</g>
<!-- pages/Lobby.tsx&#45;&gt;lib/sessionHooks.ts -->
<g id="edge27" class="edge">
<title>pages/Lobby.tsx&#45;&gt;lib/sessionHooks.ts</title>
<path fill="none" stroke="#757575" d="M189.74,-44.5C189.74,-42.46 189.74,-40.27 189.74,-38.06"/>
<polygon fill="#757575" stroke="#757575" points="193.24,-37.93 189.74,-27.93 186.24,-37.93 193.24,-37.93"/>
</g>
<!-- pages/Quiz.tsx&#45;&gt;lib/mutations.ts -->
<g id="edge29" class="edge">
<title>pages/Quiz.tsx&#45;&gt;lib/mutations.ts</title>
<path fill="none" stroke="#757575" d="M179.53,-23.01C179.53,-27.83 179.53,-33.6 179.53,-39.17"/>
<polygon fill="#757575" stroke="#757575" points="176.03,-39.35 179.53,-49.35 183.03,-39.35 176.03,-39.35"/>
</g>
<!-- pages/Quiz.tsx&#45;&gt;lib/types.ts -->
<g id="edge32" class="edge">
<title>pages/Quiz.tsx&#45;&gt;lib/types.ts</title>
<path fill="none" stroke="#757575" d="M158.05,-16.4C158.04,-16.4 158.03,-16.41 158.02,-16.41"/>
<polygon fill="#757575" stroke="#757575" points="166.96,-10.74 158,-16.41 168.55,-17.56 166.96,-10.74"/>
</g>
<!-- lib/realtimeHooks.ts -->
<g id="node17" class="node">
<title>lib/realtimeHooks.ts</title>
<path fill="none" stroke="#c6c5fe" d="M228.03,-23C228.03,-23 108.36,-23 108.36,-23 104.53,-23 100.7,-19.17 100.7,-15.33 100.7,-15.33 100.7,-7.67 100.7,-7.67 100.7,-3.83 104.53,0 108.36,0 108.36,0 228.03,0 228.03,0 231.86,0 235.7,-3.83 235.7,-7.67 235.7,-7.67 235.7,-15.33 235.7,-15.33 235.7,-19.17 231.86,-23 228.03,-23"/>
<text text-anchor="middle" x="168.2" y="-7.8" font-family="Arial" font-size="14.00" fill="#c6c5fe">lib/realtimeHooks.ts</text>
</g>
<!-- pages/Quiz.tsx&#45;&gt;lib/realtimeHooks.ts -->
<g id="edge30" class="edge">
<title>pages/Quiz.tsx&#45;&gt;lib/realtimeHooks.ts</title>
<path fill="none" stroke="#757575" d="M168.32,-11.5C168.3,-11.5 168.29,-11.5 168.27,-11.5"/>
<polygon fill="#757575" stroke="#757575" points="178.24,-8.03 168.23,-11.5 178.22,-15.03 178.24,-8.03"/>
</g>
<!-- pages/Quiz.tsx&#45;&gt;lib/sessionHooks.ts -->
<g id="edge31" class="edge">
<title>pages/Quiz.tsx&#45;&gt;lib/sessionHooks.ts</title>
<path fill="none" stroke="#757575" d="M189.62,-16.36C189.64,-16.37 189.66,-16.38 189.67,-16.39"/>
<polygon fill="#757575" stroke="#757575" points="179.17,-15.2 189.71,-16.4 182.22,-8.9 179.17,-15.2"/>
</g>
<!-- pages/Results.tsx&#45;&gt;lib/mutations.ts -->
<g id="edge33" class="edge">
<title>pages/Results.tsx&#45;&gt;lib/mutations.ts</title>
<path fill="none" stroke="#757575" d="M191.15,-37.02C190.67,-38 190.19,-39.01 189.7,-40.03"/>
<polygon fill="#757575" stroke="#757575" points="186.44,-38.72 185.26,-49.25 192.75,-41.76 186.44,-38.72"/>
</g>
<!-- pages/Results.tsx&#45;&gt;lib/supabaseClient.ts -->
<g id="edge35" class="edge">
<title>pages/Results.tsx&#45;&gt;lib/supabaseClient.ts</title>
<path fill="none" stroke="#757575" d="M198.47,-36.2C198.47,-36.22 198.48,-36.24 198.48,-36.25"/>
<polygon fill="#757575" stroke="#757575" points="193.49,-26.94 198.48,-36.29 200.41,-25.87 193.49,-26.94"/>
</g>
<!-- pages/Results.tsx&#45;&gt;lib/sessionHooks.ts -->
<g id="edge34" class="edge">
<title>pages/Results.tsx&#45;&gt;lib/sessionHooks.ts</title>
<path fill="none" stroke="#757575" d="M189.82,-16.52C189.8,-16.5 189.79,-16.49 189.78,-16.47"/>
<polygon fill="#757575" stroke="#757575" points="198.74,-22.08 189.76,-16.44 193.26,-26.45 198.74,-22.08"/>
</g>
<!-- components/PasswordModal.test.tsx -->
<g id="node8" class="node">
<title>components/PasswordModal.test.tsx</title>
<path fill="none" stroke="#c6c5fe" d="M230.33,-74.24C230.33,-74.24 7.67,-74.24 7.67,-74.24 3.83,-74.24 0,-70.41 0,-66.58 0,-66.58 0,-58.91 0,-58.91 0,-55.08 3.83,-51.24 7.67,-51.24 7.67,-51.24 230.33,-51.24 230.33,-51.24 234.17,-51.24 238,-55.08 238,-58.91 238,-58.91 238,-66.58 238,-66.58 238,-70.41 234.17,-74.24 230.33,-74.24"/>
<text text-anchor="middle" x="119" y="-59.04" font-family="Arial" font-size="14.00" fill="#c6c5fe">components/PasswordModal.test.tsx</text>
</g>
<!-- components/PasswordModal.test.tsx&#45;&gt;components/PasswordModal.tsx -->
<g id="edge7" class="edge">
<title>components/PasswordModal.test.tsx&#45;&gt;components/PasswordModal.tsx</title>
<path fill="none" stroke="#757575" d="M132.5,-56.24C132.52,-56.23 132.54,-56.22 132.56,-56.21"/>
<polygon fill="#757575" stroke="#757575" points="125.12,-63.69 132.61,-56.19 122.08,-57.38 125.12,-63.69"/>
</g>
<!-- index.css -->
<g id="node10" class="node">
<title>index.css</title>
<path fill="none" stroke="#cfffac" d="M155.07,-47.82C155.07,-47.82 97.4,-47.82 97.4,-47.82 93.57,-47.82 89.73,-43.99 89.73,-40.16 89.73,-40.16 89.73,-32.49 89.73,-32.49 89.73,-28.66 93.57,-24.82 97.4,-24.82 97.4,-24.82 155.07,-24.82 155.07,-24.82 158.9,-24.82 162.73,-28.66 162.73,-32.49 162.73,-32.49 162.73,-40.16 162.73,-40.16 162.73,-43.99 158.9,-47.82 155.07,-47.82"/>
<text text-anchor="middle" x="126.23" y="-32.62" font-family="Arial" font-size="14.00" fill="#cfffac">index.css</text>
</g>
<!-- lib/mutations.test.ts -->
<g id="node11" class="node">
<title>lib/mutations.test.ts</title>
<path fill="none" stroke="#c6c5fe" d="M209.76,-36.78C209.76,-36.78 92.09,-36.78 92.09,-36.78 88.26,-36.78 84.42,-32.94 84.42,-29.11 84.42,-29.11 84.42,-21.44 84.42,-21.44 84.42,-17.61 88.26,-13.78 92.09,-13.78 92.09,-13.78 209.76,-13.78 209.76,-13.78 213.59,-13.78 217.42,-17.61 217.42,-21.44 217.42,-21.44 217.42,-29.11 217.42,-29.11 217.42,-32.94 213.59,-36.78 209.76,-36.78"/>
<text text-anchor="middle" x="150.92" y="-21.58" font-family="Arial" font-size="14.00" fill="#c6c5fe">lib/mutations.test.ts</text>
</g>
<!-- lib/mutations.test.ts&#45;&gt;lib/mutations.ts -->
<g id="edge8" class="edge">
<title>lib/mutations.test.ts&#45;&gt;lib/mutations.ts</title>
<path fill="none" stroke="#757575" d="M160.29,-37.02C161.37,-38.37 162.48,-39.77 163.61,-41.19"/>
<polygon fill="#757575" stroke="#757575" points="161.07,-43.62 170.04,-49.25 166.55,-39.25 161.07,-43.62"/>
</g>
<!-- lib/mutations.test.ts&#45;&gt;lib/types.ts -->
<g id="edge9" class="edge">
<title>lib/mutations.test.ts&#45;&gt;lib/types.ts</title>
<path fill="none" stroke="#757575" d="M157.91,-16.52C157.92,-16.5 157.93,-16.49 157.94,-16.47"/>
<polygon fill="#757575" stroke="#757575" points="154.46,-26.45 157.97,-16.44 148.99,-22.08 154.46,-26.45"/>
</g>
<!-- lib/mutations.ts&#45;&gt;lib/types.ts -->
<g id="edge11" class="edge">
<title>lib/mutations.ts&#45;&gt;lib/types.ts</title>
<path fill="none" stroke="#757575" d="M173.87,-49.39C172.07,-45.67 170.03,-41.43 168.03,-37.26"/>
<polygon fill="#757575" stroke="#757575" points="171.03,-35.43 163.54,-27.94 164.72,-38.46 171.03,-35.43"/>
</g>
<!-- lib/mutations.ts&#45;&gt;lib/supabaseClient.ts -->
<g id="edge10" class="edge">
<title>lib/mutations.ts&#45;&gt;lib/supabaseClient.ts</title>
<path fill="none" stroke="#757575" d="M188.34,-49.61C188.44,-49.48 188.54,-49.35 188.63,-49.23"/>
<polygon fill="#757575" stroke="#757575" points="186.22,-58.16 189.51,-48.08 180.65,-53.91 186.22,-58.16"/>
</g>
<!-- lib/mutations.validation.ts -->
<g id="node15" class="node">
<title>lib/mutations.validation.ts</title>
<path fill="none" stroke="#cfffac" d="M352.2,-119.82C352.2,-119.82 199.53,-119.82 199.53,-119.82 195.7,-119.82 191.86,-115.99 191.86,-112.16 191.86,-112.16 191.86,-104.49 191.86,-104.49 191.86,-100.66 195.7,-96.82 199.53,-96.82 199.53,-96.82 352.2,-96.82 352.2,-96.82 356.03,-96.82 359.86,-100.66 359.86,-104.49 359.86,-104.49 359.86,-112.16 359.86,-112.16 359.86,-115.99 356.03,-119.82 352.2,-119.82"/>
<text text-anchor="middle" x="275.86" y="-104.62" font-family="Arial" font-size="14.00" fill="#cfffac">lib/mutations.validation.ts</text>
</g>
<!-- lib/presence.ts -->
<g id="node16" class="node">
<title>lib/presence.ts</title>
<path fill="none" stroke="#c6c5fe" d="M250.82,-47.82C250.82,-47.82 162.16,-47.82 162.16,-47.82 158.32,-47.82 154.49,-43.99 154.49,-40.16 154.49,-40.16 154.49,-32.49 154.49,-32.49 154.49,-28.66 158.32,-24.82 162.16,-24.82 162.16,-24.82 250.82,-24.82 250.82,-24.82 254.66,-24.82 258.49,-28.66 258.49,-32.49 258.49,-32.49 258.49,-40.16 258.49,-40.16 258.49,-43.99 254.66,-47.82 250.82,-47.82"/>
<text text-anchor="middle" x="206.49" y="-32.62" font-family="Arial" font-size="14.00" fill="#c6c5fe">lib/presence.ts</text>
</g>
<!-- lib/presence.ts&#45;&gt;lib/supabaseClient.ts -->
<g id="edge12" class="edge">
<title>lib/presence.ts&#45;&gt;lib/supabaseClient.ts</title>
<path fill="none" stroke="#757575" d="M198.58,-36.32C198.56,-36.32 198.55,-36.32 198.54,-36.32"/>
<polygon fill="#757575" stroke="#757575" points="208.52,-32.86 198.51,-36.32 208.5,-39.86 208.52,-32.86"/>
</g>
<!-- lib/realtimeHooks.ts&#45;&gt;lib/types.ts -->
<g id="edge14" class="edge">
<title>lib/realtimeHooks.ts&#45;&gt;lib/types.ts</title>
<path fill="none" stroke="#757575" d="M158.1,-16.36C158.08,-16.37 158.07,-16.38 158.05,-16.39"/>
<polygon fill="#757575" stroke="#757575" points="165.51,-8.9 158.02,-16.4 168.55,-15.2 165.51,-8.9"/>
</g>
<!-- lib/realtimeHooks.ts&#45;&gt;lib/supabaseClient.ts -->
<g id="edge13" class="edge">
<title>lib/realtimeHooks.ts&#45;&gt;lib/supabaseClient.ts</title>
<path fill="none" stroke="#757575" d="M182.28,-23.04C182.43,-23.17 182.59,-23.29 182.74,-23.42"/>
<polygon fill="#757575" stroke="#757575" points="174.18,-20.93 184.14,-24.56 178.62,-15.52 174.18,-20.93"/>
</g>
<!-- lib/sessionCode.test.ts -->
<g id="node18" class="node">
<title>lib/sessionCode.test.ts</title>
<path fill="none" stroke="#c6c5fe" d="M265.14,-58.87C265.14,-58.87 128.47,-58.87 128.47,-58.87 124.64,-58.87 120.8,-55.04 120.8,-51.2 120.8,-51.2 120.8,-43.54 120.8,-43.54 120.8,-39.7 124.64,-35.87 128.47,-35.87 128.47,-35.87 265.14,-35.87 265.14,-35.87 268.97,-35.87 272.8,-39.7 272.8,-43.54 272.8,-43.54 272.8,-51.2 272.8,-51.2 272.8,-55.04 268.97,-58.87 265.14,-58.87"/>
<text text-anchor="middle" x="196.8" y="-43.67" font-family="Arial" font-size="14.00" fill="#c6c5fe">lib/sessionCode.test.ts</text>
</g>
<!-- lib/sessionCode.test.ts&#45;&gt;lib/mutations.ts -->
<g id="edge15" class="edge">
<title>lib/sessionCode.test.ts&#45;&gt;lib/mutations.ts</title>
<path fill="none" stroke="#757575" d="M182.23,-58.99C182.18,-59.03 182.13,-59.07 182.08,-59.11"/>
<polygon fill="#757575" stroke="#757575" points="187.57,-50.26 181.93,-59.23 191.93,-55.73 187.57,-50.26"/>
</g>
<!-- lib/sessionCode.test.ts&#45;&gt;lib/supabaseClient.ts -->
<g id="edge16" class="edge">
<title>lib/sessionCode.test.ts&#45;&gt;lib/supabaseClient.ts</title>
<path fill="none" stroke="#757575" d="M198.47,-36.45C198.47,-36.43 198.48,-36.41 198.48,-36.39"/>
<polygon fill="#757575" stroke="#757575" points="200.41,-46.78 198.48,-36.35 193.49,-45.71 200.41,-46.78"/>
</g>
<!-- lib/sessionHooks.ts&#45;&gt;lib/supabaseClient.ts -->
<g id="edge17" class="edge">
<title>lib/sessionHooks.ts&#45;&gt;lib/supabaseClient.ts</title>
<path fill="none" stroke="#757575" d="M194.93,-28.23C194.96,-28.29 194.99,-28.36 195.02,-28.43"/>
<polygon fill="#757575" stroke="#757575" points="187.87,-20.88 195.11,-28.63 194.28,-18.06 187.87,-20.88"/>
</g>
<!-- main.tsx -->
<g id="node20" class="node">
<title>main.tsx</title>
<path fill="none" stroke="#c6c5fe" d="M160.57,-47.82C160.57,-47.82 107.91,-47.82 107.91,-47.82 104.07,-47.82 100.24,-43.99 100.24,-40.16 100.24,-40.16 100.24,-32.49 100.24,-32.49 100.24,-28.66 104.07,-24.82 107.91,-24.82 107.91,-24.82 160.57,-24.82 160.57,-24.82 164.41,-24.82 168.24,-28.66 168.24,-32.49 168.24,-32.49 168.24,-40.16 168.24,-40.16 168.24,-43.99 164.41,-47.82 160.57,-47.82"/>
<text text-anchor="middle" x="134.24" y="-32.62" font-family="Arial" font-size="14.00" fill="#c6c5fe">main.tsx</text>
</g>
<!-- main.tsx&#45;&gt;App.tsx -->
<g id="edge18" class="edge">
<title>main.tsx&#45;&gt;App.tsx</title>
<path fill="none" stroke="#757575" d="M148.24,-36.32C148.27,-36.32 148.29,-36.32 148.31,-36.32"/>
<polygon fill="#757575" stroke="#757575" points="138.37,-39.84 148.36,-36.32 138.35,-32.84 138.37,-39.84"/>
</g>
<!-- main.tsx&#45;&gt;index.css -->
<g id="edge19" class="edge">
<title>main.tsx&#45;&gt;index.css</title>
<path fill="none" stroke="#757575" d="M126.32,-36.32C126.31,-36.32 126.3,-36.32 126.29,-36.32"/>
<polygon fill="#757575" stroke="#757575" points="136.27,-32.86 126.26,-36.32 136.25,-39.86 136.27,-32.86"/>
</g>
<!-- setupTests.ts -->
<g id="node21" class="node">
<title>setupTests.ts</title>
<path fill="none" stroke="#cfffac" d="M159.7,-143.82C159.7,-143.82 80.03,-143.82 80.03,-143.82 76.2,-143.82 72.36,-139.99 72.36,-136.16 72.36,-136.16 72.36,-128.49 72.36,-128.49 72.36,-124.66 76.2,-120.82 80.03,-120.82 80.03,-120.82 159.7,-120.82 159.7,-120.82 163.53,-120.82 167.36,-124.66 167.36,-128.49 167.36,-128.49 167.36,-136.16 167.36,-136.16 167.36,-139.99 163.53,-143.82 159.7,-143.82"/>
<text text-anchor="middle" x="119.86" y="-128.62" font-family="Arial" font-size="14.00" fill="#cfffac">setupTests.ts</text>
</g>
</g>
</svg>
