<?xml version="1.0" encoding="UTF-8" standalone="no"?>
<!DOCTYPE svg PUBLIC "-//W3C//DTD SVG 1.1//EN"
 "http://www.w3.org/Graphics/SVG/1.1/DTD/svg11.dtd">
<!-- Generated by graphviz version 2.43.0 (0)
 -->
<!-- Title: G Pages: 1 -->
<svg width="1494pt" height="1607pt"
 viewBox="0.00 0.00 1494.20 1607.31" xmlns="http://www.w3.org/2000/svg" xmlns:xlink="http://www.w3.org/1999/xlink">
<g id="graph0" class="graph" transform="scale(1 1) rotate(0) translate(21.6 1585.71)">
<title>G</title>
<polygon fill="#111111" stroke="transparent" points="-21.6,21.6 -21.6,-1585.71 1472.6,-1585.71 1472.6,21.6 -21.6,21.6"/>
<!-- ../atoms/index.ts -->
<g id="node1" class="node">
<title>../atoms/index.ts</title>
<path fill="none" stroke="#c6c5fe" d="M329.33,-1334.62C329.33,-1334.62 228.67,-1334.62 228.67,-1334.62 224.83,-1334.62 221,-1330.79 221,-1326.95 221,-1326.95 221,-1319.29 221,-1319.29 221,-1315.45 224.83,-1311.62 228.67,-1311.62 228.67,-1311.62 329.33,-1311.62 329.33,-1311.62 333.17,-1311.62 337,-1315.45 337,-1319.29 337,-1319.29 337,-1326.95 337,-1326.95 337,-1330.79 333.17,-1334.62 329.33,-1334.62"/>
<text text-anchor="middle" x="279" y="-1319.42" font-family="Arial" font-size="14.00" fill="#c6c5fe">../atoms/index.ts</text>
</g>
<!-- ../lib/types/supabase.ts -->
<g id="node2" class="node">
<title>../lib/types/supabase.ts</title>
<path fill="none" stroke="#cfffac" d="M1443.33,-1409.62C1443.33,-1409.62 1304.67,-1409.62 1304.67,-1409.62 1300.83,-1409.62 1297,-1405.79 1297,-1401.95 1297,-1401.95 1297,-1394.29 1297,-1394.29 1297,-1390.45 1300.83,-1386.62 1304.67,-1386.62 1304.67,-1386.62 1443.33,-1386.62 1443.33,-1386.62 1447.17,-1386.62 1451,-1390.45 1451,-1394.29 1451,-1394.29 1451,-1401.95 1451,-1401.95 1451,-1405.79 1447.17,-1409.62 1443.33,-1409.62"/>
<text text-anchor="middle" x="1374" y="-1394.42" font-family="Arial" font-size="14.00" fill="#cfffac">../lib/types/supabase.ts</text>
</g>
<!-- ../atoms/index.ts&#45;&gt;../lib/types/supabase.ts -->
<g id="edge1" class="edge">
<title>../atoms/index.ts&#45;&gt;../lib/types/supabase.ts</title>
<path fill="none" stroke="#757575" d="M298.31,-1334.87C328.28,-1353.63 390.21,-1390.47 447,-1412.12 622.67,-1479.08 670,-1512.12 858,-1512.12 858,-1512.12 858,-1512.12 1050,-1512.12 1165.52,-1512.12 1291.71,-1446.48 1345.86,-1414.81"/>
<polygon fill="#757575" stroke="#757575" points="1347.7,-1417.79 1354.52,-1409.68 1344.13,-1411.77 1347.7,-1417.79"/>
</g>
<!-- ../components/ActiveGames.tsx -->
<g id="node3" class="node">
<title>../components/ActiveGames.tsx</title>
<path fill="none" stroke="#c6c5fe" d="M375.83,-478.62C375.83,-478.62 182.17,-478.62 182.17,-478.62 178.33,-478.62 174.5,-474.79 174.5,-470.95 174.5,-470.95 174.5,-463.29 174.5,-463.29 174.5,-459.45 178.33,-455.62 182.17,-455.62 182.17,-455.62 375.83,-455.62 375.83,-455.62 379.67,-455.62 383.5,-459.45 383.5,-463.29 383.5,-463.29 383.5,-470.95 383.5,-470.95 383.5,-474.79 379.67,-478.62 375.83,-478.62"/>
<text text-anchor="middle" x="279" y="-463.42" font-family="Arial" font-size="14.00" fill="#c6c5fe">../components/ActiveGames.tsx</text>
</g>
<!-- ../lib/logger.ts -->
<g id="node4" class="node">
<title>../lib/logger.ts</title>
<path fill="none" stroke="#cfffac" d="M1089.33,-689.62C1089.33,-689.62 1008.67,-689.62 1008.67,-689.62 1004.83,-689.62 1001,-685.79 1001,-681.95 1001,-681.95 1001,-674.29 1001,-674.29 1001,-670.45 1004.83,-666.62 1008.67,-666.62 1008.67,-666.62 1089.33,-666.62 1089.33,-666.62 1093.17,-666.62 1097,-670.45 1097,-674.29 1097,-674.29 1097,-681.95 1097,-681.95 1097,-685.79 1093.17,-689.62 1089.33,-689.62"/>
<text text-anchor="middle" x="1049" y="-674.42" font-family="Arial" font-size="14.00" fill="#cfffac">../lib/logger.ts</text>
</g>
<!-- ../components/ActiveGames.tsx&#45;&gt;../lib/logger.ts -->
<g id="edge2" class="edge">
<title>../components/ActiveGames.tsx&#45;&gt;../lib/logger.ts</title>
<path fill="none" stroke="#757575" d="M383.78,-464.61C563.53,-461.13 918.17,-458.47 965,-490.12 1021.86,-528.55 1040.14,-615.38 1045.7,-656.17"/>
<polygon fill="#757575" stroke="#757575" points="1042.24,-656.66 1046.94,-666.16 1049.19,-655.8 1042.24,-656.66"/>
</g>
<!-- ../lib/mutations.ts -->
<g id="node5" class="node">
<title>../lib/mutations.ts</title>
<path fill="none" stroke="#c6c5fe" d="M633.83,-905.62C633.83,-905.62 530.17,-905.62 530.17,-905.62 526.33,-905.62 522.5,-901.79 522.5,-897.95 522.5,-897.95 522.5,-890.29 522.5,-890.29 522.5,-886.45 526.33,-882.62 530.17,-882.62 530.17,-882.62 633.83,-882.62 633.83,-882.62 637.67,-882.62 641.5,-886.45 641.5,-890.29 641.5,-890.29 641.5,-897.95 641.5,-897.95 641.5,-901.79 637.67,-905.62 633.83,-905.62"/>
<text text-anchor="middle" x="582" y="-890.42" font-family="Arial" font-size="14.00" fill="#c6c5fe">../lib/mutations.ts</text>
</g>
<!-- ../components/ActiveGames.tsx&#45;&gt;../lib/mutations.ts -->
<g id="edge3" class="edge">
<title>../components/ActiveGames.tsx&#45;&gt;../lib/mutations.ts</title>
<path fill="none" stroke="#757575" d="M287.94,-478.75C309.27,-510.23 369,-600.02 411,-679.12 429.29,-713.56 424.91,-726.99 447,-759.12 479.52,-806.43 529.67,-851.74 558.5,-875.95"/>
<polygon fill="#757575" stroke="#757575" points="556.45,-878.79 566.38,-882.48 560.92,-873.41 556.45,-878.79"/>
</g>
<!-- ../lib/mutations.ts&#45;&gt;../lib/logger.ts -->
<g id="edge29" class="edge">
<title>../lib/mutations.ts&#45;&gt;../lib/logger.ts</title>
<path fill="none" stroke="#757575" d="M641.83,-893.61C667,-890.79 695.48,-883.86 717,-868.12 743.97,-848.39 726.12,-821.96 753,-802.12 830.36,-745.03 880.02,-804.08 965,-759.12 993.4,-744.1 1018.64,-716.33 1033.63,-697.55"/>
<polygon fill="#757575" stroke="#757575" points="1036.41,-699.67 1039.77,-689.63 1030.88,-695.39 1036.41,-699.67"/>
</g>
<!-- ../lib/supabaseClient.ts -->
<g id="node15" class="node">
<title>../lib/supabaseClient.ts</title>
<path fill="none" stroke="#cfffac" d="M927.33,-749.62C927.33,-749.62 790.67,-749.62 790.67,-749.62 786.83,-749.62 783,-745.79 783,-741.95 783,-741.95 783,-734.29 783,-734.29 783,-730.45 786.83,-726.62 790.67,-726.62 790.67,-726.62 927.33,-726.62 927.33,-726.62 931.17,-726.62 935,-730.45 935,-734.29 935,-734.29 935,-741.95 935,-741.95 935,-745.79 931.17,-749.62 927.33,-749.62"/>
<text text-anchor="middle" x="859" y="-734.42" font-family="Arial" font-size="14.00" fill="#cfffac">../lib/supabaseClient.ts</text>
</g>
<!-- ../lib/mutations.ts&#45;&gt;../lib/supabaseClient.ts -->
<g id="edge30" class="edge">
<title>../lib/mutations.ts&#45;&gt;../lib/supabaseClient.ts</title>
<path fill="none" stroke="#757575" d="M641.78,-895.37C667.54,-892.98 696.5,-885.9 717,-868.12 753.95,-836.07 716.88,-797.11 753,-764.12 758.95,-758.69 765.85,-754.35 773.22,-750.88"/>
<polygon fill="#757575" stroke="#757575" points="774.86,-753.99 782.77,-746.95 772.19,-747.52 774.86,-753.99"/>
</g>
<!-- ../lib/dailyTokenManager.ts -->
<g id="node26" class="node">
<title>../lib/dailyTokenManager.ts</title>
<path fill="none" stroke="#c6c5fe" d="M939.33,-867.62C939.33,-867.62 778.67,-867.62 778.67,-867.62 774.83,-867.62 771,-863.79 771,-859.95 771,-859.95 771,-852.29 771,-852.29 771,-848.45 774.83,-844.62 778.67,-844.62 778.67,-844.62 939.33,-844.62 939.33,-844.62 943.17,-844.62 947,-848.45 947,-852.29 947,-852.29 947,-859.95 947,-859.95 947,-863.79 943.17,-867.62 939.33,-867.62"/>
<text text-anchor="middle" x="859" y="-852.42" font-family="Arial" font-size="14.00" fill="#c6c5fe">../lib/dailyTokenManager.ts</text>
</g>
<!-- ../lib/mutations.ts&#45;&gt;../lib/dailyTokenManager.ts -->
<g id="edge28" class="edge">
<title>../lib/mutations.ts&#45;&gt;../lib/dailyTokenManager.ts</title>
<path fill="none" stroke="#757575" d="M641.66,-886.02C677.43,-881.07 723.96,-874.64 764.7,-869.01"/>
<polygon fill="#757575" stroke="#757575" points="765.23,-872.47 774.65,-867.64 764.27,-865.54 765.23,-872.47"/>
</g>
<!-- ../lib/types.ts -->
<g id="node27" class="node">
<title>../lib/types.ts</title>
<path fill="none" stroke="#c6c5fe" d="M1087.33,-1199.62C1087.33,-1199.62 1010.67,-1199.62 1010.67,-1199.62 1006.83,-1199.62 1003,-1195.79 1003,-1191.95 1003,-1191.95 1003,-1184.29 1003,-1184.29 1003,-1180.45 1006.83,-1176.62 1010.67,-1176.62 1010.67,-1176.62 1087.33,-1176.62 1087.33,-1176.62 1091.17,-1176.62 1095,-1180.45 1095,-1184.29 1095,-1184.29 1095,-1191.95 1095,-1191.95 1095,-1195.79 1091.17,-1199.62 1087.33,-1199.62"/>
<text text-anchor="middle" x="1049" y="-1184.42" font-family="Arial" font-size="14.00" fill="#c6c5fe">../lib/types.ts</text>
</g>
<!-- ../lib/mutations.ts&#45;&gt;../lib/types.ts -->
<g id="edge31" class="edge">
<title>../lib/mutations.ts&#45;&gt;../lib/types.ts</title>
<path fill="none" stroke="#757575" d="M600.36,-905.66C630.58,-925.47 695.13,-966.54 753,-995.12 844.02,-1040.07 884.09,-1018.81 965,-1080.12 996.81,-1104.22 1022.74,-1143.48 1036.73,-1167.43"/>
<polygon fill="#757575" stroke="#757575" points="1033.83,-1169.42 1041.82,-1176.39 1039.92,-1165.96 1033.83,-1169.42"/>
</g>
<!-- ../components/Alert.tsx -->
<g id="node6" class="node">
<title>../components/Alert.tsx</title>
<path fill="none" stroke="#cfffac" d="M348.83,-277.62C348.83,-277.62 209.17,-277.62 209.17,-277.62 205.33,-277.62 201.5,-273.79 201.5,-269.95 201.5,-269.95 201.5,-262.29 201.5,-262.29 201.5,-258.45 205.33,-254.62 209.17,-254.62 209.17,-254.62 348.83,-254.62 348.83,-254.62 352.67,-254.62 356.5,-258.45 356.5,-262.29 356.5,-262.29 356.5,-269.95 356.5,-269.95 356.5,-273.79 352.67,-277.62 348.83,-277.62"/>
<text text-anchor="middle" x="279" y="-262.42" font-family="Arial" font-size="14.00" fill="#cfffac">../components/Alert.tsx</text>
</g>
<!-- ../components/ChromaLogo.tsx -->
<g id="node7" class="node">
<title>../components/ChromaLogo.tsx</title>
<path fill="none" stroke="#cfffac" d="M954.33,-77.62C954.33,-77.62 763.67,-77.62 763.67,-77.62 759.83,-77.62 756,-73.79 756,-69.95 756,-69.95 756,-62.29 756,-62.29 756,-58.45 759.83,-54.62 763.67,-54.62 763.67,-54.62 954.33,-54.62 954.33,-54.62 958.17,-54.62 962,-58.45 962,-62.29 962,-62.29 962,-69.95 962,-69.95 962,-73.79 958.17,-77.62 954.33,-77.62"/>
<text text-anchor="middle" x="859" y="-62.42" font-family="Arial" font-size="14.00" fill="#cfffac">../components/ChromaLogo.tsx</text>
</g>
<!-- ../components/ControlsBar.tsx -->
<g id="node8" class="node">
<title>../components/ControlsBar.tsx</title>
<path fill="none" stroke="#cfffac" d="M672.83,-1331.62C672.83,-1331.62 491.17,-1331.62 491.17,-1331.62 487.33,-1331.62 483.5,-1327.79 483.5,-1323.95 483.5,-1323.95 483.5,-1316.29 483.5,-1316.29 483.5,-1312.45 487.33,-1308.62 491.17,-1308.62 491.17,-1308.62 672.83,-1308.62 672.83,-1308.62 676.67,-1308.62 680.5,-1312.45 680.5,-1316.29 680.5,-1316.29 680.5,-1323.95 680.5,-1323.95 680.5,-1327.79 676.67,-1331.62 672.83,-1331.62"/>
<text text-anchor="middle" x="582" y="-1316.42" font-family="Arial" font-size="14.00" fill="#cfffac">../components/ControlsBar.tsx</text>
</g>
<!-- ../components/Flag.tsx -->
<g id="node9" class="node">
<title>../components/Flag.tsx</title>
<path fill="none" stroke="#c6c5fe" d="M650.83,-273.62C650.83,-273.62 513.17,-273.62 513.17,-273.62 509.33,-273.62 505.5,-269.79 505.5,-265.95 505.5,-265.95 505.5,-258.29 505.5,-258.29 505.5,-254.45 509.33,-250.62 513.17,-250.62 513.17,-250.62 650.83,-250.62 650.83,-250.62 654.67,-250.62 658.5,-254.45 658.5,-258.29 658.5,-258.29 658.5,-265.95 658.5,-265.95 658.5,-269.79 654.67,-273.62 650.83,-273.62"/>
<text text-anchor="middle" x="582" y="-258.42" font-family="Arial" font-size="14.00" fill="#c6c5fe">../components/Flag.tsx</text>
</g>
<!-- ../lib/flagIcons.ts -->
<g id="node10" class="node">
<title>../lib/flagIcons.ts</title>
<path fill="none" stroke="#c6c5fe" d="M907.83,-355.62C907.83,-355.62 810.17,-355.62 810.17,-355.62 806.33,-355.62 802.5,-351.79 802.5,-347.95 802.5,-347.95 802.5,-340.29 802.5,-340.29 802.5,-336.45 806.33,-332.62 810.17,-332.62 810.17,-332.62 907.83,-332.62 907.83,-332.62 911.67,-332.62 915.5,-336.45 915.5,-340.29 915.5,-340.29 915.5,-347.95 915.5,-347.95 915.5,-351.79 911.67,-355.62 907.83,-355.62"/>
<text text-anchor="middle" x="859" y="-340.42" font-family="Arial" font-size="14.00" fill="#c6c5fe">../lib/flagIcons.ts</text>
</g>
<!-- ../components/Flag.tsx&#45;&gt;../lib/flagIcons.ts -->
<g id="edge4" class="edge">
<title>../components/Flag.tsx&#45;&gt;../lib/flagIcons.ts</title>
<path fill="none" stroke="#757575" d="M658.51,-270.54C677.79,-273.61 698.34,-277.72 717,-283.12 756.19,-294.47 798.89,-314.03 826.91,-327.95"/>
<polygon fill="#757575" stroke="#757575" points="825.67,-331.24 836.18,-332.61 828.82,-324.99 825.67,-331.24"/>
</g>
<!-- ../lib/flagIcons.ts&#45;&gt;../lib/logger.ts -->
<g id="edge27" class="edge">
<title>../lib/flagIcons.ts&#45;&gt;../lib/logger.ts</title>
<path fill="none" stroke="#757575" d="M874.89,-355.88C897.28,-374.25 939.65,-411.84 965,-452.12 1008.12,-520.64 1033.5,-614.85 1043.31,-656.65"/>
<polygon fill="#757575" stroke="#757575" points="1039.93,-657.57 1045.56,-666.55 1046.75,-656.02 1039.93,-657.57"/>
</g>
<!-- ../components/FlagSelector.tsx -->
<g id="node11" class="node">
<title>../components/FlagSelector.tsx</title>
<path fill="none" stroke="#c6c5fe" d="M372.33,-195.62C372.33,-195.62 185.67,-195.62 185.67,-195.62 181.83,-195.62 178,-191.79 178,-187.95 178,-187.95 178,-180.29 178,-180.29 178,-176.45 181.83,-172.62 185.67,-172.62 185.67,-172.62 372.33,-172.62 372.33,-172.62 376.17,-172.62 380,-176.45 380,-180.29 380,-180.29 380,-187.95 380,-187.95 380,-191.79 376.17,-195.62 372.33,-195.62"/>
<text text-anchor="middle" x="279" y="-180.42" font-family="Arial" font-size="14.00" fill="#c6c5fe">../components/FlagSelector.tsx</text>
</g>
<!-- ../components/FlagSelector.tsx&#45;&gt;../components/Flag.tsx -->
<g id="edge5" class="edge">
<title>../components/FlagSelector.tsx&#45;&gt;../components/Flag.tsx</title>
<path fill="none" stroke="#757575" d="M369.56,-195.63C383.51,-198.04 397.7,-200.86 411,-204.12 457.18,-215.43 508.64,-233.84 542.72,-246.88"/>
<polygon fill="#757575" stroke="#757575" points="541.7,-250.23 552.29,-250.57 544.22,-243.7 541.7,-250.23"/>
</g>
<!-- ../components/LobbyLogo.tsx -->
<g id="node12" class="node">
<title>../components/LobbyLogo.tsx</title>
<path fill="none" stroke="#cfffac" d="M368.33,-1445.62C368.33,-1445.62 189.67,-1445.62 189.67,-1445.62 185.83,-1445.62 182,-1441.79 182,-1437.95 182,-1437.95 182,-1430.29 182,-1430.29 182,-1426.45 185.83,-1422.62 189.67,-1422.62 189.67,-1422.62 368.33,-1422.62 368.33,-1422.62 372.17,-1422.62 376,-1426.45 376,-1430.29 376,-1430.29 376,-1437.95 376,-1437.95 376,-1441.79 372.17,-1445.62 368.33,-1445.62"/>
<text text-anchor="middle" x="279" y="-1430.42" font-family="Arial" font-size="14.00" fill="#cfffac">../components/LobbyLogo.tsx</text>
</g>
<!-- ../components/LobbyStatus.tsx -->
<g id="node13" class="node">
<title>../components/LobbyStatus.tsx</title>
<path fill="none" stroke="#c6c5fe" d="M675.33,-669.62C675.33,-669.62 488.67,-669.62 488.67,-669.62 484.83,-669.62 481,-665.79 481,-661.95 481,-661.95 481,-654.29 481,-654.29 481,-650.45 484.83,-646.62 488.67,-646.62 488.67,-646.62 675.33,-646.62 675.33,-646.62 679.17,-646.62 683,-650.45 683,-654.29 683,-654.29 683,-661.95 683,-661.95 683,-665.79 679.17,-669.62 675.33,-669.62"/>
<text text-anchor="middle" x="582" y="-654.42" font-family="Arial" font-size="14.00" fill="#c6c5fe">../components/LobbyStatus.tsx</text>
</g>
<!-- ../components/LobbyStatus.tsx&#45;&gt;../lib/logger.ts -->
<g id="edge6" class="edge">
<title>../components/LobbyStatus.tsx&#45;&gt;../lib/logger.ts</title>
<path fill="none" stroke="#757575" d="M683.04,-662.42C776.86,-666.46 913.85,-672.35 990.53,-675.65"/>
<polygon fill="#757575" stroke="#757575" points="990.8,-679.16 1000.94,-676.1 991.1,-672.17 990.8,-679.16"/>
</g>
<!-- ../lib/roleUtils.ts -->
<g id="node14" class="node">
<title>../lib/roleUtils.ts</title>
<path fill="none" stroke="#c6c5fe" d="M905.33,-985.62C905.33,-985.62 812.67,-985.62 812.67,-985.62 808.83,-985.62 805,-981.79 805,-977.95 805,-977.95 805,-970.29 805,-970.29 805,-966.45 808.83,-962.62 812.67,-962.62 812.67,-962.62 905.33,-962.62 905.33,-962.62 909.17,-962.62 913,-966.45 913,-970.29 913,-970.29 913,-977.95 913,-977.95 913,-981.79 909.17,-985.62 905.33,-985.62"/>
<text text-anchor="middle" x="859" y="-970.42" font-family="Arial" font-size="14.00" fill="#c6c5fe">../lib/roleUtils.ts</text>
</g>
<!-- ../components/LobbyStatus.tsx&#45;&gt;../lib/roleUtils.ts -->
<g id="edge7" class="edge">
<title>../components/LobbyStatus.tsx&#45;&gt;../lib/roleUtils.ts</title>
<path fill="none" stroke="#757575" d="M636.16,-669.71C664.13,-678.47 696.73,-693.37 717,-718.12 762.91,-774.17 716.76,-814.38 753,-877.12 772.35,-910.61 807.06,-939.28 831.25,-956.58"/>
<polygon fill="#757575" stroke="#757575" points="829.44,-959.58 839.64,-962.43 833.44,-953.84 829.44,-959.58"/>
</g>
<!-- ../components/LobbyStatus.tsx&#45;&gt;../lib/supabaseClient.ts -->
<g id="edge8" class="edge">
<title>../components/LobbyStatus.tsx&#45;&gt;../lib/supabaseClient.ts</title>
<path fill="none" stroke="#757575" d="M654.83,-669.67C675.1,-673.57 697.06,-678.42 717,-684.12 753.75,-694.64 794.37,-710.69 822.54,-722.56"/>
<polygon fill="#757575" stroke="#757575" points="821.39,-725.88 831.96,-726.57 824.13,-719.43 821.39,-725.88"/>
</g>
<!-- ../lib/roleUtils.ts&#45;&gt;../lib/types.ts -->
<g id="edge38" class="edge">
<title>../lib/roleUtils.ts&#45;&gt;../lib/types.ts</title>
<path fill="none" stroke="#757575" d="M913.17,-977.81C931.26,-981.36 950.55,-987.98 965,-1000.12 1017.18,-1043.97 1037.7,-1127.07 1044.76,-1166.42"/>
<polygon fill="#757575" stroke="#757575" points="1041.31,-1167 1046.41,-1176.29 1048.21,-1165.85 1041.31,-1167"/>
</g>
<!-- ../components/LogoSelector.tsx -->
<g id="node16" class="node">
<title>../components/LogoSelector.tsx</title>
<path fill="none" stroke="#c6c5fe" d="M677.33,-77.62C677.33,-77.62 486.67,-77.62 486.67,-77.62 482.83,-77.62 479,-73.79 479,-69.95 479,-69.95 479,-62.29 479,-62.29 479,-58.45 482.83,-54.62 486.67,-54.62 486.67,-54.62 677.33,-54.62 677.33,-54.62 681.17,-54.62 685,-58.45 685,-62.29 685,-62.29 685,-69.95 685,-69.95 685,-73.79 681.17,-77.62 677.33,-77.62"/>
<text text-anchor="middle" x="582" y="-62.42" font-family="Arial" font-size="14.00" fill="#c6c5fe">../components/LogoSelector.tsx</text>
</g>
<!-- ../components/LogoSelector.tsx&#45;&gt;../lib/logger.ts -->
<g id="edge10" class="edge">
<title>../components/LogoSelector.tsx&#45;&gt;../lib/logger.ts</title>
<path fill="none" stroke="#757575" d="M607.3,-54.57C673.88,-24.81 861.16,46 965,-45.12 1012.12,-86.47 1040.78,-549.18 1046.81,-656.15"/>
<polygon fill="#757575" stroke="#757575" points="1043.33,-656.59 1047.38,-666.38 1050.32,-656.2 1043.33,-656.59"/>
</g>
<!-- ../components/LogoSelector.tsx&#45;&gt;../components/ChromaLogo.tsx -->
<g id="edge9" class="edge">
<title>../components/LogoSelector.tsx&#45;&gt;../components/ChromaLogo.tsx</title>
<path fill="none" stroke="#757575" d="M685.01,-66.12C704.75,-66.12 725.55,-66.12 745.6,-66.12"/>
<polygon fill="#757575" stroke="#757575" points="745.7,-69.62 755.7,-66.12 745.7,-62.62 745.7,-69.62"/>
</g>
<!-- ../components/LogoSelector.tsx&#45;&gt;../lib/supabaseClient.ts -->
<g id="edge11" class="edge">
<title>../components/LogoSelector.tsx&#45;&gt;../lib/supabaseClient.ts</title>
<path fill="none" stroke="#757575" d="M594.5,-77.76C620.2,-104.38 682.68,-172.71 717,-241.12 719.81,-246.72 825.32,-621.85 851.95,-716.58"/>
<polygon fill="#757575" stroke="#757575" points="848.65,-717.79 854.73,-726.47 855.39,-715.9 848.65,-717.79"/>
</g>
<!-- ../components/OptimizedFlagSelector.tsx -->
<g id="node17" class="node">
<title>../components/OptimizedFlagSelector.tsx</title>
<path fill="none" stroke="#c6c5fe" d="M403.33,-357.62C403.33,-357.62 154.67,-357.62 154.67,-357.62 150.83,-357.62 147,-353.79 147,-349.95 147,-349.95 147,-342.29 147,-342.29 147,-338.45 150.83,-334.62 154.67,-334.62 154.67,-334.62 403.33,-334.62 403.33,-334.62 407.17,-334.62 411,-338.45 411,-342.29 411,-342.29 411,-349.95 411,-349.95 411,-353.79 407.17,-357.62 403.33,-357.62"/>
<text text-anchor="middle" x="279" y="-342.42" font-family="Arial" font-size="14.00" fill="#c6c5fe">../components/OptimizedFlagSelector.tsx</text>
</g>
<!-- ../components/OptimizedFlagSelector.tsx&#45;&gt;../components/Flag.tsx -->
<g id="edge12" class="edge">
<title>../components/OptimizedFlagSelector.tsx&#45;&gt;../components/Flag.tsx</title>
<path fill="none" stroke="#757575" d="M374.39,-334.56C387.13,-330.96 399.69,-326.26 411,-320.12 431.16,-309.17 426.62,-293.66 447,-283.12 461.72,-275.51 478.48,-270.49 495.04,-267.22"/>
<polygon fill="#757575" stroke="#757575" points="496.07,-270.6 505.31,-265.41 494.85,-263.7 496.07,-270.6"/>
</g>
<!-- ../components/ParticipantTile.tsx -->
<g id="node18" class="node">
<title>../components/ParticipantTile.tsx</title>
<path fill="none" stroke="#c6c5fe" d="M957.33,-1369.62C957.33,-1369.62 760.67,-1369.62 760.67,-1369.62 756.83,-1369.62 753,-1365.79 753,-1361.95 753,-1361.95 753,-1354.29 753,-1354.29 753,-1350.45 756.83,-1346.62 760.67,-1346.62 760.67,-1346.62 957.33,-1346.62 957.33,-1346.62 961.17,-1346.62 965,-1350.45 965,-1354.29 965,-1354.29 965,-1361.95 965,-1361.95 965,-1365.79 961.17,-1369.62 957.33,-1369.62"/>
<text text-anchor="middle" x="859" y="-1354.42" font-family="Arial" font-size="14.00" fill="#c6c5fe">../components/ParticipantTile.tsx</text>
</g>
<!-- ../components/ParticipantTile.tsx&#45;&gt;../lib/types/supabase.ts -->
<g id="edge14" class="edge">
<title>../components/ParticipantTile.tsx&#45;&gt;../lib/types/supabase.ts</title>
<path fill="none" stroke="#757575" d="M965.25,-1363.23C1046.21,-1367.57 1160.81,-1374.62 1261,-1384.12 1269.34,-1384.91 1278.02,-1385.83 1286.7,-1386.81"/>
<polygon fill="#757575" stroke="#757575" points="1286.52,-1390.31 1296.85,-1387.98 1287.32,-1383.36 1286.52,-1390.31"/>
</g>
<!-- ../components/ParticipantTile.tsx&#45;&gt;../lib/logger.ts -->
<g id="edge13" class="edge">
<title>../components/ParticipantTile.tsx&#45;&gt;../lib/logger.ts</title>
<path fill="none" stroke="#757575" d="M869.71,-1346.29C890.81,-1319.91 940.88,-1253.49 965,-1189.12 1032.65,-1008.57 1045.2,-771.78 1047.5,-699.8"/>
<polygon fill="#757575" stroke="#757575" points="1051,-699.79 1047.78,-689.69 1044,-699.59 1051,-699.79"/>
</g>
<!-- ../components/PasswordModal.tsx -->
<g id="node19" class="node">
<title>../components/PasswordModal.tsx</title>
<path fill="none" stroke="#cfffac" d="M383.33,-236.62C383.33,-236.62 174.67,-236.62 174.67,-236.62 170.83,-236.62 167,-232.79 167,-228.95 167,-228.95 167,-221.29 167,-221.29 167,-217.45 170.83,-213.62 174.67,-213.62 174.67,-213.62 383.33,-213.62 383.33,-213.62 387.17,-213.62 391,-217.45 391,-221.29 391,-221.29 391,-228.95 391,-228.95 391,-232.79 387.17,-236.62 383.33,-236.62"/>
<text text-anchor="middle" x="279" y="-221.42" font-family="Arial" font-size="14.00" fill="#cfffac">../components/PasswordModal.tsx</text>
</g>
<!-- ../components/ReactBits/AnimatedList.tsx -->
<g id="node20" class="node">
<title>../components/ReactBits/AnimatedList.tsx</title>
<path fill="none" stroke="#cfffac" d="M707.83,-437.62C707.83,-437.62 456.17,-437.62 456.17,-437.62 452.33,-437.62 448.5,-433.79 448.5,-429.95 448.5,-429.95 448.5,-422.29 448.5,-422.29 448.5,-418.45 452.33,-414.62 456.17,-414.62 456.17,-414.62 707.83,-414.62 707.83,-414.62 711.67,-414.62 715.5,-418.45 715.5,-422.29 715.5,-422.29 715.5,-429.95 715.5,-429.95 715.5,-433.79 711.67,-437.62 707.83,-437.62"/>
<text text-anchor="middle" x="582" y="-422.42" font-family="Arial" font-size="14.00" fill="#cfffac">../components/ReactBits/AnimatedList.tsx</text>
</g>
<!-- ../components/ReactBits/Dock.tsx -->
<g id="node21" class="node">
<title>../components/ReactBits/Dock.tsx</title>
<path fill="none" stroke="#cfffac" d="M683.83,-396.62C683.83,-396.62 480.17,-396.62 480.17,-396.62 476.33,-396.62 472.5,-392.79 472.5,-388.95 472.5,-388.95 472.5,-381.29 472.5,-381.29 472.5,-377.45 476.33,-373.62 480.17,-373.62 480.17,-373.62 683.83,-373.62 683.83,-373.62 687.67,-373.62 691.5,-377.45 691.5,-381.29 691.5,-381.29 691.5,-388.95 691.5,-388.95 691.5,-392.79 687.67,-396.62 683.83,-396.62"/>
<text text-anchor="middle" x="582" y="-381.42" font-family="Arial" font-size="14.00" fill="#cfffac">../components/ReactBits/Dock.tsx</text>
</g>
<!-- ../components/ReactBits/PixelCard.tsx -->
<g id="node22" class="node">
<title>../components/ReactBits/PixelCard.tsx</title>
<path fill="none" stroke="#cfffac" d="M697.83,-355.62C697.83,-355.62 466.17,-355.62 466.17,-355.62 462.33,-355.62 458.5,-351.79 458.5,-347.95 458.5,-347.95 458.5,-340.29 458.5,-340.29 458.5,-336.45 462.33,-332.62 466.17,-332.62 466.17,-332.62 697.83,-332.62 697.83,-332.62 701.67,-332.62 705.5,-336.45 705.5,-340.29 705.5,-340.29 705.5,-347.95 705.5,-347.95 705.5,-351.79 701.67,-355.62 697.83,-355.62"/>
<text text-anchor="middle" x="582" y="-340.42" font-family="Arial" font-size="14.00" fill="#cfffac">../components/ReactBits/PixelCard.tsx</text>
</g>
<!-- ../components/ReactBits/SpotlightCard.tsx -->
<g id="node23" class="node">
<title>../components/ReactBits/SpotlightCard.tsx</title>
<path fill="none" stroke="#cfffac" d="M709.33,-314.62C709.33,-314.62 454.67,-314.62 454.67,-314.62 450.83,-314.62 447,-310.79 447,-306.95 447,-306.95 447,-299.29 447,-299.29 447,-295.45 450.83,-291.62 454.67,-291.62 454.67,-291.62 709.33,-291.62 709.33,-291.62 713.17,-291.62 717,-295.45 717,-299.29 717,-299.29 717,-306.95 717,-306.95 717,-310.79 713.17,-314.62 709.33,-314.62"/>
<text text-anchor="middle" x="582" y="-299.42" font-family="Arial" font-size="14.00" fill="#cfffac">../components/ReactBits/SpotlightCard.tsx</text>
</g>
<!-- ../components/ReactBits/index.ts -->
<g id="node24" class="node">
<title>../components/ReactBits/index.ts</title>
<path fill="none" stroke="#c6c5fe" d="M378.33,-437.62C378.33,-437.62 179.67,-437.62 179.67,-437.62 175.83,-437.62 172,-433.79 172,-429.95 172,-429.95 172,-422.29 172,-422.29 172,-418.45 175.83,-414.62 179.67,-414.62 179.67,-414.62 378.33,-414.62 378.33,-414.62 382.17,-414.62 386,-418.45 386,-422.29 386,-422.29 386,-429.95 386,-429.95 386,-433.79 382.17,-437.62 378.33,-437.62"/>
<text text-anchor="middle" x="279" y="-422.42" font-family="Arial" font-size="14.00" fill="#c6c5fe">../components/ReactBits/index.ts</text>
</g>
<!-- ../components/ReactBits/index.ts&#45;&gt;../components/ReactBits/AnimatedList.tsx -->
<g id="edge15" class="edge">
<title>../components/ReactBits/index.ts&#45;&gt;../components/ReactBits/AnimatedList.tsx</title>
<path fill="none" stroke="#757575" d="M386.12,-426.12C402.96,-426.12 420.61,-426.12 438.12,-426.12"/>
<polygon fill="#757575" stroke="#757575" points="438.41,-429.62 448.41,-426.12 438.41,-422.62 438.41,-429.62"/>
</g>
<!-- ../components/ReactBits/index.ts&#45;&gt;../components/ReactBits/Dock.tsx -->
<g id="edge16" class="edge">
<title>../components/ReactBits/index.ts&#45;&gt;../components/ReactBits/Dock.tsx</title>
<path fill="none" stroke="#757575" d="M364.65,-414.59C402.48,-409.44 447.22,-403.34 486.17,-398.04"/>
<polygon fill="#757575" stroke="#757575" points="487.03,-401.45 496.47,-396.63 486.09,-394.52 487.03,-401.45"/>
</g>
<!-- ../components/ReactBits/index.ts&#45;&gt;../components/ReactBits/PixelCard.tsx -->
<g id="edge17" class="edge">
<title>../components/ReactBits/index.ts&#45;&gt;../components/ReactBits/PixelCard.tsx</title>
<path fill="none" stroke="#757575" d="M373.2,-414.55C386.31,-410.96 399.3,-406.27 411,-400.12 430.76,-389.74 427.04,-375.1 447,-365.12 451.56,-362.84 456.3,-360.8 461.17,-358.97"/>
<polygon fill="#757575" stroke="#757575" points="462.34,-362.27 470.66,-355.7 460.06,-355.65 462.34,-362.27"/>
</g>
<!-- ../components/ReactBits/index.ts&#45;&gt;../components/ReactBits/SpotlightCard.tsx -->
<g id="edge18" class="edge">
<title>../components/ReactBits/index.ts&#45;&gt;../components/ReactBits/SpotlightCard.tsx</title>
<path fill="none" stroke="#757575" d="M385.48,-414.54C394.63,-410.83 403.32,-406.11 411,-400.12 440.48,-377.14 417.06,-346.5 447,-324.12 449.15,-322.52 451.36,-321.01 453.65,-319.61"/>
<polygon fill="#757575" stroke="#757575" points="455.64,-322.5 462.74,-314.64 452.29,-316.36 455.64,-322.5"/>
</g>
<!-- ../components/VideoCall.tsx -->
<g id="node25" class="node">
<title>../components/VideoCall.tsx</title>
<path fill="none" stroke="#c6c5fe" d="M363.83,-1293.62C363.83,-1293.62 194.17,-1293.62 194.17,-1293.62 190.33,-1293.62 186.5,-1289.79 186.5,-1285.95 186.5,-1285.95 186.5,-1278.29 186.5,-1278.29 186.5,-1274.45 190.33,-1270.62 194.17,-1270.62 194.17,-1270.62 363.83,-1270.62 363.83,-1270.62 367.67,-1270.62 371.5,-1274.45 371.5,-1278.29 371.5,-1278.29 371.5,-1285.95 371.5,-1285.95 371.5,-1289.79 367.67,-1293.62 363.83,-1293.62"/>
<text text-anchor="middle" x="279" y="-1278.42" font-family="Arial" font-size="14.00" fill="#c6c5fe">../components/VideoCall.tsx</text>
</g>
<!-- ../components/VideoCall.tsx&#45;&gt;../lib/types/supabase.ts -->
<g id="edge24" class="edge">
<title>../components/VideoCall.tsx&#45;&gt;../lib/types/supabase.ts</title>
<path fill="none" stroke="#757575" d="M371.79,-1285.52C385.83,-1289.13 399.46,-1294.7 411,-1303.12 439.58,-1323.97 417.4,-1354.73 447,-1374.12 523.53,-1424.25 766.51,-1398.12 858,-1398.12 858,-1398.12 858,-1398.12 1050,-1398.12 1130.24,-1398.12 1221.7,-1398.12 1286.76,-1398.12"/>
<polygon fill="#757575" stroke="#757575" points="1286.97,-1401.62 1296.97,-1398.12 1286.97,-1394.62 1286.97,-1401.62"/>
</g>
<!-- ../components/VideoCall.tsx&#45;&gt;../lib/logger.ts -->
<g id="edge21" class="edge">
<title>../components/VideoCall.tsx&#45;&gt;../lib/logger.ts</title>
<path fill="none" stroke="#757575" d="M371.58,-1274.04C463.29,-1262.97 606.32,-1237.46 717,-1180.12 736.01,-1170.27 733.87,-1157.73 753,-1148.12 838.98,-1104.91 897.37,-1172.58 965,-1104.12 1022.66,-1045.75 1042.29,-778.38 1046.86,-699.86"/>
<polygon fill="#757575" stroke="#757575" points="1050.36,-699.87 1047.43,-689.69 1043.37,-699.48 1050.36,-699.87"/>
</g>
<!-- ../components/VideoCall.tsx&#45;&gt;../lib/mutations.ts -->
<g id="edge22" class="edge">
<title>../components/VideoCall.tsx&#45;&gt;../lib/mutations.ts</title>
<path fill="none" stroke="#757575" d="M288.21,-1270.18C309.7,-1238.72 368.81,-1150.6 411,-1073.12 429.07,-1039.94 423.28,-1025.53 447,-996.12 476.44,-959.62 521.6,-928.81 551.22,-910.9"/>
<polygon fill="#757575" stroke="#757575" points="553.06,-913.87 559.88,-905.76 549.49,-907.85 553.06,-913.87"/>
</g>
<!-- ../components/VideoCall.tsx&#45;&gt;../components/ControlsBar.tsx -->
<g id="edge19" class="edge">
<title>../components/VideoCall.tsx&#45;&gt;../components/ControlsBar.tsx</title>
<path fill="none" stroke="#757575" d="M371.13,-1293.62C405.3,-1297.94 444.34,-1302.87 479.4,-1307.29"/>
<polygon fill="#757575" stroke="#757575" points="479.3,-1310.81 489.66,-1308.59 480.18,-1303.86 479.3,-1310.81"/>
</g>
<!-- ../components/VideoCall.tsx&#45;&gt;../lib/supabaseClient.ts -->
<g id="edge23" class="edge">
<title>../components/VideoCall.tsx&#45;&gt;../lib/supabaseClient.ts</title>
<path fill="none" stroke="#757575" d="M287.26,-1270.32C316.45,-1223 424.71,-1048.67 447,-1030.12 547.25,-946.68 623.63,-1006.19 717,-915.12 744.62,-888.18 730.46,-867.44 753,-836.12 776.09,-804.03 810.85,-774.11 833.97,-755.97"/>
<polygon fill="#757575" stroke="#757575" points="836.14,-758.72 841.92,-749.84 831.86,-753.17 836.14,-758.72"/>
</g>
<!-- ../components/VideoCall.tsx&#45;&gt;../components/ParticipantTile.tsx -->
<g id="edge20" class="edge">
<title>../components/VideoCall.tsx&#45;&gt;../components/ParticipantTile.tsx</title>
<path fill="none" stroke="#757575" d="M371.64,-1288.94C385.32,-1292.16 398.88,-1296.72 411,-1303.12 431.57,-1313.98 425.82,-1331.49 447,-1341.12 556.32,-1390.84 699.36,-1382.58 784.66,-1371.05"/>
<polygon fill="#757575" stroke="#757575" points="785.35,-1374.49 794.77,-1369.63 784.38,-1367.56 785.35,-1374.49"/>
</g>
<!-- ../lib/dailyTokenManager.ts&#45;&gt;../lib/logger.ts -->
<g id="edge25" class="edge">
<title>../lib/dailyTokenManager.ts&#45;&gt;../lib/logger.ts</title>
<path fill="none" stroke="#757575" d="M938.22,-844.57C947.83,-840.96 957.04,-836.26 965,-830.12 1008.64,-796.47 1032.34,-733.09 1042.28,-699.8"/>
<polygon fill="#757575" stroke="#757575" points="1045.77,-700.33 1045.13,-689.75 1039.03,-698.42 1045.77,-700.33"/>
</g>
<!-- ../lib/dailyTokenManager.ts&#45;&gt;../lib/types.ts -->
<g id="edge26" class="edge">
<title>../lib/dailyTokenManager.ts&#45;&gt;../lib/types.ts</title>
<path fill="none" stroke="#757575" d="M876.91,-867.81C899.87,-884.49 940.8,-917.21 965,-954.12 1011.09,-1024.42 1035.13,-1123.41 1043.96,-1166.58"/>
<polygon fill="#757575" stroke="#757575" points="1040.56,-1167.4 1045.93,-1176.53 1047.42,-1166.04 1040.56,-1167.4"/>
</g>
<!-- ../lib/types/index.ts -->
<g id="node31" class="node">
<title>../lib/types/index.ts</title>
<path fill="none" stroke="#c6c5fe" d="M1253.33,-1255.62C1253.33,-1255.62 1140.67,-1255.62 1140.67,-1255.62 1136.83,-1255.62 1133,-1251.79 1133,-1247.95 1133,-1247.95 1133,-1240.29 1133,-1240.29 1133,-1236.45 1136.83,-1232.62 1140.67,-1232.62 1140.67,-1232.62 1253.33,-1232.62 1253.33,-1232.62 1257.17,-1232.62 1261,-1236.45 1261,-1240.29 1261,-1240.29 1261,-1247.95 1261,-1247.95 1261,-1251.79 1257.17,-1255.62 1253.33,-1255.62"/>
<text text-anchor="middle" x="1197" y="-1240.42" font-family="Arial" font-size="14.00" fill="#c6c5fe">../lib/types/index.ts</text>
</g>
<!-- ../lib/types.ts&#45;&gt;../lib/types/index.ts -->
<g id="edge41" class="edge">
<title>../lib/types.ts&#45;&gt;../lib/types/index.ts</title>
<path fill="none" stroke="#757575" d="M1080.25,-1199.72C1102.27,-1208.17 1132.31,-1219.69 1156.27,-1228.88"/>
<polygon fill="#757575" stroke="#757575" points="1155.2,-1232.22 1165.79,-1232.53 1157.7,-1225.68 1155.2,-1232.22"/>
</g>
<!-- ../lib/presence.ts -->
<g id="node28" class="node">
<title>../lib/presence.ts</title>
<path fill="none" stroke="#c6c5fe" d="M328.83,-751.62C328.83,-751.62 229.17,-751.62 229.17,-751.62 225.33,-751.62 221.5,-747.79 221.5,-743.95 221.5,-743.95 221.5,-736.29 221.5,-736.29 221.5,-732.45 225.33,-728.62 229.17,-728.62 229.17,-728.62 328.83,-728.62 328.83,-728.62 332.67,-728.62 336.5,-732.45 336.5,-736.29 336.5,-736.29 336.5,-743.95 336.5,-743.95 336.5,-747.79 332.67,-751.62 328.83,-751.62"/>
<text text-anchor="middle" x="279" y="-736.42" font-family="Arial" font-size="14.00" fill="#c6c5fe">../lib/presence.ts</text>
</g>
<!-- ../lib/presence.ts&#45;&gt;../lib/logger.ts -->
<g id="edge32" class="edge">
<title>../lib/presence.ts&#45;&gt;../lib/logger.ts</title>
<path fill="none" stroke="#757575" d="M336.67,-743.24C361.69,-741.84 390.1,-736.15 411,-720.12 442.58,-695.9 413.68,-659.88 447,-638.12 535.42,-580.37 858.46,-638.65 990.84,-665.82"/>
<polygon fill="#757575" stroke="#757575" points="990.29,-669.28 1000.79,-667.88 991.7,-662.42 990.29,-669.28"/>
</g>
<!-- ../lib/presence.ts&#45;&gt;../lib/mutations.ts -->
<g id="edge33" class="edge">
<title>../lib/presence.ts&#45;&gt;../lib/mutations.ts</title>
<path fill="none" stroke="#757575" d="M336.77,-740.96C361.53,-743.82 389.69,-750.68 411,-766.12 437.42,-785.27 423.17,-807.83 447,-830.12 471.17,-852.73 504.79,-868.75 532.31,-879.12"/>
<polygon fill="#757575" stroke="#757575" points="531.17,-882.43 541.76,-882.55 533.56,-875.84 531.17,-882.43"/>
</g>
<!-- ../lib/presence.ts&#45;&gt;../lib/supabaseClient.ts -->
<g id="edge34" class="edge">
<title>../lib/presence.ts&#45;&gt;../lib/supabaseClient.ts</title>
<path fill="none" stroke="#757575" d="M336.73,-745.96C360.39,-749.76 387.72,-755.98 411,-766.12 429.1,-774 428.22,-786.05 447,-792.12 561.18,-829.04 603.5,-831.06 717,-792.12 736.17,-785.54 734.76,-772.97 753,-764.12 762.57,-759.47 773.05,-755.61 783.56,-752.41"/>
<polygon fill="#757575" stroke="#757575" points="784.55,-755.77 793.21,-749.66 782.63,-749.04 784.55,-755.77"/>
</g>
<!-- ../lib/realtimeHooks.ts -->
<g id="node29" class="node">
<title>../lib/realtimeHooks.ts</title>
<path fill="none" stroke="#c6c5fe" d="M647.33,-1061.62C647.33,-1061.62 516.67,-1061.62 516.67,-1061.62 512.83,-1061.62 509,-1057.79 509,-1053.95 509,-1053.95 509,-1046.29 509,-1046.29 509,-1042.45 512.83,-1038.62 516.67,-1038.62 516.67,-1038.62 647.33,-1038.62 647.33,-1038.62 651.17,-1038.62 655,-1042.45 655,-1046.29 655,-1046.29 655,-1053.95 655,-1053.95 655,-1057.79 651.17,-1061.62 647.33,-1061.62"/>
<text text-anchor="middle" x="582" y="-1046.42" font-family="Arial" font-size="14.00" fill="#c6c5fe">../lib/realtimeHooks.ts</text>
</g>
<!-- ../lib/realtimeHooks.ts&#45;&gt;../lib/logger.ts -->
<g id="edge35" class="edge">
<title>../lib/realtimeHooks.ts&#45;&gt;../lib/logger.ts</title>
<path fill="none" stroke="#757575" d="M655.01,-1048.07C676.62,-1044.47 699.28,-1037.42 717,-1024.12 744.98,-1003.12 725.15,-975.3 753,-954.12 829.59,-895.87 892.4,-973.28 965,-910.12 1028.96,-854.48 1043.63,-745.97 1047,-699.78"/>
<polygon fill="#757575" stroke="#757575" points="1050.5,-699.88 1047.62,-689.69 1043.51,-699.45 1050.5,-699.88"/>
</g>
<!-- ../lib/realtimeHooks.ts&#45;&gt;../lib/supabaseClient.ts -->
<g id="edge36" class="edge">
<title>../lib/realtimeHooks.ts&#45;&gt;../lib/supabaseClient.ts</title>
<path fill="none" stroke="#757575" d="M655.08,-1051.32C677.6,-1048.07 700.77,-1040.39 717,-1024.12 777.08,-963.89 711.88,-910.59 753,-836.12 771.79,-802.1 806.62,-773.18 830.99,-755.76"/>
<polygon fill="#757575" stroke="#757575" points="833.24,-758.46 839.45,-749.87 829.24,-752.71 833.24,-758.46"/>
</g>
<!-- ../lib/realtimeHooks.ts&#45;&gt;../lib/types.ts -->
<g id="edge37" class="edge">
<title>../lib/realtimeHooks.ts&#45;&gt;../lib/types.ts</title>
<path fill="none" stroke="#757575" d="M648.69,-1061.63C670.51,-1065.78 694.89,-1070.78 717,-1076.12 828.56,-1103.08 857.82,-1107.06 965,-1148.12 982.81,-1154.94 1002.04,-1164.09 1017.5,-1171.91"/>
<polygon fill="#757575" stroke="#757575" points="1016.1,-1175.13 1026.59,-1176.58 1019.29,-1168.9 1016.1,-1175.13"/>
</g>
<!-- ../lib/sessionHooks.ts -->
<g id="node30" class="node">
<title>../lib/sessionHooks.ts</title>
<path fill="none" stroke="#c6c5fe" d="M645.83,-749.62C645.83,-749.62 518.17,-749.62 518.17,-749.62 514.33,-749.62 510.5,-745.79 510.5,-741.95 510.5,-741.95 510.5,-734.29 510.5,-734.29 510.5,-730.45 514.33,-726.62 518.17,-726.62 518.17,-726.62 645.83,-726.62 645.83,-726.62 649.67,-726.62 653.5,-730.45 653.5,-734.29 653.5,-734.29 653.5,-741.95 653.5,-741.95 653.5,-745.79 649.67,-749.62 645.83,-749.62"/>
<text text-anchor="middle" x="582" y="-734.42" font-family="Arial" font-size="14.00" fill="#c6c5fe">../lib/sessionHooks.ts</text>
</g>
<!-- ../lib/sessionHooks.ts&#45;&gt;../lib/logger.ts -->
<g id="edge39" class="edge">
<title>../lib/sessionHooks.ts&#45;&gt;../lib/logger.ts</title>
<path fill="none" stroke="#757575" d="M653.62,-729.01C745.91,-717.1 905.75,-696.48 990.84,-685.5"/>
<polygon fill="#757575" stroke="#757575" points="991.36,-688.96 1000.83,-684.21 990.47,-682.02 991.36,-688.96"/>
</g>
<!-- ../lib/sessionHooks.ts&#45;&gt;../lib/supabaseClient.ts -->
<g id="edge40" class="edge">
<title>../lib/sessionHooks.ts&#45;&gt;../lib/supabaseClient.ts</title>
<path fill="none" stroke="#757575" d="M653.82,-738.12C690.05,-738.12 734.43,-738.12 772.55,-738.12"/>
<polygon fill="#757575" stroke="#757575" points="772.61,-741.62 782.61,-738.12 772.6,-734.62 772.61,-741.62"/>
</g>
<!-- ../lib/types/index.ts&#45;&gt;../lib/types/supabase.ts -->
<g id="edge42" class="edge">
<title>../lib/types/index.ts&#45;&gt;../lib/types/supabase.ts</title>
<path fill="none" stroke="#757575" d="M1211.15,-1255.7C1241.3,-1282.23 1315.61,-1347.62 1352.1,-1379.73"/>
<polygon fill="#757575" stroke="#757575" points="1349.87,-1382.43 1359.69,-1386.41 1354.5,-1377.18 1349.87,-1382.43"/>
</g>
<!-- ../lib/useSessionData.ts -->
<g id="node32" class="node">
<title>../lib/useSessionData.ts</title>
<path fill="none" stroke="#c6c5fe" d="M350.33,-983.62C350.33,-983.62 207.67,-983.62 207.67,-983.62 203.83,-983.62 200,-979.79 200,-975.95 200,-975.95 200,-968.29 200,-968.29 200,-964.45 203.83,-960.62 207.67,-960.62 207.67,-960.62 350.33,-960.62 350.33,-960.62 354.17,-960.62 358,-964.45 358,-968.29 358,-968.29 358,-975.95 358,-975.95 358,-979.79 354.17,-983.62 350.33,-983.62"/>
<text text-anchor="middle" x="279" y="-968.42" font-family="Arial" font-size="14.00" fill="#c6c5fe">../lib/useSessionData.ts</text>
</g>
<!-- ../lib/useSessionData.ts&#45;&gt;../lib/logger.ts -->
<g id="edge43" class="edge">
<title>../lib/useSessionData.ts&#45;&gt;../lib/logger.ts</title>
<path fill="none" stroke="#757575" d="M358.42,-963.88C480.29,-950.79 702.75,-925.65 717,-915.12 748.03,-892.19 722.74,-860.06 753,-836.12 828.32,-776.52 884.27,-846.17 965,-794.12 1001.17,-770.8 1026.48,-725.68 1039.01,-699.11"/>
<polygon fill="#757575" stroke="#757575" points="1042.24,-700.47 1043.18,-689.92 1035.86,-697.58 1042.24,-700.47"/>
</g>
<!-- ../lib/useSessionData.ts&#45;&gt;../lib/mutations.ts -->
<g id="edge44" class="edge">
<title>../lib/useSessionData.ts&#45;&gt;../lib/mutations.ts</title>
<path fill="none" stroke="#757575" d="M358.22,-962.29C376.02,-958.51 394.52,-953.3 411,-946.12 429.1,-938.24 428.89,-927.96 447,-920.12 467.37,-911.3 490.77,-905.46 512.26,-901.59"/>
<polygon fill="#757575" stroke="#757575" points="513.03,-905.01 522.31,-899.89 511.86,-898.11 513.03,-905.01"/>
</g>
<!-- ../lib/userSession.ts -->
<g id="node33" class="node">
<title>../lib/userSession.ts</title>
<path fill="none" stroke="#c6c5fe" d="M918.33,-1179.62C918.33,-1179.62 799.67,-1179.62 799.67,-1179.62 795.83,-1179.62 792,-1175.79 792,-1171.95 792,-1171.95 792,-1164.29 792,-1164.29 792,-1160.45 795.83,-1156.62 799.67,-1156.62 799.67,-1156.62 918.33,-1156.62 918.33,-1156.62 922.17,-1156.62 926,-1160.45 926,-1164.29 926,-1164.29 926,-1171.95 926,-1171.95 926,-1175.79 922.17,-1179.62 918.33,-1179.62"/>
<text text-anchor="middle" x="859" y="-1164.42" font-family="Arial" font-size="14.00" fill="#c6c5fe">../lib/userSession.ts</text>
</g>
<!-- ../lib/userSession.ts&#45;&gt;../lib/logger.ts -->
<g id="edge45" class="edge">
<title>../lib/userSession.ts&#45;&gt;../lib/logger.ts</title>
<path fill="none" stroke="#757575" d="M926.09,-1163.7C940.63,-1159.74 954.73,-1153.09 965,-1142.12 1026.36,-1076.59 1043.51,-782.53 1047.16,-699.83"/>
<polygon fill="#757575" stroke="#757575" points="1050.66,-699.94 1047.58,-689.8 1043.66,-699.65 1050.66,-699.94"/>
</g>
<!-- ../lib/userSession.ts&#45;&gt;../lib/types.ts -->
<g id="edge46" class="edge">
<title>../lib/userSession.ts&#45;&gt;../lib/types.ts</title>
<path fill="none" stroke="#757575" d="M926.02,-1175.14C947.84,-1177.47 971.87,-1180.02 992.8,-1182.25"/>
<polygon fill="#757575" stroke="#757575" points="992.48,-1185.73 1002.8,-1183.31 993.22,-1178.77 992.48,-1185.73"/>
</g>
<!-- GameSetup.tsx -->
<g id="node34" class="node">
<title>GameSetup.tsx</title>
<path fill="none" stroke="#c6c5fe" d="M103.33,-751.62C103.33,-751.62 7.67,-751.62 7.67,-751.62 3.83,-751.62 0,-747.79 0,-743.95 0,-743.95 0,-736.29 0,-736.29 0,-732.45 3.83,-728.62 7.67,-728.62 7.67,-728.62 103.33,-728.62 103.33,-728.62 107.17,-728.62 111,-732.45 111,-736.29 111,-736.29 111,-743.95 111,-743.95 111,-747.79 107.17,-751.62 103.33,-751.62"/>
<text text-anchor="middle" x="55.5" y="-736.42" font-family="Arial" font-size="14.00" fill="#c6c5fe">GameSetup.tsx</text>
</g>
<!-- GameSetup.tsx&#45;&gt;../atoms/index.ts -->
<g id="edge47" class="edge">
<title>GameSetup.tsx&#45;&gt;../atoms/index.ts</title>
<path fill="none" stroke="#757575" d="M57.57,-751.95C64.68,-829.44 106.06,-1262.51 147,-1303.12 163.65,-1319.64 187.8,-1326.17 210.85,-1328.05"/>
<polygon fill="#757575" stroke="#757575" points="210.8,-1331.56 220.98,-1328.6 211.18,-1324.57 210.8,-1331.56"/>
</g>
<!-- GameSetup.tsx&#45;&gt;../lib/logger.ts -->
<g id="edge50" class="edge">
<title>GameSetup.tsx&#45;&gt;../lib/logger.ts</title>
<path fill="none" stroke="#757575" d="M58.78,-728.61C65.66,-697.22 89.42,-609.97 147,-572.12 258.83,-498.6 313.29,-551.9 447,-546.12 677.01,-536.17 763.52,-435.73 965,-547.12 1007.58,-570.66 1031.4,-626.23 1041.73,-656.89"/>
<polygon fill="#757575" stroke="#757575" points="1038.46,-658.14 1044.83,-666.61 1045.13,-656.01 1038.46,-658.14"/>
</g>
<!-- GameSetup.tsx&#45;&gt;../lib/mutations.ts -->
<g id="edge51" class="edge">
<title>GameSetup.tsx&#45;&gt;../lib/mutations.ts</title>
<path fill="none" stroke="#757575" d="M58.61,-751.9C65.07,-783.97 87.84,-872.79 147,-908.12 206.72,-943.79 405.88,-920.75 512.4,-905.12"/>
<polygon fill="#757575" stroke="#757575" points="513.04,-908.56 522.41,-903.63 512.01,-901.64 513.04,-908.56"/>
</g>
<!-- GameSetup.tsx&#45;&gt;../components/Alert.tsx -->
<g id="edge48" class="edge">
<title>GameSetup.tsx&#45;&gt;../components/Alert.tsx</title>
<path fill="none" stroke="#757575" d="M59.06,-728.24C73.61,-660.72 145.34,-328.18 147,-326.12 164.68,-304.19 192.15,-289.94 217.38,-280.86"/>
<polygon fill="#757575" stroke="#757575" points="218.57,-284.15 226.92,-277.63 216.32,-277.52 218.57,-284.15"/>
</g>
<!-- GameSetup.tsx&#45;&gt;../components/LobbyStatus.tsx -->
<g id="edge49" class="edge">
<title>GameSetup.tsx&#45;&gt;../components/LobbyStatus.tsx</title>
<path fill="none" stroke="#757575" d="M60.23,-728.39C69.62,-701.06 97.13,-633.5 147,-607.12 281.77,-535.81 472.42,-607.9 548.15,-642.18"/>
<polygon fill="#757575" stroke="#757575" points="547.09,-645.55 557.64,-646.56 550.02,-639.19 547.09,-645.55"/>
</g>
<!-- GameSetup.tsx&#45;&gt;../lib/supabaseClient.ts -->
<g id="edge53" class="edge">
<title>GameSetup.tsx&#45;&gt;../lib/supabaseClient.ts</title>
<path fill="none" stroke="#757575" d="M63.97,-728.39C77.58,-708.24 108.62,-667.7 147,-652.12 255.71,-607.98 299.69,-615.02 411,-652.12 429.97,-658.45 428.53,-671.46 447,-679.12 448.88,-679.9 652.82,-708.97 772.67,-726"/>
<polygon fill="#757575" stroke="#757575" points="772.18,-729.47 782.57,-727.41 773.17,-722.54 772.18,-729.47"/>
</g>
<!-- GameSetup.tsx&#45;&gt;../lib/types.ts -->
<g id="edge54" class="edge">
<title>GameSetup.tsx&#45;&gt;../lib/types.ts</title>
<path fill="none" stroke="#757575" d="M56.86,-751.91C59.2,-819.18 74.39,-1153.61 147,-1218.12 181.02,-1248.35 922.37,-1276.03 965,-1260.12 992.95,-1249.69 1017.73,-1225.13 1032.78,-1207.6"/>
<polygon fill="#757575" stroke="#757575" points="1035.68,-1209.58 1039.36,-1199.65 1030.29,-1205.12 1035.68,-1209.58"/>
</g>
<!-- GameSetup.tsx&#45;&gt;../lib/presence.ts -->
<g id="edge52" class="edge">
<title>GameSetup.tsx&#45;&gt;../lib/presence.ts</title>
<path fill="none" stroke="#757575" d="M111.25,-740.12C141.42,-740.12 179.12,-740.12 211.03,-740.12"/>
<polygon fill="#757575" stroke="#757575" points="211.18,-743.62 221.18,-740.12 211.18,-736.62 211.18,-743.62"/>
</g>
<!-- GameSetup.tsx&#45;&gt;../lib/useSessionData.ts -->
<g id="edge55" class="edge">
<title>GameSetup.tsx&#45;&gt;../lib/useSessionData.ts</title>
<path fill="none" stroke="#757575" d="M57.88,-751.69C62.74,-787.03 82.42,-894.28 147,-946.12 159.43,-956.1 174.63,-962.59 190.21,-966.75"/>
<polygon fill="#757575" stroke="#757575" points="189.41,-970.16 199.94,-969.05 191.02,-963.35 189.41,-970.16"/>
</g>
<!-- Homepage.tsx -->
<g id="node35" class="node">
<title>Homepage.tsx</title>
<path fill="none" stroke="#c6c5fe" d="M99.83,-277.62C99.83,-277.62 11.17,-277.62 11.17,-277.62 7.33,-277.62 3.5,-273.79 3.5,-269.95 3.5,-269.95 3.5,-262.29 3.5,-262.29 3.5,-258.45 7.33,-254.62 11.17,-254.62 11.17,-254.62 99.83,-254.62 99.83,-254.62 103.67,-254.62 107.5,-258.45 107.5,-262.29 107.5,-262.29 107.5,-269.95 107.5,-269.95 107.5,-273.79 103.67,-277.62 99.83,-277.62"/>
<text text-anchor="middle" x="55.5" y="-262.42" font-family="Arial" font-size="14.00" fill="#c6c5fe">Homepage.tsx</text>
</g>
<!-- Homepage.tsx&#45;&gt;../components/ActiveGames.tsx -->
<g id="edge56" class="edge">
<title>Homepage.tsx&#45;&gt;../components/ActiveGames.tsx</title>
<path fill="none" stroke="#757575" d="M58.53,-277.81C64.88,-310.61 87.64,-403.9 147,-447.12 152.56,-451.17 158.61,-454.55 164.96,-457.35"/>
<polygon fill="#757575" stroke="#757575" points="163.86,-460.68 174.45,-461.06 166.41,-454.16 163.86,-460.68"/>
</g>
<!-- Homepage.tsx&#45;&gt;../lib/logger.ts -->
<g id="edge59" class="edge">
<title>Homepage.tsx&#45;&gt;../lib/logger.ts</title>
<path fill="none" stroke="#757575" d="M66.88,-254.31C90.65,-227.25 147,-163.12 147,-163.12 321.79,-83.99 916.98,-196.28 965,-242.12 1025.69,-300.06 1043.19,-574.97 1047.06,-655.75"/>
<polygon fill="#757575" stroke="#757575" points="1043.59,-656.38 1047.54,-666.21 1050.58,-656.06 1043.59,-656.38"/>
</g>
<!-- Homepage.tsx&#45;&gt;../lib/mutations.ts -->
<g id="edge60" class="edge">
<title>Homepage.tsx&#45;&gt;../lib/mutations.ts</title>
<path fill="none" stroke="#757575" d="M60.86,-277.78C71.31,-306.26 97.9,-381.8 111,-447.12 126.24,-523.13 93.28,-738.23 147,-794.12 188.07,-836.85 353.52,-817.67 411,-832.12 458.56,-844.08 511.32,-864.5 545.26,-878.63"/>
<polygon fill="#757575" stroke="#757575" points="544.17,-881.96 554.74,-882.61 546.88,-875.51 544.17,-881.96"/>
</g>
<!-- Homepage.tsx&#45;&gt;../components/Alert.tsx -->
<g id="edge57" class="edge">
<title>Homepage.tsx&#45;&gt;../components/Alert.tsx</title>
<path fill="none" stroke="#757575" d="M107.59,-266.12C132.29,-266.12 162.62,-266.12 190.81,-266.12"/>
<polygon fill="#757575" stroke="#757575" points="191.09,-269.62 201.09,-266.12 191.09,-262.62 191.09,-269.62"/>
</g>
<!-- Homepage.tsx&#45;&gt;../components/PasswordModal.tsx -->
<g id="edge58" class="edge">
<title>Homepage.tsx&#45;&gt;../components/PasswordModal.tsx</title>
<path fill="none" stroke="#757575" d="M103.33,-254.54C117.33,-251.27 132.74,-247.86 147,-245.12 159.6,-242.7 172.93,-240.38 186.08,-238.24"/>
<polygon fill="#757575" stroke="#757575" points="186.75,-241.68 196.07,-236.64 185.65,-234.77 186.75,-241.68"/>
</g>
<!-- Join.backup.tsx -->
<g id="node36" class="node">
<title>Join.backup.tsx</title>
<path fill="none" stroke="#c6c5fe" d="M102.83,-195.62C102.83,-195.62 8.17,-195.62 8.17,-195.62 4.33,-195.62 0.5,-191.79 0.5,-187.95 0.5,-187.95 0.5,-180.29 0.5,-180.29 0.5,-176.45 4.33,-172.62 8.17,-172.62 8.17,-172.62 102.83,-172.62 102.83,-172.62 106.67,-172.62 110.5,-176.45 110.5,-180.29 110.5,-180.29 110.5,-187.95 110.5,-187.95 110.5,-191.79 106.67,-195.62 102.83,-195.62"/>
<text text-anchor="middle" x="55.5" y="-180.42" font-family="Arial" font-size="14.00" fill="#c6c5fe">Join.backup.tsx</text>
</g>
<!-- Join.backup.tsx&#45;&gt;../lib/logger.ts -->
<g id="edge64" class="edge">
<title>Join.backup.tsx&#45;&gt;../lib/logger.ts</title>
<path fill="none" stroke="#757575" d="M71.11,-172.46C88.16,-159.67 117.76,-139.92 147,-132.12 322.91,-85.18 836.47,-49.17 965,-178.12 1033.59,-246.93 1045.61,-569.06 1047.61,-656.29"/>
<polygon fill="#757575" stroke="#757575" points="1044.12,-656.44 1047.82,-666.36 1051.11,-656.29 1044.12,-656.44"/>
</g>
<!-- Join.backup.tsx&#45;&gt;../lib/mutations.ts -->
<g id="edge65" class="edge">
<title>Join.backup.tsx&#45;&gt;../lib/mutations.ts</title>
<path fill="none" stroke="#757575" d="M71.26,-195.64C84.27,-206.76 102.44,-224.84 111,-245.12 155.7,-351.02 67.97,-677.65 147,-761.12 187.65,-804.05 355.98,-772.47 411,-794.12 429.37,-801.35 430.33,-809.55 447,-820.12 480.73,-841.5 521.04,-863.28 548.57,-877.62"/>
<polygon fill="#757575" stroke="#757575" points="547.26,-880.89 557.75,-882.37 550.48,-874.67 547.26,-880.89"/>
</g>
<!-- Join.backup.tsx&#45;&gt;../components/Alert.tsx -->
<g id="edge61" class="edge">
<title>Join.backup.tsx&#45;&gt;../components/Alert.tsx</title>
<path fill="none" stroke="#757575" d="M69.55,-195.65C86.25,-209.73 116.69,-233.15 147,-245.12 160.97,-250.64 176.33,-254.71 191.45,-257.71"/>
<polygon fill="#757575" stroke="#757575" points="190.87,-261.16 201.34,-259.53 192.14,-254.27 190.87,-261.16"/>
</g>
<!-- Join.backup.tsx&#45;&gt;../components/FlagSelector.tsx -->
<g id="edge62" class="edge">
<title>Join.backup.tsx&#45;&gt;../components/FlagSelector.tsx</title>
<path fill="none" stroke="#757575" d="M110.68,-184.12C128,-184.12 147.83,-184.12 167.64,-184.12"/>
<polygon fill="#757575" stroke="#757575" points="167.67,-187.62 177.67,-184.12 167.67,-180.62 167.67,-187.62"/>
</g>
<!-- Join.backup.tsx&#45;&gt;../components/LogoSelector.tsx -->
<g id="edge63" class="edge">
<title>Join.backup.tsx&#45;&gt;../components/LogoSelector.tsx</title>
<path fill="none" stroke="#757575" d="M63.72,-172.44C77.17,-151.88 108.25,-109.74 147,-92.12 258.27,-41.53 402.42,-44.54 493.33,-53.58"/>
<polygon fill="#757575" stroke="#757575" points="493.02,-57.07 503.33,-54.62 493.75,-50.1 493.02,-57.07"/>
</g>
<!-- Join.tsx -->
<g id="node37" class="node">
<title>Join.tsx</title>
<path fill="none" stroke="#c6c5fe" d="M78.83,-478.62C78.83,-478.62 32.17,-478.62 32.17,-478.62 28.33,-478.62 24.5,-474.79 24.5,-470.95 24.5,-470.95 24.5,-463.29 24.5,-463.29 24.5,-459.45 28.33,-455.62 32.17,-455.62 32.17,-455.62 78.83,-455.62 78.83,-455.62 82.67,-455.62 86.5,-459.45 86.5,-463.29 86.5,-463.29 86.5,-470.95 86.5,-470.95 86.5,-474.79 82.67,-478.62 78.83,-478.62"/>
<text text-anchor="middle" x="55.5" y="-463.42" font-family="Arial" font-size="14.00" fill="#c6c5fe">Join.tsx</text>
</g>
<!-- Join.tsx&#45;&gt;../lib/logger.ts -->
<g id="edge69" class="edge">
<title>Join.tsx&#45;&gt;../lib/logger.ts</title>
<path fill="none" stroke="#757575" d="M60.15,-455.61C69.55,-428.05 97.4,-358.15 147,-326.12 246.64,-261.78 308.47,-346.74 411,-287.12 433.44,-274.07 423.66,-252.49 447,-241.12 554.88,-188.56 598.56,-221.83 717,-241.12 831.72,-259.81 886.71,-238.21 965,-324.12 1010.41,-373.95 1037.83,-587.09 1045.66,-656.31"/>
<polygon fill="#757575" stroke="#757575" points="1042.21,-656.93 1046.79,-666.48 1049.17,-656.16 1042.21,-656.93"/>
</g>
<!-- Join.tsx&#45;&gt;../lib/mutations.ts -->
<g id="edge70" class="edge">
<title>Join.tsx&#45;&gt;../lib/mutations.ts</title>
<path fill="none" stroke="#757575" d="M59.02,-478.82C72.19,-539.87 133.19,-819.65 147,-832.12 199.31,-879.39 403.22,-890.72 511.9,-893.36"/>
<polygon fill="#757575" stroke="#757575" points="512.04,-896.87 522.12,-893.59 512.2,-889.87 512.04,-896.87"/>
</g>
<!-- Join.tsx&#45;&gt;../components/Alert.tsx -->
<g id="edge66" class="edge">
<title>Join.tsx&#45;&gt;../components/Alert.tsx</title>
<path fill="none" stroke="#757575" d="M58.85,-455.48C65.93,-423.68 90.14,-334.88 147,-292.12 159.97,-282.37 175.63,-276.01 191.56,-271.91"/>
<polygon fill="#757575" stroke="#757575" points="192.51,-275.28 201.48,-269.64 190.95,-268.46 192.51,-275.28"/>
</g>
<!-- Join.tsx&#45;&gt;../lib/supabaseClient.ts -->
<g id="edge71" class="edge">
<title>Join.tsx&#45;&gt;../lib/supabaseClient.ts</title>
<path fill="none" stroke="#757575" d="M86.83,-474.29C208.53,-503.14 657.65,-610.54 717,-638.12 763.66,-659.81 811.06,-697.3 837.28,-719.7"/>
<polygon fill="#757575" stroke="#757575" points="835.18,-722.5 845.03,-726.4 839.76,-717.21 835.18,-722.5"/>
</g>
<!-- Join.tsx&#45;&gt;../components/OptimizedFlagSelector.tsx -->
<g id="edge67" class="edge">
<title>Join.tsx&#45;&gt;../components/OptimizedFlagSelector.tsx</title>
<path fill="none" stroke="#757575" d="M63.88,-455.59C77.59,-435.2 109.08,-392.98 147,-372.12 155.29,-367.56 164.27,-363.79 173.51,-360.68"/>
<polygon fill="#757575" stroke="#757575" points="174.69,-363.98 183.21,-357.67 172.62,-357.29 174.69,-363.98"/>
</g>
<!-- Join.tsx&#45;&gt;../components/ReactBits/index.ts -->
<g id="edge68" class="edge">
<title>Join.tsx&#45;&gt;../components/ReactBits/index.ts</title>
<path fill="none" stroke="#757575" d="M86.58,-460.01C104.14,-455.97 126.77,-450.97 147,-447.12 161.25,-444.41 176.41,-441.76 191.18,-439.3"/>
<polygon fill="#757575" stroke="#757575" points="192.02,-442.71 201.32,-437.64 190.89,-435.81 192.02,-442.71"/>
</g>
<!-- Join.tsx&#45;&gt;../lib/types.ts -->
<g id="edge72" class="edge">
<title>Join.tsx&#45;&gt;../lib/types.ts</title>
<path fill="none" stroke="#757575" d="M59.51,-478.63C68.72,-514.24 96.74,-625.94 111,-720.12 117.78,-764.9 115.67,-1093.42 147,-1126.12 240.97,-1224.2 617.46,-1197.21 753,-1206.12 847.02,-1212.3 871.31,-1216.16 965,-1206.12 974.15,-1205.14 983.77,-1203.57 993.1,-1201.75"/>
<polygon fill="#757575" stroke="#757575" points="993.97,-1205.14 1003.05,-1199.7 992.55,-1198.29 993.97,-1205.14"/>
</g>
<!-- Join.tsx&#45;&gt;../lib/userSession.ts -->
<g id="edge73" class="edge">
<title>Join.tsx&#45;&gt;../lib/userSession.ts</title>
<path fill="none" stroke="#757575" d="M59.46,-478.64C68.51,-514.27 96.12,-626.04 111,-720.12 123.32,-798 92.12,-1016.5 147,-1073.12 233.44,-1162.3 616.76,-1170.18 781.9,-1169.32"/>
<polygon fill="#757575" stroke="#757575" points="782,-1172.82 791.98,-1169.25 781.95,-1165.82 782,-1172.82"/>
</g>
<!-- Lobby.tsx -->
<g id="node38" class="node">
<title>Lobby.tsx</title>
<path fill="none" stroke="#c6c5fe" d="M84.83,-1235.62C84.83,-1235.62 26.17,-1235.62 26.17,-1235.62 22.33,-1235.62 18.5,-1231.79 18.5,-1227.95 18.5,-1227.95 18.5,-1220.29 18.5,-1220.29 18.5,-1216.45 22.33,-1212.62 26.17,-1212.62 26.17,-1212.62 84.83,-1212.62 84.83,-1212.62 88.67,-1212.62 92.5,-1216.45 92.5,-1220.29 92.5,-1220.29 92.5,-1227.95 92.5,-1227.95 92.5,-1231.79 88.67,-1235.62 84.83,-1235.62"/>
<text text-anchor="middle" x="55.5" y="-1220.42" font-family="Arial" font-size="14.00" fill="#c6c5fe">Lobby.tsx</text>
</g>
<!-- Lobby.tsx&#45;&gt;../atoms/index.ts -->
<g id="edge74" class="edge">
<title>Lobby.tsx&#45;&gt;../atoms/index.ts</title>
<path fill="none" stroke="#757575" d="M65.93,-1235.81C81.01,-1253.59 112.38,-1287.05 147,-1303.12 166.64,-1312.24 189.54,-1317.35 210.65,-1320.18"/>
<polygon fill="#757575" stroke="#757575" points="210.51,-1323.69 220.85,-1321.39 211.33,-1316.73 210.51,-1323.69"/>
</g>
<!-- Lobby.tsx&#45;&gt;../lib/types/supabase.ts -->
<g id="edge83" class="edge">
<title>Lobby.tsx&#45;&gt;../lib/types/supabase.ts</title>
<path fill="none" stroke="#757575" d="M56.61,-1235.77C57.67,-1277.11 67.23,-1417.83 147,-1484.12 297.05,-1608.82 385.89,-1550.12 581,-1550.12 581,-1550.12 581,-1550.12 1050,-1550.12 1147.02,-1550.12 1175.12,-1539.27 1261,-1494.12 1299.16,-1474.06 1335.56,-1438.88 1356.02,-1417.13"/>
<polygon fill="#757575" stroke="#757575" points="1358.59,-1419.5 1362.8,-1409.78 1353.45,-1414.75 1358.59,-1419.5"/>
</g>
<!-- Lobby.tsx&#45;&gt;../lib/logger.ts -->
<g id="edge78" class="edge">
<title>Lobby.tsx&#45;&gt;../lib/logger.ts</title>
<path fill="none" stroke="#757575" d="M92.66,-1220.09C245.92,-1202.28 839.71,-1125.69 965,-995.12 1006.52,-951.85 1035.95,-764.83 1045.04,-700.19"/>
<polygon fill="#757575" stroke="#757575" points="1048.56,-700.32 1046.45,-689.93 1041.62,-699.36 1048.56,-700.32"/>
</g>
<!-- Lobby.tsx&#45;&gt;../lib/mutations.ts -->
<g id="edge79" class="edge">
<title>Lobby.tsx&#45;&gt;../lib/mutations.ts</title>
<path fill="none" stroke="#757575" d="M58.2,-1212.22C63.77,-1177.89 84.86,-1078.24 147,-1032.12 242.24,-961.43 304.67,-1045.67 411,-993.12 431.01,-983.23 428.69,-970.88 447,-958.12 476.14,-937.82 512.72,-920.84 540.3,-909.48"/>
<polygon fill="#757575" stroke="#757575" points="541.69,-912.69 549.65,-905.7 539.07,-906.2 541.69,-912.69"/>
</g>
<!-- Lobby.tsx&#45;&gt;../components/Flag.tsx -->
<g id="edge75" class="edge">
<title>Lobby.tsx&#45;&gt;../components/Flag.tsx</title>
<path fill="none" stroke="#757575" d="M57.96,-1212.32C64.46,-1159.68 91.3,-940.94 111,-761.12 119.64,-682.3 92.22,-463.45 147,-406.12 228.93,-320.36 317.03,-439.49 411,-367.12 443.18,-342.34 414.93,-308.05 447,-283.12 460.83,-272.37 477.94,-266.09 495.26,-262.6"/>
<polygon fill="#757575" stroke="#757575" points="496.19,-265.99 505.45,-260.85 495,-259.09 496.19,-265.99"/>
</g>
<!-- Lobby.tsx&#45;&gt;../components/LobbyLogo.tsx -->
<g id="edge76" class="edge">
<title>Lobby.tsx&#45;&gt;../components/LobbyLogo.tsx</title>
<path fill="none" stroke="#757575" d="M58.56,-1235.87C65.01,-1268.84 87.99,-1362.81 147,-1408.12 154.64,-1413.99 163.26,-1418.64 172.33,-1422.31"/>
<polygon fill="#757575" stroke="#757575" points="171.33,-1425.67 181.92,-1425.79 173.71,-1419.09 171.33,-1425.67"/>
</g>
<!-- Lobby.tsx&#45;&gt;../lib/supabaseClient.ts -->
<g id="edge81" class="edge">
<title>Lobby.tsx&#45;&gt;../lib/supabaseClient.ts</title>
<path fill="none" stroke="#757575" d="M56.66,-1212.53C57.9,-1170.7 67.95,-1026.06 147,-952.12 247.62,-858.01 312.73,-904.98 447,-874.12 566.27,-846.71 618.2,-892.34 717,-820.12 743.66,-800.63 725.98,-774.11 753,-755.12 759.13,-750.81 765.95,-747.44 773.09,-744.82"/>
<polygon fill="#757575" stroke="#757575" points="774.51,-748.04 783,-741.7 772.41,-741.37 774.51,-748.04"/>
</g>
<!-- Lobby.tsx&#45;&gt;../components/VideoCall.tsx -->
<g id="edge77" class="edge">
<title>Lobby.tsx&#45;&gt;../components/VideoCall.tsx</title>
<path fill="none" stroke="#757575" d="M85.91,-1235.73C103.45,-1242.35 126.27,-1250.43 147,-1256.12 164.01,-1260.79 182.48,-1264.98 200.03,-1268.56"/>
<polygon fill="#757575" stroke="#757575" points="199.76,-1272.08 210.25,-1270.6 201.13,-1265.21 199.76,-1272.08"/>
</g>
<!-- Lobby.tsx&#45;&gt;../lib/types.ts -->
<g id="edge82" class="edge">
<title>Lobby.tsx&#45;&gt;../lib/types.ts</title>
<path fill="none" stroke="#757575" d="M56.82,-1235.71C58.61,-1274.88 70.32,-1402.81 147,-1455.12 243.93,-1521.25 293.94,-1463.11 411,-1455.12 658.95,-1438.19 766.94,-1529.25 965,-1379.12 1020.43,-1337.11 1039.42,-1250.39 1045.44,-1209.87"/>
<polygon fill="#757575" stroke="#757575" points="1048.91,-1210.34 1046.78,-1199.96 1041.97,-1209.4 1048.91,-1210.34"/>
</g>
<!-- Lobby.tsx&#45;&gt;../lib/sessionHooks.ts -->
<g id="edge80" class="edge">
<title>Lobby.tsx&#45;&gt;../lib/sessionHooks.ts</title>
<path fill="none" stroke="#757575" d="M57.53,-1212.59C64.37,-1137.08 104.38,-715.25 147,-679.12 191.75,-641.19 356.32,-657.85 411,-679.12 431.23,-686.99 427.62,-702.35 447,-712.12 463.43,-720.4 482.21,-726.05 500.42,-729.9"/>
<polygon fill="#757575" stroke="#757575" points="499.96,-733.38 510.45,-731.86 501.31,-726.51 499.96,-733.38"/>
</g>
<!-- Lobby.tsx&#45;&gt;../lib/useSessionData.ts -->
<g id="edge84" class="edge">
<title>Lobby.tsx&#45;&gt;../lib/useSessionData.ts</title>
<path fill="none" stroke="#757575" d="M57.39,-1212.53C60.93,-1175.01 77.41,-1055.9 147,-998.12 159.15,-988.04 174.1,-981.48 189.5,-977.28"/>
<polygon fill="#757575" stroke="#757575" points="190.76,-980.58 199.67,-974.85 189.13,-973.77 190.76,-980.58"/>
</g>
<!-- Lobby.tsx&#45;&gt;../lib/userSession.ts -->
<g id="edge85" class="edge">
<title>Lobby.tsx&#45;&gt;../lib/userSession.ts</title>
<path fill="none" stroke="#757575" d="M61.05,-1235.87C71.62,-1261.3 100.52,-1320.96 147,-1344.12 168.63,-1354.9 701.73,-1348.47 717,-1341.12 783.99,-1308.89 829.76,-1227.81 848.5,-1189.19"/>
<polygon fill="#757575" stroke="#757575" points="851.77,-1190.46 852.87,-1179.92 845.44,-1187.48 851.77,-1190.46"/>
</g>
<!-- Quiz.tsx -->
<g id="node39" class="node">
<title>Quiz.tsx</title>
<path fill="none" stroke="#c6c5fe" d="M304.33,-1063.62C304.33,-1063.62 253.67,-1063.62 253.67,-1063.62 249.83,-1063.62 246,-1059.79 246,-1055.95 246,-1055.95 246,-1048.29 246,-1048.29 246,-1044.45 249.83,-1040.62 253.67,-1040.62 253.67,-1040.62 304.33,-1040.62 304.33,-1040.62 308.17,-1040.62 312,-1044.45 312,-1048.29 312,-1048.29 312,-1055.95 312,-1055.95 312,-1059.79 308.17,-1063.62 304.33,-1063.62"/>
<text text-anchor="middle" x="279" y="-1048.42" font-family="Arial" font-size="14.00" fill="#c6c5fe">Quiz.tsx</text>
</g>
<!-- Quiz.tsx&#45;&gt;../lib/logger.ts -->
<g id="edge86" class="edge">
<title>Quiz.tsx&#45;&gt;../lib/logger.ts</title>
<path fill="none" stroke="#757575" d="M312.13,-1046.24C338.72,-1041.26 377.42,-1033.73 411,-1026.12 547.88,-995.11 595.98,-1019.19 717,-948.12 737.06,-936.34 732.4,-920.93 753,-910.12 837.43,-865.8 889.96,-935.96 965,-877.12 1022.07,-832.37 1040.3,-741.38 1045.79,-699.77"/>
<polygon fill="#757575" stroke="#757575" points="1049.29,-699.99 1047,-689.64 1042.33,-699.15 1049.29,-699.99"/>
</g>
<!-- Quiz.tsx&#45;&gt;../lib/mutations.ts -->
<g id="edge87" class="edge">
<title>Quiz.tsx&#45;&gt;../lib/mutations.ts</title>
<path fill="none" stroke="#757575" d="M312.18,-1053.18C340.77,-1052.52 382.36,-1047.44 411,-1026.12 438.43,-1005.7 422.33,-981.8 447,-958.12 470.71,-935.37 504.03,-919.41 531.52,-909.11"/>
<polygon fill="#757575" stroke="#757575" points="532.75,-912.39 540.97,-905.71 530.37,-905.8 532.75,-912.39"/>
</g>
<!-- Quiz.tsx&#45;&gt;../lib/types.ts -->
<g id="edge90" class="edge">
<title>Quiz.tsx&#45;&gt;../lib/types.ts</title>
<path fill="none" stroke="#757575" d="M308.98,-1063.64C382.01,-1091.99 580.11,-1164.59 753,-1189.12 835.87,-1200.88 933.17,-1197.22 992.69,-1193.03"/>
<polygon fill="#757575" stroke="#757575" points="993.28,-1196.5 1002.99,-1192.27 992.76,-1189.52 993.28,-1196.5"/>
</g>
<!-- Quiz.tsx&#45;&gt;../lib/realtimeHooks.ts -->
<g id="edge88" class="edge">
<title>Quiz.tsx&#45;&gt;../lib/realtimeHooks.ts</title>
<path fill="none" stroke="#757575" d="M312.21,-1051.91C356.39,-1051.61 437.3,-1051.08 498.84,-1050.67"/>
<polygon fill="#757575" stroke="#757575" points="498.96,-1054.17 508.93,-1050.6 498.91,-1047.17 498.96,-1054.17"/>
</g>
<!-- Quiz.tsx&#45;&gt;../lib/sessionHooks.ts -->
<g id="edge89" class="edge">
<title>Quiz.tsx&#45;&gt;../lib/sessionHooks.ts</title>
<path fill="none" stroke="#757575" d="M312.03,-1045.68C341.74,-1038.07 385.16,-1022.54 411,-993.12 447.46,-951.6 418.79,-921.63 447,-874.12 476.27,-824.84 527.14,-780.08 557.07,-756.22"/>
<polygon fill="#757575" stroke="#757575" points="559.57,-758.71 565.28,-749.78 555.26,-753.2 559.57,-758.71"/>
</g>
<!-- Results.tsx -->
<g id="node40" class="node">
<title>Results.tsx</title>
<path fill="none" stroke="#c6c5fe" d="M312.83,-710.62C312.83,-710.62 245.17,-710.62 245.17,-710.62 241.33,-710.62 237.5,-706.79 237.5,-702.95 237.5,-702.95 237.5,-695.29 237.5,-695.29 237.5,-691.45 241.33,-687.62 245.17,-687.62 245.17,-687.62 312.83,-687.62 312.83,-687.62 316.67,-687.62 320.5,-691.45 320.5,-695.29 320.5,-695.29 320.5,-702.95 320.5,-702.95 320.5,-706.79 316.67,-710.62 312.83,-710.62"/>
<text text-anchor="middle" x="279" y="-695.42" font-family="Arial" font-size="14.00" fill="#c6c5fe">Results.tsx</text>
</g>
<!-- Results.tsx&#45;&gt;../lib/logger.ts -->
<g id="edge91" class="edge">
<title>Results.tsx&#45;&gt;../lib/logger.ts</title>
<path fill="none" stroke="#757575" d="M294.48,-687.35C322.11,-665.75 385.09,-620.5 447,-604.12 669.57,-545.25 749.87,-522.14 965,-604.12 993.37,-614.93 1018.21,-640.39 1033.15,-658.41"/>
<polygon fill="#757575" stroke="#757575" points="1030.68,-660.94 1039.66,-666.57 1036.15,-656.57 1030.68,-660.94"/>
</g>
<!-- Results.tsx&#45;&gt;../lib/mutations.ts -->
<g id="edge92" class="edge">
<title>Results.tsx&#45;&gt;../lib/mutations.ts</title>
<path fill="none" stroke="#757575" d="M320.6,-696.4C348.52,-696.58 385.09,-701.11 411,-720.12 439.84,-741.29 424.17,-764.57 447,-792.12 476.92,-828.23 521.96,-859.14 551.42,-877.18"/>
<polygon fill="#757575" stroke="#757575" points="549.65,-880.2 560.03,-882.36 553.26,-874.21 549.65,-880.2"/>
</g>
<!-- Results.tsx&#45;&gt;../lib/supabaseClient.ts -->
<g id="edge94" class="edge">
<title>Results.tsx&#45;&gt;../lib/supabaseClient.ts</title>
<path fill="none" stroke="#757575" d="M320.58,-698.85C347.63,-700.24 383.19,-705.21 411,-720.12 431.79,-731.27 425.39,-749.66 447,-759.12 556.93,-807.25 597.33,-767.98 717,-759.12 738.95,-757.5 762.66,-754.47 784.26,-751.2"/>
<polygon fill="#757575" stroke="#757575" points="785,-754.63 794.35,-749.64 783.93,-747.71 785,-754.63"/>
</g>
<!-- Results.tsx&#45;&gt;../lib/sessionHooks.ts -->
<g id="edge93" class="edge">
<title>Results.tsx&#45;&gt;../lib/sessionHooks.ts</title>
<path fill="none" stroke="#757575" d="M320.59,-704.38C366.39,-710.31 442.03,-720.11 500.02,-727.63"/>
<polygon fill="#757575" stroke="#757575" points="499.9,-731.14 510.26,-728.96 500.8,-724.2 499.9,-731.14"/>
</g>
</g>
</svg>
