<?xml version="1.0" encoding="UTF-8" standalone="no"?>
<!DOCTYPE svg PUBLIC "-//W3C//DTD SVG 1.1//EN"
 "http://www.w3.org/Graphics/SVG/1.1/DTD/svg11.dtd">
<!-- Generated by graphviz version 2.43.0 (0)
 -->
<!-- Title: G Pages: 1 -->
<svg width="552pt" height="304pt"
 viewBox="0.00 0.00 551.74 304.20" xmlns="http://www.w3.org/2000/svg" xmlns:xlink="http://www.w3.org/1999/xlink">
<g id="graph0" class="graph" transform="scale(1 1) rotate(0) translate(21.6 282.6)">
<title>G</title>
<polygon fill="#111111" stroke="transparent" points="-21.6,21.6 -21.6,-282.6 530.14,-282.6 530.14,21.6 -21.6,21.6"/>
<!-- App.tsx -->
<g id="node1" class="node">
<title>App.tsx</title>
<path fill="none" stroke="#c6c5fe" d="M193.59,-101.72C193.59,-101.72 146.92,-101.72 146.92,-101.72 143.09,-101.72 139.25,-97.89 139.25,-94.06 139.25,-94.06 139.25,-86.39 139.25,-86.39 139.25,-82.56 143.09,-78.72 146.92,-78.72 146.92,-78.72 193.59,-78.72 193.59,-78.72 197.42,-78.72 201.25,-82.56 201.25,-86.39 201.25,-86.39 201.25,-94.06 201.25,-94.06 201.25,-97.89 197.42,-101.72 193.59,-101.72"/>
<text text-anchor="middle" x="170.25" y="-86.52" font-family="Arial" font-size="14.00" fill="#c6c5fe">App.tsx</text>
</g>
<!-- pages/GameSetup.tsx -->
<g id="node2" class="node">
<title>pages/GameSetup.tsx</title>
<path fill="none" stroke="#c6c5fe" d="M230.54,-101.84C230.54,-101.84 93.88,-101.84 93.88,-101.84 90.04,-101.84 86.21,-98 86.21,-94.17 86.21,-94.17 86.21,-86.5 86.21,-86.5 86.21,-82.67 90.04,-78.84 93.88,-78.84 93.88,-78.84 230.54,-78.84 230.54,-78.84 234.38,-78.84 238.21,-82.67 238.21,-86.5 238.21,-86.5 238.21,-94.17 238.21,-94.17 238.21,-98 234.38,-101.84 230.54,-101.84"/>
<text text-anchor="middle" x="162.21" y="-86.64" font-family="Arial" font-size="14.00" fill="#c6c5fe">pages/GameSetup.tsx</text>
</g>
<!-- App.tsx&#45;&gt;pages/GameSetup.tsx -->
<g id="edge1" class="edge">
<title>App.tsx&#45;&gt;pages/GameSetup.tsx</title>
<path fill="none" stroke="#757575" d="M162.3,-90.34C162.29,-90.34 162.27,-90.34 162.26,-90.34"/>
<polygon fill="#757575" stroke="#757575" points="172.17,-86.66 162.23,-90.34 172.29,-93.66 172.17,-86.66"/>
</g>
<!-- pages/Homepage.tsx -->
<g id="node3" class="node">
<title>pages/Homepage.tsx</title>
<path fill="none" stroke="#c6c5fe" d="M229.15,-159.63C229.15,-159.63 99.48,-159.63 99.48,-159.63 95.65,-159.63 91.82,-155.8 91.82,-151.96 91.82,-151.96 91.82,-144.3 91.82,-144.3 91.82,-140.46 95.65,-136.63 99.48,-136.63 99.48,-136.63 229.15,-136.63 229.15,-136.63 232.98,-136.63 236.82,-140.46 236.82,-144.3 236.82,-144.3 236.82,-151.96 236.82,-151.96 236.82,-155.8 232.98,-159.63 229.15,-159.63"/>
<text text-anchor="middle" x="164.32" y="-144.43" font-family="Arial" font-size="14.00" fill="#c6c5fe">pages/Homepage.tsx</text>
</g>
<!-- App.tsx&#45;&gt;pages/Homepage.tsx -->
<g id="edge2" class="edge">
<title>App.tsx&#45;&gt;pages/Homepage.tsx</title>
<path fill="none" stroke="#757575" d="M169.05,-101.94C168.34,-108.93 167.4,-118.02 166.56,-126.28"/>
<polygon fill="#757575" stroke="#757575" points="163.06,-126.12 165.52,-136.43 170.02,-126.84 163.06,-126.12"/>
</g>
<!-- pages/Join.tsx -->
<g id="node4" class="node">
<title>pages/Join.tsx</title>
<path fill="none" stroke="#c6c5fe" d="M184.98,-128.64C184.98,-128.64 97.31,-128.64 97.31,-128.64 93.48,-128.64 89.64,-124.8 89.64,-120.97 89.64,-120.97 89.64,-113.3 89.64,-113.3 89.64,-109.47 93.48,-105.64 97.31,-105.64 97.31,-105.64 184.98,-105.64 184.98,-105.64 188.81,-105.64 192.64,-109.47 192.64,-113.3 192.64,-113.3 192.64,-120.97 192.64,-120.97 192.64,-124.8 188.81,-128.64 184.98,-128.64"/>
<text text-anchor="middle" x="141.14" y="-113.44" font-family="Arial" font-size="14.00" fill="#c6c5fe">pages/Join.tsx</text>
</g>
<!-- App.tsx&#45;&gt;pages/Join.tsx -->
<g id="edge3" class="edge">
<title>App.tsx&#45;&gt;pages/Join.tsx</title>
<path fill="none" stroke="#757575" d="M157.74,-101.79C157.65,-101.87 157.57,-101.95 157.48,-102.03"/>
<polygon fill="#757575" stroke="#757575" points="158.61,-96.22 153.65,-105.58 163.37,-101.36 158.61,-96.22"/>
</g>
<!-- pages/Lobby.tsx -->
<g id="node5" class="node">
<title>pages/Lobby.tsx</title>
<path fill="none" stroke="#c6c5fe" d="M227.59,-99.05C227.59,-99.05 128.92,-99.05 128.92,-99.05 125.09,-99.05 121.25,-95.22 121.25,-91.39 121.25,-91.39 121.25,-83.72 121.25,-83.72 121.25,-79.89 125.09,-76.05 128.92,-76.05 128.92,-76.05 227.59,-76.05 227.59,-76.05 231.42,-76.05 235.25,-79.89 235.25,-83.72 235.25,-83.72 235.25,-91.39 235.25,-91.39 235.25,-95.22 231.42,-99.05 227.59,-99.05"/>
<text text-anchor="middle" x="178.25" y="-83.85" font-family="Arial" font-size="14.00" fill="#c6c5fe">pages/Lobby.tsx</text>
</g>
<!-- App.tsx&#45;&gt;pages/Lobby.tsx -->
<g id="edge4" class="edge">
<title>App.tsx&#45;&gt;pages/Lobby.tsx</title>
<path fill="none" stroke="#757575" d="M178.16,-87.58C178.18,-87.58 178.19,-87.58 178.2,-87.57"/>
<polygon fill="#757575" stroke="#757575" points="169.86,-94.07 178.23,-87.56 167.63,-87.43 169.86,-94.07"/>
</g>
<!-- pages/Quiz.tsx -->
<g id="node6" class="node">
<title>pages/Quiz.tsx</title>
<path fill="none" stroke="#c6c5fe" d="M268.1,-164.41C268.1,-164.41 176.44,-164.41 176.44,-164.41 172.6,-164.41 168.77,-160.58 168.77,-156.75 168.77,-156.75 168.77,-149.08 168.77,-149.08 168.77,-145.25 172.6,-141.41 176.44,-141.41 176.44,-141.41 268.1,-141.41 268.1,-141.41 271.94,-141.41 275.77,-145.25 275.77,-149.08 275.77,-149.08 275.77,-156.75 275.77,-156.75 275.77,-160.58 271.94,-164.41 268.1,-164.41"/>
<text text-anchor="middle" x="222.27" y="-149.21" font-family="Arial" font-size="14.00" fill="#c6c5fe">pages/Quiz.tsx</text>
</g>
<!-- App.tsx&#45;&gt;pages/Quiz.tsx -->
<g id="edge5" class="edge">
<title>App.tsx&#45;&gt;pages/Quiz.tsx</title>
<path fill="none" stroke="#757575" d="M180.04,-102.01C187.38,-110.86 197.58,-123.16 206.12,-133.45"/>
<polygon fill="#757575" stroke="#757575" points="203.45,-135.71 212.53,-141.17 208.84,-131.24 203.45,-135.71"/>
</g>
<!-- pages/Results.tsx -->
<g id="node7" class="node">
<title>pages/Results.tsx</title>
<path fill="none" stroke="#c6c5fe" d="M265.18,-94.46C265.18,-94.46 157.52,-94.46 157.52,-94.46 153.68,-94.46 149.85,-90.63 149.85,-86.8 149.85,-86.8 149.85,-79.13 149.85,-79.13 149.85,-75.3 153.68,-71.46 157.52,-71.46 157.52,-71.46 265.18,-71.46 265.18,-71.46 269.02,-71.46 272.85,-75.3 272.85,-79.13 272.85,-79.13 272.85,-86.8 272.85,-86.8 272.85,-90.63 269.02,-94.46 265.18,-94.46"/>
<text text-anchor="middle" x="211.35" y="-79.26" font-family="Arial" font-size="14.00" fill="#c6c5fe">pages/Results.tsx</text>
</g>
<!-- App.tsx&#45;&gt;pages/Results.tsx -->
<g id="edge6" class="edge">
<title>App.tsx&#45;&gt;pages/Results.tsx</title>
<path fill="none" stroke="#757575" d="M201.4,-84.72C201.45,-84.71 201.49,-84.7 201.54,-84.7"/>
<polygon fill="#757575" stroke="#757575" points="192.43,-89.87 201.67,-84.67 191.21,-82.97 192.43,-89.87"/>
</g>
<!-- atoms/index.ts -->
<g id="node8" class="node">
<title>atoms/index.ts</title>
<path fill="none" stroke="#c6c5fe" d="M247.68,-93.95C247.68,-93.95 159.01,-93.95 159.01,-93.95 155.18,-93.95 151.35,-90.12 151.35,-86.29 151.35,-86.29 151.35,-78.62 151.35,-78.62 151.35,-74.79 155.18,-70.95 159.01,-70.95 159.01,-70.95 247.68,-70.95 247.68,-70.95 251.51,-70.95 255.35,-74.79 255.35,-78.62 255.35,-78.62 255.35,-86.29 255.35,-86.29 255.35,-90.12 251.51,-93.95 247.68,-93.95"/>
<text text-anchor="middle" x="203.35" y="-78.75" font-family="Arial" font-size="14.00" fill="#c6c5fe">atoms/index.ts</text>
</g>
<!-- pages/GameSetup.tsx&#45;&gt;atoms/index.ts -->
<g id="edge60" class="edge">
<title>pages/GameSetup.tsx&#45;&gt;atoms/index.ts</title>
<path fill="none" stroke="#757575" d="M203.23,-82.48C203.25,-82.47 203.26,-82.47 203.28,-82.47"/>
<polygon fill="#757575" stroke="#757575" points="194.16,-87.8 203.32,-82.46 192.83,-80.93 194.16,-87.8"/>
</g>
<!-- lib/mutations.ts -->
<g id="node11" class="node">
<title>lib/mutations.ts</title>
<path fill="none" stroke="#c6c5fe" d="M235.16,-184.48C235.16,-184.48 143.49,-184.48 143.49,-184.48 139.66,-184.48 135.82,-180.64 135.82,-176.81 135.82,-176.81 135.82,-169.14 135.82,-169.14 135.82,-165.31 139.66,-161.48 143.49,-161.48 143.49,-161.48 235.16,-161.48 235.16,-161.48 238.99,-161.48 242.82,-165.31 242.82,-169.14 242.82,-169.14 242.82,-176.81 242.82,-176.81 242.82,-180.64 238.99,-184.48 235.16,-184.48"/>
<text text-anchor="middle" x="189.32" y="-169.28" font-family="Arial" font-size="14.00" fill="#c6c5fe">lib/mutations.ts</text>
</g>
<!-- pages/GameSetup.tsx&#45;&gt;lib/mutations.ts -->
<g id="edge63" class="edge">
<title>pages/GameSetup.tsx&#45;&gt;lib/mutations.ts</title>
<path fill="none" stroke="#757575" d="M166.09,-102.18C170.31,-115.01 177.12,-135.77 182.28,-151.5"/>
<polygon fill="#757575" stroke="#757575" points="179.09,-153.01 185.53,-161.42 185.74,-150.83 179.09,-153.01"/>
</g>
<!-- components/Alert.tsx -->
<g id="node12" class="node">
<title>components/Alert.tsx</title>
<path fill="none" stroke="#cfffac" d="M206.97,-136.64C206.97,-136.64 79.31,-136.64 79.31,-136.64 75.47,-136.64 71.64,-132.81 71.64,-128.97 71.64,-128.97 71.64,-121.31 71.64,-121.31 71.64,-117.47 75.47,-113.64 79.31,-113.64 79.31,-113.64 206.97,-113.64 206.97,-113.64 210.81,-113.64 214.64,-117.47 214.64,-121.31 214.64,-121.31 214.64,-128.97 214.64,-128.97 214.64,-132.81 210.81,-136.64 206.97,-136.64"/>
<text text-anchor="middle" x="143.14" y="-121.44" font-family="Arial" font-size="14.00" fill="#cfffac">components/Alert.tsx</text>
</g>
<!-- pages/GameSetup.tsx&#45;&gt;components/Alert.tsx -->
<g id="edge61" class="edge">
<title>pages/GameSetup.tsx&#45;&gt;components/Alert.tsx</title>
<path fill="none" stroke="#757575" d="M155.75,-102.12C155.32,-102.91 154.87,-103.72 154.43,-104.55"/>
<polygon fill="#757575" stroke="#757575" points="151.33,-102.92 149.59,-113.37 157.47,-106.28 151.33,-102.92"/>
</g>
<!-- components/LobbyStatus.tsx -->
<g id="node27" class="node">
<title>components/LobbyStatus.tsx</title>
<path fill="none" stroke="#c6c5fe" d="M242.04,-96.62C242.04,-96.62 66.37,-96.62 66.37,-96.62 62.54,-96.62 58.7,-92.79 58.7,-88.96 58.7,-88.96 58.7,-81.29 58.7,-81.29 58.7,-77.46 62.54,-73.62 66.37,-73.62 66.37,-73.62 242.04,-73.62 242.04,-73.62 245.87,-73.62 249.7,-77.46 249.7,-81.29 249.7,-81.29 249.7,-88.96 249.7,-88.96 249.7,-92.79 245.87,-96.62 242.04,-96.62"/>
<text text-anchor="middle" x="154.2" y="-81.42" font-family="Arial" font-size="14.00" fill="#c6c5fe">components/LobbyStatus.tsx</text>
</g>
<!-- pages/GameSetup.tsx&#45;&gt;components/LobbyStatus.tsx -->
<g id="edge62" class="edge">
<title>pages/GameSetup.tsx&#45;&gt;components/LobbyStatus.tsx</title>
<path fill="none" stroke="#757575" d="M154.29,-85.18C154.28,-85.17 154.27,-85.16 154.25,-85.16"/>
<polygon fill="#757575" stroke="#757575" points="164.52,-87.67 154.23,-85.14 160.69,-93.54 164.52,-87.67"/>
</g>
<!-- lib/supabaseClient.ts -->
<g id="node28" class="node">
<title>lib/supabaseClient.ts</title>
<path fill="none" stroke="#cfffac" d="M205.1,-112.63C205.1,-112.63 79.43,-112.63 79.43,-112.63 75.6,-112.63 71.76,-108.79 71.76,-104.96 71.76,-104.96 71.76,-97.29 71.76,-97.29 71.76,-93.46 75.6,-89.63 79.43,-89.63 79.43,-89.63 205.1,-89.63 205.1,-89.63 208.93,-89.63 212.76,-93.46 212.76,-97.29 212.76,-97.29 212.76,-104.96 212.76,-104.96 212.76,-108.79 208.93,-112.63 205.1,-112.63"/>
<text text-anchor="middle" x="142.26" y="-97.43" font-family="Arial" font-size="14.00" fill="#cfffac">lib/supabaseClient.ts</text>
</g>
<!-- pages/GameSetup.tsx&#45;&gt;lib/supabaseClient.ts -->
<g id="edge65" class="edge">
<title>pages/GameSetup.tsx&#45;&gt;lib/supabaseClient.ts</title>
<path fill="none" stroke="#757575" d="M142.32,-101.1C142.31,-101.1 142.3,-101.11 142.29,-101.11"/>
<polygon fill="#757575" stroke="#757575" points="149.4,-93.26 142.28,-101.12 152.75,-99.42 149.4,-93.26"/>
</g>
<!-- lib/types.ts -->
<g id="node45" class="node">
<title>lib/types.ts</title>
<path fill="none" stroke="#c6c5fe" d="M257.01,-140.24C257.01,-140.24 192.35,-140.24 192.35,-140.24 188.51,-140.24 184.68,-136.4 184.68,-132.57 184.68,-132.57 184.68,-124.9 184.68,-124.9 184.68,-121.07 188.51,-117.24 192.35,-117.24 192.35,-117.24 257.01,-117.24 257.01,-117.24 260.85,-117.24 264.68,-121.07 264.68,-124.9 264.68,-124.9 264.68,-132.57 264.68,-132.57 264.68,-136.4 260.85,-140.24 257.01,-140.24"/>
<text text-anchor="middle" x="224.68" y="-125.04" font-family="Arial" font-size="14.00" fill="#c6c5fe">lib/types.ts</text>
</g>
<!-- pages/GameSetup.tsx&#45;&gt;lib/types.ts -->
<g id="edge66" class="edge">
<title>pages/GameSetup.tsx&#45;&gt;lib/types.ts</title>
<path fill="none" stroke="#757575" d="M180.95,-101.86C186.02,-104.97 191.61,-108.41 197.05,-111.75"/>
<polygon fill="#757575" stroke="#757575" points="195.6,-114.97 205.95,-117.22 199.26,-109 195.6,-114.97"/>
</g>
<!-- lib/presence.ts -->
<g id="node48" class="node">
<title>lib/presence.ts</title>
<path fill="none" stroke="#c6c5fe" d="M190.85,-104.63C190.85,-104.63 102.18,-104.63 102.18,-104.63 98.35,-104.63 94.52,-100.79 94.52,-96.96 94.52,-96.96 94.52,-89.29 94.52,-89.29 94.52,-85.46 98.35,-81.63 102.18,-81.63 102.18,-81.63 190.85,-81.63 190.85,-81.63 194.68,-81.63 198.52,-85.46 198.52,-89.29 198.52,-89.29 198.52,-96.96 198.52,-96.96 198.52,-100.79 194.68,-104.63 190.85,-104.63"/>
<text text-anchor="middle" x="146.52" y="-89.43" font-family="Arial" font-size="14.00" fill="#c6c5fe">lib/presence.ts</text>
</g>
<!-- pages/GameSetup.tsx&#45;&gt;lib/presence.ts -->
<g id="edge64" class="edge">
<title>pages/GameSetup.tsx&#45;&gt;lib/presence.ts</title>
<path fill="none" stroke="#757575" d="M146.69,-93.09C146.66,-93.1 146.64,-93.1 146.62,-93.11"/>
<polygon fill="#757575" stroke="#757575" points="155.79,-87.91 146.56,-93.12 157.03,-94.8 155.79,-87.91"/>
</g>
<!-- components/ActiveGames.tsx -->
<g id="node10" class="node">
<title>components/ActiveGames.tsx</title>
<path fill="none" stroke="#c6c5fe" d="M259.64,-167.63C259.64,-167.63 77.97,-167.63 77.97,-167.63 74.14,-167.63 70.3,-163.8 70.3,-159.97 70.3,-159.97 70.3,-152.3 70.3,-152.3 70.3,-148.47 74.14,-144.63 77.97,-144.63 77.97,-144.63 259.64,-144.63 259.64,-144.63 263.47,-144.63 267.3,-148.47 267.3,-152.3 267.3,-152.3 267.3,-159.97 267.3,-159.97 267.3,-163.8 263.47,-167.63 259.64,-167.63"/>
<text text-anchor="middle" x="168.8" y="-152.43" font-family="Arial" font-size="14.00" fill="#c6c5fe">components/ActiveGames.tsx</text>
</g>
<!-- pages/Homepage.tsx&#45;&gt;components/ActiveGames.tsx -->
<g id="edge67" class="edge">
<title>pages/Homepage.tsx&#45;&gt;components/ActiveGames.tsx</title>
<path fill="none" stroke="#757575" d="M168.75,-156.04C168.76,-156.06 168.77,-156.07 168.78,-156.08"/>
<polygon fill="#757575" stroke="#757575" points="160.83,-149.1 168.79,-156.11 166.94,-145.67 160.83,-149.1"/>
</g>
<!-- pages/Homepage.tsx&#45;&gt;lib/mutations.ts -->
<g id="edge70" class="edge">
<title>pages/Homepage.tsx&#45;&gt;lib/mutations.ts</title>
<path fill="none" stroke="#757575" d="M175.94,-159.68C176.07,-159.81 176.2,-159.93 176.33,-160.06"/>
<polygon fill="#757575" stroke="#757575" points="167.91,-156.64 177.48,-161.2 172.85,-151.67 167.91,-156.64"/>
</g>
<!-- pages/Homepage.tsx&#45;&gt;components/Alert.tsx -->
<g id="edge68" class="edge">
<title>pages/Homepage.tsx&#45;&gt;components/Alert.tsx</title>
<path fill="none" stroke="#757575" d="M153.48,-136.36C153.44,-136.32 153.4,-136.28 153.36,-136.23"/>
<polygon fill="#757575" stroke="#757575" points="162.59,-141.08 153.24,-136.1 157.44,-145.83 162.59,-141.08"/>
</g>
<!-- components/PasswordModal.tsx -->
<g id="node33" class="node">
<title>components/PasswordModal.tsx</title>
<path fill="none" stroke="#cfffac" d="M254.57,-167.21C254.57,-167.21 57.91,-167.21 57.91,-167.21 54.07,-167.21 50.24,-163.37 50.24,-159.54 50.24,-159.54 50.24,-151.87 50.24,-151.87 50.24,-148.04 54.07,-144.21 57.91,-144.21 57.91,-144.21 254.57,-144.21 254.57,-144.21 258.41,-144.21 262.24,-148.04 262.24,-151.87 262.24,-151.87 262.24,-159.54 262.24,-159.54 262.24,-163.37 258.41,-167.21 254.57,-167.21"/>
<text text-anchor="middle" x="156.24" y="-152.01" font-family="Arial" font-size="14.00" fill="#cfffac">components/PasswordModal.tsx</text>
</g>
<!-- pages/Homepage.tsx&#45;&gt;components/PasswordModal.tsx -->
<g id="edge69" class="edge">
<title>pages/Homepage.tsx&#45;&gt;components/PasswordModal.tsx</title>
<path fill="none" stroke="#757575" d="M156.33,-155.62C156.31,-155.64 156.3,-155.65 156.29,-155.66"/>
<polygon fill="#757575" stroke="#757575" points="161.17,-146.28 156.26,-155.69 165.96,-151.39 161.17,-146.28"/>
</g>
<!-- pages/Join.tsx&#45;&gt;lib/mutations.ts -->
<g id="edge78" class="edge">
<title>pages/Join.tsx&#45;&gt;lib/mutations.ts</title>
<path fill="none" stroke="#757575" d="M151.13,-128.71C157.33,-135.89 165.46,-145.31 172.62,-153.62"/>
<polygon fill="#757575" stroke="#757575" points="170.17,-156.14 179.35,-161.42 175.47,-151.56 170.17,-156.14"/>
</g>
<!-- pages/Join.tsx&#45;&gt;components/Alert.tsx -->
<g id="edge75" class="edge">
<title>pages/Join.tsx&#45;&gt;components/Alert.tsx</title>
<path fill="none" stroke="#757575" d="M143.12,-125.05C143.12,-125.06 143.13,-125.08 143.13,-125.09"/>
<polygon fill="#757575" stroke="#757575" points="137.29,-116.27 143.14,-125.12 144.08,-114.56 137.29,-116.27"/>
</g>
<!-- components/FlagSelector.tsx -->
<g id="node25" class="node">
<title>components/FlagSelector.tsx</title>
<path fill="none" stroke="#cfffac" d="M236.54,-144.64C236.54,-144.64 60.87,-144.64 60.87,-144.64 57.04,-144.64 53.21,-140.81 53.21,-136.97 53.21,-136.97 53.21,-129.31 53.21,-129.31 53.21,-125.47 57.04,-121.64 60.87,-121.64 60.87,-121.64 236.54,-121.64 236.54,-121.64 240.37,-121.64 244.21,-125.47 244.21,-129.31 244.21,-129.31 244.21,-136.97 244.21,-136.97 244.21,-140.81 240.37,-144.64 236.54,-144.64"/>
<text text-anchor="middle" x="148.71" y="-129.44" font-family="Arial" font-size="14.00" fill="#cfffac">components/FlagSelector.tsx</text>
</g>
<!-- pages/Join.tsx&#45;&gt;components/FlagSelector.tsx -->
<g id="edge76" class="edge">
<title>pages/Join.tsx&#45;&gt;components/FlagSelector.tsx</title>
<path fill="none" stroke="#757575" d="M146.64,-128.77C146.68,-128.84 146.71,-128.92 146.75,-129"/>
<polygon fill="#757575" stroke="#757575" points="139.42,-121.68 146.86,-129.22 145.74,-118.69 139.42,-121.68"/>
</g>
<!-- pages/Join.tsx&#45;&gt;lib/supabaseClient.ts -->
<g id="edge79" class="edge">
<title>pages/Join.tsx&#45;&gt;lib/supabaseClient.ts</title>
<path fill="none" stroke="#757575" d="M141.96,-105.5C141.96,-105.42 141.97,-105.35 141.97,-105.27"/>
<polygon fill="#757575" stroke="#757575" points="144.78,-115.26 141.99,-105.04 137.79,-114.77 144.78,-115.26"/>
</g>
<!-- components/ReactBits/index.ts -->
<g id="node38" class="node">
<title>components/ReactBits/index.ts</title>
<path fill="none" stroke="#c6c5fe" d="M220.97,-131.08C220.97,-131.08 33.3,-131.08 33.3,-131.08 29.47,-131.08 25.63,-127.25 25.63,-123.41 25.63,-123.41 25.63,-115.75 25.63,-115.75 25.63,-111.91 29.47,-108.08 33.3,-108.08 33.3,-108.08 220.97,-108.08 220.97,-108.08 224.8,-108.08 228.63,-111.91 228.63,-115.75 228.63,-115.75 228.63,-123.41 228.63,-123.41 228.63,-127.25 224.8,-131.08 220.97,-131.08"/>
<text text-anchor="middle" x="127.13" y="-115.88" font-family="Arial" font-size="14.00" fill="#c6c5fe">components/ReactBits/index.ts</text>
</g>
<!-- pages/Join.tsx&#45;&gt;components/ReactBits/index.ts -->
<g id="edge77" class="edge">
<title>pages/Join.tsx&#45;&gt;components/ReactBits/index.ts</title>
<path fill="none" stroke="#757575" d="M127.29,-119.55C127.27,-119.56 127.24,-119.56 127.22,-119.56"/>
<polygon fill="#757575" stroke="#757575" points="136.42,-114.39 127.17,-119.57 137.63,-121.29 136.42,-114.39"/>
</g>
<!-- pages/Lobby.tsx&#45;&gt;atoms/index.ts -->
<g id="edge80" class="edge">
<title>pages/Lobby.tsx&#45;&gt;atoms/index.ts</title>
<path fill="none" stroke="#757575" d="M203.27,-82.47C203.29,-82.47 203.3,-82.46 203.31,-82.46"/>
<polygon fill="#757575" stroke="#757575" points="194.24,-87.91 203.33,-82.46 192.82,-81.05 194.24,-87.91"/>
</g>
<!-- lib/types/supabase.ts -->
<g id="node9" class="node">
<title>lib/types/supabase.ts</title>
<path fill="none" stroke="#cfffac" d="M294.7,-116.22C294.7,-116.22 167.03,-116.22 167.03,-116.22 163.2,-116.22 159.37,-112.39 159.37,-108.55 159.37,-108.55 159.37,-100.89 159.37,-100.89 159.37,-97.05 163.2,-93.22 167.03,-93.22 167.03,-93.22 294.7,-93.22 294.7,-93.22 298.53,-93.22 302.37,-97.05 302.37,-100.89 302.37,-100.89 302.37,-108.55 302.37,-108.55 302.37,-112.39 298.53,-116.22 294.7,-116.22"/>
<text text-anchor="middle" x="230.87" y="-101.02" font-family="Arial" font-size="14.00" fill="#cfffac">lib/types/supabase.ts</text>
</g>
<!-- pages/Lobby.tsx&#45;&gt;lib/types/supabase.ts -->
<g id="edge87" class="edge">
<title>pages/Lobby.tsx&#45;&gt;lib/types/supabase.ts</title>
<path fill="none" stroke="#757575" d="M213.64,-99.1C213.71,-99.12 213.79,-99.15 213.86,-99.17"/>
<polygon fill="#757575" stroke="#757575" points="203.49,-99.47 214.08,-99.25 205.66,-92.81 203.49,-99.47"/>
</g>
<!-- pages/Lobby.tsx&#45;&gt;lib/mutations.ts -->
<g id="edge84" class="edge">
<title>pages/Lobby.tsx&#45;&gt;lib/mutations.ts</title>
<path fill="none" stroke="#757575" d="M179.75,-99.07C181.48,-112.45 184.38,-134.79 186.53,-151.42"/>
<polygon fill="#757575" stroke="#757575" points="183.06,-151.9 187.82,-161.37 190.01,-151 183.06,-151.9"/>
</g>
<!-- components/Flag.tsx -->
<g id="node23" class="node">
<title>components/Flag.tsx</title>
<path fill="none" stroke="#c6c5fe" d="M238.48,-87.3C238.48,-87.3 111.81,-87.3 111.81,-87.3 107.98,-87.3 104.14,-83.47 104.14,-79.63 104.14,-79.63 104.14,-71.97 104.14,-71.97 104.14,-68.13 107.98,-64.3 111.81,-64.3 111.81,-64.3 238.48,-64.3 238.48,-64.3 242.31,-64.3 246.14,-68.13 246.14,-71.97 246.14,-71.97 246.14,-79.63 246.14,-79.63 246.14,-83.47 242.31,-87.3 238.48,-87.3"/>
<text text-anchor="middle" x="175.14" y="-72.1" font-family="Arial" font-size="14.00" fill="#c6c5fe">components/Flag.tsx</text>
</g>
<!-- pages/Lobby.tsx&#45;&gt;components/Flag.tsx -->
<g id="edge81" class="edge">
<title>pages/Lobby.tsx&#45;&gt;components/Flag.tsx</title>
<path fill="none" stroke="#757575" d="M175.18,-75.93C175.17,-75.91 175.17,-75.89 175.16,-75.88"/>
<polygon fill="#757575" stroke="#757575" points="181.11,-84.6 175.15,-75.83 174.34,-86.4 181.11,-84.6"/>
</g>
<!-- components/LobbyLogo.tsx -->
<g id="node26" class="node">
<title>components/LobbyLogo.tsx</title>
<path fill="none" stroke="#cfffac" d="M266.48,-79.67C266.48,-79.67 99.81,-79.67 99.81,-79.67 95.98,-79.67 92.15,-75.83 92.15,-72 92.15,-72 92.15,-64.33 92.15,-64.33 92.15,-60.5 95.98,-56.67 99.81,-56.67 99.81,-56.67 266.48,-56.67 266.48,-56.67 270.31,-56.67 274.15,-60.5 274.15,-64.33 274.15,-64.33 274.15,-72 274.15,-72 274.15,-75.83 270.31,-79.67 266.48,-79.67"/>
<text text-anchor="middle" x="183.15" y="-64.47" font-family="Arial" font-size="14.00" fill="#cfffac">components/LobbyLogo.tsx</text>
</g>
<!-- pages/Lobby.tsx&#45;&gt;components/LobbyLogo.tsx -->
<g id="edge82" class="edge">
<title>pages/Lobby.tsx&#45;&gt;components/LobbyLogo.tsx</title>
<path fill="none" stroke="#757575" d="M181.16,-76.05C181.17,-75.99 181.19,-75.92 181.21,-75.86"/>
<polygon fill="#757575" stroke="#757575" points="182.2,-86.22 181.26,-75.66 175.41,-84.5 182.2,-86.22"/>
</g>
<!-- pages/Lobby.tsx&#45;&gt;lib/supabaseClient.ts -->
<g id="edge86" class="edge">
<title>pages/Lobby.tsx&#45;&gt;lib/supabaseClient.ts</title>
<path fill="none" stroke="#757575" d="M147.57,-99.12C147.52,-99.14 147.47,-99.16 147.42,-99.18"/>
<polygon fill="#757575" stroke="#757575" points="155.4,-92.43 147.28,-99.24 157.87,-98.98 155.4,-92.43"/>
</g>
<!-- components/VideoCall.tsx -->
<g id="node41" class="node">
<title>components/VideoCall.tsx</title>
<path fill="none" stroke="#c6c5fe" d="M305.31,-132.23C305.31,-132.23 147.64,-132.23 147.64,-132.23 143.81,-132.23 139.98,-128.39 139.98,-124.56 139.98,-124.56 139.98,-116.89 139.98,-116.89 139.98,-113.06 143.81,-109.23 147.64,-109.23 147.64,-109.23 305.31,-109.23 305.31,-109.23 309.14,-109.23 312.98,-113.06 312.98,-116.89 312.98,-116.89 312.98,-124.56 312.98,-124.56 312.98,-128.39 309.14,-132.23 305.31,-132.23"/>
<text text-anchor="middle" x="226.48" y="-117.03" font-family="Arial" font-size="14.00" fill="#c6c5fe">components/VideoCall.tsx</text>
</g>
<!-- pages/Lobby.tsx&#45;&gt;components/VideoCall.tsx -->
<g id="edge83" class="edge">
<title>pages/Lobby.tsx&#45;&gt;components/VideoCall.tsx</title>
<path fill="none" stroke="#757575" d="M195.12,-99.16C197.02,-100.46 198.98,-101.81 200.96,-103.17"/>
<polygon fill="#757575" stroke="#757575" points="199.32,-106.29 209.54,-109.08 203.28,-100.52 199.32,-106.29"/>
</g>
<!-- lib/sessionHooks.ts -->
<g id="node51" class="node">
<title>lib/sessionHooks.ts</title>
<path fill="none" stroke="#c6c5fe" d="M277.69,-96.16C277.69,-96.16 161.02,-96.16 161.02,-96.16 157.19,-96.16 153.35,-92.33 153.35,-88.49 153.35,-88.49 153.35,-80.83 153.35,-80.83 153.35,-76.99 157.19,-73.16 161.02,-73.16 161.02,-73.16 277.69,-73.16 277.69,-73.16 281.52,-73.16 285.35,-76.99 285.35,-80.83 285.35,-80.83 285.35,-88.49 285.35,-88.49 285.35,-92.33 281.52,-96.16 277.69,-96.16"/>
<text text-anchor="middle" x="219.35" y="-80.96" font-family="Arial" font-size="14.00" fill="#c6c5fe">lib/sessionHooks.ts</text>
</g>
<!-- pages/Lobby.tsx&#45;&gt;lib/sessionHooks.ts -->
<g id="edge85" class="edge">
<title>pages/Lobby.tsx&#45;&gt;lib/sessionHooks.ts</title>
<path fill="none" stroke="#757575" d="M219.23,-84.67C219.25,-84.67 219.27,-84.66 219.29,-84.66"/>
<polygon fill="#757575" stroke="#757575" points="209.6,-88.88 219.32,-84.66 209.09,-81.9 209.6,-88.88"/>
</g>
<!-- pages/Quiz.tsx&#45;&gt;lib/mutations.ts -->
<g id="edge88" class="edge">
<title>pages/Quiz.tsx&#45;&gt;lib/mutations.ts</title>
<path fill="none" stroke="#757575" d="M203.1,-164.58C203.05,-164.62 202.99,-164.65 202.94,-164.69"/>
<polygon fill="#757575" stroke="#757575" points="209.49,-156.6 202.77,-164.79 213.13,-162.58 209.49,-156.6"/>
</g>
<!-- pages/Quiz.tsx&#45;&gt;lib/types.ts -->
<g id="edge91" class="edge">
<title>pages/Quiz.tsx&#45;&gt;lib/types.ts</title>
<path fill="none" stroke="#757575" d="M223.42,-141.39C223.43,-141.24 223.45,-141.1 223.46,-140.95"/>
<polygon fill="#757575" stroke="#757575" points="225.99,-150.81 223.51,-140.51 219.03,-150.12 225.99,-150.81"/>
</g>
<!-- lib/realtimeHooks.ts -->
<g id="node49" class="node">
<title>lib/realtimeHooks.ts</title>
<path fill="none" stroke="#c6c5fe" d="M284.31,-156.41C284.31,-156.41 164.65,-156.41 164.65,-156.41 160.81,-156.41 156.98,-152.57 156.98,-148.74 156.98,-148.74 156.98,-141.07 156.98,-141.07 156.98,-137.24 160.81,-133.41 164.65,-133.41 164.65,-133.41 284.31,-133.41 284.31,-133.41 288.15,-133.41 291.98,-137.24 291.98,-141.07 291.98,-141.07 291.98,-148.74 291.98,-148.74 291.98,-152.57 288.15,-156.41 284.31,-156.41"/>
<text text-anchor="middle" x="224.48" y="-141.21" font-family="Arial" font-size="14.00" fill="#c6c5fe">lib/realtimeHooks.ts</text>
</g>
<!-- pages/Quiz.tsx&#45;&gt;lib/realtimeHooks.ts -->
<g id="edge89" class="edge">
<title>pages/Quiz.tsx&#45;&gt;lib/realtimeHooks.ts</title>
<path fill="none" stroke="#757575" d="M224.46,-145C224.46,-144.98 224.46,-144.97 224.47,-144.96"/>
<polygon fill="#757575" stroke="#757575" points="225.16,-155.51 224.47,-144.93 218.41,-153.63 225.16,-155.51"/>
</g>
<!-- pages/Quiz.tsx&#45;&gt;lib/sessionHooks.ts -->
<g id="edge90" class="edge">
<title>pages/Quiz.tsx&#45;&gt;lib/sessionHooks.ts</title>
<path fill="none" stroke="#757575" d="M221.77,-141.33C221.37,-131.88 220.79,-118.25 220.3,-106.72"/>
<polygon fill="#757575" stroke="#757575" points="223.78,-106.36 219.86,-96.52 216.79,-106.66 223.78,-106.36"/>
</g>
<!-- pages/Results.tsx&#45;&gt;lib/mutations.ts -->
<g id="edge92" class="edge">
<title>pages/Results.tsx&#45;&gt;lib/mutations.ts</title>
<path fill="none" stroke="#757575" d="M208.47,-94.73C204.96,-109.08 198.95,-133.63 194.6,-151.41"/>
<polygon fill="#757575" stroke="#757575" points="191.18,-150.66 192.2,-161.21 197.98,-152.32 191.18,-150.66"/>
</g>
<!-- pages/Results.tsx&#45;&gt;lib/supabaseClient.ts -->
<g id="edge94" class="edge">
<title>pages/Results.tsx&#45;&gt;lib/supabaseClient.ts</title>
<path fill="none" stroke="#757575" d="M167.6,-94.47C167.54,-94.48 167.49,-94.49 167.44,-94.51"/>
<polygon fill="#757575" stroke="#757575" points="176.06,-88.62 167.28,-94.55 177.84,-95.39 176.06,-88.62"/>
</g>
<!-- pages/Results.tsx&#45;&gt;lib/sessionHooks.ts -->
<g id="edge93" class="edge">
<title>pages/Results.tsx&#45;&gt;lib/sessionHooks.ts</title>
<path fill="none" stroke="#757575" d="M219.26,-84.64C219.28,-84.64 219.29,-84.65 219.3,-84.65"/>
<polygon fill="#757575" stroke="#757575" points="208.81,-85.98 219.33,-84.65 210.28,-79.13 208.81,-85.98"/>
</g>
<!-- atoms/index.ts&#45;&gt;lib/types/supabase.ts -->
<g id="edge7" class="edge">
<title>atoms/index.ts&#45;&gt;lib/types/supabase.ts</title>
<path fill="none" stroke="#757575" d="M217.75,-94.11C217.8,-94.15 217.86,-94.19 217.91,-94.24"/>
<polygon fill="#757575" stroke="#757575" points="208.09,-90.79 218.06,-94.36 212.49,-85.35 208.09,-90.79"/>
</g>
<!-- components/ActiveGames.tsx&#45;&gt;lib/mutations.ts -->
<g id="edge8" class="edge">
<title>components/ActiveGames.tsx&#45;&gt;lib/mutations.ts</title>
<path fill="none" stroke="#757575" d="M182.83,-167.65C182.89,-167.69 182.94,-167.74 183,-167.78"/>
<polygon fill="#757575" stroke="#757575" points="173.22,-164.28 183.17,-167.92 177.66,-158.87 173.22,-164.28"/>
</g>
<!-- lib/mutations.ts&#45;&gt;lib/supabaseClient.ts -->
<g id="edge44" class="edge">
<title>lib/mutations.ts&#45;&gt;lib/supabaseClient.ts</title>
<path fill="none" stroke="#757575" d="M181.76,-161.43C174.74,-150.71 164.12,-134.49 155.66,-121.58"/>
<polygon fill="#757575" stroke="#757575" points="158.37,-119.33 149.96,-112.88 152.51,-123.16 158.37,-119.33"/>
</g>
<!-- lib/dailyTokenManager.ts -->
<g id="node44" class="node">
<title>lib/dailyTokenManager.ts</title>
<path fill="none" stroke="#c6c5fe" d="M299.54,-148.4C299.54,-148.4 149.87,-148.4 149.87,-148.4 146.04,-148.4 142.21,-144.57 142.21,-140.74 142.21,-140.74 142.21,-133.07 142.21,-133.07 142.21,-129.24 146.04,-125.4 149.87,-125.4 149.87,-125.4 299.54,-125.4 299.54,-125.4 303.37,-125.4 307.21,-129.24 307.21,-133.07 307.21,-133.07 307.21,-140.74 307.21,-140.74 307.21,-144.57 303.37,-148.4 299.54,-148.4"/>
<text text-anchor="middle" x="224.71" y="-133.2" font-family="Arial" font-size="14.00" fill="#c6c5fe">lib/dailyTokenManager.ts</text>
</g>
<!-- lib/mutations.ts&#45;&gt;lib/dailyTokenManager.ts -->
<g id="edge43" class="edge">
<title>lib/mutations.ts&#45;&gt;lib/dailyTokenManager.ts</title>
<path fill="none" stroke="#757575" d="M200.91,-161.16C202.48,-159.56 204.13,-157.88 205.79,-156.19"/>
<polygon fill="#757575" stroke="#757575" points="208.47,-158.45 212.97,-148.86 203.47,-153.55 208.47,-158.45"/>
</g>
<!-- lib/mutations.ts&#45;&gt;lib/types.ts -->
<g id="edge45" class="edge">
<title>lib/mutations.ts&#45;&gt;lib/types.ts</title>
<path fill="none" stroke="#757575" d="M198.61,-161.35C201.76,-157.42 205.36,-152.91 208.86,-148.53"/>
<polygon fill="#757575" stroke="#757575" points="211.82,-150.43 215.33,-140.44 206.35,-146.06 211.82,-150.43"/>
</g>
<!-- components/ChromaGrid.tsx -->
<g id="node13" class="node">
<title>components/ChromaGrid.tsx</title>
<path fill="none" stroke="#cfffac" d="M366.2,-23C366.2,-23 190.53,-23 190.53,-23 186.7,-23 182.86,-19.17 182.86,-15.33 182.86,-15.33 182.86,-7.67 182.86,-7.67 182.86,-3.83 186.7,0 190.53,0 190.53,0 366.2,0 366.2,0 370.03,0 373.86,-3.83 373.86,-7.67 373.86,-7.67 373.86,-15.33 373.86,-15.33 373.86,-19.17 370.03,-23 366.2,-23"/>
<text text-anchor="middle" x="278.36" y="-7.8" font-family="Arial" font-size="14.00" fill="#cfffac">components/ChromaGrid.tsx</text>
</g>
<!-- components/ChromaLogo.tsx -->
<g id="node14" class="node">
<title>components/ChromaLogo.tsx</title>
<path fill="none" stroke="#cfffac" d="M216.47,-112.63C216.47,-112.63 37.8,-112.63 37.8,-112.63 33.97,-112.63 30.14,-108.79 30.14,-104.96 30.14,-104.96 30.14,-97.29 30.14,-97.29 30.14,-93.46 33.97,-89.63 37.8,-89.63 37.8,-89.63 216.47,-89.63 216.47,-89.63 220.3,-89.63 224.14,-93.46 224.14,-97.29 224.14,-97.29 224.14,-104.96 224.14,-104.96 224.14,-108.79 220.3,-112.63 216.47,-112.63"/>
<text text-anchor="middle" x="127.14" y="-97.43" font-family="Arial" font-size="14.00" fill="#cfffac">components/ChromaLogo.tsx</text>
</g>
<!-- components/ControlsBar.tsx -->
<g id="node15" class="node">
<title>components/ControlsBar.tsx</title>
<path fill="none" stroke="#cfffac" d="M319.81,-132.54C319.81,-132.54 149.15,-132.54 149.15,-132.54 145.31,-132.54 141.48,-128.7 141.48,-124.87 141.48,-124.87 141.48,-117.2 141.48,-117.2 141.48,-113.37 145.31,-109.54 149.15,-109.54 149.15,-109.54 319.81,-109.54 319.81,-109.54 323.65,-109.54 327.48,-113.37 327.48,-117.2 327.48,-117.2 327.48,-124.87 327.48,-124.87 327.48,-128.7 323.65,-132.54 319.81,-132.54"/>
<text text-anchor="middle" x="234.48" y="-117.34" font-family="Arial" font-size="14.00" fill="#cfffac">components/ControlsBar.tsx</text>
</g>
<!-- components/DailyCallWrapper.tsx -->
<g id="node16" class="node">
<title>components/DailyCallWrapper.tsx</title>
<path fill="none" stroke="#c6c5fe" d="M293.48,-79.26C293.48,-79.26 88.81,-79.26 88.81,-79.26 84.98,-79.26 81.15,-75.43 81.15,-71.59 81.15,-71.59 81.15,-63.93 81.15,-63.93 81.15,-60.09 84.98,-56.26 88.81,-56.26 88.81,-56.26 293.48,-56.26 293.48,-56.26 297.31,-56.26 301.15,-60.09 301.15,-63.93 301.15,-63.93 301.15,-71.59 301.15,-71.59 301.15,-75.43 297.31,-79.26 293.48,-79.26"/>
<text text-anchor="middle" x="191.15" y="-64.06" font-family="Arial" font-size="14.00" fill="#c6c5fe">components/DailyCallWrapper.tsx</text>
</g>
<!-- lib/useDailyToken.ts -->
<g id="node17" class="node">
<title>lib/useDailyToken.ts</title>
<path fill="none" stroke="#c6c5fe" d="M246.93,-94.63C246.93,-94.63 126.26,-94.63 126.26,-94.63 122.43,-94.63 118.6,-90.8 118.6,-86.97 118.6,-86.97 118.6,-79.3 118.6,-79.3 118.6,-75.47 122.43,-71.63 126.26,-71.63 126.26,-71.63 246.93,-71.63 246.93,-71.63 250.76,-71.63 254.6,-75.47 254.6,-79.3 254.6,-79.3 254.6,-86.97 254.6,-86.97 254.6,-90.8 250.76,-94.63 246.93,-94.63"/>
<text text-anchor="middle" x="186.6" y="-79.43" font-family="Arial" font-size="14.00" fill="#c6c5fe">lib/useDailyToken.ts</text>
</g>
<!-- components/DailyCallWrapper.tsx&#45;&gt;lib/useDailyToken.ts -->
<g id="edge9" class="edge">
<title>components/DailyCallWrapper.tsx&#45;&gt;lib/useDailyToken.ts</title>
<path fill="none" stroke="#757575" d="M187.65,-79.57C187.63,-79.63 187.62,-79.7 187.6,-79.76"/>
<polygon fill="#757575" stroke="#757575" points="187.03,-69.37 187.54,-79.95 193.74,-71.35 187.03,-69.37"/>
</g>
<!-- lib/useDailyToken.ts&#45;&gt;atoms/index.ts -->
<g id="edge55" class="edge">
<title>lib/useDailyToken.ts&#45;&gt;atoms/index.ts</title>
<path fill="none" stroke="#757575" d="M203.3,-82.46C203.31,-82.46 203.31,-82.46 203.32,-82.46"/>
<polygon fill="#757575" stroke="#757575" points="193.51,-86.42 203.33,-82.45 193.18,-79.43 193.51,-86.42"/>
</g>
<!-- lib/useDailyToken.ts&#45;&gt;lib/mutations.ts -->
<g id="edge56" class="edge">
<title>lib/useDailyToken.ts&#45;&gt;lib/mutations.ts</title>
<path fill="none" stroke="#757575" d="M186.95,-94.88C187.39,-109.14 188.13,-133.47 188.66,-151.2"/>
<polygon fill="#757575" stroke="#757575" points="185.17,-151.34 188.97,-161.23 192.16,-151.13 185.17,-151.34"/>
</g>
<!-- components/DailyJoinButton.test.tsx -->
<g id="node18" class="node">
<title>components/DailyJoinButton.test.tsx</title>
<path fill="none" stroke="#c6c5fe" d="M305.17,-87.27C305.17,-87.27 85.51,-87.27 85.51,-87.27 81.67,-87.27 77.84,-83.43 77.84,-79.6 77.84,-79.6 77.84,-71.93 77.84,-71.93 77.84,-68.1 81.67,-64.27 85.51,-64.27 85.51,-64.27 305.17,-64.27 305.17,-64.27 309.01,-64.27 312.84,-68.1 312.84,-71.93 312.84,-71.93 312.84,-79.6 312.84,-79.6 312.84,-83.43 309.01,-87.27 305.17,-87.27"/>
<text text-anchor="middle" x="195.34" y="-72.07" font-family="Arial" font-size="14.00" fill="#c6c5fe">components/DailyJoinButton.test.tsx</text>
</g>
<!-- components/DailyJoinButton.tsx -->
<g id="node19" class="node">
<title>components/DailyJoinButton.tsx</title>
<path fill="none" stroke="#c6c5fe" d="M291.7,-95.78C291.7,-95.78 98.03,-95.78 98.03,-95.78 94.2,-95.78 90.37,-91.95 90.37,-88.12 90.37,-88.12 90.37,-80.45 90.37,-80.45 90.37,-76.62 94.2,-72.78 98.03,-72.78 98.03,-72.78 291.7,-72.78 291.7,-72.78 295.53,-72.78 299.37,-76.62 299.37,-80.45 299.37,-80.45 299.37,-88.12 299.37,-88.12 299.37,-91.95 295.53,-95.78 291.7,-95.78"/>
<text text-anchor="middle" x="194.87" y="-80.58" font-family="Arial" font-size="14.00" fill="#c6c5fe">components/DailyJoinButton.tsx</text>
</g>
<!-- components/DailyJoinButton.test.tsx&#45;&gt;components/DailyJoinButton.tsx -->
<g id="edge10" class="edge">
<title>components/DailyJoinButton.test.tsx&#45;&gt;components/DailyJoinButton.tsx</title>
<path fill="none" stroke="#757575" d="M194.87,-84.19C194.87,-84.2 194.87,-84.22 194.87,-84.23"/>
<polygon fill="#757575" stroke="#757575" points="191.96,-74.07 194.87,-84.26 198.95,-74.48 191.96,-74.07"/>
</g>
<!-- components/DailyJoinButton.tsx&#45;&gt;atoms/index.ts -->
<g id="edge11" class="edge">
<title>components/DailyJoinButton.tsx&#45;&gt;atoms/index.ts</title>
<path fill="none" stroke="#757575" d="M203.25,-82.48C203.27,-82.47 203.28,-82.47 203.29,-82.47"/>
<polygon fill="#757575" stroke="#757575" points="194.29,-88.02 203.32,-82.46 192.8,-81.17 194.29,-88.02"/>
</g>
<!-- components/DailyJoinButton.tsx&#45;&gt;lib/mutations.ts -->
<g id="edge12" class="edge">
<title>components/DailyJoinButton.tsx&#45;&gt;lib/mutations.ts</title>
<path fill="none" stroke="#757575" d="M194.14,-95.88C193.27,-109.82 191.79,-133.53 190.7,-150.98"/>
<polygon fill="#757575" stroke="#757575" points="187.18,-151.18 190.05,-161.38 194.17,-151.62 187.18,-151.18"/>
</g>
<!-- components/EnhancedLobby.tsx -->
<g id="node20" class="node">
<title>components/EnhancedLobby.tsx</title>
<path fill="none" stroke="#c6c5fe" d="M311.67,-180.42C311.67,-180.42 115,-180.42 115,-180.42 111.17,-180.42 107.34,-176.59 107.34,-172.75 107.34,-172.75 107.34,-165.09 107.34,-165.09 107.34,-161.25 111.17,-157.42 115,-157.42 115,-157.42 311.67,-157.42 311.67,-157.42 315.5,-157.42 319.34,-161.25 319.34,-165.09 319.34,-165.09 319.34,-172.75 319.34,-172.75 319.34,-176.59 315.5,-180.42 311.67,-180.42"/>
<text text-anchor="middle" x="213.34" y="-165.22" font-family="Arial" font-size="14.00" fill="#c6c5fe">components/EnhancedLobby.tsx</text>
</g>
<!-- lib/enhancedPresence.ts -->
<g id="node21" class="node">
<title>lib/enhancedPresence.ts</title>
<path fill="none" stroke="#c6c5fe" d="M279.67,-183.72C279.67,-183.72 131,-183.72 131,-183.72 127.17,-183.72 123.34,-179.89 123.34,-176.06 123.34,-176.06 123.34,-168.39 123.34,-168.39 123.34,-164.56 127.17,-160.72 131,-160.72 131,-160.72 279.67,-160.72 279.67,-160.72 283.5,-160.72 287.34,-164.56 287.34,-168.39 287.34,-168.39 287.34,-176.06 287.34,-176.06 287.34,-179.89 283.5,-183.72 279.67,-183.72"/>
<text text-anchor="middle" x="205.34" y="-168.52" font-family="Arial" font-size="14.00" fill="#c6c5fe">lib/enhancedPresence.ts</text>
</g>
<!-- components/EnhancedLobby.tsx&#45;&gt;lib/enhancedPresence.ts -->
<g id="edge13" class="edge">
<title>components/EnhancedLobby.tsx&#45;&gt;lib/enhancedPresence.ts</title>
<path fill="none" stroke="#757575" d="M205.43,-172.19C205.41,-172.19 205.4,-172.2 205.39,-172.2"/>
<polygon fill="#757575" stroke="#757575" points="213.26,-165.14 205.36,-172.21 215.95,-171.61 213.26,-165.14"/>
</g>
<!-- lib/enhancedRealtimeHooks.ts -->
<g id="node22" class="node">
<title>lib/enhancedRealtimeHooks.ts</title>
<path fill="none" stroke="#c6c5fe" d="M310.6,-172.42C310.6,-172.42 125.93,-172.42 125.93,-172.42 122.1,-172.42 118.26,-168.58 118.26,-164.75 118.26,-164.75 118.26,-157.08 118.26,-157.08 118.26,-153.25 122.1,-149.42 125.93,-149.42 125.93,-149.42 310.6,-149.42 310.6,-149.42 314.43,-149.42 318.26,-153.25 318.26,-157.08 318.26,-157.08 318.26,-164.75 318.26,-164.75 318.26,-168.58 314.43,-172.42 310.6,-172.42"/>
<text text-anchor="middle" x="218.26" y="-157.22" font-family="Arial" font-size="14.00" fill="#c6c5fe">lib/enhancedRealtimeHooks.ts</text>
</g>
<!-- components/EnhancedLobby.tsx&#45;&gt;lib/enhancedRealtimeHooks.ts -->
<g id="edge14" class="edge">
<title>components/EnhancedLobby.tsx&#45;&gt;lib/enhancedRealtimeHooks.ts</title>
<path fill="none" stroke="#757575" d="M218.21,-161.01C218.22,-160.99 218.23,-160.98 218.23,-160.97"/>
<polygon fill="#757575" stroke="#757575" points="215.98,-171.3 218.25,-160.94 210.01,-167.62 215.98,-171.3"/>
</g>
<!-- lib/enhancedPresence.ts&#45;&gt;lib/mutations.ts -->
<g id="edge36" class="edge">
<title>lib/enhancedPresence.ts&#45;&gt;lib/mutations.ts</title>
<path fill="none" stroke="#757575" d="M189.37,-172.97C189.36,-172.97 189.36,-172.97 189.35,-172.97"/>
<polygon fill="#757575" stroke="#757575" points="199.14,-168.94 189.34,-172.98 199.51,-175.94 199.14,-168.94"/>
</g>
<!-- lib/enhancedPresence.ts&#45;&gt;lib/supabaseClient.ts -->
<g id="edge37" class="edge">
<title>lib/enhancedPresence.ts&#45;&gt;lib/supabaseClient.ts</title>
<path fill="none" stroke="#757575" d="M194.92,-160.48C185.28,-149.61 170.76,-133.24 159.4,-120.45"/>
<polygon fill="#757575" stroke="#757575" points="161.74,-117.81 152.48,-112.65 156.5,-122.45 161.74,-117.81"/>
</g>
<!-- lib/enhancedRealtimeHooks.ts&#45;&gt;lib/supabaseClient.ts -->
<g id="edge38" class="edge">
<title>lib/enhancedRealtimeHooks.ts&#45;&gt;lib/supabaseClient.ts</title>
<path fill="none" stroke="#757575" d="M203.61,-149.39C192.75,-140.84 177.72,-129.02 165.26,-119.22"/>
<polygon fill="#757575" stroke="#757575" points="167.15,-116.26 157.13,-112.82 162.83,-121.76 167.15,-116.26"/>
</g>
<!-- lib/enhancedRealtimeHooks.ts&#45;&gt;lib/types.ts -->
<g id="edge39" class="edge">
<title>lib/enhancedRealtimeHooks.ts&#45;&gt;lib/types.ts</title>
<path fill="none" stroke="#757575" d="M220.58,-149.3C220.6,-149.21 220.62,-149.12 220.63,-149.03"/>
<polygon fill="#757575" stroke="#757575" points="223.82,-150.94 222.35,-140.44 216.96,-149.57 223.82,-150.94"/>
</g>
<!-- lib/flagIcons.ts -->
<g id="node24" class="node">
<title>lib/flagIcons.ts</title>
<path fill="none" stroke="#cfffac" d="M215.71,-78.27C215.71,-78.27 129.04,-78.27 129.04,-78.27 125.21,-78.27 121.38,-74.43 121.38,-70.6 121.38,-70.6 121.38,-62.93 121.38,-62.93 121.38,-59.1 125.21,-55.27 129.04,-55.27 129.04,-55.27 215.71,-55.27 215.71,-55.27 219.54,-55.27 223.38,-59.1 223.38,-62.93 223.38,-62.93 223.38,-70.6 223.38,-70.6 223.38,-74.43 219.54,-78.27 215.71,-78.27"/>
<text text-anchor="middle" x="172.38" y="-63.07" font-family="Arial" font-size="14.00" fill="#cfffac">lib/flagIcons.ts</text>
</g>
<!-- components/Flag.tsx&#45;&gt;lib/flagIcons.ts -->
<g id="edge15" class="edge">
<title>components/Flag.tsx&#45;&gt;lib/flagIcons.ts</title>
<path fill="none" stroke="#757575" d="M172.41,-66.87C172.4,-66.85 172.4,-66.84 172.4,-66.82"/>
<polygon fill="#757575" stroke="#757575" points="178.68,-75.32 172.39,-66.79 171.99,-77.39 178.68,-75.32"/>
</g>
<!-- components/LobbyStatus.tsx&#45;&gt;lib/supabaseClient.ts -->
<g id="edge16" class="edge">
<title>components/LobbyStatus.tsx&#45;&gt;lib/supabaseClient.ts</title>
<path fill="none" stroke="#757575" d="M145.52,-96.75C145.47,-96.83 145.41,-96.91 145.35,-96.98"/>
<polygon fill="#757575" stroke="#757575" points="148.36,-87.1 145.18,-97.21 153.97,-91.29 148.36,-87.1"/>
</g>
<!-- components/LogoSelector.tsx -->
<g id="node29" class="node">
<title>components/LogoSelector.tsx</title>
<path fill="none" stroke="#c6c5fe" d="M232.14,-120.63C232.14,-120.63 53.47,-120.63 53.47,-120.63 49.64,-120.63 45.8,-116.8 45.8,-112.97 45.8,-112.97 45.8,-105.3 45.8,-105.3 45.8,-101.47 49.64,-97.63 53.47,-97.63 53.47,-97.63 232.14,-97.63 232.14,-97.63 235.97,-97.63 239.8,-101.47 239.8,-105.3 239.8,-105.3 239.8,-112.97 239.8,-112.97 239.8,-116.8 235.97,-120.63 232.14,-120.63"/>
<text text-anchor="middle" x="142.8" y="-105.43" font-family="Arial" font-size="14.00" fill="#c6c5fe">components/LogoSelector.tsx</text>
</g>
<!-- components/LogoSelector.tsx&#45;&gt;components/ChromaLogo.tsx -->
<g id="edge17" class="edge">
<title>components/LogoSelector.tsx&#45;&gt;components/ChromaLogo.tsx</title>
<path fill="none" stroke="#757575" d="M127.31,-101.22C127.28,-101.2 127.26,-101.19 127.24,-101.18"/>
<polygon fill="#757575" stroke="#757575" points="137.68,-102.59 127.18,-101.15 134.49,-108.83 137.68,-102.59"/>
</g>
<!-- components/LogoSelector.tsx&#45;&gt;lib/supabaseClient.ts -->
<g id="edge18" class="edge">
<title>components/LogoSelector.tsx&#45;&gt;lib/supabaseClient.ts</title>
<path fill="none" stroke="#757575" d="M142.27,-101.22C142.27,-101.2 142.27,-101.19 142.27,-101.18"/>
<polygon fill="#757575" stroke="#757575" points="146.46,-110.88 142.26,-101.15 139.48,-111.38 146.46,-110.88"/>
</g>
<!-- components/ParticipantTile.test.tsx -->
<g id="node30" class="node">
<title>components/ParticipantTile.test.tsx</title>
<path fill="none" stroke="#c6c5fe" d="M336.43,-108.22C336.43,-108.22 124.77,-108.22 124.77,-108.22 120.93,-108.22 117.1,-104.38 117.1,-100.55 117.1,-100.55 117.1,-92.88 117.1,-92.88 117.1,-89.05 120.93,-85.22 124.77,-85.22 124.77,-85.22 336.43,-85.22 336.43,-85.22 340.27,-85.22 344.1,-89.05 344.1,-92.88 344.1,-92.88 344.1,-100.55 344.1,-100.55 344.1,-104.38 340.27,-108.22 336.43,-108.22"/>
<text text-anchor="middle" x="230.6" y="-93.02" font-family="Arial" font-size="14.00" fill="#c6c5fe">components/ParticipantTile.test.tsx</text>
</g>
<!-- components/ParticipantTile.test.tsx&#45;&gt;lib/types/supabase.ts -->
<g id="edge20" class="edge">
<title>components/ParticipantTile.test.tsx&#45;&gt;lib/types/supabase.ts</title>
<path fill="none" stroke="#757575" d="M230.86,-104.63C230.86,-104.65 230.86,-104.66 230.87,-104.67"/>
<polygon fill="#757575" stroke="#757575" points="227,-94.83 230.87,-104.7 234,-94.58 227,-94.83"/>
</g>
<!-- components/ParticipantTile.tsx -->
<g id="node31" class="node">
<title>components/ParticipantTile.tsx</title>
<path fill="none" stroke="#c6c5fe" d="M320.19,-100.21C320.19,-100.21 134.52,-100.21 134.52,-100.21 130.69,-100.21 126.86,-96.38 126.86,-92.55 126.86,-92.55 126.86,-84.88 126.86,-84.88 126.86,-81.05 130.69,-77.21 134.52,-77.21 134.52,-77.21 320.19,-77.21 320.19,-77.21 324.02,-77.21 327.86,-81.05 327.86,-84.88 327.86,-84.88 327.86,-92.55 327.86,-92.55 327.86,-96.38 324.02,-100.21 320.19,-100.21"/>
<text text-anchor="middle" x="227.36" y="-85.01" font-family="Arial" font-size="14.00" fill="#c6c5fe">components/ParticipantTile.tsx</text>
</g>
<!-- components/ParticipantTile.test.tsx&#45;&gt;components/ParticipantTile.tsx -->
<g id="edge19" class="edge">
<title>components/ParticipantTile.test.tsx&#45;&gt;components/ParticipantTile.tsx</title>
<path fill="none" stroke="#757575" d="M227.39,-88.8C227.39,-88.79 227.38,-88.78 227.38,-88.77"/>
<polygon fill="#757575" stroke="#757575" points="234.39,-96.68 227.36,-88.74 227.9,-99.33 234.39,-96.68"/>
</g>
<!-- components/ParticipantTile.tsx&#45;&gt;lib/types/supabase.ts -->
<g id="edge21" class="edge">
<title>components/ParticipantTile.tsx&#45;&gt;lib/types/supabase.ts</title>
<path fill="none" stroke="#757575" d="M229.91,-100.35C229.92,-100.42 229.94,-100.5 229.96,-100.58"/>
<polygon fill="#757575" stroke="#757575" points="224.44,-91.79 230.01,-100.81 231.28,-90.29 224.44,-91.79"/>
</g>
<!-- components/PasswordModal.test.tsx -->
<g id="node32" class="node">
<title>components/PasswordModal.test.tsx</title>
<path fill="none" stroke="#c6c5fe" d="M259.49,-173.23C259.49,-173.23 36.83,-173.23 36.83,-173.23 32.99,-173.23 29.16,-169.39 29.16,-165.56 29.16,-165.56 29.16,-157.89 29.16,-157.89 29.16,-154.06 32.99,-150.23 36.83,-150.23 36.83,-150.23 259.49,-150.23 259.49,-150.23 263.33,-150.23 267.16,-154.06 267.16,-157.89 267.16,-157.89 267.16,-165.56 267.16,-165.56 267.16,-169.39 263.33,-173.23 259.49,-173.23"/>
<text text-anchor="middle" x="148.16" y="-158.03" font-family="Arial" font-size="14.00" fill="#c6c5fe">components/PasswordModal.test.tsx</text>
</g>
<!-- components/PasswordModal.test.tsx&#45;&gt;components/PasswordModal.tsx -->
<g id="edge22" class="edge">
<title>components/PasswordModal.test.tsx&#45;&gt;components/PasswordModal.tsx</title>
<path fill="none" stroke="#757575" d="M156.15,-155.78C156.16,-155.76 156.18,-155.75 156.19,-155.75"/>
<polygon fill="#757575" stroke="#757575" points="150.29,-164.52 156.22,-155.72 146.1,-158.9 150.29,-164.52"/>
</g>
<!-- components/ReactBits/AnimatedList.tsx -->
<g id="node34" class="node">
<title>components/ReactBits/AnimatedList.tsx</title>
<path fill="none" stroke="#cfffac" d="M255.47,-138.87C255.47,-138.87 14.8,-138.87 14.8,-138.87 10.97,-138.87 7.14,-135.04 7.14,-131.2 7.14,-131.2 7.14,-123.54 7.14,-123.54 7.14,-119.7 10.97,-115.87 14.8,-115.87 14.8,-115.87 255.47,-115.87 255.47,-115.87 259.3,-115.87 263.14,-119.7 263.14,-123.54 263.14,-123.54 263.14,-131.2 263.14,-131.2 263.14,-135.04 259.3,-138.87 255.47,-138.87"/>
<text text-anchor="middle" x="135.14" y="-123.67" font-family="Arial" font-size="14.00" fill="#cfffac">components/ReactBits/AnimatedList.tsx</text>
</g>
<!-- components/ReactBits/Dock.tsx -->
<g id="node35" class="node">
<title>components/ReactBits/Dock.tsx</title>
<path fill="none" stroke="#cfffac" d="M215.46,-139.02C215.46,-139.02 22.8,-139.02 22.8,-139.02 18.96,-139.02 15.13,-135.19 15.13,-131.35 15.13,-131.35 15.13,-123.69 15.13,-123.69 15.13,-119.85 18.96,-116.02 22.8,-116.02 22.8,-116.02 215.46,-116.02 215.46,-116.02 219.3,-116.02 223.13,-119.85 223.13,-123.69 223.13,-123.69 223.13,-131.35 223.13,-131.35 223.13,-135.19 219.3,-139.02 215.46,-139.02"/>
<text text-anchor="middle" x="119.13" y="-123.82" font-family="Arial" font-size="14.00" fill="#cfffac">components/ReactBits/Dock.tsx</text>
</g>
<!-- components/ReactBits/PixelCard.tsx -->
<g id="node36" class="node">
<title>components/ReactBits/PixelCard.tsx</title>
<path fill="none" stroke="#cfffac" d="M228.33,-121.76C228.33,-121.76 7.67,-121.76 7.67,-121.76 3.83,-121.76 0,-117.92 0,-114.09 0,-114.09 0,-106.42 0,-106.42 0,-102.59 3.83,-98.76 7.67,-98.76 7.67,-98.76 228.33,-98.76 228.33,-98.76 232.17,-98.76 236,-102.59 236,-106.42 236,-106.42 236,-114.09 236,-114.09 236,-117.92 232.17,-121.76 228.33,-121.76"/>
<text text-anchor="middle" x="118" y="-106.56" font-family="Arial" font-size="14.00" fill="#cfffac">components/ReactBits/PixelCard.tsx</text>
</g>
<!-- components/ReactBits/SpotlightCard.tsx -->
<g id="node37" class="node">
<title>components/ReactBits/SpotlightCard.tsx</title>
<path fill="none" stroke="#cfffac" d="M256.09,-120.63C256.09,-120.63 12.43,-120.63 12.43,-120.63 8.59,-120.63 4.76,-116.8 4.76,-112.96 4.76,-112.96 4.76,-105.3 4.76,-105.3 4.76,-101.46 8.59,-97.63 12.43,-97.63 12.43,-97.63 256.09,-97.63 256.09,-97.63 259.93,-97.63 263.76,-101.46 263.76,-105.3 263.76,-105.3 263.76,-112.96 263.76,-112.96 263.76,-116.8 259.93,-120.63 256.09,-120.63"/>
<text text-anchor="middle" x="134.26" y="-105.43" font-family="Arial" font-size="14.00" fill="#cfffac">components/ReactBits/SpotlightCard.tsx</text>
</g>
<!-- components/ReactBits/index.ts&#45;&gt;components/ReactBits/AnimatedList.tsx -->
<g id="edge23" class="edge">
<title>components/ReactBits/index.ts&#45;&gt;components/ReactBits/AnimatedList.tsx</title>
<path fill="none" stroke="#757575" d="M135.05,-127.28C135.06,-127.3 135.08,-127.31 135.09,-127.32"/>
<polygon fill="#757575" stroke="#757575" points="125.5,-122.88 135.11,-127.35 130.39,-117.85 125.5,-122.88"/>
</g>
<!-- components/ReactBits/index.ts&#45;&gt;components/ReactBits/Dock.tsx -->
<g id="edge24" class="edge">
<title>components/ReactBits/index.ts&#45;&gt;components/ReactBits/Dock.tsx</title>
<path fill="none" stroke="#757575" d="M119.22,-127.43C119.21,-127.45 119.19,-127.46 119.18,-127.47"/>
<polygon fill="#757575" stroke="#757575" points="123.79,-117.96 119.15,-127.5 128.73,-122.93 123.79,-117.96"/>
</g>
<!-- components/ReactBits/index.ts&#45;&gt;components/ReactBits/PixelCard.tsx -->
<g id="edge25" class="edge">
<title>components/ReactBits/index.ts&#45;&gt;components/ReactBits/PixelCard.tsx</title>
<path fill="none" stroke="#757575" d="M118.1,-110.36C118.09,-110.34 118.07,-110.33 118.06,-110.31"/>
<polygon fill="#757575" stroke="#757575" points="127.53,-114.98 118.03,-110.28 122.53,-119.88 127.53,-114.98"/>
</g>
<!-- components/ReactBits/index.ts&#45;&gt;components/ReactBits/SpotlightCard.tsx -->
<g id="edge26" class="edge">
<title>components/ReactBits/index.ts&#45;&gt;components/ReactBits/SpotlightCard.tsx</title>
<path fill="none" stroke="#757575" d="M134.18,-109.25C134.19,-109.23 134.21,-109.21 134.22,-109.2"/>
<polygon fill="#757575" stroke="#757575" points="131.49,-119.4 134.24,-109.16 125.7,-115.45 131.49,-119.4"/>
</g>
<!-- components/TeamLogoPicker.test.tsx -->
<g id="node39" class="node">
<title>components/TeamLogoPicker.test.tsx</title>
<path fill="none" stroke="#c6c5fe" d="M500.87,-233C500.87,-233 274.2,-233 274.2,-233 270.37,-233 266.54,-229.17 266.54,-225.33 266.54,-225.33 266.54,-217.67 266.54,-217.67 266.54,-213.83 270.37,-210 274.2,-210 274.2,-210 500.87,-210 500.87,-210 504.7,-210 508.54,-213.83 508.54,-217.67 508.54,-217.67 508.54,-225.33 508.54,-225.33 508.54,-229.17 504.7,-233 500.87,-233"/>
<text text-anchor="middle" x="387.54" y="-217.8" font-family="Arial" font-size="14.00" fill="#c6c5fe">components/TeamLogoPicker.test.tsx</text>
</g>
<!-- components/TeamLogoPicker.tsx -->
<g id="node40" class="node">
<title>components/TeamLogoPicker.tsx</title>
<path fill="none" stroke="#cfffac" d="M495.87,-233C495.87,-233 295.2,-233 295.2,-233 291.37,-233 287.54,-229.17 287.54,-225.33 287.54,-225.33 287.54,-217.67 287.54,-217.67 287.54,-213.83 291.37,-210 295.2,-210 295.2,-210 495.87,-210 495.87,-210 499.7,-210 503.54,-213.83 503.54,-217.67 503.54,-217.67 503.54,-225.33 503.54,-225.33 503.54,-229.17 499.7,-233 495.87,-233"/>
<text text-anchor="middle" x="395.54" y="-217.8" font-family="Arial" font-size="14.00" fill="#cfffac">components/TeamLogoPicker.tsx</text>
</g>
<!-- components/TeamLogoPicker.test.tsx&#45;&gt;components/TeamLogoPicker.tsx -->
<g id="edge27" class="edge">
<title>components/TeamLogoPicker.test.tsx&#45;&gt;components/TeamLogoPicker.tsx</title>
<path fill="none" stroke="#757575" d="M395.45,-221.5C395.46,-221.5 395.48,-221.5 395.49,-221.5"/>
<polygon fill="#757575" stroke="#757575" points="385.53,-225.04 395.51,-221.5 385.5,-218.04 385.53,-225.04"/>
</g>
<!-- components/VideoCall.tsx&#45;&gt;lib/types/supabase.ts -->
<g id="edge32" class="edge">
<title>components/VideoCall.tsx&#45;&gt;lib/types/supabase.ts</title>
<path fill="none" stroke="#757575" d="M229.67,-109.1C229.69,-109.02 229.71,-108.94 229.73,-108.86"/>
<polygon fill="#757575" stroke="#757575" points="230.52,-119.21 229.79,-108.64 223.77,-117.35 230.52,-119.21"/>
</g>
<!-- components/VideoCall.tsx&#45;&gt;lib/mutations.ts -->
<g id="edge30" class="edge">
<title>components/VideoCall.tsx&#45;&gt;lib/mutations.ts</title>
<path fill="none" stroke="#757575" d="M218.23,-132.32C213.9,-138.41 208.48,-146.04 203.5,-153.04"/>
<polygon fill="#757575" stroke="#757575" points="200.49,-151.23 197.55,-161.41 206.19,-155.29 200.49,-151.23"/>
</g>
<!-- components/VideoCall.tsx&#45;&gt;components/ControlsBar.tsx -->
<g id="edge28" class="edge">
<title>components/VideoCall.tsx&#45;&gt;components/ControlsBar.tsx</title>
<path fill="none" stroke="#757575" d="M234.39,-121.03C234.41,-121.03 234.42,-121.03 234.43,-121.03"/>
<polygon fill="#757575" stroke="#757575" points="224.32,-124.11 234.46,-121.04 224.61,-117.12 224.32,-124.11"/>
</g>
<!-- components/VideoCall.tsx&#45;&gt;lib/supabaseClient.ts -->
<g id="edge31" class="edge">
<title>components/VideoCall.tsx&#45;&gt;lib/supabaseClient.ts</title>
<path fill="none" stroke="#757575" d="M177,-109.21C176.93,-109.2 176.86,-109.18 176.79,-109.16"/>
<polygon fill="#757575" stroke="#757575" points="187.11,-107.97 176.57,-109.11 185.52,-114.79 187.11,-107.97"/>
</g>
<!-- components/VideoCall.tsx&#45;&gt;components/ParticipantTile.tsx -->
<g id="edge29" class="edge">
<title>components/VideoCall.tsx&#45;&gt;components/ParticipantTile.tsx</title>
<path fill="none" stroke="#757575" d="M226.79,-109.17C226.8,-109.08 226.8,-108.99 226.8,-108.9"/>
<polygon fill="#757575" stroke="#757575" points="230.26,-110.46 227.04,-100.36 223.26,-110.26 230.26,-110.46"/>
</g>
<!-- index.css -->
<g id="node42" class="node">
<title>index.css</title>
<path fill="none" stroke="#cfffac" d="M192.09,-85.63C192.09,-85.63 134.42,-85.63 134.42,-85.63 130.59,-85.63 126.76,-81.8 126.76,-77.97 126.76,-77.97 126.76,-70.3 126.76,-70.3 126.76,-66.47 130.59,-62.63 134.42,-62.63 134.42,-62.63 192.09,-62.63 192.09,-62.63 195.92,-62.63 199.76,-66.47 199.76,-70.3 199.76,-70.3 199.76,-77.97 199.76,-77.97 199.76,-81.8 195.92,-85.63 192.09,-85.63"/>
<text text-anchor="middle" x="163.26" y="-70.43" font-family="Arial" font-size="14.00" fill="#cfffac">index.css</text>
</g>
<!-- lib/createSession.test.ts -->
<g id="node43" class="node">
<title>lib/createSession.test.ts</title>
<path fill="none" stroke="#c6c5fe" d="M245.15,-175.63C245.15,-175.63 101.49,-175.63 101.49,-175.63 97.65,-175.63 93.82,-171.8 93.82,-167.97 93.82,-167.97 93.82,-160.3 93.82,-160.3 93.82,-156.47 97.65,-152.63 101.49,-152.63 101.49,-152.63 245.15,-152.63 245.15,-152.63 248.99,-152.63 252.82,-156.47 252.82,-160.3 252.82,-160.3 252.82,-167.97 252.82,-167.97 252.82,-171.8 248.99,-175.63 245.15,-175.63"/>
<text text-anchor="middle" x="173.32" y="-160.43" font-family="Arial" font-size="14.00" fill="#c6c5fe">lib/createSession.test.ts</text>
</g>
<!-- lib/createSession.test.ts&#45;&gt;lib/mutations.ts -->
<g id="edge33" class="edge">
<title>lib/createSession.test.ts&#45;&gt;lib/mutations.ts</title>
<path fill="none" stroke="#757575" d="M189.28,-172.95C189.29,-172.95 189.29,-172.96 189.3,-172.96"/>
<polygon fill="#757575" stroke="#757575" points="178.85,-171.17 189.31,-172.97 182.26,-165.04 178.85,-171.17"/>
</g>
<!-- lib/createSession.test.ts&#45;&gt;lib/supabaseClient.ts -->
<g id="edge34" class="edge">
<title>lib/createSession.test.ts&#45;&gt;lib/supabaseClient.ts</title>
<path fill="none" stroke="#757575" d="M167.62,-152.58C163.43,-144.07 157.61,-132.27 152.6,-122.11"/>
<polygon fill="#757575" stroke="#757575" points="155.69,-120.46 148.13,-113.04 149.42,-123.56 155.69,-120.46"/>
</g>
<!-- lib/dailyTokenManager.ts&#45;&gt;lib/types.ts -->
<g id="edge35" class="edge">
<title>lib/dailyTokenManager.ts&#45;&gt;lib/types.ts</title>
<path fill="none" stroke="#757575" d="M224.68,-128.83C224.68,-128.81 224.68,-128.8 224.68,-128.79"/>
<polygon fill="#757575" stroke="#757575" points="228.25,-138.74 224.68,-128.76 221.25,-138.78 228.25,-138.74"/>
</g>
<!-- lib/types/index.ts -->
<g id="node52" class="node">
<title>lib/types/index.ts</title>
<path fill="none" stroke="#c6c5fe" d="M279.7,-124.22C279.7,-124.22 179.03,-124.22 179.03,-124.22 175.2,-124.22 171.37,-120.39 171.37,-116.56 171.37,-116.56 171.37,-108.89 171.37,-108.89 171.37,-105.06 175.2,-101.22 179.03,-101.22 179.03,-101.22 279.7,-101.22 279.7,-101.22 283.53,-101.22 287.37,-105.06 287.37,-108.89 287.37,-108.89 287.37,-116.56 287.37,-116.56 287.37,-120.39 283.53,-124.22 279.7,-124.22"/>
<text text-anchor="middle" x="229.37" y="-109.02" font-family="Arial" font-size="14.00" fill="#c6c5fe">lib/types/index.ts</text>
</g>
<!-- lib/types.ts&#45;&gt;lib/types/index.ts -->
<g id="edge53" class="edge">
<title>lib/types.ts&#45;&gt;lib/types/index.ts</title>
<path fill="none" stroke="#757575" d="M228.09,-117.1C228.11,-117.02 228.13,-116.95 228.15,-116.87"/>
<polygon fill="#757575" stroke="#757575" points="228.77,-127.22 228.22,-116.64 222.05,-125.25 228.77,-127.22"/>
</g>
<!-- lib/mutations.test.ts -->
<g id="node46" class="node">
<title>lib/mutations.test.ts</title>
<path fill="none" stroke="#c6c5fe" d="M256.16,-185.47C256.16,-185.47 138.5,-185.47 138.5,-185.47 134.66,-185.47 130.83,-181.63 130.83,-177.8 130.83,-177.8 130.83,-170.13 130.83,-170.13 130.83,-166.3 134.66,-162.47 138.5,-162.47 138.5,-162.47 256.16,-162.47 256.16,-162.47 260,-162.47 263.83,-166.3 263.83,-170.13 263.83,-170.13 263.83,-177.8 263.83,-177.8 263.83,-181.63 260,-185.47 256.16,-185.47"/>
<text text-anchor="middle" x="197.33" y="-170.27" font-family="Arial" font-size="14.00" fill="#c6c5fe">lib/mutations.test.ts</text>
</g>
<!-- lib/mutations.test.ts&#45;&gt;lib/mutations.ts -->
<g id="edge40" class="edge">
<title>lib/mutations.test.ts&#45;&gt;lib/mutations.ts</title>
<path fill="none" stroke="#757575" d="M189.41,-172.99C189.4,-172.99 189.39,-172.98 189.38,-172.98"/>
<polygon fill="#757575" stroke="#757575" points="199.71,-170.76 189.35,-172.98 198.83,-177.71 199.71,-170.76"/>
</g>
<!-- lib/mutations.test.ts&#45;&gt;lib/supabaseClient.ts -->
<g id="edge41" class="edge">
<title>lib/mutations.test.ts&#45;&gt;lib/supabaseClient.ts</title>
<path fill="none" stroke="#757575" d="M188.48,-162.26C180.1,-151.18 167.35,-134.31 157.36,-121.1"/>
<polygon fill="#757575" stroke="#757575" points="160.09,-118.91 151.27,-113.04 154.51,-123.13 160.09,-118.91"/>
</g>
<!-- lib/mutations.test.ts&#45;&gt;lib/types.ts -->
<g id="edge42" class="edge">
<title>lib/mutations.test.ts&#45;&gt;lib/types.ts</title>
<path fill="none" stroke="#757575" d="M204.52,-162.08C206.92,-158.1 209.68,-153.55 212.36,-149.11"/>
<polygon fill="#757575" stroke="#757575" points="215.46,-150.75 217.64,-140.38 209.47,-147.13 215.46,-150.75"/>
</g>
<!-- lib/mutations.validation.ts -->
<g id="node47" class="node">
<title>lib/mutations.validation.ts</title>
<path fill="none" stroke="#cfffac" d="M230.7,-261C230.7,-261 78.03,-261 78.03,-261 74.2,-261 70.36,-257.17 70.36,-253.33 70.36,-253.33 70.36,-245.67 70.36,-245.67 70.36,-241.83 74.2,-238 78.03,-238 78.03,-238 230.7,-238 230.7,-238 234.53,-238 238.36,-241.83 238.36,-245.67 238.36,-245.67 238.36,-253.33 238.36,-253.33 238.36,-257.17 234.53,-261 230.7,-261"/>
<text text-anchor="middle" x="154.36" y="-245.8" font-family="Arial" font-size="14.00" fill="#cfffac">lib/mutations.validation.ts</text>
</g>
<!-- lib/presence.ts&#45;&gt;lib/mutations.ts -->
<g id="edge46" class="edge">
<title>lib/presence.ts&#45;&gt;lib/mutations.ts</title>
<path fill="none" stroke="#757575" d="M152.83,-104.91C159.51,-117.36 170.17,-137.25 178.25,-152.32"/>
<polygon fill="#757575" stroke="#757575" points="175.31,-154.25 183.12,-161.4 181.48,-150.94 175.31,-154.25"/>
</g>
<!-- lib/presence.ts&#45;&gt;lib/supabaseClient.ts -->
<g id="edge47" class="edge">
<title>lib/presence.ts&#45;&gt;lib/supabaseClient.ts</title>
<path fill="none" stroke="#757575" d="M142.31,-101.04C142.3,-101.05 142.29,-101.06 142.29,-101.08"/>
<polygon fill="#757575" stroke="#757575" points="143.89,-90.62 142.27,-101.1 150.08,-93.92 143.89,-90.62"/>
</g>
<!-- lib/realtimeHooks.ts&#45;&gt;lib/supabaseClient.ts -->
<g id="edge48" class="edge">
<title>lib/realtimeHooks.ts&#45;&gt;lib/supabaseClient.ts</title>
<path fill="none" stroke="#757575" d="M202.88,-133.4C193.7,-128.52 182.83,-122.73 172.85,-117.41"/>
<polygon fill="#757575" stroke="#757575" points="174.48,-114.31 164.01,-112.7 171.19,-120.49 174.48,-114.31"/>
</g>
<!-- lib/realtimeHooks.ts&#45;&gt;lib/types.ts -->
<g id="edge49" class="edge">
<title>lib/realtimeHooks.ts&#45;&gt;lib/types.ts</title>
<path fill="none" stroke="#757575" d="M224.63,-133.15C224.63,-133.08 224.63,-133 224.63,-132.92"/>
<polygon fill="#757575" stroke="#757575" points="228,-142.73 224.63,-132.69 221,-142.65 228,-142.73"/>
</g>
<!-- lib/sessionCode.test.ts -->
<g id="node50" class="node">
<title>lib/sessionCode.test.ts</title>
<path fill="none" stroke="#c6c5fe" d="M249.66,-182.21C249.66,-182.21 112.99,-182.21 112.99,-182.21 109.16,-182.21 105.32,-178.38 105.32,-174.54 105.32,-174.54 105.32,-166.88 105.32,-166.88 105.32,-163.04 109.16,-159.21 112.99,-159.21 112.99,-159.21 249.66,-159.21 249.66,-159.21 253.49,-159.21 257.32,-163.04 257.32,-166.88 257.32,-166.88 257.32,-174.54 257.32,-174.54 257.32,-178.38 253.49,-182.21 249.66,-182.21"/>
<text text-anchor="middle" x="181.32" y="-167.01" font-family="Arial" font-size="14.00" fill="#c6c5fe">lib/sessionCode.test.ts</text>
</g>
<!-- lib/sessionCode.test.ts&#45;&gt;lib/mutations.ts -->
<g id="edge50" class="edge">
<title>lib/sessionCode.test.ts&#45;&gt;lib/mutations.ts</title>
<path fill="none" stroke="#757575" d="M189.23,-172.95C189.25,-172.95 189.26,-172.96 189.27,-172.96"/>
<polygon fill="#757575" stroke="#757575" points="178.72,-173.59 189.3,-172.97 180.64,-166.85 178.72,-173.59"/>
</g>
<!-- lib/sessionCode.test.ts&#45;&gt;lib/supabaseClient.ts -->
<g id="edge51" class="edge">
<title>lib/sessionCode.test.ts&#45;&gt;lib/supabaseClient.ts</title>
<path fill="none" stroke="#757575" d="M174.7,-158.9C168.99,-148.75 160.64,-133.86 153.83,-121.74"/>
<polygon fill="#757575" stroke="#757575" points="156.74,-119.76 148.79,-112.76 150.63,-123.19 156.74,-119.76"/>
</g>
<!-- lib/sessionHooks.ts&#45;&gt;lib/supabaseClient.ts -->
<g id="edge52" class="edge">
<title>lib/sessionHooks.ts&#45;&gt;lib/supabaseClient.ts</title>
<path fill="none" stroke="#757575" d="M165.39,-96.19C165.34,-96.2 165.29,-96.21 165.24,-96.22"/>
<polygon fill="#757575" stroke="#757575" points="174.14,-90.73 165.09,-96.25 175.6,-97.58 174.14,-90.73"/>
</g>
<!-- lib/types/index.ts&#45;&gt;lib/types/supabase.ts -->
<g id="edge54" class="edge">
<title>lib/types/index.ts&#45;&gt;lib/types/supabase.ts</title>
<path fill="none" stroke="#757575" d="M230.85,-104.81C230.85,-104.8 230.86,-104.78 230.86,-104.77"/>
<polygon fill="#757575" stroke="#757575" points="232.43,-115.23 230.86,-104.74 225.55,-113.92 232.43,-115.23"/>
</g>
<!-- lib/userSession.ts -->
<g id="node53" class="node">
<title>lib/userSession.ts</title>
<path fill="none" stroke="#c6c5fe" d="M286.05,-140.61C286.05,-140.61 179.38,-140.61 179.38,-140.61 175.55,-140.61 171.71,-136.78 171.71,-132.94 171.71,-132.94 171.71,-125.28 171.71,-125.28 171.71,-121.44 175.55,-117.61 179.38,-117.61 179.38,-117.61 286.05,-117.61 286.05,-117.61 289.88,-117.61 293.71,-121.44 293.71,-125.28 293.71,-125.28 293.71,-132.94 293.71,-132.94 293.71,-136.78 289.88,-140.61 286.05,-140.61"/>
<text text-anchor="middle" x="232.71" y="-125.41" font-family="Arial" font-size="14.00" fill="#c6c5fe">lib/userSession.ts</text>
</g>
<!-- lib/userSession.ts&#45;&gt;lib/types.ts -->
<g id="edge57" class="edge">
<title>lib/userSession.ts&#45;&gt;lib/types.ts</title>
<path fill="none" stroke="#757575" d="M224.77,-128.74C224.76,-128.74 224.74,-128.74 224.73,-128.74"/>
<polygon fill="#757575" stroke="#757575" points="234.87,-125.74 224.7,-128.74 234.52,-132.73 234.87,-125.74"/>
</g>
<!-- main.tsx -->
<g id="node54" class="node">
<title>main.tsx</title>
<path fill="none" stroke="#c6c5fe" d="M193.47,-93.72C193.47,-93.72 140.81,-93.72 140.81,-93.72 136.97,-93.72 133.14,-89.88 133.14,-86.05 133.14,-86.05 133.14,-78.38 133.14,-78.38 133.14,-74.55 136.97,-70.72 140.81,-70.72 140.81,-70.72 193.47,-70.72 193.47,-70.72 197.31,-70.72 201.14,-74.55 201.14,-78.38 201.14,-78.38 201.14,-86.05 201.14,-86.05 201.14,-89.88 197.31,-93.72 193.47,-93.72"/>
<text text-anchor="middle" x="167.14" y="-78.52" font-family="Arial" font-size="14.00" fill="#c6c5fe">main.tsx</text>
</g>
<!-- main.tsx&#45;&gt;App.tsx -->
<g id="edge58" class="edge">
<title>main.tsx&#45;&gt;App.tsx</title>
<path fill="none" stroke="#757575" d="M170.22,-90.13C170.22,-90.15 170.23,-90.16 170.23,-90.17"/>
<polygon fill="#757575" stroke="#757575" points="163.34,-82.15 170.24,-90.2 169.86,-79.6 163.34,-82.15"/>
</g>
<!-- main.tsx&#45;&gt;index.css -->
<g id="edge59" class="edge">
<title>main.tsx&#45;&gt;index.css</title>
<path fill="none" stroke="#757575" d="M163.3,-74.22C163.29,-74.21 163.29,-74.2 163.28,-74.18"/>
<polygon fill="#757575" stroke="#757575" points="170.77,-81.65 163.27,-74.16 164.46,-84.7 170.77,-81.65"/>
</g>
<!-- pages/Join.backup.tsx -->
<g id="node55" class="node">
<title>pages/Join.backup.tsx</title>
<path fill="none" stroke="#c6c5fe" d="M223.65,-152.64C223.65,-152.64 88.98,-152.64 88.98,-152.64 85.15,-152.64 81.31,-148.81 81.31,-144.97 81.31,-144.97 81.31,-137.31 81.31,-137.31 81.31,-133.47 85.15,-129.64 88.98,-129.64 88.98,-129.64 223.65,-129.64 223.65,-129.64 227.48,-129.64 231.31,-133.47 231.31,-137.31 231.31,-137.31 231.31,-144.97 231.31,-144.97 231.31,-148.81 227.48,-152.64 223.65,-152.64"/>
<text text-anchor="middle" x="156.31" y="-137.44" font-family="Arial" font-size="14.00" fill="#c6c5fe">pages/Join.backup.tsx</text>
</g>
<!-- pages/Join.backup.tsx&#45;&gt;lib/mutations.ts -->
<g id="edge74" class="edge">
<title>pages/Join.backup.tsx&#45;&gt;lib/mutations.ts</title>
<path fill="none" stroke="#757575" d="M168.61,-153C169.04,-153.42 169.48,-153.84 169.92,-154.27"/>
<polygon fill="#757575" stroke="#757575" points="167.5,-156.8 177.13,-161.22 172.36,-151.76 167.5,-156.8"/>
</g>
<!-- pages/Join.backup.tsx&#45;&gt;components/Alert.tsx -->
<g id="edge71" class="edge">
<title>pages/Join.backup.tsx&#45;&gt;components/Alert.tsx</title>
<path fill="none" stroke="#757575" d="M146.74,-129.51C146.68,-129.43 146.61,-129.36 146.55,-129.28"/>
<polygon fill="#757575" stroke="#757575" points="155.42,-134.55 146.36,-129.05 150.02,-139 155.42,-134.55"/>
</g>
<!-- pages/Join.backup.tsx&#45;&gt;components/FlagSelector.tsx -->
<g id="edge72" class="edge">
<title>pages/Join.backup.tsx&#45;&gt;components/FlagSelector.tsx</title>
<path fill="none" stroke="#757575" d="M148.79,-133.23C148.78,-133.21 148.77,-133.2 148.76,-133.19"/>
<polygon fill="#757575" stroke="#757575" points="158.17,-138 148.73,-133.16 153.09,-142.83 158.17,-138"/>
</g>
<!-- pages/Join.backup.tsx&#45;&gt;components/LogoSelector.tsx -->
<g id="edge73" class="edge">
<title>pages/Join.backup.tsx&#45;&gt;components/LogoSelector.tsx</title>
<path fill="none" stroke="#757575" d="M151.44,-129.59C151.4,-129.5 151.36,-129.41 151.32,-129.32"/>
<polygon fill="#757575" stroke="#757575" points="154.83,-128.63 147.72,-120.78 148.38,-131.35 154.83,-128.63"/>
</g>
<!-- setupTests.ts -->
<g id="node56" class="node">
<title>setupTests.ts</title>
<path fill="none" stroke="#cfffac" d="M144.2,-23C144.2,-23 64.53,-23 64.53,-23 60.7,-23 56.86,-19.17 56.86,-15.33 56.86,-15.33 56.86,-7.67 56.86,-7.67 56.86,-3.83 60.7,0 64.53,0 64.53,0 144.2,0 144.2,0 148.03,0 151.86,-3.83 151.86,-7.67 151.86,-7.67 151.86,-15.33 151.86,-15.33 151.86,-19.17 148.03,-23 144.2,-23"/>
<text text-anchor="middle" x="104.36" y="-7.8" font-family="Arial" font-size="14.00" fill="#cfffac">setupTests.ts</text>
</g>
</g>
</svg>
