<?xml version="1.0" encoding="UTF-8" standalone="no"?>
<!DOCTYPE svg PUBLIC "-//W3C//DTD SVG 1.1//EN"
 "http://www.w3.org/Graphics/SVG/1.1/DTD/svg11.dtd">
<!-- Generated by graphviz version 2.43.0 (0)
 -->
<!-- Title: G Pages: 1 -->
<svg width="1608pt" height="1118pt"
 viewBox="0.00 0.00 1608.20 1117.93" xmlns="http://www.w3.org/2000/svg" xmlns:xlink="http://www.w3.org/1999/xlink">
<g id="graph0" class="graph" transform="scale(1 1) rotate(0) translate(21.6 1096.33)">
<title>G</title>
<polygon fill="#111111" stroke="transparent" points="-21.6,21.6 -21.6,-1096.33 1586.6,-1096.33 1586.6,21.6 -21.6,21.6"/>
<!-- ../atoms/index.ts -->
<g id="node1" class="node">
<title>../atoms/index.ts</title>
<path fill="none" stroke="#c6c5fe" d="M309.33,-623C309.33,-623 208.67,-623 208.67,-623 204.83,-623 201,-619.17 201,-615.33 201,-615.33 201,-607.67 201,-607.67 201,-603.83 204.83,-600 208.67,-600 208.67,-600 309.33,-600 309.33,-600 313.17,-600 317,-603.83 317,-607.67 317,-607.67 317,-615.33 317,-615.33 317,-619.17 313.17,-623 309.33,-623"/>
<text text-anchor="middle" x="259" y="-607.8" font-family="Arial" font-size="14.00" fill="#c6c5fe">../atoms/index.ts</text>
</g>
<!-- ../lib/types/supabase.ts -->
<g id="node2" class="node">
<title>../lib/types/supabase.ts</title>
<path fill="none" stroke="#cfffac" d="M1557.33,-523C1557.33,-523 1418.67,-523 1418.67,-523 1414.83,-523 1411,-519.17 1411,-515.33 1411,-515.33 1411,-507.67 1411,-507.67 1411,-503.83 1414.83,-500 1418.67,-500 1418.67,-500 1557.33,-500 1557.33,-500 1561.17,-500 1565,-503.83 1565,-507.67 1565,-507.67 1565,-515.33 1565,-515.33 1565,-519.17 1561.17,-523 1557.33,-523"/>
<text text-anchor="middle" x="1488" y="-507.8" font-family="Arial" font-size="14.00" fill="#cfffac">../lib/types/supabase.ts</text>
</g>
<!-- ../atoms/index.ts&#45;&gt;../lib/types/supabase.ts -->
<g id="edge1" class="edge">
<title>../atoms/index.ts&#45;&gt;../lib/types/supabase.ts</title>
<path fill="none" stroke="#757575" d="M317.39,-614.45C421.77,-619.56 649.68,-629.5 842,-629.5 842,-629.5 842,-629.5 1071.5,-629.5 1219.09,-629.5 1385.34,-559.75 1454.31,-527.5"/>
<polygon fill="#757575" stroke="#757575" points="1456.23,-530.47 1463.77,-523.03 1453.24,-524.14 1456.23,-530.47"/>
</g>
<!-- ../components/ActiveGames.tsx -->
<g id="node3" class="node">
<title>../components/ActiveGames.tsx</title>
<path fill="none" stroke="#c6c5fe" d="M355.83,-502C355.83,-502 162.17,-502 162.17,-502 158.33,-502 154.5,-498.17 154.5,-494.33 154.5,-494.33 154.5,-486.67 154.5,-486.67 154.5,-482.83 158.33,-479 162.17,-479 162.17,-479 355.83,-479 355.83,-479 359.67,-479 363.5,-482.83 363.5,-486.67 363.5,-486.67 363.5,-494.33 363.5,-494.33 363.5,-498.17 359.67,-502 355.83,-502"/>
<text text-anchor="middle" x="259" y="-486.8" font-family="Arial" font-size="14.00" fill="#c6c5fe">../components/ActiveGames.tsx</text>
</g>
<!-- ../lib/mutations.ts -->
<g id="node4" class="node">
<title>../lib/mutations.ts</title>
<path fill="none" stroke="#c6c5fe" d="M591.33,-681C591.33,-681 487.67,-681 487.67,-681 483.83,-681 480,-677.17 480,-673.33 480,-673.33 480,-665.67 480,-665.67 480,-661.83 483.83,-658 487.67,-658 487.67,-658 591.33,-658 591.33,-658 595.17,-658 599,-661.83 599,-665.67 599,-665.67 599,-673.33 599,-673.33 599,-677.17 595.17,-681 591.33,-681"/>
<text text-anchor="middle" x="539.5" y="-665.8" font-family="Arial" font-size="14.00" fill="#c6c5fe">../lib/mutations.ts</text>
</g>
<!-- ../components/ActiveGames.tsx&#45;&gt;../lib/mutations.ts -->
<g id="edge2" class="edge">
<title>../components/ActiveGames.tsx&#45;&gt;../lib/mutations.ts</title>
<path fill="none" stroke="#757575" d="M358.32,-502.04C362.82,-504.45 367.08,-507.25 371,-510.5 405.72,-539.36 376.55,-572.16 407,-605.5 428.2,-628.71 459.64,-644.44 486.47,-654.49"/>
<polygon fill="#757575" stroke="#757575" points="485.52,-657.87 496.12,-657.95 487.88,-651.28 485.52,-657.87"/>
</g>
<!-- ../lib/supabaseClient.ts -->
<g id="node14" class="node">
<title>../lib/supabaseClient.ts</title>
<path fill="none" stroke="#cfffac" d="M911.33,-802C911.33,-802 774.67,-802 774.67,-802 770.83,-802 767,-798.17 767,-794.33 767,-794.33 767,-786.67 767,-786.67 767,-782.83 770.83,-779 774.67,-779 774.67,-779 911.33,-779 911.33,-779 915.17,-779 919,-782.83 919,-786.67 919,-786.67 919,-794.33 919,-794.33 919,-798.17 915.17,-802 911.33,-802"/>
<text text-anchor="middle" x="843" y="-786.8" font-family="Arial" font-size="14.00" fill="#cfffac">../lib/supabaseClient.ts</text>
</g>
<!-- ../lib/mutations.ts&#45;&gt;../lib/supabaseClient.ts -->
<g id="edge23" class="edge">
<title>../lib/mutations.ts&#45;&gt;../lib/supabaseClient.ts</title>
<path fill="none" stroke="#757575" d="M596.56,-681.04C621.51,-688.21 650.12,-699.41 672,-716.5 694.73,-734.25 683.65,-755.04 708,-770.5 722.53,-779.72 739.69,-785.3 756.8,-788.58"/>
<polygon fill="#757575" stroke="#757575" points="756.41,-792.06 766.85,-790.25 757.56,-785.15 756.41,-792.06"/>
</g>
<!-- ../lib/dailyTokenManager.ts -->
<g id="node25" class="node">
<title>../lib/dailyTokenManager.ts</title>
<path fill="none" stroke="#c6c5fe" d="M923.83,-761C923.83,-761 762.17,-761 762.17,-761 758.33,-761 754.5,-757.17 754.5,-753.33 754.5,-753.33 754.5,-745.67 754.5,-745.67 754.5,-741.83 758.33,-738 762.17,-738 762.17,-738 923.83,-738 923.83,-738 927.67,-738 931.5,-741.83 931.5,-745.67 931.5,-745.67 931.5,-753.33 931.5,-753.33 931.5,-757.17 927.67,-761 923.83,-761"/>
<text text-anchor="middle" x="843" y="-745.8" font-family="Arial" font-size="14.00" fill="#c6c5fe">../lib/dailyTokenManager.ts</text>
</g>
<!-- ../lib/mutations.ts&#45;&gt;../lib/dailyTokenManager.ts -->
<g id="edge21" class="edge">
<title>../lib/mutations.ts&#45;&gt;../lib/dailyTokenManager.ts</title>
<path fill="none" stroke="#757575" d="M572.28,-681.01C605.72,-692.82 660.06,-711.17 708,-723.5 726.09,-728.15 745.75,-732.41 764.29,-736.06"/>
<polygon fill="#757575" stroke="#757575" points="763.68,-739.51 774.16,-737.98 765.01,-732.64 763.68,-739.51"/>
</g>
<!-- ../lib/types.ts -->
<g id="node26" class="node">
<title>../lib/types.ts</title>
<path fill="none" stroke="#c6c5fe" d="M1108.83,-938C1108.83,-938 1032.17,-938 1032.17,-938 1028.33,-938 1024.5,-934.17 1024.5,-930.33 1024.5,-930.33 1024.5,-922.67 1024.5,-922.67 1024.5,-918.83 1028.33,-915 1032.17,-915 1032.17,-915 1108.83,-915 1108.83,-915 1112.67,-915 1116.5,-918.83 1116.5,-922.67 1116.5,-922.67 1116.5,-930.33 1116.5,-930.33 1116.5,-934.17 1112.67,-938 1108.83,-938"/>
<text text-anchor="middle" x="1070.5" y="-922.8" font-family="Arial" font-size="14.00" fill="#c6c5fe">../lib/types.ts</text>
</g>
<!-- ../lib/mutations.ts&#45;&gt;../lib/types.ts -->
<g id="edge24" class="edge">
<title>../lib/mutations.ts&#45;&gt;../lib/types.ts</title>
<path fill="none" stroke="#757575" d="M599.19,-676.81C716.71,-691.55 970.43,-723.91 978,-729.5 1036.75,-772.89 1058.98,-863.4 1066.32,-904.88"/>
<polygon fill="#757575" stroke="#757575" points="1062.87,-905.46 1067.95,-914.76 1069.77,-904.32 1062.87,-905.46"/>
</g>
<!-- ../lib/logger.ts -->
<g id="node27" class="node">
<title>../lib/logger.ts</title>
<path fill="none" stroke="#cfffac" d="M883.83,-681C883.83,-681 802.17,-681 802.17,-681 798.33,-681 794.5,-677.17 794.5,-673.33 794.5,-673.33 794.5,-665.67 794.5,-665.67 794.5,-661.83 798.33,-658 802.17,-658 802.17,-658 883.83,-658 883.83,-658 887.67,-658 891.5,-661.83 891.5,-665.67 891.5,-665.67 891.5,-673.33 891.5,-673.33 891.5,-677.17 887.67,-681 883.83,-681"/>
<text text-anchor="middle" x="843" y="-665.8" font-family="Arial" font-size="14.00" fill="#cfffac">../lib/logger.ts</text>
</g>
<!-- ../lib/mutations.ts&#45;&gt;../lib/logger.ts -->
<g id="edge22" class="edge">
<title>../lib/mutations.ts&#45;&gt;../lib/logger.ts</title>
<path fill="none" stroke="#757575" d="M599.35,-669.5C652.69,-669.5 730.85,-669.5 783.94,-669.5"/>
<polygon fill="#757575" stroke="#757575" points="784.21,-673 794.21,-669.5 784.21,-666 784.21,-673"/>
</g>
<!-- ../components/Alert.tsx -->
<g id="node5" class="node">
<title>../components/Alert.tsx</title>
<path fill="none" stroke="#cfffac" d="M609.33,-283C609.33,-283 469.67,-283 469.67,-283 465.83,-283 462,-279.17 462,-275.33 462,-275.33 462,-267.67 462,-267.67 462,-263.83 465.83,-260 469.67,-260 469.67,-260 609.33,-260 609.33,-260 613.17,-260 617,-263.83 617,-267.67 617,-267.67 617,-275.33 617,-275.33 617,-279.17 613.17,-283 609.33,-283"/>
<text text-anchor="middle" x="539.5" y="-267.8" font-family="Arial" font-size="14.00" fill="#cfffac">../components/Alert.tsx</text>
</g>
<!-- ../components/ChromaLogo.tsx -->
<g id="node6" class="node">
<title>../components/ChromaLogo.tsx</title>
<path fill="none" stroke="#cfffac" d="M938.33,-445C938.33,-445 747.67,-445 747.67,-445 743.83,-445 740,-441.17 740,-437.33 740,-437.33 740,-429.67 740,-429.67 740,-425.83 743.83,-422 747.67,-422 747.67,-422 938.33,-422 938.33,-422 942.17,-422 946,-425.83 946,-429.67 946,-429.67 946,-437.33 946,-437.33 946,-441.17 942.17,-445 938.33,-445"/>
<text text-anchor="middle" x="843" y="-429.8" font-family="Arial" font-size="14.00" fill="#cfffac">../components/ChromaLogo.tsx</text>
</g>
<!-- ../components/ControlsBar.tsx -->
<g id="node7" class="node">
<title>../components/ControlsBar.tsx</title>
<path fill="none" stroke="#cfffac" d="M630.83,-563C630.83,-563 448.17,-563 448.17,-563 444.33,-563 440.5,-559.17 440.5,-555.33 440.5,-555.33 440.5,-547.67 440.5,-547.67 440.5,-543.83 444.33,-540 448.17,-540 448.17,-540 630.83,-540 630.83,-540 634.67,-540 638.5,-543.83 638.5,-547.67 638.5,-547.67 638.5,-555.33 638.5,-555.33 638.5,-559.17 634.67,-563 630.83,-563"/>
<text text-anchor="middle" x="539.5" y="-547.8" font-family="Arial" font-size="14.00" fill="#cfffac">../components/ControlsBar.tsx</text>
</g>
<!-- ../components/Flag.tsx -->
<g id="node8" class="node">
<title>../components/Flag.tsx</title>
<path fill="none" stroke="#c6c5fe" d="M911.83,-324C911.83,-324 774.17,-324 774.17,-324 770.33,-324 766.5,-320.17 766.5,-316.33 766.5,-316.33 766.5,-308.67 766.5,-308.67 766.5,-304.83 770.33,-301 774.17,-301 774.17,-301 911.83,-301 911.83,-301 915.67,-301 919.5,-304.83 919.5,-308.67 919.5,-308.67 919.5,-316.33 919.5,-316.33 919.5,-320.17 915.67,-324 911.83,-324"/>
<text text-anchor="middle" x="843" y="-308.8" font-family="Arial" font-size="14.00" fill="#c6c5fe">../components/Flag.tsx</text>
</g>
<!-- ../lib/flagIcons.ts -->
<g id="node9" class="node">
<title>../lib/flagIcons.ts</title>
<path fill="none" stroke="#cfffac" d="M1119.33,-324C1119.33,-324 1021.67,-324 1021.67,-324 1017.83,-324 1014,-320.17 1014,-316.33 1014,-316.33 1014,-308.67 1014,-308.67 1014,-304.83 1017.83,-301 1021.67,-301 1021.67,-301 1119.33,-301 1119.33,-301 1123.17,-301 1127,-304.83 1127,-308.67 1127,-308.67 1127,-316.33 1127,-316.33 1127,-320.17 1123.17,-324 1119.33,-324"/>
<text text-anchor="middle" x="1070.5" y="-308.8" font-family="Arial" font-size="14.00" fill="#cfffac">../lib/flagIcons.ts</text>
</g>
<!-- ../components/Flag.tsx&#45;&gt;../lib/flagIcons.ts -->
<g id="edge3" class="edge">
<title>../components/Flag.tsx&#45;&gt;../lib/flagIcons.ts</title>
<path fill="none" stroke="#757575" d="M919.72,-312.5C946.94,-312.5 977.4,-312.5 1003.71,-312.5"/>
<polygon fill="#757575" stroke="#757575" points="1003.95,-316 1013.95,-312.5 1003.95,-309 1003.95,-316"/>
</g>
<!-- ../components/FlagSelector.tsx -->
<g id="node10" class="node">
<title>../components/FlagSelector.tsx</title>
<path fill="none" stroke="#c6c5fe" d="M633.33,-365C633.33,-365 445.67,-365 445.67,-365 441.83,-365 438,-361.17 438,-357.33 438,-357.33 438,-349.67 438,-349.67 438,-345.83 441.83,-342 445.67,-342 445.67,-342 633.33,-342 633.33,-342 637.17,-342 641,-345.83 641,-349.67 641,-349.67 641,-357.33 641,-357.33 641,-361.17 637.17,-365 633.33,-365"/>
<text text-anchor="middle" x="539.5" y="-349.8" font-family="Arial" font-size="14.00" fill="#c6c5fe">../components/FlagSelector.tsx</text>
</g>
<!-- ../components/FlagSelector.tsx&#45;&gt;../components/Flag.tsx -->
<g id="edge4" class="edge">
<title>../components/FlagSelector.tsx&#45;&gt;../components/Flag.tsx</title>
<path fill="none" stroke="#757575" d="M625.29,-341.97C666.24,-336.4 715.28,-329.73 756.34,-324.15"/>
<polygon fill="#757575" stroke="#757575" points="756.89,-327.61 766.33,-322.79 755.95,-320.67 756.89,-327.61"/>
</g>
<!-- ../components/LobbyLogo.tsx -->
<g id="node11" class="node">
<title>../components/LobbyLogo.tsx</title>
<path fill="none" stroke="#cfffac" d="M348.33,-543C348.33,-543 169.67,-543 169.67,-543 165.83,-543 162,-539.17 162,-535.33 162,-535.33 162,-527.67 162,-527.67 162,-523.83 165.83,-520 169.67,-520 169.67,-520 348.33,-520 348.33,-520 352.17,-520 356,-523.83 356,-527.67 356,-527.67 356,-535.33 356,-535.33 356,-539.17 352.17,-543 348.33,-543"/>
<text text-anchor="middle" x="259" y="-527.8" font-family="Arial" font-size="14.00" fill="#cfffac">../components/LobbyLogo.tsx</text>
</g>
<!-- ../components/LobbyStatus.tsx -->
<g id="node12" class="node">
<title>../components/LobbyStatus.tsx</title>
<path fill="none" stroke="#c6c5fe" d="M632.83,-1018C632.83,-1018 446.17,-1018 446.17,-1018 442.33,-1018 438.5,-1014.17 438.5,-1010.33 438.5,-1010.33 438.5,-1002.67 438.5,-1002.67 438.5,-998.83 442.33,-995 446.17,-995 446.17,-995 632.83,-995 632.83,-995 636.67,-995 640.5,-998.83 640.5,-1002.67 640.5,-1002.67 640.5,-1010.33 640.5,-1010.33 640.5,-1014.17 636.67,-1018 632.83,-1018"/>
<text text-anchor="middle" x="539.5" y="-1002.8" font-family="Arial" font-size="14.00" fill="#c6c5fe">../components/LobbyStatus.tsx</text>
</g>
<!-- ../lib/roleUtils.ts -->
<g id="node13" class="node">
<title>../lib/roleUtils.ts</title>
<path fill="none" stroke="#c6c5fe" d="M889.33,-1018C889.33,-1018 796.67,-1018 796.67,-1018 792.83,-1018 789,-1014.17 789,-1010.33 789,-1010.33 789,-1002.67 789,-1002.67 789,-998.83 792.83,-995 796.67,-995 796.67,-995 889.33,-995 889.33,-995 893.17,-995 897,-998.83 897,-1002.67 897,-1002.67 897,-1010.33 897,-1010.33 897,-1014.17 893.17,-1018 889.33,-1018"/>
<text text-anchor="middle" x="843" y="-1002.8" font-family="Arial" font-size="14.00" fill="#c6c5fe">../lib/roleUtils.ts</text>
</g>
<!-- ../components/LobbyStatus.tsx&#45;&gt;../lib/roleUtils.ts -->
<g id="edge5" class="edge">
<title>../components/LobbyStatus.tsx&#45;&gt;../lib/roleUtils.ts</title>
<path fill="none" stroke="#757575" d="M640.9,-1006.5C686.44,-1006.5 738.91,-1006.5 778.83,-1006.5"/>
<polygon fill="#757575" stroke="#757575" points="778.96,-1010 788.96,-1006.5 778.96,-1003 778.96,-1010"/>
</g>
<!-- ../components/LobbyStatus.tsx&#45;&gt;../lib/supabaseClient.ts -->
<g id="edge6" class="edge">
<title>../components/LobbyStatus.tsx&#45;&gt;../lib/supabaseClient.ts</title>
<path fill="none" stroke="#757575" d="M573.91,-994.96C601.45,-984.66 640.89,-968.05 672,-947.5 734.47,-906.24 796.07,-841.86 824.97,-809.88"/>
<polygon fill="#757575" stroke="#757575" points="827.85,-811.91 831.91,-802.12 822.63,-807.24 827.85,-811.91"/>
</g>
<!-- ../lib/roleUtils.ts&#45;&gt;../lib/types.ts -->
<g id="edge29" class="edge">
<title>../lib/roleUtils.ts&#45;&gt;../lib/types.ts</title>
<path fill="none" stroke="#757575" d="M897.01,-1000.47C922.12,-996.55 952.19,-990.29 978,-980.5 1002.23,-971.31 1027.43,-955.94 1045.23,-943.94"/>
<polygon fill="#757575" stroke="#757575" points="1047.57,-946.58 1053.82,-938.03 1043.6,-940.82 1047.57,-946.58"/>
</g>
<!-- ../components/LogoSelector.tsx -->
<g id="node15" class="node">
<title>../components/LogoSelector.tsx</title>
<path fill="none" stroke="#c6c5fe" d="M634.83,-445C634.83,-445 444.17,-445 444.17,-445 440.33,-445 436.5,-441.17 436.5,-437.33 436.5,-437.33 436.5,-429.67 436.5,-429.67 436.5,-425.83 440.33,-422 444.17,-422 444.17,-422 634.83,-422 634.83,-422 638.67,-422 642.5,-425.83 642.5,-429.67 642.5,-429.67 642.5,-437.33 642.5,-437.33 642.5,-441.17 638.67,-445 634.83,-445"/>
<text text-anchor="middle" x="539.5" y="-429.8" font-family="Arial" font-size="14.00" fill="#c6c5fe">../components/LogoSelector.tsx</text>
</g>
<!-- ../components/LogoSelector.tsx&#45;&gt;../components/ChromaLogo.tsx -->
<g id="edge7" class="edge">
<title>../components/LogoSelector.tsx&#45;&gt;../components/ChromaLogo.tsx</title>
<path fill="none" stroke="#757575" d="M642.57,-433.5C670.62,-433.5 701.18,-433.5 729.76,-433.5"/>
<polygon fill="#757575" stroke="#757575" points="729.77,-437 739.77,-433.5 729.77,-430 729.77,-437"/>
</g>
<!-- ../components/LogoSelector.tsx&#45;&gt;../lib/supabaseClient.ts -->
<g id="edge8" class="edge">
<title>../components/LogoSelector.tsx&#45;&gt;../lib/supabaseClient.ts</title>
<path fill="none" stroke="#757575" d="M642.61,-439.91C653.69,-444.38 663.87,-450.69 672,-459.5 766.38,-561.74 611.24,-670.5 708,-770.5 720.83,-783.76 738.39,-790.78 756.57,-794.12"/>
<polygon fill="#757575" stroke="#757575" points="756.3,-797.62 766.7,-795.62 757.32,-790.7 756.3,-797.62"/>
</g>
<!-- ../components/OptimizedFlagSelector.tsx -->
<g id="node16" class="node">
<title>../components/OptimizedFlagSelector.tsx</title>
<path fill="none" stroke="#c6c5fe" d="M664.33,-324C664.33,-324 414.67,-324 414.67,-324 410.83,-324 407,-320.17 407,-316.33 407,-316.33 407,-308.67 407,-308.67 407,-304.83 410.83,-301 414.67,-301 414.67,-301 664.33,-301 664.33,-301 668.17,-301 672,-304.83 672,-308.67 672,-308.67 672,-316.33 672,-316.33 672,-320.17 668.17,-324 664.33,-324"/>
<text text-anchor="middle" x="539.5" y="-308.8" font-family="Arial" font-size="14.00" fill="#c6c5fe">../components/OptimizedFlagSelector.tsx</text>
</g>
<!-- ../components/OptimizedFlagSelector.tsx&#45;&gt;../components/Flag.tsx -->
<g id="edge9" class="edge">
<title>../components/OptimizedFlagSelector.tsx&#45;&gt;../components/Flag.tsx</title>
<path fill="none" stroke="#757575" d="M672.3,-312.5C700.7,-312.5 730.01,-312.5 756.11,-312.5"/>
<polygon fill="#757575" stroke="#757575" points="756.33,-316 766.33,-312.5 756.33,-309 756.33,-316"/>
</g>
<!-- ../components/ParticipantTile.tsx -->
<g id="node17" class="node">
<title>../components/ParticipantTile.tsx</title>
<path fill="none" stroke="#c6c5fe" d="M1367.33,-444C1367.33,-444 1170.67,-444 1170.67,-444 1166.83,-444 1163,-440.17 1163,-436.33 1163,-436.33 1163,-428.67 1163,-428.67 1163,-424.83 1166.83,-421 1170.67,-421 1170.67,-421 1367.33,-421 1367.33,-421 1371.17,-421 1375,-424.83 1375,-428.67 1375,-428.67 1375,-436.33 1375,-436.33 1375,-440.17 1371.17,-444 1367.33,-444"/>
<text text-anchor="middle" x="1269" y="-428.8" font-family="Arial" font-size="14.00" fill="#c6c5fe">../components/ParticipantTile.tsx</text>
</g>
<!-- ../components/ParticipantTile.tsx&#45;&gt;../lib/types/supabase.ts -->
<g id="edge10" class="edge">
<title>../components/ParticipantTile.tsx&#45;&gt;../lib/types/supabase.ts</title>
<path fill="none" stroke="#757575" d="M1302.02,-444.16C1340.11,-458.02 1403.79,-481.21 1445.6,-496.43"/>
<polygon fill="#757575" stroke="#757575" points="1444.61,-499.79 1455.2,-499.92 1447,-493.21 1444.61,-499.79"/>
</g>
<!-- ../components/PasswordModal.tsx -->
<g id="node18" class="node">
<title>../components/PasswordModal.tsx</title>
<path fill="none" stroke="#cfffac" d="M363.33,-146C363.33,-146 154.67,-146 154.67,-146 150.83,-146 147,-142.17 147,-138.33 147,-138.33 147,-130.67 147,-130.67 147,-126.83 150.83,-123 154.67,-123 154.67,-123 363.33,-123 363.33,-123 367.17,-123 371,-126.83 371,-130.67 371,-130.67 371,-138.33 371,-138.33 371,-142.17 367.17,-146 363.33,-146"/>
<text text-anchor="middle" x="259" y="-130.8" font-family="Arial" font-size="14.00" fill="#cfffac">../components/PasswordModal.tsx</text>
</g>
<!-- ../components/ReactBits/AnimatedList.tsx -->
<g id="node19" class="node">
<title>../components/ReactBits/AnimatedList.tsx</title>
<path fill="none" stroke="#cfffac" d="M968.83,-146C968.83,-146 717.17,-146 717.17,-146 713.33,-146 709.5,-142.17 709.5,-138.33 709.5,-138.33 709.5,-130.67 709.5,-130.67 709.5,-126.83 713.33,-123 717.17,-123 717.17,-123 968.83,-123 968.83,-123 972.67,-123 976.5,-126.83 976.5,-130.67 976.5,-130.67 976.5,-138.33 976.5,-138.33 976.5,-142.17 972.67,-146 968.83,-146"/>
<text text-anchor="middle" x="843" y="-130.8" font-family="Arial" font-size="14.00" fill="#cfffac">../components/ReactBits/AnimatedList.tsx</text>
</g>
<!-- ../components/ReactBits/Dock.tsx -->
<g id="node20" class="node">
<title>../components/ReactBits/Dock.tsx</title>
<path fill="none" stroke="#cfffac" d="M944.83,-105C944.83,-105 741.17,-105 741.17,-105 737.33,-105 733.5,-101.17 733.5,-97.33 733.5,-97.33 733.5,-89.67 733.5,-89.67 733.5,-85.83 737.33,-82 741.17,-82 741.17,-82 944.83,-82 944.83,-82 948.67,-82 952.5,-85.83 952.5,-89.67 952.5,-89.67 952.5,-97.33 952.5,-97.33 952.5,-101.17 948.67,-105 944.83,-105"/>
<text text-anchor="middle" x="843" y="-89.8" font-family="Arial" font-size="14.00" fill="#cfffac">../components/ReactBits/Dock.tsx</text>
</g>
<!-- ../components/ReactBits/PixelCard.tsx -->
<g id="node21" class="node">
<title>../components/ReactBits/PixelCard.tsx</title>
<path fill="none" stroke="#cfffac" d="M958.83,-64C958.83,-64 727.17,-64 727.17,-64 723.33,-64 719.5,-60.17 719.5,-56.33 719.5,-56.33 719.5,-48.67 719.5,-48.67 719.5,-44.83 723.33,-41 727.17,-41 727.17,-41 958.83,-41 958.83,-41 962.67,-41 966.5,-44.83 966.5,-48.67 966.5,-48.67 966.5,-56.33 966.5,-56.33 966.5,-60.17 962.67,-64 958.83,-64"/>
<text text-anchor="middle" x="843" y="-48.8" font-family="Arial" font-size="14.00" fill="#cfffac">../components/ReactBits/PixelCard.tsx</text>
</g>
<!-- ../components/ReactBits/SpotlightCard.tsx -->
<g id="node22" class="node">
<title>../components/ReactBits/SpotlightCard.tsx</title>
<path fill="none" stroke="#cfffac" d="M970.33,-23C970.33,-23 715.67,-23 715.67,-23 711.83,-23 708,-19.17 708,-15.33 708,-15.33 708,-7.67 708,-7.67 708,-3.83 711.83,0 715.67,0 715.67,0 970.33,0 970.33,0 974.17,0 978,-3.83 978,-7.67 978,-7.67 978,-15.33 978,-15.33 978,-19.17 974.17,-23 970.33,-23"/>
<text text-anchor="middle" x="843" y="-7.8" font-family="Arial" font-size="14.00" fill="#cfffac">../components/ReactBits/SpotlightCard.tsx</text>
</g>
<!-- ../components/ReactBits/index.ts -->
<g id="node23" class="node">
<title>../components/ReactBits/index.ts</title>
<path fill="none" stroke="#c6c5fe" d="M638.83,-105C638.83,-105 440.17,-105 440.17,-105 436.33,-105 432.5,-101.17 432.5,-97.33 432.5,-97.33 432.5,-89.67 432.5,-89.67 432.5,-85.83 436.33,-82 440.17,-82 440.17,-82 638.83,-82 638.83,-82 642.67,-82 646.5,-85.83 646.5,-89.67 646.5,-89.67 646.5,-97.33 646.5,-97.33 646.5,-101.17 642.67,-105 638.83,-105"/>
<text text-anchor="middle" x="539.5" y="-89.8" font-family="Arial" font-size="14.00" fill="#c6c5fe">../components/ReactBits/index.ts</text>
</g>
<!-- ../components/ReactBits/index.ts&#45;&gt;../components/ReactBits/AnimatedList.tsx -->
<g id="edge11" class="edge">
<title>../components/ReactBits/index.ts&#45;&gt;../components/ReactBits/AnimatedList.tsx</title>
<path fill="none" stroke="#757575" d="M625.29,-105.03C663.18,-110.18 708,-116.28 747.02,-121.58"/>
<polygon fill="#757575" stroke="#757575" points="746.95,-125.11 757.33,-122.99 747.89,-118.17 746.95,-125.11"/>
</g>
<!-- ../components/ReactBits/index.ts&#45;&gt;../components/ReactBits/Dock.tsx -->
<g id="edge12" class="edge">
<title>../components/ReactBits/index.ts&#45;&gt;../components/ReactBits/Dock.tsx</title>
<path fill="none" stroke="#757575" d="M646.8,-93.5C671.46,-93.5 697.86,-93.5 723.03,-93.5"/>
<polygon fill="#757575" stroke="#757575" points="723.35,-97 733.35,-93.5 723.35,-90 723.35,-97"/>
</g>
<!-- ../components/ReactBits/index.ts&#45;&gt;../components/ReactBits/PixelCard.tsx -->
<g id="edge13" class="edge">
<title>../components/ReactBits/index.ts&#45;&gt;../components/ReactBits/PixelCard.tsx</title>
<path fill="none" stroke="#757575" d="M625.29,-81.97C663.18,-76.82 708,-70.72 747.02,-65.42"/>
<polygon fill="#757575" stroke="#757575" points="747.89,-68.83 757.33,-64.01 746.95,-61.89 747.89,-68.83"/>
</g>
<!-- ../components/ReactBits/index.ts&#45;&gt;../components/ReactBits/SpotlightCard.tsx -->
<g id="edge14" class="edge">
<title>../components/ReactBits/index.ts&#45;&gt;../components/ReactBits/SpotlightCard.tsx</title>
<path fill="none" stroke="#757575" d="M566.65,-81.89C599.16,-67.92 656.64,-44.69 708,-31.5 717.57,-29.04 727.6,-26.85 737.7,-24.91"/>
<polygon fill="#757575" stroke="#757575" points="738.59,-28.3 747.79,-23.05 737.32,-21.42 738.59,-28.3"/>
</g>
<!-- ../components/VideoCall.tsx -->
<g id="node24" class="node">
<title>../components/VideoCall.tsx</title>
<path fill="none" stroke="#c6c5fe" d="M343.83,-422C343.83,-422 174.17,-422 174.17,-422 170.33,-422 166.5,-418.17 166.5,-414.33 166.5,-414.33 166.5,-406.67 166.5,-406.67 166.5,-402.83 170.33,-399 174.17,-399 174.17,-399 343.83,-399 343.83,-399 347.67,-399 351.5,-402.83 351.5,-406.67 351.5,-406.67 351.5,-414.33 351.5,-414.33 351.5,-418.17 347.67,-422 343.83,-422"/>
<text text-anchor="middle" x="259" y="-406.8" font-family="Arial" font-size="14.00" fill="#c6c5fe">../components/VideoCall.tsx</text>
</g>
<!-- ../components/VideoCall.tsx&#45;&gt;../lib/types/supabase.ts -->
<g id="edge19" class="edge">
<title>../components/VideoCall.tsx&#45;&gt;../lib/types/supabase.ts</title>
<path fill="none" stroke="#757575" d="M351.56,-419.92C358.25,-421.75 364.8,-423.93 371,-426.5 389.47,-434.17 388.49,-445.93 407,-453.5 587.54,-527.3 646.96,-511.5 842,-511.5 842,-511.5 842,-511.5 1071.5,-511.5 1185.35,-511.5 1316.76,-511.5 1400.79,-511.5"/>
<polygon fill="#757575" stroke="#757575" points="1400.8,-515 1410.8,-511.5 1400.8,-508 1400.8,-515"/>
</g>
<!-- ../components/VideoCall.tsx&#45;&gt;../lib/mutations.ts -->
<g id="edge17" class="edge">
<title>../components/VideoCall.tsx&#45;&gt;../lib/mutations.ts</title>
<path fill="none" stroke="#757575" d="M350.55,-422.05C358.12,-425.76 365.11,-430.49 371,-436.5 424.75,-491.35 359.68,-545.01 407,-605.5 425.6,-629.28 455.29,-644.77 481.75,-654.55"/>
<polygon fill="#757575" stroke="#757575" points="480.74,-657.9 491.33,-657.9 483.05,-651.3 480.74,-657.9"/>
</g>
<!-- ../components/VideoCall.tsx&#45;&gt;../components/ControlsBar.tsx -->
<g id="edge15" class="edge">
<title>../components/VideoCall.tsx&#45;&gt;../components/ControlsBar.tsx</title>
<path fill="none" stroke="#757575" d="M347.02,-422.09C355.72,-425.74 363.93,-430.45 371,-436.5 403.41,-464.26 374.11,-498.31 407,-525.5 414.11,-531.38 422.18,-536.06 430.73,-539.78"/>
<polygon fill="#757575" stroke="#757575" points="429.59,-543.09 440.18,-543.44 432.12,-536.56 429.59,-543.09"/>
</g>
<!-- ../components/VideoCall.tsx&#45;&gt;../lib/supabaseClient.ts -->
<g id="edge18" class="edge">
<title>../components/VideoCall.tsx&#45;&gt;../lib/supabaseClient.ts</title>
<path fill="none" stroke="#757575" d="M351.65,-414.41C358.71,-417.39 365.3,-421.34 371,-426.5 420.24,-471.04 360.98,-523.63 407,-571.5 492,-659.92 585.09,-561.95 672,-648.5 712.06,-688.39 665.35,-733.39 708,-770.5 721.63,-782.35 739.13,-788.9 756.96,-792.25"/>
<polygon fill="#757575" stroke="#757575" points="756.46,-795.71 766.88,-793.79 757.54,-788.8 756.46,-795.71"/>
</g>
<!-- ../components/VideoCall.tsx&#45;&gt;../components/ParticipantTile.tsx -->
<g id="edge16" class="edge">
<title>../components/VideoCall.tsx&#45;&gt;../components/ParticipantTile.tsx</title>
<path fill="none" stroke="#757575" d="M351.56,-408.82C488.06,-406.76 752.99,-404.44 978,-412.5 1035.57,-414.56 1099.45,-418.76 1152.58,-422.78"/>
<polygon fill="#757575" stroke="#757575" points="1152.47,-426.29 1162.71,-423.56 1153,-419.31 1152.47,-426.29"/>
</g>
<!-- ../lib/dailyTokenManager.ts&#45;&gt;../lib/types.ts -->
<g id="edge20" class="edge">
<title>../lib/dailyTokenManager.ts&#45;&gt;../lib/types.ts</title>
<path fill="none" stroke="#757575" d="M931.85,-751.95C948.18,-755.45 964.38,-761.22 978,-770.5 1026.01,-803.19 1052.41,-870.09 1063.36,-904.69"/>
<polygon fill="#757575" stroke="#757575" points="1060.15,-906.14 1066.39,-914.71 1066.85,-904.12 1060.15,-906.14"/>
</g>
<!-- ../lib/types/index.ts -->
<g id="node31" class="node">
<title>../lib/types/index.ts</title>
<path fill="none" stroke="#c6c5fe" d="M1325.33,-809C1325.33,-809 1212.67,-809 1212.67,-809 1208.83,-809 1205,-805.17 1205,-801.33 1205,-801.33 1205,-793.67 1205,-793.67 1205,-789.83 1208.83,-786 1212.67,-786 1212.67,-786 1325.33,-786 1325.33,-786 1329.17,-786 1333,-789.83 1333,-793.67 1333,-793.67 1333,-801.33 1333,-801.33 1333,-805.17 1329.17,-809 1325.33,-809"/>
<text text-anchor="middle" x="1269" y="-793.8" font-family="Arial" font-size="14.00" fill="#c6c5fe">../lib/types/index.ts</text>
</g>
<!-- ../lib/types.ts&#45;&gt;../lib/types/index.ts -->
<g id="edge31" class="edge">
<title>../lib/types.ts&#45;&gt;../lib/types/index.ts</title>
<path fill="none" stroke="#757575" d="M1089.28,-914.82C1124.07,-891.99 1201.23,-841.33 1241.84,-814.67"/>
<polygon fill="#757575" stroke="#757575" points="1243.96,-817.47 1250.4,-809.06 1240.12,-811.62 1243.96,-817.47"/>
</g>
<!-- ../lib/presence.ts -->
<g id="node28" class="node">
<title>../lib/presence.ts</title>
<path fill="none" stroke="#c6c5fe" d="M308.83,-862C308.83,-862 209.17,-862 209.17,-862 205.33,-862 201.5,-858.17 201.5,-854.33 201.5,-854.33 201.5,-846.67 201.5,-846.67 201.5,-842.83 205.33,-839 209.17,-839 209.17,-839 308.83,-839 308.83,-839 312.67,-839 316.5,-842.83 316.5,-846.67 316.5,-846.67 316.5,-854.33 316.5,-854.33 316.5,-858.17 312.67,-862 308.83,-862"/>
<text text-anchor="middle" x="259" y="-846.8" font-family="Arial" font-size="14.00" fill="#c6c5fe">../lib/presence.ts</text>
</g>
<!-- ../lib/presence.ts&#45;&gt;../lib/mutations.ts -->
<g id="edge25" class="edge">
<title>../lib/presence.ts&#45;&gt;../lib/mutations.ts</title>
<path fill="none" stroke="#757575" d="M284.37,-838.79C307.23,-827.52 342.14,-809.56 371,-791.5 424.8,-757.84 484,-712.64 515.6,-687.78"/>
<polygon fill="#757575" stroke="#757575" points="518.08,-690.28 523.76,-681.34 513.74,-684.79 518.08,-690.28"/>
</g>
<!-- ../lib/presence.ts&#45;&gt;../lib/supabaseClient.ts -->
<g id="edge26" class="edge">
<title>../lib/presence.ts&#45;&gt;../lib/supabaseClient.ts</title>
<path fill="none" stroke="#757575" d="M316.61,-850.73C396.29,-850.35 545.91,-847.04 672,-829.5 712.36,-823.89 757.27,-813.4 790.79,-804.71"/>
<polygon fill="#757575" stroke="#757575" points="792.02,-808 800.81,-802.08 790.24,-801.23 792.02,-808"/>
</g>
<!-- ../lib/realtimeHooks.ts -->
<g id="node29" class="node">
<title>../lib/realtimeHooks.ts</title>
<path fill="none" stroke="#c6c5fe" d="M604.83,-938C604.83,-938 474.17,-938 474.17,-938 470.33,-938 466.5,-934.17 466.5,-930.33 466.5,-930.33 466.5,-922.67 466.5,-922.67 466.5,-918.83 470.33,-915 474.17,-915 474.17,-915 604.83,-915 604.83,-915 608.67,-915 612.5,-918.83 612.5,-922.67 612.5,-922.67 612.5,-930.33 612.5,-930.33 612.5,-934.17 608.67,-938 604.83,-938"/>
<text text-anchor="middle" x="539.5" y="-922.8" font-family="Arial" font-size="14.00" fill="#c6c5fe">../lib/realtimeHooks.ts</text>
</g>
<!-- ../lib/realtimeHooks.ts&#45;&gt;../lib/supabaseClient.ts -->
<g id="edge27" class="edge">
<title>../lib/realtimeHooks.ts&#45;&gt;../lib/supabaseClient.ts</title>
<path fill="none" stroke="#757575" d="M612.57,-917.34C632.28,-913.47 653.34,-908.06 672,-900.5 729.78,-877.1 789.08,-833.34 820.07,-808.65"/>
<polygon fill="#757575" stroke="#757575" points="822.45,-811.23 828.04,-802.23 818.06,-805.78 822.45,-811.23"/>
</g>
<!-- ../lib/realtimeHooks.ts&#45;&gt;../lib/types.ts -->
<g id="edge28" class="edge">
<title>../lib/realtimeHooks.ts&#45;&gt;../lib/types.ts</title>
<path fill="none" stroke="#757575" d="M612.67,-926.5C719.6,-926.5 917.84,-926.5 1014.13,-926.5"/>
<polygon fill="#757575" stroke="#757575" points="1014.24,-930 1024.24,-926.5 1014.24,-923 1014.24,-930"/>
</g>
<!-- ../lib/sessionHooks.ts -->
<g id="node30" class="node">
<title>../lib/sessionHooks.ts</title>
<path fill="none" stroke="#c6c5fe" d="M603.33,-820C603.33,-820 475.67,-820 475.67,-820 471.83,-820 468,-816.17 468,-812.33 468,-812.33 468,-804.67 468,-804.67 468,-800.83 471.83,-797 475.67,-797 475.67,-797 603.33,-797 603.33,-797 607.17,-797 611,-800.83 611,-804.67 611,-804.67 611,-812.33 611,-812.33 611,-816.17 607.17,-820 603.33,-820"/>
<text text-anchor="middle" x="539.5" y="-804.8" font-family="Arial" font-size="14.00" fill="#c6c5fe">../lib/sessionHooks.ts</text>
</g>
<!-- ../lib/sessionHooks.ts&#45;&gt;../lib/supabaseClient.ts -->
<g id="edge30" class="edge">
<title>../lib/sessionHooks.ts&#45;&gt;../lib/supabaseClient.ts</title>
<path fill="none" stroke="#757575" d="M611.19,-804.28C654.64,-801.69 710.58,-798.35 756.51,-795.6"/>
<polygon fill="#757575" stroke="#757575" points="756.98,-799.08 766.75,-794.99 756.56,-792.09 756.98,-799.08"/>
</g>
<!-- ../lib/types/index.ts&#45;&gt;../lib/types/supabase.ts -->
<g id="edge32" class="edge">
<title>../lib/types/index.ts&#45;&gt;../lib/types/supabase.ts</title>
<path fill="none" stroke="#757575" d="M1278.78,-785.93C1311.97,-742.19 1430.07,-586.53 1472.06,-531.2"/>
<polygon fill="#757575" stroke="#757575" points="1474.86,-533.29 1478.12,-523.21 1469.28,-529.06 1474.86,-533.29"/>
</g>
<!-- ../lib/useSessionData.ts -->
<g id="node32" class="node">
<title>../lib/useSessionData.ts</title>
<path fill="none" stroke="#c6c5fe" d="M330.33,-664C330.33,-664 187.67,-664 187.67,-664 183.83,-664 180,-660.17 180,-656.33 180,-656.33 180,-648.67 180,-648.67 180,-644.83 183.83,-641 187.67,-641 187.67,-641 330.33,-641 330.33,-641 334.17,-641 338,-644.83 338,-648.67 338,-648.67 338,-656.33 338,-656.33 338,-660.17 334.17,-664 330.33,-664"/>
<text text-anchor="middle" x="259" y="-648.8" font-family="Arial" font-size="14.00" fill="#c6c5fe">../lib/useSessionData.ts</text>
</g>
<!-- ../lib/useSessionData.ts&#45;&gt;../lib/mutations.ts -->
<g id="edge33" class="edge">
<title>../lib/useSessionData.ts&#45;&gt;../lib/mutations.ts</title>
<path fill="none" stroke="#757575" d="M338.32,-657.28C379.61,-659.8 429.81,-662.87 469.61,-665.29"/>
<polygon fill="#757575" stroke="#757575" points="469.56,-668.8 479.75,-665.91 469.98,-661.81 469.56,-668.8"/>
</g>
<!-- GameSetup.tsx -->
<g id="node33" class="node">
<title>GameSetup.tsx</title>
<path fill="none" stroke="#c6c5fe" d="M103.33,-783C103.33,-783 7.67,-783 7.67,-783 3.83,-783 0,-779.17 0,-775.33 0,-775.33 0,-767.67 0,-767.67 0,-763.83 3.83,-760 7.67,-760 7.67,-760 103.33,-760 103.33,-760 107.17,-760 111,-763.83 111,-767.67 111,-767.67 111,-775.33 111,-775.33 111,-779.17 107.17,-783 103.33,-783"/>
<text text-anchor="middle" x="55.5" y="-767.8" font-family="Arial" font-size="14.00" fill="#c6c5fe">GameSetup.tsx</text>
</g>
<!-- GameSetup.tsx&#45;&gt;../atoms/index.ts -->
<g id="edge34" class="edge">
<title>GameSetup.tsx&#45;&gt;../atoms/index.ts</title>
<path fill="none" stroke="#757575" d="M60.39,-759.77C70.13,-732.34 98.34,-663.91 147,-631.5 159.9,-622.91 175.44,-617.72 190.74,-614.64"/>
<polygon fill="#757575" stroke="#757575" points="191.48,-618.07 200.74,-612.92 190.29,-611.17 191.48,-618.07"/>
</g>
<!-- GameSetup.tsx&#45;&gt;../lib/mutations.ts -->
<g id="edge37" class="edge">
<title>GameSetup.tsx&#45;&gt;../lib/mutations.ts</title>
<path fill="none" stroke="#757575" d="M105.3,-759.95C118.79,-756.82 133.45,-753.47 147,-750.5 260.22,-725.66 392.33,-698.76 470.5,-683.05"/>
<polygon fill="#757575" stroke="#757575" points="471.58,-686.41 480.7,-681.01 470.2,-679.54 471.58,-686.41"/>
</g>
<!-- GameSetup.tsx&#45;&gt;../components/Alert.tsx -->
<g id="edge35" class="edge">
<title>GameSetup.tsx&#45;&gt;../components/Alert.tsx</title>
<path fill="none" stroke="#757575" d="M60.76,-759.88C71.01,-731.53 97.18,-656.32 111,-591.5 124.26,-529.28 101.25,-351.7 147,-307.5 168.43,-286.8 342.77,-277.59 451.46,-273.82"/>
<polygon fill="#757575" stroke="#757575" points="451.89,-277.31 461.76,-273.48 451.65,-270.32 451.89,-277.31"/>
</g>
<!-- GameSetup.tsx&#45;&gt;../components/LobbyStatus.tsx -->
<g id="edge36" class="edge">
<title>GameSetup.tsx&#45;&gt;../components/LobbyStatus.tsx</title>
<path fill="none" stroke="#757575" d="M58.52,-783.17C64.87,-815.88 87.6,-908.89 147,-951.5 228.19,-1009.74 343.65,-1019.53 428.14,-1017.14"/>
<polygon fill="#757575" stroke="#757575" points="428.42,-1020.63 438.29,-1016.79 428.18,-1013.63 428.42,-1020.63"/>
</g>
<!-- GameSetup.tsx&#45;&gt;../lib/supabaseClient.ts -->
<g id="edge39" class="edge">
<title>GameSetup.tsx&#45;&gt;../lib/supabaseClient.ts</title>
<path fill="none" stroke="#757575" d="M62.55,-783.01C74.92,-805.15 105.48,-853.08 147,-871.5 202.45,-896.1 664.74,-854.02 672,-852.5 720.7,-842.31 774.2,-821 807.93,-806.23"/>
<polygon fill="#757575" stroke="#757575" points="809.6,-809.32 817.32,-802.06 806.76,-802.92 809.6,-809.32"/>
</g>
<!-- GameSetup.tsx&#45;&gt;../lib/types.ts -->
<g id="edge40" class="edge">
<title>GameSetup.tsx&#45;&gt;../lib/types.ts</title>
<path fill="none" stroke="#757575" d="M57.18,-783.05C60.11,-820.99 74.96,-942.46 147,-997.5 276.38,-1096.34 831.59,-1092.42 978,-1027.5 1015.04,-1011.07 1043.48,-971.42 1058.24,-946.97"/>
<polygon fill="#757575" stroke="#757575" points="1061.38,-948.53 1063.38,-938.13 1055.33,-945.01 1061.38,-948.53"/>
</g>
<!-- GameSetup.tsx&#45;&gt;../lib/presence.ts -->
<g id="edge38" class="edge">
<title>GameSetup.tsx&#45;&gt;../lib/presence.ts</title>
<path fill="none" stroke="#757575" d="M72.74,-783.04C90.28,-795.02 119.44,-813.49 147,-824.5 160.96,-830.08 176.41,-834.63 191.24,-838.28"/>
<polygon fill="#757575" stroke="#757575" points="190.84,-841.79 201.38,-840.67 192.45,-834.97 190.84,-841.79"/>
</g>
<!-- GameSetup.tsx&#45;&gt;../lib/useSessionData.ts -->
<g id="edge41" class="edge">
<title>GameSetup.tsx&#45;&gt;../lib/useSessionData.ts</title>
<path fill="none" stroke="#757575" d="M64.46,-759.71C78.61,-739.73 110.13,-699.34 147,-678.5 155.12,-673.91 164.01,-670.13 173.12,-667.01"/>
<polygon fill="#757575" stroke="#757575" points="174.18,-670.35 182.66,-664 172.07,-663.67 174.18,-670.35"/>
</g>
<!-- Homepage.tsx -->
<g id="node34" class="node">
<title>Homepage.tsx</title>
<path fill="none" stroke="#c6c5fe" d="M99.83,-362C99.83,-362 11.17,-362 11.17,-362 7.33,-362 3.5,-358.17 3.5,-354.33 3.5,-354.33 3.5,-346.67 3.5,-346.67 3.5,-342.83 7.33,-339 11.17,-339 11.17,-339 99.83,-339 99.83,-339 103.67,-339 107.5,-342.83 107.5,-346.67 107.5,-346.67 107.5,-354.33 107.5,-354.33 107.5,-358.17 103.67,-362 99.83,-362"/>
<text text-anchor="middle" x="55.5" y="-346.8" font-family="Arial" font-size="14.00" fill="#c6c5fe">Homepage.tsx</text>
</g>
<!-- Homepage.tsx&#45;&gt;../components/ActiveGames.tsx -->
<g id="edge42" class="edge">
<title>Homepage.tsx&#45;&gt;../components/ActiveGames.tsx</title>
<path fill="none" stroke="#757575" d="M62.38,-362.34C74.66,-385.78 105.38,-438.12 147,-464.5 153.89,-468.87 161.45,-472.51 169.27,-475.53"/>
<polygon fill="#757575" stroke="#757575" points="168.32,-478.91 178.91,-478.93 170.64,-472.31 168.32,-478.91"/>
</g>
<!-- Homepage.tsx&#45;&gt;../lib/mutations.ts -->
<g id="edge45" class="edge">
<title>Homepage.tsx&#45;&gt;../lib/mutations.ts</title>
<path fill="none" stroke="#757575" d="M65.94,-362.25C81.03,-380.14 112.41,-413.87 147,-430.5 238.07,-474.28 296.53,-401.2 371,-469.5 417.08,-511.76 367.28,-557.21 407,-605.5 426.46,-629.16 456.8,-644.74 483.43,-654.59"/>
<polygon fill="#757575" stroke="#757575" points="482.45,-657.96 493.05,-657.97 484.77,-651.36 482.45,-657.96"/>
</g>
<!-- Homepage.tsx&#45;&gt;../components/Alert.tsx -->
<g id="edge43" class="edge">
<title>Homepage.tsx&#45;&gt;../components/Alert.tsx</title>
<path fill="none" stroke="#757575" d="M65.54,-338.94C80.32,-321.1 111.58,-287.55 147,-274.5 254.34,-234.94 389.75,-246.1 469.94,-258.39"/>
<polygon fill="#757575" stroke="#757575" points="469.49,-261.86 479.91,-259.97 470.58,-254.95 469.49,-261.86"/>
</g>
<!-- Homepage.tsx&#45;&gt;../components/PasswordModal.tsx -->
<g id="edge44" class="edge">
<title>Homepage.tsx&#45;&gt;../components/PasswordModal.tsx</title>
<path fill="none" stroke="#757575" d="M58.43,-338.96C64.63,-305.65 87.25,-208.64 147,-160.5 151.96,-156.51 157.42,-153.11 163.18,-150.21"/>
<polygon fill="#757575" stroke="#757575" points="164.75,-153.35 172.46,-146.07 161.9,-146.95 164.75,-153.35"/>
</g>
<!-- Join.backup.tsx -->
<g id="node35" class="node">
<title>Join.backup.tsx</title>
<path fill="none" stroke="#c6c5fe" d="M306.33,-381C306.33,-381 211.67,-381 211.67,-381 207.83,-381 204,-377.17 204,-373.33 204,-373.33 204,-365.67 204,-365.67 204,-361.83 207.83,-358 211.67,-358 211.67,-358 306.33,-358 306.33,-358 310.17,-358 314,-361.83 314,-365.67 314,-365.67 314,-373.33 314,-373.33 314,-377.17 310.17,-381 306.33,-381"/>
<text text-anchor="middle" x="259" y="-365.8" font-family="Arial" font-size="14.00" fill="#c6c5fe">Join.backup.tsx</text>
</g>
<!-- Join.backup.tsx&#45;&gt;../lib/mutations.ts -->
<g id="edge49" class="edge">
<title>Join.backup.tsx&#45;&gt;../lib/mutations.ts</title>
<path fill="none" stroke="#757575" d="M314.14,-367.04C334.42,-368.96 356.13,-374.88 371,-389.5 429.8,-447.31 363,-501.76 407,-571.5 430.54,-608.82 473.77,-636.87 504.22,-653.19"/>
<polygon fill="#757575" stroke="#757575" points="502.74,-656.37 513.23,-657.88 505.97,-650.16 502.74,-656.37"/>
</g>
<!-- Join.backup.tsx&#45;&gt;../components/Alert.tsx -->
<g id="edge46" class="edge">
<title>Join.backup.tsx&#45;&gt;../components/Alert.tsx</title>
<path fill="none" stroke="#757575" d="M314.22,-368.06C333.48,-365.37 354.46,-359.75 371,-348.5 395.78,-331.65 381.92,-307.9 407,-291.5 420.36,-282.76 436.1,-277.28 451.96,-273.94"/>
<polygon fill="#757575" stroke="#757575" points="452.62,-277.38 461.82,-272.13 451.36,-270.49 452.62,-277.38"/>
</g>
<!-- Join.backup.tsx&#45;&gt;../components/FlagSelector.tsx -->
<g id="edge47" class="edge">
<title>Join.backup.tsx&#45;&gt;../components/FlagSelector.tsx</title>
<path fill="none" stroke="#757575" d="M314.03,-366.4C346.26,-364.54 388.4,-362.12 427.45,-359.88"/>
<polygon fill="#757575" stroke="#757575" points="428.05,-363.35 437.83,-359.28 427.65,-356.36 428.05,-363.35"/>
</g>
<!-- Join.backup.tsx&#45;&gt;../components/LogoSelector.tsx -->
<g id="edge48" class="edge">
<title>Join.backup.tsx&#45;&gt;../components/LogoSelector.tsx</title>
<path fill="none" stroke="#757575" d="M314.09,-378.37C332.24,-381.58 352.55,-385.42 371,-389.5 410.64,-398.26 455.07,-410.02 488.2,-419.18"/>
<polygon fill="#757575" stroke="#757575" points="487.53,-422.63 498.1,-421.93 489.4,-415.88 487.53,-422.63"/>
</g>
<!-- Join.tsx -->
<g id="node36" class="node">
<title>Join.tsx</title>
<path fill="none" stroke="#c6c5fe" d="M282.33,-340C282.33,-340 235.67,-340 235.67,-340 231.83,-340 228,-336.17 228,-332.33 228,-332.33 228,-324.67 228,-324.67 228,-320.83 231.83,-317 235.67,-317 235.67,-317 282.33,-317 282.33,-317 286.17,-317 290,-320.83 290,-324.67 290,-324.67 290,-332.33 290,-332.33 290,-336.17 286.17,-340 282.33,-340"/>
<text text-anchor="middle" x="259" y="-324.8" font-family="Arial" font-size="14.00" fill="#c6c5fe">Join.tsx</text>
</g>
<!-- Join.tsx&#45;&gt;../lib/mutations.ts -->
<g id="edge53" class="edge">
<title>Join.tsx&#45;&gt;../lib/mutations.ts</title>
<path fill="none" stroke="#757575" d="M290.25,-325.19C315.39,-324.24 350.28,-327.4 371,-348.5 441.34,-420.13 354.94,-485.66 407,-571.5 429.81,-609.12 472.99,-637.03 503.64,-653.24"/>
<polygon fill="#757575" stroke="#757575" points="502.22,-656.45 512.72,-657.9 505.42,-650.22 502.22,-656.45"/>
</g>
<!-- Join.tsx&#45;&gt;../components/Alert.tsx -->
<g id="edge50" class="edge">
<title>Join.tsx&#45;&gt;../components/Alert.tsx</title>
<path fill="none" stroke="#757575" d="M290.29,-321.98C312.68,-317.01 343.86,-309.82 371,-302.5 387.15,-298.15 390.69,-295.21 407,-291.5 421.27,-288.25 436.53,-285.39 451.42,-282.91"/>
<polygon fill="#757575" stroke="#757575" points="452.34,-286.31 461.66,-281.26 451.23,-279.4 452.34,-286.31"/>
</g>
<!-- Join.tsx&#45;&gt;../lib/supabaseClient.ts -->
<g id="edge54" class="edge">
<title>Join.tsx&#45;&gt;../lib/supabaseClient.ts</title>
<path fill="none" stroke="#757575" d="M290.36,-326.1C314.89,-325.84 348.86,-329.5 371,-348.5 408.43,-380.63 371.3,-419.45 407,-453.5 495.76,-538.14 591.27,-438.17 672,-530.5 743,-611.7 631.7,-694.26 708,-770.5 720.99,-783.48 738.51,-790.4 756.59,-793.75"/>
<polygon fill="#757575" stroke="#757575" points="756.27,-797.24 766.68,-795.27 757.3,-790.32 756.27,-797.24"/>
</g>
<!-- Join.tsx&#45;&gt;../components/OptimizedFlagSelector.tsx -->
<g id="edge51" class="edge">
<title>Join.tsx&#45;&gt;../components/OptimizedFlagSelector.tsx</title>
<path fill="none" stroke="#757575" d="M290.07,-326.77C316.32,-325.26 356.43,-322.96 396.82,-320.64"/>
<polygon fill="#757575" stroke="#757575" points="397.03,-324.13 406.81,-320.07 396.63,-317.15 397.03,-324.13"/>
</g>
<!-- Join.tsx&#45;&gt;../components/ReactBits/index.ts -->
<g id="edge52" class="edge">
<title>Join.tsx&#45;&gt;../components/ReactBits/index.ts</title>
<path fill="none" stroke="#757575" d="M273.81,-316.85C318.91,-278.79 462.1,-157.96 516.89,-111.73"/>
<polygon fill="#757575" stroke="#757575" points="519.22,-114.35 524.61,-105.22 514.71,-109 519.22,-114.35"/>
</g>
<!-- Lobby.tsx -->
<g id="node37" class="node">
<title>Lobby.tsx</title>
<path fill="none" stroke="#c6c5fe" d="M84.83,-583C84.83,-583 26.17,-583 26.17,-583 22.33,-583 18.5,-579.17 18.5,-575.33 18.5,-575.33 18.5,-567.67 18.5,-567.67 18.5,-563.83 22.33,-560 26.17,-560 26.17,-560 84.83,-560 84.83,-560 88.67,-560 92.5,-563.83 92.5,-567.67 92.5,-567.67 92.5,-575.33 92.5,-575.33 92.5,-579.17 88.67,-583 84.83,-583"/>
<text text-anchor="middle" x="55.5" y="-567.8" font-family="Arial" font-size="14.00" fill="#c6c5fe">Lobby.tsx</text>
</g>
<!-- Lobby.tsx&#45;&gt;../atoms/index.ts -->
<g id="edge55" class="edge">
<title>Lobby.tsx&#45;&gt;../atoms/index.ts</title>
<path fill="none" stroke="#757575" d="M92.52,-578.65C119.81,-584.07 158.09,-591.67 190.95,-598.19"/>
<polygon fill="#757575" stroke="#757575" points="190.47,-601.66 200.96,-600.18 191.83,-594.8 190.47,-601.66"/>
</g>
<!-- Lobby.tsx&#45;&gt;../lib/types/supabase.ts -->
<g id="edge62" class="edge">
<title>Lobby.tsx&#45;&gt;../lib/types/supabase.ts</title>
<path fill="none" stroke="#757575" d="M59.95,-559.79C68.98,-528.96 93.78,-442.96 111,-370.5 129.46,-292.82 86.45,-246.55 147,-194.5 213.06,-137.71 451.39,-174.5 538.5,-174.5 538.5,-174.5 538.5,-174.5 1071.5,-174.5 1273.72,-174.5 1432.51,-418.26 1475.47,-491.15"/>
<polygon fill="#757575" stroke="#757575" points="1472.51,-493.01 1480.55,-499.9 1478.56,-489.49 1472.51,-493.01"/>
</g>
<!-- Lobby.tsx&#45;&gt;../lib/mutations.ts -->
<g id="edge59" class="edge">
<title>Lobby.tsx&#45;&gt;../lib/mutations.ts</title>
<path fill="none" stroke="#757575" d="M92.55,-569.31C151.73,-566.67 272.7,-565.34 371,-590.5 384.96,-594.07 461.49,-631.37 506.13,-653.42"/>
<polygon fill="#757575" stroke="#757575" points="504.62,-656.58 515.13,-657.87 507.72,-650.3 504.62,-656.58"/>
</g>
<!-- Lobby.tsx&#45;&gt;../components/Flag.tsx -->
<g id="edge56" class="edge">
<title>Lobby.tsx&#45;&gt;../components/Flag.tsx</title>
<path fill="none" stroke="#757575" d="M59.64,-559.91C74.24,-506.24 135.25,-284.07 147,-274.5 347.77,-110.97 699.38,-247.83 808.64,-296.77"/>
<polygon fill="#757575" stroke="#757575" points="807.31,-300.01 817.86,-300.95 810.2,-293.64 807.31,-300.01"/>
</g>
<!-- Lobby.tsx&#45;&gt;../components/LobbyLogo.tsx -->
<g id="edge57" class="edge">
<title>Lobby.tsx&#45;&gt;../components/LobbyLogo.tsx</title>
<path fill="none" stroke="#757575" d="M92.52,-564.35C119.5,-558.99 157.22,-551.5 189.84,-545.03"/>
<polygon fill="#757575" stroke="#757575" points="190.65,-548.44 199.78,-543.06 189.29,-541.57 190.65,-548.44"/>
</g>
<!-- Lobby.tsx&#45;&gt;../lib/supabaseClient.ts -->
<g id="edge61" class="edge">
<title>Lobby.tsx&#45;&gt;../lib/supabaseClient.ts</title>
<path fill="none" stroke="#757575" d="M63.23,-583.17C76.33,-604.72 107.47,-650.57 147,-672.5 199.73,-701.75 583.15,-755.9 756.86,-779.27"/>
<polygon fill="#757575" stroke="#757575" points="756.61,-782.77 766.99,-780.63 757.55,-775.83 756.61,-782.77"/>
</g>
<!-- Lobby.tsx&#45;&gt;../components/VideoCall.tsx -->
<g id="edge58" class="edge">
<title>Lobby.tsx&#45;&gt;../components/VideoCall.tsx</title>
<path fill="none" stroke="#757575" d="M64.63,-559.88C79.27,-539.58 111.84,-497.17 147,-469.5 169.51,-451.78 198.11,-436.73 220.65,-426.26"/>
<polygon fill="#757575" stroke="#757575" points="222.24,-429.38 229.9,-422.06 219.35,-423 222.24,-429.38"/>
</g>
<!-- Lobby.tsx&#45;&gt;../lib/sessionHooks.ts -->
<g id="edge60" class="edge">
<title>Lobby.tsx&#45;&gt;../lib/sessionHooks.ts</title>
<path fill="none" stroke="#757575" d="M59.53,-583.18C70.62,-624.94 110.24,-765.7 147,-791.5 195.32,-825.41 358.04,-821.16 457.85,-814.9"/>
<polygon fill="#757575" stroke="#757575" points="458.15,-818.39 467.9,-814.25 457.7,-811.4 458.15,-818.39"/>
</g>
<!-- Lobby.tsx&#45;&gt;../lib/useSessionData.ts -->
<g id="edge63" class="edge">
<title>Lobby.tsx&#45;&gt;../lib/useSessionData.ts</title>
<path fill="none" stroke="#757575" d="M70.23,-583.18C87.15,-596.93 117.31,-619.43 147,-631.5 154.36,-634.49 162.18,-637.07 170.11,-639.28"/>
<polygon fill="#757575" stroke="#757575" points="169.27,-642.67 179.83,-641.79 171.03,-635.9 169.27,-642.67"/>
</g>
<!-- Quiz.tsx -->
<g id="node38" class="node">
<title>Quiz.tsx</title>
<path fill="none" stroke="#c6c5fe" d="M284.33,-942C284.33,-942 233.67,-942 233.67,-942 229.83,-942 226,-938.17 226,-934.33 226,-934.33 226,-926.67 226,-926.67 226,-922.83 229.83,-919 233.67,-919 233.67,-919 284.33,-919 284.33,-919 288.17,-919 292,-922.83 292,-926.67 292,-926.67 292,-934.33 292,-934.33 292,-938.17 288.17,-942 284.33,-942"/>
<text text-anchor="middle" x="259" y="-926.8" font-family="Arial" font-size="14.00" fill="#c6c5fe">Quiz.tsx</text>
</g>
<!-- Quiz.tsx&#45;&gt;../lib/mutations.ts -->
<g id="edge64" class="edge">
<title>Quiz.tsx&#45;&gt;../lib/mutations.ts</title>
<path fill="none" stroke="#757575" d="M292.15,-920.05C316.54,-910.7 349.45,-894.83 371,-871.5 398.28,-841.96 383.56,-821.17 407,-788.5 437.09,-746.55 484.17,-708.51 513.08,-687.25"/>
<polygon fill="#757575" stroke="#757575" points="515.38,-689.9 521.43,-681.2 511.27,-684.23 515.38,-689.9"/>
</g>
<!-- Quiz.tsx&#45;&gt;../lib/types.ts -->
<g id="edge67" class="edge">
<title>Quiz.tsx&#45;&gt;../lib/types.ts</title>
<path fill="none" stroke="#757575" d="M292.02,-935.28C321.74,-939.46 367.25,-945.21 407,-947.5 660.38,-962.1 725.17,-962.64 978,-940.5 989.88,-939.46 1002.56,-937.85 1014.59,-936.08"/>
<polygon fill="#757575" stroke="#757575" points="1015.14,-939.53 1024.5,-934.57 1014.08,-932.61 1015.14,-939.53"/>
</g>
<!-- Quiz.tsx&#45;&gt;../lib/realtimeHooks.ts -->
<g id="edge65" class="edge">
<title>Quiz.tsx&#45;&gt;../lib/realtimeHooks.ts</title>
<path fill="none" stroke="#757575" d="M292.22,-930.04C332.05,-929.47 401.3,-928.47 456.25,-927.68"/>
<polygon fill="#757575" stroke="#757575" points="456.38,-931.18 466.33,-927.54 456.28,-924.18 456.38,-931.18"/>
</g>
<!-- Quiz.tsx&#45;&gt;../lib/sessionHooks.ts -->
<g id="edge66" class="edge">
<title>Quiz.tsx&#45;&gt;../lib/sessionHooks.ts</title>
<path fill="none" stroke="#757575" d="M286.45,-918.91C336.77,-896.87 446.28,-848.9 502.94,-824.08"/>
<polygon fill="#757575" stroke="#757575" points="504.47,-827.23 512.22,-820.01 501.66,-820.82 504.47,-827.23"/>
</g>
<!-- Results.tsx -->
<g id="node39" class="node">
<title>Results.tsx</title>
<path fill="none" stroke="#c6c5fe" d="M292.83,-782C292.83,-782 225.17,-782 225.17,-782 221.33,-782 217.5,-778.17 217.5,-774.33 217.5,-774.33 217.5,-766.67 217.5,-766.67 217.5,-762.83 221.33,-759 225.17,-759 225.17,-759 292.83,-759 292.83,-759 296.67,-759 300.5,-762.83 300.5,-766.67 300.5,-766.67 300.5,-774.33 300.5,-774.33 300.5,-778.17 296.67,-782 292.83,-782"/>
<text text-anchor="middle" x="259" y="-766.8" font-family="Arial" font-size="14.00" fill="#c6c5fe">Results.tsx</text>
</g>
<!-- Results.tsx&#45;&gt;../lib/mutations.ts -->
<g id="edge68" class="edge">
<title>Results.tsx&#45;&gt;../lib/mutations.ts</title>
<path fill="none" stroke="#757575" d="M291.95,-758.91C342.49,-740.58 440.89,-704.9 496.89,-684.59"/>
<polygon fill="#757575" stroke="#757575" points="498.29,-687.81 506.5,-681.11 495.9,-681.23 498.29,-687.81"/>
</g>
<!-- Results.tsx&#45;&gt;../lib/supabaseClient.ts -->
<g id="edge70" class="edge">
<title>Results.tsx&#45;&gt;../lib/supabaseClient.ts</title>
<path fill="none" stroke="#757575" d="M300.93,-771.91C395.27,-775.15 629.65,-783.2 756.77,-787.57"/>
<polygon fill="#757575" stroke="#757575" points="756.74,-791.07 766.86,-787.92 756.98,-784.08 756.74,-791.07"/>
</g>
<!-- Results.tsx&#45;&gt;../lib/sessionHooks.ts -->
<g id="edge69" class="edge">
<title>Results.tsx&#45;&gt;../lib/sessionHooks.ts</title>
<path fill="none" stroke="#757575" d="M300.79,-776.07C341.87,-781.67 406.35,-790.47 457.79,-797.49"/>
<polygon fill="#757575" stroke="#757575" points="457.52,-800.98 467.9,-798.87 458.46,-794.05 457.52,-800.98"/>
</g>
</g>
</svg>
