<?xml version="1.0" encoding="UTF-8" standalone="no"?>
<!DOCTYPE svg PUBLIC "-//W3C//DTD SVG 1.1//EN"
 "http://www.w3.org/Graphics/SVG/1.1/DTD/svg11.dtd">
<!-- Generated by graphviz version 2.43.0 (0)
 -->
<!-- Title: G Pages: 1 -->
<svg width="570pt" height="336pt"
 viewBox="0.00 0.00 570.12 336.20" xmlns="http://www.w3.org/2000/svg" xmlns:xlink="http://www.w3.org/1999/xlink">
<g id="graph0" class="graph" transform="scale(1 1) rotate(0) translate(21.6 314.6)">
<title>G</title>
<polygon fill="#111111" stroke="transparent" points="-21.6,21.6 -21.6,-314.6 548.52,-314.6 548.52,21.6 -21.6,21.6"/>
<!-- App.tsx -->
<g id="node1" class="node">
<title>App.tsx</title>
<path fill="none" stroke="#c6c5fe" d="M223.2,-137.77C223.2,-137.77 176.53,-137.77 176.53,-137.77 172.7,-137.77 168.87,-133.94 168.87,-130.1 168.87,-130.1 168.87,-122.44 168.87,-122.44 168.87,-118.6 172.7,-114.77 176.53,-114.77 176.53,-114.77 223.2,-114.77 223.2,-114.77 227.03,-114.77 230.87,-118.6 230.87,-122.44 230.87,-122.44 230.87,-130.1 230.87,-130.1 230.87,-133.94 227.03,-137.77 223.2,-137.77"/>
<text text-anchor="middle" x="199.87" y="-122.57" font-family="Arial" font-size="14.00" fill="#c6c5fe">App.tsx</text>
</g>
<!-- pages/GameSetup.tsx -->
<g id="node2" class="node">
<title>pages/GameSetup.tsx</title>
<path fill="none" stroke="#c6c5fe" d="M209.79,-196.51C209.79,-196.51 73.13,-196.51 73.13,-196.51 69.29,-196.51 65.46,-192.68 65.46,-188.85 65.46,-188.85 65.46,-181.18 65.46,-181.18 65.46,-177.35 69.29,-173.51 73.13,-173.51 73.13,-173.51 209.79,-173.51 209.79,-173.51 213.63,-173.51 217.46,-177.35 217.46,-181.18 217.46,-181.18 217.46,-188.85 217.46,-188.85 217.46,-192.68 213.63,-196.51 209.79,-196.51"/>
<text text-anchor="middle" x="141.46" y="-181.31" font-family="Arial" font-size="14.00" fill="#c6c5fe">pages/GameSetup.tsx</text>
</g>
<!-- App.tsx&#45;&gt;pages/GameSetup.tsx -->
<g id="edge1" class="edge">
<title>App.tsx&#45;&gt;pages/GameSetup.tsx</title>
<path fill="none" stroke="#757575" d="M188.33,-137.88C180.33,-145.92 169.5,-156.82 160.26,-166.1"/>
<polygon fill="#757575" stroke="#757575" points="157.54,-163.87 152.98,-173.43 162.51,-168.81 157.54,-163.87"/>
</g>
<!-- pages/Homepage.tsx -->
<g id="node3" class="node">
<title>pages/Homepage.tsx</title>
<path fill="none" stroke="#c6c5fe" d="M267.07,-153.8C267.07,-153.8 137.41,-153.8 137.41,-153.8 133.57,-153.8 129.74,-149.97 129.74,-146.13 129.74,-146.13 129.74,-138.47 129.74,-138.47 129.74,-134.63 133.57,-130.8 137.41,-130.8 137.41,-130.8 267.07,-130.8 267.07,-130.8 270.91,-130.8 274.74,-134.63 274.74,-138.47 274.74,-138.47 274.74,-146.13 274.74,-146.13 274.74,-149.97 270.91,-153.8 267.07,-153.8"/>
<text text-anchor="middle" x="202.24" y="-138.6" font-family="Arial" font-size="14.00" fill="#c6c5fe">pages/Homepage.tsx</text>
</g>
<!-- App.tsx&#45;&gt;pages/Homepage.tsx -->
<g id="edge2" class="edge">
<title>App.tsx&#45;&gt;pages/Homepage.tsx</title>
<path fill="none" stroke="#757575" d="M201.59,-137.92C201.6,-138 201.62,-138.07 201.63,-138.15"/>
<polygon fill="#757575" stroke="#757575" points="196.73,-129 201.66,-138.38 203.65,-127.97 196.73,-129"/>
</g>
<!-- pages/Join.tsx -->
<g id="node4" class="node">
<title>pages/Join.tsx</title>
<path fill="none" stroke="#c6c5fe" d="M209.3,-197.19C209.3,-197.19 121.64,-197.19 121.64,-197.19 117.8,-197.19 113.97,-193.36 113.97,-189.52 113.97,-189.52 113.97,-181.86 113.97,-181.86 113.97,-178.02 117.8,-174.19 121.64,-174.19 121.64,-174.19 209.3,-174.19 209.3,-174.19 213.14,-174.19 216.97,-178.02 216.97,-181.86 216.97,-181.86 216.97,-189.52 216.97,-189.52 216.97,-193.36 213.14,-197.19 209.3,-197.19"/>
<text text-anchor="middle" x="165.47" y="-181.99" font-family="Arial" font-size="14.00" fill="#c6c5fe">pages/Join.tsx</text>
</g>
<!-- App.tsx&#45;&gt;pages/Join.tsx -->
<g id="edge3" class="edge">
<title>App.tsx&#45;&gt;pages/Join.tsx</title>
<path fill="none" stroke="#757575" d="M193.07,-138.01C188.6,-145.74 182.61,-156.07 177.36,-165.14"/>
<polygon fill="#757575" stroke="#757575" points="174.23,-163.57 172.25,-173.98 180.29,-167.07 174.23,-163.57"/>
</g>
<!-- pages/Lobby.tsx -->
<g id="node5" class="node">
<title>pages/Lobby.tsx</title>
<path fill="none" stroke="#c6c5fe" d="M201.97,-104.8C201.97,-104.8 103.3,-104.8 103.3,-104.8 99.47,-104.8 95.63,-100.97 95.63,-97.14 95.63,-97.14 95.63,-89.47 95.63,-89.47 95.63,-85.64 99.47,-81.8 103.3,-81.8 103.3,-81.8 201.97,-81.8 201.97,-81.8 205.8,-81.8 209.63,-85.64 209.63,-89.47 209.63,-89.47 209.63,-97.14 209.63,-97.14 209.63,-100.97 205.8,-104.8 201.97,-104.8"/>
<text text-anchor="middle" x="152.63" y="-89.6" font-family="Arial" font-size="14.00" fill="#c6c5fe">pages/Lobby.tsx</text>
</g>
<!-- App.tsx&#45;&gt;pages/Lobby.tsx -->
<g id="edge4" class="edge">
<title>App.tsx&#45;&gt;pages/Lobby.tsx</title>
<path fill="none" stroke="#757575" d="M183.35,-114.74C181.49,-113.44 179.56,-112.1 177.63,-110.75"/>
<polygon fill="#757575" stroke="#757575" points="179.43,-107.74 169.22,-104.88 175.42,-113.48 179.43,-107.74"/>
</g>
<!-- pages/Quiz.tsx -->
<g id="node6" class="node">
<title>pages/Quiz.tsx</title>
<path fill="none" stroke="#c6c5fe" d="M251.85,-129.77C251.85,-129.77 160.19,-129.77 160.19,-129.77 156.35,-129.77 152.52,-125.94 152.52,-122.1 152.52,-122.1 152.52,-114.44 152.52,-114.44 152.52,-110.6 156.35,-106.77 160.19,-106.77 160.19,-106.77 251.85,-106.77 251.85,-106.77 255.69,-106.77 259.52,-110.6 259.52,-114.44 259.52,-114.44 259.52,-122.1 259.52,-122.1 259.52,-125.94 255.69,-129.77 251.85,-129.77"/>
<text text-anchor="middle" x="206.02" y="-114.57" font-family="Arial" font-size="14.00" fill="#c6c5fe">pages/Quiz.tsx</text>
</g>
<!-- App.tsx&#45;&gt;pages/Quiz.tsx -->
<g id="edge5" class="edge">
<title>App.tsx&#45;&gt;pages/Quiz.tsx</title>
<path fill="none" stroke="#757575" d="M205.95,-118.36C205.96,-118.34 205.97,-118.33 205.98,-118.32"/>
<polygon fill="#757575" stroke="#757575" points="202.67,-128.36 206,-118.29 197.12,-124.09 202.67,-128.36"/>
</g>
<!-- pages/Results.tsx -->
<g id="node7" class="node">
<title>pages/Results.tsx</title>
<path fill="none" stroke="#c6c5fe" d="M271.37,-113.85C271.37,-113.85 163.7,-113.85 163.7,-113.85 159.87,-113.85 156.04,-110.01 156.04,-106.18 156.04,-106.18 156.04,-98.51 156.04,-98.51 156.04,-94.68 159.87,-90.85 163.7,-90.85 163.7,-90.85 271.37,-90.85 271.37,-90.85 275.2,-90.85 279.04,-94.68 279.04,-98.51 279.04,-98.51 279.04,-106.18 279.04,-106.18 279.04,-110.01 275.2,-113.85 271.37,-113.85"/>
<text text-anchor="middle" x="217.54" y="-98.65" font-family="Arial" font-size="14.00" fill="#c6c5fe">pages/Results.tsx</text>
</g>
<!-- App.tsx&#45;&gt;pages/Results.tsx -->
<g id="edge6" class="edge">
<title>App.tsx&#45;&gt;pages/Results.tsx</title>
<path fill="none" stroke="#757575" d="M208.5,-114.59C208.57,-114.49 208.64,-114.4 208.71,-114.3"/>
<polygon fill="#757575" stroke="#757575" points="205.79,-124.14 208.92,-114.02 200.16,-119.98 205.79,-124.14"/>
</g>
<!-- atoms/index.ts -->
<g id="node8" class="node">
<title>atoms/index.ts</title>
<path fill="none" stroke="#c6c5fe" d="M220.97,-89.36C220.97,-89.36 132.31,-89.36 132.31,-89.36 128.47,-89.36 124.64,-85.53 124.64,-81.7 124.64,-81.7 124.64,-74.03 124.64,-74.03 124.64,-70.2 128.47,-66.36 132.31,-66.36 132.31,-66.36 220.97,-66.36 220.97,-66.36 224.81,-66.36 228.64,-70.2 228.64,-74.03 228.64,-74.03 228.64,-81.7 228.64,-81.7 228.64,-85.53 224.81,-89.36 220.97,-89.36"/>
<text text-anchor="middle" x="176.64" y="-74.16" font-family="Arial" font-size="14.00" fill="#c6c5fe">atoms/index.ts</text>
</g>
<!-- pages/GameSetup.tsx&#45;&gt;atoms/index.ts -->
<g id="edge66" class="edge">
<title>pages/GameSetup.tsx&#45;&gt;atoms/index.ts</title>
<path fill="none" stroke="#757575" d="M145.36,-173.14C151.23,-155.26 162.42,-121.18 169.7,-99"/>
<polygon fill="#757575" stroke="#757575" points="173.04,-100.06 172.83,-89.47 166.38,-97.88 173.04,-100.06"/>
</g>
<!-- lib/mutations.ts -->
<g id="node11" class="node">
<title>lib/mutations.ts</title>
<path fill="none" stroke="#c6c5fe" d="M219.3,-189.53C219.3,-189.53 127.64,-189.53 127.64,-189.53 123.8,-189.53 119.97,-185.7 119.97,-181.87 119.97,-181.87 119.97,-174.2 119.97,-174.2 119.97,-170.37 123.8,-166.53 127.64,-166.53 127.64,-166.53 219.3,-166.53 219.3,-166.53 223.14,-166.53 226.97,-170.37 226.97,-174.2 226.97,-174.2 226.97,-181.87 226.97,-181.87 226.97,-185.7 223.14,-189.53 219.3,-189.53"/>
<text text-anchor="middle" x="173.47" y="-174.33" font-family="Arial" font-size="14.00" fill="#c6c5fe">lib/mutations.ts</text>
</g>
<!-- pages/GameSetup.tsx&#45;&gt;lib/mutations.ts -->
<g id="edge69" class="edge">
<title>pages/GameSetup.tsx&#45;&gt;lib/mutations.ts</title>
<path fill="none" stroke="#757575" d="M173.38,-178.05C173.39,-178.05 173.41,-178.05 173.42,-178.05"/>
<polygon fill="#757575" stroke="#757575" points="164.43,-183.62 173.45,-178.04 162.92,-176.78 164.43,-183.62"/>
</g>
<!-- components/Alert.tsx -->
<g id="node12" class="node">
<title>components/Alert.tsx</title>
<path fill="none" stroke="#cfffac" d="M221.3,-198.93C221.3,-198.93 93.63,-198.93 93.63,-198.93 89.8,-198.93 85.97,-195.1 85.97,-191.26 85.97,-191.26 85.97,-183.6 85.97,-183.6 85.97,-179.76 89.8,-175.93 93.63,-175.93 93.63,-175.93 221.3,-175.93 221.3,-175.93 225.13,-175.93 228.97,-179.76 228.97,-183.6 228.97,-183.6 228.97,-191.26 228.97,-191.26 228.97,-195.1 225.13,-198.93 221.3,-198.93"/>
<text text-anchor="middle" x="157.47" y="-183.73" font-family="Arial" font-size="14.00" fill="#cfffac">components/Alert.tsx</text>
</g>
<!-- pages/GameSetup.tsx&#45;&gt;components/Alert.tsx -->
<g id="edge67" class="edge">
<title>pages/GameSetup.tsx&#45;&gt;components/Alert.tsx</title>
<path fill="none" stroke="#757575" d="M157.42,-187.42C157.43,-187.42 157.43,-187.43 157.44,-187.43"/>
<polygon fill="#757575" stroke="#757575" points="147.02,-189.34 157.45,-187.43 148.11,-182.42 147.02,-189.34"/>
</g>
<!-- components/LobbyStatus.tsx -->
<g id="node27" class="node">
<title>components/LobbyStatus.tsx</title>
<path fill="none" stroke="#c6c5fe" d="M213.29,-189.23C213.29,-189.23 37.62,-189.23 37.62,-189.23 33.79,-189.23 29.96,-185.4 29.96,-181.57 29.96,-181.57 29.96,-173.9 29.96,-173.9 29.96,-170.07 33.79,-166.23 37.62,-166.23 37.62,-166.23 213.29,-166.23 213.29,-166.23 217.12,-166.23 220.96,-170.07 220.96,-173.9 220.96,-173.9 220.96,-181.57 220.96,-181.57 220.96,-185.4 217.12,-189.23 213.29,-189.23"/>
<text text-anchor="middle" x="125.46" y="-174.03" font-family="Arial" font-size="14.00" fill="#c6c5fe">components/LobbyStatus.tsx</text>
</g>
<!-- pages/GameSetup.tsx&#45;&gt;components/LobbyStatus.tsx -->
<g id="edge68" class="edge">
<title>pages/GameSetup.tsx&#45;&gt;components/LobbyStatus.tsx</title>
<path fill="none" stroke="#757575" d="M125.5,-177.76C125.49,-177.75 125.49,-177.75 125.48,-177.75"/>
<polygon fill="#757575" stroke="#757575" points="136.04,-178.73 125.47,-177.74 133.11,-185.1 136.04,-178.73"/>
</g>
<!-- lib/supabaseClient.ts -->
<g id="node29" class="node">
<title>lib/supabaseClient.ts</title>
<path fill="none" stroke="#cfffac" d="M171.29,-165.23C171.29,-165.23 45.62,-165.23 45.62,-165.23 41.79,-165.23 37.96,-161.39 37.96,-157.56 37.96,-157.56 37.96,-149.89 37.96,-149.89 37.96,-146.06 41.79,-142.23 45.62,-142.23 45.62,-142.23 171.29,-142.23 171.29,-142.23 175.12,-142.23 178.96,-146.06 178.96,-149.89 178.96,-149.89 178.96,-157.56 178.96,-157.56 178.96,-161.39 175.12,-165.23 171.29,-165.23"/>
<text text-anchor="middle" x="108.46" y="-150.03" font-family="Arial" font-size="14.00" fill="#cfffac">lib/supabaseClient.ts</text>
</g>
<!-- pages/GameSetup.tsx&#45;&gt;lib/supabaseClient.ts -->
<g id="edge71" class="edge">
<title>pages/GameSetup.tsx&#45;&gt;lib/supabaseClient.ts</title>
<path fill="none" stroke="#757575" d="M129.17,-173.36C128.82,-173.03 128.47,-172.7 128.12,-172.37"/>
<polygon fill="#757575" stroke="#757575" points="130.31,-169.62 120.65,-165.28 125.49,-174.7 130.31,-169.62"/>
</g>
<!-- lib/types.ts -->
<g id="node47" class="node">
<title>lib/types.ts</title>
<path fill="none" stroke="#c6c5fe" d="M229.61,-169.88C229.61,-169.88 164.94,-169.88 164.94,-169.88 161.11,-169.88 157.28,-166.05 157.28,-162.22 157.28,-162.22 157.28,-154.55 157.28,-154.55 157.28,-150.72 161.11,-146.88 164.94,-146.88 164.94,-146.88 229.61,-146.88 229.61,-146.88 233.44,-146.88 237.28,-150.72 237.28,-154.55 237.28,-154.55 237.28,-162.22 237.28,-162.22 237.28,-166.05 233.44,-169.88 229.61,-169.88"/>
<text text-anchor="middle" x="197.28" y="-154.68" font-family="Arial" font-size="14.00" fill="#c6c5fe">lib/types.ts</text>
</g>
<!-- pages/GameSetup.tsx&#45;&gt;lib/types.ts -->
<g id="edge72" class="edge">
<title>pages/GameSetup.tsx&#45;&gt;lib/types.ts</title>
<path fill="none" stroke="#757575" d="M165.78,-173.41C165.93,-173.34 166.07,-173.27 166.22,-173.2"/>
<polygon fill="#757575" stroke="#757575" points="165.35,-177.49 172.87,-170.03 162.33,-171.18 165.35,-177.49"/>
</g>
<!-- lib/presence.ts -->
<g id="node51" class="node">
<title>lib/presence.ts</title>
<path fill="none" stroke="#c6c5fe" d="M177.79,-193.37C177.79,-193.37 89.13,-193.37 89.13,-193.37 85.29,-193.37 81.46,-189.54 81.46,-185.71 81.46,-185.71 81.46,-178.04 81.46,-178.04 81.46,-174.21 85.29,-170.37 89.13,-170.37 89.13,-170.37 177.79,-170.37 177.79,-170.37 181.63,-170.37 185.46,-174.21 185.46,-178.04 185.46,-178.04 185.46,-185.71 185.46,-185.71 185.46,-189.54 181.63,-193.37 177.79,-193.37"/>
<text text-anchor="middle" x="133.46" y="-178.17" font-family="Arial" font-size="14.00" fill="#c6c5fe">lib/presence.ts</text>
</g>
<!-- pages/GameSetup.tsx&#45;&gt;lib/presence.ts -->
<g id="edge70" class="edge">
<title>pages/GameSetup.tsx&#45;&gt;lib/presence.ts</title>
<path fill="none" stroke="#757575" d="M133.55,-181.91C133.53,-181.9 133.52,-181.9 133.51,-181.89"/>
<polygon fill="#757575" stroke="#757575" points="144.08,-182.3 133.48,-181.88 141.51,-188.82 144.08,-182.3"/>
</g>
<!-- lib/useSessionData.ts -->
<g id="node56" class="node">
<title>lib/useSessionData.ts</title>
<path fill="none" stroke="#c6c5fe" d="M214.8,-199.49C214.8,-199.49 84.13,-199.49 84.13,-199.49 80.3,-199.49 76.46,-195.65 76.46,-191.82 76.46,-191.82 76.46,-184.15 76.46,-184.15 76.46,-180.32 80.3,-176.49 84.13,-176.49 84.13,-176.49 214.8,-176.49 214.8,-176.49 218.63,-176.49 222.46,-180.32 222.46,-184.15 222.46,-184.15 222.46,-191.82 222.46,-191.82 222.46,-195.65 218.63,-199.49 214.8,-199.49"/>
<text text-anchor="middle" x="149.46" y="-184.29" font-family="Arial" font-size="14.00" fill="#c6c5fe">lib/useSessionData.ts</text>
</g>
<!-- pages/GameSetup.tsx&#45;&gt;lib/useSessionData.ts -->
<g id="edge73" class="edge">
<title>pages/GameSetup.tsx&#45;&gt;lib/useSessionData.ts</title>
<path fill="none" stroke="#757575" d="M149.37,-187.95C149.39,-187.96 149.4,-187.96 149.41,-187.97"/>
<polygon fill="#757575" stroke="#757575" points="138.84,-187.76 149.44,-187.98 141.29,-181.19 138.84,-187.76"/>
</g>
<!-- components/ActiveGames.tsx -->
<g id="node10" class="node">
<title>components/ActiveGames.tsx</title>
<path fill="none" stroke="#c6c5fe" d="M292.01,-161.88C292.01,-161.88 110.35,-161.88 110.35,-161.88 106.51,-161.88 102.68,-158.05 102.68,-154.21 102.68,-154.21 102.68,-146.55 102.68,-146.55 102.68,-142.71 106.51,-138.88 110.35,-138.88 110.35,-138.88 292.01,-138.88 292.01,-138.88 295.85,-138.88 299.68,-142.71 299.68,-146.55 299.68,-146.55 299.68,-154.21 299.68,-154.21 299.68,-158.05 295.85,-161.88 292.01,-161.88"/>
<text text-anchor="middle" x="201.18" y="-146.68" font-family="Arial" font-size="14.00" fill="#c6c5fe">components/ActiveGames.tsx</text>
</g>
<!-- pages/Homepage.tsx&#45;&gt;components/ActiveGames.tsx -->
<g id="edge74" class="edge">
<title>pages/Homepage.tsx&#45;&gt;components/ActiveGames.tsx</title>
<path fill="none" stroke="#757575" d="M201.19,-150.29C201.19,-150.3 201.19,-150.32 201.19,-150.33"/>
<polygon fill="#757575" stroke="#757575" points="199.04,-139.97 201.18,-150.36 205.99,-140.91 199.04,-139.97"/>
</g>
<!-- pages/Homepage.tsx&#45;&gt;lib/mutations.ts -->
<g id="edge77" class="edge">
<title>pages/Homepage.tsx&#45;&gt;lib/mutations.ts</title>
<path fill="none" stroke="#757575" d="M192.82,-154C191.74,-155.34 190.61,-156.74 189.48,-158.15"/>
<polygon fill="#757575" stroke="#757575" points="186.56,-156.2 183.01,-166.18 192.01,-160.59 186.56,-156.2"/>
</g>
<!-- pages/Homepage.tsx&#45;&gt;components/Alert.tsx -->
<g id="edge75" class="edge">
<title>pages/Homepage.tsx&#45;&gt;components/Alert.tsx</title>
<path fill="none" stroke="#757575" d="M190.48,-154.16C186.12,-158.54 181.07,-163.63 176.25,-168.49"/>
<polygon fill="#757575" stroke="#757575" points="173.55,-166.24 169,-175.81 178.52,-171.17 173.55,-166.24"/>
</g>
<!-- components/PasswordModal.tsx -->
<g id="node35" class="node">
<title>components/PasswordModal.tsx</title>
<path fill="none" stroke="#cfffac" d="M308.89,-156.42C308.89,-156.42 112.23,-156.42 112.23,-156.42 108.39,-156.42 104.56,-152.59 104.56,-148.75 104.56,-148.75 104.56,-141.09 104.56,-141.09 104.56,-137.25 108.39,-133.42 112.23,-133.42 112.23,-133.42 308.89,-133.42 308.89,-133.42 312.73,-133.42 316.56,-137.25 316.56,-141.09 316.56,-141.09 316.56,-148.75 316.56,-148.75 316.56,-152.59 312.73,-156.42 308.89,-156.42"/>
<text text-anchor="middle" x="210.56" y="-141.22" font-family="Arial" font-size="14.00" fill="#cfffac">components/PasswordModal.tsx</text>
</g>
<!-- pages/Homepage.tsx&#45;&gt;components/PasswordModal.tsx -->
<g id="edge76" class="edge">
<title>pages/Homepage.tsx&#45;&gt;components/PasswordModal.tsx</title>
<path fill="none" stroke="#757575" d="M210.47,-144.89C210.48,-144.89 210.5,-144.9 210.51,-144.9"/>
<polygon fill="#757575" stroke="#757575" points="199.94,-145.22 210.54,-144.91 202.06,-138.55 199.94,-145.22"/>
</g>
<!-- pages/Join.tsx&#45;&gt;lib/mutations.ts -->
<g id="edge85" class="edge">
<title>pages/Join.tsx&#45;&gt;lib/mutations.ts</title>
<path fill="none" stroke="#757575" d="M173.38,-178.12C173.4,-178.11 173.41,-178.09 173.42,-178.08"/>
<polygon fill="#757575" stroke="#757575" points="168.64,-187.51 173.45,-178.06 163.79,-182.45 168.64,-187.51"/>
</g>
<!-- pages/Join.tsx&#45;&gt;components/Alert.tsx -->
<g id="edge82" class="edge">
<title>pages/Join.tsx&#45;&gt;components/Alert.tsx</title>
<path fill="none" stroke="#757575" d="M157.56,-187.41C157.54,-187.41 157.53,-187.42 157.52,-187.42"/>
<polygon fill="#757575" stroke="#757575" points="166.51,-181.85 157.49,-187.42 168.01,-188.7 166.51,-181.85"/>
</g>
<!-- pages/Join.tsx&#45;&gt;lib/supabaseClient.ts -->
<g id="edge86" class="edge">
<title>pages/Join.tsx&#45;&gt;lib/supabaseClient.ts</title>
<path fill="none" stroke="#757575" d="M144.89,-174.15C142.65,-172.9 140.35,-171.61 138.04,-170.31"/>
<polygon fill="#757575" stroke="#757575" points="139.63,-167.19 129.2,-165.36 136.21,-173.3 139.63,-167.19"/>
</g>
<!-- components/OptimizedFlagSelector.tsx -->
<g id="node31" class="node">
<title>components/OptimizedFlagSelector.tsx</title>
<path fill="none" stroke="#c6c5fe" d="M255.46,-114.22C255.46,-114.22 17.79,-114.22 17.79,-114.22 13.96,-114.22 10.12,-110.38 10.12,-106.55 10.12,-106.55 10.12,-98.88 10.12,-98.88 10.12,-95.05 13.96,-91.22 17.79,-91.22 17.79,-91.22 255.46,-91.22 255.46,-91.22 259.29,-91.22 263.12,-95.05 263.12,-98.88 263.12,-98.88 263.12,-106.55 263.12,-106.55 263.12,-110.38 259.29,-114.22 255.46,-114.22"/>
<text text-anchor="middle" x="136.62" y="-99.02" font-family="Arial" font-size="14.00" fill="#c6c5fe">components/OptimizedFlagSelector.tsx</text>
</g>
<!-- pages/Join.tsx&#45;&gt;components/OptimizedFlagSelector.tsx -->
<g id="edge83" class="edge">
<title>pages/Join.tsx&#45;&gt;components/OptimizedFlagSelector.tsx</title>
<path fill="none" stroke="#757575" d="M161.46,-174.15C156.96,-161.22 149.58,-139.98 144.03,-124.01"/>
<polygon fill="#757575" stroke="#757575" points="147.28,-122.72 140.69,-114.42 140.67,-125.02 147.28,-122.72"/>
</g>
<!-- components/ReactBits/index.ts -->
<g id="node40" class="node">
<title>components/ReactBits/index.ts</title>
<path fill="none" stroke="#c6c5fe" d="M267.95,-208.83C267.95,-208.83 80.28,-208.83 80.28,-208.83 76.45,-208.83 72.61,-205 72.61,-201.16 72.61,-201.16 72.61,-193.5 72.61,-193.5 72.61,-189.66 76.45,-185.83 80.28,-185.83 80.28,-185.83 267.95,-185.83 267.95,-185.83 271.78,-185.83 275.61,-189.66 275.61,-193.5 275.61,-193.5 275.61,-201.16 275.61,-201.16 275.61,-205 271.78,-208.83 267.95,-208.83"/>
<text text-anchor="middle" x="174.11" y="-193.63" font-family="Arial" font-size="14.00" fill="#c6c5fe">components/ReactBits/index.ts</text>
</g>
<!-- pages/Join.tsx&#45;&gt;components/ReactBits/index.ts -->
<g id="edge84" class="edge">
<title>pages/Join.tsx&#45;&gt;components/ReactBits/index.ts</title>
<path fill="none" stroke="#757575" d="M174.02,-197.2C174.03,-197.22 174.05,-197.24 174.06,-197.26"/>
<polygon fill="#757575" stroke="#757575" points="165.31,-191.36 174.09,-197.3 170.93,-187.18 165.31,-191.36"/>
</g>
<!-- pages/Lobby.tsx&#45;&gt;atoms/index.ts -->
<g id="edge87" class="edge">
<title>pages/Lobby.tsx&#45;&gt;atoms/index.ts</title>
<path fill="none" stroke="#757575" d="M170.58,-81.76C170.63,-81.72 170.69,-81.69 170.74,-81.65"/>
<polygon fill="#757575" stroke="#757575" points="164.39,-89.91 170.9,-81.55 160.6,-84.02 164.39,-89.91"/>
</g>
<!-- lib/types/supabase.ts -->
<g id="node9" class="node">
<title>lib/types/supabase.ts</title>
<path fill="none" stroke="#cfffac" d="M264.48,-91.83C264.48,-91.83 136.81,-91.83 136.81,-91.83 132.98,-91.83 129.14,-88 129.14,-84.17 129.14,-84.17 129.14,-76.5 129.14,-76.5 129.14,-72.67 132.98,-68.83 136.81,-68.83 136.81,-68.83 264.48,-68.83 264.48,-68.83 268.31,-68.83 272.14,-72.67 272.14,-76.5 272.14,-76.5 272.14,-84.17 272.14,-84.17 272.14,-88 268.31,-91.83 264.48,-91.83"/>
<text text-anchor="middle" x="200.64" y="-76.63" font-family="Arial" font-size="14.00" fill="#cfffac">lib/types/supabase.ts</text>
</g>
<!-- pages/Lobby.tsx&#45;&gt;lib/types/supabase.ts -->
<g id="edge94" class="edge">
<title>pages/Lobby.tsx&#45;&gt;lib/types/supabase.ts</title>
<path fill="none" stroke="#757575" d="M195.51,-81.72C195.56,-81.71 195.6,-81.7 195.65,-81.68"/>
<polygon fill="#757575" stroke="#757575" points="187.06,-87.64 195.8,-81.64 185.23,-80.88 187.06,-87.64"/>
</g>
<!-- pages/Lobby.tsx&#45;&gt;lib/mutations.ts -->
<g id="edge91" class="edge">
<title>pages/Lobby.tsx&#45;&gt;lib/mutations.ts</title>
<path fill="none" stroke="#757575" d="M155.53,-105.09C158.8,-118.36 164.17,-140.23 168.19,-156.56"/>
<polygon fill="#757575" stroke="#757575" points="164.81,-157.48 170.6,-166.35 171.61,-155.81 164.81,-157.48"/>
</g>
<!-- components/Flag.tsx -->
<g id="node23" class="node">
<title>components/Flag.tsx</title>
<path fill="none" stroke="#c6c5fe" d="M207.96,-111.11C207.96,-111.11 81.29,-111.11 81.29,-111.11 77.46,-111.11 73.62,-107.28 73.62,-103.45 73.62,-103.45 73.62,-95.78 73.62,-95.78 73.62,-91.95 77.46,-88.11 81.29,-88.11 81.29,-88.11 207.96,-88.11 207.96,-88.11 211.79,-88.11 215.62,-91.95 215.62,-95.78 215.62,-95.78 215.62,-103.45 215.62,-103.45 215.62,-107.28 211.79,-111.11 207.96,-111.11"/>
<text text-anchor="middle" x="144.62" y="-95.91" font-family="Arial" font-size="14.00" fill="#c6c5fe">components/Flag.tsx</text>
</g>
<!-- pages/Lobby.tsx&#45;&gt;components/Flag.tsx -->
<g id="edge88" class="edge">
<title>pages/Lobby.tsx&#45;&gt;components/Flag.tsx</title>
<path fill="none" stroke="#757575" d="M144.71,-99.54C144.7,-99.55 144.69,-99.57 144.68,-99.57"/>
<polygon fill="#757575" stroke="#757575" points="150.34,-90.64 144.65,-99.6 154.68,-96.15 150.34,-90.64"/>
</g>
<!-- components/LobbyLogo.tsx -->
<g id="node26" class="node">
<title>components/LobbyLogo.tsx</title>
<path fill="none" stroke="#cfffac" d="M233.05,-96.58C233.05,-96.58 66.38,-96.58 66.38,-96.58 62.55,-96.58 58.72,-92.75 58.72,-88.92 58.72,-88.92 58.72,-81.25 58.72,-81.25 58.72,-77.42 62.55,-73.58 66.38,-73.58 66.38,-73.58 233.05,-73.58 233.05,-73.58 236.88,-73.58 240.72,-77.42 240.72,-81.25 240.72,-81.25 240.72,-88.92 240.72,-88.92 240.72,-92.75 236.88,-96.58 233.05,-96.58"/>
<text text-anchor="middle" x="149.72" y="-81.38" font-family="Arial" font-size="14.00" fill="#cfffac">components/LobbyLogo.tsx</text>
</g>
<!-- pages/Lobby.tsx&#45;&gt;components/LobbyLogo.tsx -->
<g id="edge89" class="edge">
<title>pages/Lobby.tsx&#45;&gt;components/LobbyLogo.tsx</title>
<path fill="none" stroke="#757575" d="M149.75,-85.18C149.75,-85.16 149.74,-85.15 149.74,-85.14"/>
<polygon fill="#757575" stroke="#757575" points="156.39,-93.36 149.73,-85.11 149.79,-95.71 156.39,-93.36"/>
</g>
<!-- pages/Lobby.tsx&#45;&gt;lib/supabaseClient.ts -->
<g id="edge93" class="edge">
<title>pages/Lobby.tsx&#45;&gt;lib/supabaseClient.ts</title>
<path fill="none" stroke="#757575" d="M144.11,-104.95C138.13,-113.15 129.96,-124.31 122.96,-133.89"/>
<polygon fill="#757575" stroke="#757575" points="120.02,-131.97 116.95,-142.11 125.67,-136.1 120.02,-131.97"/>
</g>
<!-- components/VideoCall.tsx -->
<g id="node43" class="node">
<title>components/VideoCall.tsx</title>
<path fill="none" stroke="#c6c5fe" d="M263.48,-90.74C263.48,-90.74 105.81,-90.74 105.81,-90.74 101.98,-90.74 98.14,-86.9 98.14,-83.07 98.14,-83.07 98.14,-75.4 98.14,-75.4 98.14,-71.57 101.98,-67.74 105.81,-67.74 105.81,-67.74 263.48,-67.74 263.48,-67.74 267.31,-67.74 271.14,-71.57 271.14,-75.4 271.14,-75.4 271.14,-83.07 271.14,-83.07 271.14,-86.9 267.31,-90.74 263.48,-90.74"/>
<text text-anchor="middle" x="184.64" y="-75.54" font-family="Arial" font-size="14.00" fill="#c6c5fe">components/VideoCall.tsx</text>
</g>
<!-- pages/Lobby.tsx&#45;&gt;components/VideoCall.tsx -->
<g id="edge90" class="edge">
<title>pages/Lobby.tsx&#45;&gt;components/VideoCall.tsx</title>
<path fill="none" stroke="#757575" d="M179.07,-81.69C179.12,-81.66 179.17,-81.64 179.22,-81.62"/>
<polygon fill="#757575" stroke="#757575" points="171.63,-88.78 179.37,-81.55 168.81,-82.37 171.63,-88.78"/>
</g>
<!-- lib/sessionHooks.ts -->
<g id="node54" class="node">
<title>lib/sessionHooks.ts</title>
<path fill="none" stroke="#c6c5fe" d="M272.74,-121.91C272.74,-121.91 156.07,-121.91 156.07,-121.91 152.24,-121.91 148.41,-118.07 148.41,-114.24 148.41,-114.24 148.41,-106.57 148.41,-106.57 148.41,-102.74 152.24,-98.91 156.07,-98.91 156.07,-98.91 272.74,-98.91 272.74,-98.91 276.57,-98.91 280.41,-102.74 280.41,-106.57 280.41,-106.57 280.41,-114.24 280.41,-114.24 280.41,-118.07 276.57,-121.91 272.74,-121.91"/>
<text text-anchor="middle" x="214.41" y="-106.71" font-family="Arial" font-size="14.00" fill="#c6c5fe">lib/sessionHooks.ts</text>
</g>
<!-- pages/Lobby.tsx&#45;&gt;lib/sessionHooks.ts -->
<g id="edge92" class="edge">
<title>pages/Lobby.tsx&#45;&gt;lib/sessionHooks.ts</title>
<path fill="none" stroke="#757575" d="M194.18,-104.81C194.22,-104.82 194.27,-104.83 194.31,-104.84"/>
<polygon fill="#757575" stroke="#757575" points="183.87,-105.58 194.44,-104.88 185.74,-98.83 183.87,-105.58"/>
</g>
<!-- pages/Lobby.tsx&#45;&gt;lib/useSessionData.ts -->
<g id="edge95" class="edge">
<title>pages/Lobby.tsx&#45;&gt;lib/useSessionData.ts</title>
<path fill="none" stroke="#757575" d="M152.24,-104.91C151.74,-120.1 150.83,-147.03 150.2,-166.11"/>
<polygon fill="#757575" stroke="#757575" points="146.69,-166.17 149.86,-176.28 153.69,-166.41 146.69,-166.17"/>
</g>
<!-- pages/Quiz.tsx&#45;&gt;lib/mutations.ts -->
<g id="edge96" class="edge">
<title>pages/Quiz.tsx&#45;&gt;lib/mutations.ts</title>
<path fill="none" stroke="#757575" d="M199.74,-129.79C195.52,-137.55 189.83,-147.99 184.83,-157.18"/>
<polygon fill="#757575" stroke="#757575" points="181.66,-155.68 179.95,-166.14 187.81,-159.03 181.66,-155.68"/>
</g>
<!-- pages/Quiz.tsx&#45;&gt;lib/types.ts -->
<g id="edge99" class="edge">
<title>pages/Quiz.tsx&#45;&gt;lib/types.ts</title>
<path fill="none" stroke="#757575" d="M203.44,-130.09C202.98,-132.23 202.48,-134.52 201.97,-136.84"/>
<polygon fill="#757575" stroke="#757575" points="198.51,-136.27 199.8,-146.79 205.35,-137.76 198.51,-136.27"/>
</g>
<!-- lib/realtimeHooks.ts -->
<g id="node52" class="node">
<title>lib/realtimeHooks.ts</title>
<path fill="none" stroke="#c6c5fe" d="M262.75,-145.8C262.75,-145.8 143.09,-145.8 143.09,-145.8 139.25,-145.8 135.42,-141.96 135.42,-138.13 135.42,-138.13 135.42,-130.46 135.42,-130.46 135.42,-126.63 139.25,-122.8 143.09,-122.8 143.09,-122.8 262.75,-122.8 262.75,-122.8 266.59,-122.8 270.42,-126.63 270.42,-130.46 270.42,-130.46 270.42,-138.13 270.42,-138.13 270.42,-141.96 266.59,-145.8 262.75,-145.8"/>
<text text-anchor="middle" x="202.92" y="-130.6" font-family="Arial" font-size="14.00" fill="#c6c5fe">lib/realtimeHooks.ts</text>
</g>
<!-- pages/Quiz.tsx&#45;&gt;lib/realtimeHooks.ts -->
<g id="edge97" class="edge">
<title>pages/Quiz.tsx&#45;&gt;lib/realtimeHooks.ts</title>
<path fill="none" stroke="#757575" d="M203.77,-129.92C203.75,-129.99 203.74,-130.07 203.72,-130.15"/>
<polygon fill="#757575" stroke="#757575" points="202.14,-119.89 203.68,-130.38 209.02,-121.22 202.14,-119.89"/>
</g>
<!-- pages/Quiz.tsx&#45;&gt;lib/sessionHooks.ts -->
<g id="edge98" class="edge">
<title>pages/Quiz.tsx&#45;&gt;lib/sessionHooks.ts</title>
<path fill="none" stroke="#757575" d="M214.31,-110.5C214.33,-110.48 214.34,-110.47 214.35,-110.46"/>
<polygon fill="#757575" stroke="#757575" points="209.48,-119.83 214.38,-110.43 204.68,-114.72 209.48,-119.83"/>
</g>
<!-- pages/Results.tsx&#45;&gt;lib/mutations.ts -->
<g id="edge100" class="edge">
<title>pages/Results.tsx&#45;&gt;lib/mutations.ts</title>
<path fill="none" stroke="#757575" d="M210.65,-114.17C203.97,-125.66 193.67,-143.34 185.61,-157.19"/>
<polygon fill="#757575" stroke="#757575" points="182.46,-155.64 180.45,-166.04 188.51,-159.16 182.46,-155.64"/>
</g>
<!-- pages/Results.tsx&#45;&gt;lib/supabaseClient.ts -->
<g id="edge102" class="edge">
<title>pages/Results.tsx&#45;&gt;lib/supabaseClient.ts</title>
<path fill="none" stroke="#757575" d="M193.06,-113.88C178.14,-120.9 158.87,-129.98 142.49,-137.7"/>
<polygon fill="#757575" stroke="#757575" points="140.79,-134.63 133.23,-142.06 143.77,-140.96 140.79,-134.63"/>
</g>
<!-- pages/Results.tsx&#45;&gt;lib/sessionHooks.ts -->
<g id="edge101" class="edge">
<title>pages/Results.tsx&#45;&gt;lib/sessionHooks.ts</title>
<path fill="none" stroke="#757575" d="M214.44,-110.32C214.44,-110.33 214.43,-110.34 214.43,-110.36"/>
<polygon fill="#757575" stroke="#757575" points="214.79,-99.79 214.42,-110.38 221.32,-102.33 214.79,-99.79"/>
</g>
<!-- atoms/index.ts&#45;&gt;lib/types/supabase.ts -->
<g id="edge7" class="edge">
<title>atoms/index.ts&#45;&gt;lib/types/supabase.ts</title>
<path fill="none" stroke="#757575" d="M200.58,-80.33C200.59,-80.33 200.6,-80.33 200.61,-80.33"/>
<polygon fill="#757575" stroke="#757575" points="190.31,-82.75 200.63,-80.33 191.05,-75.79 190.31,-82.75"/>
</g>
<!-- components/ActiveGames.tsx&#45;&gt;lib/mutations.ts -->
<g id="edge8" class="edge">
<title>components/ActiveGames.tsx&#45;&gt;lib/mutations.ts</title>
<path fill="none" stroke="#757575" d="M189.59,-161.95C189.5,-162.04 189.41,-162.13 189.32,-162.21"/>
<polygon fill="#757575" stroke="#757575" points="189.89,-156.7 185.28,-166.25 194.83,-161.66 189.89,-156.7"/>
</g>
<!-- lib/mutations.ts&#45;&gt;lib/supabaseClient.ts -->
<g id="edge48" class="edge">
<title>lib/mutations.ts&#45;&gt;lib/supabaseClient.ts</title>
<path fill="none" stroke="#757575" d="M142.49,-166.45C142.36,-166.4 142.22,-166.35 142.09,-166.3"/>
<polygon fill="#757575" stroke="#757575" points="149.94,-165.5 139.34,-165.27 147.49,-172.06 149.94,-165.5"/>
</g>
<!-- lib/dailyTokenManager.ts -->
<g id="node46" class="node">
<title>lib/dailyTokenManager.ts</title>
<path fill="none" stroke="#c6c5fe" d="M267.46,-177.9C267.46,-177.9 117.8,-177.9 117.8,-177.9 113.96,-177.9 110.13,-174.07 110.13,-170.24 110.13,-170.24 110.13,-162.57 110.13,-162.57 110.13,-158.74 113.96,-154.9 117.8,-154.9 117.8,-154.9 267.46,-154.9 267.46,-154.9 271.3,-154.9 275.13,-158.74 275.13,-162.57 275.13,-162.57 275.13,-170.24 275.13,-170.24 275.13,-174.07 271.3,-177.9 267.46,-177.9"/>
<text text-anchor="middle" x="192.63" y="-162.7" font-family="Arial" font-size="14.00" fill="#c6c5fe">lib/dailyTokenManager.ts</text>
</g>
<!-- lib/mutations.ts&#45;&gt;lib/dailyTokenManager.ts -->
<g id="edge46" class="edge">
<title>lib/mutations.ts&#45;&gt;lib/dailyTokenManager.ts</title>
<path fill="none" stroke="#757575" d="M192.58,-166.44C192.59,-166.43 192.59,-166.43 192.6,-166.42"/>
<polygon fill="#757575" stroke="#757575" points="185.89,-174.62 192.62,-166.41 182.24,-168.63 185.89,-174.62"/>
</g>
<!-- lib/mutations.ts&#45;&gt;lib/types.ts -->
<g id="edge49" class="edge">
<title>lib/mutations.ts&#45;&gt;lib/types.ts</title>
<path fill="none" stroke="#757575" d="M187.59,-166.38C187.67,-166.31 187.75,-166.24 187.83,-166.18"/>
<polygon fill="#757575" stroke="#757575" points="182.59,-175.05 188.07,-165.98 178.13,-169.65 182.59,-175.05"/>
</g>
<!-- lib/logger.ts -->
<g id="node48" class="node">
<title>lib/logger.ts</title>
<path fill="none" stroke="#cfffac" d="M217.38,-190.88C217.38,-190.88 147.71,-190.88 147.71,-190.88 143.88,-190.88 140.05,-187.04 140.05,-183.21 140.05,-183.21 140.05,-175.54 140.05,-175.54 140.05,-171.71 143.88,-167.88 147.71,-167.88 147.71,-167.88 217.38,-167.88 217.38,-167.88 221.21,-167.88 225.05,-171.71 225.05,-175.54 225.05,-175.54 225.05,-183.21 225.05,-183.21 225.05,-187.04 221.21,-190.88 217.38,-190.88"/>
<text text-anchor="middle" x="182.55" y="-175.68" font-family="Arial" font-size="14.00" fill="#cfffac">lib/logger.ts</text>
</g>
<!-- lib/mutations.ts&#45;&gt;lib/logger.ts -->
<g id="edge47" class="edge">
<title>lib/mutations.ts&#45;&gt;lib/logger.ts</title>
<path fill="none" stroke="#757575" d="M182.44,-179.36C182.46,-179.36 182.48,-179.37 182.49,-179.37"/>
<polygon fill="#757575" stroke="#757575" points="172.11,-181.35 182.52,-179.37 173.15,-174.42 172.11,-181.35"/>
</g>
<!-- components/ChromaGrid.tsx -->
<g id="node13" class="node">
<title>components/ChromaGrid.tsx</title>
<path fill="none" stroke="#cfffac" d="M243.58,-293C243.58,-293 67.91,-293 67.91,-293 64.08,-293 60.25,-289.17 60.25,-285.33 60.25,-285.33 60.25,-277.67 60.25,-277.67 60.25,-273.83 64.08,-270 67.91,-270 67.91,-270 243.58,-270 243.58,-270 247.41,-270 251.25,-273.83 251.25,-277.67 251.25,-277.67 251.25,-285.33 251.25,-285.33 251.25,-289.17 247.41,-293 243.58,-293"/>
<text text-anchor="middle" x="155.75" y="-277.8" font-family="Arial" font-size="14.00" fill="#cfffac">components/ChromaGrid.tsx</text>
</g>
<!-- components/ChromaLogo.tsx -->
<g id="node14" class="node">
<title>components/ChromaLogo.tsx</title>
<path fill="none" stroke="#cfffac" d="M197.56,-130.66C197.56,-130.66 18.9,-130.66 18.9,-130.66 15.06,-130.66 11.23,-126.83 11.23,-122.99 11.23,-122.99 11.23,-115.33 11.23,-115.33 11.23,-111.49 15.06,-107.66 18.9,-107.66 18.9,-107.66 197.56,-107.66 197.56,-107.66 201.4,-107.66 205.23,-111.49 205.23,-115.33 205.23,-115.33 205.23,-122.99 205.23,-122.99 205.23,-126.83 201.4,-130.66 197.56,-130.66"/>
<text text-anchor="middle" x="108.23" y="-115.46" font-family="Arial" font-size="14.00" fill="#cfffac">components/ChromaLogo.tsx</text>
</g>
<!-- components/ControlsBar.tsx -->
<g id="node15" class="node">
<title>components/ControlsBar.tsx</title>
<path fill="none" stroke="#cfffac" d="M270.8,-82.73C270.8,-82.73 100.13,-82.73 100.13,-82.73 96.3,-82.73 92.47,-78.9 92.47,-75.07 92.47,-75.07 92.47,-67.4 92.47,-67.4 92.47,-63.57 96.3,-59.73 100.13,-59.73 100.13,-59.73 270.8,-59.73 270.8,-59.73 274.63,-59.73 278.47,-63.57 278.47,-67.4 278.47,-67.4 278.47,-75.07 278.47,-75.07 278.47,-78.9 274.63,-82.73 270.8,-82.73"/>
<text text-anchor="middle" x="185.47" y="-67.53" font-family="Arial" font-size="14.00" fill="#cfffac">components/ControlsBar.tsx</text>
</g>
<!-- components/DailyCallWrapper.tsx -->
<g id="node16" class="node">
<title>components/DailyCallWrapper.tsx</title>
<path fill="none" stroke="#c6c5fe" d="M260.84,-90.5C260.84,-90.5 56.17,-90.5 56.17,-90.5 52.34,-90.5 48.51,-86.66 48.51,-82.83 48.51,-82.83 48.51,-75.16 48.51,-75.16 48.51,-71.33 52.34,-67.5 56.17,-67.5 56.17,-67.5 260.84,-67.5 260.84,-67.5 264.67,-67.5 268.51,-71.33 268.51,-75.16 268.51,-75.16 268.51,-82.83 268.51,-82.83 268.51,-86.66 264.67,-90.5 260.84,-90.5"/>
<text text-anchor="middle" x="158.51" y="-75.3" font-family="Arial" font-size="14.00" fill="#c6c5fe">components/DailyCallWrapper.tsx</text>
</g>
<!-- lib/useDailyToken.ts -->
<g id="node17" class="node">
<title>lib/useDailyToken.ts</title>
<path fill="none" stroke="#c6c5fe" d="M220.97,-99.46C220.97,-99.46 100.3,-99.46 100.3,-99.46 96.47,-99.46 92.63,-95.63 92.63,-91.8 92.63,-91.8 92.63,-84.13 92.63,-84.13 92.63,-80.3 96.47,-76.46 100.3,-76.46 100.3,-76.46 220.97,-76.46 220.97,-76.46 224.8,-76.46 228.63,-80.3 228.63,-84.13 228.63,-84.13 228.63,-91.8 228.63,-91.8 228.63,-95.63 224.8,-99.46 220.97,-99.46"/>
<text text-anchor="middle" x="160.63" y="-84.26" font-family="Arial" font-size="14.00" fill="#c6c5fe">lib/useDailyToken.ts</text>
</g>
<!-- components/DailyCallWrapper.tsx&#45;&gt;lib/useDailyToken.ts -->
<g id="edge9" class="edge">
<title>components/DailyCallWrapper.tsx&#45;&gt;lib/useDailyToken.ts</title>
<path fill="none" stroke="#757575" d="M160.61,-87.86C160.61,-87.88 160.62,-87.89 160.62,-87.91"/>
<polygon fill="#757575" stroke="#757575" points="154.89,-79.02 160.63,-87.94 161.7,-77.39 154.89,-79.02"/>
</g>
<!-- lib/useDailyToken.ts&#45;&gt;atoms/index.ts -->
<g id="edge60" class="edge">
<title>lib/useDailyToken.ts&#45;&gt;atoms/index.ts</title>
<path fill="none" stroke="#757575" d="M176.59,-77.89C176.6,-77.89 176.61,-77.88 176.61,-77.88"/>
<polygon fill="#757575" stroke="#757575" points="170.04,-86.2 176.63,-77.87 166.28,-80.27 170.04,-86.2"/>
</g>
<!-- lib/useDailyToken.ts&#45;&gt;lib/mutations.ts -->
<g id="edge61" class="edge">
<title>lib/useDailyToken.ts&#45;&gt;lib/mutations.ts</title>
<path fill="none" stroke="#757575" d="M162.31,-99.74C164.35,-114.03 167.83,-138.43 170.36,-156.2"/>
<polygon fill="#757575" stroke="#757575" points="166.92,-156.85 171.79,-166.26 173.85,-155.86 166.92,-156.85"/>
</g>
<!-- components/DailyJoinButton.test.tsx -->
<g id="node18" class="node">
<title>components/DailyJoinButton.test.tsx</title>
<path fill="none" stroke="#c6c5fe" d="M276.89,-86.58C276.89,-86.58 57.23,-86.58 57.23,-86.58 53.39,-86.58 49.56,-82.75 49.56,-78.91 49.56,-78.91 49.56,-71.25 49.56,-71.25 49.56,-67.41 53.39,-63.58 57.23,-63.58 57.23,-63.58 276.89,-63.58 276.89,-63.58 280.73,-63.58 284.56,-67.41 284.56,-71.25 284.56,-71.25 284.56,-78.91 284.56,-78.91 284.56,-82.75 280.73,-86.58 276.89,-86.58"/>
<text text-anchor="middle" x="167.06" y="-71.38" font-family="Arial" font-size="14.00" fill="#c6c5fe">components/DailyJoinButton.test.tsx</text>
</g>
<!-- components/DailyJoinButton.tsx -->
<g id="node19" class="node">
<title>components/DailyJoinButton.tsx</title>
<path fill="none" stroke="#c6c5fe" d="M265.47,-94.58C265.47,-94.58 71.8,-94.58 71.8,-94.58 67.97,-94.58 64.13,-90.75 64.13,-86.92 64.13,-86.92 64.13,-79.25 64.13,-79.25 64.13,-75.42 67.97,-71.58 71.8,-71.58 71.8,-71.58 265.47,-71.58 265.47,-71.58 269.3,-71.58 273.13,-75.42 273.13,-79.25 273.13,-79.25 273.13,-86.92 273.13,-86.92 273.13,-90.75 269.3,-94.58 265.47,-94.58"/>
<text text-anchor="middle" x="168.63" y="-79.38" font-family="Arial" font-size="14.00" fill="#c6c5fe">components/DailyJoinButton.tsx</text>
</g>
<!-- components/DailyJoinButton.test.tsx&#45;&gt;components/DailyJoinButton.tsx -->
<g id="edge10" class="edge">
<title>components/DailyJoinButton.test.tsx&#45;&gt;components/DailyJoinButton.tsx</title>
<path fill="none" stroke="#757575" d="M168.62,-82.99C168.62,-83.01 168.62,-83.02 168.62,-83.03"/>
<polygon fill="#757575" stroke="#757575" points="163.24,-73.93 168.63,-83.06 170.11,-72.56 163.24,-73.93"/>
</g>
<!-- components/DailyJoinButton.tsx&#45;&gt;atoms/index.ts -->
<g id="edge11" class="edge">
<title>components/DailyJoinButton.tsx&#45;&gt;atoms/index.ts</title>
<path fill="none" stroke="#757575" d="M176.55,-77.92C176.56,-77.91 176.58,-77.9 176.59,-77.9"/>
<polygon fill="#757575" stroke="#757575" points="170.15,-86.29 176.62,-77.88 166.32,-80.42 170.15,-86.29"/>
</g>
<!-- components/DailyJoinButton.tsx&#45;&gt;lib/mutations.ts -->
<g id="edge12" class="edge">
<title>components/DailyJoinButton.tsx&#45;&gt;lib/mutations.ts</title>
<path fill="none" stroke="#757575" d="M169.23,-94.73C170,-109.96 171.38,-136.96 172.35,-156.09"/>
<polygon fill="#757575" stroke="#757575" points="168.87,-156.49 172.87,-166.3 175.86,-156.13 168.87,-156.49"/>
</g>
<!-- components/EnhancedLobby.tsx -->
<g id="node20" class="node">
<title>components/EnhancedLobby.tsx</title>
<path fill="none" stroke="#c6c5fe" d="M204.33,-149.22C204.33,-149.22 7.67,-149.22 7.67,-149.22 3.83,-149.22 0,-145.39 0,-141.55 0,-141.55 0,-133.89 0,-133.89 0,-130.05 3.83,-126.22 7.67,-126.22 7.67,-126.22 204.33,-126.22 204.33,-126.22 208.17,-126.22 212,-130.05 212,-133.89 212,-133.89 212,-141.55 212,-141.55 212,-145.39 208.17,-149.22 204.33,-149.22"/>
<text text-anchor="middle" x="106" y="-134.02" font-family="Arial" font-size="14.00" fill="#c6c5fe">components/EnhancedLobby.tsx</text>
</g>
<!-- lib/enhancedPresence.ts -->
<g id="node21" class="node">
<title>lib/enhancedPresence.ts</title>
<path fill="none" stroke="#c6c5fe" d="M183.59,-141.22C183.59,-141.22 34.92,-141.22 34.92,-141.22 31.09,-141.22 27.25,-137.38 27.25,-133.55 27.25,-133.55 27.25,-125.88 27.25,-125.88 27.25,-122.05 31.09,-118.22 34.92,-118.22 34.92,-118.22 183.59,-118.22 183.59,-118.22 187.42,-118.22 191.25,-122.05 191.25,-125.88 191.25,-125.88 191.25,-133.55 191.25,-133.55 191.25,-137.38 187.42,-141.22 183.59,-141.22"/>
<text text-anchor="middle" x="109.25" y="-126.02" font-family="Arial" font-size="14.00" fill="#c6c5fe">lib/enhancedPresence.ts</text>
</g>
<!-- components/EnhancedLobby.tsx&#45;&gt;lib/enhancedPresence.ts -->
<g id="edge13" class="edge">
<title>components/EnhancedLobby.tsx&#45;&gt;lib/enhancedPresence.ts</title>
<path fill="none" stroke="#757575" d="M109.22,-129.81C109.22,-129.79 109.23,-129.78 109.23,-129.77"/>
<polygon fill="#757575" stroke="#757575" points="108.7,-140.33 109.24,-129.74 102.21,-137.68 108.7,-140.33"/>
</g>
<!-- lib/enhancedRealtimeHooks.ts -->
<g id="node22" class="node">
<title>lib/enhancedRealtimeHooks.ts</title>
<path fill="none" stroke="#c6c5fe" d="M197.79,-157.22C197.79,-157.22 13.12,-157.22 13.12,-157.22 9.29,-157.22 5.45,-153.39 5.45,-149.56 5.45,-149.56 5.45,-141.89 5.45,-141.89 5.45,-138.06 9.29,-134.22 13.12,-134.22 13.12,-134.22 197.79,-134.22 197.79,-134.22 201.62,-134.22 205.45,-138.06 205.45,-141.89 205.45,-141.89 205.45,-149.56 205.45,-149.56 205.45,-153.39 201.62,-157.22 197.79,-157.22"/>
<text text-anchor="middle" x="105.45" y="-142.02" font-family="Arial" font-size="14.00" fill="#c6c5fe">lib/enhancedRealtimeHooks.ts</text>
</g>
<!-- components/EnhancedLobby.tsx&#45;&gt;lib/enhancedRealtimeHooks.ts -->
<g id="edge14" class="edge">
<title>components/EnhancedLobby.tsx&#45;&gt;lib/enhancedRealtimeHooks.ts</title>
<path fill="none" stroke="#757575" d="M105.46,-145.63C105.46,-145.65 105.46,-145.66 105.46,-145.67"/>
<polygon fill="#757575" stroke="#757575" points="102.68,-135.47 105.45,-145.7 109.66,-135.98 102.68,-135.47"/>
</g>
<!-- lib/enhancedPresence.ts&#45;&gt;lib/mutations.ts -->
<g id="edge39" class="edge">
<title>lib/enhancedPresence.ts&#45;&gt;lib/mutations.ts</title>
<path fill="none" stroke="#757575" d="M124.8,-141.41C132.37,-147.11 141.64,-154.08 150.04,-160.41"/>
<polygon fill="#757575" stroke="#757575" points="147.97,-163.23 158.07,-166.45 152.18,-157.64 147.97,-163.23"/>
</g>
<!-- lib/enhancedPresence.ts&#45;&gt;lib/supabaseClient.ts -->
<g id="edge40" class="edge">
<title>lib/enhancedPresence.ts&#45;&gt;lib/supabaseClient.ts</title>
<path fill="none" stroke="#757575" d="M108.86,-141.44C108.86,-141.54 108.86,-141.63 108.85,-141.73"/>
<polygon fill="#757575" stroke="#757575" points="105.68,-131.9 108.84,-142.01 112.68,-132.13 105.68,-131.9"/>
</g>
<!-- lib/enhancedRealtimeHooks.ts&#45;&gt;lib/supabaseClient.ts -->
<g id="edge41" class="edge">
<title>lib/enhancedRealtimeHooks.ts&#45;&gt;lib/supabaseClient.ts</title>
<path fill="none" stroke="#757575" d="M108.42,-153.64C108.43,-153.65 108.43,-153.66 108.44,-153.67"/>
<polygon fill="#757575" stroke="#757575" points="101.63,-145.57 108.45,-153.7 108.19,-143.1 101.63,-145.57"/>
</g>
<!-- lib/enhancedRealtimeHooks.ts&#45;&gt;lib/types.ts -->
<g id="edge42" class="edge">
<title>lib/enhancedRealtimeHooks.ts&#45;&gt;lib/types.ts</title>
<path fill="none" stroke="#757575" d="M189.13,-157.26C189.21,-157.27 189.29,-157.28 189.36,-157.29"/>
<polygon fill="#757575" stroke="#757575" points="179.21,-159.42 189.6,-157.32 180.17,-152.49 179.21,-159.42"/>
</g>
<!-- lib/flagIcons.ts -->
<g id="node24" class="node">
<title>lib/flagIcons.ts</title>
<path fill="none" stroke="#cfffac" d="M182.54,-102.82C182.54,-102.82 95.87,-102.82 95.87,-102.82 92.04,-102.82 88.2,-98.99 88.2,-95.16 88.2,-95.16 88.2,-87.49 88.2,-87.49 88.2,-83.66 92.04,-79.82 95.87,-79.82 95.87,-79.82 182.54,-79.82 182.54,-79.82 186.37,-79.82 190.2,-83.66 190.2,-87.49 190.2,-87.49 190.2,-95.16 190.2,-95.16 190.2,-98.99 186.37,-102.82 182.54,-102.82"/>
<text text-anchor="middle" x="139.2" y="-87.62" font-family="Arial" font-size="14.00" fill="#cfffac">lib/flagIcons.ts</text>
</g>
<!-- components/Flag.tsx&#45;&gt;lib/flagIcons.ts -->
<g id="edge15" class="edge">
<title>components/Flag.tsx&#45;&gt;lib/flagIcons.ts</title>
<path fill="none" stroke="#757575" d="M139.26,-91.42C139.25,-91.4 139.24,-91.39 139.24,-91.38"/>
<polygon fill="#757575" stroke="#757575" points="147.63,-97.8 139.22,-91.35 141.77,-101.64 147.63,-97.8"/>
</g>
<!-- components/FlagSelector.tsx -->
<g id="node25" class="node">
<title>components/FlagSelector.tsx</title>
<path fill="none" stroke="#c6c5fe" d="M216.46,-117.21C216.46,-117.21 40.79,-117.21 40.79,-117.21 36.96,-117.21 33.12,-113.37 33.12,-109.54 33.12,-109.54 33.12,-101.87 33.12,-101.87 33.12,-98.04 36.96,-94.21 40.79,-94.21 40.79,-94.21 216.46,-94.21 216.46,-94.21 220.29,-94.21 224.12,-98.04 224.12,-101.87 224.12,-101.87 224.12,-109.54 224.12,-109.54 224.12,-113.37 220.29,-117.21 216.46,-117.21"/>
<text text-anchor="middle" x="128.62" y="-102.01" font-family="Arial" font-size="14.00" fill="#c6c5fe">components/FlagSelector.tsx</text>
</g>
<!-- components/FlagSelector.tsx&#45;&gt;components/Flag.tsx -->
<g id="edge16" class="edge">
<title>components/FlagSelector.tsx&#45;&gt;components/Flag.tsx</title>
<path fill="none" stroke="#757575" d="M144.58,-99.63C144.59,-99.63 144.59,-99.63 144.6,-99.62"/>
<polygon fill="#757575" stroke="#757575" points="136.52,-106.49 144.61,-99.62 134,-99.95 136.52,-106.49"/>
</g>
<!-- lib/roleUtils.ts -->
<g id="node28" class="node">
<title>lib/roleUtils.ts</title>
<path fill="none" stroke="#c6c5fe" d="M225.46,-182.87C225.46,-182.87 143.8,-182.87 143.8,-182.87 139.96,-182.87 136.13,-179.04 136.13,-175.21 136.13,-175.21 136.13,-167.54 136.13,-167.54 136.13,-163.71 139.96,-159.87 143.8,-159.87 143.8,-159.87 225.46,-159.87 225.46,-159.87 229.3,-159.87 233.13,-163.71 233.13,-167.54 233.13,-167.54 233.13,-175.21 233.13,-175.21 233.13,-179.04 229.3,-182.87 225.46,-182.87"/>
<text text-anchor="middle" x="184.63" y="-167.67" font-family="Arial" font-size="14.00" fill="#c6c5fe">lib/roleUtils.ts</text>
</g>
<!-- components/LobbyStatus.tsx&#45;&gt;lib/roleUtils.ts -->
<g id="edge17" class="edge">
<title>components/LobbyStatus.tsx&#45;&gt;lib/roleUtils.ts</title>
<path fill="none" stroke="#757575" d="M184.46,-171.39C184.49,-171.39 184.51,-171.38 184.53,-171.38"/>
<polygon fill="#757575" stroke="#757575" points="175.02,-175.94 184.59,-171.38 174.26,-168.98 175.02,-175.94"/>
</g>
<!-- components/LobbyStatus.tsx&#45;&gt;lib/supabaseClient.ts -->
<g id="edge18" class="edge">
<title>components/LobbyStatus.tsx&#45;&gt;lib/supabaseClient.ts</title>
<path fill="none" stroke="#757575" d="M117.15,-166.01C117.09,-165.92 117.02,-165.82 116.95,-165.73"/>
<polygon fill="#757575" stroke="#757575" points="125.39,-171.58 116.75,-165.44 119.67,-175.62 125.39,-171.58"/>
</g>
<!-- lib/roleUtils.ts&#45;&gt;lib/types.ts -->
<g id="edge54" class="edge">
<title>lib/roleUtils.ts&#45;&gt;lib/types.ts</title>
<path fill="none" stroke="#757575" d="M196.11,-159.58C196.29,-159.4 196.45,-159.23 196.6,-159.08"/>
<polygon fill="#757575" stroke="#757575" points="192.5,-168.31 196.96,-158.7 187.48,-163.43 192.5,-168.31"/>
</g>
<!-- components/LogoSelector.tsx -->
<g id="node30" class="node">
<title>components/LogoSelector.tsx</title>
<path fill="none" stroke="#c6c5fe" d="M205.61,-133.22C205.61,-133.22 26.95,-133.22 26.95,-133.22 23.11,-133.22 19.28,-129.38 19.28,-125.55 19.28,-125.55 19.28,-117.88 19.28,-117.88 19.28,-114.05 23.11,-110.22 26.95,-110.22 26.95,-110.22 205.61,-110.22 205.61,-110.22 209.45,-110.22 213.28,-114.05 213.28,-117.88 213.28,-117.88 213.28,-125.55 213.28,-125.55 213.28,-129.38 209.45,-133.22 205.61,-133.22"/>
<text text-anchor="middle" x="116.28" y="-118.02" font-family="Arial" font-size="14.00" fill="#c6c5fe">components/LogoSelector.tsx</text>
</g>
<!-- components/LogoSelector.tsx&#45;&gt;components/ChromaLogo.tsx -->
<g id="edge19" class="edge">
<title>components/LogoSelector.tsx&#45;&gt;components/ChromaLogo.tsx</title>
<path fill="none" stroke="#757575" d="M108.32,-119.19C108.3,-119.18 108.29,-119.18 108.28,-119.17"/>
<polygon fill="#757575" stroke="#757575" points="118.85,-118.88 108.25,-119.17 116.72,-125.55 118.85,-118.88"/>
</g>
<!-- components/LogoSelector.tsx&#45;&gt;lib/supabaseClient.ts -->
<g id="edge20" class="edge">
<title>components/LogoSelector.tsx&#45;&gt;lib/supabaseClient.ts</title>
<path fill="none" stroke="#757575" d="M113.45,-133.27C113.43,-133.36 113.41,-133.45 113.39,-133.54"/>
<polygon fill="#757575" stroke="#757575" points="110.28,-131.53 111.3,-142.08 117.08,-133.2 110.28,-131.53"/>
</g>
<!-- components/OptimizedFlagSelector.tsx&#45;&gt;components/Flag.tsx -->
<g id="edge21" class="edge">
<title>components/OptimizedFlagSelector.tsx&#45;&gt;components/Flag.tsx</title>
<path fill="none" stroke="#757575" d="M144.53,-99.65C144.55,-99.64 144.56,-99.64 144.57,-99.63"/>
<polygon fill="#757575" stroke="#757575" points="136.55,-106.52 144.6,-99.62 134,-100 136.55,-106.52"/>
</g>
<!-- components/ParticipantTile.test.tsx -->
<g id="node32" class="node">
<title>components/ParticipantTile.test.tsx</title>
<path fill="none" stroke="#c6c5fe" d="M321.71,-105.81C321.71,-105.81 110.04,-105.81 110.04,-105.81 106.21,-105.81 102.37,-101.98 102.37,-98.15 102.37,-98.15 102.37,-90.48 102.37,-90.48 102.37,-86.65 106.21,-82.81 110.04,-82.81 110.04,-82.81 321.71,-82.81 321.71,-82.81 325.54,-82.81 329.37,-86.65 329.37,-90.48 329.37,-90.48 329.37,-98.15 329.37,-98.15 329.37,-101.98 325.54,-105.81 321.71,-105.81"/>
<text text-anchor="middle" x="215.87" y="-90.61" font-family="Arial" font-size="14.00" fill="#c6c5fe">components/ParticipantTile.test.tsx</text>
</g>
<!-- components/ParticipantTile.test.tsx&#45;&gt;lib/types/supabase.ts -->
<g id="edge23" class="edge">
<title>components/ParticipantTile.test.tsx&#45;&gt;lib/types/supabase.ts</title>
<path fill="none" stroke="#757575" d="M203.3,-82.77C203.25,-82.72 203.2,-82.68 203.15,-82.63"/>
<polygon fill="#757575" stroke="#757575" points="212.74,-86.69 203.01,-82.5 208.01,-91.85 212.74,-86.69"/>
</g>
<!-- components/ParticipantTile.tsx -->
<g id="node33" class="node">
<title>components/ParticipantTile.tsx</title>
<path fill="none" stroke="#c6c5fe" d="M301.48,-97.69C301.48,-97.69 115.82,-97.69 115.82,-97.69 111.98,-97.69 108.15,-93.85 108.15,-90.02 108.15,-90.02 108.15,-82.35 108.15,-82.35 108.15,-78.52 111.98,-74.69 115.82,-74.69 115.82,-74.69 301.48,-74.69 301.48,-74.69 305.32,-74.69 309.15,-78.52 309.15,-82.35 309.15,-82.35 309.15,-90.02 309.15,-90.02 309.15,-93.85 305.32,-97.69 301.48,-97.69"/>
<text text-anchor="middle" x="208.65" y="-82.49" font-family="Arial" font-size="14.00" fill="#c6c5fe">components/ParticipantTile.tsx</text>
</g>
<!-- components/ParticipantTile.test.tsx&#45;&gt;components/ParticipantTile.tsx -->
<g id="edge22" class="edge">
<title>components/ParticipantTile.test.tsx&#45;&gt;components/ParticipantTile.tsx</title>
<path fill="none" stroke="#757575" d="M208.73,-86.28C208.72,-86.26 208.71,-86.25 208.7,-86.24"/>
<polygon fill="#757575" stroke="#757575" points="217.94,-91.36 208.67,-86.21 212.7,-96.02 217.94,-91.36"/>
</g>
<!-- components/ParticipantTile.tsx&#45;&gt;lib/types/supabase.ts -->
<g id="edge24" class="edge">
<title>components/ParticipantTile.tsx&#45;&gt;lib/types/supabase.ts</title>
<path fill="none" stroke="#757575" d="M200.73,-80.4C200.72,-80.39 200.71,-80.38 200.7,-80.37"/>
<polygon fill="#757575" stroke="#757575" points="210.81,-83.44 200.67,-80.35 206.67,-89.09 210.81,-83.44"/>
</g>
<!-- components/PasswordModal.test.tsx -->
<g id="node34" class="node">
<title>components/PasswordModal.test.tsx</title>
<path fill="none" stroke="#c6c5fe" d="M335.08,-161.14C335.08,-161.14 112.41,-161.14 112.41,-161.14 108.58,-161.14 104.74,-157.31 104.74,-153.48 104.74,-153.48 104.74,-145.81 104.74,-145.81 104.74,-141.98 108.58,-138.14 112.41,-138.14 112.41,-138.14 335.08,-138.14 335.08,-138.14 338.91,-138.14 342.74,-141.98 342.74,-145.81 342.74,-145.81 342.74,-153.48 342.74,-153.48 342.74,-157.31 338.91,-161.14 335.08,-161.14"/>
<text text-anchor="middle" x="223.74" y="-145.94" font-family="Arial" font-size="14.00" fill="#c6c5fe">components/PasswordModal.test.tsx</text>
</g>
<!-- components/PasswordModal.test.tsx&#45;&gt;components/PasswordModal.tsx -->
<g id="edge25" class="edge">
<title>components/PasswordModal.test.tsx&#45;&gt;components/PasswordModal.tsx</title>
<path fill="none" stroke="#757575" d="M210.71,-144.97C210.68,-144.96 210.66,-144.96 210.64,-144.95"/>
<polygon fill="#757575" stroke="#757575" points="221.2,-145.02 210.6,-144.93 218.83,-151.61 221.2,-145.02"/>
</g>
<!-- components/ReactBits/AnimatedList.tsx -->
<g id="node36" class="node">
<title>components/ReactBits/AnimatedList.tsx</title>
<path fill="none" stroke="#cfffac" d="M297.99,-200.57C297.99,-200.57 57.33,-200.57 57.33,-200.57 53.49,-200.57 49.66,-196.73 49.66,-192.9 49.66,-192.9 49.66,-185.23 49.66,-185.23 49.66,-181.4 53.49,-177.57 57.33,-177.57 57.33,-177.57 297.99,-177.57 297.99,-177.57 301.83,-177.57 305.66,-181.4 305.66,-185.23 305.66,-185.23 305.66,-192.9 305.66,-192.9 305.66,-196.73 301.83,-200.57 297.99,-200.57"/>
<text text-anchor="middle" x="177.66" y="-185.37" font-family="Arial" font-size="14.00" fill="#cfffac">components/ReactBits/AnimatedList.tsx</text>
</g>
<!-- components/ReactBits/Dock.tsx -->
<g id="node37" class="node">
<title>components/ReactBits/Dock.tsx</title>
<path fill="none" stroke="#cfffac" d="M278.45,-215.47C278.45,-215.47 85.78,-215.47 85.78,-215.47 81.95,-215.47 78.12,-211.64 78.12,-207.81 78.12,-207.81 78.12,-200.14 78.12,-200.14 78.12,-196.31 81.95,-192.47 85.78,-192.47 85.78,-192.47 278.45,-192.47 278.45,-192.47 282.28,-192.47 286.12,-196.31 286.12,-200.14 286.12,-200.14 286.12,-207.81 286.12,-207.81 286.12,-211.64 282.28,-215.47 278.45,-215.47"/>
<text text-anchor="middle" x="182.12" y="-200.27" font-family="Arial" font-size="14.00" fill="#cfffac">components/ReactBits/Dock.tsx</text>
</g>
<!-- components/ReactBits/PixelCard.tsx -->
<g id="node38" class="node">
<title>components/ReactBits/PixelCard.tsx</title>
<path fill="none" stroke="#cfffac" d="M277.82,-217.79C277.82,-217.79 57.16,-217.79 57.16,-217.79 53.32,-217.79 49.49,-213.95 49.49,-210.12 49.49,-210.12 49.49,-202.45 49.49,-202.45 49.49,-198.62 53.32,-194.79 57.16,-194.79 57.16,-194.79 277.82,-194.79 277.82,-194.79 281.66,-194.79 285.49,-198.62 285.49,-202.45 285.49,-202.45 285.49,-210.12 285.49,-210.12 285.49,-213.95 281.66,-217.79 277.82,-217.79"/>
<text text-anchor="middle" x="167.49" y="-202.59" font-family="Arial" font-size="14.00" fill="#cfffac">components/ReactBits/PixelCard.tsx</text>
</g>
<!-- components/ReactBits/SpotlightCard.tsx -->
<g id="node39" class="node">
<title>components/ReactBits/SpotlightCard.tsx</title>
<path fill="none" stroke="#cfffac" d="M287.3,-206.24C287.3,-206.24 43.63,-206.24 43.63,-206.24 39.8,-206.24 35.97,-202.41 35.97,-198.57 35.97,-198.57 35.97,-190.91 35.97,-190.91 35.97,-187.07 39.8,-183.24 43.63,-183.24 43.63,-183.24 287.3,-183.24 287.3,-183.24 291.13,-183.24 294.97,-187.07 294.97,-190.91 294.97,-190.91 294.97,-198.57 294.97,-198.57 294.97,-202.41 291.13,-206.24 287.3,-206.24"/>
<text text-anchor="middle" x="165.47" y="-191.04" font-family="Arial" font-size="14.00" fill="#cfffac">components/ReactBits/SpotlightCard.tsx</text>
</g>
<!-- components/ReactBits/index.ts&#45;&gt;components/ReactBits/AnimatedList.tsx -->
<g id="edge26" class="edge">
<title>components/ReactBits/index.ts&#45;&gt;components/ReactBits/AnimatedList.tsx</title>
<path fill="none" stroke="#757575" d="M177.62,-189.16C177.63,-189.14 177.63,-189.13 177.64,-189.12"/>
<polygon fill="#757575" stroke="#757575" points="176.91,-199.67 177.65,-189.09 170.47,-196.89 176.91,-199.67"/>
</g>
<!-- components/ReactBits/index.ts&#45;&gt;components/ReactBits/Dock.tsx -->
<g id="edge27" class="edge">
<title>components/ReactBits/index.ts&#45;&gt;components/ReactBits/Dock.tsx</title>
<path fill="none" stroke="#757575" d="M182.03,-203.9C182.04,-203.91 182.05,-203.92 182.07,-203.93"/>
<polygon fill="#757575" stroke="#757575" points="172.15,-200.25 182.09,-203.95 176.63,-194.86 172.15,-200.25"/>
</g>
<!-- components/ReactBits/index.ts&#45;&gt;components/ReactBits/PixelCard.tsx -->
<g id="edge28" class="edge">
<title>components/ReactBits/index.ts&#45;&gt;components/ReactBits/PixelCard.tsx</title>
<path fill="none" stroke="#757575" d="M167.56,-206.18C167.55,-206.2 167.54,-206.22 167.53,-206.23"/>
<polygon fill="#757575" stroke="#757575" points="170.65,-196.13 167.51,-206.26 176.28,-200.3 170.65,-196.13"/>
</g>
<!-- components/ReactBits/index.ts&#45;&gt;components/ReactBits/SpotlightCard.tsx -->
<g id="edge29" class="edge">
<title>components/ReactBits/index.ts&#45;&gt;components/ReactBits/SpotlightCard.tsx</title>
<path fill="none" stroke="#757575" d="M165.56,-194.77C165.55,-194.77 165.53,-194.76 165.52,-194.76"/>
<polygon fill="#757575" stroke="#757575" points="176.08,-194.29 165.49,-194.75 174.06,-200.99 176.08,-194.29"/>
</g>
<!-- components/TeamLogoPicker.test.tsx -->
<g id="node41" class="node">
<title>components/TeamLogoPicker.test.tsx</title>
<path fill="none" stroke="#c6c5fe" d="M519.25,-278C519.25,-278 292.59,-278 292.59,-278 288.75,-278 284.92,-274.17 284.92,-270.33 284.92,-270.33 284.92,-262.67 284.92,-262.67 284.92,-258.83 288.75,-255 292.59,-255 292.59,-255 519.25,-255 519.25,-255 523.09,-255 526.92,-258.83 526.92,-262.67 526.92,-262.67 526.92,-270.33 526.92,-270.33 526.92,-274.17 523.09,-278 519.25,-278"/>
<text text-anchor="middle" x="405.92" y="-262.8" font-family="Arial" font-size="14.00" fill="#c6c5fe">components/TeamLogoPicker.test.tsx</text>
</g>
<!-- components/TeamLogoPicker.tsx -->
<g id="node42" class="node">
<title>components/TeamLogoPicker.tsx</title>
<path fill="none" stroke="#cfffac" d="M514.25,-278C514.25,-278 313.59,-278 313.59,-278 309.75,-278 305.92,-274.17 305.92,-270.33 305.92,-270.33 305.92,-262.67 305.92,-262.67 305.92,-258.83 309.75,-255 313.59,-255 313.59,-255 514.25,-255 514.25,-255 518.09,-255 521.92,-258.83 521.92,-262.67 521.92,-262.67 521.92,-270.33 521.92,-270.33 521.92,-274.17 518.09,-278 514.25,-278"/>
<text text-anchor="middle" x="413.92" y="-262.8" font-family="Arial" font-size="14.00" fill="#cfffac">components/TeamLogoPicker.tsx</text>
</g>
<!-- components/TeamLogoPicker.test.tsx&#45;&gt;components/TeamLogoPicker.tsx -->
<g id="edge30" class="edge">
<title>components/TeamLogoPicker.test.tsx&#45;&gt;components/TeamLogoPicker.tsx</title>
<path fill="none" stroke="#757575" d="M413.83,-266.5C413.84,-266.5 413.86,-266.5 413.87,-266.5"/>
<polygon fill="#757575" stroke="#757575" points="403.91,-270.04 413.9,-266.5 403.88,-263.04 403.91,-270.04"/>
</g>
<!-- components/VideoCall.tsx&#45;&gt;lib/types/supabase.ts -->
<g id="edge35" class="edge">
<title>components/VideoCall.tsx&#45;&gt;lib/types/supabase.ts</title>
<path fill="none" stroke="#757575" d="M200.6,-80.33C200.61,-80.33 200.61,-80.33 200.62,-80.33"/>
<polygon fill="#757575" stroke="#757575" points="190.39,-83.08 200.63,-80.33 190.92,-76.09 190.39,-83.08"/>
</g>
<!-- components/VideoCall.tsx&#45;&gt;lib/mutations.ts -->
<g id="edge33" class="edge">
<title>components/VideoCall.tsx&#45;&gt;lib/mutations.ts</title>
<path fill="none" stroke="#757575" d="M183.32,-90.96C181.5,-107 178.21,-136.1 175.94,-156.22"/>
<polygon fill="#757575" stroke="#757575" points="172.44,-156 174.8,-166.33 179.4,-156.79 172.44,-156"/>
</g>
<!-- components/VideoCall.tsx&#45;&gt;components/ControlsBar.tsx -->
<g id="edge31" class="edge">
<title>components/VideoCall.tsx&#45;&gt;components/ControlsBar.tsx</title>
<path fill="none" stroke="#757575" d="M185.46,-71.32C185.46,-71.31 185.46,-71.29 185.46,-71.28"/>
<polygon fill="#757575" stroke="#757575" points="187.89,-81.57 185.47,-71.26 180.93,-80.83 187.89,-81.57"/>
</g>
<!-- components/VideoCall.tsx&#45;&gt;lib/supabaseClient.ts -->
<g id="edge34" class="edge">
<title>components/VideoCall.tsx&#45;&gt;lib/supabaseClient.ts</title>
<path fill="none" stroke="#757575" d="M172.74,-90.88C160.66,-102.68 141.78,-121.14 127.6,-135.01"/>
<polygon fill="#757575" stroke="#757575" points="124.98,-132.67 120.28,-142.17 129.87,-137.68 124.98,-132.67"/>
</g>
<!-- components/VideoCall.tsx&#45;&gt;components/ParticipantTile.tsx -->
<g id="edge32" class="edge">
<title>components/VideoCall.tsx&#45;&gt;components/ParticipantTile.tsx</title>
<path fill="none" stroke="#757575" d="M208.58,-86.17C208.59,-86.17 208.6,-86.17 208.61,-86.18"/>
<polygon fill="#757575" stroke="#757575" points="198.04,-86.73 208.63,-86.18 200.01,-80.01 198.04,-86.73"/>
</g>
<!-- index.css -->
<g id="node44" class="node">
<title>index.css</title>
<path fill="none" stroke="#cfffac" d="M244.75,-138.24C244.75,-138.24 187.09,-138.24 187.09,-138.24 183.25,-138.24 179.42,-134.41 179.42,-130.57 179.42,-130.57 179.42,-122.91 179.42,-122.91 179.42,-119.07 183.25,-115.24 187.09,-115.24 187.09,-115.24 244.75,-115.24 244.75,-115.24 248.59,-115.24 252.42,-119.07 252.42,-122.91 252.42,-122.91 252.42,-130.57 252.42,-130.57 252.42,-134.41 248.59,-138.24 244.75,-138.24"/>
<text text-anchor="middle" x="215.92" y="-123.04" font-family="Arial" font-size="14.00" fill="#cfffac">index.css</text>
</g>
<!-- lib/createSession.test.ts -->
<g id="node45" class="node">
<title>lib/createSession.test.ts</title>
<path fill="none" stroke="#c6c5fe" d="M189.58,-181.23C189.58,-181.23 45.91,-181.23 45.91,-181.23 42.08,-181.23 38.24,-177.4 38.24,-173.57 38.24,-173.57 38.24,-165.9 38.24,-165.9 38.24,-162.07 42.08,-158.23 45.91,-158.23 45.91,-158.23 189.58,-158.23 189.58,-158.23 193.41,-158.23 197.24,-162.07 197.24,-165.9 197.24,-165.9 197.24,-173.57 197.24,-173.57 197.24,-177.4 193.41,-181.23 189.58,-181.23"/>
<text text-anchor="middle" x="117.74" y="-166.03" font-family="Arial" font-size="14.00" fill="#c6c5fe">lib/createSession.test.ts</text>
</g>
<!-- lib/createSession.test.ts&#45;&gt;lib/mutations.ts -->
<g id="edge36" class="edge">
<title>lib/createSession.test.ts&#45;&gt;lib/mutations.ts</title>
<path fill="none" stroke="#757575" d="M173.31,-178.01C173.34,-178.01 173.36,-178.02 173.38,-178.02"/>
<polygon fill="#757575" stroke="#757575" points="163.02,-180 173.43,-178.03 164.06,-173.08 163.02,-180"/>
</g>
<!-- lib/createSession.test.ts&#45;&gt;lib/supabaseClient.ts -->
<g id="edge37" class="edge">
<title>lib/createSession.test.ts&#45;&gt;lib/supabaseClient.ts</title>
<path fill="none" stroke="#757575" d="M110.99,-158.1C110.95,-158.02 110.9,-157.94 110.86,-157.87"/>
<polygon fill="#757575" stroke="#757575" points="118.78,-164.53 110.73,-157.64 112.72,-168.05 118.78,-164.53"/>
</g>
<!-- lib/dailyTokenManager.ts&#45;&gt;lib/types.ts -->
<g id="edge38" class="edge">
<title>lib/dailyTokenManager.ts&#45;&gt;lib/types.ts</title>
<path fill="none" stroke="#757575" d="M197.22,-158.47C197.23,-158.46 197.24,-158.45 197.25,-158.43"/>
<polygon fill="#757575" stroke="#757575" points="195.27,-168.82 197.26,-158.41 189.21,-165.3 195.27,-168.82"/>
</g>
<!-- lib/types/index.ts -->
<g id="node55" class="node">
<title>lib/types/index.ts</title>
<path fill="none" stroke="#c6c5fe" d="M242.98,-90.96C242.98,-90.96 142.31,-90.96 142.31,-90.96 138.48,-90.96 134.64,-87.13 134.64,-83.29 134.64,-83.29 134.64,-75.63 134.64,-75.63 134.64,-71.79 138.48,-67.96 142.31,-67.96 142.31,-67.96 242.98,-67.96 242.98,-67.96 246.81,-67.96 250.64,-71.79 250.64,-75.63 250.64,-75.63 250.64,-83.29 250.64,-83.29 250.64,-87.13 246.81,-90.96 242.98,-90.96"/>
<text text-anchor="middle" x="192.64" y="-75.76" font-family="Arial" font-size="14.00" fill="#c6c5fe">lib/types/index.ts</text>
</g>
<!-- lib/types.ts&#45;&gt;lib/types/index.ts -->
<g id="edge58" class="edge">
<title>lib/types.ts&#45;&gt;lib/types/index.ts</title>
<path fill="none" stroke="#757575" d="M196.59,-146.74C195.9,-134.85 194.79,-116.1 193.93,-101.41"/>
<polygon fill="#757575" stroke="#757575" points="197.41,-100.93 193.33,-91.15 190.42,-101.34 197.41,-100.93"/>
</g>
<!-- lib/mutations.test.ts -->
<g id="node49" class="node">
<title>lib/mutations.test.ts</title>
<path fill="none" stroke="#c6c5fe" d="M235.46,-180.69C235.46,-180.69 117.79,-180.69 117.79,-180.69 113.96,-180.69 110.12,-176.85 110.12,-173.02 110.12,-173.02 110.12,-165.35 110.12,-165.35 110.12,-161.52 113.96,-157.69 117.79,-157.69 117.79,-157.69 235.46,-157.69 235.46,-157.69 239.29,-157.69 243.12,-161.52 243.12,-165.35 243.12,-165.35 243.12,-173.02 243.12,-173.02 243.12,-176.85 239.29,-180.69 235.46,-180.69"/>
<text text-anchor="middle" x="176.62" y="-165.49" font-family="Arial" font-size="14.00" fill="#c6c5fe">lib/mutations.test.ts</text>
</g>
<!-- lib/mutations.test.ts&#45;&gt;lib/mutations.ts -->
<g id="edge43" class="edge">
<title>lib/mutations.test.ts&#45;&gt;lib/mutations.ts</title>
<path fill="none" stroke="#757575" d="M173.51,-177.94C173.5,-177.95 173.5,-177.97 173.49,-177.98"/>
<polygon fill="#757575" stroke="#757575" points="173.56,-167.41 173.48,-178.01 180.16,-169.77 173.56,-167.41"/>
</g>
<!-- lib/mutations.test.ts&#45;&gt;lib/supabaseClient.ts -->
<g id="edge44" class="edge">
<title>lib/mutations.test.ts&#45;&gt;lib/supabaseClient.ts</title>
<path fill="none" stroke="#757575" d="M125.66,-157.63C125.58,-157.61 125.5,-157.59 125.43,-157.57"/>
<polygon fill="#757575" stroke="#757575" points="135.72,-156.32 125.2,-157.52 134.17,-163.15 135.72,-156.32"/>
</g>
<!-- lib/mutations.test.ts&#45;&gt;lib/types.ts -->
<g id="edge45" class="edge">
<title>lib/mutations.test.ts&#45;&gt;lib/types.ts</title>
<path fill="none" stroke="#757575" d="M197.22,-158.41C197.23,-158.41 197.24,-158.4 197.24,-158.4"/>
<polygon fill="#757575" stroke="#757575" points="190.03,-166.15 197.26,-158.39 186.76,-159.95 190.03,-166.15"/>
</g>
<!-- lib/mutations.validation.ts -->
<g id="node50" class="node">
<title>lib/mutations.validation.ts</title>
<path fill="none" stroke="#cfffac" d="M475.08,-38C475.08,-38 322.41,-38 322.41,-38 318.58,-38 314.75,-34.17 314.75,-30.33 314.75,-30.33 314.75,-22.67 314.75,-22.67 314.75,-18.83 318.58,-15 322.41,-15 322.41,-15 475.08,-15 475.08,-15 478.91,-15 482.75,-18.83 482.75,-22.67 482.75,-22.67 482.75,-30.33 482.75,-30.33 482.75,-34.17 478.91,-38 475.08,-38"/>
<text text-anchor="middle" x="398.75" y="-22.8" font-family="Arial" font-size="14.00" fill="#cfffac">lib/mutations.validation.ts</text>
</g>
<!-- lib/presence.ts&#45;&gt;lib/mutations.ts -->
<g id="edge50" class="edge">
<title>lib/presence.ts&#45;&gt;lib/mutations.ts</title>
<path fill="none" stroke="#757575" d="M173.36,-178.05C173.38,-178.04 173.39,-178.04 173.41,-178.04"/>
<polygon fill="#757575" stroke="#757575" points="163.83,-182.5 173.44,-178.04 163.15,-175.53 163.83,-182.5"/>
</g>
<!-- lib/presence.ts&#45;&gt;lib/supabaseClient.ts -->
<g id="edge51" class="edge">
<title>lib/presence.ts&#45;&gt;lib/supabaseClient.ts</title>
<path fill="none" stroke="#757575" d="M123,-170.1C122.91,-170 122.83,-169.9 122.74,-169.81"/>
<polygon fill="#757575" stroke="#757575" points="128.05,-170.51 118.79,-165.36 122.82,-175.16 128.05,-170.51"/>
</g>
<!-- lib/realtimeHooks.ts&#45;&gt;lib/supabaseClient.ts -->
<g id="edge52" class="edge">
<title>lib/realtimeHooks.ts&#45;&gt;lib/supabaseClient.ts</title>
<path fill="none" stroke="#757575" d="M146.88,-145.82C146.8,-145.84 146.72,-145.86 146.64,-145.87"/>
<polygon fill="#757575" stroke="#757575" points="155.49,-140.47 146.4,-145.92 156.9,-147.33 155.49,-140.47"/>
</g>
<!-- lib/realtimeHooks.ts&#45;&gt;lib/types.ts -->
<g id="edge53" class="edge">
<title>lib/realtimeHooks.ts&#45;&gt;lib/types.ts</title>
<path fill="none" stroke="#757575" d="M200.16,-146.06C200.14,-146.15 200.12,-146.25 200.1,-146.34"/>
<polygon fill="#757575" stroke="#757575" points="198.91,-136.09 200.03,-146.63 205.72,-137.69 198.91,-136.09"/>
</g>
<!-- lib/sessionCode.test.ts -->
<g id="node53" class="node">
<title>lib/sessionCode.test.ts</title>
<path fill="none" stroke="#c6c5fe" d="M178.75,-173.23C178.75,-173.23 42.08,-173.23 42.08,-173.23 38.25,-173.23 34.41,-169.39 34.41,-165.56 34.41,-165.56 34.41,-157.89 34.41,-157.89 34.41,-154.06 38.25,-150.23 42.08,-150.23 42.08,-150.23 178.75,-150.23 178.75,-150.23 182.58,-150.23 186.41,-154.06 186.41,-157.89 186.41,-157.89 186.41,-165.56 186.41,-165.56 186.41,-169.39 182.58,-173.23 178.75,-173.23"/>
<text text-anchor="middle" x="110.41" y="-158.03" font-family="Arial" font-size="14.00" fill="#c6c5fe">lib/sessionCode.test.ts</text>
</g>
<!-- lib/sessionCode.test.ts&#45;&gt;lib/mutations.ts -->
<g id="edge55" class="edge">
<title>lib/sessionCode.test.ts&#45;&gt;lib/mutations.ts</title>
<path fill="none" stroke="#757575" d="M154.89,-173.23C154.97,-173.25 155.06,-173.27 155.14,-173.29"/>
<polygon fill="#757575" stroke="#757575" points="144.82,-174.24 155.38,-173.36 146.58,-167.46 144.82,-174.24"/>
</g>
<!-- lib/sessionCode.test.ts&#45;&gt;lib/supabaseClient.ts -->
<g id="edge56" class="edge">
<title>lib/sessionCode.test.ts&#45;&gt;lib/supabaseClient.ts</title>
<path fill="none" stroke="#757575" d="M108.48,-153.81C108.47,-153.8 108.47,-153.79 108.47,-153.78"/>
<polygon fill="#757575" stroke="#757575" points="114.26,-162.62 108.46,-153.75 107.46,-164.3 114.26,-162.62"/>
</g>
<!-- lib/sessionHooks.ts&#45;&gt;lib/supabaseClient.ts -->
<g id="edge57" class="edge">
<title>lib/sessionHooks.ts&#45;&gt;lib/supabaseClient.ts</title>
<path fill="none" stroke="#757575" d="M186.01,-122.02C173.78,-127.02 159.3,-132.94 146.19,-138.3"/>
<polygon fill="#757575" stroke="#757575" points="144.86,-135.06 136.93,-142.08 147.51,-141.54 144.86,-135.06"/>
</g>
<!-- lib/types/index.ts&#45;&gt;lib/types/supabase.ts -->
<g id="edge59" class="edge">
<title>lib/types/index.ts&#45;&gt;lib/types/supabase.ts</title>
<path fill="none" stroke="#757575" d="M200.55,-80.32C200.57,-80.33 200.58,-80.33 200.59,-80.33"/>
<polygon fill="#757575" stroke="#757575" points="190.29,-82.69 200.62,-80.33 191.07,-75.73 190.29,-82.69"/>
</g>
<!-- lib/useSessionData.ts&#45;&gt;lib/mutations.ts -->
<g id="edge62" class="edge">
<title>lib/useSessionData.ts&#45;&gt;lib/mutations.ts</title>
<path fill="none" stroke="#757575" d="M173.4,-178.06C173.41,-178.06 173.42,-178.05 173.43,-178.05"/>
<polygon fill="#757575" stroke="#757575" points="165.56,-185.13 173.45,-178.04 162.86,-178.66 165.56,-185.13"/>
</g>
<!-- lib/userSession.ts -->
<g id="node57" class="node">
<title>lib/userSession.ts</title>
<path fill="none" stroke="#c6c5fe" d="M258.62,-176.51C258.62,-176.51 151.96,-176.51 151.96,-176.51 148.12,-176.51 144.29,-172.67 144.29,-168.84 144.29,-168.84 144.29,-161.17 144.29,-161.17 144.29,-157.34 148.12,-153.51 151.96,-153.51 151.96,-153.51 258.62,-153.51 258.62,-153.51 262.46,-153.51 266.29,-157.34 266.29,-161.17 266.29,-161.17 266.29,-168.84 266.29,-168.84 266.29,-172.67 262.46,-176.51 258.62,-176.51"/>
<text text-anchor="middle" x="205.29" y="-161.31" font-family="Arial" font-size="14.00" fill="#c6c5fe">lib/userSession.ts</text>
</g>
<!-- lib/userSession.ts&#45;&gt;lib/types.ts -->
<g id="edge63" class="edge">
<title>lib/userSession.ts&#45;&gt;lib/types.ts</title>
<path fill="none" stroke="#757575" d="M197.37,-158.46C197.35,-158.44 197.34,-158.43 197.33,-158.43"/>
<polygon fill="#757575" stroke="#757575" points="207.25,-162.08 197.3,-158.4 202.78,-167.48 207.25,-162.08"/>
</g>
<!-- main.tsx -->
<g id="node58" class="node">
<title>main.tsx</title>
<path fill="none" stroke="#c6c5fe" d="M234.24,-137.79C234.24,-137.79 181.57,-137.79 181.57,-137.79 177.74,-137.79 173.9,-133.96 173.9,-130.12 173.9,-130.12 173.9,-122.46 173.9,-122.46 173.9,-118.62 177.74,-114.79 181.57,-114.79 181.57,-114.79 234.24,-114.79 234.24,-114.79 238.07,-114.79 241.9,-118.62 241.9,-122.46 241.9,-122.46 241.9,-130.12 241.9,-130.12 241.9,-133.96 238.07,-137.79 234.24,-137.79"/>
<text text-anchor="middle" x="207.9" y="-122.59" font-family="Arial" font-size="14.00" fill="#c6c5fe">main.tsx</text>
</g>
<!-- main.tsx&#45;&gt;App.tsx -->
<g id="edge64" class="edge">
<title>main.tsx&#45;&gt;App.tsx</title>
<path fill="none" stroke="#757575" d="M199.96,-126.27C199.94,-126.27 199.93,-126.27 199.92,-126.27"/>
<polygon fill="#757575" stroke="#757575" points="209.91,-122.83 199.89,-126.27 209.87,-129.83 209.91,-122.83"/>
</g>
<!-- main.tsx&#45;&gt;index.css -->
<g id="edge65" class="edge">
<title>main.tsx&#45;&gt;index.css</title>
<path fill="none" stroke="#757575" d="M215.83,-126.73C215.84,-126.73 215.86,-126.74 215.87,-126.74"/>
<polygon fill="#757575" stroke="#757575" points="205.7,-129.64 215.9,-126.74 206.12,-122.65 205.7,-129.64"/>
</g>
<!-- pages/Join.backup.tsx -->
<g id="node59" class="node">
<title>pages/Join.backup.tsx</title>
<path fill="none" stroke="#c6c5fe" d="M188,-125.21C188,-125.21 53.33,-125.21 53.33,-125.21 49.5,-125.21 45.66,-121.38 45.66,-117.55 45.66,-117.55 45.66,-109.88 45.66,-109.88 45.66,-106.05 49.5,-102.21 53.33,-102.21 53.33,-102.21 188,-102.21 188,-102.21 191.83,-102.21 195.66,-106.05 195.66,-109.88 195.66,-109.88 195.66,-117.55 195.66,-117.55 195.66,-121.38 191.83,-125.21 188,-125.21"/>
<text text-anchor="middle" x="120.66" y="-110.01" font-family="Arial" font-size="14.00" fill="#c6c5fe">pages/Join.backup.tsx</text>
</g>
<!-- pages/Join.backup.tsx&#45;&gt;lib/mutations.ts -->
<g id="edge81" class="edge">
<title>pages/Join.backup.tsx&#45;&gt;lib/mutations.ts</title>
<path fill="none" stroke="#757575" d="M130.35,-125.51C137.87,-134.67 148.46,-147.57 157.26,-158.29"/>
<polygon fill="#757575" stroke="#757575" points="154.8,-160.8 163.85,-166.31 160.21,-156.36 154.8,-160.8"/>
</g>
<!-- pages/Join.backup.tsx&#45;&gt;components/Alert.tsx -->
<g id="edge78" class="edge">
<title>pages/Join.backup.tsx&#45;&gt;components/Alert.tsx</title>
<path fill="none" stroke="#757575" d="M126.41,-125.23C131.94,-136.31 140.43,-153.31 147.14,-166.74"/>
<polygon fill="#757575" stroke="#757575" points="144.04,-168.37 151.63,-175.75 150.3,-165.24 144.04,-168.37"/>
</g>
<!-- pages/Join.backup.tsx&#45;&gt;components/FlagSelector.tsx -->
<g id="edge79" class="edge">
<title>pages/Join.backup.tsx&#45;&gt;components/FlagSelector.tsx</title>
<path fill="none" stroke="#757575" d="M128.53,-105.8C128.55,-105.78 128.56,-105.77 128.57,-105.76"/>
<polygon fill="#757575" stroke="#757575" points="124.03,-115.3 128.6,-105.73 119.06,-110.36 124.03,-115.3"/>
</g>
<!-- pages/Join.backup.tsx&#45;&gt;components/LogoSelector.tsx -->
<g id="edge80" class="edge">
<title>pages/Join.backup.tsx&#45;&gt;components/LogoSelector.tsx</title>
<path fill="none" stroke="#757575" d="M116.33,-121.63C116.32,-121.64 116.31,-121.65 116.31,-121.66"/>
<polygon fill="#757575" stroke="#757575" points="118.04,-111.23 116.29,-121.69 124.18,-114.61 118.04,-111.23"/>
</g>
<!-- setupTests.ts -->
<g id="node60" class="node">
<title>setupTests.ts</title>
<path fill="none" stroke="#cfffac" d="M267.58,-23C267.58,-23 187.91,-23 187.91,-23 184.08,-23 180.25,-19.17 180.25,-15.33 180.25,-15.33 180.25,-7.67 180.25,-7.67 180.25,-3.83 184.08,0 187.91,0 187.91,0 267.58,0 267.58,0 271.41,0 275.25,-3.83 275.25,-7.67 275.25,-7.67 275.25,-15.33 275.25,-15.33 275.25,-19.17 271.41,-23 267.58,-23"/>
<text text-anchor="middle" x="227.75" y="-7.8" font-family="Arial" font-size="14.00" fill="#cfffac">setupTests.ts</text>
</g>
</g>
</svg>
