<?xml version="1.0" encoding="UTF-8" standalone="no"?>
<!DOCTYPE svg PUBLIC "-//W3C//DTD SVG 1.1//EN"
 "http://www.w3.org/Graphics/SVG/1.1/DTD/svg11.dtd">
<!-- Generated by graphviz version 2.43.0 (0)
 -->
<!-- Title: G Pages: 1 -->
<svg width="519pt" height="274pt"
 viewBox="0.00 0.00 518.93 274.20" xmlns="http://www.w3.org/2000/svg" xmlns:xlink="http://www.w3.org/1999/xlink">
<g id="graph0" class="graph" transform="scale(1 1) rotate(0) translate(21.6 252.6)">
<title>G</title>
<polygon fill="#111111" stroke="transparent" points="-21.6,21.6 -21.6,-252.6 497.33,-252.6 497.33,21.6 -21.6,21.6"/>
<!-- App.tsx -->
<g id="node1" class="node">
<title>App.tsx</title>
<path fill="none" stroke="#c6c5fe" d="M139.2,-98.87C139.2,-98.87 92.53,-98.87 92.53,-98.87 88.7,-98.87 84.86,-95.03 84.86,-91.2 84.86,-91.2 84.86,-83.53 84.86,-83.53 84.86,-79.7 88.7,-75.87 92.53,-75.87 92.53,-75.87 139.2,-75.87 139.2,-75.87 143.03,-75.87 146.86,-79.7 146.86,-83.53 146.86,-83.53 146.86,-91.2 146.86,-91.2 146.86,-95.03 143.03,-98.87 139.2,-98.87"/>
<text text-anchor="middle" x="115.86" y="-83.67" font-family="Arial" font-size="14.00" fill="#c6c5fe">App.tsx</text>
</g>
<!-- pages/GameSetup.tsx -->
<g id="node2" class="node">
<title>pages/GameSetup.tsx</title>
<path fill="none" stroke="#c6c5fe" d="M163.07,-127.09C163.07,-127.09 26.41,-127.09 26.41,-127.09 22.57,-127.09 18.74,-123.25 18.74,-119.42 18.74,-119.42 18.74,-111.75 18.74,-111.75 18.74,-107.92 22.57,-104.09 26.41,-104.09 26.41,-104.09 163.07,-104.09 163.07,-104.09 166.91,-104.09 170.74,-107.92 170.74,-111.75 170.74,-111.75 170.74,-119.42 170.74,-119.42 170.74,-123.25 166.91,-127.09 163.07,-127.09"/>
<text text-anchor="middle" x="94.74" y="-111.89" font-family="Arial" font-size="14.00" fill="#c6c5fe">pages/GameSetup.tsx</text>
</g>
<!-- App.tsx&#45;&gt;pages/GameSetup.tsx -->
<g id="edge1" class="edge">
<title>App.tsx&#45;&gt;pages/GameSetup.tsx</title>
<path fill="none" stroke="#757575" d="M107.03,-99.17C106.95,-99.27 106.88,-99.37 106.81,-99.47"/>
<polygon fill="#757575" stroke="#757575" points="106.66,-93.82 103.47,-103.92 112.27,-98.01 106.66,-93.82"/>
</g>
<!-- pages/Homepage.tsx -->
<g id="node3" class="node">
<title>pages/Homepage.tsx</title>
<path fill="none" stroke="#c6c5fe" d="M236.57,-134.69C236.57,-134.69 106.91,-134.69 106.91,-134.69 103.07,-134.69 99.24,-130.86 99.24,-127.03 99.24,-127.03 99.24,-119.36 99.24,-119.36 99.24,-115.53 103.07,-111.69 106.91,-111.69 106.91,-111.69 236.57,-111.69 236.57,-111.69 240.41,-111.69 244.24,-115.53 244.24,-119.36 244.24,-119.36 244.24,-127.03 244.24,-127.03 244.24,-130.86 240.41,-134.69 236.57,-134.69"/>
<text text-anchor="middle" x="171.74" y="-119.49" font-family="Arial" font-size="14.00" fill="#c6c5fe">pages/Homepage.tsx</text>
</g>
<!-- App.tsx&#45;&gt;pages/Homepage.tsx -->
<g id="edge2" class="edge">
<title>App.tsx&#45;&gt;pages/Homepage.tsx</title>
<path fill="none" stroke="#757575" d="M133.85,-98.9C137.44,-101.2 141.28,-103.66 145.09,-106.11"/>
<polygon fill="#757575" stroke="#757575" points="143.48,-109.23 153.79,-111.68 147.26,-103.34 143.48,-109.23"/>
</g>
<!-- pages/Join.tsx -->
<g id="node4" class="node">
<title>pages/Join.tsx</title>
<path fill="none" stroke="#c6c5fe" d="M216.3,-116.94C216.3,-116.94 128.63,-116.94 128.63,-116.94 124.8,-116.94 120.97,-113.11 120.97,-109.28 120.97,-109.28 120.97,-101.61 120.97,-101.61 120.97,-97.78 124.8,-93.94 128.63,-93.94 128.63,-93.94 216.3,-93.94 216.3,-93.94 220.13,-93.94 223.97,-97.78 223.97,-101.61 223.97,-101.61 223.97,-109.28 223.97,-109.28 223.97,-113.11 220.13,-116.94 216.3,-116.94"/>
<text text-anchor="middle" x="172.47" y="-101.74" font-family="Arial" font-size="14.00" fill="#c6c5fe">pages/Join.tsx</text>
</g>
<!-- App.tsx&#45;&gt;pages/Join.tsx -->
<g id="edge3" class="edge">
<title>App.tsx&#45;&gt;pages/Join.tsx</title>
<path fill="none" stroke="#757575" d="M147.15,-97.36C147.2,-97.37 147.25,-97.39 147.3,-97.41"/>
<polygon fill="#757575" stroke="#757575" points="136.86,-97.74 147.45,-97.45 138.99,-91.07 136.86,-97.74"/>
</g>
<!-- pages/Lobby.tsx -->
<g id="node5" class="node">
<title>pages/Lobby.tsx</title>
<path fill="none" stroke="#c6c5fe" d="M185.85,-83.94C185.85,-83.94 87.18,-83.94 87.18,-83.94 83.35,-83.94 79.51,-80.11 79.51,-76.28 79.51,-76.28 79.51,-68.61 79.51,-68.61 79.51,-64.78 83.35,-60.94 87.18,-60.94 87.18,-60.94 185.85,-60.94 185.85,-60.94 189.68,-60.94 193.51,-64.78 193.51,-68.61 193.51,-68.61 193.51,-76.28 193.51,-76.28 193.51,-80.11 189.68,-83.94 185.85,-83.94"/>
<text text-anchor="middle" x="136.51" y="-68.74" font-family="Arial" font-size="14.00" fill="#c6c5fe">pages/Lobby.tsx</text>
</g>
<!-- App.tsx&#45;&gt;pages/Lobby.tsx -->
<g id="edge4" class="edge">
<title>App.tsx&#45;&gt;pages/Lobby.tsx</title>
<path fill="none" stroke="#757575" d="M132.14,-75.61C132.22,-75.55 132.29,-75.49 132.37,-75.44"/>
<polygon fill="#757575" stroke="#757575" points="126.55,-83.96 132.61,-75.27 122.45,-78.29 126.55,-83.96"/>
</g>
<!-- pages/Quiz.tsx -->
<g id="node6" class="node">
<title>pages/Quiz.tsx</title>
<path fill="none" stroke="#c6c5fe" d="M153.69,-103.08C153.69,-103.08 62.03,-103.08 62.03,-103.08 58.19,-103.08 54.36,-99.24 54.36,-95.41 54.36,-95.41 54.36,-87.74 54.36,-87.74 54.36,-83.91 58.19,-80.08 62.03,-80.08 62.03,-80.08 153.69,-80.08 153.69,-80.08 157.53,-80.08 161.36,-83.91 161.36,-87.74 161.36,-87.74 161.36,-95.41 161.36,-95.41 161.36,-99.24 157.53,-103.08 153.69,-103.08"/>
<text text-anchor="middle" x="107.86" y="-87.88" font-family="Arial" font-size="14.00" fill="#c6c5fe">pages/Quiz.tsx</text>
</g>
<!-- App.tsx&#45;&gt;pages/Quiz.tsx -->
<g id="edge5" class="edge">
<title>App.tsx&#45;&gt;pages/Quiz.tsx</title>
<path fill="none" stroke="#757575" d="M107.95,-91.53C107.93,-91.54 107.92,-91.55 107.91,-91.55"/>
<polygon fill="#757575" stroke="#757575" points="115.1,-83.79 107.88,-91.57 118.37,-89.99 115.1,-83.79"/>
</g>
<!-- pages/Results.tsx -->
<g id="node7" class="node">
<title>pages/Results.tsx</title>
<path fill="none" stroke="#c6c5fe" d="M174.34,-90.86C174.34,-90.86 66.67,-90.86 66.67,-90.86 62.84,-90.86 59.01,-87.03 59.01,-83.2 59.01,-83.2 59.01,-75.53 59.01,-75.53 59.01,-71.7 62.84,-67.86 66.67,-67.86 66.67,-67.86 174.34,-67.86 174.34,-67.86 178.17,-67.86 182.01,-71.7 182.01,-75.53 182.01,-75.53 182.01,-83.2 182.01,-83.2 182.01,-87.03 178.17,-90.86 174.34,-90.86"/>
<text text-anchor="middle" x="120.51" y="-75.66" font-family="Arial" font-size="14.00" fill="#c6c5fe">pages/Results.tsx</text>
</g>
<!-- App.tsx&#45;&gt;pages/Results.tsx -->
<g id="edge6" class="edge">
<title>App.tsx&#45;&gt;pages/Results.tsx</title>
<path fill="none" stroke="#757575" d="M120.46,-79.45C120.46,-79.44 120.47,-79.42 120.48,-79.41"/>
<polygon fill="#757575" stroke="#757575" points="118.49,-89.8 120.49,-79.39 112.43,-86.28 118.49,-89.8"/>
</g>
<!-- atoms/index.ts -->
<g id="node8" class="node">
<title>atoms/index.ts</title>
<path fill="none" stroke="#c6c5fe" d="M196.86,-82.95C196.86,-82.95 108.19,-82.95 108.19,-82.95 104.36,-82.95 100.52,-79.12 100.52,-75.28 100.52,-75.28 100.52,-67.62 100.52,-67.62 100.52,-63.78 104.36,-59.95 108.19,-59.95 108.19,-59.95 196.86,-59.95 196.86,-59.95 200.69,-59.95 204.52,-63.78 204.52,-67.62 204.52,-67.62 204.52,-75.28 204.52,-75.28 204.52,-79.12 200.69,-82.95 196.86,-82.95"/>
<text text-anchor="middle" x="152.52" y="-67.75" font-family="Arial" font-size="14.00" fill="#c6c5fe">atoms/index.ts</text>
</g>
<!-- pages/GameSetup.tsx&#45;&gt;atoms/index.ts -->
<g id="edge44" class="edge">
<title>pages/GameSetup.tsx&#45;&gt;atoms/index.ts</title>
<path fill="none" stroke="#757575" d="M109.92,-103.99C115.71,-99.57 122.46,-94.41 128.86,-89.52"/>
<polygon fill="#757575" stroke="#757575" points="131.42,-91.97 137.24,-83.12 127.17,-86.41 131.42,-91.97"/>
</g>
<!-- lib/mutations.ts -->
<g id="node11" class="node">
<title>lib/mutations.ts</title>
<path fill="none" stroke="#c6c5fe" d="M209,-150.7C209,-150.7 117.34,-150.7 117.34,-150.7 113.5,-150.7 109.67,-146.86 109.67,-143.03 109.67,-143.03 109.67,-135.36 109.67,-135.36 109.67,-131.53 113.5,-127.7 117.34,-127.7 117.34,-127.7 209,-127.7 209,-127.7 212.84,-127.7 216.67,-131.53 216.67,-135.36 216.67,-135.36 216.67,-143.03 216.67,-143.03 216.67,-146.86 212.84,-150.7 209,-150.7"/>
<text text-anchor="middle" x="163.17" y="-135.5" font-family="Arial" font-size="14.00" fill="#c6c5fe">lib/mutations.ts</text>
</g>
<!-- pages/GameSetup.tsx&#45;&gt;lib/mutations.ts -->
<g id="edge47" class="edge">
<title>pages/GameSetup.tsx&#45;&gt;lib/mutations.ts</title>
<path fill="none" stroke="#757575" d="M128.15,-127.11C128.29,-127.16 128.42,-127.21 128.56,-127.26"/>
<polygon fill="#757575" stroke="#757575" points="119.19,-127.72 129.78,-127.68 121.47,-121.11 119.19,-127.72"/>
</g>
<!-- components/Alert.tsx -->
<g id="node12" class="node">
<title>components/Alert.tsx</title>
<path fill="none" stroke="#cfffac" d="M241.37,-126.69C241.37,-126.69 113.7,-126.69 113.7,-126.69 109.87,-126.69 106.04,-122.86 106.04,-119.02 106.04,-119.02 106.04,-111.36 106.04,-111.36 106.04,-107.52 109.87,-103.69 113.7,-103.69 113.7,-103.69 241.37,-103.69 241.37,-103.69 245.2,-103.69 249.04,-107.52 249.04,-111.36 249.04,-111.36 249.04,-119.02 249.04,-119.02 249.04,-122.86 245.2,-126.69 241.37,-126.69"/>
<text text-anchor="middle" x="177.54" y="-111.49" font-family="Arial" font-size="14.00" fill="#cfffac">components/Alert.tsx</text>
</g>
<!-- pages/GameSetup.tsx&#45;&gt;components/Alert.tsx -->
<g id="edge45" class="edge">
<title>pages/GameSetup.tsx&#45;&gt;components/Alert.tsx</title>
<path fill="none" stroke="#757575" d="M170.76,-115.22C170.83,-115.22 170.89,-115.22 170.96,-115.22"/>
<polygon fill="#757575" stroke="#757575" points="161.17,-118.77 171.15,-115.22 161.13,-111.77 161.17,-118.77"/>
</g>
<!-- components/LobbyStatus.tsx -->
<g id="node21" class="node">
<title>components/LobbyStatus.tsx</title>
<path fill="none" stroke="#c6c5fe" d="M183.33,-135.09C183.33,-135.09 7.67,-135.09 7.67,-135.09 3.83,-135.09 0,-131.26 0,-127.42 0,-127.42 0,-119.76 0,-119.76 0,-115.92 3.83,-112.09 7.67,-112.09 7.67,-112.09 183.33,-112.09 183.33,-112.09 187.17,-112.09 191,-115.92 191,-119.76 191,-119.76 191,-127.42 191,-127.42 191,-131.26 187.17,-135.09 183.33,-135.09"/>
<text text-anchor="middle" x="95.5" y="-119.89" font-family="Arial" font-size="14.00" fill="#c6c5fe">components/LobbyStatus.tsx</text>
</g>
<!-- pages/GameSetup.tsx&#45;&gt;components/LobbyStatus.tsx -->
<g id="edge46" class="edge">
<title>pages/GameSetup.tsx&#45;&gt;components/LobbyStatus.tsx</title>
<path fill="none" stroke="#757575" d="M95.49,-123.5C95.49,-123.52 95.49,-123.53 95.5,-123.54"/>
<polygon fill="#757575" stroke="#757575" points="91.03,-113.95 95.5,-123.57 98,-113.27 91.03,-113.95"/>
</g>
<!-- lib/supabaseClient.ts -->
<g id="node22" class="node">
<title>lib/supabaseClient.ts</title>
<path fill="none" stroke="#cfffac" d="M169.99,-151.1C169.99,-151.1 44.32,-151.1 44.32,-151.1 40.49,-151.1 36.66,-147.26 36.66,-143.43 36.66,-143.43 36.66,-135.76 36.66,-135.76 36.66,-131.93 40.49,-128.1 44.32,-128.1 44.32,-128.1 169.99,-128.1 169.99,-128.1 173.82,-128.1 177.66,-131.93 177.66,-135.76 177.66,-135.76 177.66,-143.43 177.66,-143.43 177.66,-147.26 173.82,-151.1 169.99,-151.1"/>
<text text-anchor="middle" x="107.16" y="-135.9" font-family="Arial" font-size="14.00" fill="#cfffac">lib/supabaseClient.ts</text>
</g>
<!-- pages/GameSetup.tsx&#45;&gt;lib/supabaseClient.ts -->
<g id="edge49" class="edge">
<title>pages/GameSetup.tsx&#45;&gt;lib/supabaseClient.ts</title>
<path fill="none" stroke="#757575" d="M100.8,-127.31C100.85,-127.4 100.9,-127.5 100.95,-127.59"/>
<polygon fill="#757575" stroke="#757575" points="93.39,-120.61 101.1,-127.88 99.61,-117.39 93.39,-120.61"/>
</g>
<!-- lib/types.ts -->
<g id="node32" class="node">
<title>lib/types.ts</title>
<path fill="none" stroke="#c6c5fe" d="M130.21,-119.08C130.21,-119.08 65.55,-119.08 65.55,-119.08 61.71,-119.08 57.88,-115.25 57.88,-111.42 57.88,-111.42 57.88,-103.75 57.88,-103.75 57.88,-99.92 61.71,-96.08 65.55,-96.08 65.55,-96.08 130.21,-96.08 130.21,-96.08 134.05,-96.08 137.88,-99.92 137.88,-103.75 137.88,-103.75 137.88,-111.42 137.88,-111.42 137.88,-115.25 134.05,-119.08 130.21,-119.08"/>
<text text-anchor="middle" x="97.88" y="-103.88" font-family="Arial" font-size="14.00" fill="#c6c5fe">lib/types.ts</text>
</g>
<!-- pages/GameSetup.tsx&#45;&gt;lib/types.ts -->
<g id="edge50" class="edge">
<title>pages/GameSetup.tsx&#45;&gt;lib/types.ts</title>
<path fill="none" stroke="#757575" d="M97.84,-107.67C97.85,-107.66 97.86,-107.64 97.86,-107.63"/>
<polygon fill="#757575" stroke="#757575" points="97.46,-118.2 97.87,-107.61 90.94,-115.63 97.46,-118.2"/>
</g>
<!-- lib/presence.ts -->
<g id="node35" class="node">
<title>lib/presence.ts</title>
<path fill="none" stroke="#c6c5fe" d="M144.94,-143.09C144.94,-143.09 56.27,-143.09 56.27,-143.09 52.44,-143.09 48.6,-139.26 48.6,-135.43 48.6,-135.43 48.6,-127.76 48.6,-127.76 48.6,-123.93 52.44,-120.09 56.27,-120.09 56.27,-120.09 144.94,-120.09 144.94,-120.09 148.77,-120.09 152.6,-123.93 152.6,-127.76 152.6,-127.76 152.6,-135.43 152.6,-135.43 152.6,-139.26 148.77,-143.09 144.94,-143.09"/>
<text text-anchor="middle" x="100.6" y="-127.89" font-family="Arial" font-size="14.00" fill="#c6c5fe">lib/presence.ts</text>
</g>
<!-- pages/GameSetup.tsx&#45;&gt;lib/presence.ts -->
<g id="edge48" class="edge">
<title>pages/GameSetup.tsx&#45;&gt;lib/presence.ts</title>
<path fill="none" stroke="#757575" d="M99,-127.22C99.03,-127.3 99.06,-127.37 99.08,-127.45"/>
<polygon fill="#757575" stroke="#757575" points="92.44,-119.49 99.17,-127.68 99.01,-117.08 92.44,-119.49"/>
</g>
<!-- components/ActiveGames.tsx -->
<g id="node10" class="node">
<title>components/ActiveGames.tsx</title>
<path fill="none" stroke="#c6c5fe" d="M259.74,-142.7C259.74,-142.7 78.08,-142.7 78.08,-142.7 74.24,-142.7 70.41,-138.86 70.41,-135.03 70.41,-135.03 70.41,-127.36 70.41,-127.36 70.41,-123.53 74.24,-119.7 78.08,-119.7 78.08,-119.7 259.74,-119.7 259.74,-119.7 263.58,-119.7 267.41,-123.53 267.41,-127.36 267.41,-127.36 267.41,-135.03 267.41,-135.03 267.41,-138.86 263.58,-142.7 259.74,-142.7"/>
<text text-anchor="middle" x="168.91" y="-127.5" font-family="Arial" font-size="14.00" fill="#c6c5fe">components/ActiveGames.tsx</text>
</g>
<!-- pages/Homepage.tsx&#45;&gt;components/ActiveGames.tsx -->
<g id="edge51" class="edge">
<title>pages/Homepage.tsx&#45;&gt;components/ActiveGames.tsx</title>
<path fill="none" stroke="#757575" d="M168.94,-131.11C168.94,-131.12 168.93,-131.13 168.93,-131.14"/>
<polygon fill="#757575" stroke="#757575" points="168.97,-120.57 168.92,-131.17 175.57,-122.92 168.97,-120.57"/>
</g>
<!-- pages/Homepage.tsx&#45;&gt;lib/mutations.ts -->
<g id="edge54" class="edge">
<title>pages/Homepage.tsx&#45;&gt;lib/mutations.ts</title>
<path fill="none" stroke="#757575" d="M165.51,-134.82C165.47,-134.9 165.43,-134.98 165.39,-135.06"/>
<polygon fill="#757575" stroke="#757575" points="166.9,-124.81 165.27,-135.28 173.07,-128.12 166.9,-124.81"/>
</g>
<!-- pages/Homepage.tsx&#45;&gt;components/Alert.tsx -->
<g id="edge52" class="edge">
<title>pages/Homepage.tsx&#45;&gt;components/Alert.tsx</title>
<path fill="none" stroke="#757575" d="M177.47,-115.28C177.48,-115.27 177.49,-115.25 177.5,-115.24"/>
<polygon fill="#757575" stroke="#757575" points="174.48,-125.38 177.52,-115.21 168.8,-121.26 174.48,-125.38"/>
</g>
<!-- components/PasswordModal.tsx -->
<g id="node26" class="node">
<title>components/PasswordModal.tsx</title>
<path fill="none" stroke="#cfffac" d="M278.09,-139.03C278.09,-139.03 81.42,-139.03 81.42,-139.03 77.59,-139.03 73.76,-135.2 73.76,-131.37 73.76,-131.37 73.76,-123.7 73.76,-123.7 73.76,-119.87 77.59,-116.03 81.42,-116.03 81.42,-116.03 278.09,-116.03 278.09,-116.03 281.92,-116.03 285.76,-119.87 285.76,-123.7 285.76,-123.7 285.76,-131.37 285.76,-131.37 285.76,-135.2 281.92,-139.03 278.09,-139.03"/>
<text text-anchor="middle" x="179.76" y="-123.83" font-family="Arial" font-size="14.00" fill="#cfffac">components/PasswordModal.tsx</text>
</g>
<!-- pages/Homepage.tsx&#45;&gt;components/PasswordModal.tsx -->
<g id="edge53" class="edge">
<title>pages/Homepage.tsx&#45;&gt;components/PasswordModal.tsx</title>
<path fill="none" stroke="#757575" d="M179.67,-127.49C179.68,-127.49 179.69,-127.5 179.7,-127.51"/>
<polygon fill="#757575" stroke="#757575" points="169.26,-125.82 179.73,-127.52 172.61,-119.67 169.26,-125.82"/>
</g>
<!-- pages/Join.tsx&#45;&gt;lib/mutations.ts -->
<g id="edge58" class="edge">
<title>pages/Join.tsx&#45;&gt;lib/mutations.ts</title>
<path fill="none" stroke="#757575" d="M169.21,-117.25C169.16,-117.46 169.1,-117.67 169.04,-117.88"/>
<polygon fill="#757575" stroke="#757575" points="165.65,-117 166.37,-127.57 172.4,-118.86 165.65,-117"/>
</g>
<!-- pages/Join.tsx&#45;&gt;components/Alert.tsx -->
<g id="edge55" class="edge">
<title>pages/Join.tsx&#45;&gt;components/Alert.tsx</title>
<path fill="none" stroke="#757575" d="M177.48,-115.08C177.49,-115.1 177.5,-115.12 177.5,-115.13"/>
<polygon fill="#757575" stroke="#757575" points="169.79,-107.91 177.52,-115.16 176,-104.67 169.79,-107.91"/>
</g>
<!-- components/FlagSelector.tsx -->
<g id="node20" class="node">
<title>components/FlagSelector.tsx</title>
<path fill="none" stroke="#cfffac" d="M271.6,-118.69C271.6,-118.69 95.94,-118.69 95.94,-118.69 92.1,-118.69 88.27,-114.86 88.27,-111.02 88.27,-111.02 88.27,-103.36 88.27,-103.36 88.27,-99.52 92.1,-95.69 95.94,-95.69 95.94,-95.69 271.6,-95.69 271.6,-95.69 275.44,-95.69 279.27,-99.52 279.27,-103.36 279.27,-103.36 279.27,-111.02 279.27,-111.02 279.27,-114.86 275.44,-118.69 271.6,-118.69"/>
<text text-anchor="middle" x="183.77" y="-103.49" font-family="Arial" font-size="14.00" fill="#cfffac">components/FlagSelector.tsx</text>
</g>
<!-- pages/Join.tsx&#45;&gt;components/FlagSelector.tsx -->
<g id="edge56" class="edge">
<title>pages/Join.tsx&#45;&gt;components/FlagSelector.tsx</title>
<path fill="none" stroke="#757575" d="M183.64,-107.17C183.66,-107.17 183.68,-107.18 183.7,-107.18"/>
<polygon fill="#757575" stroke="#757575" points="173.31,-109.1 183.74,-107.19 174.4,-102.18 173.31,-109.1"/>
</g>
<!-- components/LogoSelector.tsx -->
<g id="node23" class="node">
<title>components/LogoSelector.tsx</title>
<path fill="none" stroke="#c6c5fe" d="M269.81,-110.68C269.81,-110.68 91.14,-110.68 91.14,-110.68 87.31,-110.68 83.48,-106.85 83.48,-103.02 83.48,-103.02 83.48,-95.35 83.48,-95.35 83.48,-91.52 87.31,-87.68 91.14,-87.68 91.14,-87.68 269.81,-87.68 269.81,-87.68 273.64,-87.68 277.48,-91.52 277.48,-95.35 277.48,-95.35 277.48,-103.02 277.48,-103.02 277.48,-106.85 273.64,-110.68 269.81,-110.68"/>
<text text-anchor="middle" x="180.48" y="-95.48" font-family="Arial" font-size="14.00" fill="#c6c5fe">components/LogoSelector.tsx</text>
</g>
<!-- pages/Join.tsx&#45;&gt;components/LogoSelector.tsx -->
<g id="edge57" class="edge">
<title>pages/Join.tsx&#45;&gt;components/LogoSelector.tsx</title>
<path fill="none" stroke="#757575" d="M180.39,-99.25C180.4,-99.24 180.41,-99.23 180.43,-99.22"/>
<polygon fill="#757575" stroke="#757575" points="174.73,-108.13 180.45,-99.2 170.41,-102.61 174.73,-108.13"/>
</g>
<!-- pages/Lobby.tsx&#45;&gt;atoms/index.ts -->
<g id="edge59" class="edge">
<title>pages/Lobby.tsx&#45;&gt;atoms/index.ts</title>
<path fill="none" stroke="#757575" d="M152.48,-71.45C152.48,-71.45 152.49,-71.45 152.5,-71.45"/>
<polygon fill="#757575" stroke="#757575" points="142.77,-75.63 152.51,-71.45 142.29,-68.64 142.77,-75.63"/>
</g>
<!-- lib/types/supabase.ts -->
<g id="node9" class="node">
<title>lib/types/supabase.ts</title>
<path fill="none" stroke="#cfffac" d="M232.36,-86.87C232.36,-86.87 104.69,-86.87 104.69,-86.87 100.86,-86.87 97.03,-83.04 97.03,-79.2 97.03,-79.2 97.03,-71.54 97.03,-71.54 97.03,-67.7 100.86,-63.87 104.69,-63.87 104.69,-63.87 232.36,-63.87 232.36,-63.87 236.19,-63.87 240.03,-67.7 240.03,-71.54 240.03,-71.54 240.03,-79.2 240.03,-79.2 240.03,-83.04 236.19,-86.87 232.36,-86.87"/>
<text text-anchor="middle" x="168.53" y="-71.67" font-family="Arial" font-size="14.00" fill="#cfffac">lib/types/supabase.ts</text>
</g>
<!-- pages/Lobby.tsx&#45;&gt;lib/types/supabase.ts -->
<g id="edge64" class="edge">
<title>pages/Lobby.tsx&#45;&gt;lib/types/supabase.ts</title>
<path fill="none" stroke="#757575" d="M168.44,-75.36C168.45,-75.36 168.46,-75.36 168.48,-75.36"/>
<polygon fill="#757575" stroke="#757575" points="158.22,-77.91 168.5,-75.37 158.88,-70.94 158.22,-77.91"/>
</g>
<!-- pages/Lobby.tsx&#45;&gt;lib/mutations.ts -->
<g id="edge61" class="edge">
<title>pages/Lobby.tsx&#45;&gt;lib/mutations.ts</title>
<path fill="none" stroke="#757575" d="M141.16,-84.07C144.86,-93.34 150.14,-106.56 154.6,-117.74"/>
<polygon fill="#757575" stroke="#757575" points="151.44,-119.26 158.4,-127.25 157.94,-116.67 151.44,-119.26"/>
</g>
<!-- pages/Lobby.tsx&#45;&gt;lib/supabaseClient.ts -->
<g id="edge63" class="edge">
<title>pages/Lobby.tsx&#45;&gt;lib/supabaseClient.ts</title>
<path fill="none" stroke="#757575" d="M131.4,-84.14C127.23,-93.67 121.24,-107.37 116.26,-118.77"/>
<polygon fill="#757575" stroke="#757575" points="113.01,-117.47 112.21,-128.03 119.42,-120.27 113.01,-117.47"/>
</g>
<!-- components/VideoCall.tsx -->
<g id="node29" class="node">
<title>components/VideoCall.tsx</title>
<path fill="none" stroke="#c6c5fe" d="M255.36,-94.68C255.36,-94.68 97.69,-94.68 97.69,-94.68 93.86,-94.68 90.03,-90.84 90.03,-87.01 90.03,-87.01 90.03,-79.34 90.03,-79.34 90.03,-75.51 93.86,-71.68 97.69,-71.68 97.69,-71.68 255.36,-71.68 255.36,-71.68 259.19,-71.68 263.03,-75.51 263.03,-79.34 263.03,-79.34 263.03,-87.01 263.03,-87.01 263.03,-90.84 259.19,-94.68 255.36,-94.68"/>
<text text-anchor="middle" x="176.53" y="-79.48" font-family="Arial" font-size="14.00" fill="#c6c5fe">components/VideoCall.tsx</text>
</g>
<!-- pages/Lobby.tsx&#45;&gt;components/VideoCall.tsx -->
<g id="edge60" class="edge">
<title>pages/Lobby.tsx&#45;&gt;components/VideoCall.tsx</title>
<path fill="none" stroke="#757575" d="M176.41,-83.15C176.43,-83.15 176.45,-83.15 176.46,-83.16"/>
<polygon fill="#757575" stroke="#757575" points="165.93,-83.94 176.5,-83.17 167.75,-77.18 165.93,-83.94"/>
</g>
<!-- lib/sessionHooks.ts -->
<g id="node38" class="node">
<title>lib/sessionHooks.ts</title>
<path fill="none" stroke="#c6c5fe" d="M186.84,-85.86C186.84,-85.86 70.18,-85.86 70.18,-85.86 66.34,-85.86 62.51,-82.02 62.51,-78.19 62.51,-78.19 62.51,-70.52 62.51,-70.52 62.51,-66.69 66.34,-62.86 70.18,-62.86 70.18,-62.86 186.84,-62.86 186.84,-62.86 190.68,-62.86 194.51,-66.69 194.51,-70.52 194.51,-70.52 194.51,-78.19 194.51,-78.19 194.51,-82.02 190.68,-85.86 186.84,-85.86"/>
<text text-anchor="middle" x="128.51" y="-70.66" font-family="Arial" font-size="14.00" fill="#c6c5fe">lib/sessionHooks.ts</text>
</g>
<!-- pages/Lobby.tsx&#45;&gt;lib/sessionHooks.ts -->
<g id="edge62" class="edge">
<title>pages/Lobby.tsx&#45;&gt;lib/sessionHooks.ts</title>
<path fill="none" stroke="#757575" d="M128.6,-74.34C128.58,-74.34 128.57,-74.34 128.56,-74.35"/>
<polygon fill="#757575" stroke="#757575" points="137.43,-68.59 128.53,-74.35 139.08,-75.4 137.43,-68.59"/>
</g>
<!-- pages/Quiz.tsx&#45;&gt;lib/mutations.ts -->
<g id="edge65" class="edge">
<title>pages/Quiz.tsx&#45;&gt;lib/mutations.ts</title>
<path fill="none" stroke="#757575" d="M121.25,-103.11C127.41,-108.41 134.87,-114.83 141.77,-120.78"/>
<polygon fill="#757575" stroke="#757575" points="139.66,-123.57 149.52,-127.45 144.23,-118.27 139.66,-123.57"/>
</g>
<!-- pages/Quiz.tsx&#45;&gt;lib/types.ts -->
<g id="edge68" class="edge">
<title>pages/Quiz.tsx&#45;&gt;lib/types.ts</title>
<path fill="none" stroke="#757575" d="M100.61,-103.21C100.56,-103.29 100.51,-103.36 100.46,-103.44"/>
<polygon fill="#757575" stroke="#757575" points="102.64,-93.33 100.32,-103.67 108.58,-97.03 102.64,-93.33"/>
</g>
<!-- lib/realtimeHooks.ts -->
<g id="node36" class="node">
<title>lib/realtimeHooks.ts</title>
<path fill="none" stroke="#c6c5fe" d="M161.18,-111.08C161.18,-111.08 41.51,-111.08 41.51,-111.08 37.68,-111.08 33.85,-107.25 33.85,-103.41 33.85,-103.41 33.85,-95.75 33.85,-95.75 33.85,-91.91 37.68,-88.08 41.51,-88.08 41.51,-88.08 161.18,-88.08 161.18,-88.08 165.01,-88.08 168.85,-91.91 168.85,-95.75 168.85,-95.75 168.85,-103.41 168.85,-103.41 168.85,-107.25 165.01,-111.08 161.18,-111.08"/>
<text text-anchor="middle" x="101.35" y="-95.88" font-family="Arial" font-size="14.00" fill="#c6c5fe">lib/realtimeHooks.ts</text>
</g>
<!-- pages/Quiz.tsx&#45;&gt;lib/realtimeHooks.ts -->
<g id="edge66" class="edge">
<title>pages/Quiz.tsx&#45;&gt;lib/realtimeHooks.ts</title>
<path fill="none" stroke="#757575" d="M101.42,-99.49C101.41,-99.5 101.4,-99.52 101.39,-99.53"/>
<polygon fill="#757575" stroke="#757575" points="104.97,-89.58 101.37,-99.56 110.41,-94.01 104.97,-89.58"/>
</g>
<!-- pages/Quiz.tsx&#45;&gt;lib/sessionHooks.ts -->
<g id="edge67" class="edge">
<title>pages/Quiz.tsx&#45;&gt;lib/sessionHooks.ts</title>
<path fill="none" stroke="#757575" d="M121.98,-79.81C122.03,-79.76 122.09,-79.71 122.14,-79.67"/>
<polygon fill="#757575" stroke="#757575" points="116.87,-88.62 122.31,-79.52 112.39,-83.24 116.87,-88.62"/>
</g>
<!-- pages/Results.tsx&#45;&gt;lib/mutations.ts -->
<g id="edge69" class="edge">
<title>pages/Results.tsx&#45;&gt;lib/mutations.ts</title>
<path fill="none" stroke="#757575" d="M128.73,-90.9C134.46,-98.93 142.24,-109.84 148.96,-119.26"/>
<polygon fill="#757575" stroke="#757575" points="146.31,-121.59 154.97,-127.7 152.01,-117.52 146.31,-121.59"/>
</g>
<!-- pages/Results.tsx&#45;&gt;lib/supabaseClient.ts -->
<g id="edge71" class="edge">
<title>pages/Results.tsx&#45;&gt;lib/supabaseClient.ts</title>
<path fill="none" stroke="#757575" d="M117.93,-90.98C116.23,-98.64 113.96,-108.92 111.93,-118.05"/>
<polygon fill="#757575" stroke="#757575" points="108.47,-117.5 109.72,-128.02 115.3,-119.01 108.47,-117.5"/>
</g>
<!-- pages/Results.tsx&#45;&gt;lib/sessionHooks.ts -->
<g id="edge70" class="edge">
<title>pages/Results.tsx&#45;&gt;lib/sessionHooks.ts</title>
<path fill="none" stroke="#757575" d="M128.42,-74.41C128.43,-74.4 128.45,-74.4 128.46,-74.39"/>
<polygon fill="#757575" stroke="#757575" points="121.86,-82.66 128.49,-74.37 118.14,-76.72 121.86,-82.66"/>
</g>
<!-- atoms/index.ts&#45;&gt;lib/types/supabase.ts -->
<g id="edge7" class="edge">
<title>atoms/index.ts&#45;&gt;lib/types/supabase.ts</title>
<path fill="none" stroke="#757575" d="M168.48,-75.36C168.49,-75.36 168.5,-75.36 168.5,-75.36"/>
<polygon fill="#757575" stroke="#757575" points="157.95,-76.34 168.52,-75.37 159.65,-69.54 157.95,-76.34"/>
</g>
<!-- components/ActiveGames.tsx&#45;&gt;lib/mutations.ts -->
<g id="edge8" class="edge">
<title>components/ActiveGames.tsx&#45;&gt;lib/mutations.ts</title>
<path fill="none" stroke="#757575" d="M163.23,-139.11C163.22,-139.12 163.22,-139.13 163.21,-139.15"/>
<polygon fill="#757575" stroke="#757575" points="166.18,-129 163.19,-139.17 171.87,-133.09 166.18,-129"/>
</g>
<!-- lib/mutations.ts&#45;&gt;lib/supabaseClient.ts -->
<g id="edge31" class="edge">
<title>lib/mutations.ts&#45;&gt;lib/supabaseClient.ts</title>
<path fill="none" stroke="#757575" d="M109.56,-139.58C109.47,-139.58 109.38,-139.58 109.28,-139.58"/>
<polygon fill="#757575" stroke="#757575" points="118.99,-136.01 109.02,-139.58 119.05,-143.01 118.99,-136.01"/>
</g>
<!-- lib/mutations.ts&#45;&gt;lib/types.ts -->
<g id="edge32" class="edge">
<title>lib/mutations.ts&#45;&gt;lib/types.ts</title>
<path fill="none" stroke="#757575" d="M139.23,-127.6C136.57,-126.32 133.82,-124.99 131.07,-123.66"/>
<polygon fill="#757575" stroke="#757575" points="132.34,-120.38 121.82,-119.17 129.29,-126.68 132.34,-120.38"/>
</g>
<!-- components/DailyJoinButton.test.tsx -->
<g id="node13" class="node">
<title>components/DailyJoinButton.test.tsx</title>
<path fill="none" stroke="#c6c5fe" d="M254.15,-74.65C254.15,-74.65 34.49,-74.65 34.49,-74.65 30.65,-74.65 26.82,-70.82 26.82,-66.98 26.82,-66.98 26.82,-59.32 26.82,-59.32 26.82,-55.48 30.65,-51.65 34.49,-51.65 34.49,-51.65 254.15,-51.65 254.15,-51.65 257.99,-51.65 261.82,-55.48 261.82,-59.32 261.82,-59.32 261.82,-66.98 261.82,-66.98 261.82,-70.82 257.99,-74.65 254.15,-74.65"/>
<text text-anchor="middle" x="144.32" y="-59.45" font-family="Arial" font-size="14.00" fill="#c6c5fe">components/DailyJoinButton.test.tsx</text>
</g>
<!-- components/DailyJoinButton.tsx -->
<g id="node14" class="node">
<title>components/DailyJoinButton.tsx</title>
<path fill="none" stroke="#c6c5fe" d="M241.35,-82.74C241.35,-82.74 47.69,-82.74 47.69,-82.74 43.85,-82.74 40.02,-78.9 40.02,-75.07 40.02,-75.07 40.02,-67.4 40.02,-67.4 40.02,-63.57 43.85,-59.74 47.69,-59.74 47.69,-59.74 241.35,-59.74 241.35,-59.74 245.19,-59.74 249.02,-63.57 249.02,-67.4 249.02,-67.4 249.02,-75.07 249.02,-75.07 249.02,-78.9 245.19,-82.74 241.35,-82.74"/>
<text text-anchor="middle" x="144.52" y="-67.54" font-family="Arial" font-size="14.00" fill="#c6c5fe">components/DailyJoinButton.tsx</text>
</g>
<!-- components/DailyJoinButton.test.tsx&#45;&gt;components/DailyJoinButton.tsx -->
<g id="edge9" class="edge">
<title>components/DailyJoinButton.test.tsx&#45;&gt;components/DailyJoinButton.tsx</title>
<path fill="none" stroke="#757575" d="M144.52,-71.15C144.52,-71.16 144.52,-71.17 144.52,-71.19"/>
<polygon fill="#757575" stroke="#757575" points="140.74,-61.32 144.52,-71.21 147.74,-61.12 140.74,-61.32"/>
</g>
<!-- components/DailyJoinButton.tsx&#45;&gt;atoms/index.ts -->
<g id="edge10" class="edge">
<title>components/DailyJoinButton.tsx&#45;&gt;atoms/index.ts</title>
<path fill="none" stroke="#757575" d="M152.43,-71.45C152.45,-71.45 152.46,-71.45 152.47,-71.45"/>
<polygon fill="#757575" stroke="#757575" points="142.4,-74.65 152.5,-71.45 142.61,-67.65 142.4,-74.65"/>
</g>
<!-- components/DailyJoinButton.tsx&#45;&gt;lib/mutations.ts -->
<g id="edge11" class="edge">
<title>components/DailyJoinButton.tsx&#45;&gt;lib/mutations.ts</title>
<path fill="none" stroke="#757575" d="M147.68,-82.77C150.29,-92.28 154.07,-106.03 157.24,-117.58"/>
<polygon fill="#757575" stroke="#757575" points="153.91,-118.67 159.93,-127.38 160.66,-116.81 153.91,-118.67"/>
</g>
<!-- components/EnhancedLobby.tsx -->
<g id="node15" class="node">
<title>components/EnhancedLobby.tsx</title>
<path fill="none" stroke="#c6c5fe" d="M229.49,-163.37C229.49,-163.37 32.83,-163.37 32.83,-163.37 28.99,-163.37 25.16,-159.54 25.16,-155.71 25.16,-155.71 25.16,-148.04 25.16,-148.04 25.16,-144.21 28.99,-140.37 32.83,-140.37 32.83,-140.37 229.49,-140.37 229.49,-140.37 233.33,-140.37 237.16,-144.21 237.16,-148.04 237.16,-148.04 237.16,-155.71 237.16,-155.71 237.16,-159.54 233.33,-163.37 229.49,-163.37"/>
<text text-anchor="middle" x="131.16" y="-148.17" font-family="Arial" font-size="14.00" fill="#c6c5fe">components/EnhancedLobby.tsx</text>
</g>
<!-- lib/enhancedPresence.ts -->
<g id="node16" class="node">
<title>lib/enhancedPresence.ts</title>
<path fill="none" stroke="#c6c5fe" d="M213.5,-163.82C213.5,-163.82 64.83,-163.82 64.83,-163.82 61,-163.82 57.17,-159.99 57.17,-156.15 57.17,-156.15 57.17,-148.49 57.17,-148.49 57.17,-144.65 61,-140.82 64.83,-140.82 64.83,-140.82 213.5,-140.82 213.5,-140.82 217.33,-140.82 221.17,-144.65 221.17,-148.49 221.17,-148.49 221.17,-156.15 221.17,-156.15 221.17,-159.99 217.33,-163.82 213.5,-163.82"/>
<text text-anchor="middle" x="139.17" y="-148.62" font-family="Arial" font-size="14.00" fill="#c6c5fe">lib/enhancedPresence.ts</text>
</g>
<!-- components/EnhancedLobby.tsx&#45;&gt;lib/enhancedPresence.ts -->
<g id="edge12" class="edge">
<title>components/EnhancedLobby.tsx&#45;&gt;lib/enhancedPresence.ts</title>
<path fill="none" stroke="#757575" d="M139.08,-152.31C139.09,-152.32 139.1,-152.32 139.12,-152.32"/>
<polygon fill="#757575" stroke="#757575" points="128.95,-155.22 139.14,-152.32 129.37,-148.23 128.95,-155.22"/>
</g>
<!-- lib/enhancedRealtimeHooks.ts -->
<g id="node17" class="node">
<title>lib/enhancedRealtimeHooks.ts</title>
<path fill="none" stroke="#c6c5fe" d="M207.49,-156.6C207.49,-156.6 22.83,-156.6 22.83,-156.6 18.99,-156.6 15.16,-152.77 15.16,-148.93 15.16,-148.93 15.16,-141.27 15.16,-141.27 15.16,-137.43 18.99,-133.6 22.83,-133.6 22.83,-133.6 207.49,-133.6 207.49,-133.6 211.33,-133.6 215.16,-137.43 215.16,-141.27 215.16,-141.27 215.16,-148.93 215.16,-148.93 215.16,-152.77 211.33,-156.6 207.49,-156.6"/>
<text text-anchor="middle" x="115.16" y="-141.4" font-family="Arial" font-size="14.00" fill="#c6c5fe">lib/enhancedRealtimeHooks.ts</text>
</g>
<!-- components/EnhancedLobby.tsx&#45;&gt;lib/enhancedRealtimeHooks.ts -->
<g id="edge13" class="edge">
<title>components/EnhancedLobby.tsx&#45;&gt;lib/enhancedRealtimeHooks.ts</title>
<path fill="none" stroke="#757575" d="M115.21,-145.12C115.2,-145.12 115.19,-145.11 115.19,-145.11"/>
<polygon fill="#757575" stroke="#757575" points="125.76,-145.82 115.17,-145.11 123.01,-152.27 125.76,-145.82"/>
</g>
<!-- lib/enhancedPresence.ts&#45;&gt;lib/mutations.ts -->
<g id="edge24" class="edge">
<title>lib/enhancedPresence.ts&#45;&gt;lib/mutations.ts</title>
<path fill="none" stroke="#757575" d="M160.23,-140.81C160.28,-140.78 160.34,-140.75 160.39,-140.72"/>
<polygon fill="#757575" stroke="#757575" points="153.46,-148.5 160.56,-140.63 150.1,-142.35 153.46,-148.5"/>
</g>
<!-- lib/enhancedPresence.ts&#45;&gt;lib/supabaseClient.ts -->
<g id="edge25" class="edge">
<title>lib/enhancedPresence.ts&#45;&gt;lib/supabaseClient.ts</title>
<path fill="none" stroke="#757575" d="M110.11,-140.77C110.05,-140.75 110,-140.72 109.94,-140.7"/>
<polygon fill="#757575" stroke="#757575" points="120.36,-141.08 109.78,-140.64 117.78,-147.59 120.36,-141.08"/>
</g>
<!-- lib/enhancedRealtimeHooks.ts&#45;&gt;lib/supabaseClient.ts -->
<g id="edge26" class="edge">
<title>lib/enhancedRealtimeHooks.ts&#45;&gt;lib/supabaseClient.ts</title>
<path fill="none" stroke="#757575" d="M107.25,-139.66C107.23,-139.65 107.22,-139.64 107.21,-139.63"/>
<polygon fill="#757575" stroke="#757575" points="117.41,-142.41 107.18,-139.61 113.44,-148.18 117.41,-142.41"/>
</g>
<!-- lib/enhancedRealtimeHooks.ts&#45;&gt;lib/types.ts -->
<g id="edge27" class="edge">
<title>lib/enhancedRealtimeHooks.ts&#45;&gt;lib/types.ts</title>
<path fill="none" stroke="#757575" d="M109.69,-133.23C108.99,-131.69 108.25,-130.09 107.5,-128.46"/>
<polygon fill="#757575" stroke="#757575" points="110.61,-126.87 103.25,-119.25 104.26,-129.79 110.61,-126.87"/>
</g>
<!-- components/Flag.tsx -->
<g id="node18" class="node">
<title>components/Flag.tsx</title>
<path fill="none" stroke="#c6c5fe" d="M199.31,-231C199.31,-231 72.64,-231 72.64,-231 68.81,-231 64.97,-227.17 64.97,-223.33 64.97,-223.33 64.97,-215.67 64.97,-215.67 64.97,-211.83 68.81,-208 72.64,-208 72.64,-208 199.31,-208 199.31,-208 203.14,-208 206.97,-211.83 206.97,-215.67 206.97,-215.67 206.97,-223.33 206.97,-223.33 206.97,-227.17 203.14,-231 199.31,-231"/>
<text text-anchor="middle" x="135.97" y="-215.8" font-family="Arial" font-size="14.00" fill="#c6c5fe">components/Flag.tsx</text>
</g>
<!-- lib/flagIcons.ts -->
<g id="node19" class="node">
<title>lib/flagIcons.ts</title>
<path fill="none" stroke="#cfffac" d="M187.31,-231C187.31,-231 100.64,-231 100.64,-231 96.81,-231 92.97,-227.17 92.97,-223.33 92.97,-223.33 92.97,-215.67 92.97,-215.67 92.97,-211.83 96.81,-208 100.64,-208 100.64,-208 187.31,-208 187.31,-208 191.14,-208 194.97,-211.83 194.97,-215.67 194.97,-215.67 194.97,-223.33 194.97,-223.33 194.97,-227.17 191.14,-231 187.31,-231"/>
<text text-anchor="middle" x="143.97" y="-215.8" font-family="Arial" font-size="14.00" fill="#cfffac">lib/flagIcons.ts</text>
</g>
<!-- components/Flag.tsx&#45;&gt;lib/flagIcons.ts -->
<g id="edge14" class="edge">
<title>components/Flag.tsx&#45;&gt;lib/flagIcons.ts</title>
<path fill="none" stroke="#757575" d="M143.88,-219.5C143.9,-219.5 143.91,-219.5 143.92,-219.5"/>
<polygon fill="#757575" stroke="#757575" points="133.96,-223.04 143.95,-219.5 133.94,-216.04 133.96,-223.04"/>
</g>
<!-- components/LobbyStatus.tsx&#45;&gt;lib/supabaseClient.ts -->
<g id="edge15" class="edge">
<title>components/LobbyStatus.tsx&#45;&gt;lib/supabaseClient.ts</title>
<path fill="none" stroke="#757575" d="M103.97,-135.22C104.03,-135.3 104.08,-135.38 104.14,-135.45"/>
<polygon fill="#757575" stroke="#757575" points="95.59,-129.66 104.31,-135.68 101.25,-125.54 95.59,-129.66"/>
</g>
<!-- components/LogoSelector.tsx&#45;&gt;lib/supabaseClient.ts -->
<g id="edge16" class="edge">
<title>components/LogoSelector.tsx&#45;&gt;lib/supabaseClient.ts</title>
<path fill="none" stroke="#757575" d="M159.27,-110.87C152.37,-114.68 144.58,-118.97 137.16,-123.06"/>
<polygon fill="#757575" stroke="#757575" points="135.13,-120.18 128.06,-128.07 138.51,-126.31 135.13,-120.18"/>
</g>
<!-- components/ParticipantTile.tsx -->
<g id="node24" class="node">
<title>components/ParticipantTile.tsx</title>
<path fill="none" stroke="#c6c5fe" d="M272.56,-102.68C272.56,-102.68 86.89,-102.68 86.89,-102.68 83.06,-102.68 79.23,-98.85 79.23,-95.01 79.23,-95.01 79.23,-87.35 79.23,-87.35 79.23,-83.51 83.06,-79.68 86.89,-79.68 86.89,-79.68 272.56,-79.68 272.56,-79.68 276.39,-79.68 280.23,-83.51 280.23,-87.35 280.23,-87.35 280.23,-95.01 280.23,-95.01 280.23,-98.85 276.39,-102.68 272.56,-102.68"/>
<text text-anchor="middle" x="179.73" y="-87.48" font-family="Arial" font-size="14.00" fill="#c6c5fe">components/ParticipantTile.tsx</text>
</g>
<!-- components/ParticipantTile.tsx&#45;&gt;lib/types/supabase.ts -->
<g id="edge17" class="edge">
<title>components/ParticipantTile.tsx&#45;&gt;lib/types/supabase.ts</title>
<path fill="none" stroke="#757575" d="M171.35,-79.36C171.3,-79.29 171.25,-79.22 171.2,-79.15"/>
<polygon fill="#757575" stroke="#757575" points="179.69,-85.08 171.05,-78.94 173.98,-89.12 179.69,-85.08"/>
</g>
<!-- components/PasswordModal.test.tsx -->
<g id="node25" class="node">
<title>components/PasswordModal.test.tsx</title>
<path fill="none" stroke="#c6c5fe" d="M299.11,-143C299.11,-143 76.45,-143 76.45,-143 72.61,-143 68.78,-139.16 68.78,-135.33 68.78,-135.33 68.78,-127.66 68.78,-127.66 68.78,-123.83 72.61,-120 76.45,-120 76.45,-120 299.11,-120 299.11,-120 302.95,-120 306.78,-123.83 306.78,-127.66 306.78,-127.66 306.78,-135.33 306.78,-135.33 306.78,-139.16 302.95,-143 299.11,-143"/>
<text text-anchor="middle" x="187.78" y="-127.8" font-family="Arial" font-size="14.00" fill="#c6c5fe">components/PasswordModal.test.tsx</text>
</g>
<!-- components/PasswordModal.test.tsx&#45;&gt;components/PasswordModal.tsx -->
<g id="edge18" class="edge">
<title>components/PasswordModal.test.tsx&#45;&gt;components/PasswordModal.tsx</title>
<path fill="none" stroke="#757575" d="M179.85,-127.58C179.83,-127.57 179.82,-127.57 179.81,-127.56"/>
<polygon fill="#757575" stroke="#757575" points="190.3,-128.85 179.78,-127.55 187.19,-135.13 190.3,-128.85"/>
</g>
<!-- components/TeamLogoPicker.test.tsx -->
<g id="node27" class="node">
<title>components/TeamLogoPicker.test.tsx</title>
<path fill="none" stroke="#c6c5fe" d="M468.07,-218C468.07,-218 241.4,-218 241.4,-218 237.57,-218 233.73,-214.17 233.73,-210.33 233.73,-210.33 233.73,-202.67 233.73,-202.67 233.73,-198.83 237.57,-195 241.4,-195 241.4,-195 468.07,-195 468.07,-195 471.9,-195 475.73,-198.83 475.73,-202.67 475.73,-202.67 475.73,-210.33 475.73,-210.33 475.73,-214.17 471.9,-218 468.07,-218"/>
<text text-anchor="middle" x="354.73" y="-202.8" font-family="Arial" font-size="14.00" fill="#c6c5fe">components/TeamLogoPicker.test.tsx</text>
</g>
<!-- components/TeamLogoPicker.tsx -->
<g id="node28" class="node">
<title>components/TeamLogoPicker.tsx</title>
<path fill="none" stroke="#cfffac" d="M463.07,-218C463.07,-218 262.4,-218 262.4,-218 258.57,-218 254.73,-214.17 254.73,-210.33 254.73,-210.33 254.73,-202.67 254.73,-202.67 254.73,-198.83 258.57,-195 262.4,-195 262.4,-195 463.07,-195 463.07,-195 466.9,-195 470.73,-198.83 470.73,-202.67 470.73,-202.67 470.73,-210.33 470.73,-210.33 470.73,-214.17 466.9,-218 463.07,-218"/>
<text text-anchor="middle" x="362.73" y="-202.8" font-family="Arial" font-size="14.00" fill="#cfffac">components/TeamLogoPicker.tsx</text>
</g>
<!-- components/TeamLogoPicker.test.tsx&#45;&gt;components/TeamLogoPicker.tsx -->
<g id="edge19" class="edge">
<title>components/TeamLogoPicker.test.tsx&#45;&gt;components/TeamLogoPicker.tsx</title>
<path fill="none" stroke="#757575" d="M362.64,-206.5C362.66,-206.5 362.67,-206.5 362.68,-206.5"/>
<polygon fill="#757575" stroke="#757575" points="352.72,-210.04 362.71,-206.5 352.7,-203.04 352.72,-210.04"/>
</g>
<!-- components/VideoCall.tsx&#45;&gt;lib/types/supabase.ts -->
<g id="edge21" class="edge">
<title>components/VideoCall.tsx&#45;&gt;lib/types/supabase.ts</title>
<path fill="none" stroke="#757575" d="M168.62,-75.46C168.6,-75.44 168.59,-75.43 168.58,-75.42"/>
<polygon fill="#757575" stroke="#757575" points="178.16,-79.88 168.55,-75.39 173.27,-84.89 178.16,-79.88"/>
</g>
<!-- components/VideoCall.tsx&#45;&gt;components/ParticipantTile.tsx -->
<g id="edge20" class="edge">
<title>components/VideoCall.tsx&#45;&gt;components/ParticipantTile.tsx</title>
<path fill="none" stroke="#757575" d="M179.69,-91.09C179.7,-91.11 179.7,-91.12 179.71,-91.13"/>
<polygon fill="#757575" stroke="#757575" points="172.73,-83.18 179.72,-91.16 179.24,-80.56 172.73,-83.18"/>
</g>
<!-- index.css -->
<g id="node30" class="node">
<title>index.css</title>
<path fill="none" stroke="#cfffac" d="M128.51,-84C128.51,-84 70.84,-84 70.84,-84 67.01,-84 63.17,-80.17 63.17,-76.33 63.17,-76.33 63.17,-68.67 63.17,-68.67 63.17,-64.83 67.01,-61 70.84,-61 70.84,-61 128.51,-61 128.51,-61 132.34,-61 136.17,-64.83 136.17,-68.67 136.17,-68.67 136.17,-76.33 136.17,-76.33 136.17,-80.17 132.34,-84 128.51,-84"/>
<text text-anchor="middle" x="99.67" y="-68.8" font-family="Arial" font-size="14.00" fill="#cfffac">index.css</text>
</g>
<!-- lib/createSession.test.ts -->
<g id="node31" class="node">
<title>lib/createSession.test.ts</title>
<path fill="none" stroke="#c6c5fe" d="M227,-158.09C227,-158.09 83.34,-158.09 83.34,-158.09 79.5,-158.09 75.67,-154.26 75.67,-150.43 75.67,-150.43 75.67,-142.76 75.67,-142.76 75.67,-138.93 79.5,-135.09 83.34,-135.09 83.34,-135.09 227,-135.09 227,-135.09 230.84,-135.09 234.67,-138.93 234.67,-142.76 234.67,-142.76 234.67,-150.43 234.67,-150.43 234.67,-154.26 230.84,-158.09 227,-158.09"/>
<text text-anchor="middle" x="155.17" y="-142.89" font-family="Arial" font-size="14.00" fill="#c6c5fe">lib/createSession.test.ts</text>
</g>
<!-- lib/createSession.test.ts&#45;&gt;lib/mutations.ts -->
<g id="edge22" class="edge">
<title>lib/createSession.test.ts&#45;&gt;lib/mutations.ts</title>
<path fill="none" stroke="#757575" d="M163.08,-139.28C163.1,-139.27 163.11,-139.25 163.12,-139.24"/>
<polygon fill="#757575" stroke="#757575" points="158.18,-148.59 163.15,-139.22 153.42,-143.44 158.18,-148.59"/>
</g>
<!-- lib/createSession.test.ts&#45;&gt;lib/supabaseClient.ts -->
<g id="edge23" class="edge">
<title>lib/createSession.test.ts&#45;&gt;lib/supabaseClient.ts</title>
<path fill="none" stroke="#757575" d="M107.3,-139.62C107.27,-139.61 107.25,-139.61 107.24,-139.61"/>
<polygon fill="#757575" stroke="#757575" points="117.6,-137.6 107.19,-139.6 116.58,-144.53 117.6,-137.6"/>
</g>
<!-- lib/types/index.ts -->
<g id="node39" class="node">
<title>lib/types/index.ts</title>
<path fill="none" stroke="#c6c5fe" d="M210.86,-83.85C210.86,-83.85 110.19,-83.85 110.19,-83.85 106.36,-83.85 102.53,-80.01 102.53,-76.18 102.53,-76.18 102.53,-68.51 102.53,-68.51 102.53,-64.68 106.36,-60.85 110.19,-60.85 110.19,-60.85 210.86,-60.85 210.86,-60.85 214.69,-60.85 218.53,-64.68 218.53,-68.51 218.53,-68.51 218.53,-76.18 218.53,-76.18 218.53,-80.01 214.69,-83.85 210.86,-83.85"/>
<text text-anchor="middle" x="160.53" y="-68.65" font-family="Arial" font-size="14.00" fill="#c6c5fe">lib/types/index.ts</text>
</g>
<!-- lib/types.ts&#45;&gt;lib/types/index.ts -->
<g id="edge40" class="edge">
<title>lib/types.ts&#45;&gt;lib/types/index.ts</title>
<path fill="none" stroke="#757575" d="M118.39,-96.04C122.35,-93.82 126.58,-91.44 130.76,-89.09"/>
<polygon fill="#757575" stroke="#757575" points="132.75,-91.98 139.75,-84.03 129.32,-85.88 132.75,-91.98"/>
</g>
<!-- lib/mutations.test.ts -->
<g id="node33" class="node">
<title>lib/mutations.test.ts</title>
<path fill="none" stroke="#c6c5fe" d="M181.99,-160.82C181.99,-160.82 64.33,-160.82 64.33,-160.82 60.49,-160.82 56.66,-156.98 56.66,-153.15 56.66,-153.15 56.66,-145.48 56.66,-145.48 56.66,-141.65 60.49,-137.82 64.33,-137.82 64.33,-137.82 181.99,-137.82 181.99,-137.82 185.83,-137.82 189.66,-141.65 189.66,-145.48 189.66,-145.48 189.66,-153.15 189.66,-153.15 189.66,-156.98 185.83,-160.82 181.99,-160.82"/>
<text text-anchor="middle" x="123.16" y="-145.62" font-family="Arial" font-size="14.00" fill="#c6c5fe">lib/mutations.test.ts</text>
</g>
<!-- lib/mutations.test.ts&#45;&gt;lib/mutations.ts -->
<g id="edge28" class="edge">
<title>lib/mutations.test.ts&#45;&gt;lib/mutations.ts</title>
<path fill="none" stroke="#757575" d="M163.06,-139.23C163.07,-139.22 163.09,-139.22 163.11,-139.21"/>
<polygon fill="#757575" stroke="#757575" points="154.31,-145.07 163.14,-139.2 152.58,-138.28 154.31,-145.07"/>
</g>
<!-- lib/mutations.test.ts&#45;&gt;lib/supabaseClient.ts -->
<g id="edge29" class="edge">
<title>lib/mutations.test.ts&#45;&gt;lib/supabaseClient.ts</title>
<path fill="none" stroke="#757575" d="M107.2,-139.62C107.2,-139.62 107.19,-139.61 107.18,-139.61"/>
<polygon fill="#757575" stroke="#757575" points="117.55,-141.83 107.17,-139.6 113.9,-147.82 117.55,-141.83"/>
</g>
<!-- lib/mutations.test.ts&#45;&gt;lib/types.ts -->
<g id="edge30" class="edge">
<title>lib/mutations.test.ts&#45;&gt;lib/types.ts</title>
<path fill="none" stroke="#757575" d="M115.98,-137.47C114.21,-134.54 112.25,-131.31 110.3,-128.09"/>
<polygon fill="#757575" stroke="#757575" points="113.16,-126.06 104.99,-119.32 107.17,-129.68 113.16,-126.06"/>
</g>
<!-- lib/mutations.validation.ts -->
<g id="node34" class="node">
<title>lib/mutations.validation.ts</title>
<path fill="none" stroke="#cfffac" d="M315.89,-23C315.89,-23 163.23,-23 163.23,-23 159.39,-23 155.56,-19.17 155.56,-15.33 155.56,-15.33 155.56,-7.67 155.56,-7.67 155.56,-3.83 159.39,0 163.23,0 163.23,0 315.89,0 315.89,0 319.73,0 323.56,-3.83 323.56,-7.67 323.56,-7.67 323.56,-15.33 323.56,-15.33 323.56,-19.17 319.73,-23 315.89,-23"/>
<text text-anchor="middle" x="239.56" y="-7.8" font-family="Arial" font-size="14.00" fill="#cfffac">lib/mutations.validation.ts</text>
</g>
<!-- lib/presence.ts&#45;&gt;lib/mutations.ts -->
<g id="edge33" class="edge">
<title>lib/presence.ts&#45;&gt;lib/mutations.ts</title>
<path fill="none" stroke="#757575" d="M152.84,-137.94C152.89,-137.95 152.93,-137.95 152.98,-137.96"/>
<polygon fill="#757575" stroke="#757575" points="142.78,-140.24 153.13,-137.98 143.62,-133.29 142.78,-140.24"/>
</g>
<!-- lib/presence.ts&#45;&gt;lib/supabaseClient.ts -->
<g id="edge34" class="edge">
<title>lib/presence.ts&#45;&gt;lib/supabaseClient.ts</title>
<path fill="none" stroke="#757575" d="M107.08,-139.51C107.1,-139.52 107.11,-139.53 107.12,-139.54"/>
<polygon fill="#757575" stroke="#757575" points="98.08,-134.05 107.14,-139.57 103.5,-129.61 98.08,-134.05"/>
</g>
<!-- lib/realtimeHooks.ts&#45;&gt;lib/supabaseClient.ts -->
<g id="edge35" class="edge">
<title>lib/realtimeHooks.ts&#45;&gt;lib/supabaseClient.ts</title>
<path fill="none" stroke="#757575" d="M103.06,-111.37C103.37,-113.5 103.7,-115.79 104.04,-118.1"/>
<polygon fill="#757575" stroke="#757575" points="100.58,-118.63 105.48,-128.03 107.5,-117.63 100.58,-118.63"/>
</g>
<!-- lib/realtimeHooks.ts&#45;&gt;lib/types.ts -->
<g id="edge36" class="edge">
<title>lib/realtimeHooks.ts&#45;&gt;lib/types.ts</title>
<path fill="none" stroke="#757575" d="M97.92,-107.49C97.91,-107.51 97.91,-107.52 97.9,-107.53"/>
<polygon fill="#757575" stroke="#757575" points="98.67,-96.98 97.89,-107.56 105.1,-99.78 98.67,-96.98"/>
</g>
<!-- lib/sessionCode.test.ts -->
<g id="node37" class="node">
<title>lib/sessionCode.test.ts</title>
<path fill="none" stroke="#c6c5fe" d="M215.5,-161.91C215.5,-161.91 78.84,-161.91 78.84,-161.91 75,-161.91 71.17,-158.07 71.17,-154.24 71.17,-154.24 71.17,-146.57 71.17,-146.57 71.17,-142.74 75,-138.91 78.84,-138.91 78.84,-138.91 215.5,-138.91 215.5,-138.91 219.34,-138.91 223.17,-142.74 223.17,-146.57 223.17,-146.57 223.17,-154.24 223.17,-154.24 223.17,-158.07 219.34,-161.91 215.5,-161.91"/>
<text text-anchor="middle" x="147.17" y="-146.71" font-family="Arial" font-size="14.00" fill="#c6c5fe">lib/sessionCode.test.ts</text>
</g>
<!-- lib/sessionCode.test.ts&#45;&gt;lib/mutations.ts -->
<g id="edge37" class="edge">
<title>lib/sessionCode.test.ts&#45;&gt;lib/mutations.ts</title>
<path fill="none" stroke="#757575" d="M163.12,-139.23C163.13,-139.22 163.14,-139.22 163.14,-139.22"/>
<polygon fill="#757575" stroke="#757575" points="156.98,-147.84 163.16,-139.21 152.94,-142.1 156.98,-147.84"/>
</g>
<!-- lib/sessionCode.test.ts&#45;&gt;lib/supabaseClient.ts -->
<g id="edge38" class="edge">
<title>lib/sessionCode.test.ts&#45;&gt;lib/supabaseClient.ts</title>
<path fill="none" stroke="#757575" d="M107.27,-139.63C107.25,-139.62 107.24,-139.62 107.22,-139.61"/>
<polygon fill="#757575" stroke="#757575" points="117.76,-138.85 107.19,-139.6 115.92,-145.61 117.76,-138.85"/>
</g>
<!-- lib/sessionHooks.ts&#45;&gt;lib/supabaseClient.ts -->
<g id="edge39" class="edge">
<title>lib/sessionHooks.ts&#45;&gt;lib/supabaseClient.ts</title>
<path fill="none" stroke="#757575" d="M124.69,-86.02C121.75,-95.02 117.59,-107.71 114.07,-118.48"/>
<polygon fill="#757575" stroke="#757575" points="110.73,-117.44 110.94,-128.03 117.38,-119.62 110.73,-117.44"/>
</g>
<!-- lib/types/index.ts&#45;&gt;lib/types/supabase.ts -->
<g id="edge41" class="edge">
<title>lib/types/index.ts&#45;&gt;lib/types/supabase.ts</title>
<path fill="none" stroke="#757575" d="M168.44,-75.34C168.45,-75.34 168.47,-75.35 168.48,-75.35"/>
<polygon fill="#757575" stroke="#757575" points="157.9,-75.08 168.5,-75.36 160.39,-68.53 157.9,-75.08"/>
</g>
<!-- main.tsx -->
<g id="node40" class="node">
<title>main.tsx</title>
<path fill="none" stroke="#c6c5fe" d="M134.07,-91.35C134.07,-91.35 81.4,-91.35 81.4,-91.35 77.57,-91.35 73.73,-87.52 73.73,-83.69 73.73,-83.69 73.73,-76.02 73.73,-76.02 73.73,-72.19 77.57,-68.35 81.4,-68.35 81.4,-68.35 134.07,-68.35 134.07,-68.35 137.9,-68.35 141.73,-72.19 141.73,-76.02 141.73,-76.02 141.73,-83.69 141.73,-83.69 141.73,-87.52 137.9,-91.35 134.07,-91.35"/>
<text text-anchor="middle" x="107.73" y="-76.15" font-family="Arial" font-size="14.00" fill="#c6c5fe">main.tsx</text>
</g>
<!-- main.tsx&#45;&gt;App.tsx -->
<g id="edge42" class="edge">
<title>main.tsx&#45;&gt;App.tsx</title>
<path fill="none" stroke="#757575" d="M115.77,-87.28C115.79,-87.3 115.8,-87.31 115.81,-87.32"/>
<polygon fill="#757575" stroke="#757575" points="106.11,-83.12 115.84,-87.35 110.87,-77.98 106.11,-83.12"/>
</g>
<!-- main.tsx&#45;&gt;index.css -->
<g id="edge43" class="edge">
<title>main.tsx&#45;&gt;index.css</title>
<path fill="none" stroke="#757575" d="M99.76,-72.58C99.75,-72.57 99.74,-72.56 99.72,-72.55"/>
<polygon fill="#757575" stroke="#757575" points="109.45,-76.68 99.7,-72.52 104.73,-81.86 109.45,-76.68"/>
</g>
<!-- setupTests.ts -->
<g id="node41" class="node">
<title>setupTests.ts</title>
<path fill="none" stroke="#cfffac" d="M126.39,-23C126.39,-23 46.73,-23 46.73,-23 42.89,-23 39.06,-19.17 39.06,-15.33 39.06,-15.33 39.06,-7.67 39.06,-7.67 39.06,-3.83 42.89,0 46.73,0 46.73,0 126.39,0 126.39,0 130.23,0 134.06,-3.83 134.06,-7.67 134.06,-7.67 134.06,-15.33 134.06,-15.33 134.06,-19.17 130.23,-23 126.39,-23"/>
<text text-anchor="middle" x="86.56" y="-7.8" font-family="Arial" font-size="14.00" fill="#cfffac">setupTests.ts</text>
</g>
</g>
</svg>
