<?xml version="1.0" encoding="UTF-8" standalone="no"?>
<!DOCTYPE svg PUBLIC "-//W3C//DTD SVG 1.1//EN"
 "http://www.w3.org/Graphics/SVG/1.1/DTD/svg11.dtd">
<!-- Generated by graphviz version 2.43.0 (0)
 -->
<!-- Title: G Pages: 1 -->
<svg width="1494pt" height="1625pt"
 viewBox="0.00 0.00 1494.20 1624.70" xmlns="http://www.w3.org/2000/svg" xmlns:xlink="http://www.w3.org/1999/xlink">
<g id="graph0" class="graph" transform="scale(1 1) rotate(0) translate(21.6 1603.1)">
<title>G</title>
<polygon fill="#111111" stroke="transparent" points="-21.6,21.6 -21.6,-1603.1 1472.6,-1603.1 1472.6,21.6 -21.6,21.6"/>
<!-- ../atoms/index.ts -->
<g id="node1" class="node">
<title>../atoms/index.ts</title>
<path fill="none" stroke="#c6c5fe" d="M329.33,-1211C329.33,-1211 228.67,-1211 228.67,-1211 224.83,-1211 221,-1207.17 221,-1203.33 221,-1203.33 221,-1195.67 221,-1195.67 221,-1191.83 224.83,-1188 228.67,-1188 228.67,-1188 329.33,-1188 329.33,-1188 333.17,-1188 337,-1191.83 337,-1195.67 337,-1195.67 337,-1203.33 337,-1203.33 337,-1207.17 333.17,-1211 329.33,-1211"/>
<text text-anchor="middle" x="279" y="-1195.8" font-family="Arial" font-size="14.00" fill="#c6c5fe">../atoms/index.ts</text>
</g>
<!-- ../lib/types/supabase.ts -->
<g id="node2" class="node">
<title>../lib/types/supabase.ts</title>
<path fill="none" stroke="#cfffac" d="M1443.33,-1439C1443.33,-1439 1304.67,-1439 1304.67,-1439 1300.83,-1439 1297,-1435.17 1297,-1431.33 1297,-1431.33 1297,-1423.67 1297,-1423.67 1297,-1419.83 1300.83,-1416 1304.67,-1416 1304.67,-1416 1443.33,-1416 1443.33,-1416 1447.17,-1416 1451,-1419.83 1451,-1423.67 1451,-1423.67 1451,-1431.33 1451,-1431.33 1451,-1435.17 1447.17,-1439 1443.33,-1439"/>
<text text-anchor="middle" x="1374" y="-1423.8" font-family="Arial" font-size="14.00" fill="#cfffac">../lib/types/supabase.ts</text>
</g>
<!-- ../atoms/index.ts&#45;&gt;../lib/types/supabase.ts -->
<g id="edge1" class="edge">
<title>../atoms/index.ts&#45;&gt;../lib/types/supabase.ts</title>
<path fill="none" stroke="#757575" d="M310.72,-1211.1C344.17,-1223.69 399.28,-1244.3 447,-1261.5 582.54,-1310.35 612.26,-1337.67 753,-1368.5 852.41,-1390.27 1140.83,-1411.93 1286.56,-1421.86"/>
<polygon fill="#757575" stroke="#757575" points="1286.59,-1425.37 1296.8,-1422.56 1287.06,-1418.39 1286.59,-1425.37"/>
</g>
<!-- ../components/ActiveGames.tsx -->
<g id="node3" class="node">
<title>../components/ActiveGames.tsx</title>
<path fill="none" stroke="#c6c5fe" d="M375.83,-424C375.83,-424 182.17,-424 182.17,-424 178.33,-424 174.5,-420.17 174.5,-416.33 174.5,-416.33 174.5,-408.67 174.5,-408.67 174.5,-404.83 178.33,-401 182.17,-401 182.17,-401 375.83,-401 375.83,-401 379.67,-401 383.5,-404.83 383.5,-408.67 383.5,-408.67 383.5,-416.33 383.5,-416.33 383.5,-420.17 379.67,-424 375.83,-424"/>
<text text-anchor="middle" x="279" y="-408.8" font-family="Arial" font-size="14.00" fill="#c6c5fe">../components/ActiveGames.tsx</text>
</g>
<!-- ../lib/logger.ts -->
<g id="node4" class="node">
<title>../lib/logger.ts</title>
<path fill="none" stroke="#cfffac" d="M1089.33,-796C1089.33,-796 1008.67,-796 1008.67,-796 1004.83,-796 1001,-792.17 1001,-788.33 1001,-788.33 1001,-780.67 1001,-780.67 1001,-776.83 1004.83,-773 1008.67,-773 1008.67,-773 1089.33,-773 1089.33,-773 1093.17,-773 1097,-776.83 1097,-780.67 1097,-780.67 1097,-788.33 1097,-788.33 1097,-792.17 1093.17,-796 1089.33,-796"/>
<text text-anchor="middle" x="1049" y="-780.8" font-family="Arial" font-size="14.00" fill="#cfffac">../lib/logger.ts</text>
</g>
<!-- ../components/ActiveGames.tsx&#45;&gt;../lib/logger.ts -->
<g id="edge2" class="edge">
<title>../components/ActiveGames.tsx&#45;&gt;../lib/logger.ts</title>
<path fill="none" stroke="#757575" d="M383.66,-407.9C564.12,-400.89 921.08,-391.83 965,-427.5 1017.98,-470.53 1040.45,-692.13 1046.34,-762.81"/>
<polygon fill="#757575" stroke="#757575" points="1042.86,-763.12 1047.15,-772.81 1049.83,-762.56 1042.86,-763.12"/>
</g>
<!-- ../lib/mutations.ts -->
<g id="node5" class="node">
<title>../lib/mutations.ts</title>
<path fill="none" stroke="#c6c5fe" d="M633.83,-816C633.83,-816 530.17,-816 530.17,-816 526.33,-816 522.5,-812.17 522.5,-808.33 522.5,-808.33 522.5,-800.67 522.5,-800.67 522.5,-796.83 526.33,-793 530.17,-793 530.17,-793 633.83,-793 633.83,-793 637.67,-793 641.5,-796.83 641.5,-800.67 641.5,-800.67 641.5,-808.33 641.5,-808.33 641.5,-812.17 637.67,-816 633.83,-816"/>
<text text-anchor="middle" x="582" y="-800.8" font-family="Arial" font-size="14.00" fill="#c6c5fe">../lib/mutations.ts</text>
</g>
<!-- ../components/ActiveGames.tsx&#45;&gt;../lib/mutations.ts -->
<g id="edge3" class="edge">
<title>../components/ActiveGames.tsx&#45;&gt;../lib/mutations.ts</title>
<path fill="none" stroke="#757575" d="M383.59,-416.37C393.76,-420.31 403.18,-425.84 411,-433.5 474.9,-496.08 410.57,-549.81 447,-631.5 475.26,-694.88 531.42,-755.9 561.27,-785.65"/>
<polygon fill="#757575" stroke="#757575" points="559.02,-788.35 568.61,-792.86 563.93,-783.35 559.02,-788.35"/>
</g>
<!-- ../lib/mutations.ts&#45;&gt;../lib/logger.ts -->
<g id="edge29" class="edge">
<title>../lib/mutations.ts&#45;&gt;../lib/logger.ts</title>
<path fill="none" stroke="#757575" d="M641.86,-795.86C674.52,-791.49 715.92,-786.67 753,-784.5 835.48,-779.67 931.15,-780.92 990.63,-782.52"/>
<polygon fill="#757575" stroke="#757575" points="990.85,-786.02 1000.95,-782.8 991.05,-779.03 990.85,-786.02"/>
</g>
<!-- ../lib/supabaseClient.ts -->
<g id="node15" class="node">
<title>../lib/supabaseClient.ts</title>
<path fill="none" stroke="#cfffac" d="M927.33,-975C927.33,-975 790.67,-975 790.67,-975 786.83,-975 783,-971.17 783,-967.33 783,-967.33 783,-959.67 783,-959.67 783,-955.83 786.83,-952 790.67,-952 790.67,-952 927.33,-952 927.33,-952 931.17,-952 935,-955.83 935,-959.67 935,-959.67 935,-967.33 935,-967.33 935,-971.17 931.17,-975 927.33,-975"/>
<text text-anchor="middle" x="859" y="-959.8" font-family="Arial" font-size="14.00" fill="#cfffac">../lib/supabaseClient.ts</text>
</g>
<!-- ../lib/mutations.ts&#45;&gt;../lib/supabaseClient.ts -->
<g id="edge30" class="edge">
<title>../lib/mutations.ts&#45;&gt;../lib/supabaseClient.ts</title>
<path fill="none" stroke="#757575" d="M641.56,-800.44C667.44,-801.7 696.55,-807.74 717,-825.5 758.4,-861.45 712.19,-906.88 753,-943.5 758.97,-948.86 765.92,-952.98 773.35,-956.13"/>
<polygon fill="#757575" stroke="#757575" points="772.38,-959.5 782.98,-959.61 774.76,-952.91 772.38,-959.5"/>
</g>
<!-- ../lib/dailyTokenManager.ts -->
<g id="node26" class="node">
<title>../lib/dailyTokenManager.ts</title>
<path fill="none" stroke="#c6c5fe" d="M939.33,-816C939.33,-816 778.67,-816 778.67,-816 774.83,-816 771,-812.17 771,-808.33 771,-808.33 771,-800.67 771,-800.67 771,-796.83 774.83,-793 778.67,-793 778.67,-793 939.33,-793 939.33,-793 943.17,-793 947,-796.83 947,-800.67 947,-800.67 947,-808.33 947,-808.33 947,-812.17 943.17,-816 939.33,-816"/>
<text text-anchor="middle" x="859" y="-800.8" font-family="Arial" font-size="14.00" fill="#c6c5fe">../lib/dailyTokenManager.ts</text>
</g>
<!-- ../lib/mutations.ts&#45;&gt;../lib/dailyTokenManager.ts -->
<g id="edge28" class="edge">
<title>../lib/mutations.ts&#45;&gt;../lib/dailyTokenManager.ts</title>
<path fill="none" stroke="#757575" d="M641.66,-804.5C676.34,-804.5 721.13,-804.5 760.95,-804.5"/>
<polygon fill="#757575" stroke="#757575" points="760.96,-808 770.96,-804.5 760.96,-801 760.96,-808"/>
</g>
<!-- ../lib/types.ts -->
<g id="node27" class="node">
<title>../lib/types.ts</title>
<path fill="none" stroke="#c6c5fe" d="M1087.33,-1281C1087.33,-1281 1010.67,-1281 1010.67,-1281 1006.83,-1281 1003,-1277.17 1003,-1273.33 1003,-1273.33 1003,-1265.67 1003,-1265.67 1003,-1261.83 1006.83,-1258 1010.67,-1258 1010.67,-1258 1087.33,-1258 1087.33,-1258 1091.17,-1258 1095,-1261.83 1095,-1265.67 1095,-1265.67 1095,-1273.33 1095,-1273.33 1095,-1277.17 1091.17,-1281 1087.33,-1281"/>
<text text-anchor="middle" x="1049" y="-1265.8" font-family="Arial" font-size="14.00" fill="#c6c5fe">../lib/types.ts</text>
</g>
<!-- ../lib/mutations.ts&#45;&gt;../lib/types.ts -->
<g id="edge31" class="edge">
<title>../lib/mutations.ts&#45;&gt;../lib/types.ts</title>
<path fill="none" stroke="#757575" d="M641.82,-811.77C737.75,-824.87 921.55,-855.49 965,-902.5 1012.56,-953.95 1038.69,-1176.89 1045.92,-1247.77"/>
<polygon fill="#757575" stroke="#757575" points="1042.44,-1248.19 1046.91,-1257.79 1049.4,-1247.5 1042.44,-1248.19"/>
</g>
<!-- ../components/Alert.tsx -->
<g id="node6" class="node">
<title>../components/Alert.tsx</title>
<path fill="none" stroke="#cfffac" d="M348.83,-545C348.83,-545 209.17,-545 209.17,-545 205.33,-545 201.5,-541.17 201.5,-537.33 201.5,-537.33 201.5,-529.67 201.5,-529.67 201.5,-525.83 205.33,-522 209.17,-522 209.17,-522 348.83,-522 348.83,-522 352.67,-522 356.5,-525.83 356.5,-529.67 356.5,-529.67 356.5,-537.33 356.5,-537.33 356.5,-541.17 352.67,-545 348.83,-545"/>
<text text-anchor="middle" x="279" y="-529.8" font-family="Arial" font-size="14.00" fill="#cfffac">../components/Alert.tsx</text>
</g>
<!-- ../components/ChromaLogo.tsx -->
<g id="node7" class="node">
<title>../components/ChromaLogo.tsx</title>
<path fill="none" stroke="#cfffac" d="M954.33,-544C954.33,-544 763.67,-544 763.67,-544 759.83,-544 756,-540.17 756,-536.33 756,-536.33 756,-528.67 756,-528.67 756,-524.83 759.83,-521 763.67,-521 763.67,-521 954.33,-521 954.33,-521 958.17,-521 962,-524.83 962,-528.67 962,-528.67 962,-536.33 962,-536.33 962,-540.17 958.17,-544 954.33,-544"/>
<text text-anchor="middle" x="859" y="-528.8" font-family="Arial" font-size="14.00" fill="#cfffac">../components/ChromaLogo.tsx</text>
</g>
<!-- ../components/ControlsBar.tsx -->
<g id="node8" class="node">
<title>../components/ControlsBar.tsx</title>
<path fill="none" stroke="#cfffac" d="M672.83,-1401C672.83,-1401 491.17,-1401 491.17,-1401 487.33,-1401 483.5,-1397.17 483.5,-1393.33 483.5,-1393.33 483.5,-1385.67 483.5,-1385.67 483.5,-1381.83 487.33,-1378 491.17,-1378 491.17,-1378 672.83,-1378 672.83,-1378 676.67,-1378 680.5,-1381.83 680.5,-1385.67 680.5,-1385.67 680.5,-1393.33 680.5,-1393.33 680.5,-1397.17 676.67,-1401 672.83,-1401"/>
<text text-anchor="middle" x="582" y="-1385.8" font-family="Arial" font-size="14.00" fill="#cfffac">../components/ControlsBar.tsx</text>
</g>
<!-- ../components/Flag.tsx -->
<g id="node9" class="node">
<title>../components/Flag.tsx</title>
<path fill="none" stroke="#c6c5fe" d="M650.83,-622C650.83,-622 513.17,-622 513.17,-622 509.33,-622 505.5,-618.17 505.5,-614.33 505.5,-614.33 505.5,-606.67 505.5,-606.67 505.5,-602.83 509.33,-599 513.17,-599 513.17,-599 650.83,-599 650.83,-599 654.67,-599 658.5,-602.83 658.5,-606.67 658.5,-606.67 658.5,-614.33 658.5,-614.33 658.5,-618.17 654.67,-622 650.83,-622"/>
<text text-anchor="middle" x="582" y="-606.8" font-family="Arial" font-size="14.00" fill="#c6c5fe">../components/Flag.tsx</text>
</g>
<!-- ../lib/flagIcons.ts -->
<g id="node10" class="node">
<title>../lib/flagIcons.ts</title>
<path fill="none" stroke="#c6c5fe" d="M907.83,-622C907.83,-622 810.17,-622 810.17,-622 806.33,-622 802.5,-618.17 802.5,-614.33 802.5,-614.33 802.5,-606.67 802.5,-606.67 802.5,-602.83 806.33,-599 810.17,-599 810.17,-599 907.83,-599 907.83,-599 911.67,-599 915.5,-602.83 915.5,-606.67 915.5,-606.67 915.5,-614.33 915.5,-614.33 915.5,-618.17 911.67,-622 907.83,-622"/>
<text text-anchor="middle" x="859" y="-606.8" font-family="Arial" font-size="14.00" fill="#c6c5fe">../lib/flagIcons.ts</text>
</g>
<!-- ../components/Flag.tsx&#45;&gt;../lib/flagIcons.ts -->
<g id="edge4" class="edge">
<title>../components/Flag.tsx&#45;&gt;../lib/flagIcons.ts</title>
<path fill="none" stroke="#757575" d="M658.51,-610.5C700.34,-610.5 751.86,-610.5 792.06,-610.5"/>
<polygon fill="#757575" stroke="#757575" points="792.29,-614 802.29,-610.5 792.29,-607 792.29,-614"/>
</g>
<!-- ../lib/flagIcons.ts&#45;&gt;../lib/logger.ts -->
<g id="edge27" class="edge">
<title>../lib/flagIcons.ts&#45;&gt;../lib/logger.ts</title>
<path fill="none" stroke="#757575" d="M915.52,-615.58C932.69,-619.32 950.81,-625.69 965,-636.5 1007.73,-669.07 1031.7,-730.35 1041.96,-762.9"/>
<polygon fill="#757575" stroke="#757575" points="1038.69,-764.19 1044.92,-772.76 1045.39,-762.17 1038.69,-764.19"/>
</g>
<!-- ../components/FlagSelector.tsx -->
<g id="node11" class="node">
<title>../components/FlagSelector.tsx</title>
<path fill="none" stroke="#c6c5fe" d="M372.33,-625C372.33,-625 185.67,-625 185.67,-625 181.83,-625 178,-621.17 178,-617.33 178,-617.33 178,-609.67 178,-609.67 178,-605.83 181.83,-602 185.67,-602 185.67,-602 372.33,-602 372.33,-602 376.17,-602 380,-605.83 380,-609.67 380,-609.67 380,-617.33 380,-617.33 380,-621.17 376.17,-625 372.33,-625"/>
<text text-anchor="middle" x="279" y="-609.8" font-family="Arial" font-size="14.00" fill="#c6c5fe">../components/FlagSelector.tsx</text>
</g>
<!-- ../components/FlagSelector.tsx&#45;&gt;../components/Flag.tsx -->
<g id="edge5" class="edge">
<title>../components/FlagSelector.tsx&#45;&gt;../components/Flag.tsx</title>
<path fill="none" stroke="#757575" d="M380.23,-612.5C417.43,-612.13 459.26,-611.71 495.07,-611.36"/>
<polygon fill="#757575" stroke="#757575" points="495.53,-614.85 505.49,-611.25 495.46,-607.85 495.53,-614.85"/>
</g>
<!-- ../components/LobbyLogo.tsx -->
<g id="node12" class="node">
<title>../components/LobbyLogo.tsx</title>
<path fill="none" stroke="#cfffac" d="M368.33,-1291C368.33,-1291 189.67,-1291 189.67,-1291 185.83,-1291 182,-1287.17 182,-1283.33 182,-1283.33 182,-1275.67 182,-1275.67 182,-1271.83 185.83,-1268 189.67,-1268 189.67,-1268 368.33,-1268 368.33,-1268 372.17,-1268 376,-1271.83 376,-1275.67 376,-1275.67 376,-1283.33 376,-1283.33 376,-1287.17 372.17,-1291 368.33,-1291"/>
<text text-anchor="middle" x="279" y="-1275.8" font-family="Arial" font-size="14.00" fill="#cfffac">../components/LobbyLogo.tsx</text>
</g>
<!-- ../components/LobbyStatus.tsx -->
<g id="node13" class="node">
<title>../components/LobbyStatus.tsx</title>
<path fill="none" stroke="#c6c5fe" d="M675.33,-857C675.33,-857 488.67,-857 488.67,-857 484.83,-857 481,-853.17 481,-849.33 481,-849.33 481,-841.67 481,-841.67 481,-837.83 484.83,-834 488.67,-834 488.67,-834 675.33,-834 675.33,-834 679.17,-834 683,-837.83 683,-841.67 683,-841.67 683,-849.33 683,-849.33 683,-853.17 679.17,-857 675.33,-857"/>
<text text-anchor="middle" x="582" y="-841.8" font-family="Arial" font-size="14.00" fill="#c6c5fe">../components/LobbyStatus.tsx</text>
</g>
<!-- ../components/LobbyStatus.tsx&#45;&gt;../lib/logger.ts -->
<g id="edge6" class="edge">
<title>../components/LobbyStatus.tsx&#45;&gt;../lib/logger.ts</title>
<path fill="none" stroke="#757575" d="M683.22,-851.2C761.27,-853.04 871.67,-849.88 965,-825.5 984.89,-820.3 1005.62,-810.07 1021.39,-801.12"/>
<polygon fill="#757575" stroke="#757575" points="1023.19,-804.12 1030.06,-796.05 1019.66,-798.08 1023.19,-804.12"/>
</g>
<!-- ../lib/roleUtils.ts -->
<g id="node14" class="node">
<title>../lib/roleUtils.ts</title>
<path fill="none" stroke="#c6c5fe" d="M905.33,-934C905.33,-934 812.67,-934 812.67,-934 808.83,-934 805,-930.17 805,-926.33 805,-926.33 805,-918.67 805,-918.67 805,-914.83 808.83,-911 812.67,-911 812.67,-911 905.33,-911 905.33,-911 909.17,-911 913,-914.83 913,-918.67 913,-918.67 913,-926.33 913,-926.33 913,-930.17 909.17,-934 905.33,-934"/>
<text text-anchor="middle" x="859" y="-918.8" font-family="Arial" font-size="14.00" fill="#c6c5fe">../lib/roleUtils.ts</text>
</g>
<!-- ../components/LobbyStatus.tsx&#45;&gt;../lib/roleUtils.ts -->
<g id="edge7" class="edge">
<title>../components/LobbyStatus.tsx&#45;&gt;../lib/roleUtils.ts</title>
<path fill="none" stroke="#757575" d="M670.7,-857.08C686.46,-860.67 702.48,-865.37 717,-871.5 734.95,-879.07 735.25,-888.47 753,-896.5 766.21,-902.48 781,-907.21 795.21,-910.91"/>
<polygon fill="#757575" stroke="#757575" points="794.39,-914.31 804.93,-913.31 796.06,-907.52 794.39,-914.31"/>
</g>
<!-- ../components/LobbyStatus.tsx&#45;&gt;../lib/supabaseClient.ts -->
<g id="edge8" class="edge">
<title>../components/LobbyStatus.tsx&#45;&gt;../lib/supabaseClient.ts</title>
<path fill="none" stroke="#757575" d="M683.28,-854.29C695.39,-858.34 707,-863.9 717,-871.5 745.49,-893.13 724.47,-921.91 753,-943.5 759.05,-948.08 765.85,-951.71 773.01,-954.57"/>
<polygon fill="#757575" stroke="#757575" points="772.35,-958.04 782.94,-958.01 774.64,-951.43 772.35,-958.04"/>
</g>
<!-- ../lib/roleUtils.ts&#45;&gt;../lib/types.ts -->
<g id="edge38" class="edge">
<title>../lib/roleUtils.ts&#45;&gt;../lib/types.ts</title>
<path fill="none" stroke="#757575" d="M913.08,-921.95C931.6,-924.4 951.18,-930.38 965,-943.5 1009.94,-986.17 1037.41,-1182.13 1045.49,-1247.9"/>
<polygon fill="#757575" stroke="#757575" points="1042.03,-1248.45 1046.7,-1257.96 1048.98,-1247.61 1042.03,-1248.45"/>
</g>
<!-- ../components/LogoSelector.tsx -->
<g id="node16" class="node">
<title>../components/LogoSelector.tsx</title>
<path fill="none" stroke="#c6c5fe" d="M677.33,-504C677.33,-504 486.67,-504 486.67,-504 482.83,-504 479,-500.17 479,-496.33 479,-496.33 479,-488.67 479,-488.67 479,-484.83 482.83,-481 486.67,-481 486.67,-481 677.33,-481 677.33,-481 681.17,-481 685,-484.83 685,-488.67 685,-488.67 685,-496.33 685,-496.33 685,-500.17 681.17,-504 677.33,-504"/>
<text text-anchor="middle" x="582" y="-488.8" font-family="Arial" font-size="14.00" fill="#c6c5fe">../components/LogoSelector.tsx</text>
</g>
<!-- ../components/LogoSelector.tsx&#45;&gt;../lib/logger.ts -->
<g id="edge10" class="edge">
<title>../components/LogoSelector.tsx&#45;&gt;../lib/logger.ts</title>
<path fill="none" stroke="#757575" d="M685.29,-485.07C783.52,-480.15 923.01,-479.68 965,-512.5 1005.47,-544.14 1034.99,-704.06 1044.62,-762.81"/>
<polygon fill="#757575" stroke="#757575" points="1041.19,-763.53 1046.23,-772.85 1048.1,-762.42 1041.19,-763.53"/>
</g>
<!-- ../components/LogoSelector.tsx&#45;&gt;../components/ChromaLogo.tsx -->
<g id="edge9" class="edge">
<title>../components/LogoSelector.tsx&#45;&gt;../components/ChromaLogo.tsx</title>
<path fill="none" stroke="#757575" d="M662.17,-504.02C695.53,-508.87 734.52,-514.54 768.88,-519.54"/>
<polygon fill="#757575" stroke="#757575" points="768.51,-523.02 778.91,-521 769.52,-516.09 768.51,-523.02"/>
</g>
<!-- ../components/LogoSelector.tsx&#45;&gt;../lib/supabaseClient.ts -->
<g id="edge11" class="edge">
<title>../components/LogoSelector.tsx&#45;&gt;../lib/supabaseClient.ts</title>
<path fill="none" stroke="#757575" d="M685.33,-497.61C697.34,-502.2 708.37,-508.89 717,-518.5 780.34,-589.01 689.54,-873.09 753,-943.5 758.65,-949.77 765.61,-954.45 773.24,-957.89"/>
<polygon fill="#757575" stroke="#757575" points="772.23,-961.25 782.82,-961.51 774.71,-954.71 772.23,-961.25"/>
</g>
<!-- ../components/OptimizedFlagSelector.tsx -->
<g id="node17" class="node">
<title>../components/OptimizedFlagSelector.tsx</title>
<path fill="none" stroke="#c6c5fe" d="M403.33,-264C403.33,-264 154.67,-264 154.67,-264 150.83,-264 147,-260.17 147,-256.33 147,-256.33 147,-248.67 147,-248.67 147,-244.83 150.83,-241 154.67,-241 154.67,-241 403.33,-241 403.33,-241 407.17,-241 411,-244.83 411,-248.67 411,-248.67 411,-256.33 411,-256.33 411,-260.17 407.17,-264 403.33,-264"/>
<text text-anchor="middle" x="279" y="-248.8" font-family="Arial" font-size="14.00" fill="#c6c5fe">../components/OptimizedFlagSelector.tsx</text>
</g>
<!-- ../components/OptimizedFlagSelector.tsx&#45;&gt;../components/Flag.tsx -->
<g id="edge12" class="edge">
<title>../components/OptimizedFlagSelector.tsx&#45;&gt;../components/Flag.tsx</title>
<path fill="none" stroke="#757575" d="M392.2,-264.12C399.14,-267.94 405.52,-272.67 411,-278.5 493.29,-366.09 376.26,-449.35 447,-546.5 464.57,-570.63 493.66,-586.02 520.25,-595.65"/>
<polygon fill="#757575" stroke="#757575" points="519.31,-599.03 529.91,-598.94 521.57,-592.4 519.31,-599.03"/>
</g>
<!-- ../components/ParticipantTile.tsx -->
<g id="node18" class="node">
<title>../components/ParticipantTile.tsx</title>
<path fill="none" stroke="#c6c5fe" d="M957.33,-1439C957.33,-1439 760.67,-1439 760.67,-1439 756.83,-1439 753,-1435.17 753,-1431.33 753,-1431.33 753,-1423.67 753,-1423.67 753,-1419.83 756.83,-1416 760.67,-1416 760.67,-1416 957.33,-1416 957.33,-1416 961.17,-1416 965,-1419.83 965,-1423.67 965,-1423.67 965,-1431.33 965,-1431.33 965,-1435.17 961.17,-1439 957.33,-1439"/>
<text text-anchor="middle" x="859" y="-1423.8" font-family="Arial" font-size="14.00" fill="#c6c5fe">../components/ParticipantTile.tsx</text>
</g>
<!-- ../components/ParticipantTile.tsx&#45;&gt;../lib/types/supabase.ts -->
<g id="edge14" class="edge">
<title>../components/ParticipantTile.tsx&#45;&gt;../lib/types/supabase.ts</title>
<path fill="none" stroke="#757575" d="M965.05,-1427.5C1060.03,-1427.5 1198.17,-1427.5 1286.81,-1427.5"/>
<polygon fill="#757575" stroke="#757575" points="1286.83,-1431 1296.83,-1427.5 1286.83,-1424 1286.83,-1431"/>
</g>
<!-- ../components/ParticipantTile.tsx&#45;&gt;../lib/logger.ts -->
<g id="edge13" class="edge">
<title>../components/ParticipantTile.tsx&#45;&gt;../lib/logger.ts</title>
<path fill="none" stroke="#757575" d="M897.77,-1415.93C920.94,-1406.82 949.12,-1391.71 965,-1368.5 997.5,-1320.99 1036.94,-906.47 1046.05,-806.25"/>
<polygon fill="#757575" stroke="#757575" points="1049.56,-806.37 1046.97,-796.1 1042.59,-805.74 1049.56,-806.37"/>
</g>
<!-- ../components/PasswordModal.tsx -->
<g id="node19" class="node">
<title>../components/PasswordModal.tsx</title>
<path fill="none" stroke="#cfffac" d="M383.33,-344C383.33,-344 174.67,-344 174.67,-344 170.83,-344 167,-340.17 167,-336.33 167,-336.33 167,-328.67 167,-328.67 167,-324.83 170.83,-321 174.67,-321 174.67,-321 383.33,-321 383.33,-321 387.17,-321 391,-324.83 391,-328.67 391,-328.67 391,-336.33 391,-336.33 391,-340.17 387.17,-344 383.33,-344"/>
<text text-anchor="middle" x="279" y="-328.8" font-family="Arial" font-size="14.00" fill="#cfffac">../components/PasswordModal.tsx</text>
</g>
<!-- ../components/ReactBits/AnimatedList.tsx -->
<g id="node20" class="node">
<title>../components/ReactBits/AnimatedList.tsx</title>
<path fill="none" stroke="#cfffac" d="M707.83,-146C707.83,-146 456.17,-146 456.17,-146 452.33,-146 448.5,-142.17 448.5,-138.33 448.5,-138.33 448.5,-130.67 448.5,-130.67 448.5,-126.83 452.33,-123 456.17,-123 456.17,-123 707.83,-123 707.83,-123 711.67,-123 715.5,-126.83 715.5,-130.67 715.5,-130.67 715.5,-138.33 715.5,-138.33 715.5,-142.17 711.67,-146 707.83,-146"/>
<text text-anchor="middle" x="582" y="-130.8" font-family="Arial" font-size="14.00" fill="#cfffac">../components/ReactBits/AnimatedList.tsx</text>
</g>
<!-- ../components/ReactBits/Dock.tsx -->
<g id="node21" class="node">
<title>../components/ReactBits/Dock.tsx</title>
<path fill="none" stroke="#cfffac" d="M683.83,-105C683.83,-105 480.17,-105 480.17,-105 476.33,-105 472.5,-101.17 472.5,-97.33 472.5,-97.33 472.5,-89.67 472.5,-89.67 472.5,-85.83 476.33,-82 480.17,-82 480.17,-82 683.83,-82 683.83,-82 687.67,-82 691.5,-85.83 691.5,-89.67 691.5,-89.67 691.5,-97.33 691.5,-97.33 691.5,-101.17 687.67,-105 683.83,-105"/>
<text text-anchor="middle" x="582" y="-89.8" font-family="Arial" font-size="14.00" fill="#cfffac">../components/ReactBits/Dock.tsx</text>
</g>
<!-- ../components/ReactBits/PixelCard.tsx -->
<g id="node22" class="node">
<title>../components/ReactBits/PixelCard.tsx</title>
<path fill="none" stroke="#cfffac" d="M697.83,-64C697.83,-64 466.17,-64 466.17,-64 462.33,-64 458.5,-60.17 458.5,-56.33 458.5,-56.33 458.5,-48.67 458.5,-48.67 458.5,-44.83 462.33,-41 466.17,-41 466.17,-41 697.83,-41 697.83,-41 701.67,-41 705.5,-44.83 705.5,-48.67 705.5,-48.67 705.5,-56.33 705.5,-56.33 705.5,-60.17 701.67,-64 697.83,-64"/>
<text text-anchor="middle" x="582" y="-48.8" font-family="Arial" font-size="14.00" fill="#cfffac">../components/ReactBits/PixelCard.tsx</text>
</g>
<!-- ../components/ReactBits/SpotlightCard.tsx -->
<g id="node23" class="node">
<title>../components/ReactBits/SpotlightCard.tsx</title>
<path fill="none" stroke="#cfffac" d="M709.33,-23C709.33,-23 454.67,-23 454.67,-23 450.83,-23 447,-19.17 447,-15.33 447,-15.33 447,-7.67 447,-7.67 447,-3.83 450.83,0 454.67,0 454.67,0 709.33,0 709.33,0 713.17,0 717,-3.83 717,-7.67 717,-7.67 717,-15.33 717,-15.33 717,-19.17 713.17,-23 709.33,-23"/>
<text text-anchor="middle" x="582" y="-7.8" font-family="Arial" font-size="14.00" fill="#cfffac">../components/ReactBits/SpotlightCard.tsx</text>
</g>
<!-- ../components/ReactBits/index.ts -->
<g id="node24" class="node">
<title>../components/ReactBits/index.ts</title>
<path fill="none" stroke="#c6c5fe" d="M378.33,-105C378.33,-105 179.67,-105 179.67,-105 175.83,-105 172,-101.17 172,-97.33 172,-97.33 172,-89.67 172,-89.67 172,-85.83 175.83,-82 179.67,-82 179.67,-82 378.33,-82 378.33,-82 382.17,-82 386,-85.83 386,-89.67 386,-89.67 386,-97.33 386,-97.33 386,-101.17 382.17,-105 378.33,-105"/>
<text text-anchor="middle" x="279" y="-89.8" font-family="Arial" font-size="14.00" fill="#c6c5fe">../components/ReactBits/index.ts</text>
</g>
<!-- ../components/ReactBits/index.ts&#45;&gt;../components/ReactBits/AnimatedList.tsx -->
<g id="edge15" class="edge">
<title>../components/ReactBits/index.ts&#45;&gt;../components/ReactBits/AnimatedList.tsx</title>
<path fill="none" stroke="#757575" d="M364.65,-105.03C402.48,-110.18 447.22,-116.28 486.17,-121.58"/>
<polygon fill="#757575" stroke="#757575" points="486.09,-125.1 496.47,-122.99 487.03,-118.17 486.09,-125.1"/>
</g>
<!-- ../components/ReactBits/index.ts&#45;&gt;../components/ReactBits/Dock.tsx -->
<g id="edge16" class="edge">
<title>../components/ReactBits/index.ts&#45;&gt;../components/ReactBits/Dock.tsx</title>
<path fill="none" stroke="#757575" d="M386.12,-93.5C410.67,-93.5 436.94,-93.5 462,-93.5"/>
<polygon fill="#757575" stroke="#757575" points="462.28,-97 472.28,-93.5 462.28,-90 462.28,-97"/>
</g>
<!-- ../components/ReactBits/index.ts&#45;&gt;../components/ReactBits/PixelCard.tsx -->
<g id="edge17" class="edge">
<title>../components/ReactBits/index.ts&#45;&gt;../components/ReactBits/PixelCard.tsx</title>
<path fill="none" stroke="#757575" d="M364.65,-81.97C402.48,-76.82 447.22,-70.72 486.17,-65.42"/>
<polygon fill="#757575" stroke="#757575" points="487.03,-68.83 496.47,-64.01 486.09,-61.9 487.03,-68.83"/>
</g>
<!-- ../components/ReactBits/index.ts&#45;&gt;../components/ReactBits/SpotlightCard.tsx -->
<g id="edge18" class="edge">
<title>../components/ReactBits/index.ts&#45;&gt;../components/ReactBits/SpotlightCard.tsx</title>
<path fill="none" stroke="#757575" d="M306.07,-81.89C338.48,-67.91 395.78,-44.68 447,-31.5 456.57,-29.04 466.6,-26.85 476.69,-24.9"/>
<polygon fill="#757575" stroke="#757575" points="477.59,-28.3 486.79,-23.04 476.32,-21.41 477.59,-28.3"/>
</g>
<!-- ../components/VideoCall.tsx -->
<g id="node25" class="node">
<title>../components/VideoCall.tsx</title>
<path fill="none" stroke="#c6c5fe" d="M363.83,-1332C363.83,-1332 194.17,-1332 194.17,-1332 190.33,-1332 186.5,-1328.17 186.5,-1324.33 186.5,-1324.33 186.5,-1316.67 186.5,-1316.67 186.5,-1312.83 190.33,-1309 194.17,-1309 194.17,-1309 363.83,-1309 363.83,-1309 367.67,-1309 371.5,-1312.83 371.5,-1316.67 371.5,-1316.67 371.5,-1324.33 371.5,-1324.33 371.5,-1328.17 367.67,-1332 363.83,-1332"/>
<text text-anchor="middle" x="279" y="-1316.8" font-family="Arial" font-size="14.00" fill="#c6c5fe">../components/VideoCall.tsx</text>
</g>
<!-- ../components/VideoCall.tsx&#45;&gt;../lib/types/supabase.ts -->
<g id="edge24" class="edge">
<title>../components/VideoCall.tsx&#45;&gt;../lib/types/supabase.ts</title>
<path fill="none" stroke="#757575" d="M291.6,-1332.36C316.99,-1357.41 380.54,-1415.22 447,-1437.5 758.99,-1542.11 1164.01,-1473.06 1313.88,-1441.16"/>
<polygon fill="#757575" stroke="#757575" points="1314.76,-1444.55 1323.8,-1439.02 1313.29,-1437.71 1314.76,-1444.55"/>
</g>
<!-- ../components/VideoCall.tsx&#45;&gt;../lib/logger.ts -->
<g id="edge21" class="edge">
<title>../components/VideoCall.tsx&#45;&gt;../lib/logger.ts</title>
<path fill="none" stroke="#757575" d="M371.82,-1317.97C538.7,-1311.41 882.18,-1288.2 965,-1207.5 1023.37,-1150.63 1042.5,-884.37 1046.91,-806.16"/>
<polygon fill="#757575" stroke="#757575" points="1050.41,-806.2 1047.45,-796.03 1043.42,-805.83 1050.41,-806.2"/>
</g>
<!-- ../components/VideoCall.tsx&#45;&gt;../lib/mutations.ts -->
<g id="edge22" class="edge">
<title>../components/VideoCall.tsx&#45;&gt;../lib/mutations.ts</title>
<path fill="none" stroke="#757575" d="M371.64,-1322.38C386.55,-1318.56 400.52,-1311.81 411,-1300.5 482.96,-1222.86 375.19,-903.28 447,-825.5 463.42,-807.71 488.27,-800.82 512.12,-798.95"/>
<polygon fill="#757575" stroke="#757575" points="512.44,-802.44 522.25,-798.44 512.09,-795.45 512.44,-802.44"/>
</g>
<!-- ../components/VideoCall.tsx&#45;&gt;../components/ControlsBar.tsx -->
<g id="edge19" class="edge">
<title>../components/VideoCall.tsx&#45;&gt;../components/ControlsBar.tsx</title>
<path fill="none" stroke="#757575" d="M322.04,-1332.07C355.71,-1341.16 404.21,-1353.85 447,-1363.5 466.58,-1367.92 487.87,-1372.26 507.59,-1376.09"/>
<polygon fill="#757575" stroke="#757575" points="506.96,-1379.53 517.44,-1377.98 508.29,-1372.65 506.96,-1379.53"/>
</g>
<!-- ../components/VideoCall.tsx&#45;&gt;../lib/supabaseClient.ts -->
<g id="edge23" class="edge">
<title>../components/VideoCall.tsx&#45;&gt;../lib/supabaseClient.ts</title>
<path fill="none" stroke="#757575" d="M371.73,-1321.23C386.36,-1317.46 400.21,-1311.02 411,-1300.5 475.99,-1237.16 386.13,-1166.82 447,-1099.5 530.69,-1006.94 599.24,-1063.77 717,-1022.5 753.96,-1009.55 795.17,-991.92 823.45,-979.31"/>
<polygon fill="#757575" stroke="#757575" points="825.19,-982.36 832.88,-975.08 822.32,-975.98 825.19,-982.36"/>
</g>
<!-- ../components/VideoCall.tsx&#45;&gt;../components/ParticipantTile.tsx -->
<g id="edge20" class="edge">
<title>../components/VideoCall.tsx&#45;&gt;../components/ParticipantTile.tsx</title>
<path fill="none" stroke="#757575" d="M295.54,-1332.06C323.89,-1352.39 386.65,-1393.94 447,-1410.5 544.28,-1437.2 659.34,-1439.61 742.94,-1436.4"/>
<polygon fill="#757575" stroke="#757575" points="743.13,-1439.9 752.98,-1435.99 742.84,-1432.91 743.13,-1439.9"/>
</g>
<!-- ../lib/dailyTokenManager.ts&#45;&gt;../lib/logger.ts -->
<g id="edge25" class="edge">
<title>../lib/dailyTokenManager.ts&#45;&gt;../lib/logger.ts</title>
<path fill="none" stroke="#757575" d="M947.12,-795.23C961.89,-793.66 976.89,-792.06 990.65,-790.6"/>
<polygon fill="#757575" stroke="#757575" points="991.33,-794.05 1000.91,-789.51 990.59,-787.09 991.33,-794.05"/>
</g>
<!-- ../lib/dailyTokenManager.ts&#45;&gt;../lib/types.ts -->
<g id="edge26" class="edge">
<title>../lib/dailyTokenManager.ts&#45;&gt;../lib/types.ts</title>
<path fill="none" stroke="#757575" d="M892.54,-816.1C916.29,-826.26 947.29,-843.37 965,-868.5 1009.2,-931.24 1037.89,-1173.4 1045.78,-1247.7"/>
<polygon fill="#757575" stroke="#757575" points="1042.32,-1248.19 1046.84,-1257.77 1049.28,-1247.46 1042.32,-1248.19"/>
</g>
<!-- ../lib/types/index.ts -->
<g id="node31" class="node">
<title>../lib/types/index.ts</title>
<path fill="none" stroke="#c6c5fe" d="M1253.33,-1320C1253.33,-1320 1140.67,-1320 1140.67,-1320 1136.83,-1320 1133,-1316.17 1133,-1312.33 1133,-1312.33 1133,-1304.67 1133,-1304.67 1133,-1300.83 1136.83,-1297 1140.67,-1297 1140.67,-1297 1253.33,-1297 1253.33,-1297 1257.17,-1297 1261,-1300.83 1261,-1304.67 1261,-1304.67 1261,-1312.33 1261,-1312.33 1261,-1316.17 1257.17,-1320 1253.33,-1320"/>
<text text-anchor="middle" x="1197" y="-1304.8" font-family="Arial" font-size="14.00" fill="#c6c5fe">../lib/types/index.ts</text>
</g>
<!-- ../lib/types.ts&#45;&gt;../lib/types/index.ts -->
<g id="edge41" class="edge">
<title>../lib/types.ts&#45;&gt;../lib/types/index.ts</title>
<path fill="none" stroke="#757575" d="M1093.41,-1281.1C1108.93,-1285.24 1126.6,-1289.96 1142.85,-1294.3"/>
<polygon fill="#757575" stroke="#757575" points="1142.19,-1297.75 1152.76,-1296.95 1144,-1290.99 1142.19,-1297.75"/>
</g>
<!-- ../lib/presence.ts -->
<g id="node28" class="node">
<title>../lib/presence.ts</title>
<path fill="none" stroke="#c6c5fe" d="M328.83,-819C328.83,-819 229.17,-819 229.17,-819 225.33,-819 221.5,-815.17 221.5,-811.33 221.5,-811.33 221.5,-803.67 221.5,-803.67 221.5,-799.83 225.33,-796 229.17,-796 229.17,-796 328.83,-796 328.83,-796 332.67,-796 336.5,-799.83 336.5,-803.67 336.5,-803.67 336.5,-811.33 336.5,-811.33 336.5,-815.17 332.67,-819 328.83,-819"/>
<text text-anchor="middle" x="279" y="-803.8" font-family="Arial" font-size="14.00" fill="#c6c5fe">../lib/presence.ts</text>
</g>
<!-- ../lib/presence.ts&#45;&gt;../lib/logger.ts -->
<g id="edge32" class="edge">
<title>../lib/presence.ts&#45;&gt;../lib/logger.ts</title>
<path fill="none" stroke="#757575" d="M336.64,-798.11C368.89,-793.17 410.1,-787.51 447,-784.5 676.49,-765.76 735.02,-765.44 965,-776.5 973.31,-776.9 982.08,-777.52 990.68,-778.25"/>
<polygon fill="#757575" stroke="#757575" points="990.38,-781.74 1000.65,-779.14 991.01,-774.77 990.38,-781.74"/>
</g>
<!-- ../lib/presence.ts&#45;&gt;../lib/mutations.ts -->
<g id="edge33" class="edge">
<title>../lib/presence.ts&#45;&gt;../lib/mutations.ts</title>
<path fill="none" stroke="#757575" d="M336.62,-806.94C386.45,-806.44 459.16,-805.71 512.31,-805.18"/>
<polygon fill="#757575" stroke="#757575" points="512.36,-808.68 522.33,-805.08 512.29,-801.68 512.36,-808.68"/>
</g>
<!-- ../lib/presence.ts&#45;&gt;../lib/supabaseClient.ts -->
<g id="edge34" class="edge">
<title>../lib/presence.ts&#45;&gt;../lib/supabaseClient.ts</title>
<path fill="none" stroke="#757575" d="M307.88,-819.11C340.66,-832.35 396.93,-853.78 447,-866.5 564.77,-896.42 607.98,-855.84 717,-909.5 736.75,-919.22 733.4,-933.48 753,-943.5 759.36,-946.75 766.18,-949.48 773.19,-951.76"/>
<polygon fill="#757575" stroke="#757575" points="772.24,-955.13 782.82,-954.61 774.22,-948.42 772.24,-955.13"/>
</g>
<!-- ../lib/realtimeHooks.ts -->
<g id="node29" class="node">
<title>../lib/realtimeHooks.ts</title>
<path fill="none" stroke="#c6c5fe" d="M647.33,-1131C647.33,-1131 516.67,-1131 516.67,-1131 512.83,-1131 509,-1127.17 509,-1123.33 509,-1123.33 509,-1115.67 509,-1115.67 509,-1111.83 512.83,-1108 516.67,-1108 516.67,-1108 647.33,-1108 647.33,-1108 651.17,-1108 655,-1111.83 655,-1115.67 655,-1115.67 655,-1123.33 655,-1123.33 655,-1127.17 651.17,-1131 647.33,-1131"/>
<text text-anchor="middle" x="582" y="-1115.8" font-family="Arial" font-size="14.00" fill="#c6c5fe">../lib/realtimeHooks.ts</text>
</g>
<!-- ../lib/realtimeHooks.ts&#45;&gt;../lib/logger.ts -->
<g id="edge35" class="edge">
<title>../lib/realtimeHooks.ts&#45;&gt;../lib/logger.ts</title>
<path fill="none" stroke="#757575" d="M655.4,-1111.5C759.63,-1099.38 942.06,-1075.61 965,-1055.5 1039.97,-989.77 1048.26,-858.31 1048.46,-806.35"/>
<polygon fill="#757575" stroke="#757575" points="1051.96,-806.23 1048.39,-796.26 1044.96,-806.28 1051.96,-806.23"/>
</g>
<!-- ../lib/realtimeHooks.ts&#45;&gt;../lib/supabaseClient.ts -->
<g id="edge36" class="edge">
<title>../lib/realtimeHooks.ts&#45;&gt;../lib/supabaseClient.ts</title>
<path fill="none" stroke="#757575" d="M655.3,-1112.96C676,-1109.13 698.07,-1103.07 717,-1093.5 731.29,-1086.27 803.78,-1016.45 838.89,-982.22"/>
<polygon fill="#757575" stroke="#757575" points="841.46,-984.6 846.17,-975.11 836.57,-979.59 841.46,-984.6"/>
</g>
<!-- ../lib/realtimeHooks.ts&#45;&gt;../lib/types.ts -->
<g id="edge37" class="edge">
<title>../lib/realtimeHooks.ts&#45;&gt;../lib/types.ts</title>
<path fill="none" stroke="#757575" d="M618.72,-1131.02C702.23,-1157.96 910.16,-1225.04 1002.54,-1254.83"/>
<polygon fill="#757575" stroke="#757575" points="1001.57,-1258.2 1012.16,-1257.94 1003.72,-1251.54 1001.57,-1258.2"/>
</g>
<!-- ../lib/sessionHooks.ts -->
<g id="node30" class="node">
<title>../lib/sessionHooks.ts</title>
<path fill="none" stroke="#c6c5fe" d="M645.83,-1013C645.83,-1013 518.17,-1013 518.17,-1013 514.33,-1013 510.5,-1009.17 510.5,-1005.33 510.5,-1005.33 510.5,-997.67 510.5,-997.67 510.5,-993.83 514.33,-990 518.17,-990 518.17,-990 645.83,-990 645.83,-990 649.67,-990 653.5,-993.83 653.5,-997.67 653.5,-997.67 653.5,-1005.33 653.5,-1005.33 653.5,-1009.17 649.67,-1013 645.83,-1013"/>
<text text-anchor="middle" x="582" y="-997.8" font-family="Arial" font-size="14.00" fill="#c6c5fe">../lib/sessionHooks.ts</text>
</g>
<!-- ../lib/sessionHooks.ts&#45;&gt;../lib/logger.ts -->
<g id="edge39" class="edge">
<title>../lib/sessionHooks.ts&#45;&gt;../lib/logger.ts</title>
<path fill="none" stroke="#757575" d="M653.89,-1007.14C750.36,-1013.36 916.54,-1018.44 965,-984.5 1024.93,-942.53 1041.71,-848.79 1046.31,-806.25"/>
<polygon fill="#757575" stroke="#757575" points="1049.81,-806.43 1047.27,-796.14 1042.84,-805.76 1049.81,-806.43"/>
</g>
<!-- ../lib/sessionHooks.ts&#45;&gt;../lib/supabaseClient.ts -->
<g id="edge40" class="edge">
<title>../lib/sessionHooks.ts&#45;&gt;../lib/supabaseClient.ts</title>
<path fill="none" stroke="#757575" d="M653.82,-991.71C690.05,-986.71 734.43,-980.58 772.55,-975.31"/>
<polygon fill="#757575" stroke="#757575" points="773.18,-978.75 782.61,-973.92 772.22,-971.82 773.18,-978.75"/>
</g>
<!-- ../lib/types/index.ts&#45;&gt;../lib/types/supabase.ts -->
<g id="edge42" class="edge">
<title>../lib/types/index.ts&#45;&gt;../lib/types/supabase.ts</title>
<path fill="none" stroke="#757575" d="M1215.1,-1320.13C1245.94,-1341.1 1311.04,-1385.37 1347.28,-1410.01"/>
<polygon fill="#757575" stroke="#757575" points="1345.59,-1413.1 1355.83,-1415.83 1349.53,-1407.31 1345.59,-1413.1"/>
</g>
<!-- ../lib/useSessionData.ts -->
<g id="node32" class="node">
<title>../lib/useSessionData.ts</title>
<path fill="none" stroke="#c6c5fe" d="M350.33,-975C350.33,-975 207.67,-975 207.67,-975 203.83,-975 200,-971.17 200,-967.33 200,-967.33 200,-959.67 200,-959.67 200,-955.83 203.83,-952 207.67,-952 207.67,-952 350.33,-952 350.33,-952 354.17,-952 358,-955.83 358,-959.67 358,-959.67 358,-967.33 358,-967.33 358,-971.17 354.17,-975 350.33,-975"/>
<text text-anchor="middle" x="279" y="-959.8" font-family="Arial" font-size="14.00" fill="#c6c5fe">../lib/useSessionData.ts</text>
</g>
<!-- ../lib/useSessionData.ts&#45;&gt;../lib/logger.ts -->
<g id="edge43" class="edge">
<title>../lib/useSessionData.ts&#45;&gt;../lib/logger.ts</title>
<path fill="none" stroke="#757575" d="M304.47,-975.12C336.4,-989.59 394.42,-1013.48 447,-1022.5 560.48,-1041.96 872.12,-1079.55 965,-1011.5 1032.08,-962.36 1045.04,-853.28 1047.48,-806.5"/>
<polygon fill="#757575" stroke="#757575" points="1050.98,-806.4 1047.89,-796.27 1043.99,-806.12 1050.98,-806.4"/>
</g>
<!-- ../lib/useSessionData.ts&#45;&gt;../lib/mutations.ts -->
<g id="edge44" class="edge">
<title>../lib/useSessionData.ts&#45;&gt;../lib/mutations.ts</title>
<path fill="none" stroke="#757575" d="M296.24,-951.87C321.51,-933.54 371.47,-896.42 411,-861.5 427.96,-846.52 426.83,-835.76 447,-825.5 466.93,-815.36 490.52,-809.86 512.3,-806.94"/>
<polygon fill="#757575" stroke="#757575" points="512.97,-810.39 522.49,-805.74 512.15,-803.44 512.97,-810.39"/>
</g>
<!-- ../lib/userSession.ts -->
<g id="node33" class="node">
<title>../lib/userSession.ts</title>
<path fill="none" stroke="#c6c5fe" d="M918.33,-1359C918.33,-1359 799.67,-1359 799.67,-1359 795.83,-1359 792,-1355.17 792,-1351.33 792,-1351.33 792,-1343.67 792,-1343.67 792,-1339.83 795.83,-1336 799.67,-1336 799.67,-1336 918.33,-1336 918.33,-1336 922.17,-1336 926,-1339.83 926,-1343.67 926,-1343.67 926,-1351.33 926,-1351.33 926,-1355.17 922.17,-1359 918.33,-1359"/>
<text text-anchor="middle" x="859" y="-1343.8" font-family="Arial" font-size="14.00" fill="#c6c5fe">../lib/userSession.ts</text>
</g>
<!-- ../lib/userSession.ts&#45;&gt;../lib/logger.ts -->
<g id="edge45" class="edge">
<title>../lib/userSession.ts&#45;&gt;../lib/logger.ts</title>
<path fill="none" stroke="#757575" d="M877.38,-1335.99C901.29,-1319.15 943.75,-1285.44 965,-1245.5 1046.42,-1092.49 1049.8,-874.72 1048.65,-806.08"/>
<polygon fill="#757575" stroke="#757575" points="1052.14,-805.96 1048.42,-796.04 1045.15,-806.11 1052.14,-805.96"/>
</g>
<!-- ../lib/userSession.ts&#45;&gt;../lib/types.ts -->
<g id="edge46" class="edge">
<title>../lib/userSession.ts&#45;&gt;../lib/types.ts</title>
<path fill="none" stroke="#757575" d="M920.48,-1335.99C935.34,-1332.22 951,-1327.44 965,-1321.5 986.4,-1312.42 1008.61,-1298.21 1024.66,-1286.94"/>
<polygon fill="#757575" stroke="#757575" points="1026.82,-1289.7 1032.9,-1281.03 1022.74,-1284.02 1026.82,-1289.7"/>
</g>
<!-- GameSetup.tsx -->
<g id="node34" class="node">
<title>GameSetup.tsx</title>
<path fill="none" stroke="#c6c5fe" d="M103.33,-897C103.33,-897 7.67,-897 7.67,-897 3.83,-897 0,-893.17 0,-889.33 0,-889.33 0,-881.67 0,-881.67 0,-877.83 3.83,-874 7.67,-874 7.67,-874 103.33,-874 103.33,-874 107.17,-874 111,-877.83 111,-881.67 111,-881.67 111,-889.33 111,-889.33 111,-893.17 107.17,-897 103.33,-897"/>
<text text-anchor="middle" x="55.5" y="-881.8" font-family="Arial" font-size="14.00" fill="#c6c5fe">GameSetup.tsx</text>
</g>
<!-- GameSetup.tsx&#45;&gt;../atoms/index.ts -->
<g id="edge47" class="edge">
<title>GameSetup.tsx&#45;&gt;../atoms/index.ts</title>
<path fill="none" stroke="#757575" d="M56.27,-897.01C56.07,-940.58 61.56,-1096.86 147,-1173.5 164.37,-1189.08 188.32,-1196.43 210.99,-1199.61"/>
<polygon fill="#757575" stroke="#757575" points="210.61,-1203.09 220.95,-1200.76 211.42,-1196.13 210.61,-1203.09"/>
</g>
<!-- GameSetup.tsx&#45;&gt;../lib/logger.ts -->
<g id="edge50" class="edge">
<title>GameSetup.tsx&#45;&gt;../lib/logger.ts</title>
<path fill="none" stroke="#757575" d="M63.14,-873.82C76.08,-852.31 106.98,-806.87 147,-787.5 441.24,-645.06 855.52,-733.18 997.77,-770.35"/>
<polygon fill="#757575" stroke="#757575" points="996.97,-773.76 1007.53,-772.94 998.76,-767 996.97,-773.76"/>
</g>
<!-- GameSetup.tsx&#45;&gt;../lib/mutations.ts -->
<g id="edge51" class="edge">
<title>GameSetup.tsx&#45;&gt;../lib/mutations.ts</title>
<path fill="none" stroke="#757575" d="M95.43,-873.94C111.31,-869.55 129.93,-864.82 147,-861.5 263.08,-838.96 293.79,-844.1 411,-828.5 444.31,-824.07 481.26,-818.88 512.18,-814.47"/>
<polygon fill="#757575" stroke="#757575" points="513.01,-817.89 522.42,-813 512.02,-810.96 513.01,-817.89"/>
</g>
<!-- GameSetup.tsx&#45;&gt;../components/Alert.tsx -->
<g id="edge48" class="edge">
<title>GameSetup.tsx&#45;&gt;../components/Alert.tsx</title>
<path fill="none" stroke="#757575" d="M56.84,-873.85C58.7,-831.05 70.63,-680.41 147,-593.5 166.03,-571.84 194.49,-557.52 220.02,-548.32"/>
<polygon fill="#757575" stroke="#757575" points="221.3,-551.58 229.63,-545.04 219.04,-544.96 221.3,-551.58"/>
</g>
<!-- GameSetup.tsx&#45;&gt;../components/LobbyStatus.tsx -->
<g id="edge49" class="edge">
<title>GameSetup.tsx&#45;&gt;../components/LobbyStatus.tsx</title>
<path fill="none" stroke="#757575" d="M111.19,-882.24C180.85,-877.99 304.94,-870.08 411,-861.5 430.34,-859.94 450.9,-858.13 470.79,-856.3"/>
<polygon fill="#757575" stroke="#757575" points="471.17,-859.78 480.81,-855.37 470.53,-852.81 471.17,-859.78"/>
</g>
<!-- GameSetup.tsx&#45;&gt;../lib/supabaseClient.ts -->
<g id="edge53" class="edge">
<title>GameSetup.tsx&#45;&gt;../lib/supabaseClient.ts</title>
<path fill="none" stroke="#757575" d="M111.34,-890.29C224.57,-900.25 492.46,-924.22 717,-947.5 734.99,-949.36 754.25,-951.48 772.58,-953.54"/>
<polygon fill="#757575" stroke="#757575" points="772.33,-957.03 782.66,-954.68 773.12,-950.08 772.33,-957.03"/>
</g>
<!-- GameSetup.tsx&#45;&gt;../lib/types.ts -->
<g id="edge54" class="edge">
<title>GameSetup.tsx&#45;&gt;../lib/types.ts</title>
<path fill="none" stroke="#757575" d="M56.69,-897.23C58.03,-938.19 68.45,-1075.9 147,-1140.5 238.61,-1215.83 307.83,-1120.99 411,-1179.5 432.98,-1191.96 425.14,-1210.83 447,-1223.5 566.3,-1292.62 615.59,-1263.13 753,-1274.5 836.31,-1281.4 933.29,-1277.47 992.65,-1273.71"/>
<polygon fill="#757575" stroke="#757575" points="993.18,-1277.19 1002.93,-1273.04 992.72,-1270.2 993.18,-1277.19"/>
</g>
<!-- GameSetup.tsx&#45;&gt;../lib/presence.ts -->
<g id="edge52" class="edge">
<title>GameSetup.tsx&#45;&gt;../lib/presence.ts</title>
<path fill="none" stroke="#757575" d="M73.03,-873.78C90.57,-861.89 119.51,-843.81 147,-833.5 167.34,-825.87 190.33,-820.35 211.31,-816.41"/>
<polygon fill="#757575" stroke="#757575" points="212.2,-819.8 221.43,-814.6 210.97,-812.91 212.2,-819.8"/>
</g>
<!-- GameSetup.tsx&#45;&gt;../lib/useSessionData.ts -->
<g id="edge55" class="edge">
<title>GameSetup.tsx&#45;&gt;../lib/useSessionData.ts</title>
<path fill="none" stroke="#757575" d="M73.03,-897.22C90.57,-909.11 119.51,-927.19 147,-937.5 160.58,-942.59 175.35,-946.75 189.91,-950.12"/>
<polygon fill="#757575" stroke="#757575" points="189.43,-953.6 199.94,-952.34 190.93,-946.76 189.43,-953.6"/>
</g>
<!-- Homepage.tsx -->
<g id="node35" class="node">
<title>Homepage.tsx</title>
<path fill="none" stroke="#c6c5fe" d="M99.83,-424C99.83,-424 11.17,-424 11.17,-424 7.33,-424 3.5,-420.17 3.5,-416.33 3.5,-416.33 3.5,-408.67 3.5,-408.67 3.5,-404.83 7.33,-401 11.17,-401 11.17,-401 99.83,-401 99.83,-401 103.67,-401 107.5,-404.83 107.5,-408.67 107.5,-408.67 107.5,-416.33 107.5,-416.33 107.5,-420.17 103.67,-424 99.83,-424"/>
<text text-anchor="middle" x="55.5" y="-408.8" font-family="Arial" font-size="14.00" fill="#c6c5fe">Homepage.tsx</text>
</g>
<!-- Homepage.tsx&#45;&gt;../components/ActiveGames.tsx -->
<g id="edge56" class="edge">
<title>Homepage.tsx&#45;&gt;../components/ActiveGames.tsx</title>
<path fill="none" stroke="#757575" d="M107.59,-412.5C124.64,-412.5 144.38,-412.5 164.25,-412.5"/>
<polygon fill="#757575" stroke="#757575" points="164.32,-416 174.32,-412.5 164.32,-409 164.32,-416"/>
</g>
<!-- Homepage.tsx&#45;&gt;../lib/logger.ts -->
<g id="edge59" class="edge">
<title>Homepage.tsx&#45;&gt;../lib/logger.ts</title>
<path fill="none" stroke="#757575" d="M99.91,-400.9C114.73,-397.48 131.48,-394.19 147,-392.5 318.85,-373.74 926.2,-365.85 965,-397.5 1022.48,-444.39 1042.04,-687.48 1046.76,-762.46"/>
<polygon fill="#757575" stroke="#757575" points="1043.28,-762.85 1047.37,-772.62 1050.27,-762.43 1043.28,-762.85"/>
</g>
<!-- Homepage.tsx&#45;&gt;../lib/mutations.ts -->
<g id="edge60" class="edge">
<title>Homepage.tsx&#45;&gt;../lib/mutations.ts</title>
<path fill="none" stroke="#757575" d="M69.2,-424.03C85.78,-438.39 116.33,-462.47 147,-474.5 257.42,-517.79 321.11,-436.13 411,-513.5 452.56,-549.27 421.8,-582.8 447,-631.5 479.06,-693.44 534.05,-755.52 562.6,-785.68"/>
<polygon fill="#757575" stroke="#757575" points="560.14,-788.17 569.58,-792.97 565.2,-783.33 560.14,-788.17"/>
</g>
<!-- Homepage.tsx&#45;&gt;../components/Alert.tsx -->
<g id="edge57" class="edge">
<title>Homepage.tsx&#45;&gt;../components/Alert.tsx</title>
<path fill="none" stroke="#757575" d="M63.88,-424.03C77.59,-444.42 109.08,-486.64 147,-507.5 160.58,-514.97 176.01,-520.31 191.38,-524.13"/>
<polygon fill="#757575" stroke="#757575" points="190.93,-527.61 201.46,-526.42 192.48,-520.79 190.93,-527.61"/>
</g>
<!-- Homepage.tsx&#45;&gt;../components/PasswordModal.tsx -->
<g id="edge58" class="edge">
<title>Homepage.tsx&#45;&gt;../components/PasswordModal.tsx</title>
<path fill="none" stroke="#757575" d="M71.99,-400.99C89.37,-388.63 118.82,-369.33 147,-358.5 159.71,-353.61 173.49,-349.6 187.17,-346.32"/>
<polygon fill="#757575" stroke="#757575" points="188.13,-349.69 197.1,-344.05 186.57,-342.86 188.13,-349.69"/>
</g>
<!-- Join.backup.tsx -->
<g id="node36" class="node">
<title>Join.backup.tsx</title>
<path fill="none" stroke="#c6c5fe" d="M102.83,-625C102.83,-625 8.17,-625 8.17,-625 4.33,-625 0.5,-621.17 0.5,-617.33 0.5,-617.33 0.5,-609.67 0.5,-609.67 0.5,-605.83 4.33,-602 8.17,-602 8.17,-602 102.83,-602 102.83,-602 106.67,-602 110.5,-605.83 110.5,-609.67 110.5,-609.67 110.5,-617.33 110.5,-617.33 110.5,-621.17 106.67,-625 102.83,-625"/>
<text text-anchor="middle" x="55.5" y="-609.8" font-family="Arial" font-size="14.00" fill="#c6c5fe">Join.backup.tsx</text>
</g>
<!-- Join.backup.tsx&#45;&gt;../lib/logger.ts -->
<g id="edge64" class="edge">
<title>Join.backup.tsx&#45;&gt;../lib/logger.ts</title>
<path fill="none" stroke="#757575" d="M101.39,-625.08C115.87,-628.5 132.05,-632 147,-634.5 507.5,-694.82 626.1,-582.58 965,-719.5 990.43,-729.78 1014.54,-750.3 1030.15,-765.55"/>
<polygon fill="#757575" stroke="#757575" points="1027.97,-768.32 1037.5,-772.96 1032.94,-763.4 1027.97,-768.32"/>
</g>
<!-- Join.backup.tsx&#45;&gt;../lib/mutations.ts -->
<g id="edge65" class="edge">
<title>Join.backup.tsx&#45;&gt;../lib/mutations.ts</title>
<path fill="none" stroke="#757575" d="M73.21,-625.09C90.9,-636.96 119.96,-655.36 147,-667.5 276.14,-725.46 437.09,-769.39 522.07,-790.55"/>
<polygon fill="#757575" stroke="#757575" points="521.25,-793.95 531.8,-792.95 522.93,-787.15 521.25,-793.95"/>
</g>
<!-- Join.backup.tsx&#45;&gt;../components/Alert.tsx -->
<g id="edge61" class="edge">
<title>Join.backup.tsx&#45;&gt;../components/Alert.tsx</title>
<path fill="none" stroke="#757575" d="M71.99,-601.99C89.37,-589.63 118.82,-570.33 147,-559.5 161.03,-554.11 176.35,-549.78 191.4,-546.32"/>
<polygon fill="#757575" stroke="#757575" points="192.22,-549.73 201.25,-544.18 190.73,-542.89 192.22,-549.73"/>
</g>
<!-- Join.backup.tsx&#45;&gt;../components/FlagSelector.tsx -->
<g id="edge62" class="edge">
<title>Join.backup.tsx&#45;&gt;../components/FlagSelector.tsx</title>
<path fill="none" stroke="#757575" d="M110.68,-613.5C128,-613.5 147.83,-613.5 167.64,-613.5"/>
<polygon fill="#757575" stroke="#757575" points="167.67,-617 177.67,-613.5 167.67,-610 167.67,-617"/>
</g>
<!-- Join.backup.tsx&#45;&gt;../components/LogoSelector.tsx -->
<g id="edge63" class="edge">
<title>Join.backup.tsx&#45;&gt;../components/LogoSelector.tsx</title>
<path fill="none" stroke="#757575" d="M105.69,-601.97C119.05,-599.01 133.55,-595.98 147,-593.5 263.65,-572.02 296.03,-583.64 411,-554.5 458.4,-542.49 511,-522.17 544.95,-508.08"/>
<polygon fill="#757575" stroke="#757575" points="546.57,-511.19 554.44,-504.1 543.87,-504.74 546.57,-511.19"/>
</g>
<!-- Join.tsx -->
<g id="node37" class="node">
<title>Join.tsx</title>
<path fill="none" stroke="#c6c5fe" d="M78.83,-244C78.83,-244 32.17,-244 32.17,-244 28.33,-244 24.5,-240.17 24.5,-236.33 24.5,-236.33 24.5,-228.67 24.5,-228.67 24.5,-224.83 28.33,-221 32.17,-221 32.17,-221 78.83,-221 78.83,-221 82.67,-221 86.5,-224.83 86.5,-228.67 86.5,-228.67 86.5,-236.33 86.5,-236.33 86.5,-240.17 82.67,-244 78.83,-244"/>
<text text-anchor="middle" x="55.5" y="-228.8" font-family="Arial" font-size="14.00" fill="#c6c5fe">Join.tsx</text>
</g>
<!-- Join.tsx&#45;&gt;../lib/logger.ts -->
<g id="edge69" class="edge">
<title>Join.tsx&#45;&gt;../lib/logger.ts</title>
<path fill="none" stroke="#757575" d="M86.14,-220.86C103.56,-214.65 126.18,-207.65 147,-204.5 263.02,-186.96 294.94,-187.29 411,-204.5 665.51,-242.24 791.97,-182.08 965,-372.5 1018.09,-430.93 1040.73,-684.95 1046.47,-762.16"/>
<polygon fill="#757575" stroke="#757575" points="1043.01,-762.88 1047.22,-772.6 1049.99,-762.38 1043.01,-762.88"/>
</g>
<!-- Join.tsx&#45;&gt;../lib/mutations.ts -->
<g id="edge70" class="edge">
<title>Join.tsx&#45;&gt;../lib/mutations.ts</title>
<path fill="none" stroke="#757575" d="M77.43,-244.01C95.37,-253.38 122.18,-266.2 147,-273.5 203.89,-290.23 369.79,-269.85 411,-312.5 460.57,-363.8 420.16,-565.4 447,-631.5 472.98,-695.48 529.62,-755.82 560.28,-785.43"/>
<polygon fill="#757575" stroke="#757575" points="558.18,-788.26 567.84,-792.62 563,-783.19 558.18,-788.26"/>
</g>
<!-- Join.tsx&#45;&gt;../components/Alert.tsx -->
<g id="edge66" class="edge">
<title>Join.tsx&#45;&gt;../components/Alert.tsx</title>
<path fill="none" stroke="#757575" d="M60.26,-244.13C75.17,-289.96 130.1,-456.45 147,-474.5 166.73,-495.57 195.39,-509.64 220.88,-518.74"/>
<polygon fill="#757575" stroke="#757575" points="219.87,-522.1 230.46,-521.99 222.12,-515.47 219.87,-522.1"/>
</g>
<!-- Join.tsx&#45;&gt;../lib/supabaseClient.ts -->
<g id="edge71" class="edge">
<title>Join.tsx&#45;&gt;../lib/supabaseClient.ts</title>
<path fill="none" stroke="#757575" d="M86.62,-227.67C163.35,-216.08 363.47,-190.67 411,-232.5 505.52,-315.68 357.71,-424.73 447,-513.5 532.73,-598.74 632.86,-459.69 717,-546.5 778.65,-610.11 693.5,-877.87 753,-943.5 758.67,-949.76 765.64,-954.42 773.28,-957.86"/>
<polygon fill="#757575" stroke="#757575" points="772.28,-961.22 782.87,-961.47 774.74,-954.67 772.28,-961.22"/>
</g>
<!-- Join.tsx&#45;&gt;../components/OptimizedFlagSelector.tsx -->
<g id="edge67" class="edge">
<title>Join.tsx&#45;&gt;../components/OptimizedFlagSelector.tsx</title>
<path fill="none" stroke="#757575" d="M86.83,-235.24C101.6,-236.57 120.5,-238.28 140.65,-240.1"/>
<polygon fill="#757575" stroke="#757575" points="140.35,-243.59 150.63,-241 140.98,-236.61 140.35,-243.59"/>
</g>
<!-- Join.tsx&#45;&gt;../components/ReactBits/index.ts -->
<g id="edge68" class="edge">
<title>Join.tsx&#45;&gt;../components/ReactBits/index.ts</title>
<path fill="none" stroke="#757575" d="M69.37,-220.9C86.38,-205.88 117.63,-179.42 147,-160.5 177.89,-140.6 215.42,-121.91 242.38,-109.35"/>
<polygon fill="#757575" stroke="#757575" points="244.18,-112.38 251.8,-105.01 241.26,-106.02 244.18,-112.38"/>
</g>
<!-- Lobby.tsx -->
<g id="node38" class="node">
<title>Lobby.tsx</title>
<path fill="none" stroke="#c6c5fe" d="M84.83,-1231C84.83,-1231 26.17,-1231 26.17,-1231 22.33,-1231 18.5,-1227.17 18.5,-1223.33 18.5,-1223.33 18.5,-1215.67 18.5,-1215.67 18.5,-1211.83 22.33,-1208 26.17,-1208 26.17,-1208 84.83,-1208 84.83,-1208 88.67,-1208 92.5,-1211.83 92.5,-1215.67 92.5,-1215.67 92.5,-1223.33 92.5,-1223.33 92.5,-1227.17 88.67,-1231 84.83,-1231"/>
<text text-anchor="middle" x="55.5" y="-1215.8" font-family="Arial" font-size="14.00" fill="#c6c5fe">Lobby.tsx</text>
</g>
<!-- Lobby.tsx&#45;&gt;../atoms/index.ts -->
<g id="edge72" class="edge">
<title>Lobby.tsx&#45;&gt;../atoms/index.ts</title>
<path fill="none" stroke="#757575" d="M92.58,-1216.24C124.43,-1213.37 171.69,-1209.1 210.53,-1205.59"/>
<polygon fill="#757575" stroke="#757575" points="211.08,-1209.06 220.72,-1204.67 210.45,-1202.09 211.08,-1209.06"/>
</g>
<!-- Lobby.tsx&#45;&gt;../lib/types/supabase.ts -->
<g id="edge81" class="edge">
<title>Lobby.tsx&#45;&gt;../lib/types/supabase.ts</title>
<path fill="none" stroke="#757575" d="M58.37,-1231.02C64.51,-1265.3 87.25,-1367.7 147,-1423.5 297.03,-1563.6 375.73,-1581.5 581,-1581.5 581,-1581.5 581,-1581.5 1050,-1581.5 1175.09,-1581.5 1303.22,-1486.23 1352.23,-1445.56"/>
<polygon fill="#757575" stroke="#757575" points="1354.53,-1448.19 1359.92,-1439.08 1350.02,-1442.84 1354.53,-1448.19"/>
</g>
<!-- Lobby.tsx&#45;&gt;../lib/logger.ts -->
<g id="edge76" class="edge">
<title>Lobby.tsx&#45;&gt;../lib/logger.ts</title>
<path fill="none" stroke="#757575" d="M92.72,-1221.54C245.54,-1229.37 835.8,-1251.3 965,-1131.5 1013.51,-1086.52 1038.85,-875.01 1045.92,-806.19"/>
<polygon fill="#757575" stroke="#757575" points="1049.42,-806.38 1046.93,-796.08 1042.45,-805.68 1049.42,-806.38"/>
</g>
<!-- Lobby.tsx&#45;&gt;../lib/mutations.ts -->
<g id="edge77" class="edge">
<title>Lobby.tsx&#45;&gt;../lib/mutations.ts</title>
<path fill="none" stroke="#757575" d="M58.23,-1207.64C63.89,-1173.44 85.2,-1074.08 147,-1027.5 241.93,-955.94 324.41,-1065.95 411,-984.5 463.78,-934.86 394.07,-874.98 447,-825.5 464.31,-809.32 488.71,-802.61 511.95,-800.43"/>
<polygon fill="#757575" stroke="#757575" points="512.43,-803.91 522.17,-799.75 511.96,-796.93 512.43,-803.91"/>
</g>
<!-- Lobby.tsx&#45;&gt;../components/Flag.tsx -->
<g id="edge73" class="edge">
<title>Lobby.tsx&#45;&gt;../components/Flag.tsx</title>
<path fill="none" stroke="#757575" d="M58.3,-1207.66C68.44,-1141.68 118.84,-821.27 147,-787.5 235.04,-681.91 395.9,-638.6 495.12,-621.35"/>
<polygon fill="#757575" stroke="#757575" points="495.84,-624.78 505.12,-619.67 494.67,-617.88 495.84,-624.78"/>
</g>
<!-- Lobby.tsx&#45;&gt;../components/LobbyLogo.tsx -->
<g id="edge74" class="edge">
<title>Lobby.tsx&#45;&gt;../components/LobbyLogo.tsx</title>
<path fill="none" stroke="#757575" d="M83.83,-1231.11C101.59,-1238.31 125.37,-1247.34 147,-1253.5 163.59,-1258.23 181.6,-1262.4 198.81,-1265.95"/>
<polygon fill="#757575" stroke="#757575" points="198.33,-1269.42 208.83,-1267.96 199.71,-1262.56 198.33,-1269.42"/>
</g>
<!-- Lobby.tsx&#45;&gt;../lib/supabaseClient.ts -->
<g id="edge79" class="edge">
<title>Lobby.tsx&#45;&gt;../lib/supabaseClient.ts</title>
<path fill="none" stroke="#757575" d="M59.08,-1207.96C66.58,-1177.3 91.48,-1093.57 147,-1055.5 244.67,-988.53 305.64,-1073.55 411,-1019.5 431.7,-1008.88 425.83,-991.16 447,-981.5 502.97,-955.96 669.71,-956.64 772.81,-959.82"/>
<polygon fill="#757575" stroke="#757575" points="772.78,-963.32 782.89,-960.15 773.01,-956.33 772.78,-963.32"/>
</g>
<!-- Lobby.tsx&#45;&gt;../components/VideoCall.tsx -->
<g id="edge75" class="edge">
<title>Lobby.tsx&#45;&gt;../components/VideoCall.tsx</title>
<path fill="none" stroke="#757575" d="M65.62,-1231.19C80.51,-1249.34 111.91,-1283.95 147,-1300.5 156.3,-1304.89 166.35,-1308.35 176.6,-1311.09"/>
<polygon fill="#757575" stroke="#757575" points="175.93,-1314.52 186.48,-1313.49 177.59,-1307.72 175.93,-1314.52"/>
</g>
<!-- Lobby.tsx&#45;&gt;../lib/types.ts -->
<g id="edge80" class="edge">
<title>Lobby.tsx&#45;&gt;../lib/types.ts</title>
<path fill="none" stroke="#757575" d="M59,-1231.28C66.33,-1262.59 90.84,-1348.15 147,-1387.5 257.37,-1464.83 312.92,-1417.97 447,-1431.5 676.18,-1454.63 770.86,-1572.47 965,-1448.5 1020.3,-1413.19 1039.31,-1330.51 1045.38,-1291.11"/>
<polygon fill="#757575" stroke="#757575" points="1048.88,-1291.4 1046.8,-1281.01 1041.94,-1290.43 1048.88,-1291.4"/>
</g>
<!-- Lobby.tsx&#45;&gt;../lib/sessionHooks.ts -->
<g id="edge78" class="edge">
<title>Lobby.tsx&#45;&gt;../lib/sessionHooks.ts</title>
<path fill="none" stroke="#757575" d="M61.53,-1207.94C72.84,-1183.42 102.82,-1126.28 147,-1099.5 248.73,-1037.84 295.36,-1083.35 411,-1055.5 455.66,-1044.74 505.65,-1028.32 539.8,-1016.41"/>
<polygon fill="#757575" stroke="#757575" points="541.15,-1019.64 549.42,-1013.02 538.83,-1013.04 541.15,-1019.64"/>
</g>
<!-- Lobby.tsx&#45;&gt;../lib/useSessionData.ts -->
<g id="edge82" class="edge">
<title>Lobby.tsx&#45;&gt;../lib/useSessionData.ts</title>
<path fill="none" stroke="#757575" d="M57.29,-1207.98C60.56,-1170.11 76.36,-1048.51 147,-989.5 159.3,-979.22 174.52,-972.6 190.18,-968.41"/>
<polygon fill="#757575" stroke="#757575" points="191.03,-971.8 199.96,-966.1 189.42,-964.99 191.03,-971.8"/>
</g>
<!-- Lobby.tsx&#45;&gt;../lib/userSession.ts -->
<g id="edge83" class="edge">
<title>Lobby.tsx&#45;&gt;../lib/userSession.ts</title>
<path fill="none" stroke="#757575" d="M61.6,-1231.05C73.06,-1255.57 103.3,-1312.91 147,-1341.5 261.49,-1416.4 311.06,-1395.07 447,-1410.5 566.23,-1424.04 599.64,-1435.53 717,-1410.5 758.46,-1401.66 802.5,-1379.7 830.11,-1364.21"/>
<polygon fill="#757575" stroke="#757575" points="831.87,-1367.23 838.82,-1359.23 828.4,-1361.15 831.87,-1367.23"/>
</g>
<!-- Quiz.tsx -->
<g id="node39" class="node">
<title>Quiz.tsx</title>
<path fill="none" stroke="#c6c5fe" d="M304.33,-1131C304.33,-1131 253.67,-1131 253.67,-1131 249.83,-1131 246,-1127.17 246,-1123.33 246,-1123.33 246,-1115.67 246,-1115.67 246,-1111.83 249.83,-1108 253.67,-1108 253.67,-1108 304.33,-1108 304.33,-1108 308.17,-1108 312,-1111.83 312,-1115.67 312,-1115.67 312,-1123.33 312,-1123.33 312,-1127.17 308.17,-1131 304.33,-1131"/>
<text text-anchor="middle" x="279" y="-1115.8" font-family="Arial" font-size="14.00" fill="#c6c5fe">Quiz.tsx</text>
</g>
<!-- Quiz.tsx&#45;&gt;../lib/logger.ts -->
<g id="edge84" class="edge">
<title>Quiz.tsx&#45;&gt;../lib/logger.ts</title>
<path fill="none" stroke="#757575" d="M312.21,-1124.77C345.76,-1129.96 399.9,-1137.55 447,-1140.5 562.42,-1147.73 880.58,-1169.53 965,-1090.5 1007.36,-1050.84 1036.25,-868.95 1045.12,-806"/>
<polygon fill="#757575" stroke="#757575" points="1048.6,-806.4 1046.5,-796.01 1041.66,-805.44 1048.6,-806.4"/>
</g>
<!-- Quiz.tsx&#45;&gt;../lib/mutations.ts -->
<g id="edge85" class="edge">
<title>Quiz.tsx&#45;&gt;../lib/mutations.ts</title>
<path fill="none" stroke="#757575" d="M303.68,-1107.99C333.76,-1092.06 384.9,-1060.33 411,-1017.5 456.18,-943.36 384.7,-885.97 447,-825.5 464.07,-808.93 488.55,-802.17 511.92,-800.05"/>
<polygon fill="#757575" stroke="#757575" points="512.43,-803.53 522.19,-799.4 511.99,-796.54 512.43,-803.53"/>
</g>
<!-- Quiz.tsx&#45;&gt;../lib/types.ts -->
<g id="edge88" class="edge">
<title>Quiz.tsx&#45;&gt;../lib/types.ts</title>
<path fill="none" stroke="#757575" d="M312.24,-1121.72C339.56,-1124.56 379.26,-1131 411,-1145.5 429.44,-1153.92 428.41,-1165.42 447,-1173.5 635.23,-1255.29 883.81,-1268.23 992.8,-1269.72"/>
<polygon fill="#757575" stroke="#757575" points="992.87,-1273.22 1002.9,-1269.83 992.94,-1266.22 992.87,-1273.22"/>
</g>
<!-- Quiz.tsx&#45;&gt;../lib/realtimeHooks.ts -->
<g id="edge86" class="edge">
<title>Quiz.tsx&#45;&gt;../lib/realtimeHooks.ts</title>
<path fill="none" stroke="#757575" d="M312.21,-1119.5C356.39,-1119.5 437.3,-1119.5 498.84,-1119.5"/>
<polygon fill="#757575" stroke="#757575" points="498.93,-1123 508.93,-1119.5 498.93,-1116 498.93,-1123"/>
</g>
<!-- Quiz.tsx&#45;&gt;../lib/sessionHooks.ts -->
<g id="edge87" class="edge">
<title>Quiz.tsx&#45;&gt;../lib/sessionHooks.ts</title>
<path fill="none" stroke="#757575" d="M312.24,-1117.28C339.56,-1114.44 379.26,-1108 411,-1093.5 429.44,-1085.08 429.75,-1076.15 447,-1065.5 478,-1046.35 515.62,-1028.84 543.09,-1016.99"/>
<polygon fill="#757575" stroke="#757575" points="544.53,-1020.18 552.36,-1013.05 541.79,-1013.74 544.53,-1020.18"/>
</g>
<!-- Results.tsx -->
<g id="node40" class="node">
<title>Results.tsx</title>
<path fill="none" stroke="#c6c5fe" d="M312.83,-465C312.83,-465 245.17,-465 245.17,-465 241.33,-465 237.5,-461.17 237.5,-457.33 237.5,-457.33 237.5,-449.67 237.5,-449.67 237.5,-445.83 241.33,-442 245.17,-442 245.17,-442 312.83,-442 312.83,-442 316.67,-442 320.5,-445.83 320.5,-449.67 320.5,-449.67 320.5,-457.33 320.5,-457.33 320.5,-461.17 316.67,-465 312.83,-465"/>
<text text-anchor="middle" x="279" y="-449.8" font-family="Arial" font-size="14.00" fill="#c6c5fe">Results.tsx</text>
</g>
<!-- Results.tsx&#45;&gt;../lib/logger.ts -->
<g id="edge89" class="edge">
<title>Results.tsx&#45;&gt;../lib/logger.ts</title>
<path fill="none" stroke="#757575" d="M320.75,-448.95C452.65,-435.13 865.17,-399.22 965,-478.5 1010.44,-514.59 1037.33,-698.8 1045.4,-762.66"/>
<polygon fill="#757575" stroke="#757575" points="1041.96,-763.31 1046.66,-772.81 1048.91,-762.45 1041.96,-763.31"/>
</g>
<!-- Results.tsx&#45;&gt;../lib/mutations.ts -->
<g id="edge90" class="edge">
<title>Results.tsx&#45;&gt;../lib/mutations.ts</title>
<path fill="none" stroke="#757575" d="M320.7,-450.78C349.58,-451.15 387.3,-456.65 411,-479.5 460.98,-527.68 417.07,-568.86 447,-631.5 476.92,-694.12 532.37,-755.46 561.68,-785.46"/>
<polygon fill="#757575" stroke="#757575" points="559.36,-788.09 568.88,-792.73 564.33,-783.16 559.36,-788.09"/>
</g>
<!-- Results.tsx&#45;&gt;../lib/supabaseClient.ts -->
<g id="edge92" class="edge">
<title>Results.tsx&#45;&gt;../lib/supabaseClient.ts</title>
<path fill="none" stroke="#757575" d="M320.62,-449.17C348.55,-448.33 385.13,-451.68 411,-470.5 441.23,-492.48 417.13,-524.03 447,-546.5 544.16,-619.59 633.64,-501.99 717,-590.5 771.06,-647.9 699.71,-885.38 753,-943.5 758.71,-949.72 765.7,-954.37 773.35,-957.79"/>
<polygon fill="#757575" stroke="#757575" points="772.36,-961.16 782.95,-961.4 774.82,-954.61 772.36,-961.16"/>
</g>
<!-- Results.tsx&#45;&gt;../lib/sessionHooks.ts -->
<g id="edge91" class="edge">
<title>Results.tsx&#45;&gt;../lib/sessionHooks.ts</title>
<path fill="none" stroke="#757575" d="M320.62,-460.93C350.66,-468.68 389.88,-484.01 411,-513.5 502.82,-641.72 379.59,-723.93 447,-866.5 471.26,-917.8 523.33,-961.06 554.94,-983.96"/>
<polygon fill="#757575" stroke="#757575" points="553.09,-986.94 563.28,-989.87 557.14,-981.23 553.09,-986.94"/>
</g>
</g>
</svg>
