<?xml version="1.0" encoding="UTF-8" standalone="no"?>
<!DOCTYPE svg PUBLIC "-//W3C//DTD SVG 1.1//EN"
 "http://www.w3.org/Graphics/SVG/1.1/DTD/svg11.dtd">
<!-- Generated by graphviz version 2.43.0 (0)
 -->
<!-- Title: G Pages: 1 -->
<svg width="525pt" height="306pt"
 viewBox="0.00 0.00 525.37 306.20" xmlns="http://www.w3.org/2000/svg" xmlns:xlink="http://www.w3.org/1999/xlink">
<g id="graph0" class="graph" transform="scale(1 1) rotate(0) translate(21.6 284.6)">
<title>G</title>
<polygon fill="#111111" stroke="transparent" points="-21.6,21.6 -21.6,-284.6 503.77,-284.6 503.77,21.6 -21.6,21.6"/>
<!-- App.tsx -->
<g id="node1" class="node">
<title>App.tsx</title>
<path fill="none" stroke="#c6c5fe" d="M142.82,-96.73C142.82,-96.73 96.16,-96.73 96.16,-96.73 92.32,-96.73 88.49,-92.9 88.49,-89.07 88.49,-89.07 88.49,-81.4 88.49,-81.4 88.49,-77.57 92.32,-73.73 96.16,-73.73 96.16,-73.73 142.82,-73.73 142.82,-73.73 146.66,-73.73 150.49,-77.57 150.49,-81.4 150.49,-81.4 150.49,-89.07 150.49,-89.07 150.49,-92.9 146.66,-96.73 142.82,-96.73"/>
<text text-anchor="middle" x="119.49" y="-81.53" font-family="Arial" font-size="14.00" fill="#c6c5fe">App.tsx</text>
</g>
<!-- pages/GameSetup.tsx -->
<g id="node2" class="node">
<title>pages/GameSetup.tsx</title>
<path fill="none" stroke="#c6c5fe" d="M165.33,-126.43C165.33,-126.43 28.66,-126.43 28.66,-126.43 24.83,-126.43 20.99,-122.6 20.99,-118.77 20.99,-118.77 20.99,-111.1 20.99,-111.1 20.99,-107.27 24.83,-103.43 28.66,-103.43 28.66,-103.43 165.33,-103.43 165.33,-103.43 169.16,-103.43 172.99,-107.27 172.99,-111.1 172.99,-111.1 172.99,-118.77 172.99,-118.77 172.99,-122.6 169.16,-126.43 165.33,-126.43"/>
<text text-anchor="middle" x="96.99" y="-111.23" font-family="Arial" font-size="14.00" fill="#c6c5fe">pages/GameSetup.tsx</text>
</g>
<!-- App.tsx&#45;&gt;pages/GameSetup.tsx -->
<g id="edge1" class="edge">
<title>App.tsx&#45;&gt;pages/GameSetup.tsx</title>
<path fill="none" stroke="#757575" d="M110.6,-96.97C110.5,-97.1 110.4,-97.23 110.3,-97.36"/>
<polygon fill="#757575" stroke="#757575" points="109.07,-93.2 105.82,-103.28 114.65,-97.42 109.07,-93.2"/>
</g>
<!-- pages/Homepage.tsx -->
<g id="node3" class="node">
<title>pages/Homepage.tsx</title>
<path fill="none" stroke="#c6c5fe" d="M240.18,-143.68C240.18,-143.68 110.51,-143.68 110.51,-143.68 106.68,-143.68 102.85,-139.85 102.85,-136.02 102.85,-136.02 102.85,-128.35 102.85,-128.35 102.85,-124.52 106.68,-120.68 110.51,-120.68 110.51,-120.68 240.18,-120.68 240.18,-120.68 244.01,-120.68 247.85,-124.52 247.85,-128.35 247.85,-128.35 247.85,-136.02 247.85,-136.02 247.85,-139.85 244.01,-143.68 240.18,-143.68"/>
<text text-anchor="middle" x="175.35" y="-128.48" font-family="Arial" font-size="14.00" fill="#c6c5fe">pages/Homepage.tsx</text>
</g>
<!-- App.tsx&#45;&gt;pages/Homepage.tsx -->
<g id="edge2" class="edge">
<title>App.tsx&#45;&gt;pages/Homepage.tsx</title>
<path fill="none" stroke="#757575" d="M133.3,-96.84C139.43,-101.99 146.79,-108.18 153.63,-113.93"/>
<polygon fill="#757575" stroke="#757575" points="151.4,-116.63 161.31,-120.38 155.91,-111.27 151.4,-116.63"/>
</g>
<!-- pages/Join.tsx -->
<g id="node4" class="node">
<title>pages/Join.tsx</title>
<path fill="none" stroke="#c6c5fe" d="M221.15,-127.68C221.15,-127.68 133.48,-127.68 133.48,-127.68 129.65,-127.68 125.81,-123.84 125.81,-120.01 125.81,-120.01 125.81,-112.34 125.81,-112.34 125.81,-108.51 129.65,-104.68 133.48,-104.68 133.48,-104.68 221.15,-104.68 221.15,-104.68 224.98,-104.68 228.81,-108.51 228.81,-112.34 228.81,-112.34 228.81,-120.01 228.81,-120.01 228.81,-123.84 224.98,-127.68 221.15,-127.68"/>
<text text-anchor="middle" x="177.31" y="-112.48" font-family="Arial" font-size="14.00" fill="#c6c5fe">pages/Join.tsx</text>
</g>
<!-- App.tsx&#45;&gt;pages/Join.tsx -->
<g id="edge3" class="edge">
<title>App.tsx&#45;&gt;pages/Join.tsx</title>
<path fill="none" stroke="#757575" d="M141.02,-96.75C142.8,-97.71 144.63,-98.68 146.46,-99.66"/>
<polygon fill="#757575" stroke="#757575" points="145.1,-102.91 155.57,-104.54 148.41,-96.74 145.1,-102.91"/>
</g>
<!-- pages/Lobby.tsx -->
<g id="node5" class="node">
<title>pages/Lobby.tsx</title>
<path fill="none" stroke="#c6c5fe" d="M214.15,-78.65C214.15,-78.65 115.48,-78.65 115.48,-78.65 111.65,-78.65 107.81,-74.82 107.81,-70.98 107.81,-70.98 107.81,-63.32 107.81,-63.32 107.81,-59.48 111.65,-55.65 115.48,-55.65 115.48,-55.65 214.15,-55.65 214.15,-55.65 217.98,-55.65 221.81,-59.48 221.81,-63.32 221.81,-63.32 221.81,-70.98 221.81,-70.98 221.81,-74.82 217.98,-78.65 214.15,-78.65"/>
<text text-anchor="middle" x="164.81" y="-63.45" font-family="Arial" font-size="14.00" fill="#c6c5fe">pages/Lobby.tsx</text>
</g>
<!-- App.tsx&#45;&gt;pages/Lobby.tsx -->
<g id="edge4" class="edge">
<title>App.tsx&#45;&gt;pages/Lobby.tsx</title>
<path fill="none" stroke="#757575" d="M148.45,-73.68C148.52,-73.65 148.59,-73.62 148.66,-73.6"/>
<polygon fill="#757575" stroke="#757575" points="140.87,-80.47 148.86,-73.51 138.28,-73.97 140.87,-80.47"/>
</g>
<!-- pages/Quiz.tsx -->
<g id="node6" class="node">
<title>pages/Quiz.tsx</title>
<path fill="none" stroke="#c6c5fe" d="M157.32,-102.57C157.32,-102.57 65.65,-102.57 65.65,-102.57 61.82,-102.57 57.98,-98.74 57.98,-94.9 57.98,-94.9 57.98,-87.24 57.98,-87.24 57.98,-83.4 61.82,-79.57 65.65,-79.57 65.65,-79.57 157.32,-79.57 157.32,-79.57 161.15,-79.57 164.98,-83.4 164.98,-87.24 164.98,-87.24 164.98,-94.9 164.98,-94.9 164.98,-98.74 161.15,-102.57 157.32,-102.57"/>
<text text-anchor="middle" x="111.48" y="-87.37" font-family="Arial" font-size="14.00" fill="#c6c5fe">pages/Quiz.tsx</text>
</g>
<!-- App.tsx&#45;&gt;pages/Quiz.tsx -->
<g id="edge5" class="edge">
<title>App.tsx&#45;&gt;pages/Quiz.tsx</title>
<path fill="none" stroke="#757575" d="M111.57,-91C111.56,-91.01 111.55,-91.02 111.53,-91.03"/>
<polygon fill="#757575" stroke="#757575" points="117.53,-82.32 111.51,-91.05 121.66,-87.98 117.53,-82.32"/>
</g>
<!-- pages/Results.tsx -->
<g id="node7" class="node">
<title>pages/Results.tsx</title>
<path fill="none" stroke="#c6c5fe" d="M178.63,-88.73C178.63,-88.73 70.96,-88.73 70.96,-88.73 67.13,-88.73 63.29,-84.9 63.29,-81.07 63.29,-81.07 63.29,-73.4 63.29,-73.4 63.29,-69.57 67.13,-65.73 70.96,-65.73 70.96,-65.73 178.63,-65.73 178.63,-65.73 182.46,-65.73 186.29,-69.57 186.29,-73.4 186.29,-73.4 186.29,-81.07 186.29,-81.07 186.29,-84.9 182.46,-88.73 178.63,-88.73"/>
<text text-anchor="middle" x="124.79" y="-73.53" font-family="Arial" font-size="14.00" fill="#c6c5fe">pages/Results.tsx</text>
</g>
<!-- App.tsx&#45;&gt;pages/Results.tsx -->
<g id="edge6" class="edge">
<title>App.tsx&#45;&gt;pages/Results.tsx</title>
<path fill="none" stroke="#757575" d="M124.73,-77.32C124.74,-77.31 124.75,-77.29 124.76,-77.28"/>
<polygon fill="#757575" stroke="#757575" points="122.16,-87.53 124.78,-77.25 116.32,-83.66 122.16,-87.53"/>
</g>
<!-- atoms/index.ts -->
<g id="node8" class="node">
<title>atoms/index.ts</title>
<path fill="none" stroke="#c6c5fe" d="M201.14,-77.69C201.14,-77.69 112.47,-77.69 112.47,-77.69 108.64,-77.69 104.81,-73.86 104.81,-70.03 104.81,-70.03 104.81,-62.36 104.81,-62.36 104.81,-58.53 108.64,-54.69 112.47,-54.69 112.47,-54.69 201.14,-54.69 201.14,-54.69 204.97,-54.69 208.81,-58.53 208.81,-62.36 208.81,-62.36 208.81,-70.03 208.81,-70.03 208.81,-73.86 204.97,-77.69 201.14,-77.69"/>
<text text-anchor="middle" x="156.81" y="-62.49" font-family="Arial" font-size="14.00" fill="#c6c5fe">atoms/index.ts</text>
</g>
<!-- pages/GameSetup.tsx&#45;&gt;atoms/index.ts -->
<g id="edge54" class="edge">
<title>pages/GameSetup.tsx&#45;&gt;atoms/index.ts</title>
<path fill="none" stroke="#757575" d="M111.17,-103.38C118.07,-97.76 126.53,-90.86 134.29,-84.54"/>
<polygon fill="#757575" stroke="#757575" points="136.78,-87.03 142.32,-78 132.35,-81.6 136.78,-87.03"/>
</g>
<!-- lib/mutations.ts -->
<g id="node11" class="node">
<title>lib/mutations.ts</title>
<path fill="none" stroke="#c6c5fe" d="M210.84,-159.69C210.84,-159.69 119.18,-159.69 119.18,-159.69 115.34,-159.69 111.51,-155.86 111.51,-152.03 111.51,-152.03 111.51,-144.36 111.51,-144.36 111.51,-140.53 115.34,-136.69 119.18,-136.69 119.18,-136.69 210.84,-136.69 210.84,-136.69 214.68,-136.69 218.51,-140.53 218.51,-144.36 218.51,-144.36 218.51,-152.03 218.51,-152.03 218.51,-155.86 214.68,-159.69 210.84,-159.69"/>
<text text-anchor="middle" x="165.01" y="-144.49" font-family="Arial" font-size="14.00" fill="#c6c5fe">lib/mutations.ts</text>
</g>
<!-- pages/GameSetup.tsx&#45;&gt;lib/mutations.ts -->
<g id="edge57" class="edge">
<title>pages/GameSetup.tsx&#45;&gt;lib/mutations.ts</title>
<path fill="none" stroke="#757575" d="M120.78,-126.57C124.39,-128.33 128.16,-130.17 131.91,-132.01"/>
<polygon fill="#757575" stroke="#757575" points="130.6,-135.26 141.12,-136.51 133.67,-128.97 130.6,-135.26"/>
</g>
<!-- components/Alert.tsx -->
<g id="node12" class="node">
<title>components/Alert.tsx</title>
<path fill="none" stroke="#cfffac" d="M246.64,-135.68C246.64,-135.68 118.97,-135.68 118.97,-135.68 115.14,-135.68 111.3,-131.84 111.3,-128.01 111.3,-128.01 111.3,-120.34 111.3,-120.34 111.3,-116.51 115.14,-112.68 118.97,-112.68 118.97,-112.68 246.64,-112.68 246.64,-112.68 250.47,-112.68 254.3,-116.51 254.3,-120.34 254.3,-120.34 254.3,-128.01 254.3,-128.01 254.3,-131.84 250.47,-135.68 246.64,-135.68"/>
<text text-anchor="middle" x="182.8" y="-120.48" font-family="Arial" font-size="14.00" fill="#cfffac">components/Alert.tsx</text>
</g>
<!-- pages/GameSetup.tsx&#45;&gt;components/Alert.tsx -->
<g id="edge55" class="edge">
<title>pages/GameSetup.tsx&#45;&gt;components/Alert.tsx</title>
<path fill="none" stroke="#757575" d="M173.29,-123.15C173.34,-123.16 173.38,-123.16 173.43,-123.17"/>
<polygon fill="#757575" stroke="#757575" points="163.24,-125.58 173.56,-123.18 164,-118.62 163.24,-125.58"/>
</g>
<!-- components/LobbyStatus.tsx -->
<g id="node26" class="node">
<title>components/LobbyStatus.tsx</title>
<path fill="none" stroke="#c6c5fe" d="M183.33,-134.44C183.33,-134.44 7.67,-134.44 7.67,-134.44 3.83,-134.44 0,-130.6 0,-126.77 0,-126.77 0,-119.1 0,-119.1 0,-115.27 3.83,-111.44 7.67,-111.44 7.67,-111.44 183.33,-111.44 183.33,-111.44 187.17,-111.44 191,-115.27 191,-119.1 191,-119.1 191,-126.77 191,-126.77 191,-130.6 187.17,-134.44 183.33,-134.44"/>
<text text-anchor="middle" x="95.5" y="-119.24" font-family="Arial" font-size="14.00" fill="#c6c5fe">components/LobbyStatus.tsx</text>
</g>
<!-- pages/GameSetup.tsx&#45;&gt;components/LobbyStatus.tsx -->
<g id="edge56" class="edge">
<title>pages/GameSetup.tsx&#45;&gt;components/LobbyStatus.tsx</title>
<path fill="none" stroke="#757575" d="M95.52,-122.85C95.51,-122.86 95.51,-122.87 95.51,-122.89"/>
<polygon fill="#757575" stroke="#757575" points="93.93,-112.43 95.5,-122.91 100.81,-113.73 93.93,-112.43"/>
</g>
<!-- lib/supabaseClient.ts -->
<g id="node27" class="node">
<title>lib/supabaseClient.ts</title>
<path fill="none" stroke="#cfffac" d="M163.56,-150.45C163.56,-150.45 37.89,-150.45 37.89,-150.45 34.06,-150.45 30.23,-146.61 30.23,-142.78 30.23,-142.78 30.23,-135.11 30.23,-135.11 30.23,-131.28 34.06,-127.45 37.89,-127.45 37.89,-127.45 163.56,-127.45 163.56,-127.45 167.39,-127.45 171.23,-131.28 171.23,-135.11 171.23,-135.11 171.23,-142.78 171.23,-142.78 171.23,-146.61 167.39,-150.45 163.56,-150.45"/>
<text text-anchor="middle" x="100.73" y="-135.25" font-family="Arial" font-size="14.00" fill="#cfffac">lib/supabaseClient.ts</text>
</g>
<!-- pages/GameSetup.tsx&#45;&gt;lib/supabaseClient.ts -->
<g id="edge59" class="edge">
<title>pages/GameSetup.tsx&#45;&gt;lib/supabaseClient.ts</title>
<path fill="none" stroke="#757575" d="M98.82,-126.66C98.83,-126.75 98.85,-126.85 98.86,-126.94"/>
<polygon fill="#757575" stroke="#757575" points="93.91,-117.89 98.9,-127.23 100.82,-116.81 93.91,-117.89"/>
</g>
<!-- lib/types.ts -->
<g id="node39" class="node">
<title>lib/types.ts</title>
<path fill="none" stroke="#c6c5fe" d="M133.99,-118.43C133.99,-118.43 69.32,-118.43 69.32,-118.43 65.49,-118.43 61.65,-114.6 61.65,-110.76 61.65,-110.76 61.65,-103.1 61.65,-103.1 61.65,-99.26 65.49,-95.43 69.32,-95.43 69.32,-95.43 133.99,-95.43 133.99,-95.43 137.82,-95.43 141.65,-99.26 141.65,-103.1 141.65,-103.1 141.65,-110.76 141.65,-110.76 141.65,-114.6 137.82,-118.43 133.99,-118.43"/>
<text text-anchor="middle" x="101.65" y="-103.23" font-family="Arial" font-size="14.00" fill="#c6c5fe">lib/types.ts</text>
</g>
<!-- pages/GameSetup.tsx&#45;&gt;lib/types.ts -->
<g id="edge60" class="edge">
<title>pages/GameSetup.tsx&#45;&gt;lib/types.ts</title>
<path fill="none" stroke="#757575" d="M101.6,-107.02C101.61,-107.01 101.62,-106.99 101.62,-106.98"/>
<polygon fill="#757575" stroke="#757575" points="99.62,-117.37 101.64,-106.95 93.57,-113.83 99.62,-117.37"/>
</g>
<!-- lib/presence.ts -->
<g id="node42" class="node">
<title>lib/presence.ts</title>
<path fill="none" stroke="#c6c5fe" d="M140.96,-142.44C140.96,-142.44 52.29,-142.44 52.29,-142.44 48.46,-142.44 44.62,-138.61 44.62,-134.78 44.62,-134.78 44.62,-127.11 44.62,-127.11 44.62,-123.28 48.46,-119.44 52.29,-119.44 52.29,-119.44 140.96,-119.44 140.96,-119.44 144.79,-119.44 148.62,-123.28 148.62,-127.11 148.62,-127.11 148.62,-134.78 148.62,-134.78 148.62,-138.61 144.79,-142.44 140.96,-142.44"/>
<text text-anchor="middle" x="96.62" y="-127.24" font-family="Arial" font-size="14.00" fill="#c6c5fe">lib/presence.ts</text>
</g>
<!-- pages/GameSetup.tsx&#45;&gt;lib/presence.ts -->
<g id="edge58" class="edge">
<title>pages/GameSetup.tsx&#45;&gt;lib/presence.ts</title>
<path fill="none" stroke="#757575" d="M96.72,-126.57C96.72,-126.65 96.72,-126.72 96.72,-126.8"/>
<polygon fill="#757575" stroke="#757575" points="93.45,-116.95 96.71,-127.03 100.45,-117.11 93.45,-116.95"/>
</g>
<!-- components/ActiveGames.tsx -->
<g id="node10" class="node">
<title>components/ActiveGames.tsx</title>
<path fill="none" stroke="#c6c5fe" d="M261.37,-151.69C261.37,-151.69 79.7,-151.69 79.7,-151.69 75.87,-151.69 72.03,-147.85 72.03,-144.02 72.03,-144.02 72.03,-136.35 72.03,-136.35 72.03,-132.52 75.87,-128.69 79.7,-128.69 79.7,-128.69 261.37,-128.69 261.37,-128.69 265.2,-128.69 269.03,-132.52 269.03,-136.35 269.03,-136.35 269.03,-144.02 269.03,-144.02 269.03,-147.85 265.2,-151.69 261.37,-151.69"/>
<text text-anchor="middle" x="170.53" y="-136.49" font-family="Arial" font-size="14.00" fill="#c6c5fe">components/ActiveGames.tsx</text>
</g>
<!-- pages/Homepage.tsx&#45;&gt;components/ActiveGames.tsx -->
<g id="edge61" class="edge">
<title>pages/Homepage.tsx&#45;&gt;components/ActiveGames.tsx</title>
<path fill="none" stroke="#757575" d="M170.59,-140.1C170.58,-140.11 170.57,-140.12 170.56,-140.13"/>
<polygon fill="#757575" stroke="#757575" points="172.71,-129.78 170.55,-140.16 178.72,-133.4 172.71,-129.78"/>
</g>
<!-- pages/Homepage.tsx&#45;&gt;lib/mutations.ts -->
<g id="edge64" class="edge">
<title>pages/Homepage.tsx&#45;&gt;lib/mutations.ts</title>
<path fill="none" stroke="#757575" d="M167.83,-143.82C167.78,-143.9 167.73,-143.97 167.69,-144.05"/>
<polygon fill="#757575" stroke="#757575" points="170.02,-133.98 167.54,-144.28 175.9,-137.77 170.02,-133.98"/>
</g>
<!-- pages/Homepage.tsx&#45;&gt;components/Alert.tsx -->
<g id="edge62" class="edge">
<title>pages/Homepage.tsx&#45;&gt;components/Alert.tsx</title>
<path fill="none" stroke="#757575" d="M182.72,-124.27C182.73,-124.25 182.75,-124.24 182.76,-124.23"/>
<polygon fill="#757575" stroke="#757575" points="178.52,-133.91 182.78,-124.2 173.39,-129.14 178.52,-133.91"/>
</g>
<!-- components/PasswordModal.tsx -->
<g id="node32" class="node">
<title>components/PasswordModal.tsx</title>
<path fill="none" stroke="#cfffac" d="M281.95,-149.62C281.95,-149.62 85.28,-149.62 85.28,-149.62 81.45,-149.62 77.61,-145.79 77.61,-141.96 77.61,-141.96 77.61,-134.29 77.61,-134.29 77.61,-130.46 81.45,-126.62 85.28,-126.62 85.28,-126.62 281.95,-126.62 281.95,-126.62 285.78,-126.62 289.61,-130.46 289.61,-134.29 289.61,-134.29 289.61,-141.96 289.61,-141.96 289.61,-145.79 285.78,-149.62 281.95,-149.62"/>
<text text-anchor="middle" x="183.61" y="-134.42" font-family="Arial" font-size="14.00" fill="#cfffac">components/PasswordModal.tsx</text>
</g>
<!-- pages/Homepage.tsx&#45;&gt;components/PasswordModal.tsx -->
<g id="edge63" class="edge">
<title>pages/Homepage.tsx&#45;&gt;components/PasswordModal.tsx</title>
<path fill="none" stroke="#757575" d="M183.52,-138.06C183.53,-138.07 183.55,-138.08 183.56,-138.09"/>
<polygon fill="#757575" stroke="#757575" points="173.42,-135.1 183.59,-138.11 177.51,-129.41 173.42,-135.1"/>
</g>
<!-- pages/Join.tsx&#45;&gt;lib/mutations.ts -->
<g id="edge68" class="edge">
<title>pages/Join.tsx&#45;&gt;lib/mutations.ts</title>
<path fill="none" stroke="#757575" d="M172.87,-127.74C172.84,-127.82 172.8,-127.91 172.77,-128"/>
<polygon fill="#757575" stroke="#757575" points="169.81,-125.95 169.49,-136.54 176.34,-128.46 169.81,-125.95"/>
</g>
<!-- pages/Join.tsx&#45;&gt;components/Alert.tsx -->
<g id="edge65" class="edge">
<title>pages/Join.tsx&#45;&gt;components/Alert.tsx</title>
<path fill="none" stroke="#757575" d="M182.74,-124.09C182.75,-124.1 182.76,-124.12 182.77,-124.13"/>
<polygon fill="#757575" stroke="#757575" points="174.23,-117.89 182.79,-124.15 180,-113.92 174.23,-117.89"/>
</g>
<!-- components/FlagSelector.tsx -->
<g id="node25" class="node">
<title>components/FlagSelector.tsx</title>
<path fill="none" stroke="#cfffac" d="M278.64,-133.77C278.64,-133.77 102.97,-133.77 102.97,-133.77 99.14,-133.77 95.3,-129.93 95.3,-126.1 95.3,-126.1 95.3,-118.43 95.3,-118.43 95.3,-114.6 99.14,-110.77 102.97,-110.77 102.97,-110.77 278.64,-110.77 278.64,-110.77 282.47,-110.77 286.3,-114.6 286.3,-118.43 286.3,-118.43 286.3,-126.1 286.3,-126.1 286.3,-129.93 282.47,-133.77 278.64,-133.77"/>
<text text-anchor="middle" x="190.8" y="-118.57" font-family="Arial" font-size="14.00" fill="#cfffac">components/FlagSelector.tsx</text>
</g>
<!-- pages/Join.tsx&#45;&gt;components/FlagSelector.tsx -->
<g id="edge66" class="edge">
<title>pages/Join.tsx&#45;&gt;components/FlagSelector.tsx</title>
<path fill="none" stroke="#757575" d="M190.65,-122.2C190.68,-122.21 190.7,-122.22 190.72,-122.23"/>
<polygon fill="#757575" stroke="#757575" points="180.21,-121.31 190.77,-122.25 183.09,-114.93 180.21,-121.31"/>
</g>
<!-- components/LogoSelector.tsx -->
<g id="node28" class="node">
<title>components/LogoSelector.tsx</title>
<path fill="none" stroke="#c6c5fe" d="M269.24,-119.67C269.24,-119.67 90.58,-119.67 90.58,-119.67 86.74,-119.67 82.91,-115.84 82.91,-112.01 82.91,-112.01 82.91,-104.34 82.91,-104.34 82.91,-100.51 86.74,-96.67 90.58,-96.67 90.58,-96.67 269.24,-96.67 269.24,-96.67 273.08,-96.67 276.91,-100.51 276.91,-104.34 276.91,-104.34 276.91,-112.01 276.91,-112.01 276.91,-115.84 273.08,-119.67 269.24,-119.67"/>
<text text-anchor="middle" x="179.91" y="-104.47" font-family="Arial" font-size="14.00" fill="#c6c5fe">components/LogoSelector.tsx</text>
</g>
<!-- pages/Join.tsx&#45;&gt;components/LogoSelector.tsx -->
<g id="edge67" class="edge">
<title>pages/Join.tsx&#45;&gt;components/LogoSelector.tsx</title>
<path fill="none" stroke="#757575" d="M179.88,-108.26C179.89,-108.25 179.89,-108.24 179.89,-108.22"/>
<polygon fill="#757575" stroke="#757575" points="180.12,-118.8 179.9,-108.2 173.46,-116.62 180.12,-118.8"/>
</g>
<!-- pages/Lobby.tsx&#45;&gt;atoms/index.ts -->
<g id="edge69" class="edge">
<title>pages/Lobby.tsx&#45;&gt;atoms/index.ts</title>
<path fill="none" stroke="#757575" d="M156.9,-66.2C156.88,-66.2 156.87,-66.2 156.86,-66.2"/>
<polygon fill="#757575" stroke="#757575" points="167.19,-63.94 156.83,-66.2 166.33,-70.89 167.19,-63.94"/>
</g>
<!-- lib/types/supabase.ts -->
<g id="node9" class="node">
<title>lib/types/supabase.ts</title>
<path fill="none" stroke="#cfffac" d="M243.06,-87.66C243.06,-87.66 115.4,-87.66 115.4,-87.66 111.56,-87.66 107.73,-83.83 107.73,-80 107.73,-80 107.73,-72.33 107.73,-72.33 107.73,-68.5 111.56,-64.66 115.4,-64.66 115.4,-64.66 243.06,-64.66 243.06,-64.66 246.9,-64.66 250.73,-68.5 250.73,-72.33 250.73,-72.33 250.73,-80 250.73,-80 250.73,-83.83 246.9,-87.66 243.06,-87.66"/>
<text text-anchor="middle" x="179.23" y="-72.46" font-family="Arial" font-size="14.00" fill="#cfffac">lib/types/supabase.ts</text>
</g>
<!-- pages/Lobby.tsx&#45;&gt;lib/types/supabase.ts -->
<g id="edge74" class="edge">
<title>pages/Lobby.tsx&#45;&gt;lib/types/supabase.ts</title>
<path fill="none" stroke="#757575" d="M179.07,-76.06C179.09,-76.08 179.12,-76.09 179.14,-76.11"/>
<polygon fill="#757575" stroke="#757575" points="168.85,-73.8 179.19,-76.14 172.56,-67.86 168.85,-73.8"/>
</g>
<!-- pages/Lobby.tsx&#45;&gt;lib/mutations.ts -->
<g id="edge71" class="edge">
<title>pages/Lobby.tsx&#45;&gt;lib/mutations.ts</title>
<path fill="none" stroke="#757575" d="M164.84,-78.76C164.87,-91.16 164.92,-111.09 164.96,-126.42"/>
<polygon fill="#757575" stroke="#757575" points="161.46,-126.61 164.98,-136.6 168.46,-126.59 161.46,-126.61"/>
</g>
<!-- pages/Lobby.tsx&#45;&gt;lib/supabaseClient.ts -->
<g id="edge73" class="edge">
<title>pages/Lobby.tsx&#45;&gt;lib/supabaseClient.ts</title>
<path fill="none" stroke="#757575" d="M154.52,-78.69C144.67,-89.71 129.64,-106.55 117.97,-119.63"/>
<polygon fill="#757575" stroke="#757575" points="115.26,-117.41 111.21,-127.2 120.48,-122.07 115.26,-117.41"/>
</g>
<!-- components/VideoCall.tsx -->
<g id="node35" class="node">
<title>components/VideoCall.tsx</title>
<path fill="none" stroke="#c6c5fe" d="M261.02,-95.67C261.02,-95.67 103.35,-95.67 103.35,-95.67 99.52,-95.67 95.69,-91.84 95.69,-88 95.69,-88 95.69,-80.34 95.69,-80.34 95.69,-76.5 99.52,-72.67 103.35,-72.67 103.35,-72.67 261.02,-72.67 261.02,-72.67 264.85,-72.67 268.69,-76.5 268.69,-80.34 268.69,-80.34 268.69,-88 268.69,-88 268.69,-91.84 264.85,-95.67 261.02,-95.67"/>
<text text-anchor="middle" x="182.19" y="-80.47" font-family="Arial" font-size="14.00" fill="#c6c5fe">components/VideoCall.tsx</text>
</g>
<!-- pages/Lobby.tsx&#45;&gt;components/VideoCall.tsx -->
<g id="edge70" class="edge">
<title>pages/Lobby.tsx&#45;&gt;components/VideoCall.tsx</title>
<path fill="none" stroke="#757575" d="M176.69,-78.78C176.74,-78.83 176.79,-78.88 176.83,-78.92"/>
<polygon fill="#757575" stroke="#757575" points="167.38,-74.56 176.97,-79.06 172.28,-69.56 167.38,-74.56"/>
</g>
<!-- lib/sessionHooks.ts -->
<g id="node45" class="node">
<title>lib/sessionHooks.ts</title>
<path fill="none" stroke="#c6c5fe" d="M191.13,-82.59C191.13,-82.59 74.46,-82.59 74.46,-82.59 70.63,-82.59 66.8,-78.76 66.8,-74.92 66.8,-74.92 66.8,-67.26 66.8,-67.26 66.8,-63.42 70.63,-59.59 74.46,-59.59 74.46,-59.59 191.13,-59.59 191.13,-59.59 194.96,-59.59 198.8,-63.42 198.8,-67.26 198.8,-67.26 198.8,-74.92 198.8,-74.92 198.8,-78.76 194.96,-82.59 191.13,-82.59"/>
<text text-anchor="middle" x="132.8" y="-67.39" font-family="Arial" font-size="14.00" fill="#c6c5fe">lib/sessionHooks.ts</text>
</g>
<!-- pages/Lobby.tsx&#45;&gt;lib/sessionHooks.ts -->
<g id="edge72" class="edge">
<title>pages/Lobby.tsx&#45;&gt;lib/sessionHooks.ts</title>
<path fill="none" stroke="#757575" d="M132.89,-71.08C132.87,-71.08 132.86,-71.08 132.85,-71.08"/>
<polygon fill="#757575" stroke="#757575" points="142.31,-66.36 132.82,-71.09 143.18,-73.31 142.31,-66.36"/>
</g>
<!-- pages/Quiz.tsx&#45;&gt;lib/mutations.ts -->
<g id="edge75" class="edge">
<title>pages/Quiz.tsx&#45;&gt;lib/mutations.ts</title>
<path fill="none" stroke="#757575" d="M122.32,-102.63C129.43,-110.22 138.89,-120.32 147.11,-129.09"/>
<polygon fill="#757575" stroke="#757575" points="144.8,-131.75 154.19,-136.65 149.91,-126.96 144.8,-131.75"/>
</g>
<!-- pages/Quiz.tsx&#45;&gt;lib/types.ts -->
<g id="edge78" class="edge">
<title>pages/Quiz.tsx&#45;&gt;lib/types.ts</title>
<path fill="none" stroke="#757575" d="M104.34,-102.6C104.29,-102.67 104.24,-102.75 104.2,-102.83"/>
<polygon fill="#757575" stroke="#757575" points="106.35,-92.71 104.06,-103.05 112.3,-96.39 106.35,-92.71"/>
</g>
<!-- lib/realtimeHooks.ts -->
<g id="node43" class="node">
<title>lib/realtimeHooks.ts</title>
<path fill="none" stroke="#c6c5fe" d="M163.31,-110.43C163.31,-110.43 43.65,-110.43 43.65,-110.43 39.81,-110.43 35.98,-106.6 35.98,-102.76 35.98,-102.76 35.98,-95.1 35.98,-95.1 35.98,-91.26 39.81,-87.43 43.65,-87.43 43.65,-87.43 163.31,-87.43 163.31,-87.43 167.15,-87.43 170.98,-91.26 170.98,-95.1 170.98,-95.1 170.98,-102.76 170.98,-102.76 170.98,-106.6 167.15,-110.43 163.31,-110.43"/>
<text text-anchor="middle" x="103.48" y="-95.23" font-family="Arial" font-size="14.00" fill="#c6c5fe">lib/realtimeHooks.ts</text>
</g>
<!-- pages/Quiz.tsx&#45;&gt;lib/realtimeHooks.ts -->
<g id="edge76" class="edge">
<title>pages/Quiz.tsx&#45;&gt;lib/realtimeHooks.ts</title>
<path fill="none" stroke="#757575" d="M103.57,-98.84C103.55,-98.86 103.54,-98.87 103.53,-98.88"/>
<polygon fill="#757575" stroke="#757575" points="108.19,-89.39 103.5,-98.91 113.1,-94.39 108.19,-89.39"/>
</g>
<!-- pages/Quiz.tsx&#45;&gt;lib/sessionHooks.ts -->
<g id="edge77" class="edge">
<title>pages/Quiz.tsx&#45;&gt;lib/sessionHooks.ts</title>
<path fill="none" stroke="#757575" d="M124.13,-79.22C124.2,-79.15 124.27,-79.08 124.34,-79.01"/>
<polygon fill="#757575" stroke="#757575" points="119.65,-88.21 124.56,-78.81 114.87,-83.1 119.65,-88.21"/>
</g>
<!-- pages/Results.tsx&#45;&gt;lib/mutations.ts -->
<g id="edge79" class="edge">
<title>pages/Results.tsx&#45;&gt;lib/mutations.ts</title>
<path fill="none" stroke="#757575" d="M131.43,-88.95C137.34,-99.36 146.1,-114.83 153.2,-127.35"/>
<polygon fill="#757575" stroke="#757575" points="150.25,-129.25 158.22,-136.22 156.34,-125.79 150.25,-129.25"/>
</g>
<!-- pages/Results.tsx&#45;&gt;lib/supabaseClient.ts -->
<g id="edge81" class="edge">
<title>pages/Results.tsx&#45;&gt;lib/supabaseClient.ts</title>
<path fill="none" stroke="#757575" d="M120.27,-88.84C117.07,-97.03 112.71,-108.23 108.91,-117.96"/>
<polygon fill="#757575" stroke="#757575" points="105.61,-116.8 105.23,-127.39 112.13,-119.34 105.61,-116.8"/>
</g>
<!-- pages/Results.tsx&#45;&gt;lib/sessionHooks.ts -->
<g id="edge80" class="edge">
<title>pages/Results.tsx&#45;&gt;lib/sessionHooks.ts</title>
<path fill="none" stroke="#757575" d="M132.71,-71.16C132.72,-71.15 132.73,-71.14 132.74,-71.13"/>
<polygon fill="#757575" stroke="#757575" points="126.97,-79.99 132.77,-71.11 122.7,-74.43 126.97,-79.99"/>
</g>
<!-- atoms/index.ts&#45;&gt;lib/types/supabase.ts -->
<g id="edge7" class="edge">
<title>atoms/index.ts&#45;&gt;lib/types/supabase.ts</title>
<path fill="none" stroke="#757575" d="M179.16,-76.14C179.18,-76.14 179.18,-76.14 179.19,-76.15"/>
<polygon fill="#757575" stroke="#757575" points="168.64,-75.27 179.21,-76.16 171.5,-68.87 168.64,-75.27"/>
</g>
<!-- components/ActiveGames.tsx&#45;&gt;lib/mutations.ts -->
<g id="edge8" class="edge">
<title>components/ActiveGames.tsx&#45;&gt;lib/mutations.ts</title>
<path fill="none" stroke="#757575" d="M165.07,-148.1C165.06,-148.12 165.05,-148.13 165.04,-148.14"/>
<polygon fill="#757575" stroke="#757575" points="167.83,-137.94 165.03,-148.17 173.6,-141.92 167.83,-137.94"/>
</g>
<!-- lib/mutations.ts&#45;&gt;lib/supabaseClient.ts -->
<g id="edge38" class="edge">
<title>lib/mutations.ts&#45;&gt;lib/supabaseClient.ts</title>
<path fill="none" stroke="#757575" d="M111.34,-140.47C111.29,-140.47 111.24,-140.46 111.19,-140.45"/>
<polygon fill="#757575" stroke="#757575" points="121.44,-138.4 111.05,-140.43 120.44,-145.32 121.44,-138.4"/>
</g>
<!-- lib/dailyTokenManager.ts -->
<g id="node38" class="node">
<title>lib/dailyTokenManager.ts</title>
<path fill="none" stroke="#c6c5fe" d="M231.84,-161.77C231.84,-161.77 82.17,-161.77 82.17,-161.77 78.34,-161.77 74.51,-157.93 74.51,-154.1 74.51,-154.1 74.51,-146.43 74.51,-146.43 74.51,-142.6 78.34,-138.77 82.17,-138.77 82.17,-138.77 231.84,-138.77 231.84,-138.77 235.67,-138.77 239.51,-142.6 239.51,-146.43 239.51,-146.43 239.51,-154.1 239.51,-154.1 239.51,-157.93 235.67,-161.77 231.84,-161.77"/>
<text text-anchor="middle" x="157.01" y="-146.57" font-family="Arial" font-size="14.00" fill="#c6c5fe">lib/dailyTokenManager.ts</text>
</g>
<!-- lib/mutations.ts&#45;&gt;lib/dailyTokenManager.ts -->
<g id="edge37" class="edge">
<title>lib/mutations.ts&#45;&gt;lib/dailyTokenManager.ts</title>
<path fill="none" stroke="#757575" d="M157.1,-150.24C157.08,-150.25 157.07,-150.25 157.06,-150.25"/>
<polygon fill="#757575" stroke="#757575" points="165.82,-144.34 157.03,-150.26 167.6,-151.12 165.82,-144.34"/>
</g>
<!-- lib/mutations.ts&#45;&gt;lib/types.ts -->
<g id="edge39" class="edge">
<title>lib/mutations.ts&#45;&gt;lib/types.ts</title>
<path fill="none" stroke="#757575" d="M147.02,-136.48C141.09,-132.61 134.36,-128.23 127.93,-124.05"/>
<polygon fill="#757575" stroke="#757575" points="129.75,-121.06 119.46,-118.53 125.93,-126.92 129.75,-121.06"/>
</g>
<!-- components/ChromaGrid.tsx -->
<g id="node13" class="node">
<title>components/ChromaGrid.tsx</title>
<path fill="none" stroke="#cfffac" d="M351.83,-23C351.83,-23 176.17,-23 176.17,-23 172.33,-23 168.5,-19.17 168.5,-15.33 168.5,-15.33 168.5,-7.67 168.5,-7.67 168.5,-3.83 172.33,0 176.17,0 176.17,0 351.83,0 351.83,0 355.67,0 359.5,-3.83 359.5,-7.67 359.5,-7.67 359.5,-15.33 359.5,-15.33 359.5,-19.17 355.67,-23 351.83,-23"/>
<text text-anchor="middle" x="264" y="-7.8" font-family="Arial" font-size="14.00" fill="#cfffac">components/ChromaGrid.tsx</text>
</g>
<!-- components/ChromaLogo.tsx -->
<g id="node14" class="node">
<title>components/ChromaLogo.tsx</title>
<path fill="none" stroke="#cfffac" d="M279.85,-119.47C279.85,-119.47 101.18,-119.47 101.18,-119.47 97.35,-119.47 93.51,-115.63 93.51,-111.8 93.51,-111.8 93.51,-104.13 93.51,-104.13 93.51,-100.3 97.35,-96.47 101.18,-96.47 101.18,-96.47 279.85,-96.47 279.85,-96.47 283.68,-96.47 287.51,-100.3 287.51,-104.13 287.51,-104.13 287.51,-111.8 287.51,-111.8 287.51,-115.63 283.68,-119.47 279.85,-119.47"/>
<text text-anchor="middle" x="190.51" y="-104.27" font-family="Arial" font-size="14.00" fill="#cfffac">components/ChromaLogo.tsx</text>
</g>
<!-- components/ControlsBar.tsx -->
<g id="node15" class="node">
<title>components/ControlsBar.tsx</title>
<path fill="none" stroke="#cfffac" d="M275.54,-89.52C275.54,-89.52 104.87,-89.52 104.87,-89.52 101.04,-89.52 97.2,-85.68 97.2,-81.85 97.2,-81.85 97.2,-74.18 97.2,-74.18 97.2,-70.35 101.04,-66.52 104.87,-66.52 104.87,-66.52 275.54,-66.52 275.54,-66.52 279.37,-66.52 283.2,-70.35 283.2,-74.18 283.2,-74.18 283.2,-81.85 283.2,-81.85 283.2,-85.68 279.37,-89.52 275.54,-89.52"/>
<text text-anchor="middle" x="190.2" y="-74.32" font-family="Arial" font-size="14.00" fill="#cfffac">components/ControlsBar.tsx</text>
</g>
<!-- components/DailyCallWrapper.tsx -->
<g id="node16" class="node">
<title>components/DailyCallWrapper.tsx</title>
<path fill="none" stroke="#c6c5fe" d="M241.62,-72.9C241.62,-72.9 36.96,-72.9 36.96,-72.9 33.12,-72.9 29.29,-69.07 29.29,-65.24 29.29,-65.24 29.29,-57.57 29.29,-57.57 29.29,-53.74 33.12,-49.9 36.96,-49.9 36.96,-49.9 241.62,-49.9 241.62,-49.9 245.46,-49.9 249.29,-53.74 249.29,-57.57 249.29,-57.57 249.29,-65.24 249.29,-65.24 249.29,-69.07 245.46,-72.9 241.62,-72.9"/>
<text text-anchor="middle" x="139.29" y="-57.7" font-family="Arial" font-size="14.00" fill="#c6c5fe">components/DailyCallWrapper.tsx</text>
</g>
<!-- lib/useDailyToken.ts -->
<g id="node17" class="node">
<title>lib/useDailyToken.ts</title>
<path fill="none" stroke="#c6c5fe" d="M201.13,-81.05C201.13,-81.05 80.46,-81.05 80.46,-81.05 76.63,-81.05 72.8,-77.21 72.8,-73.38 72.8,-73.38 72.8,-65.71 72.8,-65.71 72.8,-61.88 76.63,-58.05 80.46,-58.05 80.46,-58.05 201.13,-58.05 201.13,-58.05 204.96,-58.05 208.8,-61.88 208.8,-65.71 208.8,-65.71 208.8,-73.38 208.8,-73.38 208.8,-77.21 204.96,-81.05 201.13,-81.05"/>
<text text-anchor="middle" x="140.8" y="-65.85" font-family="Arial" font-size="14.00" fill="#c6c5fe">lib/useDailyToken.ts</text>
</g>
<!-- components/DailyCallWrapper.tsx&#45;&gt;lib/useDailyToken.ts -->
<g id="edge9" class="edge">
<title>components/DailyCallWrapper.tsx&#45;&gt;lib/useDailyToken.ts</title>
<path fill="none" stroke="#757575" d="M140.78,-69.46C140.78,-69.47 140.79,-69.48 140.79,-69.49"/>
<polygon fill="#757575" stroke="#757575" points="135.5,-60.34 140.79,-69.52 142.39,-59.04 135.5,-60.34"/>
</g>
<!-- lib/useDailyToken.ts&#45;&gt;atoms/index.ts -->
<g id="edge49" class="edge">
<title>lib/useDailyToken.ts&#45;&gt;atoms/index.ts</title>
<path fill="none" stroke="#757575" d="M156.76,-66.2C156.77,-66.2 156.78,-66.2 156.78,-66.2"/>
<polygon fill="#757575" stroke="#757575" points="147.74,-71.73 156.8,-66.2 146.27,-64.87 147.74,-71.73"/>
</g>
<!-- lib/useDailyToken.ts&#45;&gt;lib/mutations.ts -->
<g id="edge50" class="edge">
<title>lib/useDailyToken.ts&#45;&gt;lib/mutations.ts</title>
<path fill="none" stroke="#757575" d="M144.37,-81.15C148.05,-93.12 153.88,-112.05 158.41,-126.75"/>
<polygon fill="#757575" stroke="#757575" points="155.13,-128.01 161.42,-136.54 161.83,-125.95 155.13,-128.01"/>
</g>
<!-- components/DailyJoinButton.test.tsx -->
<g id="node18" class="node">
<title>components/DailyJoinButton.test.tsx</title>
<path fill="none" stroke="#c6c5fe" d="M257.64,-70.6C257.64,-70.6 37.97,-70.6 37.97,-70.6 34.14,-70.6 30.31,-66.77 30.31,-62.93 30.31,-62.93 30.31,-55.27 30.31,-55.27 30.31,-51.43 34.14,-47.6 37.97,-47.6 37.97,-47.6 257.64,-47.6 257.64,-47.6 261.47,-47.6 265.31,-51.43 265.31,-55.27 265.31,-55.27 265.31,-62.93 265.31,-62.93 265.31,-66.77 261.47,-70.6 257.64,-70.6"/>
<text text-anchor="middle" x="147.81" y="-55.4" font-family="Arial" font-size="14.00" fill="#c6c5fe">components/DailyJoinButton.test.tsx</text>
</g>
<!-- components/DailyJoinButton.tsx -->
<g id="node19" class="node">
<title>components/DailyJoinButton.tsx</title>
<path fill="none" stroke="#c6c5fe" d="M245.64,-78.61C245.64,-78.61 51.97,-78.61 51.97,-78.61 48.14,-78.61 44.3,-74.78 44.3,-70.94 44.3,-70.94 44.3,-63.28 44.3,-63.28 44.3,-59.44 48.14,-55.61 51.97,-55.61 51.97,-55.61 245.64,-55.61 245.64,-55.61 249.47,-55.61 253.3,-59.44 253.3,-63.28 253.3,-63.28 253.3,-70.94 253.3,-70.94 253.3,-74.78 249.47,-78.61 245.64,-78.61"/>
<text text-anchor="middle" x="148.8" y="-63.41" font-family="Arial" font-size="14.00" fill="#c6c5fe">components/DailyJoinButton.tsx</text>
</g>
<!-- components/DailyJoinButton.test.tsx&#45;&gt;components/DailyJoinButton.tsx -->
<g id="edge10" class="edge">
<title>components/DailyJoinButton.test.tsx&#45;&gt;components/DailyJoinButton.tsx</title>
<path fill="none" stroke="#757575" d="M148.79,-67.02C148.79,-67.03 148.79,-67.05 148.8,-67.06"/>
<polygon fill="#757575" stroke="#757575" points="144.06,-57.61 148.8,-67.09 151.01,-56.72 144.06,-57.61"/>
</g>
<!-- components/DailyJoinButton.tsx&#45;&gt;atoms/index.ts -->
<g id="edge11" class="edge">
<title>components/DailyJoinButton.tsx&#45;&gt;atoms/index.ts</title>
<path fill="none" stroke="#757575" d="M156.72,-66.2C156.73,-66.2 156.74,-66.2 156.76,-66.2"/>
<polygon fill="#757575" stroke="#757575" points="147.26,-70.84 156.78,-66.2 146.44,-63.89 147.26,-70.84"/>
</g>
<!-- components/DailyJoinButton.tsx&#45;&gt;lib/mutations.ts -->
<g id="edge12" class="edge">
<title>components/DailyJoinButton.tsx&#45;&gt;lib/mutations.ts</title>
<path fill="none" stroke="#757575" d="M151.12,-78.73C153.6,-91.13 157.59,-111.07 160.66,-126.41"/>
<polygon fill="#757575" stroke="#757575" points="157.3,-127.48 162.69,-136.6 164.16,-126.11 157.3,-127.48"/>
</g>
<!-- components/EnhancedLobby.tsx -->
<g id="node20" class="node">
<title>components/EnhancedLobby.tsx</title>
<path fill="none" stroke="#c6c5fe" d="M223.33,-164.26C223.33,-164.26 26.66,-164.26 26.66,-164.26 22.83,-164.26 19,-160.43 19,-156.59 19,-156.59 19,-148.93 19,-148.93 19,-145.09 22.83,-141.26 26.66,-141.26 26.66,-141.26 223.33,-141.26 223.33,-141.26 227.16,-141.26 231,-145.09 231,-148.93 231,-148.93 231,-156.59 231,-156.59 231,-160.43 227.16,-164.26 223.33,-164.26"/>
<text text-anchor="middle" x="125" y="-149.06" font-family="Arial" font-size="14.00" fill="#c6c5fe">components/EnhancedLobby.tsx</text>
</g>
<!-- lib/enhancedPresence.ts -->
<g id="node21" class="node">
<title>lib/enhancedPresence.ts</title>
<path fill="none" stroke="#c6c5fe" d="M207.33,-166.83C207.33,-166.83 58.66,-166.83 58.66,-166.83 54.83,-166.83 51,-163 51,-159.16 51,-159.16 51,-151.5 51,-151.5 51,-147.66 54.83,-143.83 58.66,-143.83 58.66,-143.83 207.33,-143.83 207.33,-143.83 211.16,-143.83 215,-147.66 215,-151.5 215,-151.5 215,-159.16 215,-159.16 215,-163 211.16,-166.83 207.33,-166.83"/>
<text text-anchor="middle" x="133" y="-151.63" font-family="Arial" font-size="14.00" fill="#c6c5fe">lib/enhancedPresence.ts</text>
</g>
<!-- components/EnhancedLobby.tsx&#45;&gt;lib/enhancedPresence.ts -->
<g id="edge13" class="edge">
<title>components/EnhancedLobby.tsx&#45;&gt;lib/enhancedPresence.ts</title>
<path fill="none" stroke="#757575" d="M132.91,-155.3C132.92,-155.31 132.94,-155.31 132.95,-155.31"/>
<polygon fill="#757575" stroke="#757575" points="122.37,-155.58 132.97,-155.32 124.53,-148.91 122.37,-155.58"/>
</g>
<!-- lib/enhancedRealtimeHooks.ts -->
<g id="node22" class="node">
<title>lib/enhancedRealtimeHooks.ts</title>
<path fill="none" stroke="#c6c5fe" d="M201.32,-157.15C201.32,-157.15 16.65,-157.15 16.65,-157.15 12.82,-157.15 8.99,-153.32 8.99,-149.49 8.99,-149.49 8.99,-141.82 8.99,-141.82 8.99,-137.99 12.82,-134.15 16.65,-134.15 16.65,-134.15 201.32,-134.15 201.32,-134.15 205.15,-134.15 208.99,-137.99 208.99,-141.82 208.99,-141.82 208.99,-149.49 208.99,-149.49 208.99,-153.32 205.15,-157.15 201.32,-157.15"/>
<text text-anchor="middle" x="108.99" y="-141.95" font-family="Arial" font-size="14.00" fill="#c6c5fe">lib/enhancedRealtimeHooks.ts</text>
</g>
<!-- components/EnhancedLobby.tsx&#45;&gt;lib/enhancedRealtimeHooks.ts -->
<g id="edge14" class="edge">
<title>components/EnhancedLobby.tsx&#45;&gt;lib/enhancedRealtimeHooks.ts</title>
<path fill="none" stroke="#757575" d="M109.03,-145.67C109.02,-145.67 109.02,-145.67 109.01,-145.66"/>
<polygon fill="#757575" stroke="#757575" points="119.58,-146.55 109,-145.66 116.71,-152.95 119.58,-146.55"/>
</g>
<!-- lib/enhancedPresence.ts&#45;&gt;lib/mutations.ts -->
<g id="edge30" class="edge">
<title>lib/enhancedPresence.ts&#45;&gt;lib/mutations.ts</title>
<path fill="none" stroke="#757575" d="M164.92,-148.21C164.93,-148.21 164.95,-148.21 164.96,-148.2"/>
<polygon fill="#757575" stroke="#757575" points="156,-153.82 164.99,-148.2 154.45,-146.98 156,-153.82"/>
</g>
<!-- lib/enhancedPresence.ts&#45;&gt;lib/supabaseClient.ts -->
<g id="edge31" class="edge">
<title>lib/enhancedPresence.ts&#45;&gt;lib/supabaseClient.ts</title>
<path fill="none" stroke="#757575" d="M110.23,-143.77C110.15,-143.73 110.07,-143.69 109.99,-143.65"/>
<polygon fill="#757575" stroke="#757575" points="120.24,-144.93 109.74,-143.52 117.07,-151.17 120.24,-144.93"/>
</g>
<!-- lib/enhancedRealtimeHooks.ts&#45;&gt;lib/supabaseClient.ts -->
<g id="edge32" class="edge">
<title>lib/enhancedRealtimeHooks.ts&#45;&gt;lib/supabaseClient.ts</title>
<path fill="none" stroke="#757575" d="M100.82,-139.02C100.8,-139.01 100.79,-139 100.78,-138.99"/>
<polygon fill="#757575" stroke="#757575" points="110.73,-142.56 100.75,-138.96 106.31,-148 110.73,-142.56"/>
</g>
<!-- lib/enhancedRealtimeHooks.ts&#45;&gt;lib/types.ts -->
<g id="edge33" class="edge">
<title>lib/enhancedRealtimeHooks.ts&#45;&gt;lib/types.ts</title>
<path fill="none" stroke="#757575" d="M106.75,-133.82C106.43,-132.17 106.1,-130.43 105.77,-128.67"/>
<polygon fill="#757575" stroke="#757575" points="109.18,-127.86 103.88,-118.69 102.3,-129.16 109.18,-127.86"/>
</g>
<!-- components/Flag.tsx -->
<g id="node23" class="node">
<title>components/Flag.tsx</title>
<path fill="none" stroke="#c6c5fe" d="M206.74,-239C206.74,-239 80.08,-239 80.08,-239 76.24,-239 72.41,-235.17 72.41,-231.33 72.41,-231.33 72.41,-223.67 72.41,-223.67 72.41,-219.83 76.24,-216 80.08,-216 80.08,-216 206.74,-216 206.74,-216 210.58,-216 214.41,-219.83 214.41,-223.67 214.41,-223.67 214.41,-231.33 214.41,-231.33 214.41,-235.17 210.58,-239 206.74,-239"/>
<text text-anchor="middle" x="143.41" y="-223.8" font-family="Arial" font-size="14.00" fill="#c6c5fe">components/Flag.tsx</text>
</g>
<!-- lib/flagIcons.ts -->
<g id="node24" class="node">
<title>lib/flagIcons.ts</title>
<path fill="none" stroke="#cfffac" d="M194.75,-239C194.75,-239 108.08,-239 108.08,-239 104.25,-239 100.41,-235.17 100.41,-231.33 100.41,-231.33 100.41,-223.67 100.41,-223.67 100.41,-219.83 104.25,-216 108.08,-216 108.08,-216 194.75,-216 194.75,-216 198.58,-216 202.41,-219.83 202.41,-223.67 202.41,-223.67 202.41,-231.33 202.41,-231.33 202.41,-235.17 198.58,-239 194.75,-239"/>
<text text-anchor="middle" x="151.41" y="-223.8" font-family="Arial" font-size="14.00" fill="#cfffac">lib/flagIcons.ts</text>
</g>
<!-- components/Flag.tsx&#45;&gt;lib/flagIcons.ts -->
<g id="edge15" class="edge">
<title>components/Flag.tsx&#45;&gt;lib/flagIcons.ts</title>
<path fill="none" stroke="#757575" d="M151.32,-227.5C151.34,-227.5 151.35,-227.5 151.36,-227.5"/>
<polygon fill="#757575" stroke="#757575" points="141.4,-231.04 151.39,-227.5 141.38,-224.04 141.4,-231.04"/>
</g>
<!-- components/LobbyStatus.tsx&#45;&gt;lib/supabaseClient.ts -->
<g id="edge16" class="edge">
<title>components/LobbyStatus.tsx&#45;&gt;lib/supabaseClient.ts</title>
<path fill="none" stroke="#757575" d="M99.3,-134.57C99.32,-134.65 99.35,-134.73 99.37,-134.8"/>
<polygon fill="#757575" stroke="#757575" points="93.01,-126.61 99.45,-135.03 99.67,-124.44 93.01,-126.61"/>
</g>
<!-- components/LogoSelector.tsx&#45;&gt;components/ChromaLogo.tsx -->
<g id="edge17" class="edge">
<title>components/LogoSelector.tsx&#45;&gt;components/ChromaLogo.tsx</title>
<path fill="none" stroke="#757575" d="M190.4,-107.97C190.41,-107.97 190.43,-107.97 190.45,-107.97"/>
<polygon fill="#757575" stroke="#757575" points="180.56,-111.69 190.48,-107.97 180.41,-104.69 180.56,-111.69"/>
</g>
<!-- components/LogoSelector.tsx&#45;&gt;lib/supabaseClient.ts -->
<g id="edge18" class="edge">
<title>components/LogoSelector.tsx&#45;&gt;lib/supabaseClient.ts</title>
<path fill="none" stroke="#757575" d="M149.97,-119.81C146.68,-121.09 143.28,-122.41 139.9,-123.72"/>
<polygon fill="#757575" stroke="#757575" points="138.5,-120.51 130.44,-127.4 141.03,-127.04 138.5,-120.51"/>
</g>
<!-- components/ParticipantTile.test.tsx -->
<g id="node29" class="node">
<title>components/ParticipantTile.test.tsx</title>
<path fill="none" stroke="#c6c5fe" d="M288.33,-111.67C288.33,-111.67 76.66,-111.67 76.66,-111.67 72.83,-111.67 68.99,-107.84 68.99,-104 68.99,-104 68.99,-96.34 68.99,-96.34 68.99,-92.5 72.83,-88.67 76.66,-88.67 76.66,-88.67 288.33,-88.67 288.33,-88.67 292.16,-88.67 295.99,-92.5 295.99,-96.34 295.99,-96.34 295.99,-104 295.99,-104 295.99,-107.84 292.16,-111.67 288.33,-111.67"/>
<text text-anchor="middle" x="182.49" y="-96.47" font-family="Arial" font-size="14.00" fill="#c6c5fe">components/ParticipantTile.test.tsx</text>
</g>
<!-- components/ParticipantTile.test.tsx&#45;&gt;lib/types/supabase.ts -->
<g id="edge20" class="edge">
<title>components/ParticipantTile.test.tsx&#45;&gt;lib/types/supabase.ts</title>
<path fill="none" stroke="#757575" d="M180.9,-88.45C180.89,-88.35 180.87,-88.26 180.86,-88.16"/>
<polygon fill="#757575" stroke="#757575" points="185.64,-97.31 180.82,-87.88 178.7,-98.26 185.64,-97.31"/>
</g>
<!-- components/ParticipantTile.tsx -->
<g id="node30" class="node">
<title>components/ParticipantTile.tsx</title>
<path fill="none" stroke="#c6c5fe" d="M280.55,-103.67C280.55,-103.67 94.88,-103.67 94.88,-103.67 91.05,-103.67 87.21,-99.84 87.21,-96 87.21,-96 87.21,-88.34 87.21,-88.34 87.21,-84.5 91.05,-80.67 94.88,-80.67 94.88,-80.67 280.55,-80.67 280.55,-80.67 284.38,-80.67 288.21,-84.5 288.21,-88.34 288.21,-88.34 288.21,-96 288.21,-96 288.21,-99.84 284.38,-103.67 280.55,-103.67"/>
<text text-anchor="middle" x="187.71" y="-88.47" font-family="Arial" font-size="14.00" fill="#c6c5fe">components/ParticipantTile.tsx</text>
</g>
<!-- components/ParticipantTile.test.tsx&#45;&gt;components/ParticipantTile.tsx -->
<g id="edge19" class="edge">
<title>components/ParticipantTile.test.tsx&#45;&gt;components/ParticipantTile.tsx</title>
<path fill="none" stroke="#757575" d="M187.65,-92.26C187.66,-92.25 187.67,-92.23 187.68,-92.22"/>
<polygon fill="#757575" stroke="#757575" points="185.15,-102.49 187.7,-92.19 179.29,-98.66 185.15,-102.49"/>
</g>
<!-- components/ParticipantTile.tsx&#45;&gt;lib/types/supabase.ts -->
<g id="edge21" class="edge">
<title>components/ParticipantTile.tsx&#45;&gt;lib/types/supabase.ts</title>
<path fill="none" stroke="#757575" d="M181.55,-80.54C181.51,-80.46 181.47,-80.38 181.43,-80.31"/>
<polygon fill="#757575" stroke="#757575" points="189.08,-87.28 181.3,-80.08 182.9,-90.56 189.08,-87.28"/>
</g>
<!-- components/PasswordModal.test.tsx -->
<g id="node31" class="node">
<title>components/PasswordModal.test.tsx</title>
<path fill="none" stroke="#c6c5fe" d="M303.13,-155.37C303.13,-155.37 80.46,-155.37 80.46,-155.37 76.63,-155.37 72.79,-151.53 72.79,-147.7 72.79,-147.7 72.79,-140.03 72.79,-140.03 72.79,-136.2 76.63,-132.37 80.46,-132.37 80.46,-132.37 303.13,-132.37 303.13,-132.37 306.96,-132.37 310.79,-136.2 310.79,-140.03 310.79,-140.03 310.79,-147.7 310.79,-147.7 310.79,-151.53 306.96,-155.37 303.13,-155.37"/>
<text text-anchor="middle" x="191.79" y="-140.17" font-family="Arial" font-size="14.00" fill="#c6c5fe">components/PasswordModal.test.tsx</text>
</g>
<!-- components/PasswordModal.test.tsx&#45;&gt;components/PasswordModal.tsx -->
<g id="edge22" class="edge">
<title>components/PasswordModal.test.tsx&#45;&gt;components/PasswordModal.tsx</title>
<path fill="none" stroke="#757575" d="M183.7,-138.19C183.69,-138.18 183.68,-138.17 183.66,-138.16"/>
<polygon fill="#757575" stroke="#757575" points="193.84,-141.03 183.64,-138.14 189.81,-146.76 193.84,-141.03"/>
</g>
<!-- components/TeamLogoPicker.test.tsx -->
<g id="node33" class="node">
<title>components/TeamLogoPicker.test.tsx</title>
<path fill="none" stroke="#c6c5fe" d="M474.51,-215C474.51,-215 247.84,-215 247.84,-215 244.01,-215 240.17,-211.17 240.17,-207.33 240.17,-207.33 240.17,-199.67 240.17,-199.67 240.17,-195.83 244.01,-192 247.84,-192 247.84,-192 474.51,-192 474.51,-192 478.34,-192 482.17,-195.83 482.17,-199.67 482.17,-199.67 482.17,-207.33 482.17,-207.33 482.17,-211.17 478.34,-215 474.51,-215"/>
<text text-anchor="middle" x="361.17" y="-199.8" font-family="Arial" font-size="14.00" fill="#c6c5fe">components/TeamLogoPicker.test.tsx</text>
</g>
<!-- components/TeamLogoPicker.tsx -->
<g id="node34" class="node">
<title>components/TeamLogoPicker.tsx</title>
<path fill="none" stroke="#cfffac" d="M469.51,-215C469.51,-215 268.84,-215 268.84,-215 265.01,-215 261.17,-211.17 261.17,-207.33 261.17,-207.33 261.17,-199.67 261.17,-199.67 261.17,-195.83 265.01,-192 268.84,-192 268.84,-192 469.51,-192 469.51,-192 473.34,-192 477.17,-195.83 477.17,-199.67 477.17,-199.67 477.17,-207.33 477.17,-207.33 477.17,-211.17 473.34,-215 469.51,-215"/>
<text text-anchor="middle" x="369.17" y="-199.8" font-family="Arial" font-size="14.00" fill="#cfffac">components/TeamLogoPicker.tsx</text>
</g>
<!-- components/TeamLogoPicker.test.tsx&#45;&gt;components/TeamLogoPicker.tsx -->
<g id="edge23" class="edge">
<title>components/TeamLogoPicker.test.tsx&#45;&gt;components/TeamLogoPicker.tsx</title>
<path fill="none" stroke="#757575" d="M369.08,-203.5C369.1,-203.5 369.11,-203.5 369.12,-203.5"/>
<polygon fill="#757575" stroke="#757575" points="359.16,-207.04 369.15,-203.5 359.14,-200.04 359.16,-207.04"/>
</g>
<!-- components/VideoCall.tsx&#45;&gt;lib/types/supabase.ts -->
<g id="edge26" class="edge">
<title>components/VideoCall.tsx&#45;&gt;lib/types/supabase.ts</title>
<path fill="none" stroke="#757575" d="M179.26,-76.25C179.26,-76.24 179.25,-76.23 179.25,-76.22"/>
<polygon fill="#757575" stroke="#757575" points="186.01,-84.35 179.24,-76.19 179.44,-86.79 186.01,-84.35"/>
</g>
<!-- components/VideoCall.tsx&#45;&gt;components/ControlsBar.tsx -->
<g id="edge24" class="edge">
<title>components/VideoCall.tsx&#45;&gt;components/ControlsBar.tsx</title>
<path fill="none" stroke="#757575" d="M190.11,-78.09C190.13,-78.08 190.14,-78.07 190.15,-78.06"/>
<polygon fill="#757575" stroke="#757575" points="184.38,-86.91 190.18,-78.04 180.11,-81.36 184.38,-86.91"/>
</g>
<!-- components/VideoCall.tsx&#45;&gt;components/ParticipantTile.tsx -->
<g id="edge25" class="edge">
<title>components/VideoCall.tsx&#45;&gt;components/ParticipantTile.tsx</title>
<path fill="none" stroke="#757575" d="M187.65,-92.08C187.66,-92.09 187.67,-92.11 187.68,-92.12"/>
<polygon fill="#757575" stroke="#757575" points="179.12,-85.91 187.7,-92.15 184.88,-81.92 179.12,-85.91"/>
</g>
<!-- index.css -->
<g id="node36" class="node">
<title>index.css</title>
<path fill="none" stroke="#cfffac" d="M131.8,-81.21C131.8,-81.21 74.14,-81.21 74.14,-81.21 70.3,-81.21 66.47,-77.37 66.47,-73.54 66.47,-73.54 66.47,-65.87 66.47,-65.87 66.47,-62.04 70.3,-58.21 74.14,-58.21 74.14,-58.21 131.8,-58.21 131.8,-58.21 135.64,-58.21 139.47,-62.04 139.47,-65.87 139.47,-65.87 139.47,-73.54 139.47,-73.54 139.47,-77.37 135.64,-81.21 131.8,-81.21"/>
<text text-anchor="middle" x="102.97" y="-66.01" font-family="Arial" font-size="14.00" fill="#cfffac">index.css</text>
</g>
<!-- lib/createSession.test.ts -->
<g id="node37" class="node">
<title>lib/createSession.test.ts</title>
<path fill="none" stroke="#c6c5fe" d="M220.84,-165.41C220.84,-165.41 77.17,-165.41 77.17,-165.41 73.34,-165.41 69.51,-161.57 69.51,-157.74 69.51,-157.74 69.51,-150.07 69.51,-150.07 69.51,-146.24 73.34,-142.41 77.17,-142.41 77.17,-142.41 220.84,-142.41 220.84,-142.41 224.67,-142.41 228.51,-146.24 228.51,-150.07 228.51,-150.07 228.51,-157.74 228.51,-157.74 228.51,-161.57 224.67,-165.41 220.84,-165.41"/>
<text text-anchor="middle" x="149.01" y="-150.21" font-family="Arial" font-size="14.00" fill="#c6c5fe">lib/createSession.test.ts</text>
</g>
<!-- lib/createSession.test.ts&#45;&gt;lib/mutations.ts -->
<g id="edge27" class="edge">
<title>lib/createSession.test.ts&#45;&gt;lib/mutations.ts</title>
<path fill="none" stroke="#757575" d="M164.96,-148.21C164.97,-148.21 164.98,-148.2 164.98,-148.2"/>
<polygon fill="#757575" stroke="#757575" points="156.77,-154.9 165,-148.2 154.38,-148.3 156.77,-154.9"/>
</g>
<!-- lib/createSession.test.ts&#45;&gt;lib/supabaseClient.ts -->
<g id="edge28" class="edge">
<title>lib/createSession.test.ts&#45;&gt;lib/supabaseClient.ts</title>
<path fill="none" stroke="#757575" d="M111.44,-142.27C111.39,-142.25 111.34,-142.24 111.3,-142.22"/>
<polygon fill="#757575" stroke="#757575" points="121.74,-141.8 111.15,-142.18 119.66,-148.48 121.74,-141.8"/>
</g>
<!-- lib/dailyTokenManager.ts&#45;&gt;lib/types.ts -->
<g id="edge29" class="edge">
<title>lib/dailyTokenManager.ts&#45;&gt;lib/types.ts</title>
<path fill="none" stroke="#757575" d="M142.17,-138.65C136.84,-134.48 130.68,-129.66 124.81,-125.06"/>
<polygon fill="#757575" stroke="#757575" points="126.56,-121.98 116.53,-118.58 122.24,-127.5 126.56,-121.98"/>
</g>
<!-- lib/types/index.ts -->
<g id="node46" class="node">
<title>lib/types/index.ts</title>
<path fill="none" stroke="#c6c5fe" d="M223.15,-79.66C223.15,-79.66 122.48,-79.66 122.48,-79.66 118.65,-79.66 114.81,-75.83 114.81,-71.99 114.81,-71.99 114.81,-64.33 114.81,-64.33 114.81,-60.49 118.65,-56.66 122.48,-56.66 122.48,-56.66 223.15,-56.66 223.15,-56.66 226.98,-56.66 230.81,-60.49 230.81,-64.33 230.81,-64.33 230.81,-71.99 230.81,-71.99 230.81,-75.83 226.98,-79.66 223.15,-79.66"/>
<text text-anchor="middle" x="172.81" y="-64.46" font-family="Arial" font-size="14.00" fill="#c6c5fe">lib/types/index.ts</text>
</g>
<!-- lib/types.ts&#45;&gt;lib/types/index.ts -->
<g id="edge47" class="edge">
<title>lib/types.ts&#45;&gt;lib/types/index.ts</title>
<path fill="none" stroke="#757575" d="M123,-95.3C129.06,-92 135.76,-88.35 142.25,-84.82"/>
<polygon fill="#757575" stroke="#757575" points="144.37,-87.64 151.48,-79.79 141.02,-81.5 144.37,-87.64"/>
</g>
<!-- lib/mutations.test.ts -->
<g id="node40" class="node">
<title>lib/mutations.test.ts</title>
<path fill="none" stroke="#c6c5fe" d="M175.82,-162C175.82,-162 58.16,-162 58.16,-162 54.32,-162 50.49,-158.17 50.49,-154.34 50.49,-154.34 50.49,-146.67 50.49,-146.67 50.49,-142.84 54.32,-139 58.16,-139 58.16,-139 175.82,-139 175.82,-139 179.66,-139 183.49,-142.84 183.49,-146.67 183.49,-146.67 183.49,-154.34 183.49,-154.34 183.49,-158.17 179.66,-162 175.82,-162"/>
<text text-anchor="middle" x="116.99" y="-146.8" font-family="Arial" font-size="14.00" fill="#c6c5fe">lib/mutations.test.ts</text>
</g>
<!-- lib/mutations.test.ts&#45;&gt;lib/mutations.ts -->
<g id="edge34" class="edge">
<title>lib/mutations.test.ts&#45;&gt;lib/mutations.ts</title>
<path fill="none" stroke="#757575" d="M164.87,-148.2C164.89,-148.2 164.91,-148.2 164.93,-148.2"/>
<polygon fill="#757575" stroke="#757575" points="155.16,-152.19 164.97,-148.19 154.81,-145.2 155.16,-152.19"/>
</g>
<!-- lib/mutations.test.ts&#45;&gt;lib/supabaseClient.ts -->
<g id="edge35" class="edge">
<title>lib/mutations.test.ts&#45;&gt;lib/supabaseClient.ts</title>
<path fill="none" stroke="#757575" d="M100.77,-138.98C100.77,-138.97 100.76,-138.97 100.75,-138.96"/>
<polygon fill="#757575" stroke="#757575" points="110.94,-141.91 100.74,-138.95 106.86,-147.63 110.94,-141.91"/>
</g>
<!-- lib/mutations.test.ts&#45;&gt;lib/types.ts -->
<g id="edge36" class="edge">
<title>lib/mutations.test.ts&#45;&gt;lib/types.ts</title>
<path fill="none" stroke="#757575" d="M112.8,-138.6C111.66,-135.38 110.4,-131.79 109.14,-128.22"/>
<polygon fill="#757575" stroke="#757575" points="112.35,-126.79 105.73,-118.52 105.75,-129.12 112.35,-126.79"/>
</g>
<!-- lib/mutations.validation.ts -->
<g id="node41" class="node">
<title>lib/mutations.validation.ts</title>
<path fill="none" stroke="#cfffac" d="M448.33,-263C448.33,-263 295.67,-263 295.67,-263 291.83,-263 288,-259.17 288,-255.33 288,-255.33 288,-247.67 288,-247.67 288,-243.83 291.83,-240 295.67,-240 295.67,-240 448.33,-240 448.33,-240 452.17,-240 456,-243.83 456,-247.67 456,-247.67 456,-255.33 456,-255.33 456,-259.17 452.17,-263 448.33,-263"/>
<text text-anchor="middle" x="372" y="-247.8" font-family="Arial" font-size="14.00" fill="#cfffac">lib/mutations.validation.ts</text>
</g>
<!-- lib/presence.ts&#45;&gt;lib/mutations.ts -->
<g id="edge40" class="edge">
<title>lib/presence.ts&#45;&gt;lib/mutations.ts</title>
<path fill="none" stroke="#757575" d="M142.24,-142.45C142.29,-142.46 142.34,-142.47 142.38,-142.49"/>
<polygon fill="#757575" stroke="#757575" points="131.98,-143.47 142.53,-142.52 133.69,-136.68 131.98,-143.47"/>
</g>
<!-- lib/presence.ts&#45;&gt;lib/supabaseClient.ts -->
<g id="edge41" class="edge">
<title>lib/presence.ts&#45;&gt;lib/supabaseClient.ts</title>
<path fill="none" stroke="#757575" d="M100.68,-138.86C100.69,-138.87 100.69,-138.88 100.7,-138.89"/>
<polygon fill="#757575" stroke="#757575" points="93.02,-131.62 100.71,-138.92 99.25,-128.42 93.02,-131.62"/>
</g>
<!-- lib/realtimeHooks.ts&#45;&gt;lib/supabaseClient.ts -->
<g id="edge42" class="edge">
<title>lib/realtimeHooks.ts&#45;&gt;lib/supabaseClient.ts</title>
<path fill="none" stroke="#757575" d="M102.67,-110.72C102.53,-112.77 102.38,-114.97 102.22,-117.19"/>
<polygon fill="#757575" stroke="#757575" points="98.72,-117.16 101.52,-127.38 105.7,-117.64 98.72,-117.16"/>
</g>
<!-- lib/realtimeHooks.ts&#45;&gt;lib/types.ts -->
<g id="edge43" class="edge">
<title>lib/realtimeHooks.ts&#45;&gt;lib/types.ts</title>
<path fill="none" stroke="#757575" d="M101.67,-106.84C101.67,-106.86 101.67,-106.87 101.66,-106.88"/>
<polygon fill="#757575" stroke="#757575" points="100.5,-96.37 101.66,-106.91 107.32,-97.95 100.5,-96.37"/>
</g>
<!-- lib/sessionCode.test.ts -->
<g id="node44" class="node">
<title>lib/sessionCode.test.ts</title>
<path fill="none" stroke="#c6c5fe" d="M209.33,-167.04C209.33,-167.04 72.67,-167.04 72.67,-167.04 68.83,-167.04 65,-163.21 65,-159.37 65,-159.37 65,-151.71 65,-151.71 65,-147.87 68.83,-144.04 72.67,-144.04 72.67,-144.04 209.33,-144.04 209.33,-144.04 213.17,-144.04 217,-147.87 217,-151.71 217,-151.71 217,-159.37 217,-159.37 217,-163.21 213.17,-167.04 209.33,-167.04"/>
<text text-anchor="middle" x="141" y="-151.84" font-family="Arial" font-size="14.00" fill="#c6c5fe">lib/sessionCode.test.ts</text>
</g>
<!-- lib/sessionCode.test.ts&#45;&gt;lib/mutations.ts -->
<g id="edge44" class="edge">
<title>lib/sessionCode.test.ts&#45;&gt;lib/mutations.ts</title>
<path fill="none" stroke="#757575" d="M164.94,-148.21C164.95,-148.21 164.96,-148.21 164.97,-148.2"/>
<polygon fill="#757575" stroke="#757575" points="156.46,-154.5 164.99,-148.2 154.39,-147.81 156.46,-154.5"/>
</g>
<!-- lib/sessionCode.test.ts&#45;&gt;lib/supabaseClient.ts -->
<g id="edge45" class="edge">
<title>lib/sessionCode.test.ts&#45;&gt;lib/supabaseClient.ts</title>
<path fill="none" stroke="#757575" d="M113.03,-144.01C112.98,-143.99 112.92,-143.97 112.87,-143.95"/>
<polygon fill="#757575" stroke="#757575" points="123.29,-144.46 112.71,-143.88 120.62,-150.93 123.29,-144.46"/>
</g>
<!-- lib/sessionHooks.ts&#45;&gt;lib/supabaseClient.ts -->
<g id="edge46" class="edge">
<title>lib/sessionHooks.ts&#45;&gt;lib/supabaseClient.ts</title>
<path fill="none" stroke="#757575" d="M127.36,-82.6C122.78,-92.29 116.11,-106.39 110.59,-118.07"/>
<polygon fill="#757575" stroke="#757575" points="107.41,-116.61 106.3,-127.15 113.74,-119.6 107.41,-116.61"/>
</g>
<!-- lib/types/index.ts&#45;&gt;lib/types/supabase.ts -->
<g id="edge48" class="edge">
<title>lib/types/index.ts&#45;&gt;lib/types/supabase.ts</title>
<path fill="none" stroke="#757575" d="M179.16,-76.07C179.17,-76.09 179.18,-76.1 179.19,-76.11"/>
<polygon fill="#757575" stroke="#757575" points="170.21,-70.53 179.21,-76.14 175.68,-66.14 170.21,-70.53"/>
</g>
<!-- lib/userSession.ts -->
<g id="node47" class="node">
<title>lib/userSession.ts</title>
<path fill="none" stroke="#c6c5fe" d="M146.98,-117.17C146.98,-117.17 40.31,-117.17 40.31,-117.17 36.48,-117.17 32.64,-113.34 32.64,-109.5 32.64,-109.5 32.64,-101.84 32.64,-101.84 32.64,-98 36.48,-94.17 40.31,-94.17 40.31,-94.17 146.98,-94.17 146.98,-94.17 150.81,-94.17 154.64,-98 154.64,-101.84 154.64,-101.84 154.64,-109.5 154.64,-109.5 154.64,-113.34 150.81,-117.17 146.98,-117.17"/>
<text text-anchor="middle" x="93.64" y="-101.97" font-family="Arial" font-size="14.00" fill="#c6c5fe">lib/userSession.ts</text>
</g>
<!-- lib/userSession.ts&#45;&gt;lib/types.ts -->
<g id="edge51" class="edge">
<title>lib/userSession.ts&#45;&gt;lib/types.ts</title>
<path fill="none" stroke="#757575" d="M101.56,-106.92C101.58,-106.92 101.59,-106.92 101.6,-106.92"/>
<polygon fill="#757575" stroke="#757575" points="91.2,-108.8 101.63,-106.93 92.3,-101.89 91.2,-108.8"/>
</g>
<!-- main.tsx -->
<g id="node48" class="node">
<title>main.tsx</title>
<path fill="none" stroke="#c6c5fe" d="M137.45,-88.5C137.45,-88.5 84.78,-88.5 84.78,-88.5 80.95,-88.5 77.11,-84.66 77.11,-80.83 77.11,-80.83 77.11,-73.16 77.11,-73.16 77.11,-69.33 80.95,-65.5 84.78,-65.5 84.78,-65.5 137.45,-65.5 137.45,-65.5 141.28,-65.5 145.11,-69.33 145.11,-73.16 145.11,-73.16 145.11,-80.83 145.11,-80.83 145.11,-84.66 141.28,-88.5 137.45,-88.5"/>
<text text-anchor="middle" x="111.11" y="-73.3" font-family="Arial" font-size="14.00" fill="#c6c5fe">main.tsx</text>
</g>
<!-- main.tsx&#45;&gt;App.tsx -->
<g id="edge52" class="edge">
<title>main.tsx&#45;&gt;App.tsx</title>
<path fill="none" stroke="#757575" d="M119.4,-85.14C119.41,-85.15 119.42,-85.17 119.44,-85.18"/>
<polygon fill="#757575" stroke="#757575" points="109.87,-80.69 119.47,-85.21 114.78,-75.69 109.87,-80.69"/>
</g>
<!-- main.tsx&#45;&gt;index.css -->
<g id="edge53" class="edge">
<title>main.tsx&#45;&gt;index.css</title>
<path fill="none" stroke="#757575" d="M103.06,-69.79C103.05,-69.78 103.03,-69.76 103.02,-69.75"/>
<polygon fill="#757575" stroke="#757575" points="112.79,-73.8 102.99,-69.73 108.11,-79.02 112.79,-73.8"/>
</g>
<!-- setupTests.ts -->
<g id="node49" class="node">
<title>setupTests.ts</title>
<path fill="none" stroke="#cfffac" d="M135.83,-23C135.83,-23 56.17,-23 56.17,-23 52.33,-23 48.5,-19.17 48.5,-15.33 48.5,-15.33 48.5,-7.67 48.5,-7.67 48.5,-3.83 52.33,0 56.17,0 56.17,0 135.83,0 135.83,0 139.67,0 143.5,-3.83 143.5,-7.67 143.5,-7.67 143.5,-15.33 143.5,-15.33 143.5,-19.17 139.67,-23 135.83,-23"/>
<text text-anchor="middle" x="96" y="-7.8" font-family="Arial" font-size="14.00" fill="#cfffac">setupTests.ts</text>
</g>
</g>
</svg>
