<?xml version="1.0" encoding="UTF-8" standalone="no"?>
<!DOCTYPE svg PUBLIC "-//W3C//DTD SVG 1.1//EN"
 "http://www.w3.org/Graphics/SVG/1.1/DTD/svg11.dtd">
<!-- Generated by graphviz version 2.43.0 (0)
 -->
<!-- Title: G Pages: 1 -->
<svg width="406pt" height="197pt"
 viewBox="0.00 0.00 406.42 196.56" xmlns="http://www.w3.org/2000/svg" xmlns:xlink="http://www.w3.org/1999/xlink">
<g id="graph0" class="graph" transform="scale(1 1) rotate(0) translate(21.6 174.96)">
<title>G</title>
<polygon fill="#111111" stroke="transparent" points="-21.6,21.6 -21.6,-174.96 384.82,-174.96 384.82,21.6 -21.6,21.6"/>
<!-- App.tsx -->
<g id="node1" class="node">
<title>App.tsx</title>
<path fill="none" stroke="#c6c5fe" d="M138.18,-48.09C138.18,-48.09 91.52,-48.09 91.52,-48.09 87.68,-48.09 83.85,-44.26 83.85,-40.43 83.85,-40.43 83.85,-32.76 83.85,-32.76 83.85,-28.93 87.68,-25.09 91.52,-25.09 91.52,-25.09 138.18,-25.09 138.18,-25.09 142.02,-25.09 145.85,-28.93 145.85,-32.76 145.85,-32.76 145.85,-40.43 145.85,-40.43 145.85,-44.26 142.02,-48.09 138.18,-48.09"/>
<text text-anchor="middle" x="114.85" y="-32.89" font-family="Arial" font-size="14.00" fill="#c6c5fe">App.tsx</text>
</g>
<!-- pages/GameSetup.tsx -->
<g id="node2" class="node">
<title>pages/GameSetup.tsx</title>
<path fill="none" stroke="#c6c5fe" d="M225.23,-37.71C225.23,-37.71 88.57,-37.71 88.57,-37.71 84.73,-37.71 80.9,-33.87 80.9,-30.04 80.9,-30.04 80.9,-22.37 80.9,-22.37 80.9,-18.54 84.73,-14.71 88.57,-14.71 88.57,-14.71 225.23,-14.71 225.23,-14.71 229.07,-14.71 232.9,-18.54 232.9,-22.37 232.9,-22.37 232.9,-30.04 232.9,-30.04 232.9,-33.87 229.07,-37.71 225.23,-37.71"/>
<text text-anchor="middle" x="156.9" y="-22.51" font-family="Arial" font-size="14.00" fill="#c6c5fe">pages/GameSetup.tsx</text>
</g>
<!-- App.tsx&#45;&gt;pages/GameSetup.tsx -->
<g id="edge1" class="edge">
<title>App.tsx&#45;&gt;pages/GameSetup.tsx</title>
<path fill="none" stroke="#757575" d="M145.85,-28.94C145.9,-28.92 145.95,-28.91 146,-28.9"/>
<polygon fill="#757575" stroke="#757575" points="137.28,-34.66 146.15,-28.86 135.6,-27.87 137.28,-34.66"/>
</g>
<!-- pages/Homepage.tsx -->
<g id="node3" class="node">
<title>pages/Homepage.tsx</title>
<path fill="none" stroke="#c6c5fe" d="M191.67,-82.42C191.67,-82.42 62.01,-82.42 62.01,-82.42 58.17,-82.42 54.34,-78.59 54.34,-74.75 54.34,-74.75 54.34,-67.09 54.34,-67.09 54.34,-63.25 58.17,-59.42 62.01,-59.42 62.01,-59.42 191.67,-59.42 191.67,-59.42 195.51,-59.42 199.34,-63.25 199.34,-67.09 199.34,-67.09 199.34,-74.75 199.34,-74.75 199.34,-78.59 195.51,-82.42 191.67,-82.42"/>
<text text-anchor="middle" x="126.84" y="-67.22" font-family="Arial" font-size="14.00" fill="#c6c5fe">pages/Homepage.tsx</text>
</g>
<!-- App.tsx&#45;&gt;pages/Homepage.tsx -->
<g id="edge2" class="edge">
<title>App.tsx&#45;&gt;pages/Homepage.tsx</title>
<path fill="none" stroke="#757575" d="M118.91,-48.22C119.06,-48.66 119.22,-49.12 119.38,-49.57"/>
<polygon fill="#757575" stroke="#757575" points="116.18,-51.02 122.78,-59.31 122.79,-48.72 116.18,-51.02"/>
</g>
<!-- pages/Join.tsx -->
<g id="node4" class="node">
<title>pages/Join.tsx</title>
<path fill="none" stroke="#c6c5fe" d="M161.67,-37.8C161.67,-37.8 74,-37.8 74,-37.8 70.17,-37.8 66.34,-33.97 66.34,-30.14 66.34,-30.14 66.34,-22.47 66.34,-22.47 66.34,-18.64 70.17,-14.8 74,-14.8 74,-14.8 161.67,-14.8 161.67,-14.8 165.5,-14.8 169.34,-18.64 169.34,-22.47 169.34,-22.47 169.34,-30.14 169.34,-30.14 169.34,-33.97 165.5,-37.8 161.67,-37.8"/>
<text text-anchor="middle" x="117.84" y="-22.6" font-family="Arial" font-size="14.00" fill="#c6c5fe">pages/Join.tsx</text>
</g>
<!-- App.tsx&#45;&gt;pages/Join.tsx -->
<g id="edge3" class="edge">
<title>App.tsx&#45;&gt;pages/Join.tsx</title>
<path fill="none" stroke="#757575" d="M117.8,-26.42C117.81,-26.4 117.81,-26.38 117.82,-26.37"/>
<polygon fill="#757575" stroke="#757575" points="118.38,-36.92 117.83,-26.33 111.66,-34.95 118.38,-36.92"/>
</g>
<!-- pages/Lobby.tsx -->
<g id="node5" class="node">
<title>pages/Lobby.tsx</title>
<path fill="none" stroke="#c6c5fe" d="M159.02,-57.46C159.02,-57.46 60.36,-57.46 60.36,-57.46 56.52,-57.46 52.69,-53.63 52.69,-49.79 52.69,-49.79 52.69,-42.13 52.69,-42.13 52.69,-38.29 56.52,-34.46 60.36,-34.46 60.36,-34.46 159.02,-34.46 159.02,-34.46 162.86,-34.46 166.69,-38.29 166.69,-42.13 166.69,-42.13 166.69,-49.79 166.69,-49.79 166.69,-53.63 162.86,-57.46 159.02,-57.46"/>
<text text-anchor="middle" x="109.69" y="-42.26" font-family="Arial" font-size="14.00" fill="#c6c5fe">pages/Lobby.tsx</text>
</g>
<!-- App.tsx&#45;&gt;pages/Lobby.tsx -->
<g id="edge4" class="edge">
<title>App.tsx&#45;&gt;pages/Lobby.tsx</title>
<path fill="none" stroke="#757575" d="M109.75,-45.85C109.74,-45.87 109.73,-45.89 109.72,-45.9"/>
<polygon fill="#757575" stroke="#757575" points="111.48,-35.48 109.7,-45.93 117.61,-38.86 111.48,-35.48"/>
</g>
<!-- pages/Quiz.tsx -->
<g id="node6" class="node">
<title>pages/Quiz.tsx</title>
<path fill="none" stroke="#c6c5fe" d="M202.73,-77.04C202.73,-77.04 111.07,-77.04 111.07,-77.04 107.23,-77.04 103.4,-73.21 103.4,-69.37 103.4,-69.37 103.4,-61.71 103.4,-61.71 103.4,-57.87 107.23,-54.04 111.07,-54.04 111.07,-54.04 202.73,-54.04 202.73,-54.04 206.57,-54.04 210.4,-57.87 210.4,-61.71 210.4,-61.71 210.4,-69.37 210.4,-69.37 210.4,-73.21 206.57,-77.04 202.73,-77.04"/>
<text text-anchor="middle" x="156.9" y="-61.84" font-family="Arial" font-size="14.00" fill="#c6c5fe">pages/Quiz.tsx</text>
</g>
<!-- App.tsx&#45;&gt;pages/Quiz.tsx -->
<g id="edge5" class="edge">
<title>App.tsx&#45;&gt;pages/Quiz.tsx</title>
<path fill="none" stroke="#757575" d="M131.95,-48.37C132.12,-48.48 132.28,-48.6 132.45,-48.71"/>
<polygon fill="#757575" stroke="#757575" points="129.73,-51.08 139.95,-53.87 133.7,-45.32 129.73,-51.08"/>
</g>
<!-- pages/Results.tsx -->
<g id="node7" class="node">
<title>pages/Results.tsx</title>
<path fill="none" stroke="#c6c5fe" d="M171.46,-76.96C171.46,-76.96 63.79,-76.96 63.79,-76.96 59.96,-76.96 56.12,-73.13 56.12,-69.3 56.12,-69.3 56.12,-61.63 56.12,-61.63 56.12,-57.8 59.96,-53.96 63.79,-53.96 63.79,-53.96 171.46,-53.96 171.46,-53.96 175.29,-53.96 179.12,-57.8 179.12,-61.63 179.12,-61.63 179.12,-69.3 179.12,-69.3 179.12,-73.13 175.29,-76.96 171.46,-76.96"/>
<text text-anchor="middle" x="117.62" y="-61.76" font-family="Arial" font-size="14.00" fill="#c6c5fe">pages/Results.tsx</text>
</g>
<!-- App.tsx&#45;&gt;pages/Results.tsx -->
<g id="edge6" class="edge">
<title>App.tsx&#45;&gt;pages/Results.tsx</title>
<path fill="none" stroke="#757575" d="M115.98,-48.34C115.99,-48.45 116,-48.56 116.01,-48.67"/>
<polygon fill="#757575" stroke="#757575" points="112.05,-44.02 116.49,-53.64 119.01,-43.35 112.05,-44.02"/>
</g>
<!-- lib/mutations.ts -->
<g id="node9" class="node">
<title>lib/mutations.ts</title>
<path fill="none" stroke="#c6c5fe" d="M193.73,-83.01C193.73,-83.01 102.06,-83.01 102.06,-83.01 98.23,-83.01 94.39,-79.18 94.39,-75.34 94.39,-75.34 94.39,-67.68 94.39,-67.68 94.39,-63.84 98.23,-60.01 102.06,-60.01 102.06,-60.01 193.73,-60.01 193.73,-60.01 197.56,-60.01 201.39,-63.84 201.39,-67.68 201.39,-67.68 201.39,-75.34 201.39,-75.34 201.39,-79.18 197.56,-83.01 193.73,-83.01"/>
<text text-anchor="middle" x="147.89" y="-67.81" font-family="Arial" font-size="14.00" fill="#c6c5fe">lib/mutations.ts</text>
</g>
<!-- pages/GameSetup.tsx&#45;&gt;lib/mutations.ts -->
<g id="edge25" class="edge">
<title>pages/GameSetup.tsx&#45;&gt;lib/mutations.ts</title>
<path fill="none" stroke="#757575" d="M154.53,-38.11C153.83,-41.68 153.02,-45.7 152.23,-49.7"/>
<polygon fill="#757575" stroke="#757575" points="148.73,-49.35 150.21,-59.84 155.6,-50.72 148.73,-49.35"/>
</g>
<!-- components/LobbyStatus.tsx -->
<g id="node10" class="node">
<title>components/LobbyStatus.tsx</title>
<path fill="none" stroke="#c6c5fe" d="M235.7,-31.81C235.7,-31.81 60.04,-31.81 60.04,-31.81 56.2,-31.81 52.37,-27.98 52.37,-24.14 52.37,-24.14 52.37,-16.48 52.37,-16.48 52.37,-12.64 56.2,-8.81 60.04,-8.81 60.04,-8.81 235.7,-8.81 235.7,-8.81 239.54,-8.81 243.37,-12.64 243.37,-16.48 243.37,-16.48 243.37,-24.14 243.37,-24.14 243.37,-27.98 239.54,-31.81 235.7,-31.81"/>
<text text-anchor="middle" x="147.87" y="-16.61" font-family="Arial" font-size="14.00" fill="#c6c5fe">components/LobbyStatus.tsx</text>
</g>
<!-- pages/GameSetup.tsx&#45;&gt;components/LobbyStatus.tsx -->
<g id="edge24" class="edge">
<title>pages/GameSetup.tsx&#45;&gt;components/LobbyStatus.tsx</title>
<path fill="none" stroke="#757575" d="M147.97,-20.38C147.95,-20.36 147.94,-20.36 147.93,-20.35"/>
<polygon fill="#757575" stroke="#757575" points="158.19,-22.87 147.9,-20.33 154.35,-28.74 158.19,-22.87"/>
</g>
<!-- lib/supabaseClient.ts -->
<g id="node11" class="node">
<title>lib/supabaseClient.ts</title>
<path fill="none" stroke="#cfffac" d="M200.05,-31.01C200.05,-31.01 74.39,-31.01 74.39,-31.01 70.55,-31.01 66.72,-27.17 66.72,-23.34 66.72,-23.34 66.72,-15.67 66.72,-15.67 66.72,-11.84 70.55,-8.01 74.39,-8.01 74.39,-8.01 200.05,-8.01 200.05,-8.01 203.89,-8.01 207.72,-11.84 207.72,-15.67 207.72,-15.67 207.72,-23.34 207.72,-23.34 207.72,-27.17 203.89,-31.01 200.05,-31.01"/>
<text text-anchor="middle" x="137.22" y="-15.81" font-family="Arial" font-size="14.00" fill="#cfffac">lib/supabaseClient.ts</text>
</g>
<!-- pages/GameSetup.tsx&#45;&gt;lib/supabaseClient.ts -->
<g id="edge26" class="edge">
<title>pages/GameSetup.tsx&#45;&gt;lib/supabaseClient.ts</title>
<path fill="none" stroke="#757575" d="M137.28,-19.53C137.27,-19.52 137.26,-19.52 137.25,-19.52"/>
<polygon fill="#757575" stroke="#757575" points="147.84,-19.46 137.23,-19.51 145.56,-26.08 147.84,-19.46"/>
</g>
<!-- lib/types.ts -->
<g id="node16" class="node">
<title>lib/types.ts</title>
<path fill="none" stroke="#c6c5fe" d="M195.92,-57.36C195.92,-57.36 131.26,-57.36 131.26,-57.36 127.42,-57.36 123.59,-53.53 123.59,-49.69 123.59,-49.69 123.59,-42.03 123.59,-42.03 123.59,-38.19 127.42,-34.36 131.26,-34.36 131.26,-34.36 195.92,-34.36 195.92,-34.36 199.76,-34.36 203.59,-38.19 203.59,-42.03 203.59,-42.03 203.59,-49.69 203.59,-49.69 203.59,-53.53 199.76,-57.36 195.92,-57.36"/>
<text text-anchor="middle" x="163.59" y="-42.16" font-family="Arial" font-size="14.00" fill="#c6c5fe">lib/types.ts</text>
</g>
<!-- pages/GameSetup.tsx&#45;&gt;lib/types.ts -->
<g id="edge27" class="edge">
<title>pages/GameSetup.tsx&#45;&gt;lib/types.ts</title>
<path fill="none" stroke="#757575" d="M160.87,-37.87C160.89,-37.93 160.91,-38 160.94,-38.06"/>
<polygon fill="#757575" stroke="#757575" points="154.46,-29.92 161,-38.26 161.09,-27.67 154.46,-29.92"/>
</g>
<!-- components/ActiveGames.tsx -->
<g id="node8" class="node">
<title>components/ActiveGames.tsx</title>
<path fill="none" stroke="#c6c5fe" d="M228.09,-85.1C228.09,-85.1 46.42,-85.1 46.42,-85.1 42.59,-85.1 38.76,-81.26 38.76,-77.43 38.76,-77.43 38.76,-69.76 38.76,-69.76 38.76,-65.93 42.59,-62.1 46.42,-62.1 46.42,-62.1 228.09,-62.1 228.09,-62.1 231.92,-62.1 235.76,-65.93 235.76,-69.76 235.76,-69.76 235.76,-77.43 235.76,-77.43 235.76,-81.26 231.92,-85.1 228.09,-85.1"/>
<text text-anchor="middle" x="137.26" y="-69.9" font-family="Arial" font-size="14.00" fill="#c6c5fe">components/ActiveGames.tsx</text>
</g>
<!-- pages/Homepage.tsx&#45;&gt;components/ActiveGames.tsx -->
<g id="edge28" class="edge">
<title>pages/Homepage.tsx&#45;&gt;components/ActiveGames.tsx</title>
<path fill="none" stroke="#757575" d="M137.14,-73.57C137.16,-73.57 137.18,-73.58 137.19,-73.58"/>
<polygon fill="#757575" stroke="#757575" points="126.66,-74.47 137.23,-73.59 128.42,-67.69 126.66,-74.47"/>
</g>
<!-- pages/Homepage.tsx&#45;&gt;lib/mutations.ts -->
<g id="edge30" class="edge">
<title>pages/Homepage.tsx&#45;&gt;lib/mutations.ts</title>
<path fill="none" stroke="#757575" d="M147.83,-71.51C147.84,-71.51 147.85,-71.51 147.86,-71.51"/>
<polygon fill="#757575" stroke="#757575" points="137.77,-74.68 147.88,-71.51 138,-67.68 137.77,-74.68"/>
</g>
<!-- components/PasswordModal.tsx -->
<g id="node13" class="node">
<title>components/PasswordModal.tsx</title>
<path fill="none" stroke="#cfffac" d="M221.86,-90.42C221.86,-90.42 25.19,-90.42 25.19,-90.42 21.36,-90.42 17.52,-86.59 17.52,-82.75 17.52,-82.75 17.52,-75.09 17.52,-75.09 17.52,-71.25 21.36,-67.42 25.19,-67.42 25.19,-67.42 221.86,-67.42 221.86,-67.42 225.69,-67.42 229.52,-71.25 229.52,-75.09 229.52,-75.09 229.52,-82.75 229.52,-82.75 229.52,-86.59 225.69,-90.42 221.86,-90.42"/>
<text text-anchor="middle" x="123.52" y="-75.22" font-family="Arial" font-size="14.00" fill="#cfffac">components/PasswordModal.tsx</text>
</g>
<!-- pages/Homepage.tsx&#45;&gt;components/PasswordModal.tsx -->
<g id="edge29" class="edge">
<title>pages/Homepage.tsx&#45;&gt;components/PasswordModal.tsx</title>
<path fill="none" stroke="#757575" d="M123.56,-78.83C123.56,-78.84 123.55,-78.86 123.55,-78.87"/>
<polygon fill="#757575" stroke="#757575" points="124.15,-68.31 123.53,-78.9 130.62,-71 124.15,-68.31"/>
</g>
<!-- pages/Join.tsx&#45;&gt;lib/mutations.ts -->
<g id="edge31" class="edge">
<title>pages/Join.tsx&#45;&gt;lib/mutations.ts</title>
<path fill="none" stroke="#757575" d="M125.73,-38.18C128.45,-42.26 131.56,-46.95 134.59,-51.5"/>
<polygon fill="#757575" stroke="#757575" points="131.7,-53.48 140.15,-59.87 137.53,-49.6 131.7,-53.48"/>
</g>
<!-- pages/Join.tsx&#45;&gt;lib/supabaseClient.ts -->
<g id="edge32" class="edge">
<title>pages/Join.tsx&#45;&gt;lib/supabaseClient.ts</title>
<path fill="none" stroke="#757575" d="M137.16,-19.53C137.17,-19.52 137.18,-19.52 137.19,-19.52"/>
<polygon fill="#757575" stroke="#757575" points="128.94,-26.16 137.2,-19.51 126.59,-19.55 128.94,-26.16"/>
</g>
<!-- pages/Lobby.tsx&#45;&gt;lib/mutations.ts -->
<g id="edge33" class="edge">
<title>pages/Lobby.tsx&#45;&gt;lib/mutations.ts</title>
<path fill="none" stroke="#757575" d="M127,-57.54C127.14,-57.63 127.28,-57.72 127.42,-57.82"/>
<polygon fill="#757575" stroke="#757575" points="120.07,-57.11 130.33,-59.76 123.96,-51.29 120.07,-57.11"/>
</g>
<!-- pages/Lobby.tsx&#45;&gt;lib/supabaseClient.ts -->
<g id="edge35" class="edge">
<title>pages/Lobby.tsx&#45;&gt;lib/supabaseClient.ts</title>
<path fill="none" stroke="#757575" d="M121.84,-34.28C121.97,-34.15 122.1,-34.03 122.23,-33.9"/>
<polygon fill="#757575" stroke="#757575" points="120.18,-40.73 124.97,-31.28 115.33,-35.68 120.18,-40.73"/>
</g>
<!-- lib/sessionHooks.ts -->
<g id="node21" class="node">
<title>lib/sessionHooks.ts</title>
<path fill="none" stroke="#c6c5fe" d="M169.89,-67.96C169.89,-67.96 53.22,-67.96 53.22,-67.96 49.39,-67.96 45.56,-64.12 45.56,-60.29 45.56,-60.29 45.56,-52.62 45.56,-52.62 45.56,-48.79 49.39,-44.96 53.22,-44.96 53.22,-44.96 169.89,-44.96 169.89,-44.96 173.72,-44.96 177.56,-48.79 177.56,-52.62 177.56,-52.62 177.56,-60.29 177.56,-60.29 177.56,-64.12 173.72,-67.96 169.89,-67.96"/>
<text text-anchor="middle" x="111.56" y="-52.76" font-family="Arial" font-size="14.00" fill="#c6c5fe">lib/sessionHooks.ts</text>
</g>
<!-- pages/Lobby.tsx&#45;&gt;lib/sessionHooks.ts -->
<g id="edge34" class="edge">
<title>pages/Lobby.tsx&#45;&gt;lib/sessionHooks.ts</title>
<path fill="none" stroke="#757575" d="M111.54,-56.34C111.54,-56.36 111.54,-56.37 111.55,-56.39"/>
<polygon fill="#757575" stroke="#757575" points="106.33,-47.2 111.55,-56.43 113.22,-45.96 106.33,-47.2"/>
</g>
<!-- pages/Quiz.tsx&#45;&gt;lib/mutations.ts -->
<g id="edge36" class="edge">
<title>pages/Quiz.tsx&#45;&gt;lib/mutations.ts</title>
<path fill="none" stroke="#757575" d="M147.99,-71.44C147.98,-71.45 147.96,-71.46 147.95,-71.47"/>
<polygon fill="#757575" stroke="#757575" points="154.32,-63.04 147.92,-71.49 158.2,-68.88 154.32,-63.04"/>
</g>
<!-- pages/Quiz.tsx&#45;&gt;lib/types.ts -->
<g id="edge39" class="edge">
<title>pages/Quiz.tsx&#45;&gt;lib/types.ts</title>
<path fill="none" stroke="#757575" d="M160.87,-53.87C160.89,-53.8 160.91,-53.73 160.94,-53.67"/>
<polygon fill="#757575" stroke="#757575" points="161.1,-64.06 161,-53.47 154.47,-61.81 161.1,-64.06"/>
</g>
<!-- lib/realtimeHooks.ts -->
<g id="node19" class="node">
<title>lib/realtimeHooks.ts</title>
<path fill="none" stroke="#c6c5fe" d="M222.65,-68C222.65,-68 102.98,-68 102.98,-68 99.15,-68 95.32,-64.16 95.32,-60.33 95.32,-60.33 95.32,-52.66 95.32,-52.66 95.32,-48.83 99.15,-45 102.98,-45 102.98,-45 222.65,-45 222.65,-45 226.48,-45 230.32,-48.83 230.32,-52.66 230.32,-52.66 230.32,-60.33 230.32,-60.33 230.32,-64.16 226.48,-68 222.65,-68"/>
<text text-anchor="middle" x="162.82" y="-52.8" font-family="Arial" font-size="14.00" fill="#c6c5fe">lib/realtimeHooks.ts</text>
</g>
<!-- pages/Quiz.tsx&#45;&gt;lib/realtimeHooks.ts -->
<g id="edge37" class="edge">
<title>pages/Quiz.tsx&#45;&gt;lib/realtimeHooks.ts</title>
<path fill="none" stroke="#757575" d="M162.75,-56.6C162.76,-56.58 162.77,-56.57 162.78,-56.56"/>
<polygon fill="#757575" stroke="#757575" points="160.24,-66.82 162.8,-56.52 154.38,-62.98 160.24,-66.82"/>
</g>
<!-- pages/Quiz.tsx&#45;&gt;lib/sessionHooks.ts -->
<g id="edge38" class="edge">
<title>pages/Quiz.tsx&#45;&gt;lib/sessionHooks.ts</title>
<path fill="none" stroke="#757575" d="M111.69,-56.48C111.67,-56.48 111.65,-56.47 111.63,-56.47"/>
<polygon fill="#757575" stroke="#757575" points="122.09,-55.01 111.59,-56.46 120.7,-61.88 122.09,-55.01"/>
</g>
<!-- pages/Results.tsx&#45;&gt;lib/mutations.ts -->
<g id="edge40" class="edge">
<title>pages/Results.tsx&#45;&gt;lib/mutations.ts</title>
<path fill="none" stroke="#757575" d="M147.81,-71.49C147.82,-71.5 147.83,-71.5 147.84,-71.5"/>
<polygon fill="#757575" stroke="#757575" points="137.37,-72.95 147.87,-71.51 138.76,-66.09 137.37,-72.95"/>
</g>
<!-- pages/Results.tsx&#45;&gt;lib/supabaseClient.ts -->
<g id="edge42" class="edge">
<title>pages/Results.tsx&#45;&gt;lib/supabaseClient.ts</title>
<path fill="none" stroke="#757575" d="M122.57,-53.87C124.27,-49.87 126.24,-45.26 128.17,-40.74"/>
<polygon fill="#757575" stroke="#757575" points="131.5,-41.83 132.21,-31.26 125.07,-39.09 131.5,-41.83"/>
</g>
<!-- pages/Results.tsx&#45;&gt;lib/sessionHooks.ts -->
<g id="edge41" class="edge">
<title>pages/Results.tsx&#45;&gt;lib/sessionHooks.ts</title>
<path fill="none" stroke="#757575" d="M111.63,-56.56C111.61,-56.54 111.6,-56.53 111.6,-56.51"/>
<polygon fill="#757575" stroke="#757575" points="120.08,-62.82 111.57,-56.48 114.27,-66.74 120.08,-62.82"/>
</g>
<!-- components/ActiveGames.tsx&#45;&gt;lib/mutations.ts -->
<g id="edge7" class="edge">
<title>components/ActiveGames.tsx&#45;&gt;lib/mutations.ts</title>
<path fill="none" stroke="#757575" d="M147.77,-71.53C147.79,-71.53 147.81,-71.53 147.83,-71.52"/>
<polygon fill="#757575" stroke="#757575" points="138.73,-76.9 147.86,-71.52 137.37,-70.03 138.73,-76.9"/>
</g>
<!-- lib/mutations.ts&#45;&gt;lib/supabaseClient.ts -->
<g id="edge12" class="edge">
<title>lib/mutations.ts&#45;&gt;lib/supabaseClient.ts</title>
<path fill="none" stroke="#757575" d="M145.52,-59.97C144.39,-54.45 143,-47.65 141.68,-41.22"/>
<polygon fill="#757575" stroke="#757575" points="145.02,-40.11 139.58,-31.01 138.16,-41.51 145.02,-40.11"/>
</g>
<!-- lib/mutations.ts&#45;&gt;lib/types.ts -->
<g id="edge13" class="edge">
<title>lib/mutations.ts&#45;&gt;lib/types.ts</title>
<path fill="none" stroke="#757575" d="M155.01,-59.89C155.06,-59.79 155.12,-59.7 155.18,-59.61"/>
<polygon fill="#757575" stroke="#757575" points="154.14,-68.01 156.37,-57.65 148.17,-64.36 154.14,-68.01"/>
</g>
<!-- components/LobbyStatus.tsx&#45;&gt;lib/supabaseClient.ts -->
<g id="edge8" class="edge">
<title>components/LobbyStatus.tsx&#45;&gt;lib/supabaseClient.ts</title>
<path fill="none" stroke="#757575" d="M137.34,-19.51C137.32,-19.51 137.3,-19.51 137.29,-19.51"/>
<polygon fill="#757575" stroke="#757575" points="147.49,-16.79 137.25,-19.51 146.95,-23.78 147.49,-16.79"/>
</g>
<!-- components/PasswordModal.test.tsx -->
<g id="node12" class="node">
<title>components/PasswordModal.test.tsx</title>
<path fill="none" stroke="#c6c5fe" d="M230.33,-101.26C230.33,-101.26 7.67,-101.26 7.67,-101.26 3.83,-101.26 0,-97.42 0,-93.59 0,-93.59 0,-85.92 0,-85.92 0,-82.09 3.83,-78.26 7.67,-78.26 7.67,-78.26 230.33,-78.26 230.33,-78.26 234.17,-78.26 238,-82.09 238,-85.92 238,-85.92 238,-93.59 238,-93.59 238,-97.42 234.17,-101.26 230.33,-101.26"/>
<text text-anchor="middle" x="119" y="-86.06" font-family="Arial" font-size="14.00" fill="#c6c5fe">components/PasswordModal.test.tsx</text>
</g>
<!-- components/PasswordModal.test.tsx&#45;&gt;components/PasswordModal.tsx -->
<g id="edge9" class="edge">
<title>components/PasswordModal.test.tsx&#45;&gt;components/PasswordModal.tsx</title>
<path fill="none" stroke="#757575" d="M123.47,-79.04C123.48,-79.02 123.49,-79 123.5,-78.99"/>
<polygon fill="#757575" stroke="#757575" points="122.88,-89.53 123.51,-78.95 116.41,-86.83 122.88,-89.53"/>
</g>
<!-- index.css -->
<g id="node14" class="node">
<title>index.css</title>
<path fill="none" stroke="#cfffac" d="M127.67,-41.46C127.67,-41.46 70.01,-41.46 70.01,-41.46 66.17,-41.46 62.34,-37.63 62.34,-33.8 62.34,-33.8 62.34,-26.13 62.34,-26.13 62.34,-22.3 66.17,-18.46 70.01,-18.46 70.01,-18.46 127.67,-18.46 127.67,-18.46 131.51,-18.46 135.34,-22.3 135.34,-26.13 135.34,-26.13 135.34,-33.8 135.34,-33.8 135.34,-37.63 131.51,-41.46 127.67,-41.46"/>
<text text-anchor="middle" x="98.84" y="-26.26" font-family="Arial" font-size="14.00" fill="#cfffac">index.css</text>
</g>
<!-- lib/mutations.test.ts -->
<g id="node15" class="node">
<title>lib/mutations.test.ts</title>
<path fill="none" stroke="#c6c5fe" d="M221.64,-46.7C221.64,-46.7 103.97,-46.7 103.97,-46.7 100.14,-46.7 96.31,-42.87 96.31,-39.03 96.31,-39.03 96.31,-31.37 96.31,-31.37 96.31,-27.53 100.14,-23.7 103.97,-23.7 103.97,-23.7 221.64,-23.7 221.64,-23.7 225.47,-23.7 229.31,-27.53 229.31,-31.37 229.31,-31.37 229.31,-39.03 229.31,-39.03 229.31,-42.87 225.47,-46.7 221.64,-46.7"/>
<text text-anchor="middle" x="162.81" y="-31.5" font-family="Arial" font-size="14.00" fill="#c6c5fe">lib/mutations.test.ts</text>
</g>
<!-- lib/mutations.test.ts&#45;&gt;lib/mutations.ts -->
<g id="edge10" class="edge">
<title>lib/mutations.test.ts&#45;&gt;lib/mutations.ts</title>
<path fill="none" stroke="#757575" d="M157.92,-47.09C157.45,-48.25 156.95,-49.46 156.45,-50.67"/>
<polygon fill="#757575" stroke="#757575" points="153.2,-49.38 152.64,-59.96 159.67,-52.04 153.2,-49.38"/>
</g>
<!-- lib/mutations.test.ts&#45;&gt;lib/types.ts -->
<g id="edge11" class="edge">
<title>lib/mutations.test.ts&#45;&gt;lib/types.ts</title>
<path fill="none" stroke="#757575" d="M163.58,-45.74C163.58,-45.76 163.58,-45.78 163.58,-45.79"/>
<polygon fill="#757575" stroke="#757575" points="159.34,-36.12 163.59,-45.83 166.32,-35.59 159.34,-36.12"/>
</g>
<!-- lib/types/index.ts -->
<g id="node22" class="node">
<title>lib/types/index.ts</title>
<path fill="none" stroke="#c6c5fe" d="M221.93,-57.36C221.93,-57.36 121.26,-57.36 121.26,-57.36 117.43,-57.36 113.6,-53.53 113.6,-49.69 113.6,-49.69 113.6,-42.03 113.6,-42.03 113.6,-38.19 117.43,-34.36 121.26,-34.36 121.26,-34.36 221.93,-34.36 221.93,-34.36 225.76,-34.36 229.6,-38.19 229.6,-42.03 229.6,-42.03 229.6,-49.69 229.6,-49.69 229.6,-53.53 225.76,-57.36 221.93,-57.36"/>
<text text-anchor="middle" x="171.6" y="-42.16" font-family="Arial" font-size="14.00" fill="#c6c5fe">lib/types/index.ts</text>
</g>
<!-- lib/types.ts&#45;&gt;lib/types/index.ts -->
<g id="edge20" class="edge">
<title>lib/types.ts&#45;&gt;lib/types/index.ts</title>
<path fill="none" stroke="#757575" d="M171.51,-45.86C171.52,-45.86 171.53,-45.86 171.54,-45.86"/>
<polygon fill="#757575" stroke="#757575" points="161.58,-49.4 171.57,-45.86 161.56,-42.4 161.58,-49.4"/>
</g>
<!-- lib/mutations.validation.ts -->
<g id="node17" class="node">
<title>lib/mutations.validation.ts</title>
<path fill="none" stroke="#cfffac" d="M355.55,-153.36C355.55,-153.36 202.88,-153.36 202.88,-153.36 199.05,-153.36 195.22,-149.53 195.22,-145.69 195.22,-145.69 195.22,-138.03 195.22,-138.03 195.22,-134.19 199.05,-130.36 202.88,-130.36 202.88,-130.36 355.55,-130.36 355.55,-130.36 359.38,-130.36 363.22,-134.19 363.22,-138.03 363.22,-138.03 363.22,-145.69 363.22,-145.69 363.22,-149.53 359.38,-153.36 355.55,-153.36"/>
<text text-anchor="middle" x="279.22" y="-138.16" font-family="Arial" font-size="14.00" fill="#cfffac">lib/mutations.validation.ts</text>
</g>
<!-- lib/presence.ts -->
<g id="node18" class="node">
<title>lib/presence.ts</title>
<path fill="none" stroke="#c6c5fe" d="M181.55,-23C181.55,-23 92.88,-23 92.88,-23 89.05,-23 85.22,-19.17 85.22,-15.33 85.22,-15.33 85.22,-7.67 85.22,-7.67 85.22,-3.83 89.05,0 92.88,0 92.88,0 181.55,0 181.55,0 185.38,0 189.22,-3.83 189.22,-7.67 189.22,-7.67 189.22,-15.33 189.22,-15.33 189.22,-19.17 185.38,-23 181.55,-23"/>
<text text-anchor="middle" x="137.22" y="-7.8" font-family="Arial" font-size="14.00" fill="#c6c5fe">lib/presence.ts</text>
</g>
<!-- lib/presence.ts&#45;&gt;lib/supabaseClient.ts -->
<g id="edge14" class="edge">
<title>lib/presence.ts&#45;&gt;lib/supabaseClient.ts</title>
<path fill="none" stroke="#757575" d="M137.22,-19.42C137.22,-19.43 137.22,-19.44 137.22,-19.45"/>
<polygon fill="#757575" stroke="#757575" points="133.68,-9.5 137.22,-19.48 140.68,-9.47 133.68,-9.5"/>
</g>
<!-- lib/realtimeHooks.ts&#45;&gt;lib/supabaseClient.ts -->
<g id="edge15" class="edge">
<title>lib/realtimeHooks.ts&#45;&gt;lib/supabaseClient.ts</title>
<path fill="none" stroke="#757575" d="M154.72,-44.79C153.57,-43.14 152.37,-41.41 151.16,-39.65"/>
<polygon fill="#757575" stroke="#757575" points="153.75,-37.24 145.18,-31.01 147.99,-41.22 153.75,-37.24"/>
</g>
<!-- lib/realtimeHooks.ts&#45;&gt;lib/types.ts -->
<g id="edge16" class="edge">
<title>lib/realtimeHooks.ts&#45;&gt;lib/types.ts</title>
<path fill="none" stroke="#757575" d="M163.58,-45.98C163.58,-45.96 163.58,-45.94 163.58,-45.93"/>
<polygon fill="#757575" stroke="#757575" points="166.33,-56.13 163.59,-45.89 159.35,-55.6 166.33,-56.13"/>
</g>
<!-- lib/sessionCode.test.ts -->
<g id="node20" class="node">
<title>lib/sessionCode.test.ts</title>
<path fill="none" stroke="#c6c5fe" d="M195.01,-31.81C195.01,-31.81 58.34,-31.81 58.34,-31.81 54.51,-31.81 50.67,-27.98 50.67,-24.14 50.67,-24.14 50.67,-16.48 50.67,-16.48 50.67,-12.64 54.51,-8.81 58.34,-8.81 58.34,-8.81 195.01,-8.81 195.01,-8.81 198.84,-8.81 202.67,-12.64 202.67,-16.48 202.67,-16.48 202.67,-24.14 202.67,-24.14 202.67,-27.98 198.84,-31.81 195.01,-31.81"/>
<text text-anchor="middle" x="126.67" y="-16.61" font-family="Arial" font-size="14.00" fill="#c6c5fe">lib/sessionCode.test.ts</text>
</g>
<!-- lib/sessionCode.test.ts&#45;&gt;lib/mutations.ts -->
<g id="edge17" class="edge">
<title>lib/sessionCode.test.ts&#45;&gt;lib/mutations.ts</title>
<path fill="none" stroke="#757575" d="M131.49,-31.93C133.77,-37.43 136.56,-44.17 139.19,-50.52"/>
<polygon fill="#757575" stroke="#757575" points="136.04,-52.04 143.1,-59.94 142.5,-49.36 136.04,-52.04"/>
</g>
<!-- lib/sessionCode.test.ts&#45;&gt;lib/supabaseClient.ts -->
<g id="edge18" class="edge">
<title>lib/sessionCode.test.ts&#45;&gt;lib/supabaseClient.ts</title>
<path fill="none" stroke="#757575" d="M137.1,-19.51C137.12,-19.51 137.14,-19.51 137.15,-19.51"/>
<polygon fill="#757575" stroke="#757575" points="127.49,-23.78 137.19,-19.51 126.94,-16.8 127.49,-23.78"/>
</g>
<!-- lib/sessionHooks.ts&#45;&gt;lib/supabaseClient.ts -->
<g id="edge19" class="edge">
<title>lib/sessionHooks.ts&#45;&gt;lib/supabaseClient.ts</title>
<path fill="none" stroke="#757575" d="M119.68,-44.76C120.8,-43.15 121.98,-41.45 123.17,-39.73"/>
<polygon fill="#757575" stroke="#757575" points="126.23,-41.46 129.06,-31.25 120.48,-37.46 126.23,-41.46"/>
</g>
<!-- lib/types/supabase.ts -->
<g id="node23" class="node">
<title>lib/types/supabase.ts</title>
<path fill="none" stroke="#cfffac" d="M243.44,-57.36C243.44,-57.36 115.77,-57.36 115.77,-57.36 111.94,-57.36 108.1,-53.53 108.1,-49.69 108.1,-49.69 108.1,-42.03 108.1,-42.03 108.1,-38.19 111.94,-34.36 115.77,-34.36 115.77,-34.36 243.44,-34.36 243.44,-34.36 247.27,-34.36 251.1,-38.19 251.1,-42.03 251.1,-42.03 251.1,-49.69 251.1,-49.69 251.1,-53.53 247.27,-57.36 243.44,-57.36"/>
<text text-anchor="middle" x="179.6" y="-42.16" font-family="Arial" font-size="14.00" fill="#cfffac">lib/types/supabase.ts</text>
</g>
<!-- lib/types/index.ts&#45;&gt;lib/types/supabase.ts -->
<g id="edge21" class="edge">
<title>lib/types/index.ts&#45;&gt;lib/types/supabase.ts</title>
<path fill="none" stroke="#757575" d="M179.51,-45.86C179.53,-45.86 179.54,-45.86 179.55,-45.86"/>
<polygon fill="#757575" stroke="#757575" points="169.57,-49.32 179.58,-45.86 169.59,-42.32 169.57,-49.32"/>
</g>
<!-- main.tsx -->
<g id="node24" class="node">
<title>main.tsx</title>
<path fill="none" stroke="#c6c5fe" d="M133.18,-44.78C133.18,-44.78 80.51,-44.78 80.51,-44.78 76.68,-44.78 72.85,-40.95 72.85,-37.11 72.85,-37.11 72.85,-29.45 72.85,-29.45 72.85,-25.61 76.68,-21.78 80.51,-21.78 80.51,-21.78 133.18,-21.78 133.18,-21.78 137.01,-21.78 140.85,-25.61 140.85,-29.45 140.85,-29.45 140.85,-37.11 140.85,-37.11 140.85,-40.95 137.01,-44.78 133.18,-44.78"/>
<text text-anchor="middle" x="106.85" y="-29.58" font-family="Arial" font-size="14.00" fill="#c6c5fe">main.tsx</text>
</g>
<!-- main.tsx&#45;&gt;App.tsx -->
<g id="edge22" class="edge">
<title>main.tsx&#45;&gt;App.tsx</title>
<path fill="none" stroke="#757575" d="M114.76,-36.56C114.77,-36.56 114.79,-36.57 114.8,-36.57"/>
<polygon fill="#757575" stroke="#757575" points="104.24,-35.97 114.83,-36.59 106.93,-29.5 104.24,-35.97"/>
</g>
<!-- main.tsx&#45;&gt;index.css -->
<g id="edge23" class="edge">
<title>main.tsx&#45;&gt;index.css</title>
<path fill="none" stroke="#757575" d="M98.93,-30C98.91,-29.99 98.9,-29.99 98.89,-29.98"/>
<polygon fill="#757575" stroke="#757575" points="109.45,-30.59 98.86,-29.97 106.76,-37.05 109.45,-30.59"/>
</g>
<!-- setupTests.ts -->
<g id="node25" class="node">
<title>setupTests.ts</title>
<path fill="none" stroke="#cfffac" d="M166.05,-153.36C166.05,-153.36 86.38,-153.36 86.38,-153.36 82.55,-153.36 78.72,-149.53 78.72,-145.69 78.72,-145.69 78.72,-138.03 78.72,-138.03 78.72,-134.19 82.55,-130.36 86.38,-130.36 86.38,-130.36 166.05,-130.36 166.05,-130.36 169.88,-130.36 173.72,-134.19 173.72,-138.03 173.72,-138.03 173.72,-145.69 173.72,-145.69 173.72,-149.53 169.88,-153.36 166.05,-153.36"/>
<text text-anchor="middle" x="126.22" y="-138.16" font-family="Arial" font-size="14.00" fill="#cfffac">setupTests.ts</text>
</g>
</g>
</svg>
