<?xml version="1.0" encoding="UTF-8" standalone="no"?>
<!DOCTYPE svg PUBLIC "-//W3C//DTD SVG 1.1//EN"
 "http://www.w3.org/Graphics/SVG/1.1/DTD/svg11.dtd">
<!-- Generated by graphviz version 2.43.0 (0)
 -->
<!-- Title: G Pages: 1 -->
<svg width="525pt" height="306pt"
 viewBox="0.00 0.00 525.46 306.20" xmlns="http://www.w3.org/2000/svg" xmlns:xlink="http://www.w3.org/1999/xlink">
<g id="graph0" class="graph" transform="scale(1 1) rotate(0) translate(21.6 284.6)">
<title>G</title>
<polygon fill="#111111" stroke="transparent" points="-21.6,21.6 -21.6,-284.6 503.86,-284.6 503.86,21.6 -21.6,21.6"/>
<!-- App.tsx -->
<g id="node1" class="node">
<title>App.tsx</title>
<path fill="none" stroke="#c6c5fe" d="M144.88,-100.67C144.88,-100.67 98.21,-100.67 98.21,-100.67 94.38,-100.67 90.54,-96.84 90.54,-93 90.54,-93 90.54,-85.34 90.54,-85.34 90.54,-81.5 94.38,-77.67 98.21,-77.67 98.21,-77.67 144.88,-77.67 144.88,-77.67 148.71,-77.67 152.54,-81.5 152.54,-85.34 152.54,-85.34 152.54,-93 152.54,-93 152.54,-96.84 148.71,-100.67 144.88,-100.67"/>
<text text-anchor="middle" x="121.54" y="-85.47" font-family="Arial" font-size="14.00" fill="#c6c5fe">App.tsx</text>
</g>
<!-- pages/GameSetup.tsx -->
<g id="node2" class="node">
<title>pages/GameSetup.tsx</title>
<path fill="none" stroke="#c6c5fe" d="M163.76,-119.95C163.76,-119.95 27.1,-119.95 27.1,-119.95 23.26,-119.95 19.43,-116.12 19.43,-112.29 19.43,-112.29 19.43,-104.62 19.43,-104.62 19.43,-100.79 23.26,-96.95 27.1,-96.95 27.1,-96.95 163.76,-96.95 163.76,-96.95 167.6,-96.95 171.43,-100.79 171.43,-104.62 171.43,-104.62 171.43,-112.29 171.43,-112.29 171.43,-116.12 167.6,-119.95 163.76,-119.95"/>
<text text-anchor="middle" x="95.43" y="-104.75" font-family="Arial" font-size="14.00" fill="#c6c5fe">pages/GameSetup.tsx</text>
</g>
<!-- App.tsx&#45;&gt;pages/GameSetup.tsx -->
<g id="edge1" class="edge">
<title>App.tsx&#45;&gt;pages/GameSetup.tsx</title>
<path fill="none" stroke="#757575" d="M105.75,-100.83C105.71,-100.86 105.67,-100.9 105.62,-100.93"/>
<polygon fill="#757575" stroke="#757575" points="111.46,-92.26 105.49,-101.02 115.62,-97.89 111.46,-92.26"/>
</g>
<!-- pages/Homepage.tsx -->
<g id="node3" class="node">
<title>pages/Homepage.tsx</title>
<path fill="none" stroke="#c6c5fe" d="M245.09,-141.87C245.09,-141.87 115.43,-141.87 115.43,-141.87 111.59,-141.87 107.76,-138.04 107.76,-134.21 107.76,-134.21 107.76,-126.54 107.76,-126.54 107.76,-122.71 111.59,-118.87 115.43,-118.87 115.43,-118.87 245.09,-118.87 245.09,-118.87 248.93,-118.87 252.76,-122.71 252.76,-126.54 252.76,-126.54 252.76,-134.21 252.76,-134.21 252.76,-138.04 248.93,-141.87 245.09,-141.87"/>
<text text-anchor="middle" x="180.26" y="-126.67" font-family="Arial" font-size="14.00" fill="#c6c5fe">pages/Homepage.tsx</text>
</g>
<!-- App.tsx&#45;&gt;pages/Homepage.tsx -->
<g id="edge2" class="edge">
<title>App.tsx&#45;&gt;pages/Homepage.tsx</title>
<path fill="none" stroke="#757575" d="M138.21,-100.87C143.59,-104.64 149.67,-108.91 155.5,-113"/>
<polygon fill="#757575" stroke="#757575" points="153.56,-115.91 163.75,-118.79 157.58,-110.18 153.56,-115.91"/>
</g>
<!-- pages/Join.tsx -->
<g id="node4" class="node">
<title>pages/Join.tsx</title>
<path fill="none" stroke="#c6c5fe" d="M220.66,-126.88C220.66,-126.88 132.99,-126.88 132.99,-126.88 129.16,-126.88 125.33,-123.04 125.33,-119.21 125.33,-119.21 125.33,-111.54 125.33,-111.54 125.33,-107.71 129.16,-103.88 132.99,-103.88 132.99,-103.88 220.66,-103.88 220.66,-103.88 224.49,-103.88 228.33,-107.71 228.33,-111.54 228.33,-111.54 228.33,-119.21 228.33,-119.21 228.33,-123.04 224.49,-126.88 220.66,-126.88"/>
<text text-anchor="middle" x="176.83" y="-111.68" font-family="Arial" font-size="14.00" fill="#c6c5fe">pages/Join.tsx</text>
</g>
<!-- App.tsx&#45;&gt;pages/Join.tsx -->
<g id="edge3" class="edge">
<title>App.tsx&#45;&gt;pages/Join.tsx</title>
<path fill="none" stroke="#757575" d="M145.95,-100.74C146.08,-100.8 146.21,-100.86 146.34,-100.93"/>
<polygon fill="#757575" stroke="#757575" points="141.69,-102.59 152.23,-103.72 144.69,-96.27 141.69,-102.59"/>
</g>
<!-- pages/Lobby.tsx -->
<g id="node5" class="node">
<title>pages/Lobby.tsx</title>
<path fill="none" stroke="#c6c5fe" d="M212.54,-77.31C212.54,-77.31 113.87,-77.31 113.87,-77.31 110.04,-77.31 106.21,-73.47 106.21,-69.64 106.21,-69.64 106.21,-61.97 106.21,-61.97 106.21,-58.14 110.04,-54.31 113.87,-54.31 113.87,-54.31 212.54,-54.31 212.54,-54.31 216.37,-54.31 220.21,-58.14 220.21,-61.97 220.21,-61.97 220.21,-69.64 220.21,-69.64 220.21,-73.47 216.37,-77.31 212.54,-77.31"/>
<text text-anchor="middle" x="163.21" y="-62.11" font-family="Arial" font-size="14.00" fill="#c6c5fe">pages/Lobby.tsx</text>
</g>
<!-- App.tsx&#45;&gt;pages/Lobby.tsx -->
<g id="edge4" class="edge">
<title>App.tsx&#45;&gt;pages/Lobby.tsx</title>
<path fill="none" stroke="#757575" d="M142.37,-77.49C142.46,-77.44 142.54,-77.4 142.62,-77.35"/>
<polygon fill="#757575" stroke="#757575" points="135.85,-85.16 142.86,-77.21 132.43,-79.05 135.85,-85.16"/>
</g>
<!-- pages/Quiz.tsx -->
<g id="node6" class="node">
<title>pages/Quiz.tsx</title>
<path fill="none" stroke="#c6c5fe" d="M159.37,-105.33C159.37,-105.33 67.7,-105.33 67.7,-105.33 63.87,-105.33 60.04,-101.5 60.04,-97.67 60.04,-97.67 60.04,-90 60.04,-90 60.04,-86.17 63.87,-82.33 67.7,-82.33 67.7,-82.33 159.37,-82.33 159.37,-82.33 163.2,-82.33 167.04,-86.17 167.04,-90 167.04,-90 167.04,-97.67 167.04,-97.67 167.04,-101.5 163.2,-105.33 159.37,-105.33"/>
<text text-anchor="middle" x="113.54" y="-90.13" font-family="Arial" font-size="14.00" fill="#c6c5fe">pages/Quiz.tsx</text>
</g>
<!-- App.tsx&#45;&gt;pages/Quiz.tsx -->
<g id="edge5" class="edge">
<title>App.tsx&#45;&gt;pages/Quiz.tsx</title>
<path fill="none" stroke="#757575" d="M113.63,-93.78C113.61,-93.79 113.6,-93.8 113.59,-93.8"/>
<polygon fill="#757575" stroke="#757575" points="120.44,-85.74 113.56,-93.82 123.97,-91.8 120.44,-85.74"/>
</g>
<!-- pages/Results.tsx -->
<g id="node7" class="node">
<title>pages/Results.tsx</title>
<path fill="none" stroke="#c6c5fe" d="M177.83,-92.67C177.83,-92.67 70.16,-92.67 70.16,-92.67 66.33,-92.67 62.49,-88.83 62.49,-85 62.49,-85 62.49,-77.33 62.49,-77.33 62.49,-73.5 66.33,-69.67 70.16,-69.67 70.16,-69.67 177.83,-69.67 177.83,-69.67 181.66,-69.67 185.49,-73.5 185.49,-77.33 185.49,-77.33 185.49,-85 185.49,-85 185.49,-88.83 181.66,-92.67 177.83,-92.67"/>
<text text-anchor="middle" x="123.99" y="-77.47" font-family="Arial" font-size="14.00" fill="#c6c5fe">pages/Results.tsx</text>
</g>
<!-- App.tsx&#45;&gt;pages/Results.tsx -->
<g id="edge6" class="edge">
<title>App.tsx&#45;&gt;pages/Results.tsx</title>
<path fill="none" stroke="#757575" d="M123.96,-81.26C123.97,-81.24 123.97,-81.23 123.98,-81.22"/>
<polygon fill="#757575" stroke="#757575" points="124.38,-91.79 123.98,-81.19 117.69,-89.72 124.38,-91.79"/>
</g>
<!-- atoms/index.ts -->
<g id="node8" class="node">
<title>atoms/index.ts</title>
<path fill="none" stroke="#c6c5fe" d="M199.54,-76.61C199.54,-76.61 110.87,-76.61 110.87,-76.61 107.04,-76.61 103.21,-72.78 103.21,-68.95 103.21,-68.95 103.21,-61.28 103.21,-61.28 103.21,-57.45 107.04,-53.61 110.87,-53.61 110.87,-53.61 199.54,-53.61 199.54,-53.61 203.37,-53.61 207.21,-57.45 207.21,-61.28 207.21,-61.28 207.21,-68.95 207.21,-68.95 207.21,-72.78 203.37,-76.61 199.54,-76.61"/>
<text text-anchor="middle" x="155.21" y="-61.41" font-family="Arial" font-size="14.00" fill="#c6c5fe">atoms/index.ts</text>
</g>
<!-- pages/GameSetup.tsx&#45;&gt;atoms/index.ts -->
<g id="edge53" class="edge">
<title>pages/GameSetup.tsx&#45;&gt;atoms/index.ts</title>
<path fill="none" stroke="#757575" d="M111.45,-96.84C117.35,-92.56 124.17,-87.62 130.64,-82.92"/>
<polygon fill="#757575" stroke="#757575" points="133.1,-85.46 139.14,-76.76 128.99,-79.8 133.1,-85.46"/>
</g>
<!-- lib/mutations.ts -->
<g id="node11" class="node">
<title>lib/mutations.ts</title>
<path fill="none" stroke="#c6c5fe" d="M213.4,-156.53C213.4,-156.53 121.73,-156.53 121.73,-156.53 117.9,-156.53 114.06,-152.7 114.06,-148.86 114.06,-148.86 114.06,-141.2 114.06,-141.2 114.06,-137.36 117.9,-133.53 121.73,-133.53 121.73,-133.53 213.4,-133.53 213.4,-133.53 217.23,-133.53 221.06,-137.36 221.06,-141.2 221.06,-141.2 221.06,-148.86 221.06,-148.86 221.06,-152.7 217.23,-156.53 213.4,-156.53"/>
<text text-anchor="middle" x="167.56" y="-141.33" font-family="Arial" font-size="14.00" fill="#c6c5fe">lib/mutations.ts</text>
</g>
<!-- pages/GameSetup.tsx&#45;&gt;lib/mutations.ts -->
<g id="edge56" class="edge">
<title>pages/GameSetup.tsx&#45;&gt;lib/mutations.ts</title>
<path fill="none" stroke="#757575" d="M118.25,-120.03C123.78,-122.83 129.79,-125.87 135.65,-128.85"/>
<polygon fill="#757575" stroke="#757575" points="134.14,-132.01 144.64,-133.41 137.31,-125.76 134.14,-132.01"/>
</g>
<!-- components/Alert.tsx -->
<g id="node12" class="node">
<title>components/Alert.tsx</title>
<path fill="none" stroke="#cfffac" d="M248.66,-133.87C248.66,-133.87 121,-133.87 121,-133.87 117.16,-133.87 113.33,-130.04 113.33,-126.21 113.33,-126.21 113.33,-118.54 113.33,-118.54 113.33,-114.71 117.16,-110.87 121,-110.87 121,-110.87 248.66,-110.87 248.66,-110.87 252.5,-110.87 256.33,-114.71 256.33,-118.54 256.33,-118.54 256.33,-126.21 256.33,-126.21 256.33,-130.04 252.5,-133.87 248.66,-133.87"/>
<text text-anchor="middle" x="184.83" y="-118.67" font-family="Arial" font-size="14.00" fill="#cfffac">components/Alert.tsx</text>
</g>
<!-- pages/GameSetup.tsx&#45;&gt;components/Alert.tsx -->
<g id="edge54" class="edge">
<title>pages/GameSetup.tsx&#45;&gt;components/Alert.tsx</title>
<path fill="none" stroke="#757575" d="M169.67,-120.01C169.74,-120.02 169.81,-120.03 169.88,-120.05"/>
<polygon fill="#757575" stroke="#757575" points="159.67,-121.99 170.09,-120.08 160.75,-115.08 159.67,-121.99"/>
</g>
<!-- components/LobbyStatus.tsx -->
<g id="node26" class="node">
<title>components/LobbyStatus.tsx</title>
<path fill="none" stroke="#c6c5fe" d="M183.33,-127.95C183.33,-127.95 7.67,-127.95 7.67,-127.95 3.83,-127.95 0,-124.12 0,-120.29 0,-120.29 0,-112.62 0,-112.62 0,-108.79 3.83,-104.95 7.67,-104.95 7.67,-104.95 183.33,-104.95 183.33,-104.95 187.17,-104.95 191,-108.79 191,-112.62 191,-112.62 191,-120.29 191,-120.29 191,-124.12 187.17,-127.95 183.33,-127.95"/>
<text text-anchor="middle" x="95.5" y="-112.75" font-family="Arial" font-size="14.00" fill="#c6c5fe">components/LobbyStatus.tsx</text>
</g>
<!-- pages/GameSetup.tsx&#45;&gt;components/LobbyStatus.tsx -->
<g id="edge55" class="edge">
<title>pages/GameSetup.tsx&#45;&gt;components/LobbyStatus.tsx</title>
<path fill="none" stroke="#757575" d="M95.5,-116.36C95.5,-116.38 95.5,-116.39 95.5,-116.4"/>
<polygon fill="#757575" stroke="#757575" points="91.88,-106.47 95.5,-116.43 98.88,-106.39 91.88,-106.47"/>
</g>
<!-- lib/supabaseClient.ts -->
<g id="node27" class="node">
<title>lib/supabaseClient.ts</title>
<path fill="none" stroke="#cfffac" d="M166.82,-143.96C166.82,-143.96 41.15,-143.96 41.15,-143.96 37.32,-143.96 33.48,-140.13 33.48,-136.29 33.48,-136.29 33.48,-128.63 33.48,-128.63 33.48,-124.79 37.32,-120.96 41.15,-120.96 41.15,-120.96 166.82,-120.96 166.82,-120.96 170.65,-120.96 174.48,-124.79 174.48,-128.63 174.48,-128.63 174.48,-136.29 174.48,-136.29 174.48,-140.13 170.65,-143.96 166.82,-143.96"/>
<text text-anchor="middle" x="103.98" y="-128.76" font-family="Arial" font-size="14.00" fill="#cfffac">lib/supabaseClient.ts</text>
</g>
<!-- pages/GameSetup.tsx&#45;&gt;lib/supabaseClient.ts -->
<g id="edge58" class="edge">
<title>pages/GameSetup.tsx&#45;&gt;lib/supabaseClient.ts</title>
<path fill="none" stroke="#757575" d="M99.61,-120.18C99.64,-120.27 99.68,-120.37 99.71,-120.46"/>
<polygon fill="#757575" stroke="#757575" points="93.16,-112.5 99.81,-120.75 99.75,-110.15 93.16,-112.5"/>
</g>
<!-- lib/types.ts -->
<g id="node39" class="node">
<title>lib/types.ts</title>
<path fill="none" stroke="#c6c5fe" d="M130.68,-111.95C130.68,-111.95 66.01,-111.95 66.01,-111.95 62.18,-111.95 58.34,-108.11 58.34,-104.28 58.34,-104.28 58.34,-96.61 58.34,-96.61 58.34,-92.78 62.18,-88.95 66.01,-88.95 66.01,-88.95 130.68,-88.95 130.68,-88.95 134.51,-88.95 138.34,-92.78 138.34,-96.61 138.34,-96.61 138.34,-104.28 138.34,-104.28 138.34,-108.11 134.51,-111.95 130.68,-111.95"/>
<text text-anchor="middle" x="98.34" y="-96.75" font-family="Arial" font-size="14.00" fill="#c6c5fe">lib/types.ts</text>
</g>
<!-- pages/GameSetup.tsx&#45;&gt;lib/types.ts -->
<g id="edge59" class="edge">
<title>pages/GameSetup.tsx&#45;&gt;lib/types.ts</title>
<path fill="none" stroke="#757575" d="M98.31,-100.54C98.32,-100.52 98.32,-100.51 98.33,-100.5"/>
<polygon fill="#757575" stroke="#757575" points="98.19,-111.07 98.34,-100.47 91.61,-108.66 98.19,-111.07"/>
</g>
<!-- lib/presence.ts -->
<g id="node42" class="node">
<title>lib/presence.ts</title>
<path fill="none" stroke="#c6c5fe" d="M142.57,-135.96C142.57,-135.96 53.9,-135.96 53.9,-135.96 50.07,-135.96 46.24,-132.12 46.24,-128.29 46.24,-128.29 46.24,-120.62 46.24,-120.62 46.24,-116.79 50.07,-112.96 53.9,-112.96 53.9,-112.96 142.57,-112.96 142.57,-112.96 146.4,-112.96 150.24,-116.79 150.24,-120.62 150.24,-120.62 150.24,-128.29 150.24,-128.29 150.24,-132.12 146.4,-135.96 142.57,-135.96"/>
<text text-anchor="middle" x="98.24" y="-120.76" font-family="Arial" font-size="14.00" fill="#c6c5fe">lib/presence.ts</text>
</g>
<!-- pages/GameSetup.tsx&#45;&gt;lib/presence.ts -->
<g id="edge57" class="edge">
<title>pages/GameSetup.tsx&#45;&gt;lib/presence.ts</title>
<path fill="none" stroke="#757575" d="M97.47,-120.08C97.48,-120.16 97.5,-120.24 97.51,-120.32"/>
<polygon fill="#757575" stroke="#757575" points="92.37,-111.3 97.55,-120.54 99.27,-110.09 92.37,-111.3"/>
</g>
<!-- components/ActiveGames.tsx -->
<g id="node10" class="node">
<title>components/ActiveGames.tsx</title>
<path fill="none" stroke="#c6c5fe" d="M266.95,-149.88C266.95,-149.88 85.28,-149.88 85.28,-149.88 81.45,-149.88 77.62,-146.04 77.62,-142.21 77.62,-142.21 77.62,-134.54 77.62,-134.54 77.62,-130.71 81.45,-126.88 85.28,-126.88 85.28,-126.88 266.95,-126.88 266.95,-126.88 270.78,-126.88 274.62,-130.71 274.62,-134.54 274.62,-134.54 274.62,-142.21 274.62,-142.21 274.62,-146.04 270.78,-149.88 266.95,-149.88"/>
<text text-anchor="middle" x="176.12" y="-134.68" font-family="Arial" font-size="14.00" fill="#c6c5fe">components/ActiveGames.tsx</text>
</g>
<!-- pages/Homepage.tsx&#45;&gt;components/ActiveGames.tsx -->
<g id="edge60" class="edge">
<title>pages/Homepage.tsx&#45;&gt;components/ActiveGames.tsx</title>
<path fill="none" stroke="#757575" d="M176.16,-138.29C176.16,-138.3 176.15,-138.32 176.14,-138.33"/>
<polygon fill="#757575" stroke="#757575" points="177.63,-127.86 176.13,-138.36 183.85,-131.08 177.63,-127.86"/>
</g>
<!-- pages/Homepage.tsx&#45;&gt;lib/mutations.ts -->
<g id="edge63" class="edge">
<title>pages/Homepage.tsx&#45;&gt;lib/mutations.ts</title>
<path fill="none" stroke="#757575" d="M170.26,-141.92C170.21,-141.98 170.16,-142.04 170.11,-142.09"/>
<polygon fill="#757575" stroke="#757575" points="173.87,-132.4 169.97,-142.26 179.16,-136.99 173.87,-132.4"/>
</g>
<!-- pages/Homepage.tsx&#45;&gt;components/Alert.tsx -->
<g id="edge61" class="edge">
<title>pages/Homepage.tsx&#45;&gt;components/Alert.tsx</title>
<path fill="none" stroke="#757575" d="M184.78,-122.46C184.79,-122.45 184.8,-122.44 184.8,-122.42"/>
<polygon fill="#757575" stroke="#757575" points="182.88,-132.82 184.82,-122.4 176.8,-129.34 182.88,-132.82"/>
</g>
<!-- components/PasswordModal.tsx -->
<g id="node32" class="node">
<title>components/PasswordModal.tsx</title>
<path fill="none" stroke="#cfffac" d="M286.66,-146.5C286.66,-146.5 89.99,-146.5 89.99,-146.5 86.16,-146.5 82.32,-142.66 82.32,-138.83 82.32,-138.83 82.32,-131.16 82.32,-131.16 82.32,-127.33 86.16,-123.5 89.99,-123.5 89.99,-123.5 286.66,-123.5 286.66,-123.5 290.49,-123.5 294.32,-127.33 294.32,-131.16 294.32,-131.16 294.32,-138.83 294.32,-138.83 294.32,-142.66 290.49,-146.5 286.66,-146.5"/>
<text text-anchor="middle" x="188.32" y="-131.3" font-family="Arial" font-size="14.00" fill="#cfffac">components/PasswordModal.tsx</text>
</g>
<!-- pages/Homepage.tsx&#45;&gt;components/PasswordModal.tsx -->
<g id="edge62" class="edge">
<title>pages/Homepage.tsx&#45;&gt;components/PasswordModal.tsx</title>
<path fill="none" stroke="#757575" d="M188.23,-134.94C188.25,-134.95 188.26,-134.96 188.27,-134.97"/>
<polygon fill="#757575" stroke="#757575" points="177.87,-133.03 188.3,-134.98 181.37,-126.96 177.87,-133.03"/>
</g>
<!-- pages/Join.tsx&#45;&gt;lib/mutations.ts -->
<g id="edge67" class="edge">
<title>pages/Join.tsx&#45;&gt;lib/mutations.ts</title>
<path fill="none" stroke="#757575" d="M173.17,-127.1C173.12,-127.23 173.08,-127.36 173.04,-127.49"/>
<polygon fill="#757575" stroke="#757575" points="170.84,-122.81 171.2,-133.4 177.52,-124.89 170.84,-122.81"/>
</g>
<!-- pages/Join.tsx&#45;&gt;components/Alert.tsx -->
<g id="edge64" class="edge">
<title>pages/Join.tsx&#45;&gt;components/Alert.tsx</title>
<path fill="none" stroke="#757575" d="M184.74,-122.29C184.76,-122.31 184.77,-122.32 184.78,-122.33"/>
<polygon fill="#757575" stroke="#757575" points="174.97,-118.4 184.81,-122.35 179.58,-113.13 174.97,-118.4"/>
</g>
<!-- components/FlagSelector.tsx -->
<g id="node25" class="node">
<title>components/FlagSelector.tsx</title>
<path fill="none" stroke="#cfffac" d="M280.67,-133.15C280.67,-133.15 105,-133.15 105,-133.15 101.17,-133.15 97.34,-129.31 97.34,-125.48 97.34,-125.48 97.34,-117.81 97.34,-117.81 97.34,-113.98 101.17,-110.15 105,-110.15 105,-110.15 280.67,-110.15 280.67,-110.15 284.5,-110.15 288.34,-113.98 288.34,-117.81 288.34,-117.81 288.34,-125.48 288.34,-125.48 288.34,-129.31 284.5,-133.15 280.67,-133.15"/>
<text text-anchor="middle" x="192.84" y="-117.95" font-family="Arial" font-size="14.00" fill="#cfffac">components/FlagSelector.tsx</text>
</g>
<!-- pages/Join.tsx&#45;&gt;components/FlagSelector.tsx -->
<g id="edge65" class="edge">
<title>pages/Join.tsx&#45;&gt;components/FlagSelector.tsx</title>
<path fill="none" stroke="#757575" d="M192.79,-121.63C192.8,-121.63 192.81,-121.63 192.81,-121.64"/>
<polygon fill="#757575" stroke="#757575" points="182.22,-121.22 192.83,-121.64 184.8,-114.69 182.22,-121.22"/>
</g>
<!-- components/LogoSelector.tsx -->
<g id="node28" class="node">
<title>components/LogoSelector.tsx</title>
<path fill="none" stroke="#c6c5fe" d="M268.62,-118.87C268.62,-118.87 89.95,-118.87 89.95,-118.87 86.12,-118.87 82.29,-115.04 82.29,-111.21 82.29,-111.21 82.29,-103.54 82.29,-103.54 82.29,-99.71 86.12,-95.87 89.95,-95.87 89.95,-95.87 268.62,-95.87 268.62,-95.87 272.45,-95.87 276.29,-99.71 276.29,-103.54 276.29,-103.54 276.29,-111.21 276.29,-111.21 276.29,-115.04 272.45,-118.87 268.62,-118.87"/>
<text text-anchor="middle" x="179.29" y="-103.67" font-family="Arial" font-size="14.00" fill="#c6c5fe">components/LogoSelector.tsx</text>
</g>
<!-- pages/Join.tsx&#45;&gt;components/LogoSelector.tsx -->
<g id="edge66" class="edge">
<title>pages/Join.tsx&#45;&gt;components/LogoSelector.tsx</title>
<path fill="none" stroke="#757575" d="M179.26,-107.46C179.26,-107.45 179.27,-107.44 179.27,-107.43"/>
<polygon fill="#757575" stroke="#757575" points="179.66,-117.99 179.28,-107.4 172.97,-115.92 179.66,-117.99"/>
</g>
<!-- pages/Lobby.tsx&#45;&gt;atoms/index.ts -->
<g id="edge68" class="edge">
<title>pages/Lobby.tsx&#45;&gt;atoms/index.ts</title>
<path fill="none" stroke="#757575" d="M155.3,-65.12C155.28,-65.12 155.27,-65.12 155.26,-65.12"/>
<polygon fill="#757575" stroke="#757575" points="165.51,-62.52 155.23,-65.11 164.88,-69.5 165.51,-62.52"/>
</g>
<!-- lib/types/supabase.ts -->
<g id="node9" class="node">
<title>lib/types/supabase.ts</title>
<path fill="none" stroke="#cfffac" d="M243.05,-86.86C243.05,-86.86 115.39,-86.86 115.39,-86.86 111.55,-86.86 107.72,-83.02 107.72,-79.19 107.72,-79.19 107.72,-71.52 107.72,-71.52 107.72,-67.69 111.55,-63.86 115.39,-63.86 115.39,-63.86 243.05,-63.86 243.05,-63.86 246.89,-63.86 250.72,-67.69 250.72,-71.52 250.72,-71.52 250.72,-79.19 250.72,-79.19 250.72,-83.02 246.89,-86.86 243.05,-86.86"/>
<text text-anchor="middle" x="179.22" y="-71.66" font-family="Arial" font-size="14.00" fill="#cfffac">lib/types/supabase.ts</text>
</g>
<!-- pages/Lobby.tsx&#45;&gt;lib/types/supabase.ts -->
<g id="edge73" class="edge">
<title>pages/Lobby.tsx&#45;&gt;lib/types/supabase.ts</title>
<path fill="none" stroke="#757575" d="M179.17,-75.33C179.18,-75.33 179.19,-75.34 179.19,-75.34"/>
<polygon fill="#757575" stroke="#757575" points="168.81,-73.21 179.21,-75.35 172.41,-67.19 168.81,-73.21"/>
</g>
<!-- pages/Lobby.tsx&#45;&gt;lib/mutations.ts -->
<g id="edge70" class="edge">
<title>pages/Lobby.tsx&#45;&gt;lib/mutations.ts</title>
<path fill="none" stroke="#757575" d="M163.85,-77.5C164.51,-89.43 165.54,-108.25 166.35,-122.99"/>
<polygon fill="#757575" stroke="#757575" points="162.87,-123.5 166.92,-133.29 169.86,-123.12 162.87,-123.5"/>
</g>
<!-- pages/Lobby.tsx&#45;&gt;lib/supabaseClient.ts -->
<g id="edge72" class="edge">
<title>pages/Lobby.tsx&#45;&gt;lib/supabaseClient.ts</title>
<path fill="none" stroke="#757575" d="M152.89,-77.42C144.25,-87.14 131.73,-101.23 121.52,-112.73"/>
<polygon fill="#757575" stroke="#757575" points="118.61,-110.73 114.58,-120.53 123.84,-115.38 118.61,-110.73"/>
</g>
<!-- components/VideoCall.tsx -->
<g id="node35" class="node">
<title>components/VideoCall.tsx</title>
<path fill="none" stroke="#c6c5fe" d="M260.48,-94.86C260.48,-94.86 102.82,-94.86 102.82,-94.86 98.98,-94.86 95.15,-91.03 95.15,-87.2 95.15,-87.2 95.15,-79.53 95.15,-79.53 95.15,-75.7 98.98,-71.86 102.82,-71.86 102.82,-71.86 260.48,-71.86 260.48,-71.86 264.32,-71.86 268.15,-75.7 268.15,-79.53 268.15,-79.53 268.15,-87.2 268.15,-87.2 268.15,-91.03 264.32,-94.86 260.48,-94.86"/>
<text text-anchor="middle" x="181.65" y="-79.66" font-family="Arial" font-size="14.00" fill="#c6c5fe">components/VideoCall.tsx</text>
</g>
<!-- pages/Lobby.tsx&#45;&gt;components/VideoCall.tsx -->
<g id="edge69" class="edge">
<title>pages/Lobby.tsx&#45;&gt;components/VideoCall.tsx</title>
<path fill="none" stroke="#757575" d="M175.41,-77.42C175.46,-77.47 175.51,-77.52 175.57,-77.57"/>
<polygon fill="#757575" stroke="#757575" points="166.07,-73.36 175.73,-77.72 170.9,-68.29 166.07,-73.36"/>
</g>
<!-- lib/sessionHooks.ts -->
<g id="node45" class="node">
<title>lib/sessionHooks.ts</title>
<path fill="none" stroke="#c6c5fe" d="M189.52,-84.52C189.52,-84.52 72.86,-84.52 72.86,-84.52 69.02,-84.52 65.19,-80.69 65.19,-76.86 65.19,-76.86 65.19,-69.19 65.19,-69.19 65.19,-65.36 69.02,-61.52 72.86,-61.52 72.86,-61.52 189.52,-61.52 189.52,-61.52 193.36,-61.52 197.19,-65.36 197.19,-69.19 197.19,-69.19 197.19,-76.86 197.19,-76.86 197.19,-80.69 193.36,-84.52 189.52,-84.52"/>
<text text-anchor="middle" x="131.19" y="-69.32" font-family="Arial" font-size="14.00" fill="#c6c5fe">lib/sessionHooks.ts</text>
</g>
<!-- pages/Lobby.tsx&#45;&gt;lib/sessionHooks.ts -->
<g id="edge71" class="edge">
<title>pages/Lobby.tsx&#45;&gt;lib/sessionHooks.ts</title>
<path fill="none" stroke="#757575" d="M131.28,-73C131.27,-73.01 131.25,-73.01 131.24,-73.01"/>
<polygon fill="#757575" stroke="#757575" points="140.19,-67.38 131.21,-73.02 141.75,-74.21 140.19,-67.38"/>
</g>
<!-- pages/Quiz.tsx&#45;&gt;lib/mutations.ts -->
<g id="edge74" class="edge">
<title>pages/Quiz.tsx&#45;&gt;lib/mutations.ts</title>
<path fill="none" stroke="#757575" d="M125.8,-105.45C132.29,-111.6 140.42,-119.31 147.78,-126.29"/>
<polygon fill="#757575" stroke="#757575" points="145.69,-129.12 155.35,-133.46 150.5,-124.04 145.69,-129.12"/>
</g>
<!-- pages/Quiz.tsx&#45;&gt;lib/types.ts -->
<g id="edge77" class="edge">
<title>pages/Quiz.tsx&#45;&gt;lib/types.ts</title>
<path fill="none" stroke="#757575" d="M98.51,-100.37C98.49,-100.38 98.46,-100.39 98.44,-100.4"/>
<polygon fill="#757575" stroke="#757575" points="106.16,-93.22 98.39,-100.43 108.96,-99.64 106.16,-93.22"/>
</g>
<!-- lib/realtimeHooks.ts -->
<g id="node43" class="node">
<title>lib/realtimeHooks.ts</title>
<path fill="none" stroke="#c6c5fe" d="M165.37,-103.95C165.37,-103.95 45.7,-103.95 45.7,-103.95 41.87,-103.95 38.04,-100.11 38.04,-96.28 38.04,-96.28 38.04,-88.61 38.04,-88.61 38.04,-84.78 41.87,-80.95 45.7,-80.95 45.7,-80.95 165.37,-80.95 165.37,-80.95 169.2,-80.95 173.04,-84.78 173.04,-88.61 173.04,-88.61 173.04,-96.28 173.04,-96.28 173.04,-100.11 169.2,-103.95 165.37,-103.95"/>
<text text-anchor="middle" x="105.54" y="-88.75" font-family="Arial" font-size="14.00" fill="#c6c5fe">lib/realtimeHooks.ts</text>
</g>
<!-- pages/Quiz.tsx&#45;&gt;lib/realtimeHooks.ts -->
<g id="edge75" class="edge">
<title>pages/Quiz.tsx&#45;&gt;lib/realtimeHooks.ts</title>
<path fill="none" stroke="#757575" d="M105.63,-92.46C105.61,-92.46 105.6,-92.46 105.59,-92.45"/>
<polygon fill="#757575" stroke="#757575" points="116.02,-90.74 105.56,-92.45 114.8,-97.63 116.02,-90.74"/>
</g>
<!-- pages/Quiz.tsx&#45;&gt;lib/sessionHooks.ts -->
<g id="edge76" class="edge">
<title>pages/Quiz.tsx&#45;&gt;lib/sessionHooks.ts</title>
<path fill="none" stroke="#757575" d="M123.6,-81.97C123.66,-81.9 123.72,-81.82 123.79,-81.75"/>
<polygon fill="#757575" stroke="#757575" points="120.17,-91.42 123.97,-81.53 114.83,-86.89 120.17,-91.42"/>
</g>
<!-- pages/Results.tsx&#45;&gt;lib/mutations.ts -->
<g id="edge78" class="edge">
<title>pages/Results.tsx&#45;&gt;lib/mutations.ts</title>
<path fill="none" stroke="#757575" d="M131.98,-92.88C138.13,-101.88 146.75,-114.53 153.97,-125.11"/>
<polygon fill="#757575" stroke="#757575" points="151.1,-127.1 159.62,-133.39 156.88,-123.16 151.1,-127.1"/>
</g>
<!-- pages/Results.tsx&#45;&gt;lib/supabaseClient.ts -->
<g id="edge80" class="edge">
<title>pages/Results.tsx&#45;&gt;lib/supabaseClient.ts</title>
<path fill="none" stroke="#757575" d="M119.45,-92.81C117.3,-98.32 114.67,-105.07 112.19,-111.43"/>
<polygon fill="#757575" stroke="#757575" points="108.88,-110.28 108.51,-120.87 115.4,-112.82 108.88,-110.28"/>
</g>
<!-- pages/Results.tsx&#45;&gt;lib/sessionHooks.ts -->
<g id="edge79" class="edge">
<title>pages/Results.tsx&#45;&gt;lib/sessionHooks.ts</title>
<path fill="none" stroke="#757575" d="M131.11,-73.11C131.12,-73.1 131.13,-73.09 131.14,-73.08"/>
<polygon fill="#757575" stroke="#757575" points="127.16,-82.87 131.17,-73.05 121.91,-78.23 127.16,-82.87"/>
</g>
<!-- atoms/index.ts&#45;&gt;lib/types/supabase.ts -->
<g id="edge7" class="edge">
<title>atoms/index.ts&#45;&gt;lib/types/supabase.ts</title>
<path fill="none" stroke="#757575" d="M179.15,-75.33C179.16,-75.33 179.17,-75.34 179.18,-75.34"/>
<polygon fill="#757575" stroke="#757575" points="168.62,-74.62 179.2,-75.35 171.38,-68.18 168.62,-74.62"/>
</g>
<!-- components/ActiveGames.tsx&#45;&gt;lib/mutations.ts -->
<g id="edge8" class="edge">
<title>components/ActiveGames.tsx&#45;&gt;lib/mutations.ts</title>
<path fill="none" stroke="#757575" d="M167.66,-144.96C167.64,-144.97 167.63,-144.98 167.62,-144.99"/>
<polygon fill="#757575" stroke="#757575" points="173.33,-136.1 167.59,-145.01 177.64,-141.63 173.33,-136.1"/>
</g>
<!-- lib/mutations.ts&#45;&gt;lib/supabaseClient.ts -->
<g id="edge38" class="edge">
<title>lib/mutations.ts&#45;&gt;lib/supabaseClient.ts</title>
<path fill="none" stroke="#757575" d="M113.92,-134.42C113.87,-134.42 113.83,-134.41 113.78,-134.4"/>
<polygon fill="#757575" stroke="#757575" points="124.13,-132.88 113.64,-134.37 122.77,-139.75 124.13,-132.88"/>
</g>
<!-- lib/dailyTokenManager.ts -->
<g id="node38" class="node">
<title>lib/dailyTokenManager.ts</title>
<path fill="none" stroke="#c6c5fe" d="M233.87,-159.76C233.87,-159.76 84.2,-159.76 84.2,-159.76 80.37,-159.76 76.53,-155.92 76.53,-152.09 76.53,-152.09 76.53,-144.42 76.53,-144.42 76.53,-140.59 80.37,-136.76 84.2,-136.76 84.2,-136.76 233.87,-136.76 233.87,-136.76 237.7,-136.76 241.53,-140.59 241.53,-144.42 241.53,-144.42 241.53,-152.09 241.53,-152.09 241.53,-155.92 237.7,-159.76 233.87,-159.76"/>
<text text-anchor="middle" x="159.03" y="-144.56" font-family="Arial" font-size="14.00" fill="#c6c5fe">lib/dailyTokenManager.ts</text>
</g>
<!-- lib/mutations.ts&#45;&gt;lib/dailyTokenManager.ts -->
<g id="edge37" class="edge">
<title>lib/mutations.ts&#45;&gt;lib/dailyTokenManager.ts</title>
<path fill="none" stroke="#757575" d="M159.13,-148.22C159.12,-148.23 159.1,-148.23 159.09,-148.24"/>
<polygon fill="#757575" stroke="#757575" points="167.17,-141.41 159.06,-148.25 169.66,-147.96 167.17,-141.41"/>
</g>
<!-- lib/mutations.ts&#45;&gt;lib/types.ts -->
<g id="edge39" class="edge">
<title>lib/mutations.ts&#45;&gt;lib/types.ts</title>
<path fill="none" stroke="#757575" d="M149.38,-133.32C141.96,-128.54 133.24,-122.92 125.13,-117.7"/>
<polygon fill="#757575" stroke="#757575" points="126.95,-114.71 116.65,-112.24 123.16,-120.59 126.95,-114.71"/>
</g>
<!-- components/ChromaGrid.tsx -->
<g id="node13" class="node">
<title>components/ChromaGrid.tsx</title>
<path fill="none" stroke="#cfffac" d="M351.93,-23C351.93,-23 176.26,-23 176.26,-23 172.43,-23 168.59,-19.17 168.59,-15.33 168.59,-15.33 168.59,-7.67 168.59,-7.67 168.59,-3.83 172.43,0 176.26,0 176.26,0 351.93,0 351.93,0 355.76,0 359.59,-3.83 359.59,-7.67 359.59,-7.67 359.59,-15.33 359.59,-15.33 359.59,-19.17 355.76,-23 351.93,-23"/>
<text text-anchor="middle" x="264.09" y="-7.8" font-family="Arial" font-size="14.00" fill="#cfffac">components/ChromaGrid.tsx</text>
</g>
<!-- components/ChromaLogo.tsx -->
<g id="node14" class="node">
<title>components/ChromaLogo.tsx</title>
<path fill="none" stroke="#cfffac" d="M277.24,-118.89C277.24,-118.89 98.57,-118.89 98.57,-118.89 94.74,-118.89 90.9,-115.06 90.9,-111.22 90.9,-111.22 90.9,-103.56 90.9,-103.56 90.9,-99.72 94.74,-95.89 98.57,-95.89 98.57,-95.89 277.24,-95.89 277.24,-95.89 281.07,-95.89 284.9,-99.72 284.9,-103.56 284.9,-103.56 284.9,-111.22 284.9,-111.22 284.9,-115.06 281.07,-118.89 277.24,-118.89"/>
<text text-anchor="middle" x="187.9" y="-103.69" font-family="Arial" font-size="14.00" fill="#cfffac">components/ChromaLogo.tsx</text>
</g>
<!-- components/ControlsBar.tsx -->
<g id="node15" class="node">
<title>components/ControlsBar.tsx</title>
<path fill="none" stroke="#cfffac" d="M275.21,-89C275.21,-89 104.54,-89 104.54,-89 100.71,-89 96.87,-85.16 96.87,-81.33 96.87,-81.33 96.87,-73.66 96.87,-73.66 96.87,-69.83 100.71,-66 104.54,-66 104.54,-66 275.21,-66 275.21,-66 279.04,-66 282.87,-69.83 282.87,-73.66 282.87,-73.66 282.87,-81.33 282.87,-81.33 282.87,-85.16 279.04,-89 275.21,-89"/>
<text text-anchor="middle" x="189.87" y="-73.8" font-family="Arial" font-size="14.00" fill="#cfffac">components/ControlsBar.tsx</text>
</g>
<!-- components/DailyCallWrapper.tsx -->
<g id="node16" class="node">
<title>components/DailyCallWrapper.tsx</title>
<path fill="none" stroke="#c6c5fe" d="M240.22,-73.7C240.22,-73.7 35.55,-73.7 35.55,-73.7 31.72,-73.7 27.89,-69.87 27.89,-66.04 27.89,-66.04 27.89,-58.37 27.89,-58.37 27.89,-54.54 31.72,-50.7 35.55,-50.7 35.55,-50.7 240.22,-50.7 240.22,-50.7 244.05,-50.7 247.89,-54.54 247.89,-58.37 247.89,-58.37 247.89,-66.04 247.89,-66.04 247.89,-69.87 244.05,-73.7 240.22,-73.7"/>
<text text-anchor="middle" x="137.89" y="-58.5" font-family="Arial" font-size="14.00" fill="#c6c5fe">components/DailyCallWrapper.tsx</text>
</g>
<!-- lib/useDailyToken.ts -->
<g id="node17" class="node">
<title>lib/useDailyToken.ts</title>
<path fill="none" stroke="#c6c5fe" d="M199.53,-81.71C199.53,-81.71 78.86,-81.71 78.86,-81.71 75.03,-81.71 71.2,-77.88 71.2,-74.05 71.2,-74.05 71.2,-66.38 71.2,-66.38 71.2,-62.55 75.03,-58.71 78.86,-58.71 78.86,-58.71 199.53,-58.71 199.53,-58.71 203.36,-58.71 207.2,-62.55 207.2,-66.38 207.2,-66.38 207.2,-74.05 207.2,-74.05 207.2,-77.88 203.36,-81.71 199.53,-81.71"/>
<text text-anchor="middle" x="139.2" y="-66.51" font-family="Arial" font-size="14.00" fill="#c6c5fe">lib/useDailyToken.ts</text>
</g>
<!-- components/DailyCallWrapper.tsx&#45;&gt;lib/useDailyToken.ts -->
<g id="edge9" class="edge">
<title>components/DailyCallWrapper.tsx&#45;&gt;lib/useDailyToken.ts</title>
<path fill="none" stroke="#757575" d="M139.18,-70.12C139.18,-70.14 139.19,-70.15 139.19,-70.16"/>
<polygon fill="#757575" stroke="#757575" points="134.1,-60.89 139.19,-70.19 141,-59.75 134.1,-60.89"/>
</g>
<!-- lib/useDailyToken.ts&#45;&gt;atoms/index.ts -->
<g id="edge49" class="edge">
<title>lib/useDailyToken.ts&#45;&gt;atoms/index.ts</title>
<path fill="none" stroke="#757575" d="M155.16,-65.13C155.17,-65.12 155.17,-65.12 155.18,-65.12"/>
<polygon fill="#757575" stroke="#757575" points="146.74,-71.53 155.19,-65.12 144.58,-64.86 146.74,-71.53"/>
</g>
<!-- lib/useDailyToken.ts&#45;&gt;lib/mutations.ts -->
<g id="edge50" class="edge">
<title>lib/useDailyToken.ts&#45;&gt;lib/mutations.ts</title>
<path fill="none" stroke="#757575" d="M143.63,-81.9C147.85,-93.04 154.31,-110.07 159.45,-123.63"/>
<polygon fill="#757575" stroke="#757575" points="156.25,-125.07 163.07,-133.18 162.8,-122.58 156.25,-125.07"/>
</g>
<!-- components/DailyJoinButton.test.tsx -->
<g id="node18" class="node">
<title>components/DailyJoinButton.test.tsx</title>
<path fill="none" stroke="#c6c5fe" d="M256.39,-70.34C256.39,-70.34 36.73,-70.34 36.73,-70.34 32.89,-70.34 29.06,-66.5 29.06,-62.67 29.06,-62.67 29.06,-55 29.06,-55 29.06,-51.17 32.89,-47.34 36.73,-47.34 36.73,-47.34 256.39,-47.34 256.39,-47.34 260.23,-47.34 264.06,-51.17 264.06,-55 264.06,-55 264.06,-62.67 264.06,-62.67 264.06,-66.5 260.23,-70.34 256.39,-70.34"/>
<text text-anchor="middle" x="146.56" y="-55.14" font-family="Arial" font-size="14.00" fill="#c6c5fe">components/DailyJoinButton.test.tsx</text>
</g>
<!-- components/DailyJoinButton.tsx -->
<g id="node19" class="node">
<title>components/DailyJoinButton.tsx</title>
<path fill="none" stroke="#c6c5fe" d="M244.04,-78.47C244.04,-78.47 50.37,-78.47 50.37,-78.47 46.54,-78.47 42.7,-74.64 42.7,-70.8 42.7,-70.8 42.7,-63.14 42.7,-63.14 42.7,-59.3 46.54,-55.47 50.37,-55.47 50.37,-55.47 244.04,-55.47 244.04,-55.47 247.87,-55.47 251.7,-59.3 251.7,-63.14 251.7,-63.14 251.7,-70.8 251.7,-70.8 251.7,-74.64 247.87,-78.47 244.04,-78.47"/>
<text text-anchor="middle" x="147.2" y="-63.27" font-family="Arial" font-size="14.00" fill="#c6c5fe">components/DailyJoinButton.tsx</text>
</g>
<!-- components/DailyJoinButton.test.tsx&#45;&gt;components/DailyJoinButton.tsx -->
<g id="edge10" class="edge">
<title>components/DailyJoinButton.test.tsx&#45;&gt;components/DailyJoinButton.tsx</title>
<path fill="none" stroke="#757575" d="M147.2,-66.88C147.2,-66.89 147.2,-66.91 147.2,-66.92"/>
<polygon fill="#757575" stroke="#757575" points="142.89,-57.26 147.2,-66.95 149.87,-56.69 142.89,-57.26"/>
</g>
<!-- components/DailyJoinButton.tsx&#45;&gt;atoms/index.ts -->
<g id="edge11" class="edge">
<title>components/DailyJoinButton.tsx&#45;&gt;atoms/index.ts</title>
<path fill="none" stroke="#757575" d="M155.12,-65.13C155.13,-65.13 155.14,-65.13 155.15,-65.12"/>
<polygon fill="#757575" stroke="#757575" points="146.24,-70.81 155.18,-65.12 144.64,-64 146.24,-70.81"/>
</g>
<!-- components/DailyJoinButton.tsx&#45;&gt;lib/mutations.ts -->
<g id="edge12" class="edge">
<title>components/DailyJoinButton.tsx&#45;&gt;lib/mutations.ts</title>
<path fill="none" stroke="#757575" d="M150.21,-78.49C153.3,-90.36 158.21,-109.15 162.01,-123.74"/>
<polygon fill="#757575" stroke="#757575" points="158.64,-124.67 164.55,-133.47 165.41,-122.91 158.64,-124.67"/>
</g>
<!-- components/EnhancedLobby.tsx -->
<g id="node20" class="node">
<title>components/EnhancedLobby.tsx</title>
<path fill="none" stroke="#c6c5fe" d="M225.35,-161.82C225.35,-161.82 28.68,-161.82 28.68,-161.82 24.85,-161.82 21.02,-157.99 21.02,-154.15 21.02,-154.15 21.02,-146.49 21.02,-146.49 21.02,-142.65 24.85,-138.82 28.68,-138.82 28.68,-138.82 225.35,-138.82 225.35,-138.82 229.18,-138.82 233.02,-142.65 233.02,-146.49 233.02,-146.49 233.02,-154.15 233.02,-154.15 233.02,-157.99 229.18,-161.82 225.35,-161.82"/>
<text text-anchor="middle" x="127.02" y="-146.62" font-family="Arial" font-size="14.00" fill="#c6c5fe">components/EnhancedLobby.tsx</text>
</g>
<!-- lib/enhancedPresence.ts -->
<g id="node21" class="node">
<title>lib/enhancedPresence.ts</title>
<path fill="none" stroke="#c6c5fe" d="M209.36,-164.39C209.36,-164.39 60.69,-164.39 60.69,-164.39 56.86,-164.39 53.03,-160.56 53.03,-156.72 53.03,-156.72 53.03,-149.06 53.03,-149.06 53.03,-145.22 56.86,-141.39 60.69,-141.39 60.69,-141.39 209.36,-141.39 209.36,-141.39 213.19,-141.39 217.03,-145.22 217.03,-149.06 217.03,-149.06 217.03,-156.72 217.03,-156.72 217.03,-160.56 213.19,-164.39 209.36,-164.39"/>
<text text-anchor="middle" x="135.03" y="-149.19" font-family="Arial" font-size="14.00" fill="#c6c5fe">lib/enhancedPresence.ts</text>
</g>
<!-- components/EnhancedLobby.tsx&#45;&gt;lib/enhancedPresence.ts -->
<g id="edge13" class="edge">
<title>components/EnhancedLobby.tsx&#45;&gt;lib/enhancedPresence.ts</title>
<path fill="none" stroke="#757575" d="M134.94,-152.86C134.95,-152.87 134.96,-152.87 134.97,-152.87"/>
<polygon fill="#757575" stroke="#757575" points="124.4,-153.14 135,-152.88 126.56,-146.47 124.4,-153.14"/>
</g>
<!-- lib/enhancedRealtimeHooks.ts -->
<g id="node22" class="node">
<title>lib/enhancedRealtimeHooks.ts</title>
<path fill="none" stroke="#c6c5fe" d="M203.34,-151.96C203.34,-151.96 18.68,-151.96 18.68,-151.96 14.84,-151.96 11.01,-148.13 11.01,-144.29 11.01,-144.29 11.01,-136.63 11.01,-136.63 11.01,-132.79 14.84,-128.96 18.68,-128.96 18.68,-128.96 203.34,-128.96 203.34,-128.96 207.18,-128.96 211.01,-132.79 211.01,-136.63 211.01,-136.63 211.01,-144.29 211.01,-144.29 211.01,-148.13 207.18,-151.96 203.34,-151.96"/>
<text text-anchor="middle" x="111.01" y="-136.76" font-family="Arial" font-size="14.00" fill="#c6c5fe">lib/enhancedRealtimeHooks.ts</text>
</g>
<!-- components/EnhancedLobby.tsx&#45;&gt;lib/enhancedRealtimeHooks.ts -->
<g id="edge14" class="edge">
<title>components/EnhancedLobby.tsx&#45;&gt;lib/enhancedRealtimeHooks.ts</title>
<path fill="none" stroke="#757575" d="M111.06,-140.49C111.05,-140.48 111.04,-140.48 111.04,-140.48"/>
<polygon fill="#757575" stroke="#757575" points="121.39,-142.76 111.02,-140.47 117.7,-148.72 121.39,-142.76"/>
</g>
<!-- lib/enhancedPresence.ts&#45;&gt;lib/mutations.ts -->
<g id="edge30" class="edge">
<title>lib/enhancedPresence.ts&#45;&gt;lib/mutations.ts</title>
<path fill="none" stroke="#757575" d="M167.47,-145.05C167.49,-145.05 167.5,-145.05 167.51,-145.04"/>
<polygon fill="#757575" stroke="#757575" points="158.65,-150.81 167.54,-145.04 156.99,-144.01 158.65,-150.81"/>
</g>
<!-- lib/enhancedPresence.ts&#45;&gt;lib/supabaseClient.ts -->
<g id="edge31" class="edge">
<title>lib/enhancedPresence.ts&#45;&gt;lib/supabaseClient.ts</title>
<path fill="none" stroke="#757575" d="M117.33,-141.24C117.27,-141.21 117.22,-141.17 117.17,-141.13"/>
<polygon fill="#757575" stroke="#757575" points="127.28,-143.6 117,-141.03 123.43,-149.45 127.28,-143.6"/>
</g>
<!-- lib/enhancedRealtimeHooks.ts&#45;&gt;lib/supabaseClient.ts -->
<g id="edge32" class="edge">
<title>lib/enhancedRealtimeHooks.ts&#45;&gt;lib/supabaseClient.ts</title>
<path fill="none" stroke="#757575" d="M104.06,-132.55C104.05,-132.54 104.04,-132.52 104.03,-132.51"/>
<polygon fill="#757575" stroke="#757575" points="113.24,-137.69 104,-132.48 107.98,-142.32 113.24,-137.69"/>
</g>
<!-- lib/enhancedRealtimeHooks.ts&#45;&gt;lib/types.ts -->
<g id="edge33" class="edge">
<title>lib/enhancedRealtimeHooks.ts&#45;&gt;lib/types.ts</title>
<path fill="none" stroke="#757575" d="M107.28,-128.67C106.58,-126.45 105.82,-124.07 105.06,-121.67"/>
<polygon fill="#757575" stroke="#757575" points="108.36,-120.49 102.01,-112.01 101.69,-122.6 108.36,-120.49"/>
</g>
<!-- components/Flag.tsx -->
<g id="node23" class="node">
<title>components/Flag.tsx</title>
<path fill="none" stroke="#c6c5fe" d="M206.84,-239C206.84,-239 80.17,-239 80.17,-239 76.34,-239 72.5,-235.17 72.5,-231.33 72.5,-231.33 72.5,-223.67 72.5,-223.67 72.5,-219.83 76.34,-216 80.17,-216 80.17,-216 206.84,-216 206.84,-216 210.67,-216 214.5,-219.83 214.5,-223.67 214.5,-223.67 214.5,-231.33 214.5,-231.33 214.5,-235.17 210.67,-239 206.84,-239"/>
<text text-anchor="middle" x="143.5" y="-223.8" font-family="Arial" font-size="14.00" fill="#c6c5fe">components/Flag.tsx</text>
</g>
<!-- lib/flagIcons.ts -->
<g id="node24" class="node">
<title>lib/flagIcons.ts</title>
<path fill="none" stroke="#cfffac" d="M194.84,-239C194.84,-239 108.17,-239 108.17,-239 104.34,-239 100.5,-235.17 100.5,-231.33 100.5,-231.33 100.5,-223.67 100.5,-223.67 100.5,-219.83 104.34,-216 108.17,-216 108.17,-216 194.84,-216 194.84,-216 198.67,-216 202.5,-219.83 202.5,-223.67 202.5,-223.67 202.5,-231.33 202.5,-231.33 202.5,-235.17 198.67,-239 194.84,-239"/>
<text text-anchor="middle" x="151.5" y="-223.8" font-family="Arial" font-size="14.00" fill="#cfffac">lib/flagIcons.ts</text>
</g>
<!-- components/Flag.tsx&#45;&gt;lib/flagIcons.ts -->
<g id="edge15" class="edge">
<title>components/Flag.tsx&#45;&gt;lib/flagIcons.ts</title>
<path fill="none" stroke="#757575" d="M151.42,-227.5C151.43,-227.5 151.44,-227.5 151.45,-227.5"/>
<polygon fill="#757575" stroke="#757575" points="141.49,-231.04 151.48,-227.5 141.47,-224.04 141.49,-231.04"/>
</g>
<!-- components/LobbyStatus.tsx&#45;&gt;lib/supabaseClient.ts -->
<g id="edge16" class="edge">
<title>components/LobbyStatus.tsx&#45;&gt;lib/supabaseClient.ts</title>
<path fill="none" stroke="#757575" d="M101.67,-128.09C101.71,-128.16 101.75,-128.24 101.79,-128.32"/>
<polygon fill="#757575" stroke="#757575" points="94.13,-121.35 101.91,-128.54 100.32,-118.07 94.13,-121.35"/>
</g>
<!-- components/LogoSelector.tsx&#45;&gt;components/ChromaLogo.tsx -->
<g id="edge17" class="edge">
<title>components/LogoSelector.tsx&#45;&gt;components/ChromaLogo.tsx</title>
<path fill="none" stroke="#757575" d="M187.81,-107.39C187.82,-107.39 187.84,-107.39 187.85,-107.39"/>
<polygon fill="#757575" stroke="#757575" points="177.86,-110.84 187.88,-107.39 177.9,-103.84 177.86,-110.84"/>
</g>
<!-- components/LogoSelector.tsx&#45;&gt;lib/supabaseClient.ts -->
<g id="edge18" class="edge">
<title>components/LogoSelector.tsx&#45;&gt;lib/supabaseClient.ts</title>
<path fill="none" stroke="#757575" d="M144.72,-118.89C144.6,-118.93 144.47,-118.97 144.34,-119.02"/>
<polygon fill="#757575" stroke="#757575" points="147.06,-114.42 138.68,-120.9 149.27,-121.06 147.06,-114.42"/>
</g>
<!-- components/ParticipantTile.test.tsx -->
<g id="node29" class="node">
<title>components/ParticipantTile.test.tsx</title>
<path fill="none" stroke="#c6c5fe" d="M286.86,-110.87C286.86,-110.87 75.19,-110.87 75.19,-110.87 71.36,-110.87 67.53,-107.04 67.53,-103.21 67.53,-103.21 67.53,-95.54 67.53,-95.54 67.53,-91.71 71.36,-87.87 75.19,-87.87 75.19,-87.87 286.86,-87.87 286.86,-87.87 290.69,-87.87 294.53,-91.71 294.53,-95.54 294.53,-95.54 294.53,-103.21 294.53,-103.21 294.53,-107.04 290.69,-110.87 286.86,-110.87"/>
<text text-anchor="middle" x="181.03" y="-95.67" font-family="Arial" font-size="14.00" fill="#c6c5fe">components/ParticipantTile.test.tsx</text>
</g>
<!-- components/ParticipantTile.test.tsx&#45;&gt;lib/types/supabase.ts -->
<g id="edge20" class="edge">
<title>components/ParticipantTile.test.tsx&#45;&gt;lib/types/supabase.ts</title>
<path fill="none" stroke="#757575" d="M180.14,-87.65C180.14,-87.55 180.13,-87.46 180.12,-87.36"/>
<polygon fill="#757575" stroke="#757575" points="184.34,-96.78 180.1,-87.08 177.36,-97.31 184.34,-96.78"/>
</g>
<!-- components/ParticipantTile.tsx -->
<g id="node30" class="node">
<title>components/ParticipantTile.tsx</title>
<path fill="none" stroke="#c6c5fe" d="M279.22,-102.87C279.22,-102.87 93.56,-102.87 93.56,-102.87 89.72,-102.87 85.89,-99.03 85.89,-95.2 85.89,-95.2 85.89,-87.53 85.89,-87.53 85.89,-83.7 89.72,-79.87 93.56,-79.87 93.56,-79.87 279.22,-79.87 279.22,-79.87 283.06,-79.87 286.89,-83.7 286.89,-87.53 286.89,-87.53 286.89,-95.2 286.89,-95.2 286.89,-99.03 283.06,-102.87 279.22,-102.87"/>
<text text-anchor="middle" x="186.39" y="-87.67" font-family="Arial" font-size="14.00" fill="#c6c5fe">components/ParticipantTile.tsx</text>
</g>
<!-- components/ParticipantTile.test.tsx&#45;&gt;components/ParticipantTile.tsx -->
<g id="edge19" class="edge">
<title>components/ParticipantTile.test.tsx&#45;&gt;components/ParticipantTile.tsx</title>
<path fill="none" stroke="#757575" d="M186.33,-91.46C186.34,-91.44 186.35,-91.43 186.36,-91.42"/>
<polygon fill="#757575" stroke="#757575" points="183.71,-101.65 186.38,-91.39 177.89,-97.75 183.71,-101.65"/>
</g>
<!-- components/ParticipantTile.tsx&#45;&gt;lib/types/supabase.ts -->
<g id="edge21" class="edge">
<title>components/ParticipantTile.tsx&#45;&gt;lib/types/supabase.ts</title>
<path fill="none" stroke="#757575" d="M181.18,-79.73C181.14,-79.65 181.11,-79.58 181.08,-79.5"/>
<polygon fill="#757575" stroke="#757575" points="188.26,-86.97 180.97,-79.27 181.87,-89.83 188.26,-86.97"/>
</g>
<!-- components/PasswordModal.test.tsx -->
<g id="node31" class="node">
<title>components/PasswordModal.test.tsx</title>
<path fill="none" stroke="#c6c5fe" d="M307.66,-152.05C307.66,-152.05 84.99,-152.05 84.99,-152.05 81.16,-152.05 77.33,-148.22 77.33,-144.39 77.33,-144.39 77.33,-136.72 77.33,-136.72 77.33,-132.89 81.16,-129.05 84.99,-129.05 84.99,-129.05 307.66,-129.05 307.66,-129.05 311.49,-129.05 315.33,-132.89 315.33,-136.72 315.33,-136.72 315.33,-144.39 315.33,-144.39 315.33,-148.22 311.49,-152.05 307.66,-152.05"/>
<text text-anchor="middle" x="196.33" y="-136.85" font-family="Arial" font-size="14.00" fill="#c6c5fe">components/PasswordModal.test.tsx</text>
</g>
<!-- components/PasswordModal.test.tsx&#45;&gt;components/PasswordModal.tsx -->
<g id="edge22" class="edge">
<title>components/PasswordModal.test.tsx&#45;&gt;components/PasswordModal.tsx</title>
<path fill="none" stroke="#757575" d="M188.41,-135.06C188.4,-135.05 188.39,-135.04 188.37,-135.03"/>
<polygon fill="#757575" stroke="#757575" points="198.57,-137.85 188.35,-135.01 194.57,-143.6 198.57,-137.85"/>
</g>
<!-- components/TeamLogoPicker.test.tsx -->
<g id="node33" class="node">
<title>components/TeamLogoPicker.test.tsx</title>
<path fill="none" stroke="#c6c5fe" d="M474.6,-215C474.6,-215 247.93,-215 247.93,-215 244.1,-215 240.26,-211.17 240.26,-207.33 240.26,-207.33 240.26,-199.67 240.26,-199.67 240.26,-195.83 244.1,-192 247.93,-192 247.93,-192 474.6,-192 474.6,-192 478.43,-192 482.26,-195.83 482.26,-199.67 482.26,-199.67 482.26,-207.33 482.26,-207.33 482.26,-211.17 478.43,-215 474.6,-215"/>
<text text-anchor="middle" x="361.26" y="-199.8" font-family="Arial" font-size="14.00" fill="#c6c5fe">components/TeamLogoPicker.test.tsx</text>
</g>
<!-- components/TeamLogoPicker.tsx -->
<g id="node34" class="node">
<title>components/TeamLogoPicker.tsx</title>
<path fill="none" stroke="#cfffac" d="M469.6,-215C469.6,-215 268.93,-215 268.93,-215 265.1,-215 261.27,-211.17 261.27,-207.33 261.27,-207.33 261.27,-199.67 261.27,-199.67 261.27,-195.83 265.1,-192 268.93,-192 268.93,-192 469.6,-192 469.6,-192 473.43,-192 477.27,-195.83 477.27,-199.67 477.27,-199.67 477.27,-207.33 477.27,-207.33 477.27,-211.17 473.43,-215 469.6,-215"/>
<text text-anchor="middle" x="369.27" y="-199.8" font-family="Arial" font-size="14.00" fill="#cfffac">components/TeamLogoPicker.tsx</text>
</g>
<!-- components/TeamLogoPicker.test.tsx&#45;&gt;components/TeamLogoPicker.tsx -->
<g id="edge23" class="edge">
<title>components/TeamLogoPicker.test.tsx&#45;&gt;components/TeamLogoPicker.tsx</title>
<path fill="none" stroke="#757575" d="M369.18,-203.5C369.19,-203.5 369.2,-203.5 369.21,-203.5"/>
<polygon fill="#757575" stroke="#757575" points="359.25,-207.04 369.24,-203.5 359.23,-200.04 359.25,-207.04"/>
</g>
<!-- components/VideoCall.tsx&#45;&gt;lib/types/supabase.ts -->
<g id="edge26" class="edge">
<title>components/VideoCall.tsx&#45;&gt;lib/types/supabase.ts</title>
<path fill="none" stroke="#757575" d="M179.25,-75.45C179.24,-75.43 179.24,-75.42 179.23,-75.41"/>
<polygon fill="#757575" stroke="#757575" points="185.5,-83.93 179.23,-75.38 178.81,-85.98 185.5,-83.93"/>
</g>
<!-- components/VideoCall.tsx&#45;&gt;components/ControlsBar.tsx -->
<g id="edge24" class="edge">
<title>components/VideoCall.tsx&#45;&gt;components/ControlsBar.tsx</title>
<path fill="none" stroke="#757575" d="M189.78,-77.56C189.79,-77.55 189.81,-77.54 189.82,-77.53"/>
<polygon fill="#757575" stroke="#757575" points="183.74,-86.18 189.85,-77.51 179.67,-80.48 183.74,-86.18"/>
</g>
<!-- components/VideoCall.tsx&#45;&gt;components/ParticipantTile.tsx -->
<g id="edge25" class="edge">
<title>components/VideoCall.tsx&#45;&gt;components/ParticipantTile.tsx</title>
<path fill="none" stroke="#757575" d="M186.34,-91.28C186.35,-91.29 186.35,-91.3 186.36,-91.31"/>
<polygon fill="#757575" stroke="#757575" points="178.25,-84.52 186.38,-91.34 184.28,-80.95 178.25,-84.52"/>
</g>
<!-- index.css -->
<g id="node36" class="node">
<title>index.css</title>
<path fill="none" stroke="#cfffac" d="M134.95,-84.92C134.95,-84.92 77.29,-84.92 77.29,-84.92 73.45,-84.92 69.62,-81.09 69.62,-77.26 69.62,-77.26 69.62,-69.59 69.62,-69.59 69.62,-65.76 73.45,-61.92 77.29,-61.92 77.29,-61.92 134.95,-61.92 134.95,-61.92 138.79,-61.92 142.62,-65.76 142.62,-69.59 142.62,-69.59 142.62,-77.26 142.62,-77.26 142.62,-81.09 138.79,-84.92 134.95,-84.92"/>
<text text-anchor="middle" x="106.12" y="-69.72" font-family="Arial" font-size="14.00" fill="#cfffac">index.css</text>
</g>
<!-- lib/createSession.test.ts -->
<g id="node37" class="node">
<title>lib/createSession.test.ts</title>
<path fill="none" stroke="#c6c5fe" d="M222.86,-162.9C222.86,-162.9 79.2,-162.9 79.2,-162.9 75.36,-162.9 71.53,-159.07 71.53,-155.24 71.53,-155.24 71.53,-147.57 71.53,-147.57 71.53,-143.74 75.36,-139.9 79.2,-139.9 79.2,-139.9 222.86,-139.9 222.86,-139.9 226.7,-139.9 230.53,-143.74 230.53,-147.57 230.53,-147.57 230.53,-155.24 230.53,-155.24 230.53,-159.07 226.7,-162.9 222.86,-162.9"/>
<text text-anchor="middle" x="151.03" y="-147.7" font-family="Arial" font-size="14.00" fill="#c6c5fe">lib/createSession.test.ts</text>
</g>
<!-- lib/createSession.test.ts&#45;&gt;lib/mutations.ts -->
<g id="edge27" class="edge">
<title>lib/createSession.test.ts&#45;&gt;lib/mutations.ts</title>
<path fill="none" stroke="#757575" d="M167.52,-145.05C167.52,-145.05 167.53,-145.04 167.54,-145.04"/>
<polygon fill="#757575" stroke="#757575" points="159.49,-151.94 167.55,-145.04 156.94,-145.4 159.49,-151.94"/>
</g>
<!-- lib/createSession.test.ts&#45;&gt;lib/supabaseClient.ts -->
<g id="edge28" class="edge">
<title>lib/createSession.test.ts&#45;&gt;lib/supabaseClient.ts</title>
<path fill="none" stroke="#757575" d="M122.31,-139.84C122.23,-139.81 122.16,-139.78 122.08,-139.75"/>
<polygon fill="#757575" stroke="#757575" points="132.43,-140.14 121.85,-139.65 129.82,-146.64 132.43,-140.14"/>
</g>
<!-- lib/dailyTokenManager.ts&#45;&gt;lib/types.ts -->
<g id="edge29" class="edge">
<title>lib/dailyTokenManager.ts&#45;&gt;lib/types.ts</title>
<path fill="none" stroke="#757575" d="M144.34,-136.68C137.44,-131.24 129.05,-124.63 121.33,-118.55"/>
<polygon fill="#757575" stroke="#757575" points="123.34,-115.68 113.32,-112.24 119.01,-121.18 123.34,-115.68"/>
</g>
<!-- lib/types/index.ts -->
<g id="node46" class="node">
<title>lib/types/index.ts</title>
<path fill="none" stroke="#c6c5fe" d="M221.54,-80.76C221.54,-80.76 120.88,-80.76 120.88,-80.76 117.04,-80.76 113.21,-76.92 113.21,-73.09 113.21,-73.09 113.21,-65.42 113.21,-65.42 113.21,-61.59 117.04,-57.76 120.88,-57.76 120.88,-57.76 221.54,-57.76 221.54,-57.76 225.38,-57.76 229.21,-61.59 229.21,-65.42 229.21,-65.42 229.21,-73.09 229.21,-73.09 229.21,-76.92 225.38,-80.76 221.54,-80.76"/>
<text text-anchor="middle" x="171.21" y="-65.56" font-family="Arial" font-size="14.00" fill="#c6c5fe">lib/types/index.ts</text>
</g>
<!-- lib/types.ts&#45;&gt;lib/types/index.ts -->
<g id="edge47" class="edge">
<title>lib/types.ts&#45;&gt;lib/types/index.ts</title>
<path fill="none" stroke="#757575" d="M125.48,-88.83C128.55,-87.52 131.72,-86.16 134.89,-84.8"/>
<polygon fill="#757575" stroke="#757575" points="136.48,-87.93 144.3,-80.78 133.73,-81.49 136.48,-87.93"/>
</g>
<!-- lib/mutations.test.ts -->
<g id="node40" class="node">
<title>lib/mutations.test.ts</title>
<path fill="none" stroke="#c6c5fe" d="M177.85,-157.81C177.85,-157.81 60.18,-157.81 60.18,-157.81 56.35,-157.81 52.52,-153.98 52.52,-150.14 52.52,-150.14 52.52,-142.48 52.52,-142.48 52.52,-138.64 56.35,-134.81 60.18,-134.81 60.18,-134.81 177.85,-134.81 177.85,-134.81 181.68,-134.81 185.52,-138.64 185.52,-142.48 185.52,-142.48 185.52,-150.14 185.52,-150.14 185.52,-153.98 181.68,-157.81 177.85,-157.81"/>
<text text-anchor="middle" x="119.02" y="-142.61" font-family="Arial" font-size="14.00" fill="#c6c5fe">lib/mutations.test.ts</text>
</g>
<!-- lib/mutations.test.ts&#45;&gt;lib/mutations.ts -->
<g id="edge34" class="edge">
<title>lib/mutations.test.ts&#45;&gt;lib/mutations.ts</title>
<path fill="none" stroke="#757575" d="M167.42,-145.03C167.45,-145.03 167.47,-145.03 167.48,-145.03"/>
<polygon fill="#757575" stroke="#757575" points="157.63,-148.82 167.53,-145.03 157.43,-141.82 157.63,-148.82"/>
</g>
<!-- lib/mutations.test.ts&#45;&gt;lib/supabaseClient.ts -->
<g id="edge35" class="edge">
<title>lib/mutations.test.ts&#45;&gt;lib/supabaseClient.ts</title>
<path fill="none" stroke="#757575" d="M106.33,-134.62C106.24,-134.54 106.16,-134.46 106.07,-134.39"/>
<polygon fill="#757575" stroke="#757575" points="115.55,-138.36 105.83,-134.16 110.81,-143.51 115.55,-138.36"/>
</g>
<!-- lib/mutations.test.ts&#45;&gt;lib/types.ts -->
<g id="edge36" class="edge">
<title>lib/mutations.test.ts&#45;&gt;lib/types.ts</title>
<path fill="none" stroke="#757575" d="M113.8,-134.74C112,-130.75 109.93,-126.15 107.89,-121.63"/>
<polygon fill="#757575" stroke="#757575" points="110.93,-119.85 103.63,-112.18 104.55,-122.73 110.93,-119.85"/>
</g>
<!-- lib/mutations.validation.ts -->
<g id="node41" class="node">
<title>lib/mutations.validation.ts</title>
<path fill="none" stroke="#cfffac" d="M448.43,-263C448.43,-263 295.76,-263 295.76,-263 291.93,-263 288.09,-259.17 288.09,-255.33 288.09,-255.33 288.09,-247.67 288.09,-247.67 288.09,-243.83 291.93,-240 295.76,-240 295.76,-240 448.43,-240 448.43,-240 452.26,-240 456.09,-243.83 456.09,-247.67 456.09,-247.67 456.09,-255.33 456.09,-255.33 456.09,-259.17 452.26,-263 448.43,-263"/>
<text text-anchor="middle" x="372.09" y="-247.8" font-family="Arial" font-size="14.00" fill="#cfffac">lib/mutations.validation.ts</text>
</g>
<!-- lib/presence.ts&#45;&gt;lib/mutations.ts -->
<g id="edge40" class="edge">
<title>lib/presence.ts&#45;&gt;lib/mutations.ts</title>
<path fill="none" stroke="#757575" d="M137.36,-136.07C137.42,-136.09 137.48,-136.1 137.54,-136.12"/>
<polygon fill="#757575" stroke="#757575" points="127.14,-136.68 137.72,-136.18 129.13,-129.97 127.14,-136.68"/>
</g>
<!-- lib/presence.ts&#45;&gt;lib/supabaseClient.ts -->
<g id="edge41" class="edge">
<title>lib/presence.ts&#45;&gt;lib/supabaseClient.ts</title>
<path fill="none" stroke="#757575" d="M103.92,-132.37C103.93,-132.38 103.94,-132.4 103.95,-132.41"/>
<polygon fill="#757575" stroke="#757575" points="95.28,-126.36 103.97,-132.44 100.97,-122.26 95.28,-126.36"/>
</g>
<!-- lib/realtimeHooks.ts&#45;&gt;lib/supabaseClient.ts -->
<g id="edge42" class="edge">
<title>lib/realtimeHooks.ts&#45;&gt;lib/supabaseClient.ts</title>
<path fill="none" stroke="#757575" d="M105.08,-104.23C105,-106.29 104.91,-108.48 104.83,-110.7"/>
<polygon fill="#757575" stroke="#757575" points="101.32,-110.76 104.43,-120.89 108.32,-111.04 101.32,-110.76"/>
</g>
<!-- lib/realtimeHooks.ts&#45;&gt;lib/types.ts -->
<g id="edge43" class="edge">
<title>lib/realtimeHooks.ts&#45;&gt;lib/types.ts</title>
<path fill="none" stroke="#757575" d="M98.42,-100.36C98.41,-100.37 98.4,-100.38 98.39,-100.39"/>
<polygon fill="#757575" stroke="#757575" points="102.45,-90.64 98.36,-100.42 107.66,-95.32 102.45,-90.64"/>
</g>
<!-- lib/sessionCode.test.ts -->
<g id="node44" class="node">
<title>lib/sessionCode.test.ts</title>
<path fill="none" stroke="#c6c5fe" d="M211.36,-164.62C211.36,-164.62 74.7,-164.62 74.7,-164.62 70.86,-164.62 67.03,-160.78 67.03,-156.95 67.03,-156.95 67.03,-149.28 67.03,-149.28 67.03,-145.45 70.86,-141.62 74.7,-141.62 74.7,-141.62 211.36,-141.62 211.36,-141.62 215.2,-141.62 219.03,-145.45 219.03,-149.28 219.03,-149.28 219.03,-156.95 219.03,-156.95 219.03,-160.78 215.2,-164.62 211.36,-164.62"/>
<text text-anchor="middle" x="143.03" y="-149.42" font-family="Arial" font-size="14.00" fill="#c6c5fe">lib/sessionCode.test.ts</text>
</g>
<!-- lib/sessionCode.test.ts&#45;&gt;lib/mutations.ts -->
<g id="edge44" class="edge">
<title>lib/sessionCode.test.ts&#45;&gt;lib/mutations.ts</title>
<path fill="none" stroke="#757575" d="M167.49,-145.05C167.5,-145.05 167.51,-145.05 167.52,-145.04"/>
<polygon fill="#757575" stroke="#757575" points="159.15,-151.52 167.55,-145.04 156.94,-144.87 159.15,-151.52"/>
</g>
<!-- lib/sessionCode.test.ts&#45;&gt;lib/supabaseClient.ts -->
<g id="edge45" class="edge">
<title>lib/sessionCode.test.ts&#45;&gt;lib/supabaseClient.ts</title>
<path fill="none" stroke="#757575" d="M121.22,-141.58C121.15,-141.54 121.08,-141.51 121.01,-141.47"/>
<polygon fill="#757575" stroke="#757575" points="131.28,-142.94 120.81,-141.36 128.01,-149.13 131.28,-142.94"/>
</g>
<!-- lib/sessionHooks.ts&#45;&gt;lib/supabaseClient.ts -->
<g id="edge46" class="edge">
<title>lib/sessionHooks.ts&#45;&gt;lib/supabaseClient.ts</title>
<path fill="none" stroke="#757575" d="M125.81,-84.77C122.31,-92.42 117.64,-102.62 113.52,-111.62"/>
<polygon fill="#757575" stroke="#757575" points="110.33,-110.19 109.35,-120.74 116.69,-113.11 110.33,-110.19"/>
</g>
<!-- lib/types/index.ts&#45;&gt;lib/types/supabase.ts -->
<g id="edge48" class="edge">
<title>lib/types/index.ts&#45;&gt;lib/types/supabase.ts</title>
<path fill="none" stroke="#757575" d="M179.13,-75.29C179.14,-75.3 179.16,-75.31 179.17,-75.32"/>
<polygon fill="#757575" stroke="#757575" points="169.11,-72.06 179.2,-75.34 173.36,-66.48 169.11,-72.06"/>
</g>
<!-- main.tsx -->
<g id="node47" class="node">
<title>main.tsx</title>
<path fill="none" stroke="#c6c5fe" d="M140.59,-92.67C140.59,-92.67 87.92,-92.67 87.92,-92.67 84.09,-92.67 80.25,-88.83 80.25,-85 80.25,-85 80.25,-77.33 80.25,-77.33 80.25,-73.5 84.09,-69.67 87.92,-69.67 87.92,-69.67 140.59,-69.67 140.59,-69.67 144.42,-69.67 148.25,-73.5 148.25,-77.33 148.25,-77.33 148.25,-85 148.25,-85 148.25,-88.83 144.42,-92.67 140.59,-92.67"/>
<text text-anchor="middle" x="114.25" y="-77.47" font-family="Arial" font-size="14.00" fill="#c6c5fe">main.tsx</text>
</g>
<!-- main.tsx&#45;&gt;App.tsx -->
<g id="edge51" class="edge">
<title>main.tsx&#45;&gt;App.tsx</title>
<path fill="none" stroke="#757575" d="M121.46,-89.08C121.47,-89.1 121.49,-89.11 121.5,-89.12"/>
<polygon fill="#757575" stroke="#757575" points="112.19,-84.11 121.52,-89.15 117.37,-79.39 112.19,-84.11"/>
</g>
<!-- main.tsx&#45;&gt;index.css -->
<g id="edge52" class="edge">
<title>main.tsx&#45;&gt;index.css</title>
<path fill="none" stroke="#757575" d="M106.21,-73.51C106.2,-73.5 106.18,-73.48 106.17,-73.47"/>
<polygon fill="#757575" stroke="#757575" points="115.81,-77.81 106.14,-73.44 110.97,-82.89 115.81,-77.81"/>
</g>
<!-- setupTests.ts -->
<g id="node48" class="node">
<title>setupTests.ts</title>
<path fill="none" stroke="#cfffac" d="M135.93,-23C135.93,-23 56.26,-23 56.26,-23 52.43,-23 48.59,-19.17 48.59,-15.33 48.59,-15.33 48.59,-7.67 48.59,-7.67 48.59,-3.83 52.43,0 56.26,0 56.26,0 135.93,0 135.93,0 139.76,0 143.59,-3.83 143.59,-7.67 143.59,-7.67 143.59,-15.33 143.59,-15.33 143.59,-19.17 139.76,-23 135.93,-23"/>
<text text-anchor="middle" x="96.09" y="-7.8" font-family="Arial" font-size="14.00" fill="#cfffac">setupTests.ts</text>
</g>
</g>
</svg>
