<?xml version="1.0" encoding="UTF-8" standalone="no"?>
<!DOCTYPE svg PUBLIC "-//W3C//DTD SVG 1.1//EN"
 "http://www.w3.org/Graphics/SVG/1.1/DTD/svg11.dtd">
<!-- Generated by graphviz version 2.43.0 (0)
 -->
<!-- Title: G Pages: 1 -->
<svg width="427pt" height="234pt"
 viewBox="0.00 0.00 427.08 234.20" xmlns="http://www.w3.org/2000/svg" xmlns:xlink="http://www.w3.org/1999/xlink">
<g id="graph0" class="graph" transform="scale(1 1) rotate(0) translate(21.6 212.6)">
<title>G</title>
<polygon fill="#111111" stroke="transparent" points="-21.6,21.6 -21.6,-212.6 405.48,-212.6 405.48,21.6 -21.6,21.6"/>
<!-- App.tsx -->
<g id="node1" class="node">
<title>App.tsx</title>
<path fill="none" stroke="#c6c5fe" d="M123.8,-118.23C123.8,-118.23 77.14,-118.23 77.14,-118.23 73.3,-118.23 69.47,-114.39 69.47,-110.56 69.47,-110.56 69.47,-102.89 69.47,-102.89 69.47,-99.06 73.3,-95.23 77.14,-95.23 77.14,-95.23 123.8,-95.23 123.8,-95.23 127.64,-95.23 131.47,-99.06 131.47,-102.89 131.47,-102.89 131.47,-110.56 131.47,-110.56 131.47,-114.39 127.64,-118.23 123.8,-118.23"/>
<text text-anchor="middle" x="100.47" y="-103.03" font-family="Arial" font-size="14.00" fill="#c6c5fe">App.tsx</text>
</g>
<!-- pages/GameSetup.tsx -->
<g id="node2" class="node">
<title>pages/GameSetup.tsx</title>
<path fill="none" stroke="#c6c5fe" d="M211.06,-83.33C211.06,-83.33 74.4,-83.33 74.4,-83.33 70.56,-83.33 66.73,-79.49 66.73,-75.66 66.73,-75.66 66.73,-67.99 66.73,-67.99 66.73,-64.16 70.56,-60.33 74.4,-60.33 74.4,-60.33 211.06,-60.33 211.06,-60.33 214.9,-60.33 218.73,-64.16 218.73,-67.99 218.73,-67.99 218.73,-75.66 218.73,-75.66 218.73,-79.49 214.9,-83.33 211.06,-83.33"/>
<text text-anchor="middle" x="142.73" y="-68.13" font-family="Arial" font-size="14.00" fill="#c6c5fe">pages/GameSetup.tsx</text>
</g>
<!-- App.tsx&#45;&gt;pages/GameSetup.tsx -->
<g id="edge1" class="edge">
<title>App.tsx&#45;&gt;pages/GameSetup.tsx</title>
<path fill="none" stroke="#757575" d="M114.78,-94.91C116.75,-93.29 118.8,-91.59 120.87,-89.88"/>
<polygon fill="#757575" stroke="#757575" points="123.24,-92.46 128.72,-83.39 118.79,-87.06 123.24,-92.46"/>
</g>
<!-- pages/Homepage.tsx -->
<g id="node3" class="node">
<title>pages/Homepage.tsx</title>
<path fill="none" stroke="#c6c5fe" d="M181.31,-121.04C181.31,-121.04 51.64,-121.04 51.64,-121.04 47.81,-121.04 43.97,-117.21 43.97,-113.37 43.97,-113.37 43.97,-105.71 43.97,-105.71 43.97,-101.87 47.81,-98.04 51.64,-98.04 51.64,-98.04 181.31,-98.04 181.31,-98.04 185.14,-98.04 188.97,-101.87 188.97,-105.71 188.97,-105.71 188.97,-113.37 188.97,-113.37 188.97,-117.21 185.14,-121.04 181.31,-121.04"/>
<text text-anchor="middle" x="116.47" y="-105.84" font-family="Arial" font-size="14.00" fill="#c6c5fe">pages/Homepage.tsx</text>
</g>
<!-- App.tsx&#45;&gt;pages/Homepage.tsx -->
<g id="edge2" class="edge">
<title>App.tsx&#45;&gt;pages/Homepage.tsx</title>
<path fill="none" stroke="#757575" d="M116.43,-109.53C116.44,-109.53 116.44,-109.53 116.45,-109.54"/>
<polygon fill="#757575" stroke="#757575" points="105.99,-111.2 116.46,-109.54 107.24,-104.3 105.99,-111.2"/>
</g>
<!-- pages/Join.tsx -->
<g id="node4" class="node">
<title>pages/Join.tsx</title>
<path fill="none" stroke="#c6c5fe" d="M186.97,-99.33C186.97,-99.33 99.3,-99.33 99.3,-99.33 95.47,-99.33 91.63,-95.5 91.63,-91.67 91.63,-91.67 91.63,-84 91.63,-84 91.63,-80.17 95.47,-76.33 99.3,-76.33 99.3,-76.33 186.97,-76.33 186.97,-76.33 190.8,-76.33 194.63,-80.17 194.63,-84 194.63,-84 194.63,-91.67 194.63,-91.67 194.63,-95.5 190.8,-99.33 186.97,-99.33"/>
<text text-anchor="middle" x="143.13" y="-84.13" font-family="Arial" font-size="14.00" fill="#c6c5fe">pages/Join.tsx</text>
</g>
<!-- App.tsx&#45;&gt;pages/Join.tsx -->
<g id="edge3" class="edge">
<title>App.tsx&#45;&gt;pages/Join.tsx</title>
<path fill="none" stroke="#757575" d="M126.76,-95.09C126.83,-95.05 126.9,-95.02 126.97,-94.99"/>
<polygon fill="#757575" stroke="#757575" points="119.45,-102.16 127.17,-94.9 116.61,-95.75 119.45,-102.16"/>
</g>
<!-- pages/Lobby.tsx -->
<g id="node5" class="node">
<title>pages/Lobby.tsx</title>
<path fill="none" stroke="#c6c5fe" d="M127.64,-103.26C127.64,-103.26 28.97,-103.26 28.97,-103.26 25.14,-103.26 21.31,-99.42 21.31,-95.59 21.31,-95.59 21.31,-87.92 21.31,-87.92 21.31,-84.09 25.14,-80.26 28.97,-80.26 28.97,-80.26 127.64,-80.26 127.64,-80.26 131.47,-80.26 135.31,-84.09 135.31,-87.92 135.31,-87.92 135.31,-95.59 135.31,-95.59 135.31,-99.42 131.47,-103.26 127.64,-103.26"/>
<text text-anchor="middle" x="78.31" y="-88.06" font-family="Arial" font-size="14.00" fill="#c6c5fe">pages/Lobby.tsx</text>
</g>
<!-- App.tsx&#45;&gt;pages/Lobby.tsx -->
<g id="edge4" class="edge">
<title>App.tsx&#45;&gt;pages/Lobby.tsx</title>
<path fill="none" stroke="#757575" d="M83.01,-94.93C82.92,-94.87 82.84,-94.82 82.75,-94.76"/>
<polygon fill="#757575" stroke="#757575" points="92.75,-97.29 82.5,-94.59 88.83,-103.09 92.75,-97.29"/>
</g>
<!-- pages/Quiz.tsx -->
<g id="node6" class="node">
<title>pages/Quiz.tsx</title>
<path fill="none" stroke="#c6c5fe" d="M154.3,-121.57C154.3,-121.57 62.64,-121.57 62.64,-121.57 58.8,-121.57 54.97,-117.74 54.97,-113.9 54.97,-113.9 54.97,-106.24 54.97,-106.24 54.97,-102.4 58.8,-98.57 62.64,-98.57 62.64,-98.57 154.3,-98.57 154.3,-98.57 158.14,-98.57 161.97,-102.4 161.97,-106.24 161.97,-106.24 161.97,-113.9 161.97,-113.9 161.97,-117.74 158.14,-121.57 154.3,-121.57"/>
<text text-anchor="middle" x="108.47" y="-106.37" font-family="Arial" font-size="14.00" fill="#c6c5fe">pages/Quiz.tsx</text>
</g>
<!-- App.tsx&#45;&gt;pages/Quiz.tsx -->
<g id="edge5" class="edge">
<title>App.tsx&#45;&gt;pages/Quiz.tsx</title>
<path fill="none" stroke="#757575" d="M108.38,-110.03C108.4,-110.04 108.41,-110.04 108.42,-110.05"/>
<polygon fill="#757575" stroke="#757575" points="97.86,-109.42 108.45,-110.06 100.57,-102.96 97.86,-109.42"/>
</g>
<!-- pages/Results.tsx -->
<g id="node7" class="node">
<title>pages/Results.tsx</title>
<path fill="none" stroke="#c6c5fe" d="M146.3,-117.06C146.3,-117.06 38.63,-117.06 38.63,-117.06 34.8,-117.06 30.97,-113.23 30.97,-109.39 30.97,-109.39 30.97,-101.73 30.97,-101.73 30.97,-97.89 34.8,-94.06 38.63,-94.06 38.63,-94.06 146.3,-94.06 146.3,-94.06 150.13,-94.06 153.97,-97.89 153.97,-101.73 153.97,-101.73 153.97,-109.39 153.97,-109.39 153.97,-113.23 150.13,-117.06 146.3,-117.06"/>
<text text-anchor="middle" x="92.47" y="-101.86" font-family="Arial" font-size="14.00" fill="#c6c5fe">pages/Results.tsx</text>
</g>
<!-- App.tsx&#45;&gt;pages/Results.tsx -->
<g id="edge6" class="edge">
<title>App.tsx&#45;&gt;pages/Results.tsx</title>
<path fill="none" stroke="#757575" d="M92.56,-105.57C92.54,-105.57 92.53,-105.57 92.52,-105.57"/>
<polygon fill="#757575" stroke="#757575" points="102.9,-103.57 92.49,-105.56 101.87,-110.5 102.9,-103.57"/>
</g>
<!-- atoms/index.ts -->
<g id="node8" class="node">
<title>atoms/index.ts</title>
<path fill="none" stroke="#c6c5fe" d="M120.21,-95.25C120.21,-95.25 31.54,-95.25 31.54,-95.25 27.71,-95.25 23.88,-91.41 23.88,-87.58 23.88,-87.58 23.88,-79.91 23.88,-79.91 23.88,-76.08 27.71,-72.25 31.54,-72.25 31.54,-72.25 120.21,-72.25 120.21,-72.25 124.04,-72.25 127.88,-76.08 127.88,-79.91 127.88,-79.91 127.88,-87.58 127.88,-87.58 127.88,-91.41 124.04,-95.25 120.21,-95.25"/>
<text text-anchor="middle" x="75.88" y="-80.05" font-family="Arial" font-size="14.00" fill="#c6c5fe">atoms/index.ts</text>
</g>
<!-- pages/GameSetup.tsx&#45;&gt;atoms/index.ts -->
<g id="edge30" class="edge">
<title>pages/GameSetup.tsx&#45;&gt;atoms/index.ts</title>
<path fill="none" stroke="#757575" d="M78.1,-83.35C78.01,-83.37 77.93,-83.38 77.84,-83.4"/>
<polygon fill="#757575" stroke="#757575" points="86.83,-78.24 77.6,-83.44 88.06,-85.13 86.83,-78.24"/>
</g>
<!-- lib/mutations.ts -->
<g id="node11" class="node">
<title>lib/mutations.ts</title>
<path fill="none" stroke="#c6c5fe" d="M178.32,-115.34C178.32,-115.34 86.65,-115.34 86.65,-115.34 82.82,-115.34 78.98,-111.5 78.98,-107.67 78.98,-107.67 78.98,-100 78.98,-100 78.98,-96.17 82.82,-92.34 86.65,-92.34 86.65,-92.34 178.32,-92.34 178.32,-92.34 182.15,-92.34 185.98,-96.17 185.98,-100 185.98,-100 185.98,-107.67 185.98,-107.67 185.98,-111.5 182.15,-115.34 178.32,-115.34"/>
<text text-anchor="middle" x="132.48" y="-100.14" font-family="Arial" font-size="14.00" fill="#c6c5fe">lib/mutations.ts</text>
</g>
<!-- pages/GameSetup.tsx&#45;&gt;lib/mutations.ts -->
<g id="edge33" class="edge">
<title>pages/GameSetup.tsx&#45;&gt;lib/mutations.ts</title>
<path fill="none" stroke="#757575" d="M139.03,-83.38C139,-83.47 138.97,-83.56 138.95,-83.65"/>
<polygon fill="#757575" stroke="#757575" points="135.93,-81.6 136.21,-92.19 142.59,-83.73 135.93,-81.6"/>
</g>
<!-- components/Alert.tsx -->
<g id="node12" class="node">
<title>components/Alert.tsx</title>
<path fill="none" stroke="#cfffac" d="M203.52,-107.34C203.52,-107.34 75.86,-107.34 75.86,-107.34 72.02,-107.34 68.19,-103.5 68.19,-99.67 68.19,-99.67 68.19,-92 68.19,-92 68.19,-88.17 72.02,-84.34 75.86,-84.34 75.86,-84.34 203.52,-84.34 203.52,-84.34 207.36,-84.34 211.19,-88.17 211.19,-92 211.19,-92 211.19,-99.67 211.19,-99.67 211.19,-103.5 207.36,-107.34 203.52,-107.34"/>
<text text-anchor="middle" x="139.69" y="-92.14" font-family="Arial" font-size="14.00" fill="#cfffac">components/Alert.tsx</text>
</g>
<!-- pages/GameSetup.tsx&#45;&gt;components/Alert.tsx -->
<g id="edge31" class="edge">
<title>pages/GameSetup.tsx&#45;&gt;components/Alert.tsx</title>
<path fill="none" stroke="#757575" d="M141.25,-83.55C141.23,-83.65 141.22,-83.74 141.21,-83.84"/>
<polygon fill="#757575" stroke="#757575" points="138.96,-73.76 141.17,-84.12 145.91,-74.64 138.96,-73.76"/>
</g>
<!-- components/LobbyStatus.tsx -->
<g id="node15" class="node">
<title>components/LobbyStatus.tsx</title>
<path fill="none" stroke="#c6c5fe" d="M226.9,-75.32C226.9,-75.32 51.24,-75.32 51.24,-75.32 47.4,-75.32 43.57,-71.49 43.57,-67.66 43.57,-67.66 43.57,-59.99 43.57,-59.99 43.57,-56.16 47.4,-52.32 51.24,-52.32 51.24,-52.32 226.9,-52.32 226.9,-52.32 230.74,-52.32 234.57,-56.16 234.57,-59.99 234.57,-59.99 234.57,-67.66 234.57,-67.66 234.57,-71.49 230.74,-75.32 226.9,-75.32"/>
<text text-anchor="middle" x="139.07" y="-60.12" font-family="Arial" font-size="14.00" fill="#c6c5fe">components/LobbyStatus.tsx</text>
</g>
<!-- pages/GameSetup.tsx&#45;&gt;components/LobbyStatus.tsx -->
<g id="edge32" class="edge">
<title>pages/GameSetup.tsx&#45;&gt;components/LobbyStatus.tsx</title>
<path fill="none" stroke="#757575" d="M139.11,-63.91C139.1,-63.9 139.1,-63.89 139.09,-63.87"/>
<polygon fill="#757575" stroke="#757575" points="146.44,-71.48 139.08,-63.85 140.08,-74.41 146.44,-71.48"/>
</g>
<!-- lib/supabaseClient.ts -->
<g id="node16" class="node">
<title>lib/supabaseClient.ts</title>
<path fill="none" stroke="#cfffac" d="M171.25,-58.18C171.25,-58.18 45.58,-58.18 45.58,-58.18 41.75,-58.18 37.92,-54.35 37.92,-50.52 37.92,-50.52 37.92,-42.85 37.92,-42.85 37.92,-39.02 41.75,-35.18 45.58,-35.18 45.58,-35.18 171.25,-35.18 171.25,-35.18 175.08,-35.18 178.92,-39.02 178.92,-42.85 178.92,-42.85 178.92,-50.52 178.92,-50.52 178.92,-54.35 175.08,-58.18 171.25,-58.18"/>
<text text-anchor="middle" x="108.42" y="-42.98" font-family="Arial" font-size="14.00" fill="#cfffac">lib/supabaseClient.ts</text>
</g>
<!-- pages/GameSetup.tsx&#45;&gt;lib/supabaseClient.ts -->
<g id="edge35" class="edge">
<title>pages/GameSetup.tsx&#45;&gt;lib/supabaseClient.ts</title>
<path fill="none" stroke="#757575" d="M126.78,-60.14C126.67,-60.06 126.57,-59.98 126.46,-59.91"/>
<polygon fill="#757575" stroke="#757575" points="134.39,-61.38 124.26,-58.29 130.25,-67.02 134.39,-61.38"/>
</g>
<!-- lib/types.ts -->
<g id="node24" class="node">
<title>lib/types.ts</title>
<path fill="none" stroke="#c6c5fe" d="M124.74,-64.57C124.74,-64.57 60.08,-64.57 60.08,-64.57 56.24,-64.57 52.41,-60.73 52.41,-56.9 52.41,-56.9 52.41,-49.23 52.41,-49.23 52.41,-45.4 56.24,-41.57 60.08,-41.57 60.08,-41.57 124.74,-41.57 124.74,-41.57 128.58,-41.57 132.41,-45.4 132.41,-49.23 132.41,-49.23 132.41,-56.9 132.41,-56.9 132.41,-60.73 128.58,-64.57 124.74,-64.57"/>
<text text-anchor="middle" x="92.41" y="-49.37" font-family="Arial" font-size="14.00" fill="#c6c5fe">lib/types.ts</text>
</g>
<!-- pages/GameSetup.tsx&#45;&gt;lib/types.ts -->
<g id="edge36" class="edge">
<title>pages/GameSetup.tsx&#45;&gt;lib/types.ts</title>
<path fill="none" stroke="#757575" d="M111.72,-60.27C111.64,-60.24 111.56,-60.21 111.48,-60.17"/>
<polygon fill="#757575" stroke="#757575" points="121.83,-60.3 111.24,-60.08 119.38,-66.86 121.83,-60.3"/>
</g>
<!-- lib/presence.ts -->
<g id="node26" class="node">
<title>lib/presence.ts</title>
<path fill="none" stroke="#c6c5fe" d="M168.75,-61.49C168.75,-61.49 80.09,-61.49 80.09,-61.49 76.25,-61.49 72.42,-57.65 72.42,-53.82 72.42,-53.82 72.42,-46.15 72.42,-46.15 72.42,-42.32 76.25,-38.49 80.09,-38.49 80.09,-38.49 168.75,-38.49 168.75,-38.49 172.59,-38.49 176.42,-42.32 176.42,-46.15 176.42,-46.15 176.42,-53.82 176.42,-53.82 176.42,-57.65 172.59,-61.49 168.75,-61.49"/>
<text text-anchor="middle" x="124.42" y="-46.29" font-family="Arial" font-size="14.00" fill="#c6c5fe">lib/presence.ts</text>
</g>
<!-- pages/GameSetup.tsx&#45;&gt;lib/presence.ts -->
<g id="edge34" class="edge">
<title>pages/GameSetup.tsx&#45;&gt;lib/presence.ts</title>
<path fill="none" stroke="#757575" d="M132.93,-60.14C132.86,-60.06 132.8,-59.98 132.73,-59.9"/>
<polygon fill="#757575" stroke="#757575" points="141.63,-65.07 132.53,-59.65 136.27,-69.57 141.63,-65.07"/>
</g>
<!-- components/ActiveGames.tsx -->
<g id="node10" class="node">
<title>components/ActiveGames.tsx</title>
<path fill="none" stroke="#c6c5fe" d="M215.31,-119.46C215.31,-119.46 33.64,-119.46 33.64,-119.46 29.81,-119.46 25.98,-115.62 25.98,-111.79 25.98,-111.79 25.98,-104.12 25.98,-104.12 25.98,-100.29 29.81,-96.46 33.64,-96.46 33.64,-96.46 215.31,-96.46 215.31,-96.46 219.14,-96.46 222.98,-100.29 222.98,-104.12 222.98,-104.12 222.98,-111.79 222.98,-111.79 222.98,-115.62 219.14,-119.46 215.31,-119.46"/>
<text text-anchor="middle" x="124.48" y="-104.26" font-family="Arial" font-size="14.00" fill="#c6c5fe">components/ActiveGames.tsx</text>
</g>
<!-- pages/Homepage.tsx&#45;&gt;components/ActiveGames.tsx -->
<g id="edge37" class="edge">
<title>pages/Homepage.tsx&#45;&gt;components/ActiveGames.tsx</title>
<path fill="none" stroke="#757575" d="M124.39,-107.98C124.4,-107.97 124.41,-107.97 124.43,-107.97"/>
<polygon fill="#757575" stroke="#757575" points="115.33,-113.36 124.45,-107.96 113.95,-106.5 115.33,-113.36"/>
</g>
<!-- pages/Homepage.tsx&#45;&gt;lib/mutations.ts -->
<g id="edge40" class="edge">
<title>pages/Homepage.tsx&#45;&gt;lib/mutations.ts</title>
<path fill="none" stroke="#757575" d="M132.44,-103.85C132.45,-103.85 132.45,-103.85 132.46,-103.85"/>
<polygon fill="#757575" stroke="#757575" points="124.24,-110.54 132.47,-103.84 121.86,-103.94 124.24,-110.54"/>
</g>
<!-- pages/Homepage.tsx&#45;&gt;components/Alert.tsx -->
<g id="edge38" class="edge">
<title>pages/Homepage.tsx&#45;&gt;components/Alert.tsx</title>
<path fill="none" stroke="#757575" d="M136.06,-97.98C136.13,-97.94 136.2,-97.9 136.26,-97.86"/>
<polygon fill="#757575" stroke="#757575" points="129.63,-105.84 136.46,-97.74 126.07,-99.81 129.63,-105.84"/>
</g>
<!-- components/PasswordModal.tsx -->
<g id="node18" class="node">
<title>components/PasswordModal.tsx</title>
<path fill="none" stroke="#cfffac" d="M216.5,-129.05C216.5,-129.05 19.83,-129.05 19.83,-129.05 16,-129.05 12.16,-125.21 12.16,-121.38 12.16,-121.38 12.16,-113.71 12.16,-113.71 12.16,-109.88 16,-106.05 19.83,-106.05 19.83,-106.05 216.5,-106.05 216.5,-106.05 220.33,-106.05 224.16,-109.88 224.16,-113.71 224.16,-113.71 224.16,-121.38 224.16,-121.38 224.16,-125.21 220.33,-129.05 216.5,-129.05"/>
<text text-anchor="middle" x="118.16" y="-113.85" font-family="Arial" font-size="14.00" fill="#cfffac">components/PasswordModal.tsx</text>
</g>
<!-- pages/Homepage.tsx&#45;&gt;components/PasswordModal.tsx -->
<g id="edge39" class="edge">
<title>pages/Homepage.tsx&#45;&gt;components/PasswordModal.tsx</title>
<path fill="none" stroke="#757575" d="M118.14,-117.46C118.15,-117.47 118.15,-117.49 118.15,-117.5"/>
<polygon fill="#757575" stroke="#757575" points="112.64,-108.47 118.16,-117.52 119.49,-107.01 112.64,-108.47"/>
</g>
<!-- pages/Join.tsx&#45;&gt;lib/mutations.ts -->
<g id="edge43" class="edge">
<title>pages/Join.tsx&#45;&gt;lib/mutations.ts</title>
<path fill="none" stroke="#757575" d="M135.39,-99.46C135.34,-99.54 135.29,-99.62 135.24,-99.69"/>
<polygon fill="#757575" stroke="#757575" points="137.72,-89.66 135.09,-99.92 143.55,-93.54 137.72,-89.66"/>
</g>
<!-- pages/Join.tsx&#45;&gt;components/Alert.tsx -->
<g id="edge41" class="edge">
<title>pages/Join.tsx&#45;&gt;components/Alert.tsx</title>
<path fill="none" stroke="#757575" d="M139.73,-95.75C139.72,-95.76 139.72,-95.77 139.71,-95.79"/>
<polygon fill="#757575" stroke="#757575" points="140.46,-85.24 139.7,-95.81 146.89,-88.02 140.46,-85.24"/>
</g>
<!-- pages/Join.tsx&#45;&gt;lib/supabaseClient.ts -->
<g id="edge44" class="edge">
<title>pages/Join.tsx&#45;&gt;lib/supabaseClient.ts</title>
<path fill="none" stroke="#757575" d="M133.28,-76.15C130.62,-73 127.66,-69.5 124.75,-66.05"/>
<polygon fill="#757575" stroke="#757575" points="127.3,-63.64 118.18,-58.25 121.95,-68.15 127.3,-63.64"/>
</g>
<!-- components/TeamLogoPicker.tsx -->
<g id="node20" class="node">
<title>components/TeamLogoPicker.tsx</title>
<path fill="none" stroke="#c6c5fe" d="M243.88,-91.33C243.88,-91.33 43.21,-91.33 43.21,-91.33 39.38,-91.33 35.54,-87.49 35.54,-83.66 35.54,-83.66 35.54,-75.99 35.54,-75.99 35.54,-72.16 39.38,-68.33 43.21,-68.33 43.21,-68.33 243.88,-68.33 243.88,-68.33 247.71,-68.33 251.54,-72.16 251.54,-75.99 251.54,-75.99 251.54,-83.66 251.54,-83.66 251.54,-87.49 247.71,-91.33 243.88,-91.33"/>
<text text-anchor="middle" x="143.54" y="-76.13" font-family="Arial" font-size="14.00" fill="#c6c5fe">components/TeamLogoPicker.tsx</text>
</g>
<!-- pages/Join.tsx&#45;&gt;components/TeamLogoPicker.tsx -->
<g id="edge42" class="edge">
<title>pages/Join.tsx&#45;&gt;components/TeamLogoPicker.tsx</title>
<path fill="none" stroke="#757575" d="M143.54,-79.92C143.54,-79.9 143.54,-79.89 143.54,-79.88"/>
<polygon fill="#757575" stroke="#757575" points="146.49,-90.03 143.54,-79.85 139.5,-89.65 146.49,-90.03"/>
</g>
<!-- pages/Lobby.tsx&#45;&gt;atoms/index.ts -->
<g id="edge45" class="edge">
<title>pages/Lobby.tsx&#45;&gt;atoms/index.ts</title>
<path fill="none" stroke="#757575" d="M75.9,-83.84C75.9,-83.82 75.9,-83.81 75.89,-83.8"/>
<polygon fill="#757575" stroke="#757575" points="82.16,-92.31 75.88,-83.77 75.46,-94.37 82.16,-92.31"/>
</g>
<!-- lib/types/supabase.ts -->
<g id="node9" class="node">
<title>lib/types/supabase.ts</title>
<path fill="none" stroke="#cfffac" d="M142.85,-79.24C142.85,-79.24 15.18,-79.24 15.18,-79.24 11.35,-79.24 7.52,-75.41 7.52,-71.58 7.52,-71.58 7.52,-63.91 7.52,-63.91 7.52,-60.08 11.35,-56.24 15.18,-56.24 15.18,-56.24 142.85,-56.24 142.85,-56.24 146.68,-56.24 150.52,-60.08 150.52,-63.91 150.52,-63.91 150.52,-71.58 150.52,-71.58 150.52,-75.41 146.68,-79.24 142.85,-79.24"/>
<text text-anchor="middle" x="79.02" y="-64.04" font-family="Arial" font-size="14.00" fill="#cfffac">lib/types/supabase.ts</text>
</g>
<!-- pages/Lobby.tsx&#45;&gt;lib/types/supabase.ts -->
<g id="edge49" class="edge">
<title>pages/Lobby.tsx&#45;&gt;lib/types/supabase.ts</title>
<path fill="none" stroke="#757575" d="M78.65,-80.03C78.66,-79.94 78.66,-79.84 78.66,-79.75"/>
<polygon fill="#757575" stroke="#757575" points="81.87,-89.56 78.67,-79.46 74.87,-89.35 81.87,-89.56"/>
</g>
<!-- pages/Lobby.tsx&#45;&gt;lib/mutations.ts -->
<g id="edge46" class="edge">
<title>pages/Lobby.tsx&#45;&gt;lib/mutations.ts</title>
<path fill="none" stroke="#757575" d="M130.16,-103.32C130.25,-103.34 130.34,-103.36 130.43,-103.38"/>
<polygon fill="#757575" stroke="#757575" points="120.16,-104.67 130.68,-103.43 121.68,-97.84 120.16,-104.67"/>
</g>
<!-- pages/Lobby.tsx&#45;&gt;lib/supabaseClient.ts -->
<g id="edge48" class="edge">
<title>pages/Lobby.tsx&#45;&gt;lib/supabaseClient.ts</title>
<path fill="none" stroke="#757575" d="M86.22,-79.92C88.94,-75.85 92.06,-71.17 95.09,-66.64"/>
<polygon fill="#757575" stroke="#757575" points="98.02,-68.55 100.66,-58.29 92.2,-64.66 98.02,-68.55"/>
</g>
<!-- lib/sessionHooks.ts -->
<g id="node29" class="node">
<title>lib/sessionHooks.ts</title>
<path fill="none" stroke="#c6c5fe" d="M142.8,-111.26C142.8,-111.26 26.13,-111.26 26.13,-111.26 22.3,-111.26 18.47,-107.43 18.47,-103.6 18.47,-103.6 18.47,-95.93 18.47,-95.93 18.47,-92.1 22.3,-88.26 26.13,-88.26 26.13,-88.26 142.8,-88.26 142.8,-88.26 146.63,-88.26 150.47,-92.1 150.47,-95.93 150.47,-95.93 150.47,-103.6 150.47,-103.6 150.47,-107.43 146.63,-111.26 142.8,-111.26"/>
<text text-anchor="middle" x="84.47" y="-96.06" font-family="Arial" font-size="14.00" fill="#c6c5fe">lib/sessionHooks.ts</text>
</g>
<!-- pages/Lobby.tsx&#45;&gt;lib/sessionHooks.ts -->
<g id="edge47" class="edge">
<title>pages/Lobby.tsx&#45;&gt;lib/sessionHooks.ts</title>
<path fill="none" stroke="#757575" d="M84.4,-99.67C84.41,-99.69 84.42,-99.7 84.43,-99.71"/>
<polygon fill="#757575" stroke="#757575" points="75.56,-93.95 84.45,-99.74 81.12,-89.67 75.56,-93.95"/>
</g>
<!-- pages/Quiz.tsx&#45;&gt;lib/mutations.ts -->
<g id="edge50" class="edge">
<title>pages/Quiz.tsx&#45;&gt;lib/mutations.ts</title>
<path fill="none" stroke="#757575" d="M132.41,-103.85C132.43,-103.85 132.44,-103.85 132.44,-103.85"/>
<polygon fill="#757575" stroke="#757575" points="123.68,-109.78 132.47,-103.84 121.89,-103 123.68,-109.78"/>
</g>
<!-- pages/Quiz.tsx&#45;&gt;lib/types.ts -->
<g id="edge53" class="edge">
<title>pages/Quiz.tsx&#45;&gt;lib/types.ts</title>
<path fill="none" stroke="#757575" d="M105.22,-98.53C103.26,-91.58 100.7,-82.51 98.39,-74.3"/>
<polygon fill="#757575" stroke="#757575" points="101.74,-73.26 95.65,-64.58 95,-75.16 101.74,-73.26"/>
</g>
<!-- lib/realtimeHooks.ts -->
<g id="node27" class="node">
<title>lib/realtimeHooks.ts</title>
<path fill="none" stroke="#c6c5fe" d="M160.24,-60.11C160.24,-60.11 40.58,-60.11 40.58,-60.11 36.74,-60.11 32.91,-56.27 32.91,-52.44 32.91,-52.44 32.91,-44.77 32.91,-44.77 32.91,-40.94 36.74,-37.11 40.58,-37.11 40.58,-37.11 160.24,-37.11 160.24,-37.11 164.08,-37.11 167.91,-40.94 167.91,-44.77 167.91,-44.77 167.91,-52.44 167.91,-52.44 167.91,-56.27 164.08,-60.11 160.24,-60.11"/>
<text text-anchor="middle" x="100.41" y="-44.91" font-family="Arial" font-size="14.00" fill="#c6c5fe">lib/realtimeHooks.ts</text>
</g>
<!-- pages/Quiz.tsx&#45;&gt;lib/realtimeHooks.ts -->
<g id="edge51" class="edge">
<title>pages/Quiz.tsx&#45;&gt;lib/realtimeHooks.ts</title>
<path fill="none" stroke="#757575" d="M106.95,-98.51C105.91,-90.52 104.48,-79.67 103.23,-70.12"/>
<polygon fill="#757575" stroke="#757575" points="106.69,-69.57 101.92,-60.11 99.75,-70.48 106.69,-69.57"/>
</g>
<!-- pages/Quiz.tsx&#45;&gt;lib/sessionHooks.ts -->
<g id="edge52" class="edge">
<title>pages/Quiz.tsx&#45;&gt;lib/sessionHooks.ts</title>
<path fill="none" stroke="#757575" d="M84.53,-99.79C84.52,-99.79 84.51,-99.78 84.5,-99.78"/>
<polygon fill="#757575" stroke="#757575" points="95.06,-100.52 84.48,-99.77 92.29,-106.96 95.06,-100.52"/>
</g>
<!-- pages/Results.tsx&#45;&gt;lib/mutations.ts -->
<g id="edge54" class="edge">
<title>pages/Results.tsx&#45;&gt;lib/mutations.ts</title>
<path fill="none" stroke="#757575" d="M132.37,-103.84C132.39,-103.84 132.4,-103.84 132.42,-103.84"/>
<polygon fill="#757575" stroke="#757575" points="122.62,-107.79 132.45,-103.84 122.3,-100.8 122.62,-107.79"/>
</g>
<!-- pages/Results.tsx&#45;&gt;lib/supabaseClient.ts -->
<g id="edge56" class="edge">
<title>pages/Results.tsx&#45;&gt;lib/supabaseClient.ts</title>
<path fill="none" stroke="#757575" d="M95.62,-93.93C97.61,-86.59 100.23,-76.89 102.59,-68.18"/>
<polygon fill="#757575" stroke="#757575" points="106.04,-68.86 105.27,-58.29 99.28,-67.03 106.04,-68.86"/>
</g>
<!-- pages/Results.tsx&#45;&gt;lib/sessionHooks.ts -->
<g id="edge55" class="edge">
<title>pages/Results.tsx&#45;&gt;lib/sessionHooks.ts</title>
<path fill="none" stroke="#757575" d="M84.56,-99.83C84.54,-99.82 84.53,-99.81 84.52,-99.8"/>
<polygon fill="#757575" stroke="#757575" points="94.65,-102.82 84.49,-99.78 90.54,-108.49 94.65,-102.82"/>
</g>
<!-- atoms/index.ts&#45;&gt;lib/types/supabase.ts -->
<g id="edge7" class="edge">
<title>atoms/index.ts&#45;&gt;lib/types/supabase.ts</title>
<path fill="none" stroke="#757575" d="M78.16,-72.12C78.17,-72.04 78.19,-71.96 78.2,-71.89"/>
<polygon fill="#757575" stroke="#757575" points="79.75,-82.15 78.25,-71.66 72.88,-80.8 79.75,-82.15"/>
</g>
<!-- components/ActiveGames.tsx&#45;&gt;lib/mutations.ts -->
<g id="edge8" class="edge">
<title>components/ActiveGames.tsx&#45;&gt;lib/mutations.ts</title>
<path fill="none" stroke="#757575" d="M132.39,-103.88C132.41,-103.88 132.42,-103.87 132.43,-103.86"/>
<polygon fill="#757575" stroke="#757575" points="125.17,-111.56 132.46,-103.85 121.96,-105.33 125.17,-111.56"/>
</g>
<!-- lib/mutations.ts&#45;&gt;lib/supabaseClient.ts -->
<g id="edge18" class="edge">
<title>lib/mutations.ts&#45;&gt;lib/supabaseClient.ts</title>
<path fill="none" stroke="#757575" d="M127.61,-92.27C124.64,-85.22 120.76,-76 117.26,-67.7"/>
<polygon fill="#757575" stroke="#757575" points="120.39,-66.09 113.28,-58.23 113.93,-68.81 120.39,-66.09"/>
</g>
<!-- lib/mutations.ts&#45;&gt;lib/types.ts -->
<g id="edge19" class="edge">
<title>lib/mutations.ts&#45;&gt;lib/types.ts</title>
<path fill="none" stroke="#757575" d="M123.39,-92.32C118.84,-86.56 113.21,-79.42 108,-72.82"/>
<polygon fill="#757575" stroke="#757575" points="110.69,-70.57 101.74,-64.89 105.19,-74.91 110.69,-70.57"/>
</g>
<!-- components/Flag.tsx -->
<g id="node13" class="node">
<title>components/Flag.tsx</title>
<path fill="none" stroke="#c6c5fe" d="M350.63,-23C350.63,-23 223.96,-23 223.96,-23 220.13,-23 216.29,-19.17 216.29,-15.33 216.29,-15.33 216.29,-7.67 216.29,-7.67 216.29,-3.83 220.13,0 223.96,0 223.96,0 350.63,0 350.63,0 354.46,0 358.29,-3.83 358.29,-7.67 358.29,-7.67 358.29,-15.33 358.29,-15.33 358.29,-19.17 354.46,-23 350.63,-23"/>
<text text-anchor="middle" x="287.29" y="-7.8" font-family="Arial" font-size="14.00" fill="#c6c5fe">components/Flag.tsx</text>
</g>
<!-- lib/flagIcons.ts -->
<g id="node14" class="node">
<title>lib/flagIcons.ts</title>
<path fill="none" stroke="#cfffac" d="M338.63,-23C338.63,-23 251.96,-23 251.96,-23 248.13,-23 244.29,-19.17 244.29,-15.33 244.29,-15.33 244.29,-7.67 244.29,-7.67 244.29,-3.83 248.13,0 251.96,0 251.96,0 338.63,0 338.63,0 342.46,0 346.29,-3.83 346.29,-7.67 346.29,-7.67 346.29,-15.33 346.29,-15.33 346.29,-19.17 342.46,-23 338.63,-23"/>
<text text-anchor="middle" x="295.29" y="-7.8" font-family="Arial" font-size="14.00" fill="#cfffac">lib/flagIcons.ts</text>
</g>
<!-- components/Flag.tsx&#45;&gt;lib/flagIcons.ts -->
<g id="edge9" class="edge">
<title>components/Flag.tsx&#45;&gt;lib/flagIcons.ts</title>
<path fill="none" stroke="#757575" d="M295.2,-11.5C295.22,-11.5 295.23,-11.5 295.24,-11.5"/>
<polygon fill="#757575" stroke="#757575" points="285.28,-15.04 295.27,-11.5 285.26,-8.04 285.28,-15.04"/>
</g>
<!-- components/LobbyStatus.tsx&#45;&gt;lib/supabaseClient.ts -->
<g id="edge10" class="edge">
<title>components/LobbyStatus.tsx&#45;&gt;lib/supabaseClient.ts</title>
<path fill="none" stroke="#757575" d="M118.45,-52.3C118.41,-52.27 118.37,-52.25 118.32,-52.22"/>
<polygon fill="#757575" stroke="#757575" points="128.63,-53.98 118.19,-52.15 125.21,-60.09 128.63,-53.98"/>
</g>
<!-- components/PasswordModal.test.tsx -->
<g id="node17" class="node">
<title>components/PasswordModal.test.tsx</title>
<path fill="none" stroke="#c6c5fe" d="M230.33,-137.3C230.33,-137.3 7.67,-137.3 7.67,-137.3 3.83,-137.3 0,-133.47 0,-129.64 0,-129.64 0,-121.97 0,-121.97 0,-118.14 3.83,-114.3 7.67,-114.3 7.67,-114.3 230.33,-114.3 230.33,-114.3 234.17,-114.3 238,-118.14 238,-121.97 238,-121.97 238,-129.64 238,-129.64 238,-133.47 234.17,-137.3 230.33,-137.3"/>
<text text-anchor="middle" x="119" y="-122.1" font-family="Arial" font-size="14.00" fill="#c6c5fe">components/PasswordModal.test.tsx</text>
</g>
<!-- components/PasswordModal.test.tsx&#45;&gt;components/PasswordModal.tsx -->
<g id="edge11" class="edge">
<title>components/PasswordModal.test.tsx&#45;&gt;components/PasswordModal.tsx</title>
<path fill="none" stroke="#757575" d="M118.17,-117.64C118.17,-117.63 118.17,-117.61 118.17,-117.6"/>
<polygon fill="#757575" stroke="#757575" points="122.69,-127.16 118.17,-117.57 115.72,-127.88 122.69,-127.16"/>
</g>
<!-- components/TeamLogoPicker.test.tsx -->
<g id="node19" class="node">
<title>components/TeamLogoPicker.test.tsx</title>
<path fill="none" stroke="#c6c5fe" d="M264.9,-91.32C264.9,-91.32 38.23,-91.32 38.23,-91.32 34.4,-91.32 30.57,-87.48 30.57,-83.65 30.57,-83.65 30.57,-75.98 30.57,-75.98 30.57,-72.15 34.4,-68.32 38.23,-68.32 38.23,-68.32 264.9,-68.32 264.9,-68.32 268.73,-68.32 272.57,-72.15 272.57,-75.98 272.57,-75.98 272.57,-83.65 272.57,-83.65 272.57,-87.48 268.73,-91.32 264.9,-91.32"/>
<text text-anchor="middle" x="151.57" y="-76.12" font-family="Arial" font-size="14.00" fill="#c6c5fe">components/TeamLogoPicker.test.tsx</text>
</g>
<!-- components/TeamLogoPicker.test.tsx&#45;&gt;components/TeamLogoPicker.tsx -->
<g id="edge12" class="edge">
<title>components/TeamLogoPicker.test.tsx&#45;&gt;components/TeamLogoPicker.tsx</title>
<path fill="none" stroke="#757575" d="M143.63,-79.83C143.62,-79.83 143.6,-79.83 143.59,-79.83"/>
<polygon fill="#757575" stroke="#757575" points="153.55,-76.28 143.56,-79.83 153.58,-83.28 153.55,-76.28"/>
</g>
<!-- components/TeamLogoPicker.tsx&#45;&gt;lib/supabaseClient.ts -->
<g id="edge13" class="edge">
<title>components/TeamLogoPicker.tsx&#45;&gt;lib/supabaseClient.ts</title>
<path fill="none" stroke="#757575" d="M131.26,-68.24C130.32,-67.35 129.36,-66.45 128.4,-65.54"/>
<polygon fill="#757575" stroke="#757575" points="130.67,-62.87 120.99,-58.55 125.86,-67.96 130.67,-62.87"/>
</g>
<!-- index.css -->
<g id="node21" class="node">
<title>index.css</title>
<path fill="none" stroke="#cfffac" d="M123.93,-134.24C123.93,-134.24 66.27,-134.24 66.27,-134.24 62.43,-134.24 58.6,-130.41 58.6,-126.58 58.6,-126.58 58.6,-118.91 58.6,-118.91 58.6,-115.08 62.43,-111.24 66.27,-111.24 66.27,-111.24 123.93,-111.24 123.93,-111.24 127.77,-111.24 131.6,-115.08 131.6,-118.91 131.6,-118.91 131.6,-126.58 131.6,-126.58 131.6,-130.41 127.77,-134.24 123.93,-134.24"/>
<text text-anchor="middle" x="95.1" y="-119.04" font-family="Arial" font-size="14.00" fill="#cfffac">index.css</text>
</g>
<!-- lib/createSession.test.ts -->
<g id="node22" class="node">
<title>lib/createSession.test.ts</title>
<path fill="none" stroke="#c6c5fe" d="M204.26,-67.32C204.26,-67.32 60.59,-67.32 60.59,-67.32 56.76,-67.32 52.92,-63.49 52.92,-59.65 52.92,-59.65 52.92,-51.99 52.92,-51.99 52.92,-48.15 56.76,-44.32 60.59,-44.32 60.59,-44.32 204.26,-44.32 204.26,-44.32 208.09,-44.32 211.92,-48.15 211.92,-51.99 211.92,-51.99 211.92,-59.65 211.92,-59.65 211.92,-63.49 208.09,-67.32 204.26,-67.32"/>
<text text-anchor="middle" x="132.42" y="-52.12" font-family="Arial" font-size="14.00" fill="#c6c5fe">lib/createSession.test.ts</text>
</g>
<!-- lib/createSession.test.ts&#45;&gt;lib/mutations.ts -->
<g id="edge14" class="edge">
<title>lib/createSession.test.ts&#45;&gt;lib/mutations.ts</title>
<path fill="none" stroke="#757575" d="M132.44,-67.44C132.44,-71.81 132.45,-76.92 132.46,-81.92"/>
<polygon fill="#757575" stroke="#757575" points="128.96,-82.32 132.47,-92.32 135.96,-82.32 128.96,-82.32"/>
</g>
<!-- lib/createSession.test.ts&#45;&gt;lib/supabaseClient.ts -->
<g id="edge15" class="edge">
<title>lib/createSession.test.ts&#45;&gt;lib/supabaseClient.ts</title>
<path fill="none" stroke="#757575" d="M108.48,-46.71C108.47,-46.71 108.46,-46.7 108.45,-46.7"/>
<polygon fill="#757575" stroke="#757575" points="119.04,-47 108.43,-46.69 116.53,-53.55 119.04,-47"/>
</g>
<!-- lib/mutations.test.ts -->
<g id="node23" class="node">
<title>lib/mutations.test.ts</title>
<path fill="none" stroke="#c6c5fe" d="M143.24,-71.24C143.24,-71.24 25.57,-71.24 25.57,-71.24 21.74,-71.24 17.91,-67.41 17.91,-63.58 17.91,-63.58 17.91,-55.91 17.91,-55.91 17.91,-52.08 21.74,-48.24 25.57,-48.24 25.57,-48.24 143.24,-48.24 143.24,-48.24 147.07,-48.24 150.91,-52.08 150.91,-55.91 150.91,-55.91 150.91,-63.58 150.91,-63.58 150.91,-67.41 147.07,-71.24 143.24,-71.24"/>
<text text-anchor="middle" x="84.41" y="-56.04" font-family="Arial" font-size="14.00" fill="#c6c5fe">lib/mutations.test.ts</text>
</g>
<!-- lib/mutations.test.ts&#45;&gt;lib/mutations.ts -->
<g id="edge16" class="edge">
<title>lib/mutations.test.ts&#45;&gt;lib/mutations.ts</title>
<path fill="none" stroke="#757575" d="M97.04,-71.33C101.64,-75.55 106.97,-80.43 112.07,-85.11"/>
<polygon fill="#757575" stroke="#757575" points="110.03,-88 119.77,-92.18 114.77,-82.84 110.03,-88"/>
</g>
<!-- lib/mutations.test.ts&#45;&gt;lib/types.ts -->
<g id="edge17" class="edge">
<title>lib/mutations.test.ts&#45;&gt;lib/types.ts</title>
<path fill="none" stroke="#757575" d="M92.32,-53.14C92.33,-53.13 92.35,-53.12 92.36,-53.11"/>
<polygon fill="#757575" stroke="#757575" points="86.95,-62.19 92.39,-53.08 82.46,-56.81 86.95,-62.19"/>
</g>
<!-- lib/types/index.ts -->
<g id="node30" class="node">
<title>lib/types/index.ts</title>
<path fill="none" stroke="#c6c5fe" d="M126.19,-87.24C126.19,-87.24 25.53,-87.24 25.53,-87.24 21.69,-87.24 17.86,-83.41 17.86,-79.58 17.86,-79.58 17.86,-71.91 17.86,-71.91 17.86,-68.08 21.69,-64.24 25.53,-64.24 25.53,-64.24 126.19,-64.24 126.19,-64.24 130.03,-64.24 133.86,-68.08 133.86,-71.91 133.86,-71.91 133.86,-79.58 133.86,-79.58 133.86,-83.41 130.03,-87.24 126.19,-87.24"/>
<text text-anchor="middle" x="75.86" y="-72.04" font-family="Arial" font-size="14.00" fill="#c6c5fe">lib/types/index.ts</text>
</g>
<!-- lib/types.ts&#45;&gt;lib/types/index.ts -->
<g id="edge26" class="edge">
<title>lib/types.ts&#45;&gt;lib/types/index.ts</title>
<path fill="none" stroke="#757575" d="M83.94,-64.67C83.91,-64.71 83.88,-64.76 83.85,-64.8"/>
<polygon fill="#757575" stroke="#757575" points="86.82,-54.79 83.75,-64.93 92.47,-58.92 86.82,-54.79"/>
</g>
<!-- lib/mutations.validation.ts -->
<g id="node25" class="node">
<title>lib/mutations.validation.ts</title>
<path fill="none" stroke="#cfffac" d="M376.22,-191C376.22,-191 223.55,-191 223.55,-191 219.72,-191 215.88,-187.17 215.88,-183.33 215.88,-183.33 215.88,-175.67 215.88,-175.67 215.88,-171.83 219.72,-168 223.55,-168 223.55,-168 376.22,-168 376.22,-168 380.05,-168 383.88,-171.83 383.88,-175.67 383.88,-175.67 383.88,-183.33 383.88,-183.33 383.88,-187.17 380.05,-191 376.22,-191"/>
<text text-anchor="middle" x="299.88" y="-175.8" font-family="Arial" font-size="14.00" fill="#cfffac">lib/mutations.validation.ts</text>
</g>
<!-- lib/presence.ts&#45;&gt;lib/supabaseClient.ts -->
<g id="edge20" class="edge">
<title>lib/presence.ts&#45;&gt;lib/supabaseClient.ts</title>
<path fill="none" stroke="#757575" d="M108.46,-46.69C108.45,-46.69 108.45,-46.69 108.44,-46.69"/>
<polygon fill="#757575" stroke="#757575" points="118.95,-45.33 108.43,-46.69 117.5,-52.19 118.95,-45.33"/>
</g>
<!-- lib/realtimeHooks.ts&#45;&gt;lib/supabaseClient.ts -->
<g id="edge21" class="edge">
<title>lib/realtimeHooks.ts&#45;&gt;lib/supabaseClient.ts</title>
<path fill="none" stroke="#757575" d="M108.33,-46.71C108.34,-46.7 108.35,-46.7 108.36,-46.7"/>
<polygon fill="#757575" stroke="#757575" points="99.49,-52.45 108.39,-46.69 97.84,-45.65 99.49,-52.45"/>
</g>
<!-- lib/realtimeHooks.ts&#45;&gt;lib/types.ts -->
<g id="edge22" class="edge">
<title>lib/realtimeHooks.ts&#45;&gt;lib/types.ts</title>
<path fill="none" stroke="#757575" d="M92.5,-53.02C92.48,-53.02 92.47,-53.03 92.46,-53.04"/>
<polygon fill="#757575" stroke="#757575" points="99.46,-45.11 92.43,-53.05 102.88,-51.23 99.46,-45.11"/>
</g>
<!-- lib/sessionCode.test.ts -->
<g id="node28" class="node">
<title>lib/sessionCode.test.ts</title>
<path fill="none" stroke="#c6c5fe" d="M184.75,-58.6C184.75,-58.6 48.09,-58.6 48.09,-58.6 44.25,-58.6 40.42,-54.77 40.42,-50.94 40.42,-50.94 40.42,-43.27 40.42,-43.27 40.42,-39.44 44.25,-35.6 48.09,-35.6 48.09,-35.6 184.75,-35.6 184.75,-35.6 188.59,-35.6 192.42,-39.44 192.42,-43.27 192.42,-43.27 192.42,-50.94 192.42,-50.94 192.42,-54.77 188.59,-58.6 184.75,-58.6"/>
<text text-anchor="middle" x="116.42" y="-43.4" font-family="Arial" font-size="14.00" fill="#c6c5fe">lib/sessionCode.test.ts</text>
</g>
<!-- lib/sessionCode.test.ts&#45;&gt;lib/mutations.ts -->
<g id="edge23" class="edge">
<title>lib/sessionCode.test.ts&#45;&gt;lib/mutations.ts</title>
<path fill="none" stroke="#757575" d="M119.75,-58.86C121.66,-65.63 124.13,-74.35 126.39,-82.3"/>
<polygon fill="#757575" stroke="#757575" points="123.07,-83.43 129.16,-92.1 129.8,-81.52 123.07,-83.43"/>
</g>
<!-- lib/sessionCode.test.ts&#45;&gt;lib/supabaseClient.ts -->
<g id="edge24" class="edge">
<title>lib/sessionCode.test.ts&#45;&gt;lib/supabaseClient.ts</title>
<path fill="none" stroke="#757575" d="M108.51,-46.69C108.49,-46.69 108.48,-46.69 108.47,-46.69"/>
<polygon fill="#757575" stroke="#757575" points="118.62,-43.75 108.44,-46.69 118.23,-50.74 118.62,-43.75"/>
</g>
<!-- lib/sessionHooks.ts&#45;&gt;lib/supabaseClient.ts -->
<g id="edge25" class="edge">
<title>lib/sessionHooks.ts&#45;&gt;lib/supabaseClient.ts</title>
<path fill="none" stroke="#757575" d="M89.66,-88.25C92.32,-82.35 95.65,-74.97 98.76,-68.08"/>
<polygon fill="#757575" stroke="#757575" points="102.14,-69.1 103.06,-58.55 95.76,-66.22 102.14,-69.1"/>
</g>
<!-- lib/types/index.ts&#45;&gt;lib/types/supabase.ts -->
<g id="edge27" class="edge">
<title>lib/types/index.ts&#45;&gt;lib/types/supabase.ts</title>
<path fill="none" stroke="#757575" d="M78.98,-67.83C78.99,-67.82 78.99,-67.81 79,-67.8"/>
<polygon fill="#757575" stroke="#757575" points="78.57,-78.36 79.01,-67.77 72.06,-75.78 78.57,-78.36"/>
</g>
<!-- main.tsx -->
<g id="node31" class="node">
<title>main.tsx</title>
<path fill="none" stroke="#c6c5fe" d="M124.6,-126.24C124.6,-126.24 71.94,-126.24 71.94,-126.24 68.1,-126.24 64.27,-122.4 64.27,-118.57 64.27,-118.57 64.27,-110.9 64.27,-110.9 64.27,-107.07 68.1,-103.24 71.94,-103.24 71.94,-103.24 124.6,-103.24 124.6,-103.24 128.44,-103.24 132.27,-107.07 132.27,-110.9 132.27,-110.9 132.27,-118.57 132.27,-118.57 132.27,-122.4 128.44,-126.24 124.6,-126.24"/>
<text text-anchor="middle" x="98.27" y="-111.04" font-family="Arial" font-size="14.00" fill="#c6c5fe">main.tsx</text>
</g>
<!-- main.tsx&#45;&gt;App.tsx -->
<g id="edge28" class="edge">
<title>main.tsx&#45;&gt;App.tsx</title>
<path fill="none" stroke="#757575" d="M100.44,-106.82C100.45,-106.8 100.45,-106.79 100.45,-106.78"/>
<polygon fill="#757575" stroke="#757575" points="101.17,-117.33 100.46,-106.75 94.42,-115.46 101.17,-117.33"/>
</g>
<!-- main.tsx&#45;&gt;index.css -->
<g id="edge29" class="edge">
<title>main.tsx&#45;&gt;index.css</title>
<path fill="none" stroke="#757575" d="M95.13,-122.65C95.13,-122.67 95.12,-122.68 95.12,-122.69"/>
<polygon fill="#757575" stroke="#757575" points="95.56,-112.13 95.11,-122.72 102.07,-114.72 95.56,-112.13"/>
</g>
<!-- setupTests.ts -->
<g id="node32" class="node">
<title>setupTests.ts</title>
<path fill="none" stroke="#cfffac" d="M183.72,-191C183.72,-191 104.05,-191 104.05,-191 100.22,-191 96.38,-187.17 96.38,-183.33 96.38,-183.33 96.38,-175.67 96.38,-175.67 96.38,-171.83 100.22,-168 104.05,-168 104.05,-168 183.72,-168 183.72,-168 187.55,-168 191.38,-171.83 191.38,-175.67 191.38,-175.67 191.38,-183.33 191.38,-183.33 191.38,-187.17 187.55,-191 183.72,-191"/>
<text text-anchor="middle" x="143.88" y="-175.8" font-family="Arial" font-size="14.00" fill="#cfffac">setupTests.ts</text>
</g>
</g>
</svg>
