<?xml version="1.0" encoding="UTF-8" standalone="no"?>
<!DOCTYPE svg PUBLIC "-//W3C//DTD SVG 1.1//EN"
 "http://www.w3.org/Graphics/SVG/1.1/DTD/svg11.dtd">
<!-- Generated by graphviz version 2.43.0 (0)
 -->
<!-- Title: G Pages: 1 -->
<svg width="1494pt" height="1505pt"
 viewBox="0.00 0.00 1494.20 1504.57" xmlns="http://www.w3.org/2000/svg" xmlns:xlink="http://www.w3.org/1999/xlink">
<g id="graph0" class="graph" transform="scale(1 1) rotate(0) translate(21.6 1482.97)">
<title>G</title>
<polygon fill="#111111" stroke="transparent" points="-21.6,21.6 -21.6,-1482.97 1472.6,-1482.97 1472.6,21.6 -21.6,21.6"/>
<!-- ../atoms/index.ts -->
<g id="node1" class="node">
<title>../atoms/index.ts</title>
<path fill="none" stroke="#c6c5fe" d="M329.33,-1285C329.33,-1285 228.67,-1285 228.67,-1285 224.83,-1285 221,-1281.17 221,-1277.33 221,-1277.33 221,-1269.67 221,-1269.67 221,-1265.83 224.83,-1262 228.67,-1262 228.67,-1262 329.33,-1262 329.33,-1262 333.17,-1262 337,-1265.83 337,-1269.67 337,-1269.67 337,-1277.33 337,-1277.33 337,-1281.17 333.17,-1285 329.33,-1285"/>
<text text-anchor="middle" x="279" y="-1269.8" font-family="Arial" font-size="14.00" fill="#c6c5fe">../atoms/index.ts</text>
</g>
<!-- ../lib/types/supabase.ts -->
<g id="node2" class="node">
<title>../lib/types/supabase.ts</title>
<path fill="none" stroke="#cfffac" d="M1443.33,-1358C1443.33,-1358 1304.67,-1358 1304.67,-1358 1300.83,-1358 1297,-1354.17 1297,-1350.33 1297,-1350.33 1297,-1342.67 1297,-1342.67 1297,-1338.83 1300.83,-1335 1304.67,-1335 1304.67,-1335 1443.33,-1335 1443.33,-1335 1447.17,-1335 1451,-1338.83 1451,-1342.67 1451,-1342.67 1451,-1350.33 1451,-1350.33 1451,-1354.17 1447.17,-1358 1443.33,-1358"/>
<text text-anchor="middle" x="1374" y="-1342.8" font-family="Arial" font-size="14.00" fill="#cfffac">../lib/types/supabase.ts</text>
</g>
<!-- ../atoms/index.ts&#45;&gt;../lib/types/supabase.ts -->
<g id="edge1" class="edge">
<title>../atoms/index.ts&#45;&gt;../lib/types/supabase.ts</title>
<path fill="none" stroke="#757575" d="M296.55,-1285.19C325.46,-1304.89 387.76,-1344.15 447,-1360.5 623.38,-1409.18 675.02,-1384.5 858,-1384.5 858,-1384.5 858,-1384.5 1050,-1384.5 1137.09,-1384.5 1236.5,-1370.7 1301.76,-1359.74"/>
<polygon fill="#757575" stroke="#757575" points="1302.66,-1363.13 1311.93,-1358 1301.49,-1356.23 1302.66,-1363.13"/>
</g>
<!-- ../components/ActiveGames.tsx -->
<g id="node3" class="node">
<title>../components/ActiveGames.tsx</title>
<path fill="none" stroke="#c6c5fe" d="M375.83,-496C375.83,-496 182.17,-496 182.17,-496 178.33,-496 174.5,-492.17 174.5,-488.33 174.5,-488.33 174.5,-480.67 174.5,-480.67 174.5,-476.83 178.33,-473 182.17,-473 182.17,-473 375.83,-473 375.83,-473 379.67,-473 383.5,-476.83 383.5,-480.67 383.5,-480.67 383.5,-488.33 383.5,-488.33 383.5,-492.17 379.67,-496 375.83,-496"/>
<text text-anchor="middle" x="279" y="-480.8" font-family="Arial" font-size="14.00" fill="#c6c5fe">../components/ActiveGames.tsx</text>
</g>
<!-- ../lib/logger.ts -->
<g id="node4" class="node">
<title>../lib/logger.ts</title>
<path fill="none" stroke="#cfffac" d="M1089.33,-850C1089.33,-850 1008.67,-850 1008.67,-850 1004.83,-850 1001,-846.17 1001,-842.33 1001,-842.33 1001,-834.67 1001,-834.67 1001,-830.83 1004.83,-827 1008.67,-827 1008.67,-827 1089.33,-827 1089.33,-827 1093.17,-827 1097,-830.83 1097,-834.67 1097,-834.67 1097,-842.33 1097,-842.33 1097,-846.17 1093.17,-850 1089.33,-850"/>
<text text-anchor="middle" x="1049" y="-834.8" font-family="Arial" font-size="14.00" fill="#cfffac">../lib/logger.ts</text>
</g>
<!-- ../components/ActiveGames.tsx&#45;&gt;../lib/logger.ts -->
<g id="edge2" class="edge">
<title>../components/ActiveGames.tsx&#45;&gt;../lib/logger.ts</title>
<path fill="none" stroke="#757575" d="M353.31,-473C490.75,-455.83 789.11,-439.99 965,-590.5 1034.13,-649.65 1045.89,-768.16 1047.74,-816.85"/>
<polygon fill="#757575" stroke="#757575" points="1044.24,-817 1048.01,-826.9 1051.24,-816.81 1044.24,-817"/>
</g>
<!-- ../lib/mutations.ts -->
<g id="node5" class="node">
<title>../lib/mutations.ts</title>
<path fill="none" stroke="#c6c5fe" d="M633.83,-736C633.83,-736 530.17,-736 530.17,-736 526.33,-736 522.5,-732.17 522.5,-728.33 522.5,-728.33 522.5,-720.67 522.5,-720.67 522.5,-716.83 526.33,-713 530.17,-713 530.17,-713 633.83,-713 633.83,-713 637.67,-713 641.5,-716.83 641.5,-720.67 641.5,-720.67 641.5,-728.33 641.5,-728.33 641.5,-732.17 637.67,-736 633.83,-736"/>
<text text-anchor="middle" x="582" y="-720.8" font-family="Arial" font-size="14.00" fill="#c6c5fe">../lib/mutations.ts</text>
</g>
<!-- ../components/ActiveGames.tsx&#45;&gt;../lib/mutations.ts -->
<g id="edge3" class="edge">
<title>../components/ActiveGames.tsx&#45;&gt;../lib/mutations.ts</title>
<path fill="none" stroke="#757575" d="M301.79,-496.01C330.28,-512.03 380.18,-543.51 411,-582.5 435.93,-614.04 418.65,-636.99 447,-665.5 467.82,-686.44 497.34,-700.52 523.37,-709.66"/>
<polygon fill="#757575" stroke="#757575" points="522.56,-713.08 533.15,-712.92 524.77,-706.44 522.56,-713.08"/>
</g>
<!-- ../lib/mutations.ts&#45;&gt;../lib/logger.ts -->
<g id="edge25" class="edge">
<title>../lib/mutations.ts&#45;&gt;../lib/logger.ts</title>
<path fill="none" stroke="#757575" d="M641.51,-730.72C665.52,-734.57 693.22,-740.73 717,-750.5 734.79,-757.81 735.26,-767.08 753,-774.5 841.77,-811.65 871.1,-797.45 965,-818.5 973.51,-820.41 982.5,-822.5 991.29,-824.58"/>
<polygon fill="#757575" stroke="#757575" points="990.55,-828 1001.09,-826.92 992.18,-821.19 990.55,-828"/>
</g>
<!-- ../lib/supabaseClient.ts -->
<g id="node13" class="node">
<title>../lib/supabaseClient.ts</title>
<path fill="none" stroke="#cfffac" d="M927.33,-850C927.33,-850 790.67,-850 790.67,-850 786.83,-850 783,-846.17 783,-842.33 783,-842.33 783,-834.67 783,-834.67 783,-830.83 786.83,-827 790.67,-827 790.67,-827 927.33,-827 927.33,-827 931.17,-827 935,-830.83 935,-834.67 935,-834.67 935,-842.33 935,-842.33 935,-846.17 931.17,-850 927.33,-850"/>
<text text-anchor="middle" x="859" y="-834.8" font-family="Arial" font-size="14.00" fill="#cfffac">../lib/supabaseClient.ts</text>
</g>
<!-- ../lib/mutations.ts&#45;&gt;../lib/supabaseClient.ts -->
<g id="edge26" class="edge">
<title>../lib/mutations.ts&#45;&gt;../lib/supabaseClient.ts</title>
<path fill="none" stroke="#757575" d="M641.63,-725.29C666.77,-728.16 695.27,-735.05 717,-750.5 742.97,-768.97 727.51,-793.38 753,-812.5 759.23,-817.18 766.2,-821.02 773.5,-824.18"/>
<polygon fill="#757575" stroke="#757575" points="772.32,-827.47 782.91,-827.82 774.85,-820.94 772.32,-827.47"/>
</g>
<!-- ../lib/dailyTokenManager.ts -->
<g id="node23" class="node">
<title>../lib/dailyTokenManager.ts</title>
<path fill="none" stroke="#c6c5fe" d="M939.33,-732C939.33,-732 778.67,-732 778.67,-732 774.83,-732 771,-728.17 771,-724.33 771,-724.33 771,-716.67 771,-716.67 771,-712.83 774.83,-709 778.67,-709 778.67,-709 939.33,-709 939.33,-709 943.17,-709 947,-712.83 947,-716.67 947,-716.67 947,-724.33 947,-724.33 947,-728.17 943.17,-732 939.33,-732"/>
<text text-anchor="middle" x="859" y="-716.8" font-family="Arial" font-size="14.00" fill="#c6c5fe">../lib/dailyTokenManager.ts</text>
</g>
<!-- ../lib/mutations.ts&#45;&gt;../lib/dailyTokenManager.ts -->
<g id="edge24" class="edge">
<title>../lib/mutations.ts&#45;&gt;../lib/dailyTokenManager.ts</title>
<path fill="none" stroke="#757575" d="M641.66,-723.65C676.34,-723.14 721.13,-722.49 760.95,-721.91"/>
<polygon fill="#757575" stroke="#757575" points="761.01,-725.41 770.96,-721.77 760.91,-718.41 761.01,-725.41"/>
</g>
<!-- ../lib/types.ts -->
<g id="node24" class="node">
<title>../lib/types.ts</title>
<path fill="none" stroke="#c6c5fe" d="M1087.33,-442C1087.33,-442 1010.67,-442 1010.67,-442 1006.83,-442 1003,-438.17 1003,-434.33 1003,-434.33 1003,-426.67 1003,-426.67 1003,-422.83 1006.83,-419 1010.67,-419 1010.67,-419 1087.33,-419 1087.33,-419 1091.17,-419 1095,-422.83 1095,-426.67 1095,-426.67 1095,-434.33 1095,-434.33 1095,-438.17 1091.17,-442 1087.33,-442"/>
<text text-anchor="middle" x="1049" y="-426.8" font-family="Arial" font-size="14.00" fill="#c6c5fe">../lib/types.ts</text>
</g>
<!-- ../lib/mutations.ts&#45;&gt;../lib/types.ts -->
<g id="edge27" class="edge">
<title>../lib/mutations.ts&#45;&gt;../lib/types.ts</title>
<path fill="none" stroke="#757575" d="M615,-712.98C684.04,-687.07 850.04,-619.1 965,-525.5 992.52,-503.1 1018.45,-471 1033.78,-450.45"/>
<polygon fill="#757575" stroke="#757575" points="1036.77,-452.29 1039.86,-442.16 1031.13,-448.15 1036.77,-452.29"/>
</g>
<!-- ../components/Alert.tsx -->
<g id="node6" class="node">
<title>../components/Alert.tsx</title>
<path fill="none" stroke="#cfffac" d="M348.83,-378C348.83,-378 209.17,-378 209.17,-378 205.33,-378 201.5,-374.17 201.5,-370.33 201.5,-370.33 201.5,-362.67 201.5,-362.67 201.5,-358.83 205.33,-355 209.17,-355 209.17,-355 348.83,-355 348.83,-355 352.67,-355 356.5,-358.83 356.5,-362.67 356.5,-362.67 356.5,-370.33 356.5,-370.33 356.5,-374.17 352.67,-378 348.83,-378"/>
<text text-anchor="middle" x="279" y="-362.8" font-family="Arial" font-size="14.00" fill="#cfffac">../components/Alert.tsx</text>
</g>
<!-- ../components/ControlsBar.tsx -->
<g id="node7" class="node">
<title>../components/ControlsBar.tsx</title>
<path fill="none" stroke="#cfffac" d="M672.83,-1280C672.83,-1280 491.17,-1280 491.17,-1280 487.33,-1280 483.5,-1276.17 483.5,-1272.33 483.5,-1272.33 483.5,-1264.67 483.5,-1264.67 483.5,-1260.83 487.33,-1257 491.17,-1257 491.17,-1257 672.83,-1257 672.83,-1257 676.67,-1257 680.5,-1260.83 680.5,-1264.67 680.5,-1264.67 680.5,-1272.33 680.5,-1272.33 680.5,-1276.17 676.67,-1280 672.83,-1280"/>
<text text-anchor="middle" x="582" y="-1264.8" font-family="Arial" font-size="14.00" fill="#cfffac">../components/ControlsBar.tsx</text>
</g>
<!-- ../components/Flag.tsx -->
<g id="node8" class="node">
<title>../components/Flag.tsx</title>
<path fill="none" stroke="#c6c5fe" d="M650.83,-1162C650.83,-1162 513.17,-1162 513.17,-1162 509.33,-1162 505.5,-1158.17 505.5,-1154.33 505.5,-1154.33 505.5,-1146.67 505.5,-1146.67 505.5,-1142.83 509.33,-1139 513.17,-1139 513.17,-1139 650.83,-1139 650.83,-1139 654.67,-1139 658.5,-1142.83 658.5,-1146.67 658.5,-1146.67 658.5,-1154.33 658.5,-1154.33 658.5,-1158.17 654.67,-1162 650.83,-1162"/>
<text text-anchor="middle" x="582" y="-1146.8" font-family="Arial" font-size="14.00" fill="#c6c5fe">../components/Flag.tsx</text>
</g>
<!-- ../lib/flagIcons.ts -->
<g id="node9" class="node">
<title>../lib/flagIcons.ts</title>
<path fill="none" stroke="#c6c5fe" d="M907.83,-1162C907.83,-1162 810.17,-1162 810.17,-1162 806.33,-1162 802.5,-1158.17 802.5,-1154.33 802.5,-1154.33 802.5,-1146.67 802.5,-1146.67 802.5,-1142.83 806.33,-1139 810.17,-1139 810.17,-1139 907.83,-1139 907.83,-1139 911.67,-1139 915.5,-1142.83 915.5,-1146.67 915.5,-1146.67 915.5,-1154.33 915.5,-1154.33 915.5,-1158.17 911.67,-1162 907.83,-1162"/>
<text text-anchor="middle" x="859" y="-1146.8" font-family="Arial" font-size="14.00" fill="#c6c5fe">../lib/flagIcons.ts</text>
</g>
<!-- ../components/Flag.tsx&#45;&gt;../lib/flagIcons.ts -->
<g id="edge4" class="edge">
<title>../components/Flag.tsx&#45;&gt;../lib/flagIcons.ts</title>
<path fill="none" stroke="#757575" d="M658.51,-1150.5C700.34,-1150.5 751.86,-1150.5 792.06,-1150.5"/>
<polygon fill="#757575" stroke="#757575" points="792.29,-1154 802.29,-1150.5 792.29,-1147 792.29,-1154"/>
</g>
<!-- ../lib/flagIcons.ts&#45;&gt;../lib/logger.ts -->
<g id="edge23" class="edge">
<title>../lib/flagIcons.ts&#45;&gt;../lib/logger.ts</title>
<path fill="none" stroke="#757575" d="M915.73,-1147.53C933.42,-1143.98 951.8,-1137.19 965,-1124.5 1040.88,-1051.57 1048.57,-913.79 1048.53,-860.4"/>
<polygon fill="#757575" stroke="#757575" points="1052.03,-860.04 1048.42,-850.07 1045.03,-860.11 1052.03,-860.04"/>
</g>
<!-- ../components/LobbyLogo.tsx -->
<g id="node10" class="node">
<title>../components/LobbyLogo.tsx</title>
<path fill="none" stroke="#cfffac" d="M368.33,-1203C368.33,-1203 189.67,-1203 189.67,-1203 185.83,-1203 182,-1199.17 182,-1195.33 182,-1195.33 182,-1187.67 182,-1187.67 182,-1183.83 185.83,-1180 189.67,-1180 189.67,-1180 368.33,-1180 368.33,-1180 372.17,-1180 376,-1183.83 376,-1187.67 376,-1187.67 376,-1195.33 376,-1195.33 376,-1199.17 372.17,-1203 368.33,-1203"/>
<text text-anchor="middle" x="279" y="-1187.8" font-family="Arial" font-size="14.00" fill="#cfffac">../components/LobbyLogo.tsx</text>
</g>
<!-- ../components/LobbyStatus.tsx -->
<g id="node11" class="node">
<title>../components/LobbyStatus.tsx</title>
<path fill="none" stroke="#c6c5fe" d="M675.33,-615C675.33,-615 488.67,-615 488.67,-615 484.83,-615 481,-611.17 481,-607.33 481,-607.33 481,-599.67 481,-599.67 481,-595.83 484.83,-592 488.67,-592 488.67,-592 675.33,-592 675.33,-592 679.17,-592 683,-595.83 683,-599.67 683,-599.67 683,-607.33 683,-607.33 683,-611.17 679.17,-615 675.33,-615"/>
<text text-anchor="middle" x="582" y="-599.8" font-family="Arial" font-size="14.00" fill="#c6c5fe">../components/LobbyStatus.tsx</text>
</g>
<!-- ../components/LobbyStatus.tsx&#45;&gt;../lib/logger.ts -->
<g id="edge5" class="edge">
<title>../components/LobbyStatus.tsx&#45;&gt;../lib/logger.ts</title>
<path fill="none" stroke="#757575" d="M683.18,-613.23C788.7,-624.26 942.71,-642.86 965,-659.5 1017.22,-698.47 1037.66,-778.36 1044.72,-816.84"/>
<polygon fill="#757575" stroke="#757575" points="1041.31,-817.67 1046.44,-826.94 1048.21,-816.5 1041.31,-817.67"/>
</g>
<!-- ../lib/roleUtils.ts -->
<g id="node12" class="node">
<title>../lib/roleUtils.ts</title>
<path fill="none" stroke="#c6c5fe" d="M905.33,-462C905.33,-462 812.67,-462 812.67,-462 808.83,-462 805,-458.17 805,-454.33 805,-454.33 805,-446.67 805,-446.67 805,-442.83 808.83,-439 812.67,-439 812.67,-439 905.33,-439 905.33,-439 909.17,-439 913,-442.83 913,-446.67 913,-446.67 913,-454.33 913,-454.33 913,-458.17 909.17,-462 905.33,-462"/>
<text text-anchor="middle" x="859" y="-446.8" font-family="Arial" font-size="14.00" fill="#c6c5fe">../lib/roleUtils.ts</text>
</g>
<!-- ../components/LobbyStatus.tsx&#45;&gt;../lib/roleUtils.ts -->
<g id="edge6" class="edge">
<title>../components/LobbyStatus.tsx&#45;&gt;../lib/roleUtils.ts</title>
<path fill="none" stroke="#757575" d="M619.69,-592C648.74,-581.46 688.95,-563.51 717,-537.5 740.08,-516.1 727.75,-495.3 753,-476.5 765.11,-467.48 779.98,-461.56 794.68,-457.68"/>
<polygon fill="#757575" stroke="#757575" points="795.85,-461 804.79,-455.31 794.25,-454.19 795.85,-461"/>
</g>
<!-- ../components/LobbyStatus.tsx&#45;&gt;../lib/supabaseClient.ts -->
<g id="edge7" class="edge">
<title>../components/LobbyStatus.tsx&#45;&gt;../lib/supabaseClient.ts</title>
<path fill="none" stroke="#757575" d="M683.34,-606.43C695.66,-610.32 707.3,-616.1 717,-624.5 758.12,-660.12 724.02,-695.45 753,-741.5 773.72,-774.42 808.43,-803.4 832.23,-820.91"/>
<polygon fill="#757575" stroke="#757575" points="830.3,-823.83 840.46,-826.83 834.39,-818.15 830.3,-823.83"/>
</g>
<!-- ../lib/roleUtils.ts&#45;&gt;../lib/types.ts -->
<g id="edge34" class="edge">
<title>../lib/roleUtils.ts&#45;&gt;../lib/types.ts</title>
<path fill="none" stroke="#757575" d="M913.12,-444.85C938.03,-442.2 967.69,-439.04 992.85,-436.37"/>
<polygon fill="#757575" stroke="#757575" points="993.39,-439.83 1002.97,-435.29 992.65,-432.87 993.39,-439.83"/>
</g>
<!-- ../components/OptimizedFlagSelector.tsx -->
<g id="node14" class="node">
<title>../components/OptimizedFlagSelector.tsx</title>
<path fill="none" stroke="#c6c5fe" d="M403.33,-1085C403.33,-1085 154.67,-1085 154.67,-1085 150.83,-1085 147,-1081.17 147,-1077.33 147,-1077.33 147,-1069.67 147,-1069.67 147,-1065.83 150.83,-1062 154.67,-1062 154.67,-1062 403.33,-1062 403.33,-1062 407.17,-1062 411,-1065.83 411,-1069.67 411,-1069.67 411,-1077.33 411,-1077.33 411,-1081.17 407.17,-1085 403.33,-1085"/>
<text text-anchor="middle" x="279" y="-1069.8" font-family="Arial" font-size="14.00" fill="#c6c5fe">../components/OptimizedFlagSelector.tsx</text>
</g>
<!-- ../components/OptimizedFlagSelector.tsx&#45;&gt;../components/Flag.tsx -->
<g id="edge8" class="edge">
<title>../components/OptimizedFlagSelector.tsx&#45;&gt;../components/Flag.tsx</title>
<path fill="none" stroke="#757575" d="M313.93,-1085.01C347.47,-1096.11 400.37,-1112.89 447,-1124.5 465.42,-1129.09 485.43,-1133.35 504.24,-1137.04"/>
<polygon fill="#757575" stroke="#757575" points="503.76,-1140.51 514.24,-1138.97 505.09,-1133.64 503.76,-1140.51"/>
</g>
<!-- ../components/ParticipantTile.tsx -->
<g id="node15" class="node">
<title>../components/ParticipantTile.tsx</title>
<path fill="none" stroke="#c6c5fe" d="M957.33,-1280C957.33,-1280 760.67,-1280 760.67,-1280 756.83,-1280 753,-1276.17 753,-1272.33 753,-1272.33 753,-1264.67 753,-1264.67 753,-1260.83 756.83,-1257 760.67,-1257 760.67,-1257 957.33,-1257 957.33,-1257 961.17,-1257 965,-1260.83 965,-1264.67 965,-1264.67 965,-1272.33 965,-1272.33 965,-1276.17 961.17,-1280 957.33,-1280"/>
<text text-anchor="middle" x="859" y="-1264.8" font-family="Arial" font-size="14.00" fill="#c6c5fe">../components/ParticipantTile.tsx</text>
</g>
<!-- ../components/ParticipantTile.tsx&#45;&gt;../lib/types/supabase.ts -->
<g id="edge10" class="edge">
<title>../components/ParticipantTile.tsx&#45;&gt;../lib/types/supabase.ts</title>
<path fill="none" stroke="#757575" d="M935.69,-1280.01C1029.47,-1294.27 1188.83,-1318.5 1287.09,-1333.44"/>
<polygon fill="#757575" stroke="#757575" points="1286.58,-1336.9 1296.99,-1334.94 1287.63,-1329.98 1286.58,-1336.9"/>
</g>
<!-- ../components/ParticipantTile.tsx&#45;&gt;../lib/logger.ts -->
<g id="edge9" class="edge">
<title>../components/ParticipantTile.tsx&#45;&gt;../lib/logger.ts</title>
<path fill="none" stroke="#757575" d="M944.73,-1256.92C952.26,-1253.24 959.21,-1248.53 965,-1242.5 1018.67,-1186.63 1040.91,-936.55 1046.51,-860.51"/>
<polygon fill="#757575" stroke="#757575" points="1050.02,-860.45 1047.24,-850.22 1043.04,-859.95 1050.02,-860.45"/>
</g>
<!-- ../components/PasswordModal.tsx -->
<g id="node16" class="node">
<title>../components/PasswordModal.tsx</title>
<path fill="none" stroke="#cfffac" d="M383.33,-23C383.33,-23 174.67,-23 174.67,-23 170.83,-23 167,-19.17 167,-15.33 167,-15.33 167,-7.67 167,-7.67 167,-3.83 170.83,0 174.67,0 174.67,0 383.33,0 383.33,0 387.17,0 391,-3.83 391,-7.67 391,-7.67 391,-15.33 391,-15.33 391,-19.17 387.17,-23 383.33,-23"/>
<text text-anchor="middle" x="279" y="-7.8" font-family="Arial" font-size="14.00" fill="#cfffac">../components/PasswordModal.tsx</text>
</g>
<!-- ../components/ReactBits/AnimatedList.tsx -->
<g id="node17" class="node">
<title>../components/ReactBits/AnimatedList.tsx</title>
<path fill="none" stroke="#cfffac" d="M707.83,-141C707.83,-141 456.17,-141 456.17,-141 452.33,-141 448.5,-137.17 448.5,-133.33 448.5,-133.33 448.5,-125.67 448.5,-125.67 448.5,-121.83 452.33,-118 456.17,-118 456.17,-118 707.83,-118 707.83,-118 711.67,-118 715.5,-121.83 715.5,-125.67 715.5,-125.67 715.5,-133.33 715.5,-133.33 715.5,-137.17 711.67,-141 707.83,-141"/>
<text text-anchor="middle" x="582" y="-125.8" font-family="Arial" font-size="14.00" fill="#cfffac">../components/ReactBits/AnimatedList.tsx</text>
</g>
<!-- ../components/ReactBits/Dock.tsx -->
<g id="node18" class="node">
<title>../components/ReactBits/Dock.tsx</title>
<path fill="none" stroke="#cfffac" d="M683.83,-264C683.83,-264 480.17,-264 480.17,-264 476.33,-264 472.5,-260.17 472.5,-256.33 472.5,-256.33 472.5,-248.67 472.5,-248.67 472.5,-244.83 476.33,-241 480.17,-241 480.17,-241 683.83,-241 683.83,-241 687.67,-241 691.5,-244.83 691.5,-248.67 691.5,-248.67 691.5,-256.33 691.5,-256.33 691.5,-260.17 687.67,-264 683.83,-264"/>
<text text-anchor="middle" x="582" y="-248.8" font-family="Arial" font-size="14.00" fill="#cfffac">../components/ReactBits/Dock.tsx</text>
</g>
<!-- ../components/ReactBits/PixelCard.tsx -->
<g id="node19" class="node">
<title>../components/ReactBits/PixelCard.tsx</title>
<path fill="none" stroke="#cfffac" d="M697.83,-223C697.83,-223 466.17,-223 466.17,-223 462.33,-223 458.5,-219.17 458.5,-215.33 458.5,-215.33 458.5,-207.67 458.5,-207.67 458.5,-203.83 462.33,-200 466.17,-200 466.17,-200 697.83,-200 697.83,-200 701.67,-200 705.5,-203.83 705.5,-207.67 705.5,-207.67 705.5,-215.33 705.5,-215.33 705.5,-219.17 701.67,-223 697.83,-223"/>
<text text-anchor="middle" x="582" y="-207.8" font-family="Arial" font-size="14.00" fill="#cfffac">../components/ReactBits/PixelCard.tsx</text>
</g>
<!-- ../components/ReactBits/SpotlightCard.tsx -->
<g id="node20" class="node">
<title>../components/ReactBits/SpotlightCard.tsx</title>
<path fill="none" stroke="#cfffac" d="M709.33,-182C709.33,-182 454.67,-182 454.67,-182 450.83,-182 447,-178.17 447,-174.33 447,-174.33 447,-166.67 447,-166.67 447,-162.83 450.83,-159 454.67,-159 454.67,-159 709.33,-159 709.33,-159 713.17,-159 717,-162.83 717,-166.67 717,-166.67 717,-174.33 717,-174.33 717,-178.17 713.17,-182 709.33,-182"/>
<text text-anchor="middle" x="582" y="-166.8" font-family="Arial" font-size="14.00" fill="#cfffac">../components/ReactBits/SpotlightCard.tsx</text>
</g>
<!-- ../components/ReactBits/index.ts -->
<g id="node21" class="node">
<title>../components/ReactBits/index.ts</title>
<path fill="none" stroke="#c6c5fe" d="M378.33,-223C378.33,-223 179.67,-223 179.67,-223 175.83,-223 172,-219.17 172,-215.33 172,-215.33 172,-207.67 172,-207.67 172,-203.83 175.83,-200 179.67,-200 179.67,-200 378.33,-200 378.33,-200 382.17,-200 386,-203.83 386,-207.67 386,-207.67 386,-215.33 386,-215.33 386,-219.17 382.17,-223 378.33,-223"/>
<text text-anchor="middle" x="279" y="-207.8" font-family="Arial" font-size="14.00" fill="#c6c5fe">../components/ReactBits/index.ts</text>
</g>
<!-- ../components/ReactBits/index.ts&#45;&gt;../components/ReactBits/AnimatedList.tsx -->
<g id="edge11" class="edge">
<title>../components/ReactBits/index.ts&#45;&gt;../components/ReactBits/AnimatedList.tsx</title>
<path fill="none" stroke="#757575" d="M306.07,-199.89C338.48,-185.91 395.78,-162.68 447,-149.5 456.57,-147.04 466.6,-144.85 476.69,-142.9"/>
<polygon fill="#757575" stroke="#757575" points="477.59,-146.3 486.79,-141.04 476.32,-139.41 477.59,-146.3"/>
</g>
<!-- ../components/ReactBits/index.ts&#45;&gt;../components/ReactBits/Dock.tsx -->
<g id="edge12" class="edge">
<title>../components/ReactBits/index.ts&#45;&gt;../components/ReactBits/Dock.tsx</title>
<path fill="none" stroke="#757575" d="M364.65,-223.03C402.48,-228.18 447.22,-234.28 486.17,-239.58"/>
<polygon fill="#757575" stroke="#757575" points="486.09,-243.1 496.47,-240.99 487.03,-236.17 486.09,-243.1"/>
</g>
<!-- ../components/ReactBits/index.ts&#45;&gt;../components/ReactBits/PixelCard.tsx -->
<g id="edge13" class="edge">
<title>../components/ReactBits/index.ts&#45;&gt;../components/ReactBits/PixelCard.tsx</title>
<path fill="none" stroke="#757575" d="M386.12,-211.5C406.19,-211.5 427.42,-211.5 448.2,-211.5"/>
<polygon fill="#757575" stroke="#757575" points="448.35,-215 458.35,-211.5 448.35,-208 448.35,-215"/>
</g>
<!-- ../components/ReactBits/index.ts&#45;&gt;../components/ReactBits/SpotlightCard.tsx -->
<g id="edge14" class="edge">
<title>../components/ReactBits/index.ts&#45;&gt;../components/ReactBits/SpotlightCard.tsx</title>
<path fill="none" stroke="#757575" d="M364.65,-199.97C402.48,-194.82 447.22,-188.72 486.17,-183.42"/>
<polygon fill="#757575" stroke="#757575" points="487.03,-186.83 496.47,-182.01 486.09,-179.9 487.03,-186.83"/>
</g>
<!-- ../components/VideoCall.tsx -->
<g id="node22" class="node">
<title>../components/VideoCall.tsx</title>
<path fill="none" stroke="#c6c5fe" d="M363.83,-1244C363.83,-1244 194.17,-1244 194.17,-1244 190.33,-1244 186.5,-1240.17 186.5,-1236.33 186.5,-1236.33 186.5,-1228.67 186.5,-1228.67 186.5,-1224.83 190.33,-1221 194.17,-1221 194.17,-1221 363.83,-1221 363.83,-1221 367.67,-1221 371.5,-1224.83 371.5,-1228.67 371.5,-1228.67 371.5,-1236.33 371.5,-1236.33 371.5,-1240.17 367.67,-1244 363.83,-1244"/>
<text text-anchor="middle" x="279" y="-1228.8" font-family="Arial" font-size="14.00" fill="#c6c5fe">../components/VideoCall.tsx</text>
</g>
<!-- ../components/VideoCall.tsx&#45;&gt;../lib/types/supabase.ts -->
<g id="edge20" class="edge">
<title>../components/VideoCall.tsx&#45;&gt;../lib/types/supabase.ts</title>
<path fill="none" stroke="#757575" d="M371.68,-1236.63C385.65,-1240.16 399.3,-1245.52 411,-1253.5 437.01,-1271.23 420.29,-1297.84 447,-1314.5 524.73,-1362.98 766.39,-1346.5 858,-1346.5 858,-1346.5 858,-1346.5 1050,-1346.5 1130.24,-1346.5 1221.7,-1346.5 1286.76,-1346.5"/>
<polygon fill="#757575" stroke="#757575" points="1286.97,-1350 1296.97,-1346.5 1286.97,-1343 1286.97,-1350"/>
</g>
<!-- ../components/VideoCall.tsx&#45;&gt;../lib/logger.ts -->
<g id="edge17" class="edge">
<title>../components/VideoCall.tsx&#45;&gt;../lib/logger.ts</title>
<path fill="none" stroke="#757575" d="M371.69,-1237.35C537.93,-1244.1 879.81,-1247.95 965,-1171.5 1012.05,-1129.27 1038.13,-928.21 1045.68,-860.68"/>
<polygon fill="#757575" stroke="#757575" points="1049.2,-860.68 1046.8,-850.36 1042.24,-859.92 1049.2,-860.68"/>
</g>
<!-- ../components/VideoCall.tsx&#45;&gt;../lib/mutations.ts -->
<g id="edge18" class="edge">
<title>../components/VideoCall.tsx&#45;&gt;../lib/mutations.ts</title>
<path fill="none" stroke="#757575" d="M371.73,-1233.22C386.36,-1229.46 400.2,-1223.01 411,-1212.5 475.71,-1149.49 419.72,-1098.6 447,-1012.5 480.27,-907.47 543.23,-790.96 569.27,-744.87"/>
<polygon fill="#757575" stroke="#757575" points="572.34,-746.55 574.24,-736.13 566.25,-743.09 572.34,-746.55"/>
</g>
<!-- ../components/VideoCall.tsx&#45;&gt;../components/ControlsBar.tsx -->
<g id="edge15" class="edge">
<title>../components/VideoCall.tsx&#45;&gt;../components/ControlsBar.tsx</title>
<path fill="none" stroke="#757575" d="M371.54,-1243.45C403.98,-1247.33 440.77,-1251.73 474.37,-1255.75"/>
<polygon fill="#757575" stroke="#757575" points="474.34,-1259.27 484.68,-1256.98 475.17,-1252.32 474.34,-1259.27"/>
</g>
<!-- ../components/VideoCall.tsx&#45;&gt;../lib/supabaseClient.ts -->
<g id="edge19" class="edge">
<title>../components/VideoCall.tsx&#45;&gt;../lib/supabaseClient.ts</title>
<path fill="none" stroke="#757575" d="M371.65,-1222.03C495.75,-1207.53 703.42,-1181.92 717,-1171.5 770.08,-1130.77 832.51,-927.04 851.93,-859.96"/>
<polygon fill="#757575" stroke="#757575" points="855.37,-860.65 854.76,-850.08 848.64,-858.72 855.37,-860.65"/>
</g>
<!-- ../components/VideoCall.tsx&#45;&gt;../components/ParticipantTile.tsx -->
<g id="edge16" class="edge">
<title>../components/VideoCall.tsx&#45;&gt;../components/ParticipantTile.tsx</title>
<path fill="none" stroke="#757575" d="M371.83,-1239.69C385.41,-1242.87 398.9,-1247.32 411,-1253.5 431.15,-1263.79 426.09,-1280.84 447,-1289.5 557.87,-1335.42 597.33,-1298.36 717,-1289.5 738.95,-1287.87 762.66,-1284.84 784.26,-1281.58"/>
<polygon fill="#757575" stroke="#757575" points="785,-1285.01 794.35,-1280.02 783.93,-1278.09 785,-1285.01"/>
</g>
<!-- ../lib/dailyTokenManager.ts&#45;&gt;../lib/logger.ts -->
<g id="edge21" class="edge">
<title>../lib/dailyTokenManager.ts&#45;&gt;../lib/logger.ts</title>
<path fill="none" stroke="#757575" d="M931.2,-732.01C942.97,-735.61 954.69,-740.32 965,-746.5 995.22,-764.61 1020.74,-797.2 1035.21,-818.33"/>
<polygon fill="#757575" stroke="#757575" points="1032.44,-820.48 1040.89,-826.87 1038.27,-816.61 1032.44,-820.48"/>
</g>
<!-- ../lib/dailyTokenManager.ts&#45;&gt;../lib/types.ts -->
<g id="edge22" class="edge">
<title>../lib/dailyTokenManager.ts&#45;&gt;../lib/types.ts</title>
<path fill="none" stroke="#757575" d="M869.56,-708.91C888.74,-685.43 932.81,-630.24 965,-580.5 993.79,-536.02 1022.67,-480.87 1037.6,-451.4"/>
<polygon fill="#757575" stroke="#757575" points="1040.91,-452.61 1042.27,-442.1 1034.65,-449.46 1040.91,-452.61"/>
</g>
<!-- ../lib/types/index.ts -->
<g id="node28" class="node">
<title>../lib/types/index.ts</title>
<path fill="none" stroke="#c6c5fe" d="M1253.33,-851C1253.33,-851 1140.67,-851 1140.67,-851 1136.83,-851 1133,-847.17 1133,-843.33 1133,-843.33 1133,-835.67 1133,-835.67 1133,-831.83 1136.83,-828 1140.67,-828 1140.67,-828 1253.33,-828 1253.33,-828 1257.17,-828 1261,-831.83 1261,-835.67 1261,-835.67 1261,-843.33 1261,-843.33 1261,-847.17 1257.17,-851 1253.33,-851"/>
<text text-anchor="middle" x="1197" y="-835.8" font-family="Arial" font-size="14.00" fill="#c6c5fe">../lib/types/index.ts</text>
</g>
<!-- ../lib/types.ts&#45;&gt;../lib/types/index.ts -->
<g id="edge37" class="edge">
<title>../lib/types.ts&#45;&gt;../lib/types/index.ts</title>
<path fill="none" stroke="#757575" d="M1054.21,-442.3C1074.44,-498.98 1161.75,-743.57 1188.31,-817.95"/>
<polygon fill="#757575" stroke="#757575" points="1185.11,-819.41 1191.77,-827.65 1191.71,-817.06 1185.11,-819.41"/>
</g>
<!-- ../lib/presence.ts -->
<g id="node25" class="node">
<title>../lib/presence.ts</title>
<path fill="none" stroke="#c6c5fe" d="M328.83,-884C328.83,-884 229.17,-884 229.17,-884 225.33,-884 221.5,-880.17 221.5,-876.33 221.5,-876.33 221.5,-868.67 221.5,-868.67 221.5,-864.83 225.33,-861 229.17,-861 229.17,-861 328.83,-861 328.83,-861 332.67,-861 336.5,-864.83 336.5,-868.67 336.5,-868.67 336.5,-876.33 336.5,-876.33 336.5,-880.17 332.67,-884 328.83,-884"/>
<text text-anchor="middle" x="279" y="-868.8" font-family="Arial" font-size="14.00" fill="#c6c5fe">../lib/presence.ts</text>
</g>
<!-- ../lib/presence.ts&#45;&gt;../lib/logger.ts -->
<g id="edge28" class="edge">
<title>../lib/presence.ts&#45;&gt;../lib/logger.ts</title>
<path fill="none" stroke="#757575" d="M336.72,-875.8C454.45,-881.7 733.66,-890.68 965,-859.5 976.51,-857.95 988.72,-855.39 1000.14,-852.58"/>
<polygon fill="#757575" stroke="#757575" points="1001.11,-855.94 1009.93,-850.07 999.37,-849.16 1001.11,-855.94"/>
</g>
<!-- ../lib/presence.ts&#45;&gt;../lib/mutations.ts -->
<g id="edge29" class="edge">
<title>../lib/presence.ts&#45;&gt;../lib/mutations.ts</title>
<path fill="none" stroke="#757575" d="M303.62,-860.89C357.03,-834.63 487.19,-770.63 548.3,-740.58"/>
<polygon fill="#757575" stroke="#757575" points="550.06,-743.61 557.49,-736.06 546.97,-737.33 550.06,-743.61"/>
</g>
<!-- ../lib/presence.ts&#45;&gt;../lib/supabaseClient.ts -->
<g id="edge30" class="edge">
<title>../lib/presence.ts&#45;&gt;../lib/supabaseClient.ts</title>
<path fill="none" stroke="#757575" d="M336.74,-869.16C438.58,-863.17 652.92,-850.56 772.59,-843.52"/>
<polygon fill="#757575" stroke="#757575" points="773.04,-847 782.81,-842.92 772.62,-840.02 773.04,-847"/>
</g>
<!-- ../lib/realtimeHooks.ts -->
<g id="node26" class="node">
<title>../lib/realtimeHooks.ts</title>
<path fill="none" stroke="#c6c5fe" d="M647.33,-656C647.33,-656 516.67,-656 516.67,-656 512.83,-656 509,-652.17 509,-648.33 509,-648.33 509,-640.67 509,-640.67 509,-636.83 512.83,-633 516.67,-633 516.67,-633 647.33,-633 647.33,-633 651.17,-633 655,-636.83 655,-640.67 655,-640.67 655,-648.33 655,-648.33 655,-652.17 651.17,-656 647.33,-656"/>
<text text-anchor="middle" x="582" y="-640.8" font-family="Arial" font-size="14.00" fill="#c6c5fe">../lib/realtimeHooks.ts</text>
</g>
<!-- ../lib/realtimeHooks.ts&#45;&gt;../lib/logger.ts -->
<g id="edge31" class="edge">
<title>../lib/realtimeHooks.ts&#45;&gt;../lib/logger.ts</title>
<path fill="none" stroke="#757575" d="M655.22,-651.73C758.75,-662.6 939.72,-683.67 965,-700.5 1007.05,-728.5 1031.09,-785.73 1041.6,-816.97"/>
<polygon fill="#757575" stroke="#757575" points="1038.37,-818.39 1044.75,-826.85 1045.04,-816.26 1038.37,-818.39"/>
</g>
<!-- ../lib/realtimeHooks.ts&#45;&gt;../lib/supabaseClient.ts -->
<g id="edge32" class="edge">
<title>../lib/realtimeHooks.ts&#45;&gt;../lib/supabaseClient.ts</title>
<path fill="none" stroke="#757575" d="M618.2,-656.09C646.39,-666.32 686.18,-682.96 717,-704.5 735.81,-717.64 736.57,-725.49 753,-741.5 781.68,-769.45 815.93,-800.71 837.33,-820"/>
<polygon fill="#757575" stroke="#757575" points="835.08,-822.69 844.86,-826.77 839.77,-817.48 835.08,-822.69"/>
</g>
<!-- ../lib/realtimeHooks.ts&#45;&gt;../lib/types.ts -->
<g id="edge33" class="edge">
<title>../lib/realtimeHooks.ts&#45;&gt;../lib/types.ts</title>
<path fill="none" stroke="#757575" d="M655.26,-646.12C676.77,-643.5 699.29,-637.35 717,-624.5 745.96,-603.49 726.48,-576.52 753,-552.5 827.75,-484.78 872.57,-511.88 965,-471.5 982.44,-463.88 1001.51,-454.54 1016.96,-446.69"/>
<polygon fill="#757575" stroke="#757575" points="1018.76,-449.7 1026.07,-442.03 1015.58,-443.47 1018.76,-449.7"/>
</g>
<!-- ../lib/sessionHooks.ts -->
<g id="node27" class="node">
<title>../lib/sessionHooks.ts</title>
<path fill="none" stroke="#c6c5fe" d="M645.83,-1044C645.83,-1044 518.17,-1044 518.17,-1044 514.33,-1044 510.5,-1040.17 510.5,-1036.33 510.5,-1036.33 510.5,-1028.67 510.5,-1028.67 510.5,-1024.83 514.33,-1021 518.17,-1021 518.17,-1021 645.83,-1021 645.83,-1021 649.67,-1021 653.5,-1024.83 653.5,-1028.67 653.5,-1028.67 653.5,-1036.33 653.5,-1036.33 653.5,-1040.17 649.67,-1044 645.83,-1044"/>
<text text-anchor="middle" x="582" y="-1028.8" font-family="Arial" font-size="14.00" fill="#c6c5fe">../lib/sessionHooks.ts</text>
</g>
<!-- ../lib/sessionHooks.ts&#45;&gt;../lib/logger.ts -->
<g id="edge35" class="edge">
<title>../lib/sessionHooks.ts&#45;&gt;../lib/logger.ts</title>
<path fill="none" stroke="#757575" d="M653.62,-1026.5C734.41,-1016.87 868.02,-992.26 965,-930.5 994.56,-911.68 1020.1,-879.56 1034.78,-858.69"/>
<polygon fill="#757575" stroke="#757575" points="1037.8,-860.47 1040.56,-850.24 1032.02,-856.52 1037.8,-860.47"/>
</g>
<!-- ../lib/sessionHooks.ts&#45;&gt;../lib/supabaseClient.ts -->
<g id="edge36" class="edge">
<title>../lib/sessionHooks.ts&#45;&gt;../lib/supabaseClient.ts</title>
<path fill="none" stroke="#757575" d="M653.7,-1027.9C675.13,-1024.17 698.01,-1017.68 717,-1006.5 749.18,-987.55 814.84,-899 843.77,-858.64"/>
<polygon fill="#757575" stroke="#757575" points="846.71,-860.53 849.67,-850.36 841.01,-856.47 846.71,-860.53"/>
</g>
<!-- ../lib/types/index.ts&#45;&gt;../lib/types/supabase.ts -->
<g id="edge38" class="edge">
<title>../lib/types/index.ts&#45;&gt;../lib/types/supabase.ts</title>
<path fill="none" stroke="#757575" d="M1201.98,-851.04C1224.5,-916.27 1335.86,-1238.89 1365.66,-1325.22"/>
<polygon fill="#757575" stroke="#757575" points="1362.37,-1326.44 1368.95,-1334.75 1368.99,-1324.16 1362.37,-1326.44"/>
</g>
<!-- ../lib/useSessionData.ts -->
<g id="node29" class="node">
<title>../lib/useSessionData.ts</title>
<path fill="none" stroke="#c6c5fe" d="M350.33,-964C350.33,-964 207.67,-964 207.67,-964 203.83,-964 200,-960.17 200,-956.33 200,-956.33 200,-948.67 200,-948.67 200,-944.83 203.83,-941 207.67,-941 207.67,-941 350.33,-941 350.33,-941 354.17,-941 358,-944.83 358,-948.67 358,-948.67 358,-956.33 358,-956.33 358,-960.17 354.17,-964 350.33,-964"/>
<text text-anchor="middle" x="279" y="-948.8" font-family="Arial" font-size="14.00" fill="#c6c5fe">../lib/useSessionData.ts</text>
</g>
<!-- ../lib/useSessionData.ts&#45;&gt;../lib/logger.ts -->
<g id="edge39" class="edge">
<title>../lib/useSessionData.ts&#45;&gt;../lib/logger.ts</title>
<path fill="none" stroke="#757575" d="M315.26,-964.03C342.95,-974.13 381.6,-990.62 411,-1012.5 430.45,-1026.98 424.91,-1043.5 447,-1053.5 556.32,-1102.99 598.13,-1069.95 717,-1053.5 830.45,-1037.8 874.73,-1053.99 965,-983.5 1006.49,-951.1 1030.87,-891.77 1041.54,-859.97"/>
<polygon fill="#757575" stroke="#757575" points="1044.92,-860.91 1044.64,-850.32 1038.25,-858.77 1044.92,-860.91"/>
</g>
<!-- ../lib/useSessionData.ts&#45;&gt;../lib/mutations.ts -->
<g id="edge40" class="edge">
<title>../lib/useSessionData.ts&#45;&gt;../lib/mutations.ts</title>
<path fill="none" stroke="#757575" d="M314.32,-940.93C341.82,-930.77 380.69,-914.36 411,-893.5 475.79,-848.91 537.56,-778.05 565.47,-744.01"/>
<polygon fill="#757575" stroke="#757575" points="568.23,-746.16 571.81,-736.19 562.8,-741.75 568.23,-746.16"/>
</g>
<!-- ../lib/userSession.ts -->
<g id="node30" class="node">
<title>../lib/userSession.ts</title>
<path fill="none" stroke="#c6c5fe" d="M918.33,-344C918.33,-344 799.67,-344 799.67,-344 795.83,-344 792,-340.17 792,-336.33 792,-336.33 792,-328.67 792,-328.67 792,-324.83 795.83,-321 799.67,-321 799.67,-321 918.33,-321 918.33,-321 922.17,-321 926,-324.83 926,-328.67 926,-328.67 926,-336.33 926,-336.33 926,-340.17 922.17,-344 918.33,-344"/>
<text text-anchor="middle" x="859" y="-328.8" font-family="Arial" font-size="14.00" fill="#c6c5fe">../lib/userSession.ts</text>
</g>
<!-- ../lib/userSession.ts&#45;&gt;../lib/logger.ts -->
<g id="edge41" class="edge">
<title>../lib/userSession.ts&#45;&gt;../lib/logger.ts</title>
<path fill="none" stroke="#757575" d="M926.13,-336.88C940.67,-340.84 954.76,-347.5 965,-358.5 996.91,-392.78 1035.75,-727.16 1045.63,-816.6"/>
<polygon fill="#757575" stroke="#757575" points="1042.16,-817.12 1046.73,-826.68 1049.12,-816.36 1042.16,-817.12"/>
</g>
<!-- ../lib/userSession.ts&#45;&gt;../lib/types.ts -->
<g id="edge42" class="edge">
<title>../lib/userSession.ts&#45;&gt;../lib/types.ts</title>
<path fill="none" stroke="#757575" d="M926.15,-343.84C939.44,-347.49 953,-352.27 965,-358.5 990.9,-371.94 1015.48,-395.03 1031.08,-411.43"/>
<polygon fill="#757575" stroke="#757575" points="1028.61,-413.92 1037.97,-418.88 1033.74,-409.16 1028.61,-413.92"/>
</g>
<!-- GameSetup.tsx -->
<g id="node31" class="node">
<title>GameSetup.tsx</title>
<path fill="none" stroke="#c6c5fe" d="M103.33,-844C103.33,-844 7.67,-844 7.67,-844 3.83,-844 0,-840.17 0,-836.33 0,-836.33 0,-828.67 0,-828.67 0,-824.83 3.83,-821 7.67,-821 7.67,-821 103.33,-821 103.33,-821 107.17,-821 111,-824.83 111,-828.67 111,-828.67 111,-836.33 111,-836.33 111,-840.17 107.17,-844 103.33,-844"/>
<text text-anchor="middle" x="55.5" y="-828.8" font-family="Arial" font-size="14.00" fill="#c6c5fe">GameSetup.tsx</text>
</g>
<!-- GameSetup.tsx&#45;&gt;../atoms/index.ts -->
<g id="edge43" class="edge">
<title>GameSetup.tsx&#45;&gt;../atoms/index.ts</title>
<path fill="none" stroke="#757575" d="M58.87,-844.42C72.36,-912.18 139.18,-1246.13 147,-1253.5 163.93,-1269.44 187.9,-1275.91 210.72,-1277.9"/>
<polygon fill="#757575" stroke="#757575" points="210.56,-1281.4 220.75,-1278.51 210.98,-1274.41 210.56,-1281.4"/>
</g>
<!-- GameSetup.tsx&#45;&gt;../lib/logger.ts -->
<g id="edge46" class="edge">
<title>GameSetup.tsx&#45;&gt;../lib/logger.ts</title>
<path fill="none" stroke="#757575" d="M68.43,-844.03C84.65,-858.83 115.31,-883.76 147,-893.5 389.15,-967.93 463.75,-901.13 717,-894.5 827.34,-891.61 858.48,-910.43 965,-881.5 985.42,-875.95 1006.58,-864.9 1022.42,-855.39"/>
<polygon fill="#757575" stroke="#757575" points="1024.43,-858.26 1031.08,-850.02 1020.74,-852.31 1024.43,-858.26"/>
</g>
<!-- GameSetup.tsx&#45;&gt;../lib/mutations.ts -->
<g id="edge47" class="edge">
<title>GameSetup.tsx&#45;&gt;../lib/mutations.ts</title>
<path fill="none" stroke="#757575" d="M63.97,-820.68C77.59,-800.33 108.63,-759.27 147,-742.5 266.93,-690.08 423.73,-700.47 512.28,-712.59"/>
<polygon fill="#757575" stroke="#757575" points="511.81,-716.06 522.21,-714 512.8,-709.13 511.81,-716.06"/>
</g>
<!-- GameSetup.tsx&#45;&gt;../components/Alert.tsx -->
<g id="edge44" class="edge">
<title>GameSetup.tsx&#45;&gt;../components/Alert.tsx</title>
<path fill="none" stroke="#757575" d="M58.13,-820.78C67.49,-754.08 115.18,-424.1 147,-392.5 159.03,-380.55 174.89,-373.31 191.39,-369.05"/>
<polygon fill="#757575" stroke="#757575" points="192.16,-372.47 201.16,-366.88 190.64,-365.64 192.16,-372.47"/>
</g>
<!-- GameSetup.tsx&#45;&gt;../components/LobbyStatus.tsx -->
<g id="edge45" class="edge">
<title>GameSetup.tsx&#45;&gt;../components/LobbyStatus.tsx</title>
<path fill="none" stroke="#757575" d="M56.45,-820.87C56.99,-779.66 65,-640.02 147,-582.5 203.98,-542.53 404.35,-571.1 511.76,-590.16"/>
<polygon fill="#757575" stroke="#757575" points="511.4,-593.65 521.86,-591.98 512.63,-586.76 511.4,-593.65"/>
</g>
<!-- GameSetup.tsx&#45;&gt;../lib/supabaseClient.ts -->
<g id="edge49" class="edge">
<title>GameSetup.tsx&#45;&gt;../lib/supabaseClient.ts</title>
<path fill="none" stroke="#757575" d="M111.27,-832.91C248.46,-833.94 607.58,-836.63 772.7,-837.86"/>
<polygon fill="#757575" stroke="#757575" points="772.79,-841.36 782.82,-837.94 772.84,-834.36 772.79,-841.36"/>
</g>
<!-- GameSetup.tsx&#45;&gt;../lib/types.ts -->
<g id="edge50" class="edge">
<title>GameSetup.tsx&#45;&gt;../lib/types.ts</title>
<path fill="none" stroke="#757575" d="M58.49,-820.91C65.93,-777.27 92.69,-618.72 111,-487.5 120.19,-421.65 103.55,-240.82 147,-190.5 230.64,-93.64 594.76,-70.63 717,-108.5 844.65,-148.05 875.4,-179.35 965,-278.5 1001.4,-318.78 1027.75,-377.87 1040.11,-409.19"/>
<polygon fill="#757575" stroke="#757575" points="1036.91,-410.6 1043.76,-418.68 1043.44,-408.09 1036.91,-410.6"/>
</g>
<!-- GameSetup.tsx&#45;&gt;../lib/presence.ts -->
<g id="edge48" class="edge">
<title>GameSetup.tsx&#45;&gt;../lib/presence.ts</title>
<path fill="none" stroke="#757575" d="M111.25,-842.39C141.42,-847.84 179.12,-854.64 211.03,-860.41"/>
<polygon fill="#757575" stroke="#757575" points="210.71,-863.91 221.18,-862.24 211.96,-857.02 210.71,-863.91"/>
</g>
<!-- GameSetup.tsx&#45;&gt;../lib/useSessionData.ts -->
<g id="edge51" class="edge">
<title>GameSetup.tsx&#45;&gt;../lib/useSessionData.ts</title>
<path fill="none" stroke="#757575" d="M64.13,-844.23C78.01,-864.52 109.43,-905.97 147,-926.5 160.19,-933.71 175.09,-938.93 190,-942.71"/>
<polygon fill="#757575" stroke="#757575" points="189.24,-946.13 199.78,-945 190.84,-939.31 189.24,-946.13"/>
</g>
<!-- Homepage.tsx -->
<g id="node32" class="node">
<title>Homepage.tsx</title>
<path fill="none" stroke="#c6c5fe" d="M99.83,-378C99.83,-378 11.17,-378 11.17,-378 7.33,-378 3.5,-374.17 3.5,-370.33 3.5,-370.33 3.5,-362.67 3.5,-362.67 3.5,-358.83 7.33,-355 11.17,-355 11.17,-355 99.83,-355 99.83,-355 103.67,-355 107.5,-358.83 107.5,-362.67 107.5,-362.67 107.5,-370.33 107.5,-370.33 107.5,-374.17 103.67,-378 99.83,-378"/>
<text text-anchor="middle" x="55.5" y="-362.8" font-family="Arial" font-size="14.00" fill="#c6c5fe">Homepage.tsx</text>
</g>
<!-- Homepage.tsx&#45;&gt;../components/ActiveGames.tsx -->
<g id="edge52" class="edge">
<title>Homepage.tsx&#45;&gt;../components/ActiveGames.tsx</title>
<path fill="none" stroke="#757575" d="M78.14,-378.03C117.68,-399.09 201.68,-443.84 247.18,-468.08"/>
<polygon fill="#757575" stroke="#757575" points="245.8,-471.31 256.27,-472.92 249.09,-465.13 245.8,-471.31"/>
</g>
<!-- Homepage.tsx&#45;&gt;../lib/logger.ts -->
<g id="edge55" class="edge">
<title>Homepage.tsx&#45;&gt;../lib/logger.ts</title>
<path fill="none" stroke="#757575" d="M99.91,-354.9C114.73,-351.48 131.48,-348.19 147,-346.5 263.64,-333.77 294,-337.68 411,-346.5 535.17,-355.86 874.77,-344.69 965,-430.5 1021.8,-484.51 1041.93,-739.81 1046.76,-816.6"/>
<polygon fill="#757575" stroke="#757575" points="1043.29,-817.19 1047.38,-826.96 1050.27,-816.77 1043.29,-817.19"/>
</g>
<!-- Homepage.tsx&#45;&gt;../lib/mutations.ts -->
<g id="edge56" class="edge">
<title>Homepage.tsx&#45;&gt;../lib/mutations.ts</title>
<path fill="none" stroke="#757575" d="M66.62,-378.09C79.02,-392.91 99.76,-419.87 111,-446.5 142.21,-520.46 88.11,-568.94 147,-623.5 233.74,-703.86 306.85,-600.51 411,-656.5 432.65,-668.14 425.75,-686.14 447,-698.5 466.63,-709.92 490.34,-716.43 512.32,-720.11"/>
<polygon fill="#757575" stroke="#757575" points="511.87,-723.58 522.28,-721.61 512.91,-716.66 511.87,-723.58"/>
</g>
<!-- Homepage.tsx&#45;&gt;../components/Alert.tsx -->
<g id="edge53" class="edge">
<title>Homepage.tsx&#45;&gt;../components/Alert.tsx</title>
<path fill="none" stroke="#757575" d="M107.59,-366.5C132.29,-366.5 162.62,-366.5 190.81,-366.5"/>
<polygon fill="#757575" stroke="#757575" points="191.09,-370 201.09,-366.5 191.09,-363 191.09,-370"/>
</g>
<!-- Homepage.tsx&#45;&gt;../components/PasswordModal.tsx -->
<g id="edge54" class="edge">
<title>Homepage.tsx&#45;&gt;../components/PasswordModal.tsx</title>
<path fill="none" stroke="#757575" d="M58.06,-354.84C65.42,-301.66 98.31,-82.78 147,-37.5 150.88,-33.89 155.11,-30.72 159.6,-27.94"/>
<polygon fill="#757575" stroke="#757575" points="161.44,-30.92 168.52,-23.05 158.07,-24.78 161.44,-30.92"/>
</g>
<!-- Join.tsx -->
<g id="node33" class="node">
<title>Join.tsx</title>
<path fill="none" stroke="#c6c5fe" d="M78.83,-478C78.83,-478 32.17,-478 32.17,-478 28.33,-478 24.5,-474.17 24.5,-470.33 24.5,-470.33 24.5,-462.67 24.5,-462.67 24.5,-458.83 28.33,-455 32.17,-455 32.17,-455 78.83,-455 78.83,-455 82.67,-455 86.5,-458.83 86.5,-462.67 86.5,-462.67 86.5,-470.33 86.5,-470.33 86.5,-474.17 82.67,-478 78.83,-478"/>
<text text-anchor="middle" x="55.5" y="-462.8" font-family="Arial" font-size="14.00" fill="#c6c5fe">Join.tsx</text>
</g>
<!-- Join.tsx&#45;&gt;../lib/logger.ts -->
<g id="edge60" class="edge">
<title>Join.tsx&#45;&gt;../lib/logger.ts</title>
<path fill="none" stroke="#757575" d="M78.57,-478.02C96.53,-486.9 122.77,-498.76 147,-505.5 235.39,-530.1 893.38,-561.16 965,-618.5 1027.72,-668.72 1043.06,-771.76 1046.8,-816.72"/>
<polygon fill="#757575" stroke="#757575" points="1043.32,-817.1 1047.52,-826.83 1050.3,-816.6 1043.32,-817.1"/>
</g>
<!-- Join.tsx&#45;&gt;../lib/mutations.ts -->
<g id="edge61" class="edge">
<title>Join.tsx&#45;&gt;../lib/mutations.ts</title>
<path fill="none" stroke="#757575" d="M58.26,-478.26C64,-512.16 85.5,-610.63 147,-656.5 148.83,-657.86 390.45,-695.19 512.33,-713.95"/>
<polygon fill="#757575" stroke="#757575" points="511.9,-717.42 522.32,-715.48 512.97,-710.5 511.9,-717.42"/>
</g>
<!-- Join.tsx&#45;&gt;../components/Alert.tsx -->
<g id="edge57" class="edge">
<title>Join.tsx&#45;&gt;../components/Alert.tsx</title>
<path fill="none" stroke="#757575" d="M66.96,-454.93C82.64,-438.34 113.96,-408.08 147,-392.5 160.76,-386.01 176.08,-381.14 191.24,-377.48"/>
<polygon fill="#757575" stroke="#757575" points="192.18,-380.86 201.17,-375.25 190.65,-374.03 192.18,-380.86"/>
</g>
<!-- Join.tsx&#45;&gt;../lib/supabaseClient.ts -->
<g id="edge62" class="edge">
<title>Join.tsx&#45;&gt;../lib/supabaseClient.ts</title>
<path fill="none" stroke="#757575" d="M57.47,-478.22C61.24,-515.64 78.28,-633.08 147,-690.5 241.46,-769.43 605.46,-814.05 772.87,-830.79"/>
<polygon fill="#757575" stroke="#757575" points="772.59,-834.28 782.88,-831.78 773.28,-827.31 772.59,-834.28"/>
</g>
<!-- Join.tsx&#45;&gt;../components/OptimizedFlagSelector.tsx -->
<g id="edge58" class="edge">
<title>Join.tsx&#45;&gt;../components/OptimizedFlagSelector.tsx</title>
<path fill="none" stroke="#757575" d="M58.37,-478.14C65.39,-521.97 90.85,-681.17 111,-812.5 119.21,-866.02 108.77,-1015.15 147,-1053.5 147.69,-1054.2 148.4,-1054.87 149.12,-1055.53"/>
<polygon fill="#757575" stroke="#757575" points="147.25,-1058.52 157.27,-1061.97 151.59,-1053.02 147.25,-1058.52"/>
</g>
<!-- Join.tsx&#45;&gt;../components/ReactBits/index.ts -->
<g id="edge59" class="edge">
<title>Join.tsx&#45;&gt;../components/ReactBits/index.ts</title>
<path fill="none" stroke="#757575" d="M66.17,-454.88C78.11,-440.05 98.38,-413.23 111,-387.5 134.22,-340.18 112.42,-314.28 147,-274.5 166.98,-251.51 197.23,-236.2 223.63,-226.43"/>
<polygon fill="#757575" stroke="#757575" points="224.89,-229.7 233.16,-223.08 222.57,-223.1 224.89,-229.7"/>
</g>
<!-- Join.tsx&#45;&gt;../lib/types.ts -->
<g id="edge63" class="edge">
<title>Join.tsx&#45;&gt;../lib/types.ts</title>
<path fill="none" stroke="#757575" d="M67.22,-454.98C80.03,-440.46 100.98,-414.17 111,-387.5 135.55,-322.17 94.9,-121.94 147,-75.5 214.85,-15.03 893.79,-19.02 965,-75.5 1018.08,-117.6 1040.43,-337.55 1046.32,-408.45"/>
<polygon fill="#757575" stroke="#757575" points="1042.87,-409.16 1047.16,-418.85 1049.85,-408.6 1042.87,-409.16"/>
</g>
<!-- Join.tsx&#45;&gt;../lib/userSession.ts -->
<g id="edge64" class="edge">
<title>Join.tsx&#45;&gt;../lib/userSession.ts</title>
<path fill="none" stroke="#757575" d="M64.43,-454.83C84.22,-425.87 135.09,-352.58 147,-346.5 368.11,-233.58 680.57,-289.43 804.43,-318.57"/>
<polygon fill="#757575" stroke="#757575" points="803.88,-322.04 814.42,-320.96 805.51,-315.23 803.88,-322.04"/>
</g>
<!-- Lobby.tsx -->
<g id="node34" class="node">
<title>Lobby.tsx</title>
<path fill="none" stroke="#c6c5fe" d="M84.83,-1144C84.83,-1144 26.17,-1144 26.17,-1144 22.33,-1144 18.5,-1140.17 18.5,-1136.33 18.5,-1136.33 18.5,-1128.67 18.5,-1128.67 18.5,-1124.83 22.33,-1121 26.17,-1121 26.17,-1121 84.83,-1121 84.83,-1121 88.67,-1121 92.5,-1124.83 92.5,-1128.67 92.5,-1128.67 92.5,-1136.33 92.5,-1136.33 92.5,-1140.17 88.67,-1144 84.83,-1144"/>
<text text-anchor="middle" x="55.5" y="-1128.8" font-family="Arial" font-size="14.00" fill="#c6c5fe">Lobby.tsx</text>
</g>
<!-- Lobby.tsx&#45;&gt;../atoms/index.ts -->
<g id="edge65" class="edge">
<title>Lobby.tsx&#45;&gt;../atoms/index.ts</title>
<path fill="none" stroke="#757575" d="M61.47,-1144.21C72.68,-1169.02 102.45,-1226.79 147,-1253.5 165.99,-1264.89 189.22,-1270.54 210.82,-1273.16"/>
<polygon fill="#757575" stroke="#757575" points="210.63,-1276.66 220.93,-1274.18 211.34,-1269.69 210.63,-1276.66"/>
</g>
<!-- Lobby.tsx&#45;&gt;../lib/types/supabase.ts -->
<g id="edge74" class="edge">
<title>Lobby.tsx&#45;&gt;../lib/types/supabase.ts</title>
<path fill="none" stroke="#757575" d="M57.94,-1144.15C62.99,-1179.77 83.16,-1288.13 147,-1343.5 297.92,-1474.4 381.22,-1460.5 581,-1460.5 581,-1460.5 581,-1460.5 1050,-1460.5 1165.52,-1460.5 1291.71,-1394.86 1345.86,-1363.19"/>
<polygon fill="#757575" stroke="#757575" points="1347.7,-1366.17 1354.52,-1358.06 1344.13,-1360.15 1347.7,-1366.17"/>
</g>
<!-- Lobby.tsx&#45;&gt;../lib/logger.ts -->
<g id="edge69" class="edge">
<title>Lobby.tsx&#45;&gt;../lib/logger.ts</title>
<path fill="none" stroke="#757575" d="M58.98,-1144.12C66.25,-1174.93 90.64,-1258.85 147,-1294.5 300.63,-1391.67 831.33,-1412.69 965,-1289.5 1029.16,-1230.37 1044.3,-941.87 1047.32,-860.12"/>
<polygon fill="#757575" stroke="#757575" points="1050.83,-860.12 1047.68,-850.01 1043.83,-859.88 1050.83,-860.12"/>
</g>
<!-- Lobby.tsx&#45;&gt;../lib/mutations.ts -->
<g id="edge70" class="edge">
<title>Lobby.tsx&#45;&gt;../lib/mutations.ts</title>
<path fill="none" stroke="#757575" d="M56.62,-1120.96C57.69,-1078.62 67.24,-930.23 147,-852.5 247.01,-755.03 417.41,-731.21 512.21,-725.75"/>
<polygon fill="#757575" stroke="#757575" points="512.46,-729.24 522.26,-725.22 512.09,-722.25 512.46,-729.24"/>
</g>
<!-- Lobby.tsx&#45;&gt;../components/Flag.tsx -->
<g id="edge66" class="edge">
<title>Lobby.tsx&#45;&gt;../components/Flag.tsx</title>
<path fill="none" stroke="#757575" d="M92.55,-1133.74C174.78,-1136.56 378.08,-1143.54 494.83,-1147.54"/>
<polygon fill="#757575" stroke="#757575" points="495.05,-1151.05 505.16,-1147.9 495.29,-1144.06 495.05,-1151.05"/>
</g>
<!-- Lobby.tsx&#45;&gt;../components/LobbyLogo.tsx -->
<g id="edge67" class="edge">
<title>Lobby.tsx&#45;&gt;../components/LobbyLogo.tsx</title>
<path fill="none" stroke="#757575" d="M84.67,-1144.04C102.34,-1150.96 125.74,-1159.55 147,-1165.5 163.8,-1170.2 182.04,-1174.38 199.42,-1177.95"/>
<polygon fill="#757575" stroke="#757575" points="199.05,-1181.44 209.54,-1179.97 200.42,-1174.58 199.05,-1181.44"/>
</g>
<!-- Lobby.tsx&#45;&gt;../lib/supabaseClient.ts -->
<g id="edge72" class="edge">
<title>Lobby.tsx&#45;&gt;../lib/supabaseClient.ts</title>
<path fill="none" stroke="#757575" d="M61.49,-1120.87C72.73,-1096.23 102.57,-1038.87 147,-1012.5 248.99,-951.96 295.25,-999.38 411,-973.5 562.55,-939.61 737.58,-880.85 816.09,-853.42"/>
<polygon fill="#757575" stroke="#757575" points="817.35,-856.68 825.63,-850.07 815.03,-850.08 817.35,-856.68"/>
</g>
<!-- Lobby.tsx&#45;&gt;../components/VideoCall.tsx -->
<g id="edge68" class="edge">
<title>Lobby.tsx&#45;&gt;../components/VideoCall.tsx</title>
<path fill="none" stroke="#757575" d="M65.66,-1144.04C80.59,-1161.97 112.05,-1196.15 147,-1212.5 156.24,-1216.82 166.2,-1220.25 176.37,-1222.96"/>
<polygon fill="#757575" stroke="#757575" points="175.62,-1226.38 186.16,-1225.34 177.27,-1219.58 175.62,-1226.38"/>
</g>
<!-- Lobby.tsx&#45;&gt;../lib/types.ts -->
<g id="edge73" class="edge">
<title>Lobby.tsx&#45;&gt;../lib/types.ts</title>
<path fill="none" stroke="#757575" d="M59.25,-1120.88C68.15,-1082.79 96.48,-958.11 111,-853.5 117.64,-805.68 113.58,-455.34 147,-420.5 187.93,-377.84 356.96,-411.48 411,-387.5 430.3,-378.94 427.78,-365.24 447,-356.5 572.07,-299.61 615.95,-322.3 753,-312.5 846.98,-305.78 881.38,-269.08 965,-312.5 1004.22,-332.87 1028.81,-381.22 1040.3,-409.3"/>
<polygon fill="#757575" stroke="#757575" points="1037.18,-410.92 1044.07,-418.97 1043.7,-408.38 1037.18,-410.92"/>
</g>
<!-- Lobby.tsx&#45;&gt;../lib/sessionHooks.ts -->
<g id="edge71" class="edge">
<title>Lobby.tsx&#45;&gt;../lib/sessionHooks.ts</title>
<path fill="none" stroke="#757575" d="M92.71,-1131.51C157.39,-1129.11 296.75,-1121.04 411,-1094.5 459.04,-1083.34 512.1,-1062.55 545.95,-1048.14"/>
<polygon fill="#757575" stroke="#757575" points="547.59,-1051.24 555.39,-1044.07 544.82,-1044.81 547.59,-1051.24"/>
</g>
<!-- Lobby.tsx&#45;&gt;../lib/useSessionData.ts -->
<g id="edge75" class="edge">
<title>Lobby.tsx&#45;&gt;../lib/useSessionData.ts</title>
<path fill="none" stroke="#757575" d="M59.67,-1120.98C68.32,-1091.92 95.18,-1015.32 147,-978.5 159.64,-969.52 174.61,-963.46 189.83,-959.4"/>
<polygon fill="#757575" stroke="#757575" points="190.93,-962.74 199.85,-957.02 189.31,-955.93 190.93,-962.74"/>
</g>
<!-- Lobby.tsx&#45;&gt;../lib/userSession.ts -->
<g id="edge76" class="edge">
<title>Lobby.tsx&#45;&gt;../lib/userSession.ts</title>
<path fill="none" stroke="#757575" d="M59.21,-1120.88C67.99,-1082.77 95.99,-958.04 111,-853.5 123.34,-767.57 87.89,-528.08 147,-464.5 187.5,-420.94 352.48,-431.13 411,-420.5 546.68,-395.84 704.88,-363.96 791.99,-346.12"/>
<polygon fill="#757575" stroke="#757575" points="792.91,-349.51 802,-344.07 791.5,-342.65 792.91,-349.51"/>
</g>
<!-- Quiz.tsx -->
<g id="node35" class="node">
<title>Quiz.tsx</title>
<path fill="none" stroke="#c6c5fe" d="M304.33,-614C304.33,-614 253.67,-614 253.67,-614 249.83,-614 246,-610.17 246,-606.33 246,-606.33 246,-598.67 246,-598.67 246,-594.83 249.83,-591 253.67,-591 253.67,-591 304.33,-591 304.33,-591 308.17,-591 312,-594.83 312,-598.67 312,-598.67 312,-606.33 312,-606.33 312,-610.17 308.17,-614 304.33,-614"/>
<text text-anchor="middle" x="279" y="-598.8" font-family="Arial" font-size="14.00" fill="#c6c5fe">Quiz.tsx</text>
</g>
<!-- Quiz.tsx&#45;&gt;../lib/logger.ts -->
<g id="edge77" class="edge">
<title>Quiz.tsx&#45;&gt;../lib/logger.ts</title>
<path fill="none" stroke="#757575" d="M312.02,-600.1C339.94,-599.47 380.61,-602.19 411,-619.5 433.56,-632.35 424.54,-652.49 447,-665.5 551.91,-726.28 608.97,-649.45 717,-704.5 737.44,-714.92 732.61,-730.97 753,-741.5 837.72,-785.26 877.38,-736.87 965,-774.5 989.77,-785.14 1013.67,-804.9 1029.41,-819.66"/>
<polygon fill="#757575" stroke="#757575" points="1027.24,-822.43 1036.86,-826.85 1032.1,-817.39 1027.24,-822.43"/>
</g>
<!-- Quiz.tsx&#45;&gt;../lib/mutations.ts -->
<g id="edge78" class="edge">
<title>Quiz.tsx&#45;&gt;../lib/mutations.ts</title>
<path fill="none" stroke="#757575" d="M312.24,-601.36C340.87,-601.96 382.48,-607.01 411,-628.5 438.94,-649.56 419.02,-677.5 447,-698.5 465.66,-712.5 489.78,-719.58 512.4,-722.99"/>
<polygon fill="#757575" stroke="#757575" points="511.96,-726.46 522.33,-724.27 512.86,-719.52 511.96,-726.46"/>
</g>
<!-- Quiz.tsx&#45;&gt;../lib/types.ts -->
<g id="edge81" class="edge">
<title>Quiz.tsx&#45;&gt;../lib/types.ts</title>
<path fill="none" stroke="#757575" d="M302.82,-590.92C369.77,-557.68 572.29,-462.34 753,-430.5 835.44,-415.98 932.85,-420 992.52,-424.8"/>
<polygon fill="#757575" stroke="#757575" points="992.59,-428.32 1002.85,-425.67 993.18,-421.35 992.59,-428.32"/>
</g>
<!-- Quiz.tsx&#45;&gt;../lib/realtimeHooks.ts -->
<g id="edge79" class="edge">
<title>Quiz.tsx&#45;&gt;../lib/realtimeHooks.ts</title>
<path fill="none" stroke="#757575" d="M312.21,-606.99C356.39,-613.16 437.3,-624.45 498.84,-633.04"/>
<polygon fill="#757575" stroke="#757575" points="498.55,-636.53 508.93,-634.44 499.51,-629.6 498.55,-636.53"/>
</g>
<!-- Quiz.tsx&#45;&gt;../lib/sessionHooks.ts -->
<g id="edge80" class="edge">
<title>Quiz.tsx&#45;&gt;../lib/sessionHooks.ts</title>
<path fill="none" stroke="#757575" d="M288.05,-614C329.02,-672.53 514.43,-937.41 567.04,-1012.56"/>
<polygon fill="#757575" stroke="#757575" points="564.18,-1014.58 572.78,-1020.76 569.92,-1010.56 564.18,-1014.58"/>
</g>
<!-- Results.tsx -->
<g id="node36" class="node">
<title>Results.tsx</title>
<path fill="none" stroke="#c6c5fe" d="M312.83,-1044C312.83,-1044 245.17,-1044 245.17,-1044 241.33,-1044 237.5,-1040.17 237.5,-1036.33 237.5,-1036.33 237.5,-1028.67 237.5,-1028.67 237.5,-1024.83 241.33,-1021 245.17,-1021 245.17,-1021 312.83,-1021 312.83,-1021 316.67,-1021 320.5,-1024.83 320.5,-1028.67 320.5,-1028.67 320.5,-1036.33 320.5,-1036.33 320.5,-1040.17 316.67,-1044 312.83,-1044"/>
<text text-anchor="middle" x="279" y="-1028.8" font-family="Arial" font-size="14.00" fill="#c6c5fe">Results.tsx</text>
</g>
<!-- Results.tsx&#45;&gt;../lib/logger.ts -->
<g id="edge82" class="edge">
<title>Results.tsx&#45;&gt;../lib/logger.ts</title>
<path fill="none" stroke="#757575" d="M320.65,-1033.98C347.25,-1036.14 382.27,-1041.31 411,-1053.5 429.41,-1061.31 428.03,-1074.18 447,-1080.5 556.73,-1117.08 875.19,-1102.4 965,-1029.5 1018.88,-985.76 1038.63,-900.23 1045.13,-860.17"/>
<polygon fill="#757575" stroke="#757575" points="1048.61,-860.56 1046.63,-850.15 1041.69,-859.52 1048.61,-860.56"/>
</g>
<!-- Results.tsx&#45;&gt;../lib/mutations.ts -->
<g id="edge83" class="edge">
<title>Results.tsx&#45;&gt;../lib/mutations.ts</title>
<path fill="none" stroke="#757575" d="M319.83,-1020.95C347.57,-1011.47 384.23,-995.93 411,-973.5 491.36,-906.16 550.04,-791.76 571.77,-745.17"/>
<polygon fill="#757575" stroke="#757575" points="574.97,-746.6 575.95,-736.05 568.6,-743.68 574.97,-746.6"/>
</g>
<!-- Results.tsx&#45;&gt;../lib/supabaseClient.ts -->
<g id="edge85" class="edge">
<title>Results.tsx&#45;&gt;../lib/supabaseClient.ts</title>
<path fill="none" stroke="#757575" d="M320.75,-1027.32C425.95,-1013.84 699.67,-978.05 717,-968.5 738.53,-956.63 735.52,-943.79 753,-926.5 779.43,-900.37 812.71,-873.35 834.64,-856.26"/>
<polygon fill="#757575" stroke="#757575" points="836.95,-858.9 842.73,-850.01 832.67,-853.36 836.95,-858.9"/>
</g>
<!-- Results.tsx&#45;&gt;../lib/sessionHooks.ts -->
<g id="edge84" class="edge">
<title>Results.tsx&#45;&gt;../lib/sessionHooks.ts</title>
<path fill="none" stroke="#757575" d="M320.59,-1032.5C366.39,-1032.5 442.03,-1032.5 500.02,-1032.5"/>
<polygon fill="#757575" stroke="#757575" points="500.26,-1036 510.26,-1032.5 500.26,-1029 500.26,-1036"/>
</g>
</g>
</svg>
