<?xml version="1.0" encoding="UTF-8" standalone="no"?>
<!DOCTYPE svg PUBLIC "-//W3C//DTD SVG 1.1//EN"
 "http://www.w3.org/Graphics/SVG/1.1/DTD/svg11.dtd">
<!-- Generated by graphviz version 2.43.0 (0)
 -->
<!-- Title: G Pages: 1 -->
<svg width="513pt" height="270pt"
 viewBox="0.00 0.00 513.12 270.20" xmlns="http://www.w3.org/2000/svg" xmlns:xlink="http://www.w3.org/1999/xlink">
<g id="graph0" class="graph" transform="scale(1 1) rotate(0) translate(21.6 248.6)">
<title>G</title>
<polygon fill="#111111" stroke="transparent" points="-21.6,21.6 -21.6,-248.6 491.52,-248.6 491.52,21.6 -21.6,21.6"/>
<!-- App.tsx -->
<g id="node1" class="node">
<title>App.tsx</title>
<path fill="none" stroke="#c6c5fe" d="M144.21,-88.23C144.21,-88.23 97.54,-88.23 97.54,-88.23 93.71,-88.23 89.87,-84.39 89.87,-80.56 89.87,-80.56 89.87,-72.89 89.87,-72.89 89.87,-69.06 93.71,-65.23 97.54,-65.23 97.54,-65.23 144.21,-65.23 144.21,-65.23 148.04,-65.23 151.87,-69.06 151.87,-72.89 151.87,-72.89 151.87,-80.56 151.87,-80.56 151.87,-84.39 148.04,-88.23 144.21,-88.23"/>
<text text-anchor="middle" x="120.87" y="-73.03" font-family="Arial" font-size="14.00" fill="#c6c5fe">App.tsx</text>
</g>
<!-- pages/GameSetup.tsx -->
<g id="node2" class="node">
<title>pages/GameSetup.tsx</title>
<path fill="none" stroke="#c6c5fe" d="M163.82,-110.56C163.82,-110.56 27.15,-110.56 27.15,-110.56 23.32,-110.56 19.48,-106.73 19.48,-102.89 19.48,-102.89 19.48,-95.23 19.48,-95.23 19.48,-91.39 23.32,-87.56 27.15,-87.56 27.15,-87.56 163.82,-87.56 163.82,-87.56 167.65,-87.56 171.48,-91.39 171.48,-95.23 171.48,-95.23 171.48,-102.89 171.48,-102.89 171.48,-106.73 167.65,-110.56 163.82,-110.56"/>
<text text-anchor="middle" x="95.48" y="-95.36" font-family="Arial" font-size="14.00" fill="#c6c5fe">pages/GameSetup.tsx</text>
</g>
<!-- App.tsx&#45;&gt;pages/GameSetup.tsx -->
<g id="edge1" class="edge">
<title>App.tsx&#45;&gt;pages/GameSetup.tsx</title>
<path fill="none" stroke="#757575" d="M107.58,-88.42C107.54,-88.46 107.49,-88.5 107.44,-88.54"/>
<polygon fill="#757575" stroke="#757575" points="112.49,-79.44 107.3,-88.67 117.12,-84.69 112.49,-79.44"/>
</g>
<!-- pages/Homepage.tsx -->
<g id="node3" class="node">
<title>pages/Homepage.tsx</title>
<path fill="none" stroke="#c6c5fe" d="M233.75,-128.57C233.75,-128.57 104.08,-128.57 104.08,-128.57 100.25,-128.57 96.42,-124.73 96.42,-120.9 96.42,-120.9 96.42,-113.23 96.42,-113.23 96.42,-109.4 100.25,-105.57 104.08,-105.57 104.08,-105.57 233.75,-105.57 233.75,-105.57 237.58,-105.57 241.42,-109.4 241.42,-113.23 241.42,-113.23 241.42,-120.9 241.42,-120.9 241.42,-124.73 237.58,-128.57 233.75,-128.57"/>
<text text-anchor="middle" x="168.92" y="-113.37" font-family="Arial" font-size="14.00" fill="#c6c5fe">pages/Homepage.tsx</text>
</g>
<!-- App.tsx&#45;&gt;pages/Homepage.tsx -->
<g id="edge2" class="edge">
<title>App.tsx&#45;&gt;pages/Homepage.tsx</title>
<path fill="none" stroke="#757575" d="M134.77,-88.39C138.69,-91.68 143.05,-95.34 147.3,-98.92"/>
<polygon fill="#757575" stroke="#757575" points="145.31,-101.81 155.22,-105.56 149.81,-96.45 145.31,-101.81"/>
</g>
<!-- pages/Join.tsx -->
<g id="node4" class="node">
<title>pages/Join.tsx</title>
<path fill="none" stroke="#c6c5fe" d="M212.59,-112.56C212.59,-112.56 124.92,-112.56 124.92,-112.56 121.09,-112.56 117.25,-108.73 117.25,-104.89 117.25,-104.89 117.25,-97.23 117.25,-97.23 117.25,-93.39 121.09,-89.56 124.92,-89.56 124.92,-89.56 212.59,-89.56 212.59,-89.56 216.42,-89.56 220.25,-93.39 220.25,-97.23 220.25,-97.23 220.25,-104.89 220.25,-104.89 220.25,-108.73 216.42,-112.56 212.59,-112.56"/>
<text text-anchor="middle" x="168.75" y="-97.36" font-family="Arial" font-size="14.00" fill="#c6c5fe">pages/Join.tsx</text>
</g>
<!-- App.tsx&#45;&gt;pages/Join.tsx -->
<g id="edge3" class="edge">
<title>App.tsx&#45;&gt;pages/Join.tsx</title>
<path fill="none" stroke="#757575" d="M143.69,-88.32C143.79,-88.37 143.88,-88.42 143.98,-88.47"/>
<polygon fill="#757575" stroke="#757575" points="135.5,-88.09 146.01,-89.5 138.68,-81.85 135.5,-88.09"/>
</g>
<!-- pages/Lobby.tsx -->
<g id="node5" class="node">
<title>pages/Lobby.tsx</title>
<path fill="none" stroke="#c6c5fe" d="M194.21,-75.91C194.21,-75.91 95.55,-75.91 95.55,-75.91 91.71,-75.91 87.88,-72.08 87.88,-68.25 87.88,-68.25 87.88,-60.58 87.88,-60.58 87.88,-56.75 91.71,-52.91 95.55,-52.91 95.55,-52.91 194.21,-52.91 194.21,-52.91 198.05,-52.91 201.88,-56.75 201.88,-60.58 201.88,-60.58 201.88,-68.25 201.88,-68.25 201.88,-72.08 198.05,-75.91 194.21,-75.91"/>
<text text-anchor="middle" x="144.88" y="-60.71" font-family="Arial" font-size="14.00" fill="#c6c5fe">pages/Lobby.tsx</text>
</g>
<!-- App.tsx&#45;&gt;pages/Lobby.tsx -->
<g id="edge4" class="edge">
<title>App.tsx&#45;&gt;pages/Lobby.tsx</title>
<path fill="none" stroke="#757575" d="M143.31,-65.22C143.55,-65.09 143.77,-64.98 143.97,-64.88"/>
<polygon fill="#757575" stroke="#757575" points="137.16,-72.31 144.46,-64.63 133.97,-66.08 137.16,-72.31"/>
</g>
<!-- pages/Quiz.tsx -->
<g id="node6" class="node">
<title>pages/Quiz.tsx</title>
<path fill="none" stroke="#c6c5fe" d="M158.71,-86.55C158.71,-86.55 67.04,-86.55 67.04,-86.55 63.21,-86.55 59.37,-82.72 59.37,-78.89 59.37,-78.89 59.37,-71.22 59.37,-71.22 59.37,-67.39 63.21,-63.55 67.04,-63.55 67.04,-63.55 158.71,-63.55 158.71,-63.55 162.54,-63.55 166.37,-67.39 166.37,-71.22 166.37,-71.22 166.37,-78.89 166.37,-78.89 166.37,-82.72 162.54,-86.55 158.71,-86.55"/>
<text text-anchor="middle" x="112.87" y="-71.35" font-family="Arial" font-size="14.00" fill="#c6c5fe">pages/Quiz.tsx</text>
</g>
<!-- App.tsx&#45;&gt;pages/Quiz.tsx -->
<g id="edge5" class="edge">
<title>App.tsx&#45;&gt;pages/Quiz.tsx</title>
<path fill="none" stroke="#757575" d="M112.96,-75.07C112.95,-75.07 112.93,-75.07 112.92,-75.06"/>
<polygon fill="#757575" stroke="#757575" points="123.41,-73.71 112.9,-75.06 121.96,-80.56 123.41,-73.71"/>
</g>
<!-- pages/Results.tsx -->
<g id="node7" class="node">
<title>pages/Results.tsx</title>
<path fill="none" stroke="#c6c5fe" d="M182.71,-80.71C182.71,-80.71 75.04,-80.71 75.04,-80.71 71.21,-80.71 67.37,-76.87 67.37,-73.04 67.37,-73.04 67.37,-65.37 67.37,-65.37 67.37,-61.54 71.21,-57.71 75.04,-57.71 75.04,-57.71 182.71,-57.71 182.71,-57.71 186.54,-57.71 190.37,-61.54 190.37,-65.37 190.37,-65.37 190.37,-73.04 190.37,-73.04 190.37,-76.87 186.54,-80.71 182.71,-80.71"/>
<text text-anchor="middle" x="128.87" y="-65.51" font-family="Arial" font-size="14.00" fill="#c6c5fe">pages/Results.tsx</text>
</g>
<!-- App.tsx&#45;&gt;pages/Results.tsx -->
<g id="edge6" class="edge">
<title>App.tsx&#45;&gt;pages/Results.tsx</title>
<path fill="none" stroke="#757575" d="M128.79,-69.29C128.8,-69.28 128.81,-69.27 128.82,-69.26"/>
<polygon fill="#757575" stroke="#757575" points="123.96,-78.64 128.85,-69.23 119.16,-73.53 123.96,-78.64"/>
</g>
<!-- atoms/index.ts -->
<g id="node8" class="node">
<title>atoms/index.ts</title>
<path fill="none" stroke="#c6c5fe" d="M214.89,-96.55C214.89,-96.55 126.23,-96.55 126.23,-96.55 122.39,-96.55 118.56,-92.72 118.56,-88.89 118.56,-88.89 118.56,-81.22 118.56,-81.22 118.56,-77.39 122.39,-73.55 126.23,-73.55 126.23,-73.55 214.89,-73.55 214.89,-73.55 218.73,-73.55 222.56,-77.39 222.56,-81.22 222.56,-81.22 222.56,-88.89 222.56,-88.89 222.56,-92.72 218.73,-96.55 214.89,-96.55"/>
<text text-anchor="middle" x="170.56" y="-81.35" font-family="Arial" font-size="14.00" fill="#c6c5fe">atoms/index.ts</text>
</g>
<!-- pages/GameSetup.tsx&#45;&gt;atoms/index.ts -->
<g id="edge41" class="edge">
<title>pages/GameSetup.tsx&#45;&gt;atoms/index.ts</title>
<path fill="none" stroke="#757575" d="M157.14,-87.56C157.2,-87.54 157.26,-87.53 157.32,-87.52"/>
<polygon fill="#757575" stroke="#757575" points="148.32,-92.77 157.51,-87.49 147.04,-85.89 148.32,-92.77"/>
</g>
<!-- lib/mutations.ts -->
<g id="node11" class="node">
<title>lib/mutations.ts</title>
<path fill="none" stroke="#c6c5fe" d="M204.26,-144.57C204.26,-144.57 112.6,-144.57 112.6,-144.57 108.76,-144.57 104.93,-140.74 104.93,-136.91 104.93,-136.91 104.93,-129.24 104.93,-129.24 104.93,-125.41 108.76,-121.57 112.6,-121.57 112.6,-121.57 204.26,-121.57 204.26,-121.57 208.1,-121.57 211.93,-125.41 211.93,-129.24 211.93,-129.24 211.93,-136.91 211.93,-136.91 211.93,-140.74 208.1,-144.57 204.26,-144.57"/>
<text text-anchor="middle" x="158.43" y="-129.37" font-family="Arial" font-size="14.00" fill="#c6c5fe">lib/mutations.ts</text>
</g>
<!-- pages/GameSetup.tsx&#45;&gt;lib/mutations.ts -->
<g id="edge44" class="edge">
<title>pages/GameSetup.tsx&#45;&gt;lib/mutations.ts</title>
<path fill="none" stroke="#757575" d="M116.79,-110.58C120.49,-112.57 124.39,-114.68 128.26,-116.77"/>
<polygon fill="#757575" stroke="#757575" points="126.68,-119.9 137.14,-121.57 130.01,-113.74 126.68,-119.9"/>
</g>
<!-- components/Alert.tsx -->
<g id="node12" class="node">
<title>components/Alert.tsx</title>
<path fill="none" stroke="#cfffac" d="M233.36,-120.56C233.36,-120.56 105.7,-120.56 105.7,-120.56 101.86,-120.56 98.03,-116.73 98.03,-112.89 98.03,-112.89 98.03,-105.23 98.03,-105.23 98.03,-101.39 101.86,-97.56 105.7,-97.56 105.7,-97.56 233.36,-97.56 233.36,-97.56 237.2,-97.56 241.03,-101.39 241.03,-105.23 241.03,-105.23 241.03,-112.89 241.03,-112.89 241.03,-116.73 237.2,-120.56 233.36,-120.56"/>
<text text-anchor="middle" x="169.53" y="-105.36" font-family="Arial" font-size="14.00" fill="#cfffac">components/Alert.tsx</text>
</g>
<!-- pages/GameSetup.tsx&#45;&gt;components/Alert.tsx -->
<g id="edge42" class="edge">
<title>pages/GameSetup.tsx&#45;&gt;components/Alert.tsx</title>
<path fill="none" stroke="#757575" d="M169.48,-109.05C169.49,-109.06 169.49,-109.06 169.5,-109.06"/>
<polygon fill="#757575" stroke="#757575" points="159.12,-111.14 169.52,-109.06 160.09,-104.2 159.12,-111.14"/>
</g>
<!-- components/LobbyStatus.tsx -->
<g id="node21" class="node">
<title>components/LobbyStatus.tsx</title>
<path fill="none" stroke="#c6c5fe" d="M183.33,-118.56C183.33,-118.56 7.67,-118.56 7.67,-118.56 3.83,-118.56 0,-114.73 0,-110.9 0,-110.9 0,-103.23 0,-103.23 0,-99.4 3.83,-95.56 7.67,-95.56 7.67,-95.56 183.33,-95.56 183.33,-95.56 187.17,-95.56 191,-99.4 191,-103.23 191,-103.23 191,-110.9 191,-110.9 191,-114.73 187.17,-118.56 183.33,-118.56"/>
<text text-anchor="middle" x="95.5" y="-103.36" font-family="Arial" font-size="14.00" fill="#c6c5fe">components/LobbyStatus.tsx</text>
</g>
<!-- pages/GameSetup.tsx&#45;&gt;components/LobbyStatus.tsx -->
<g id="edge43" class="edge">
<title>pages/GameSetup.tsx&#45;&gt;components/LobbyStatus.tsx</title>
<path fill="none" stroke="#757575" d="M95.5,-106.97C95.5,-106.99 95.5,-107 95.5,-107.01"/>
<polygon fill="#757575" stroke="#757575" points="91.94,-97.06 95.5,-107.04 98.94,-97.02 91.94,-97.06"/>
</g>
<!-- lib/supabaseClient.ts -->
<g id="node22" class="node">
<title>lib/supabaseClient.ts</title>
<path fill="none" stroke="#cfffac" d="M165.64,-134.57C165.64,-134.57 39.97,-134.57 39.97,-134.57 36.14,-134.57 32.3,-130.74 32.3,-126.91 32.3,-126.91 32.3,-119.24 32.3,-119.24 32.3,-115.41 36.14,-111.57 39.97,-111.57 39.97,-111.57 165.64,-111.57 165.64,-111.57 169.47,-111.57 173.3,-115.41 173.3,-119.24 173.3,-119.24 173.3,-126.91 173.3,-126.91 173.3,-130.74 169.47,-134.57 165.64,-134.57"/>
<text text-anchor="middle" x="102.8" y="-119.37" font-family="Arial" font-size="14.00" fill="#cfffac">lib/supabaseClient.ts</text>
</g>
<!-- pages/GameSetup.tsx&#45;&gt;lib/supabaseClient.ts -->
<g id="edge46" class="edge">
<title>pages/GameSetup.tsx&#45;&gt;lib/supabaseClient.ts</title>
<path fill="none" stroke="#757575" d="M99.06,-110.79C99.09,-110.88 99.12,-110.98 99.14,-111.07"/>
<polygon fill="#757575" stroke="#757575" points="92.97,-102.81 99.23,-111.36 99.66,-100.77 92.97,-102.81"/>
</g>
<!-- lib/types.ts -->
<g id="node30" class="node">
<title>lib/types.ts</title>
<path fill="none" stroke="#c6c5fe" d="M133.15,-102.56C133.15,-102.56 68.48,-102.56 68.48,-102.56 64.65,-102.56 60.82,-98.73 60.82,-94.89 60.82,-94.89 60.82,-87.23 60.82,-87.23 60.82,-83.39 64.65,-79.56 68.48,-79.56 68.48,-79.56 133.15,-79.56 133.15,-79.56 136.98,-79.56 140.82,-83.39 140.82,-87.23 140.82,-87.23 140.82,-94.89 140.82,-94.89 140.82,-98.73 136.98,-102.56 133.15,-102.56"/>
<text text-anchor="middle" x="100.82" y="-87.36" font-family="Arial" font-size="14.00" fill="#c6c5fe">lib/types.ts</text>
</g>
<!-- pages/GameSetup.tsx&#45;&gt;lib/types.ts -->
<g id="edge47" class="edge">
<title>pages/GameSetup.tsx&#45;&gt;lib/types.ts</title>
<path fill="none" stroke="#757575" d="M100.76,-91.15C100.77,-91.13 100.77,-91.12 100.78,-91.11"/>
<polygon fill="#757575" stroke="#757575" points="98.16,-101.35 100.8,-91.08 92.33,-97.46 98.16,-101.35"/>
</g>
<!-- lib/presence.ts -->
<g id="node33" class="node">
<title>lib/presence.ts</title>
<path fill="none" stroke="#c6c5fe" d="M142.85,-126.57C142.85,-126.57 54.19,-126.57 54.19,-126.57 50.35,-126.57 46.52,-122.74 46.52,-118.9 46.52,-118.9 46.52,-111.24 46.52,-111.24 46.52,-107.4 50.35,-103.57 54.19,-103.57 54.19,-103.57 142.85,-103.57 142.85,-103.57 146.69,-103.57 150.52,-107.4 150.52,-111.24 150.52,-111.24 150.52,-118.9 150.52,-118.9 150.52,-122.74 146.69,-126.57 142.85,-126.57"/>
<text text-anchor="middle" x="98.52" y="-111.37" font-family="Arial" font-size="14.00" fill="#c6c5fe">lib/presence.ts</text>
</g>
<!-- pages/GameSetup.tsx&#45;&gt;lib/presence.ts -->
<g id="edge45" class="edge">
<title>pages/GameSetup.tsx&#45;&gt;lib/presence.ts</title>
<path fill="none" stroke="#757575" d="M97.69,-110.7C97.71,-110.77 97.72,-110.85 97.73,-110.93"/>
<polygon fill="#757575" stroke="#757575" points="92.47,-101.98 97.78,-111.15 99.35,-100.68 92.47,-101.98"/>
</g>
<!-- components/ActiveGames.tsx -->
<g id="node10" class="node">
<title>components/ActiveGames.tsx</title>
<path fill="none" stroke="#c6c5fe" d="M256.68,-136.57C256.68,-136.57 75.01,-136.57 75.01,-136.57 71.18,-136.57 67.34,-132.74 67.34,-128.91 67.34,-128.91 67.34,-121.24 67.34,-121.24 67.34,-117.41 71.18,-113.57 75.01,-113.57 75.01,-113.57 256.68,-113.57 256.68,-113.57 260.51,-113.57 264.34,-117.41 264.34,-121.24 264.34,-121.24 264.34,-128.91 264.34,-128.91 264.34,-132.74 260.51,-136.57 256.68,-136.57"/>
<text text-anchor="middle" x="165.84" y="-121.37" font-family="Arial" font-size="14.00" fill="#c6c5fe">components/ActiveGames.tsx</text>
</g>
<!-- pages/Homepage.tsx&#45;&gt;components/ActiveGames.tsx -->
<g id="edge48" class="edge">
<title>pages/Homepage.tsx&#45;&gt;components/ActiveGames.tsx</title>
<path fill="none" stroke="#757575" d="M165.88,-124.98C165.87,-125 165.87,-125.01 165.86,-125.02"/>
<polygon fill="#757575" stroke="#757575" points="166.19,-114.45 165.85,-125.05 172.73,-116.97 166.19,-114.45"/>
</g>
<!-- pages/Homepage.tsx&#45;&gt;lib/mutations.ts -->
<g id="edge51" class="edge">
<title>pages/Homepage.tsx&#45;&gt;lib/mutations.ts</title>
<path fill="none" stroke="#757575" d="M161.3,-128.7C161.24,-128.78 161.19,-128.85 161.14,-128.93"/>
<polygon fill="#757575" stroke="#757575" points="163.55,-118.87 161,-129.16 169.41,-122.71 163.55,-118.87"/>
</g>
<!-- pages/Homepage.tsx&#45;&gt;components/Alert.tsx -->
<g id="edge49" class="edge">
<title>pages/Homepage.tsx&#45;&gt;components/Alert.tsx</title>
<path fill="none" stroke="#757575" d="M169.52,-109.15C169.52,-109.14 169.53,-109.12 169.53,-109.11"/>
<polygon fill="#757575" stroke="#757575" points="172.22,-119.33 169.53,-109.08 165.24,-118.78 172.22,-119.33"/>
</g>
<!-- components/PasswordModal.tsx -->
<g id="node25" class="node">
<title>components/PasswordModal.tsx</title>
<path fill="none" stroke="#cfffac" d="M275.26,-132.78C275.26,-132.78 78.6,-132.78 78.6,-132.78 74.76,-132.78 70.93,-128.95 70.93,-125.12 70.93,-125.12 70.93,-117.45 70.93,-117.45 70.93,-113.62 74.76,-109.78 78.6,-109.78 78.6,-109.78 275.26,-109.78 275.26,-109.78 279.1,-109.78 282.93,-113.62 282.93,-117.45 282.93,-117.45 282.93,-125.12 282.93,-125.12 282.93,-128.95 279.1,-132.78 275.26,-132.78"/>
<text text-anchor="middle" x="176.93" y="-117.58" font-family="Arial" font-size="14.00" fill="#cfffac">components/PasswordModal.tsx</text>
</g>
<!-- pages/Homepage.tsx&#45;&gt;components/PasswordModal.tsx -->
<g id="edge50" class="edge">
<title>pages/Homepage.tsx&#45;&gt;components/PasswordModal.tsx</title>
<path fill="none" stroke="#757575" d="M176.84,-121.23C176.85,-121.24 176.87,-121.25 176.88,-121.26"/>
<polygon fill="#757575" stroke="#757575" points="166.42,-119.7 176.91,-121.27 169.69,-113.5 166.42,-119.7"/>
</g>
<!-- pages/Join.tsx&#45;&gt;lib/mutations.ts -->
<g id="edge55" class="edge">
<title>pages/Join.tsx&#45;&gt;lib/mutations.ts</title>
<path fill="none" stroke="#757575" d="M165.03,-112.62C165,-112.71 164.97,-112.8 164.94,-112.89"/>
<polygon fill="#757575" stroke="#757575" points="161.92,-110.83 162.19,-121.42 168.59,-112.98 161.92,-110.83"/>
</g>
<!-- pages/Join.tsx&#45;&gt;components/Alert.tsx -->
<g id="edge52" class="edge">
<title>pages/Join.tsx&#45;&gt;components/Alert.tsx</title>
<path fill="none" stroke="#757575" d="M169.52,-108.97C169.52,-108.99 169.52,-109 169.53,-109.01"/>
<polygon fill="#757575" stroke="#757575" points="165.05,-99.43 169.53,-109.04 172.01,-98.74 165.05,-99.43"/>
</g>
<!-- components/FlagSelector.tsx -->
<g id="node20" class="node">
<title>components/FlagSelector.tsx</title>
<path fill="none" stroke="#cfffac" d="M265.04,-112.56C265.04,-112.56 89.37,-112.56 89.37,-112.56 85.54,-112.56 81.7,-108.72 81.7,-104.89 81.7,-104.89 81.7,-97.22 81.7,-97.22 81.7,-93.39 85.54,-89.56 89.37,-89.56 89.37,-89.56 265.04,-89.56 265.04,-89.56 268.87,-89.56 272.7,-93.39 272.7,-97.22 272.7,-97.22 272.7,-104.89 272.7,-104.89 272.7,-108.72 268.87,-112.56 265.04,-112.56"/>
<text text-anchor="middle" x="177.2" y="-97.36" font-family="Arial" font-size="14.00" fill="#cfffac">components/FlagSelector.tsx</text>
</g>
<!-- pages/Join.tsx&#45;&gt;components/FlagSelector.tsx -->
<g id="edge53" class="edge">
<title>pages/Join.tsx&#45;&gt;components/FlagSelector.tsx</title>
<path fill="none" stroke="#757575" d="M177.11,-101.06C177.12,-101.06 177.14,-101.06 177.15,-101.06"/>
<polygon fill="#757575" stroke="#757575" points="167.19,-104.59 177.18,-101.06 167.17,-97.59 167.19,-104.59"/>
</g>
<!-- components/LogoSelector.tsx -->
<g id="node23" class="node">
<title>components/LogoSelector.tsx</title>
<path fill="none" stroke="#c6c5fe" d="M259.63,-104.56C259.63,-104.56 80.96,-104.56 80.96,-104.56 77.13,-104.56 73.29,-100.72 73.29,-96.89 73.29,-96.89 73.29,-89.22 73.29,-89.22 73.29,-85.39 77.13,-81.56 80.96,-81.56 80.96,-81.56 259.63,-81.56 259.63,-81.56 263.46,-81.56 267.29,-85.39 267.29,-89.22 267.29,-89.22 267.29,-96.89 267.29,-96.89 267.29,-100.72 263.46,-104.56 259.63,-104.56"/>
<text text-anchor="middle" x="170.29" y="-89.36" font-family="Arial" font-size="14.00" fill="#c6c5fe">components/LogoSelector.tsx</text>
</g>
<!-- pages/Join.tsx&#45;&gt;components/LogoSelector.tsx -->
<g id="edge54" class="edge">
<title>pages/Join.tsx&#45;&gt;components/LogoSelector.tsx</title>
<path fill="none" stroke="#757575" d="M170.28,-93.15C170.28,-93.13 170.28,-93.12 170.28,-93.11"/>
<polygon fill="#757575" stroke="#757575" points="171.81,-103.57 170.29,-93.08 164.93,-102.23 171.81,-103.57"/>
</g>
<!-- pages/Lobby.tsx&#45;&gt;atoms/index.ts -->
<g id="edge56" class="edge">
<title>pages/Lobby.tsx&#45;&gt;atoms/index.ts</title>
<path fill="none" stroke="#757575" d="M159.22,-75.94C159.27,-75.98 159.31,-76.01 159.36,-76.05"/>
<polygon fill="#757575" stroke="#757575" points="149.51,-72.62 159.5,-76.16 153.89,-67.17 149.51,-72.62"/>
</g>
<!-- lib/types/supabase.ts -->
<g id="node9" class="node">
<title>lib/types/supabase.ts</title>
<path fill="none" stroke="#cfffac" d="M224.72,-80.55C224.72,-80.55 97.05,-80.55 97.05,-80.55 93.22,-80.55 89.39,-76.71 89.39,-72.88 89.39,-72.88 89.39,-65.21 89.39,-65.21 89.39,-61.38 93.22,-57.55 97.05,-57.55 97.05,-57.55 224.72,-57.55 224.72,-57.55 228.55,-57.55 232.39,-61.38 232.39,-65.21 232.39,-65.21 232.39,-72.88 232.39,-72.88 232.39,-76.71 228.55,-80.55 224.72,-80.55"/>
<text text-anchor="middle" x="160.89" y="-65.35" font-family="Arial" font-size="14.00" fill="#cfffac">lib/types/supabase.ts</text>
</g>
<!-- pages/Lobby.tsx&#45;&gt;lib/types/supabase.ts -->
<g id="edge60" class="edge">
<title>pages/Lobby.tsx&#45;&gt;lib/types/supabase.ts</title>
<path fill="none" stroke="#757575" d="M160.84,-69.03C160.85,-69.03 160.86,-69.04 160.86,-69.04"/>
<polygon fill="#757575" stroke="#757575" points="150.28,-69.58 160.88,-69.04 152.26,-62.85 150.28,-69.58"/>
</g>
<!-- pages/Lobby.tsx&#45;&gt;lib/mutations.ts -->
<g id="edge57" class="edge">
<title>pages/Lobby.tsx&#45;&gt;lib/mutations.ts</title>
<path fill="none" stroke="#757575" d="M147.18,-76.06C149.07,-85.67 151.82,-99.57 154.12,-111.24"/>
<polygon fill="#757575" stroke="#757575" points="150.7,-112.01 156.07,-121.14 157.57,-110.65 150.7,-112.01"/>
</g>
<!-- pages/Lobby.tsx&#45;&gt;lib/supabaseClient.ts -->
<g id="edge59" class="edge">
<title>pages/Lobby.tsx&#45;&gt;lib/supabaseClient.ts</title>
<path fill="none" stroke="#757575" d="M136.57,-76C130.98,-83.8 123.47,-94.27 116.95,-103.35"/>
<polygon fill="#757575" stroke="#757575" points="114.08,-101.34 111.1,-111.51 119.77,-105.42 114.08,-101.34"/>
</g>
<!-- lib/sessionHooks.ts -->
<g id="node36" class="node">
<title>lib/sessionHooks.ts</title>
<path fill="none" stroke="#c6c5fe" d="M195.21,-77.93C195.21,-77.93 78.55,-77.93 78.55,-77.93 74.71,-77.93 70.88,-74.09 70.88,-70.26 70.88,-70.26 70.88,-62.59 70.88,-62.59 70.88,-58.76 74.71,-54.93 78.55,-54.93 78.55,-54.93 195.21,-54.93 195.21,-54.93 199.05,-54.93 202.88,-58.76 202.88,-62.59 202.88,-62.59 202.88,-70.26 202.88,-70.26 202.88,-74.09 199.05,-77.93 195.21,-77.93"/>
<text text-anchor="middle" x="136.88" y="-62.73" font-family="Arial" font-size="14.00" fill="#c6c5fe">lib/sessionHooks.ts</text>
</g>
<!-- pages/Lobby.tsx&#45;&gt;lib/sessionHooks.ts -->
<g id="edge58" class="edge">
<title>pages/Lobby.tsx&#45;&gt;lib/sessionHooks.ts</title>
<path fill="none" stroke="#757575" d="M136.97,-66.41C136.95,-66.41 136.94,-66.41 136.93,-66.42"/>
<polygon fill="#757575" stroke="#757575" points="145.74,-60.56 136.9,-66.42 147.46,-67.35 145.74,-60.56"/>
</g>
<!-- pages/Quiz.tsx&#45;&gt;lib/mutations.ts -->
<g id="edge61" class="edge">
<title>pages/Quiz.tsx&#45;&gt;lib/mutations.ts</title>
<path fill="none" stroke="#757575" d="M122.09,-86.79C128.08,-94.42 136.04,-104.56 142.98,-113.4"/>
<polygon fill="#757575" stroke="#757575" points="140.3,-115.65 149.22,-121.35 145.8,-111.32 140.3,-115.65"/>
</g>
<!-- pages/Quiz.tsx&#45;&gt;lib/types.ts -->
<g id="edge64" class="edge">
<title>pages/Quiz.tsx&#45;&gt;lib/types.ts</title>
<path fill="none" stroke="#757575" d="M104.11,-86.69C104.05,-86.76 103.99,-86.84 103.94,-86.92"/>
<polygon fill="#757575" stroke="#757575" points="106.99,-77.05 103.76,-87.14 112.58,-81.26 106.99,-77.05"/>
</g>
<!-- lib/realtimeHooks.ts -->
<g id="node34" class="node">
<title>lib/realtimeHooks.ts</title>
<path fill="none" stroke="#c6c5fe" d="M164.82,-94.56C164.82,-94.56 45.15,-94.56 45.15,-94.56 41.32,-94.56 37.48,-90.72 37.48,-86.89 37.48,-86.89 37.48,-79.22 37.48,-79.22 37.48,-75.39 41.32,-71.56 45.15,-71.56 45.15,-71.56 164.82,-71.56 164.82,-71.56 168.65,-71.56 172.48,-75.39 172.48,-79.22 172.48,-79.22 172.48,-86.89 172.48,-86.89 172.48,-90.72 168.65,-94.56 164.82,-94.56"/>
<text text-anchor="middle" x="104.98" y="-79.36" font-family="Arial" font-size="14.00" fill="#c6c5fe">lib/realtimeHooks.ts</text>
</g>
<!-- pages/Quiz.tsx&#45;&gt;lib/realtimeHooks.ts -->
<g id="edge62" class="edge">
<title>pages/Quiz.tsx&#45;&gt;lib/realtimeHooks.ts</title>
<path fill="none" stroke="#757575" d="M105.07,-82.97C105.06,-82.98 105.04,-83 105.03,-83.01"/>
<polygon fill="#757575" stroke="#757575" points="109.54,-73.45 105.01,-83.04 114.53,-78.37 109.54,-73.45"/>
</g>
<!-- pages/Quiz.tsx&#45;&gt;lib/sessionHooks.ts -->
<g id="edge63" class="edge">
<title>pages/Quiz.tsx&#45;&gt;lib/sessionHooks.ts</title>
<path fill="none" stroke="#757575" d="M136.81,-66.45C136.82,-66.45 136.83,-66.45 136.84,-66.44"/>
<polygon fill="#757575" stroke="#757575" points="128.64,-73.14 136.86,-66.43 126.25,-66.55 128.64,-73.14"/>
</g>
<!-- pages/Results.tsx&#45;&gt;lib/mutations.ts -->
<g id="edge65" class="edge">
<title>pages/Results.tsx&#45;&gt;lib/mutations.ts</title>
<path fill="none" stroke="#757575" d="M134.3,-80.92C138.34,-89.65 143.96,-101.81 148.77,-112.2"/>
<polygon fill="#757575" stroke="#757575" points="145.67,-113.83 153.04,-121.43 152.02,-110.89 145.67,-113.83"/>
</g>
<!-- pages/Results.tsx&#45;&gt;lib/supabaseClient.ts -->
<g id="edge67" class="edge">
<title>pages/Results.tsx&#45;&gt;lib/supabaseClient.ts</title>
<path fill="none" stroke="#757575" d="M123.22,-80.9C120.21,-87.11 116.42,-94.93 112.93,-102.15"/>
<polygon fill="#757575" stroke="#757575" points="109.66,-100.88 108.45,-111.41 115.96,-103.93 109.66,-100.88"/>
</g>
<!-- pages/Results.tsx&#45;&gt;lib/sessionHooks.ts -->
<g id="edge66" class="edge">
<title>pages/Results.tsx&#45;&gt;lib/sessionHooks.ts</title>
<path fill="none" stroke="#757575" d="M136.79,-66.46C136.8,-66.45 136.82,-66.45 136.83,-66.45"/>
<polygon fill="#757575" stroke="#757575" points="128.56,-73.05 136.86,-66.44 126.25,-66.43 128.56,-73.05"/>
</g>
<!-- atoms/index.ts&#45;&gt;lib/types/supabase.ts -->
<g id="edge7" class="edge">
<title>atoms/index.ts&#45;&gt;lib/types/supabase.ts</title>
<path fill="none" stroke="#757575" d="M163.53,-73.42C163.48,-73.34 163.44,-73.27 163.39,-73.19"/>
<polygon fill="#757575" stroke="#757575" points="171.42,-79.71 163.25,-72.96 165.43,-83.33 171.42,-79.71"/>
</g>
<!-- components/ActiveGames.tsx&#45;&gt;lib/mutations.ts -->
<g id="edge8" class="edge">
<title>components/ActiveGames.tsx&#45;&gt;lib/mutations.ts</title>
<path fill="none" stroke="#757575" d="M158.51,-132.98C158.5,-133 158.49,-133.01 158.48,-133.02"/>
<polygon fill="#757575" stroke="#757575" points="162.69,-123.33 158.45,-133.05 167.83,-128.09 162.69,-123.33"/>
</g>
<!-- lib/mutations.ts&#45;&gt;lib/supabaseClient.ts -->
<g id="edge28" class="edge">
<title>lib/mutations.ts&#45;&gt;lib/supabaseClient.ts</title>
<path fill="none" stroke="#757575" d="M104.65,-123.41C104.51,-123.38 104.37,-123.35 104.24,-123.33"/>
<polygon fill="#757575" stroke="#757575" points="113.75,-121.48 103.29,-123.16 112.51,-128.37 113.75,-121.48"/>
</g>
<!-- lib/mutations.ts&#45;&gt;lib/types.ts -->
<g id="edge29" class="edge">
<title>lib/mutations.ts&#45;&gt;lib/types.ts</title>
<path fill="none" stroke="#757575" d="M142.38,-121.37C137.01,-117.45 130.9,-113 125.05,-108.73"/>
<polygon fill="#757575" stroke="#757575" points="126.92,-105.76 116.78,-102.7 122.8,-111.42 126.92,-105.76"/>
</g>
<!-- components/DailyJoinButton.test.tsx -->
<g id="node13" class="node">
<title>components/DailyJoinButton.test.tsx</title>
<path fill="none" stroke="#c6c5fe" d="M285.69,-82.02C285.69,-82.02 66.02,-82.02 66.02,-82.02 62.19,-82.02 58.35,-78.18 58.35,-74.35 58.35,-74.35 58.35,-66.68 58.35,-66.68 58.35,-62.85 62.19,-59.02 66.02,-59.02 66.02,-59.02 285.69,-59.02 285.69,-59.02 289.52,-59.02 293.35,-62.85 293.35,-66.68 293.35,-66.68 293.35,-74.35 293.35,-74.35 293.35,-78.18 289.52,-82.02 285.69,-82.02"/>
<text text-anchor="middle" x="175.85" y="-66.82" font-family="Arial" font-size="14.00" fill="#c6c5fe">components/DailyJoinButton.test.tsx</text>
</g>
<!-- components/DailyJoinButton.tsx -->
<g id="node14" class="node">
<title>components/DailyJoinButton.tsx</title>
<path fill="none" stroke="#c6c5fe" d="M264.68,-88.55C264.68,-88.55 71.02,-88.55 71.02,-88.55 67.18,-88.55 63.35,-84.72 63.35,-80.88 63.35,-80.88 63.35,-73.22 63.35,-73.22 63.35,-69.38 67.18,-65.55 71.02,-65.55 71.02,-65.55 264.68,-65.55 264.68,-65.55 268.52,-65.55 272.35,-69.38 272.35,-73.22 272.35,-73.22 272.35,-80.88 272.35,-80.88 272.35,-84.72 268.52,-88.55 264.68,-88.55"/>
<text text-anchor="middle" x="167.85" y="-73.35" font-family="Arial" font-size="14.00" fill="#c6c5fe">components/DailyJoinButton.tsx</text>
</g>
<!-- components/DailyJoinButton.test.tsx&#45;&gt;components/DailyJoinButton.tsx -->
<g id="edge9" class="edge">
<title>components/DailyJoinButton.test.tsx&#45;&gt;components/DailyJoinButton.tsx</title>
<path fill="none" stroke="#757575" d="M167.94,-76.98C167.92,-76.99 167.91,-77 167.9,-77.01"/>
<polygon fill="#757575" stroke="#757575" points="173.41,-67.98 167.87,-77.03 177.84,-73.41 173.41,-67.98"/>
</g>
<!-- components/DailyJoinButton.tsx&#45;&gt;atoms/index.ts -->
<g id="edge10" class="edge">
<title>components/DailyJoinButton.tsx&#45;&gt;atoms/index.ts</title>
<path fill="none" stroke="#757575" d="M170.53,-84.96C170.53,-84.98 170.54,-84.99 170.54,-85"/>
<polygon fill="#757575" stroke="#757575" points="164,-76.69 170.55,-85.03 170.64,-74.42 164,-76.69"/>
</g>
<!-- components/DailyJoinButton.tsx&#45;&gt;lib/mutations.ts -->
<g id="edge11" class="edge">
<title>components/DailyJoinButton.tsx&#45;&gt;lib/mutations.ts</title>
<path fill="none" stroke="#757575" d="M165.9,-88.66C164.79,-95.27 163.36,-103.76 162.05,-111.55"/>
<polygon fill="#757575" stroke="#757575" points="158.59,-111.04 160.38,-121.48 165.49,-112.2 158.59,-111.04"/>
</g>
<!-- components/EnhancedLobby.tsx -->
<g id="node15" class="node">
<title>components/EnhancedLobby.tsx</title>
<path fill="none" stroke="#c6c5fe" d="M224.76,-152.59C224.76,-152.59 28.09,-152.59 28.09,-152.59 24.26,-152.59 20.42,-148.76 20.42,-144.92 20.42,-144.92 20.42,-137.26 20.42,-137.26 20.42,-133.42 24.26,-129.59 28.09,-129.59 28.09,-129.59 224.76,-129.59 224.76,-129.59 228.59,-129.59 232.42,-133.42 232.42,-137.26 232.42,-137.26 232.42,-144.92 232.42,-144.92 232.42,-148.76 228.59,-152.59 224.76,-152.59"/>
<text text-anchor="middle" x="126.42" y="-137.39" font-family="Arial" font-size="14.00" fill="#c6c5fe">components/EnhancedLobby.tsx</text>
</g>
<!-- lib/enhancedPresence.ts -->
<g id="node16" class="node">
<title>lib/enhancedPresence.ts</title>
<path fill="none" stroke="#c6c5fe" d="M208.76,-154.05C208.76,-154.05 60.09,-154.05 60.09,-154.05 56.26,-154.05 52.42,-150.22 52.42,-146.38 52.42,-146.38 52.42,-138.72 52.42,-138.72 52.42,-134.88 56.26,-131.05 60.09,-131.05 60.09,-131.05 208.76,-131.05 208.76,-131.05 212.59,-131.05 216.42,-134.88 216.42,-138.72 216.42,-138.72 216.42,-146.38 216.42,-146.38 216.42,-150.22 212.59,-154.05 208.76,-154.05"/>
<text text-anchor="middle" x="134.42" y="-138.85" font-family="Arial" font-size="14.00" fill="#c6c5fe">lib/enhancedPresence.ts</text>
</g>
<!-- components/EnhancedLobby.tsx&#45;&gt;lib/enhancedPresence.ts -->
<g id="edge12" class="edge">
<title>components/EnhancedLobby.tsx&#45;&gt;lib/enhancedPresence.ts</title>
<path fill="none" stroke="#757575" d="M134.33,-142.53C134.35,-142.54 134.36,-142.54 134.37,-142.54"/>
<polygon fill="#757575" stroke="#757575" points="123.92,-144.16 134.4,-142.55 125.2,-137.28 123.92,-144.16"/>
</g>
<!-- lib/enhancedRealtimeHooks.ts -->
<g id="node17" class="node">
<title>lib/enhancedRealtimeHooks.ts</title>
<path fill="none" stroke="#c6c5fe" d="M202.75,-142.57C202.75,-142.57 18.08,-142.57 18.08,-142.57 14.25,-142.57 10.42,-138.74 10.42,-134.91 10.42,-134.91 10.42,-127.24 10.42,-127.24 10.42,-123.41 14.25,-119.57 18.08,-119.57 18.08,-119.57 202.75,-119.57 202.75,-119.57 206.58,-119.57 210.42,-123.41 210.42,-127.24 210.42,-127.24 210.42,-134.91 210.42,-134.91 210.42,-138.74 206.58,-142.57 202.75,-142.57"/>
<text text-anchor="middle" x="110.42" y="-127.37" font-family="Arial" font-size="14.00" fill="#c6c5fe">lib/enhancedRealtimeHooks.ts</text>
</g>
<!-- components/EnhancedLobby.tsx&#45;&gt;lib/enhancedRealtimeHooks.ts -->
<g id="edge13" class="edge">
<title>components/EnhancedLobby.tsx&#45;&gt;lib/enhancedRealtimeHooks.ts</title>
<path fill="none" stroke="#757575" d="M110.46,-131.1C110.46,-131.1 110.45,-131.09 110.44,-131.09"/>
<polygon fill="#757575" stroke="#757575" points="120.78,-133.44 110.43,-131.08 117.05,-139.38 120.78,-133.44"/>
</g>
<!-- lib/enhancedPresence.ts&#45;&gt;lib/mutations.ts -->
<g id="edge21" class="edge">
<title>lib/enhancedPresence.ts&#45;&gt;lib/mutations.ts</title>
<path fill="none" stroke="#757575" d="M158.36,-133.1C158.37,-133.1 158.38,-133.09 158.39,-133.09"/>
<polygon fill="#757575" stroke="#757575" points="150.4,-140.04 158.41,-133.08 147.81,-133.52 150.4,-140.04"/>
</g>
<!-- lib/enhancedPresence.ts&#45;&gt;lib/supabaseClient.ts -->
<g id="edge22" class="edge">
<title>lib/enhancedPresence.ts&#45;&gt;lib/supabaseClient.ts</title>
<path fill="none" stroke="#757575" d="M115.67,-131C115.61,-130.96 115.56,-130.93 115.51,-130.9"/>
<polygon fill="#757575" stroke="#757575" points="125.7,-133.07 115.35,-130.8 122.02,-139.03 125.7,-133.07"/>
</g>
<!-- lib/enhancedRealtimeHooks.ts&#45;&gt;lib/supabaseClient.ts -->
<g id="edge23" class="edge">
<title>lib/enhancedRealtimeHooks.ts&#45;&gt;lib/supabaseClient.ts</title>
<path fill="none" stroke="#757575" d="M102.89,-123.16C102.88,-123.15 102.86,-123.13 102.85,-123.12"/>
<polygon fill="#757575" stroke="#757575" points="112.27,-127.93 102.83,-123.1 107.19,-132.76 112.27,-127.93"/>
</g>
<!-- lib/enhancedRealtimeHooks.ts&#45;&gt;lib/types.ts -->
<g id="edge24" class="edge">
<title>lib/enhancedRealtimeHooks.ts&#45;&gt;lib/types.ts</title>
<path fill="none" stroke="#757575" d="M107.59,-119.28C107.08,-117.15 106.53,-114.86 105.97,-112.55"/>
<polygon fill="#757575" stroke="#757575" points="109.33,-111.53 103.59,-102.63 102.52,-113.17 109.33,-111.53"/>
</g>
<!-- components/Flag.tsx -->
<g id="node18" class="node">
<title>components/Flag.tsx</title>
<path fill="none" stroke="#c6c5fe" d="M194.49,-227C194.49,-227 67.83,-227 67.83,-227 63.99,-227 60.16,-223.17 60.16,-219.33 60.16,-219.33 60.16,-211.67 60.16,-211.67 60.16,-207.83 63.99,-204 67.83,-204 67.83,-204 194.49,-204 194.49,-204 198.33,-204 202.16,-207.83 202.16,-211.67 202.16,-211.67 202.16,-219.33 202.16,-219.33 202.16,-223.17 198.33,-227 194.49,-227"/>
<text text-anchor="middle" x="131.16" y="-211.8" font-family="Arial" font-size="14.00" fill="#c6c5fe">components/Flag.tsx</text>
</g>
<!-- lib/flagIcons.ts -->
<g id="node19" class="node">
<title>lib/flagIcons.ts</title>
<path fill="none" stroke="#cfffac" d="M182.49,-227C182.49,-227 95.83,-227 95.83,-227 91.99,-227 88.16,-223.17 88.16,-219.33 88.16,-219.33 88.16,-211.67 88.16,-211.67 88.16,-207.83 91.99,-204 95.83,-204 95.83,-204 182.49,-204 182.49,-204 186.33,-204 190.16,-207.83 190.16,-211.67 190.16,-211.67 190.16,-219.33 190.16,-219.33 190.16,-223.17 186.33,-227 182.49,-227"/>
<text text-anchor="middle" x="139.16" y="-211.8" font-family="Arial" font-size="14.00" fill="#cfffac">lib/flagIcons.ts</text>
</g>
<!-- components/Flag.tsx&#45;&gt;lib/flagIcons.ts -->
<g id="edge14" class="edge">
<title>components/Flag.tsx&#45;&gt;lib/flagIcons.ts</title>
<path fill="none" stroke="#757575" d="M139.07,-215.5C139.08,-215.5 139.1,-215.5 139.11,-215.5"/>
<polygon fill="#757575" stroke="#757575" points="129.15,-219.04 139.14,-215.5 129.12,-212.04 129.15,-219.04"/>
</g>
<!-- components/LobbyStatus.tsx&#45;&gt;lib/supabaseClient.ts -->
<g id="edge15" class="edge">
<title>components/LobbyStatus.tsx&#45;&gt;lib/supabaseClient.ts</title>
<path fill="none" stroke="#757575" d="M100.81,-118.7C100.84,-118.78 100.88,-118.85 100.91,-118.93"/>
<polygon fill="#757575" stroke="#757575" points="93.68,-111.51 101.02,-119.16 100.05,-108.6 93.68,-111.51"/>
</g>
<!-- components/LogoSelector.tsx&#45;&gt;lib/supabaseClient.ts -->
<g id="edge16" class="edge">
<title>components/LogoSelector.tsx&#45;&gt;lib/supabaseClient.ts</title>
<path fill="none" stroke="#757575" d="M144.39,-104.57C142.34,-105.49 140.24,-106.42 138.14,-107.36"/>
<polygon fill="#757575" stroke="#757575" points="136.68,-104.17 128.97,-111.43 139.53,-110.57 136.68,-104.17"/>
</g>
<!-- components/PasswordModal.test.tsx -->
<g id="node24" class="node">
<title>components/PasswordModal.test.tsx</title>
<path fill="none" stroke="#c6c5fe" d="M296.27,-137.23C296.27,-137.23 73.6,-137.23 73.6,-137.23 69.77,-137.23 65.93,-133.4 65.93,-129.57 65.93,-129.57 65.93,-121.9 65.93,-121.9 65.93,-118.07 69.77,-114.23 73.6,-114.23 73.6,-114.23 296.27,-114.23 296.27,-114.23 300.1,-114.23 303.93,-118.07 303.93,-121.9 303.93,-121.9 303.93,-129.57 303.93,-129.57 303.93,-133.4 300.1,-137.23 296.27,-137.23"/>
<text text-anchor="middle" x="184.93" y="-122.03" font-family="Arial" font-size="14.00" fill="#c6c5fe">components/PasswordModal.test.tsx</text>
</g>
<!-- components/PasswordModal.test.tsx&#45;&gt;components/PasswordModal.tsx -->
<g id="edge17" class="edge">
<title>components/PasswordModal.test.tsx&#45;&gt;components/PasswordModal.tsx</title>
<path fill="none" stroke="#757575" d="M177.02,-121.33C177,-121.32 176.99,-121.32 176.98,-121.31"/>
<polygon fill="#757575" stroke="#757575" points="187.4,-123.11 176.95,-121.29 183.99,-129.23 187.4,-123.11"/>
</g>
<!-- components/TeamLogoPicker.test.tsx -->
<g id="node26" class="node">
<title>components/TeamLogoPicker.test.tsx</title>
<path fill="none" stroke="#c6c5fe" d="M462.25,-203C462.25,-203 235.59,-203 235.59,-203 231.75,-203 227.92,-199.17 227.92,-195.33 227.92,-195.33 227.92,-187.67 227.92,-187.67 227.92,-183.83 231.75,-180 235.59,-180 235.59,-180 462.25,-180 462.25,-180 466.09,-180 469.92,-183.83 469.92,-187.67 469.92,-187.67 469.92,-195.33 469.92,-195.33 469.92,-199.17 466.09,-203 462.25,-203"/>
<text text-anchor="middle" x="348.92" y="-187.8" font-family="Arial" font-size="14.00" fill="#c6c5fe">components/TeamLogoPicker.test.tsx</text>
</g>
<!-- components/TeamLogoPicker.tsx -->
<g id="node27" class="node">
<title>components/TeamLogoPicker.tsx</title>
<path fill="none" stroke="#cfffac" d="M457.25,-203C457.25,-203 256.59,-203 256.59,-203 252.75,-203 248.92,-199.17 248.92,-195.33 248.92,-195.33 248.92,-187.67 248.92,-187.67 248.92,-183.83 252.75,-180 256.59,-180 256.59,-180 457.25,-180 457.25,-180 461.09,-180 464.92,-183.83 464.92,-187.67 464.92,-187.67 464.92,-195.33 464.92,-195.33 464.92,-199.17 461.09,-203 457.25,-203"/>
<text text-anchor="middle" x="356.92" y="-187.8" font-family="Arial" font-size="14.00" fill="#cfffac">components/TeamLogoPicker.tsx</text>
</g>
<!-- components/TeamLogoPicker.test.tsx&#45;&gt;components/TeamLogoPicker.tsx -->
<g id="edge18" class="edge">
<title>components/TeamLogoPicker.test.tsx&#45;&gt;components/TeamLogoPicker.tsx</title>
<path fill="none" stroke="#757575" d="M356.83,-191.5C356.84,-191.5 356.86,-191.5 356.87,-191.5"/>
<polygon fill="#757575" stroke="#757575" points="346.91,-195.04 356.9,-191.5 346.88,-188.04 346.91,-195.04"/>
</g>
<!-- index.css -->
<g id="node28" class="node">
<title>index.css</title>
<path fill="none" stroke="#cfffac" d="M143.16,-70.54C143.16,-70.54 85.49,-70.54 85.49,-70.54 81.66,-70.54 77.83,-66.71 77.83,-62.88 77.83,-62.88 77.83,-55.21 77.83,-55.21 77.83,-51.38 81.66,-47.54 85.49,-47.54 85.49,-47.54 143.16,-47.54 143.16,-47.54 146.99,-47.54 150.83,-51.38 150.83,-55.21 150.83,-55.21 150.83,-62.88 150.83,-62.88 150.83,-66.71 146.99,-70.54 143.16,-70.54"/>
<text text-anchor="middle" x="114.33" y="-55.34" font-family="Arial" font-size="14.00" fill="#cfffac">index.css</text>
</g>
<!-- lib/createSession.test.ts -->
<g id="node29" class="node">
<title>lib/createSession.test.ts</title>
<path fill="none" stroke="#c6c5fe" d="M222.26,-149.95C222.26,-149.95 78.6,-149.95 78.6,-149.95 74.76,-149.95 70.93,-146.12 70.93,-142.29 70.93,-142.29 70.93,-134.62 70.93,-134.62 70.93,-130.79 74.76,-126.95 78.6,-126.95 78.6,-126.95 222.26,-126.95 222.26,-126.95 226.1,-126.95 229.93,-130.79 229.93,-134.62 229.93,-134.62 229.93,-142.29 229.93,-142.29 229.93,-146.12 226.1,-149.95 222.26,-149.95"/>
<text text-anchor="middle" x="150.43" y="-134.75" font-family="Arial" font-size="14.00" fill="#c6c5fe">lib/createSession.test.ts</text>
</g>
<!-- lib/createSession.test.ts&#45;&gt;lib/mutations.ts -->
<g id="edge19" class="edge">
<title>lib/createSession.test.ts&#45;&gt;lib/mutations.ts</title>
<path fill="none" stroke="#757575" d="M158.34,-133.13C158.35,-133.12 158.37,-133.12 158.38,-133.11"/>
<polygon fill="#757575" stroke="#757575" points="152.06,-141.59 158.41,-133.09 148.15,-135.77 152.06,-141.59"/>
</g>
<!-- lib/createSession.test.ts&#45;&gt;lib/supabaseClient.ts -->
<g id="edge20" class="edge">
<title>lib/createSession.test.ts&#45;&gt;lib/supabaseClient.ts</title>
<path fill="none" stroke="#757575" d="M114.33,-126.8C114.28,-126.78 114.23,-126.76 114.18,-126.75"/>
<polygon fill="#757575" stroke="#757575" points="124.62,-126.44 114.02,-126.7 122.46,-133.1 124.62,-126.44"/>
</g>
<!-- lib/types/index.ts -->
<g id="node37" class="node">
<title>lib/types/index.ts</title>
<path fill="none" stroke="#c6c5fe" d="M203.22,-77.33C203.22,-77.33 102.55,-77.33 102.55,-77.33 98.72,-77.33 94.88,-73.5 94.88,-69.66 94.88,-69.66 94.88,-62 94.88,-62 94.88,-58.16 98.72,-54.33 102.55,-54.33 102.55,-54.33 203.22,-54.33 203.22,-54.33 207.05,-54.33 210.88,-58.16 210.88,-62 210.88,-62 210.88,-69.66 210.88,-69.66 210.88,-73.5 207.05,-77.33 203.22,-77.33"/>
<text text-anchor="middle" x="152.88" y="-62.13" font-family="Arial" font-size="14.00" fill="#c6c5fe">lib/types/index.ts</text>
</g>
<!-- lib/types.ts&#45;&gt;lib/types/index.ts -->
<g id="edge37" class="edge">
<title>lib/types.ts&#45;&gt;lib/types/index.ts</title>
<path fill="none" stroke="#757575" d="M124.72,-79.48C124.8,-79.44 124.89,-79.39 124.98,-79.35"/>
<polygon fill="#757575" stroke="#757575" points="121.42,-84.96 128.89,-77.45 118.37,-78.66 121.42,-84.96"/>
</g>
<!-- lib/mutations.test.ts -->
<g id="node31" class="node">
<title>lib/mutations.test.ts</title>
<path fill="none" stroke="#c6c5fe" d="M177.25,-148.94C177.25,-148.94 59.59,-148.94 59.59,-148.94 55.75,-148.94 51.92,-145.11 51.92,-141.27 51.92,-141.27 51.92,-133.61 51.92,-133.61 51.92,-129.77 55.75,-125.94 59.59,-125.94 59.59,-125.94 177.25,-125.94 177.25,-125.94 181.09,-125.94 184.92,-129.77 184.92,-133.61 184.92,-133.61 184.92,-141.27 184.92,-141.27 184.92,-145.11 181.09,-148.94 177.25,-148.94"/>
<text text-anchor="middle" x="118.42" y="-133.74" font-family="Arial" font-size="14.00" fill="#c6c5fe">lib/mutations.test.ts</text>
</g>
<!-- lib/mutations.test.ts&#45;&gt;lib/mutations.ts -->
<g id="edge25" class="edge">
<title>lib/mutations.test.ts&#45;&gt;lib/mutations.ts</title>
<path fill="none" stroke="#757575" d="M158.31,-133.09C158.33,-133.08 158.35,-133.08 158.36,-133.08"/>
<polygon fill="#757575" stroke="#757575" points="148.85,-137.67 158.4,-133.08 148.07,-130.71 148.85,-137.67"/>
</g>
<!-- lib/mutations.test.ts&#45;&gt;lib/supabaseClient.ts -->
<g id="edge26" class="edge">
<title>lib/mutations.test.ts&#45;&gt;lib/supabaseClient.ts</title>
<path fill="none" stroke="#757575" d="M105.82,-125.84C105.76,-125.79 105.7,-125.74 105.65,-125.69"/>
<polygon fill="#757575" stroke="#757575" points="115.22,-129.74 105.49,-125.54 110.48,-134.89 115.22,-129.74"/>
</g>
<!-- lib/mutations.test.ts&#45;&gt;lib/types.ts -->
<g id="edge27" class="edge">
<title>lib/mutations.test.ts&#45;&gt;lib/types.ts</title>
<path fill="none" stroke="#757575" d="M113.98,-125.74C112.42,-121.64 110.63,-116.9 108.87,-112.27"/>
<polygon fill="#757575" stroke="#757575" points="112.02,-110.71 105.2,-102.6 105.47,-113.19 112.02,-110.71"/>
</g>
<!-- lib/mutations.validation.ts -->
<g id="node32" class="node">
<title>lib/mutations.validation.ts</title>
<path fill="none" stroke="#cfffac" d="M400.08,-35C400.08,-35 247.41,-35 247.41,-35 243.58,-35 239.75,-31.17 239.75,-27.33 239.75,-27.33 239.75,-19.67 239.75,-19.67 239.75,-15.83 243.58,-12 247.41,-12 247.41,-12 400.08,-12 400.08,-12 403.91,-12 407.75,-15.83 407.75,-19.67 407.75,-19.67 407.75,-27.33 407.75,-27.33 407.75,-31.17 403.91,-35 400.08,-35"/>
<text text-anchor="middle" x="323.75" y="-19.8" font-family="Arial" font-size="14.00" fill="#cfffac">lib/mutations.validation.ts</text>
</g>
<!-- lib/presence.ts&#45;&gt;lib/mutations.ts -->
<g id="edge30" class="edge">
<title>lib/presence.ts&#45;&gt;lib/mutations.ts</title>
<path fill="none" stroke="#757575" d="M136.8,-126.57C136.85,-126.59 136.89,-126.6 136.94,-126.62"/>
<polygon fill="#757575" stroke="#757575" points="126.49,-127.13 137.08,-126.66 128.51,-120.42 126.49,-127.13"/>
</g>
<!-- lib/presence.ts&#45;&gt;lib/supabaseClient.ts -->
<g id="edge31" class="edge">
<title>lib/presence.ts&#45;&gt;lib/supabaseClient.ts</title>
<path fill="none" stroke="#757575" d="M102.76,-122.98C102.76,-123 102.77,-123.01 102.78,-123.02"/>
<polygon fill="#757575" stroke="#757575" points="94.97,-115.89 102.79,-123.05 101.14,-112.57 94.97,-115.89"/>
</g>
<!-- lib/realtimeHooks.ts&#45;&gt;lib/supabaseClient.ts -->
<g id="edge32" class="edge">
<title>lib/realtimeHooks.ts&#45;&gt;lib/supabaseClient.ts</title>
<path fill="none" stroke="#757575" d="M104.34,-94.85C104.23,-96.9 104.11,-99.09 103.99,-101.32"/>
<polygon fill="#757575" stroke="#757575" points="100.48,-101.33 103.43,-111.51 107.47,-101.71 100.48,-101.33"/>
</g>
<!-- lib/realtimeHooks.ts&#45;&gt;lib/types.ts -->
<g id="edge33" class="edge">
<title>lib/realtimeHooks.ts&#45;&gt;lib/types.ts</title>
<path fill="none" stroke="#757575" d="M100.86,-90.97C100.85,-90.98 100.85,-91 100.84,-91.01"/>
<polygon fill="#757575" stroke="#757575" points="102.36,-80.54 100.83,-91.04 108.57,-83.79 102.36,-80.54"/>
</g>
<!-- lib/sessionCode.test.ts -->
<g id="node35" class="node">
<title>lib/sessionCode.test.ts</title>
<path fill="none" stroke="#c6c5fe" d="M210.76,-153.17C210.76,-153.17 74.09,-153.17 74.09,-153.17 70.26,-153.17 66.43,-149.34 66.43,-145.5 66.43,-145.5 66.43,-137.84 66.43,-137.84 66.43,-134 70.26,-130.17 74.09,-130.17 74.09,-130.17 210.76,-130.17 210.76,-130.17 214.59,-130.17 218.43,-134 218.43,-137.84 218.43,-137.84 218.43,-145.5 218.43,-145.5 218.43,-149.34 214.59,-153.17 210.76,-153.17"/>
<text text-anchor="middle" x="142.43" y="-137.97" font-family="Arial" font-size="14.00" fill="#c6c5fe">lib/sessionCode.test.ts</text>
</g>
<!-- lib/sessionCode.test.ts&#45;&gt;lib/mutations.ts -->
<g id="edge34" class="edge">
<title>lib/sessionCode.test.ts&#45;&gt;lib/mutations.ts</title>
<path fill="none" stroke="#757575" d="M158.38,-133.1C158.39,-133.09 158.4,-133.09 158.4,-133.09"/>
<polygon fill="#757575" stroke="#757575" points="151.27,-140.93 158.42,-133.08 147.93,-134.76 151.27,-140.93"/>
</g>
<!-- lib/sessionCode.test.ts&#45;&gt;lib/supabaseClient.ts -->
<g id="edge35" class="edge">
<title>lib/sessionCode.test.ts&#45;&gt;lib/supabaseClient.ts</title>
<path fill="none" stroke="#757575" d="M117.56,-130C117.5,-129.97 117.43,-129.94 117.37,-129.91"/>
<polygon fill="#757575" stroke="#757575" points="127.73,-130.91 117.19,-129.82 124.75,-137.24 127.73,-130.91"/>
</g>
<!-- lib/sessionHooks.ts&#45;&gt;lib/supabaseClient.ts -->
<g id="edge36" class="edge">
<title>lib/sessionHooks.ts&#45;&gt;lib/supabaseClient.ts</title>
<path fill="none" stroke="#757575" d="M129.82,-78.16C125.57,-85.23 120.04,-94.42 115.1,-102.64"/>
<polygon fill="#757575" stroke="#757575" points="112.01,-100.98 109.86,-111.35 118.01,-104.59 112.01,-100.98"/>
</g>
<!-- lib/types/index.ts&#45;&gt;lib/types/supabase.ts -->
<g id="edge38" class="edge">
<title>lib/types/index.ts&#45;&gt;lib/types/supabase.ts</title>
<path fill="none" stroke="#757575" d="M160.8,-69.01C160.81,-69.02 160.83,-69.02 160.84,-69.03"/>
<polygon fill="#757575" stroke="#757575" points="150.27,-68.54 160.86,-69.04 152.89,-62.04 150.27,-68.54"/>
</g>
<!-- main.tsx -->
<g id="node38" class="node">
<title>main.tsx</title>
<path fill="none" stroke="#c6c5fe" d="M144.98,-78.55C144.98,-78.55 92.32,-78.55 92.32,-78.55 88.48,-78.55 84.65,-74.72 84.65,-70.89 84.65,-70.89 84.65,-63.22 84.65,-63.22 84.65,-59.39 88.48,-55.55 92.32,-55.55 92.32,-55.55 144.98,-55.55 144.98,-55.55 148.82,-55.55 152.65,-59.39 152.65,-63.22 152.65,-63.22 152.65,-70.89 152.65,-70.89 152.65,-74.72 148.82,-78.55 144.98,-78.55"/>
<text text-anchor="middle" x="118.65" y="-63.35" font-family="Arial" font-size="14.00" fill="#c6c5fe">main.tsx</text>
</g>
<!-- main.tsx&#45;&gt;App.tsx -->
<g id="edge39" class="edge">
<title>main.tsx&#45;&gt;App.tsx</title>
<path fill="none" stroke="#757575" d="M120.85,-76.62C120.85,-76.64 120.86,-76.65 120.86,-76.67"/>
<polygon fill="#757575" stroke="#757575" points="115.19,-67.74 120.87,-76.7 122.02,-66.16 115.19,-67.74"/>
</g>
<!-- main.tsx&#45;&gt;index.css -->
<g id="edge40" class="edge">
<title>main.tsx&#45;&gt;index.css</title>
<path fill="none" stroke="#757575" d="M114.37,-59.13C114.37,-59.12 114.36,-59.11 114.35,-59.09"/>
<polygon fill="#757575" stroke="#757575" points="122.19,-66.2 114.34,-59.07 116.02,-69.54 122.19,-66.2"/>
</g>
<!-- setupTests.ts -->
<g id="node39" class="node">
<title>setupTests.ts</title>
<path fill="none" stroke="#cfffac" d="M135.58,-23C135.58,-23 55.91,-23 55.91,-23 52.08,-23 48.25,-19.17 48.25,-15.33 48.25,-15.33 48.25,-7.67 48.25,-7.67 48.25,-3.83 52.08,0 55.91,0 55.91,0 135.58,0 135.58,0 139.41,0 143.25,-3.83 143.25,-7.67 143.25,-7.67 143.25,-15.33 143.25,-15.33 143.25,-19.17 139.41,-23 135.58,-23"/>
<text text-anchor="middle" x="95.75" y="-7.8" font-family="Arial" font-size="14.00" fill="#cfffac">setupTests.ts</text>
</g>
</g>
</svg>
