<?xml version="1.0" encoding="UTF-8" standalone="no"?>
<!DOCTYPE svg PUBLIC "-//W3C//DTD SVG 1.1//EN"
 "http://www.w3.org/Graphics/SVG/1.1/DTD/svg11.dtd">
<!-- Generated by graphviz version 2.43.0 (0)
 -->
<!-- Title: G Pages: 1 -->
<svg width="1511pt" height="1504pt"
 viewBox="0.00 0.00 1511.20 1503.70" xmlns="http://www.w3.org/2000/svg" xmlns:xlink="http://www.w3.org/1999/xlink">
<g id="graph0" class="graph" transform="scale(1 1) rotate(0) translate(21.6 1482.1)">
<title>G</title>
<polygon fill="#111111" stroke="transparent" points="-21.6,21.6 -21.6,-1482.1 1489.6,-1482.1 1489.6,21.6 -21.6,21.6"/>
<!-- ../atoms/index.ts -->
<g id="node1" class="node">
<title>../atoms/index.ts</title>
<path fill="none" stroke="#c6c5fe" d="M337.83,-1281C337.83,-1281 237.17,-1281 237.17,-1281 233.33,-1281 229.5,-1277.17 229.5,-1273.33 229.5,-1273.33 229.5,-1265.67 229.5,-1265.67 229.5,-1261.83 233.33,-1258 237.17,-1258 237.17,-1258 337.83,-1258 337.83,-1258 341.67,-1258 345.5,-1261.83 345.5,-1265.67 345.5,-1265.67 345.5,-1273.33 345.5,-1273.33 345.5,-1277.17 341.67,-1281 337.83,-1281"/>
<text text-anchor="middle" x="287.5" y="-1265.8" font-family="Arial" font-size="14.00" fill="#c6c5fe">../atoms/index.ts</text>
</g>
<!-- ../lib/types/supabase.ts -->
<g id="node2" class="node">
<title>../lib/types/supabase.ts</title>
<path fill="none" stroke="#cfffac" d="M1460.33,-1396C1460.33,-1396 1321.67,-1396 1321.67,-1396 1317.83,-1396 1314,-1392.17 1314,-1388.33 1314,-1388.33 1314,-1380.67 1314,-1380.67 1314,-1376.83 1317.83,-1373 1321.67,-1373 1321.67,-1373 1460.33,-1373 1460.33,-1373 1464.17,-1373 1468,-1376.83 1468,-1380.67 1468,-1380.67 1468,-1388.33 1468,-1388.33 1468,-1392.17 1464.17,-1396 1460.33,-1396"/>
<text text-anchor="middle" x="1391" y="-1380.8" font-family="Arial" font-size="14.00" fill="#cfffac">../lib/types/supabase.ts</text>
</g>
<!-- ../atoms/index.ts&#45;&gt;../lib/types/supabase.ts -->
<g id="edge1" class="edge">
<title>../atoms/index.ts&#45;&gt;../lib/types/supabase.ts</title>
<path fill="none" stroke="#757575" d="M299.42,-1281.23C325.09,-1307.9 392.5,-1372.72 464,-1398.5 636.13,-1460.57 692.02,-1422.5 875,-1422.5 875,-1422.5 875,-1422.5 1067,-1422.5 1154.09,-1422.5 1253.5,-1408.7 1318.76,-1397.74"/>
<polygon fill="#757575" stroke="#757575" points="1319.66,-1401.13 1328.93,-1396 1318.49,-1394.23 1319.66,-1401.13"/>
</g>
<!-- ../components/ActiveGames.tsx -->
<g id="node3" class="node">
<title>../components/ActiveGames.tsx</title>
<path fill="none" stroke="#c6c5fe" d="M384.33,-450C384.33,-450 190.67,-450 190.67,-450 186.83,-450 183,-446.17 183,-442.33 183,-442.33 183,-434.67 183,-434.67 183,-430.83 186.83,-427 190.67,-427 190.67,-427 384.33,-427 384.33,-427 388.17,-427 392,-430.83 392,-434.67 392,-434.67 392,-442.33 392,-442.33 392,-446.17 388.17,-450 384.33,-450"/>
<text text-anchor="middle" x="287.5" y="-434.8" font-family="Arial" font-size="14.00" fill="#c6c5fe">../components/ActiveGames.tsx</text>
</g>
<!-- ../lib/logger.ts -->
<g id="node4" class="node">
<title>../lib/logger.ts</title>
<path fill="none" stroke="#cfffac" d="M1106.33,-909C1106.33,-909 1025.67,-909 1025.67,-909 1021.83,-909 1018,-905.17 1018,-901.33 1018,-901.33 1018,-893.67 1018,-893.67 1018,-889.83 1021.83,-886 1025.67,-886 1025.67,-886 1106.33,-886 1106.33,-886 1110.17,-886 1114,-889.83 1114,-893.67 1114,-893.67 1114,-901.33 1114,-901.33 1114,-905.17 1110.17,-909 1106.33,-909"/>
<text text-anchor="middle" x="1066" y="-893.8" font-family="Arial" font-size="14.00" fill="#cfffac">../lib/logger.ts</text>
</g>
<!-- ../components/ActiveGames.tsx&#45;&gt;../lib/logger.ts -->
<g id="edge2" class="edge">
<title>../components/ActiveGames.tsx&#45;&gt;../lib/logger.ts</title>
<path fill="none" stroke="#757575" d="M387.64,-450.04C401.21,-451.78 414.96,-453.62 428,-455.5 444.05,-457.81 447.91,-459.42 464,-461.5 578.65,-476.35 895.56,-432.73 982,-509.5 996.08,-522.01 1046.68,-796.35 1061.13,-876"/>
<polygon fill="#757575" stroke="#757575" points="1057.69,-876.68 1062.92,-885.9 1064.58,-875.44 1057.69,-876.68"/>
</g>
<!-- ../lib/mutations.ts -->
<g id="node5" class="node">
<title>../lib/mutations.ts</title>
<path fill="none" stroke="#c6c5fe" d="M650.83,-698C650.83,-698 547.17,-698 547.17,-698 543.33,-698 539.5,-694.17 539.5,-690.33 539.5,-690.33 539.5,-682.67 539.5,-682.67 539.5,-678.83 543.33,-675 547.17,-675 547.17,-675 650.83,-675 650.83,-675 654.67,-675 658.5,-678.83 658.5,-682.67 658.5,-682.67 658.5,-690.33 658.5,-690.33 658.5,-694.17 654.67,-698 650.83,-698"/>
<text text-anchor="middle" x="599" y="-682.8" font-family="Arial" font-size="14.00" fill="#c6c5fe">../lib/mutations.ts</text>
</g>
<!-- ../components/ActiveGames.tsx&#45;&gt;../lib/mutations.ts -->
<g id="edge3" class="edge">
<title>../components/ActiveGames.tsx&#45;&gt;../lib/mutations.ts</title>
<path fill="none" stroke="#757575" d="M392.01,-443.53C405.37,-448.05 417.89,-454.75 428,-464.5 480.76,-515.41 417.79,-568.57 464,-625.5 482.21,-647.94 510.47,-662.45 536.35,-671.67"/>
<polygon fill="#757575" stroke="#757575" points="535.54,-675.09 546.13,-674.95 537.76,-668.45 535.54,-675.09"/>
</g>
<!-- ../lib/mutations.ts&#45;&gt;../lib/logger.ts -->
<g id="edge27" class="edge">
<title>../lib/mutations.ts&#45;&gt;../lib/logger.ts</title>
<path fill="none" stroke="#757575" d="M658.73,-687.15C683.88,-689.99 712.38,-696.9 734,-712.5 760.47,-731.6 743.83,-757 770,-776.5 847.46,-834.23 895.96,-780.57 982,-824.5 1008.29,-837.92 1032.96,-861.57 1048.45,-878.31"/>
<polygon fill="#757575" stroke="#757575" points="1046,-880.81 1055.29,-885.9 1051.2,-876.13 1046,-880.81"/>
</g>
<!-- ../lib/supabaseClient.ts -->
<g id="node13" class="node">
<title>../lib/supabaseClient.ts</title>
<path fill="none" stroke="#cfffac" d="M944.33,-890C944.33,-890 807.67,-890 807.67,-890 803.83,-890 800,-886.17 800,-882.33 800,-882.33 800,-874.67 800,-874.67 800,-870.83 803.83,-867 807.67,-867 807.67,-867 944.33,-867 944.33,-867 948.17,-867 952,-870.83 952,-874.67 952,-874.67 952,-882.33 952,-882.33 952,-886.17 948.17,-890 944.33,-890"/>
<text text-anchor="middle" x="876" y="-874.8" font-family="Arial" font-size="14.00" fill="#cfffac">../lib/supabaseClient.ts</text>
</g>
<!-- ../lib/mutations.ts&#45;&gt;../lib/supabaseClient.ts -->
<g id="edge28" class="edge">
<title>../lib/mutations.ts&#45;&gt;../lib/supabaseClient.ts</title>
<path fill="none" stroke="#757575" d="M639.24,-698.07C668.15,-708.18 706.98,-725.23 734,-750.5 757.83,-772.79 747.33,-791.02 770,-814.5 789.72,-834.93 817.29,-851.4 839.23,-862.52"/>
<polygon fill="#757575" stroke="#757575" points="837.73,-865.68 848.25,-866.95 840.82,-859.4 837.73,-865.68"/>
</g>
<!-- ../lib/dailyTokenManager.ts -->
<g id="node24" class="node">
<title>../lib/dailyTokenManager.ts</title>
<path fill="none" stroke="#c6c5fe" d="M956.33,-734C956.33,-734 795.67,-734 795.67,-734 791.83,-734 788,-730.17 788,-726.33 788,-726.33 788,-718.67 788,-718.67 788,-714.83 791.83,-711 795.67,-711 795.67,-711 956.33,-711 956.33,-711 960.17,-711 964,-714.83 964,-718.67 964,-718.67 964,-726.33 964,-726.33 964,-730.17 960.17,-734 956.33,-734"/>
<text text-anchor="middle" x="876" y="-718.8" font-family="Arial" font-size="14.00" fill="#c6c5fe">../lib/dailyTokenManager.ts</text>
</g>
<!-- ../lib/mutations.ts&#45;&gt;../lib/dailyTokenManager.ts -->
<g id="edge26" class="edge">
<title>../lib/mutations.ts&#45;&gt;../lib/dailyTokenManager.ts</title>
<path fill="none" stroke="#757575" d="M658.66,-694.18C693.34,-698.72 738.13,-704.58 777.95,-709.8"/>
<polygon fill="#757575" stroke="#757575" points="777.59,-713.28 787.96,-711.11 778.5,-706.34 777.59,-713.28"/>
</g>
<!-- ../lib/types.ts -->
<g id="node25" class="node">
<title>../lib/types.ts</title>
<path fill="none" stroke="#c6c5fe" d="M1104.33,-636C1104.33,-636 1027.67,-636 1027.67,-636 1023.83,-636 1020,-632.17 1020,-628.33 1020,-628.33 1020,-620.67 1020,-620.67 1020,-616.83 1023.83,-613 1027.67,-613 1027.67,-613 1104.33,-613 1104.33,-613 1108.17,-613 1112,-616.83 1112,-620.67 1112,-620.67 1112,-628.33 1112,-628.33 1112,-632.17 1108.17,-636 1104.33,-636"/>
<text text-anchor="middle" x="1066" y="-620.8" font-family="Arial" font-size="14.00" fill="#c6c5fe">../lib/types.ts</text>
</g>
<!-- ../lib/mutations.ts&#45;&gt;../lib/types.ts -->
<g id="edge29" class="edge">
<title>../lib/mutations.ts&#45;&gt;../lib/types.ts</title>
<path fill="none" stroke="#757575" d="M658.89,-678.65C749.4,-666.58 921.44,-643.64 1009.72,-631.87"/>
<polygon fill="#757575" stroke="#757575" points="1010.35,-635.32 1019.8,-630.53 1009.43,-628.38 1010.35,-635.32"/>
</g>
<!-- ../components/Alert.tsx -->
<g id="node6" class="node">
<title>../components/Alert.tsx</title>
<path fill="none" stroke="#cfffac" d="M357.33,-64C357.33,-64 217.67,-64 217.67,-64 213.83,-64 210,-60.17 210,-56.33 210,-56.33 210,-48.67 210,-48.67 210,-44.83 213.83,-41 217.67,-41 217.67,-41 357.33,-41 357.33,-41 361.17,-41 365,-44.83 365,-48.67 365,-48.67 365,-56.33 365,-56.33 365,-60.17 361.17,-64 357.33,-64"/>
<text text-anchor="middle" x="287.5" y="-48.8" font-family="Arial" font-size="14.00" fill="#cfffac">../components/Alert.tsx</text>
</g>
<!-- ../components/ControlsBar.tsx -->
<g id="node7" class="node">
<title>../components/ControlsBar.tsx</title>
<path fill="none" stroke="#cfffac" d="M689.83,-1280C689.83,-1280 508.17,-1280 508.17,-1280 504.33,-1280 500.5,-1276.17 500.5,-1272.33 500.5,-1272.33 500.5,-1264.67 500.5,-1264.67 500.5,-1260.83 504.33,-1257 508.17,-1257 508.17,-1257 689.83,-1257 689.83,-1257 693.67,-1257 697.5,-1260.83 697.5,-1264.67 697.5,-1264.67 697.5,-1272.33 697.5,-1272.33 697.5,-1276.17 693.67,-1280 689.83,-1280"/>
<text text-anchor="middle" x="599" y="-1264.8" font-family="Arial" font-size="14.00" fill="#cfffac">../components/ControlsBar.tsx</text>
</g>
<!-- ../components/Flag.tsx -->
<g id="node8" class="node">
<title>../components/Flag.tsx</title>
<path fill="none" stroke="#c6c5fe" d="M667.83,-575C667.83,-575 530.17,-575 530.17,-575 526.33,-575 522.5,-571.17 522.5,-567.33 522.5,-567.33 522.5,-559.67 522.5,-559.67 522.5,-555.83 526.33,-552 530.17,-552 530.17,-552 667.83,-552 667.83,-552 671.67,-552 675.5,-555.83 675.5,-559.67 675.5,-559.67 675.5,-567.33 675.5,-567.33 675.5,-571.17 671.67,-575 667.83,-575"/>
<text text-anchor="middle" x="599" y="-559.8" font-family="Arial" font-size="14.00" fill="#c6c5fe">../components/Flag.tsx</text>
</g>
<!-- ../lib/flagIcons.ts -->
<g id="node9" class="node">
<title>../lib/flagIcons.ts</title>
<path fill="none" stroke="#c6c5fe" d="M924.83,-575C924.83,-575 827.17,-575 827.17,-575 823.33,-575 819.5,-571.17 819.5,-567.33 819.5,-567.33 819.5,-559.67 819.5,-559.67 819.5,-555.83 823.33,-552 827.17,-552 827.17,-552 924.83,-552 924.83,-552 928.67,-552 932.5,-555.83 932.5,-559.67 932.5,-559.67 932.5,-567.33 932.5,-567.33 932.5,-571.17 928.67,-575 924.83,-575"/>
<text text-anchor="middle" x="876" y="-559.8" font-family="Arial" font-size="14.00" fill="#c6c5fe">../lib/flagIcons.ts</text>
</g>
<!-- ../components/Flag.tsx&#45;&gt;../lib/flagIcons.ts -->
<g id="edge4" class="edge">
<title>../components/Flag.tsx&#45;&gt;../lib/flagIcons.ts</title>
<path fill="none" stroke="#757575" d="M675.51,-563.5C717.34,-563.5 768.86,-563.5 809.06,-563.5"/>
<polygon fill="#757575" stroke="#757575" points="809.29,-567 819.29,-563.5 809.29,-560 809.29,-567"/>
</g>
<!-- ../lib/flagIcons.ts&#45;&gt;../lib/logger.ts -->
<g id="edge25" class="edge">
<title>../lib/flagIcons.ts&#45;&gt;../lib/logger.ts</title>
<path fill="none" stroke="#757575" d="M932.72,-563.41C950.42,-566.08 968.79,-572.09 982,-584.5 1025.18,-625.09 1053.53,-811.13 1062.19,-875.51"/>
<polygon fill="#757575" stroke="#757575" points="1058.76,-876.27 1063.54,-885.73 1065.7,-875.36 1058.76,-876.27"/>
</g>
<!-- ../components/LobbyLogo.tsx -->
<g id="node10" class="node">
<title>../components/LobbyLogo.tsx</title>
<path fill="none" stroke="#cfffac" d="M376.83,-1199C376.83,-1199 198.17,-1199 198.17,-1199 194.33,-1199 190.5,-1195.17 190.5,-1191.33 190.5,-1191.33 190.5,-1183.67 190.5,-1183.67 190.5,-1179.83 194.33,-1176 198.17,-1176 198.17,-1176 376.83,-1176 376.83,-1176 380.67,-1176 384.5,-1179.83 384.5,-1183.67 384.5,-1183.67 384.5,-1191.33 384.5,-1191.33 384.5,-1195.17 380.67,-1199 376.83,-1199"/>
<text text-anchor="middle" x="287.5" y="-1183.8" font-family="Arial" font-size="14.00" fill="#cfffac">../components/LobbyLogo.tsx</text>
</g>
<!-- ../components/LobbyStatus.tsx -->
<g id="node11" class="node">
<title>../components/LobbyStatus.tsx</title>
<path fill="none" stroke="#c6c5fe" d="M692.33,-616C692.33,-616 505.67,-616 505.67,-616 501.83,-616 498,-612.17 498,-608.33 498,-608.33 498,-600.67 498,-600.67 498,-596.83 501.83,-593 505.67,-593 505.67,-593 692.33,-593 692.33,-593 696.17,-593 700,-596.83 700,-600.67 700,-600.67 700,-608.33 700,-608.33 700,-612.17 696.17,-616 692.33,-616"/>
<text text-anchor="middle" x="599" y="-600.8" font-family="Arial" font-size="14.00" fill="#c6c5fe">../components/LobbyStatus.tsx</text>
</g>
<!-- ../components/LobbyStatus.tsx&#45;&gt;../lib/logger.ts -->
<g id="edge5" class="edge">
<title>../components/LobbyStatus.tsx&#45;&gt;../lib/logger.ts</title>
<path fill="none" stroke="#757575" d="M700.09,-611.39C712.52,-615.7 724.26,-621.84 734,-630.5 773.38,-665.53 729.97,-709.21 770,-743.5 842.41,-805.54 901.31,-725.69 982,-776.5 1019.85,-800.33 1044.82,-848.39 1056.78,-876.23"/>
<polygon fill="#757575" stroke="#757575" points="1053.68,-877.9 1060.72,-885.82 1060.15,-875.24 1053.68,-877.9"/>
</g>
<!-- ../lib/roleUtils.ts -->
<g id="node12" class="node">
<title>../lib/roleUtils.ts</title>
<path fill="none" stroke="#c6c5fe" d="M922.33,-616C922.33,-616 829.67,-616 829.67,-616 825.83,-616 822,-612.17 822,-608.33 822,-608.33 822,-600.67 822,-600.67 822,-596.83 825.83,-593 829.67,-593 829.67,-593 922.33,-593 922.33,-593 926.17,-593 930,-596.83 930,-600.67 930,-600.67 930,-608.33 930,-608.33 930,-612.17 926.17,-616 922.33,-616"/>
<text text-anchor="middle" x="876" y="-600.8" font-family="Arial" font-size="14.00" fill="#c6c5fe">../lib/roleUtils.ts</text>
</g>
<!-- ../components/LobbyStatus.tsx&#45;&gt;../lib/roleUtils.ts -->
<g id="edge6" class="edge">
<title>../components/LobbyStatus.tsx&#45;&gt;../lib/roleUtils.ts</title>
<path fill="none" stroke="#757575" d="M700.06,-604.5C737.2,-604.5 778.28,-604.5 811.3,-604.5"/>
<polygon fill="#757575" stroke="#757575" points="811.72,-608 821.72,-604.5 811.72,-601 811.72,-608"/>
</g>
<!-- ../components/LobbyStatus.tsx&#45;&gt;../lib/supabaseClient.ts -->
<g id="edge7" class="edge">
<title>../components/LobbyStatus.tsx&#45;&gt;../lib/supabaseClient.ts</title>
<path fill="none" stroke="#757575" d="M700.3,-610.68C712.77,-615.08 724.47,-621.44 734,-630.5 782.43,-676.56 736.74,-718.53 770,-776.5 790.05,-811.45 825.53,-842.23 849.65,-860.6"/>
<polygon fill="#757575" stroke="#757575" points="847.85,-863.63 857.97,-866.79 852.03,-858.01 847.85,-863.63"/>
</g>
<!-- ../lib/roleUtils.ts&#45;&gt;../lib/types.ts -->
<g id="edge36" class="edge">
<title>../lib/roleUtils.ts&#45;&gt;../lib/types.ts</title>
<path fill="none" stroke="#757575" d="M930.12,-610.15C955.03,-612.8 984.69,-615.96 1009.85,-618.63"/>
<polygon fill="#757575" stroke="#757575" points="1009.65,-622.13 1019.97,-619.71 1010.39,-615.17 1009.65,-622.13"/>
</g>
<!-- ../components/OptimizedFlagSelector.tsx -->
<g id="node14" class="node">
<title>../components/OptimizedFlagSelector.tsx</title>
<path fill="none" stroke="#c6c5fe" d="M411.83,-568C411.83,-568 163.17,-568 163.17,-568 159.33,-568 155.5,-564.17 155.5,-560.33 155.5,-560.33 155.5,-552.67 155.5,-552.67 155.5,-548.83 159.33,-545 163.17,-545 163.17,-545 411.83,-545 411.83,-545 415.67,-545 419.5,-548.83 419.5,-552.67 419.5,-552.67 419.5,-560.33 419.5,-560.33 419.5,-564.17 415.67,-568 411.83,-568"/>
<text text-anchor="middle" x="287.5" y="-552.8" font-family="Arial" font-size="14.00" fill="#c6c5fe">../components/OptimizedFlagSelector.tsx</text>
</g>
<!-- ../components/OptimizedFlagSelector.tsx&#45;&gt;../components/Flag.tsx -->
<g id="edge8" class="edge">
<title>../components/OptimizedFlagSelector.tsx&#45;&gt;../components/Flag.tsx</title>
<path fill="none" stroke="#757575" d="M419.76,-559.47C450.86,-560.17 483.27,-560.91 511.78,-561.55"/>
<polygon fill="#757575" stroke="#757575" points="512.03,-565.06 522.1,-561.78 512.18,-558.06 512.03,-565.06"/>
</g>
<!-- ../components/ParticipantTile.tsx -->
<g id="node15" class="node">
<title>../components/ParticipantTile.tsx</title>
<path fill="none" stroke="#c6c5fe" d="M974.33,-1356C974.33,-1356 777.67,-1356 777.67,-1356 773.83,-1356 770,-1352.17 770,-1348.33 770,-1348.33 770,-1340.67 770,-1340.67 770,-1336.83 773.83,-1333 777.67,-1333 777.67,-1333 974.33,-1333 974.33,-1333 978.17,-1333 982,-1336.83 982,-1340.67 982,-1340.67 982,-1348.33 982,-1348.33 982,-1352.17 978.17,-1356 974.33,-1356"/>
<text text-anchor="middle" x="876" y="-1340.8" font-family="Arial" font-size="14.00" fill="#c6c5fe">../components/ParticipantTile.tsx</text>
</g>
<!-- ../components/ParticipantTile.tsx&#45;&gt;../lib/types/supabase.ts -->
<g id="edge10" class="edge">
<title>../components/ParticipantTile.tsx&#45;&gt;../lib/types/supabase.ts</title>
<path fill="none" stroke="#757575" d="M982.25,-1349.61C1063.21,-1353.95 1177.81,-1361 1278,-1370.5 1286.34,-1371.29 1295.02,-1372.21 1303.7,-1373.19"/>
<polygon fill="#757575" stroke="#757575" points="1303.52,-1376.69 1313.85,-1374.36 1304.32,-1369.74 1303.52,-1376.69"/>
</g>
<!-- ../components/ParticipantTile.tsx&#45;&gt;../lib/logger.ts -->
<g id="edge9" class="edge">
<title>../components/ParticipantTile.tsx&#45;&gt;../lib/logger.ts</title>
<path fill="none" stroke="#757575" d="M961.78,-1332.97C969.3,-1329.28 976.23,-1324.55 982,-1318.5 1037.84,-1259.9 1058.69,-997.42 1063.71,-919.42"/>
<polygon fill="#757575" stroke="#757575" points="1067.21,-919.5 1064.34,-909.3 1060.23,-919.06 1067.21,-919.5"/>
</g>
<!-- ../components/PasswordModal.tsx -->
<g id="node16" class="node">
<title>../components/PasswordModal.tsx</title>
<path fill="none" stroke="#cfffac" d="M391.83,-23C391.83,-23 183.17,-23 183.17,-23 179.33,-23 175.5,-19.17 175.5,-15.33 175.5,-15.33 175.5,-7.67 175.5,-7.67 175.5,-3.83 179.33,0 183.17,0 183.17,0 391.83,0 391.83,0 395.67,0 399.5,-3.83 399.5,-7.67 399.5,-7.67 399.5,-15.33 399.5,-15.33 399.5,-19.17 395.67,-23 391.83,-23"/>
<text text-anchor="middle" x="287.5" y="-7.8" font-family="Arial" font-size="14.00" fill="#cfffac">../components/PasswordModal.tsx</text>
</g>
<!-- ../components/PresetConfirmationModal.tsx -->
<g id="node17" class="node">
<title>../components/PresetConfirmationModal.tsx</title>
<path fill="none" stroke="#c6c5fe" d="M420.33,-686C420.33,-686 154.67,-686 154.67,-686 150.83,-686 147,-682.17 147,-678.33 147,-678.33 147,-670.67 147,-670.67 147,-666.83 150.83,-663 154.67,-663 154.67,-663 420.33,-663 420.33,-663 424.17,-663 428,-666.83 428,-670.67 428,-670.67 428,-678.33 428,-678.33 428,-682.17 424.17,-686 420.33,-686"/>
<text text-anchor="middle" x="287.5" y="-670.8" font-family="Arial" font-size="14.00" fill="#c6c5fe">../components/PresetConfirmationModal.tsx</text>
</g>
<!-- ../components/PresetConfirmationModal.tsx&#45;&gt;../lib/mutations.ts -->
<g id="edge12" class="edge">
<title>../components/PresetConfirmationModal.tsx&#45;&gt;../lib/mutations.ts</title>
<path fill="none" stroke="#757575" d="M428.31,-679.92C463.27,-681.28 499.27,-682.67 529.06,-683.83"/>
<polygon fill="#757575" stroke="#757575" points="529.19,-687.33 539.32,-684.22 529.47,-680.34 529.19,-687.33"/>
</g>
<!-- ../components/PresetConfirmationModal.tsx&#45;&gt;../components/Flag.tsx -->
<g id="edge11" class="edge">
<title>../components/PresetConfirmationModal.tsx&#45;&gt;../components/Flag.tsx</title>
<path fill="none" stroke="#757575" d="M317.91,-662.98C346.73,-651.24 391.51,-631.77 428,-610.5 445.05,-600.56 445.75,-592.01 464,-584.5 479.06,-578.3 495.76,-573.92 512.11,-570.83"/>
<polygon fill="#757575" stroke="#757575" points="512.99,-574.23 522.24,-569.06 511.78,-567.33 512.99,-574.23"/>
</g>
<!-- ../components/ReactBits/AnimatedList.tsx -->
<g id="node18" class="node">
<title>../components/ReactBits/AnimatedList.tsx</title>
<path fill="none" stroke="#cfffac" d="M724.83,-305C724.83,-305 473.17,-305 473.17,-305 469.33,-305 465.5,-301.17 465.5,-297.33 465.5,-297.33 465.5,-289.67 465.5,-289.67 465.5,-285.83 469.33,-282 473.17,-282 473.17,-282 724.83,-282 724.83,-282 728.67,-282 732.5,-285.83 732.5,-289.67 732.5,-289.67 732.5,-297.33 732.5,-297.33 732.5,-301.17 728.67,-305 724.83,-305"/>
<text text-anchor="middle" x="599" y="-289.8" font-family="Arial" font-size="14.00" fill="#cfffac">../components/ReactBits/AnimatedList.tsx</text>
</g>
<!-- ../components/ReactBits/Dock.tsx -->
<g id="node19" class="node">
<title>../components/ReactBits/Dock.tsx</title>
<path fill="none" stroke="#cfffac" d="M700.83,-264C700.83,-264 497.17,-264 497.17,-264 493.33,-264 489.5,-260.17 489.5,-256.33 489.5,-256.33 489.5,-248.67 489.5,-248.67 489.5,-244.83 493.33,-241 497.17,-241 497.17,-241 700.83,-241 700.83,-241 704.67,-241 708.5,-244.83 708.5,-248.67 708.5,-248.67 708.5,-256.33 708.5,-256.33 708.5,-260.17 704.67,-264 700.83,-264"/>
<text text-anchor="middle" x="599" y="-248.8" font-family="Arial" font-size="14.00" fill="#cfffac">../components/ReactBits/Dock.tsx</text>
</g>
<!-- ../components/ReactBits/PixelCard.tsx -->
<g id="node20" class="node">
<title>../components/ReactBits/PixelCard.tsx</title>
<path fill="none" stroke="#cfffac" d="M714.83,-223C714.83,-223 483.17,-223 483.17,-223 479.33,-223 475.5,-219.17 475.5,-215.33 475.5,-215.33 475.5,-207.67 475.5,-207.67 475.5,-203.83 479.33,-200 483.17,-200 483.17,-200 714.83,-200 714.83,-200 718.67,-200 722.5,-203.83 722.5,-207.67 722.5,-207.67 722.5,-215.33 722.5,-215.33 722.5,-219.17 718.67,-223 714.83,-223"/>
<text text-anchor="middle" x="599" y="-207.8" font-family="Arial" font-size="14.00" fill="#cfffac">../components/ReactBits/PixelCard.tsx</text>
</g>
<!-- ../components/ReactBits/SpotlightCard.tsx -->
<g id="node21" class="node">
<title>../components/ReactBits/SpotlightCard.tsx</title>
<path fill="none" stroke="#cfffac" d="M726.33,-182C726.33,-182 471.67,-182 471.67,-182 467.83,-182 464,-178.17 464,-174.33 464,-174.33 464,-166.67 464,-166.67 464,-162.83 467.83,-159 471.67,-159 471.67,-159 726.33,-159 726.33,-159 730.17,-159 734,-162.83 734,-166.67 734,-166.67 734,-174.33 734,-174.33 734,-178.17 730.17,-182 726.33,-182"/>
<text text-anchor="middle" x="599" y="-166.8" font-family="Arial" font-size="14.00" fill="#cfffac">../components/ReactBits/SpotlightCard.tsx</text>
</g>
<!-- ../components/ReactBits/index.ts -->
<g id="node22" class="node">
<title>../components/ReactBits/index.ts</title>
<path fill="none" stroke="#c6c5fe" d="M386.83,-256C386.83,-256 188.17,-256 188.17,-256 184.33,-256 180.5,-252.17 180.5,-248.33 180.5,-248.33 180.5,-240.67 180.5,-240.67 180.5,-236.83 184.33,-233 188.17,-233 188.17,-233 386.83,-233 386.83,-233 390.67,-233 394.5,-236.83 394.5,-240.67 394.5,-240.67 394.5,-248.33 394.5,-248.33 394.5,-252.17 390.67,-256 386.83,-256"/>
<text text-anchor="middle" x="287.5" y="-240.8" font-family="Arial" font-size="14.00" fill="#c6c5fe">../components/ReactBits/index.ts</text>
</g>
<!-- ../components/ReactBits/index.ts&#45;&gt;../components/ReactBits/AnimatedList.tsx -->
<g id="edge13" class="edge">
<title>../components/ReactBits/index.ts&#45;&gt;../components/ReactBits/AnimatedList.tsx</title>
<path fill="none" stroke="#757575" d="M360.64,-256.06C392.35,-261.12 430.02,-267.13 464,-272.5 480.18,-275.06 497.46,-277.78 514.05,-280.38"/>
<polygon fill="#757575" stroke="#757575" points="513.85,-283.89 524.27,-281.98 514.94,-276.98 513.85,-283.89"/>
</g>
<!-- ../components/ReactBits/index.ts&#45;&gt;../components/ReactBits/Dock.tsx -->
<g id="edge14" class="edge">
<title>../components/ReactBits/index.ts&#45;&gt;../components/ReactBits/Dock.tsx</title>
<path fill="none" stroke="#757575" d="M394.58,-247.24C421.85,-247.95 451.37,-248.71 479.24,-249.43"/>
<polygon fill="#757575" stroke="#757575" points="479.34,-252.93 489.43,-249.69 479.52,-245.94 479.34,-252.93"/>
</g>
<!-- ../components/ReactBits/index.ts&#45;&gt;../components/ReactBits/PixelCard.tsx -->
<g id="edge15" class="edge">
<title>../components/ReactBits/index.ts&#45;&gt;../components/ReactBits/PixelCard.tsx</title>
<path fill="none" stroke="#757575" d="M394.58,-233.19C422.01,-230.26 451.71,-227.1 479.72,-224.11"/>
<polygon fill="#757575" stroke="#757575" points="480.38,-227.56 489.96,-223.02 479.64,-220.6 480.38,-227.56"/>
</g>
<!-- ../components/ReactBits/index.ts&#45;&gt;../components/ReactBits/SpotlightCard.tsx -->
<g id="edge16" class="edge">
<title>../components/ReactBits/index.ts&#45;&gt;../components/ReactBits/SpotlightCard.tsx</title>
<path fill="none" stroke="#757575" d="M320.77,-232.97C355.68,-220.87 413.17,-202.04 464,-190.5 474.91,-188.02 486.39,-185.77 497.86,-183.76"/>
<polygon fill="#757575" stroke="#757575" points="498.64,-187.17 507.91,-182.04 497.47,-180.27 498.64,-187.17"/>
</g>
<!-- ../components/VideoCall.tsx -->
<g id="node23" class="node">
<title>../components/VideoCall.tsx</title>
<path fill="none" stroke="#c6c5fe" d="M372.33,-1240C372.33,-1240 202.67,-1240 202.67,-1240 198.83,-1240 195,-1236.17 195,-1232.33 195,-1232.33 195,-1224.67 195,-1224.67 195,-1220.83 198.83,-1217 202.67,-1217 202.67,-1217 372.33,-1217 372.33,-1217 376.17,-1217 380,-1220.83 380,-1224.67 380,-1224.67 380,-1232.33 380,-1232.33 380,-1236.17 376.17,-1240 372.33,-1240"/>
<text text-anchor="middle" x="287.5" y="-1224.8" font-family="Arial" font-size="14.00" fill="#c6c5fe">../components/VideoCall.tsx</text>
</g>
<!-- ../components/VideoCall.tsx&#45;&gt;../lib/types/supabase.ts -->
<g id="edge22" class="edge">
<title>../components/VideoCall.tsx&#45;&gt;../lib/types/supabase.ts</title>
<path fill="none" stroke="#757575" d="M380.16,-1228.94C397.35,-1232.57 414.21,-1238.9 428,-1249.5 459.88,-1274.01 431.84,-1308.37 464,-1332.5 537.64,-1387.75 782.94,-1384.5 875,-1384.5 875,-1384.5 875,-1384.5 1067,-1384.5 1147.24,-1384.5 1238.7,-1384.5 1303.76,-1384.5"/>
<polygon fill="#757575" stroke="#757575" points="1303.97,-1388 1313.97,-1384.5 1303.97,-1381 1303.97,-1388"/>
</g>
<!-- ../components/VideoCall.tsx&#45;&gt;../lib/logger.ts -->
<g id="edge19" class="edge">
<title>../components/VideoCall.tsx&#45;&gt;../lib/logger.ts</title>
<path fill="none" stroke="#757575" d="M380.02,-1231.28C557.69,-1235.82 935.99,-1241 982,-1204.5 1027.6,-1168.32 1054.39,-983.5 1062.42,-919.41"/>
<polygon fill="#757575" stroke="#757575" points="1065.92,-919.58 1063.66,-909.23 1058.98,-918.73 1065.92,-919.58"/>
</g>
<!-- ../components/VideoCall.tsx&#45;&gt;../lib/mutations.ts -->
<g id="edge20" class="edge">
<title>../components/VideoCall.tsx&#45;&gt;../lib/mutations.ts</title>
<path fill="none" stroke="#757575" d="M380.1,-1232.14C398.01,-1228.57 415.18,-1221.46 428,-1208.5 470.88,-1165.15 445.3,-994.53 464,-936.5 493.49,-844.99 555.94,-747.66 583.92,-706.6"/>
<polygon fill="#757575" stroke="#757575" points="586.86,-708.5 589.65,-698.28 581.1,-704.53 586.86,-708.5"/>
</g>
<!-- ../components/VideoCall.tsx&#45;&gt;../components/ControlsBar.tsx -->
<g id="edge17" class="edge">
<title>../components/VideoCall.tsx&#45;&gt;../components/ControlsBar.tsx</title>
<path fill="none" stroke="#757575" d="M377.6,-1240.02C415.47,-1244.91 459.78,-1250.64 498.69,-1255.67"/>
<polygon fill="#757575" stroke="#757575" points="498.62,-1259.19 508.99,-1257 499.52,-1252.24 498.62,-1259.19"/>
</g>
<!-- ../components/VideoCall.tsx&#45;&gt;../lib/supabaseClient.ts -->
<g id="edge21" class="edge">
<title>../components/VideoCall.tsx&#45;&gt;../lib/supabaseClient.ts</title>
<path fill="none" stroke="#757575" d="M380.13,-1221.28C477.31,-1209.38 630.74,-1178.01 734,-1095.5 802.74,-1040.57 848.83,-942.68 866.69,-899.71"/>
<polygon fill="#757575" stroke="#757575" points="870.01,-900.84 870.53,-890.26 863.52,-898.21 870.01,-900.84"/>
</g>
<!-- ../components/VideoCall.tsx&#45;&gt;../components/ParticipantTile.tsx -->
<g id="edge18" class="edge">
<title>../components/VideoCall.tsx&#45;&gt;../components/ParticipantTile.tsx</title>
<path fill="none" stroke="#757575" d="M380.34,-1233.15C396.86,-1236.5 413.44,-1241.67 428,-1249.5 449.06,-1260.83 442.85,-1278.34 464,-1289.5 555.41,-1337.73 673.55,-1349.16 759.7,-1349.9"/>
<polygon fill="#757575" stroke="#757575" points="759.76,-1353.4 769.78,-1349.94 759.79,-1346.4 759.76,-1353.4"/>
</g>
<!-- ../lib/dailyTokenManager.ts&#45;&gt;../lib/logger.ts -->
<g id="edge23" class="edge">
<title>../lib/dailyTokenManager.ts&#45;&gt;../lib/logger.ts</title>
<path fill="none" stroke="#757575" d="M954.91,-734.01C964.61,-737.62 973.94,-742.34 982,-748.5 1024.91,-781.3 1048.8,-842.99 1059,-875.76"/>
<polygon fill="#757575" stroke="#757575" points="1055.74,-877.09 1061.94,-885.68 1062.46,-875.1 1055.74,-877.09"/>
</g>
<!-- ../lib/dailyTokenManager.ts&#45;&gt;../lib/types.ts -->
<g id="edge24" class="edge">
<title>../lib/dailyTokenManager.ts&#45;&gt;../lib/types.ts</title>
<path fill="none" stroke="#757575" d="M943.99,-710.93C957.01,-707.31 970.25,-702.6 982,-696.5 1007.9,-683.06 1032.48,-659.97 1048.08,-643.57"/>
<polygon fill="#757575" stroke="#757575" points="1050.74,-645.84 1054.97,-636.12 1045.61,-641.08 1050.74,-645.84"/>
</g>
<!-- ../lib/types/index.ts -->
<g id="node29" class="node">
<title>../lib/types/index.ts</title>
<path fill="none" stroke="#c6c5fe" d="M1270.33,-976C1270.33,-976 1157.67,-976 1157.67,-976 1153.83,-976 1150,-972.17 1150,-968.33 1150,-968.33 1150,-960.67 1150,-960.67 1150,-956.83 1153.83,-953 1157.67,-953 1157.67,-953 1270.33,-953 1270.33,-953 1274.17,-953 1278,-956.83 1278,-960.67 1278,-960.67 1278,-968.33 1278,-968.33 1278,-972.17 1274.17,-976 1270.33,-976"/>
<text text-anchor="middle" x="1214" y="-960.8" font-family="Arial" font-size="14.00" fill="#c6c5fe">../lib/types/index.ts</text>
</g>
<!-- ../lib/types.ts&#45;&gt;../lib/types/index.ts -->
<g id="edge39" class="edge">
<title>../lib/types.ts&#45;&gt;../lib/types/index.ts</title>
<path fill="none" stroke="#757575" d="M1072.03,-636.2C1093.3,-685.76 1176.16,-878.71 1203.9,-943.3"/>
<polygon fill="#757575" stroke="#757575" points="1200.83,-945.04 1208,-952.85 1207.27,-942.28 1200.83,-945.04"/>
</g>
<!-- ../lib/presence.ts -->
<g id="node26" class="node">
<title>../lib/presence.ts</title>
<path fill="none" stroke="#c6c5fe" d="M337.33,-880C337.33,-880 237.67,-880 237.67,-880 233.83,-880 230,-876.17 230,-872.33 230,-872.33 230,-864.67 230,-864.67 230,-860.83 233.83,-857 237.67,-857 237.67,-857 337.33,-857 337.33,-857 341.17,-857 345,-860.83 345,-864.67 345,-864.67 345,-872.33 345,-872.33 345,-876.17 341.17,-880 337.33,-880"/>
<text text-anchor="middle" x="287.5" y="-864.8" font-family="Arial" font-size="14.00" fill="#c6c5fe">../lib/presence.ts</text>
</g>
<!-- ../lib/presence.ts&#45;&gt;../lib/logger.ts -->
<g id="edge30" class="edge">
<title>../lib/presence.ts&#45;&gt;../lib/logger.ts</title>
<path fill="none" stroke="#757575" d="M345.04,-864.32C372.91,-859.6 405.32,-849.78 428,-829.5 459.81,-801.06 428.62,-764.35 464,-740.5 513.75,-706.96 683.13,-708.68 734,-740.5 765.01,-759.9 741.14,-792.04 770,-814.5 845.94,-873.6 890.71,-828.05 982,-858.5 1000.14,-864.55 1019.52,-873.5 1034.99,-881.31"/>
<polygon fill="#757575" stroke="#757575" points="1033.58,-884.52 1044.07,-885.98 1036.78,-878.29 1033.58,-884.52"/>
</g>
<!-- ../lib/presence.ts&#45;&gt;../lib/mutations.ts -->
<g id="edge31" class="edge">
<title>../lib/presence.ts&#45;&gt;../lib/mutations.ts</title>
<path fill="none" stroke="#757575" d="M345.29,-871.27C373.4,-869.62 405.95,-862.74 428,-842.5 472.17,-801.97 419.98,-753.2 464,-712.5 481.51,-696.32 505.95,-688.84 529.18,-685.72"/>
<polygon fill="#757575" stroke="#757575" points="529.82,-689.17 539.38,-684.61 529.06,-682.21 529.82,-689.17"/>
</g>
<!-- ../lib/presence.ts&#45;&gt;../lib/supabaseClient.ts -->
<g id="edge32" class="edge">
<title>../lib/presence.ts&#45;&gt;../lib/supabaseClient.ts</title>
<path fill="none" stroke="#757575" d="M345.26,-867.94C372.21,-865.29 403.74,-858.52 428,-842.5 452.07,-826.61 438.57,-802.11 464,-788.5 569.8,-731.88 630.41,-727.92 734,-788.5 762.17,-804.98 744.03,-832.73 770,-852.5 776.2,-857.22 783.15,-861.09 790.44,-864.27"/>
<polygon fill="#757575" stroke="#757575" points="789.24,-867.55 799.82,-867.93 791.78,-861.03 789.24,-867.55"/>
</g>
<!-- ../lib/realtimeHooks.ts -->
<g id="node27" class="node">
<title>../lib/realtimeHooks.ts</title>
<path fill="none" stroke="#c6c5fe" d="M664.33,-968C664.33,-968 533.67,-968 533.67,-968 529.83,-968 526,-964.17 526,-960.33 526,-960.33 526,-952.67 526,-952.67 526,-948.83 529.83,-945 533.67,-945 533.67,-945 664.33,-945 664.33,-945 668.17,-945 672,-948.83 672,-952.67 672,-952.67 672,-960.33 672,-960.33 672,-964.17 668.17,-968 664.33,-968"/>
<text text-anchor="middle" x="599" y="-952.8" font-family="Arial" font-size="14.00" fill="#c6c5fe">../lib/realtimeHooks.ts</text>
</g>
<!-- ../lib/realtimeHooks.ts&#45;&gt;../lib/logger.ts -->
<g id="edge33" class="edge">
<title>../lib/realtimeHooks.ts&#45;&gt;../lib/logger.ts</title>
<path fill="none" stroke="#757575" d="M672.15,-959.1C749.75,-960.26 876.24,-957.36 982,-932.5 999.73,-928.33 1018.51,-920.71 1033.72,-913.64"/>
<polygon fill="#757575" stroke="#757575" points="1035.64,-916.6 1043.14,-909.12 1032.61,-910.29 1035.64,-916.6"/>
</g>
<!-- ../lib/realtimeHooks.ts&#45;&gt;../lib/supabaseClient.ts -->
<g id="edge34" class="edge">
<title>../lib/realtimeHooks.ts&#45;&gt;../lib/supabaseClient.ts</title>
<path fill="none" stroke="#757575" d="M672.31,-948.37C692.8,-944.51 714.75,-938.83 734,-930.5 752.11,-922.66 752.09,-912.8 770,-904.5 780.08,-899.83 791.11,-895.92 802.11,-892.69"/>
<polygon fill="#757575" stroke="#757575" points="803.05,-896.06 811.75,-890.01 801.18,-889.31 803.05,-896.06"/>
</g>
<!-- ../lib/realtimeHooks.ts&#45;&gt;../lib/types.ts -->
<g id="edge35" class="edge">
<title>../lib/realtimeHooks.ts&#45;&gt;../lib/types.ts</title>
<path fill="none" stroke="#757575" d="M672.07,-946.24C781.95,-930.52 979.08,-902.03 982,-899.5 1058.62,-833.26 1065.91,-699.04 1065.65,-646.39"/>
<polygon fill="#757575" stroke="#757575" points="1069.14,-646.12 1065.49,-636.18 1062.14,-646.23 1069.14,-646.12"/>
</g>
<!-- ../lib/sessionHooks.ts -->
<g id="node28" class="node">
<title>../lib/sessionHooks.ts</title>
<path fill="none" stroke="#c6c5fe" d="M662.83,-1086C662.83,-1086 535.17,-1086 535.17,-1086 531.33,-1086 527.5,-1082.17 527.5,-1078.33 527.5,-1078.33 527.5,-1070.67 527.5,-1070.67 527.5,-1066.83 531.33,-1063 535.17,-1063 535.17,-1063 662.83,-1063 662.83,-1063 666.67,-1063 670.5,-1066.83 670.5,-1070.67 670.5,-1070.67 670.5,-1078.33 670.5,-1078.33 670.5,-1082.17 666.67,-1086 662.83,-1086"/>
<text text-anchor="middle" x="599" y="-1070.8" font-family="Arial" font-size="14.00" fill="#c6c5fe">../lib/sessionHooks.ts</text>
</g>
<!-- ../lib/sessionHooks.ts&#45;&gt;../lib/logger.ts -->
<g id="edge37" class="edge">
<title>../lib/sessionHooks.ts&#45;&gt;../lib/logger.ts</title>
<path fill="none" stroke="#757575" d="M654.35,-1086.01C733.26,-1099.58 881.14,-1112.87 982,-1048.5 1028.64,-1018.73 1051.22,-953.14 1060.15,-919.04"/>
<polygon fill="#757575" stroke="#757575" points="1063.59,-919.71 1062.58,-909.16 1056.79,-918.03 1063.59,-919.71"/>
</g>
<!-- ../lib/sessionHooks.ts&#45;&gt;../lib/supabaseClient.ts -->
<g id="edge38" class="edge">
<title>../lib/sessionHooks.ts&#45;&gt;../lib/supabaseClient.ts</title>
<path fill="none" stroke="#757575" d="M616.38,-1062.83C662.81,-1029.74 795.47,-935.19 850.56,-895.92"/>
<polygon fill="#757575" stroke="#757575" points="852.59,-898.77 858.71,-890.11 848.53,-893.07 852.59,-898.77"/>
</g>
<!-- ../lib/types/index.ts&#45;&gt;../lib/types/supabase.ts -->
<g id="edge40" class="edge">
<title>../lib/types/index.ts&#45;&gt;../lib/types/supabase.ts</title>
<path fill="none" stroke="#757575" d="M1219.86,-976.17C1243.85,-1033.74 1349.68,-1287.74 1381.15,-1363.25"/>
<polygon fill="#757575" stroke="#757575" points="1378,-1364.8 1385.08,-1372.69 1384.46,-1362.11 1378,-1364.8"/>
</g>
<!-- ../lib/useSessionData.ts -->
<g id="node30" class="node">
<title>../lib/useSessionData.ts</title>
<path fill="none" stroke="#c6c5fe" d="M358.83,-960C358.83,-960 216.17,-960 216.17,-960 212.33,-960 208.5,-956.17 208.5,-952.33 208.5,-952.33 208.5,-944.67 208.5,-944.67 208.5,-940.83 212.33,-937 216.17,-937 216.17,-937 358.83,-937 358.83,-937 362.67,-937 366.5,-940.83 366.5,-944.67 366.5,-944.67 366.5,-952.33 366.5,-952.33 366.5,-956.17 362.67,-960 358.83,-960"/>
<text text-anchor="middle" x="287.5" y="-944.8" font-family="Arial" font-size="14.00" fill="#c6c5fe">../lib/useSessionData.ts</text>
</g>
<!-- ../lib/useSessionData.ts&#45;&gt;../lib/logger.ts -->
<g id="edge41" class="edge">
<title>../lib/useSessionData.ts&#45;&gt;../lib/logger.ts</title>
<path fill="none" stroke="#757575" d="M343.93,-960.05C378.33,-966.62 423.53,-974.18 464,-977.5 693.61,-996.34 766,-1038.6 982,-958.5 1006.7,-949.34 1030.46,-930.52 1046.18,-916.19"/>
<polygon fill="#757575" stroke="#757575" points="1048.74,-918.59 1053.63,-909.19 1043.95,-913.49 1048.74,-918.59"/>
</g>
<!-- ../lib/useSessionData.ts&#45;&gt;../lib/mutations.ts -->
<g id="edge42" class="edge">
<title>../lib/useSessionData.ts&#45;&gt;../lib/mutations.ts</title>
<path fill="none" stroke="#757575" d="M335.72,-936.91C364.94,-927.85 401.74,-912.8 428,-889.5 452.12,-868.09 444.71,-852.34 464,-826.5 499.36,-779.14 549.28,-730.86 577.14,-705.22"/>
<polygon fill="#757575" stroke="#757575" points="579.68,-707.64 584.71,-698.31 574.96,-702.47 579.68,-707.64"/>
</g>
<!-- ../lib/userSession.ts -->
<g id="node31" class="node">
<title>../lib/userSession.ts</title>
<path fill="none" stroke="#c6c5fe" d="M935.33,-385C935.33,-385 816.67,-385 816.67,-385 812.83,-385 809,-381.17 809,-377.33 809,-377.33 809,-369.67 809,-369.67 809,-365.83 812.83,-362 816.67,-362 816.67,-362 935.33,-362 935.33,-362 939.17,-362 943,-365.83 943,-369.67 943,-369.67 943,-377.33 943,-377.33 943,-381.17 939.17,-385 935.33,-385"/>
<text text-anchor="middle" x="876" y="-369.8" font-family="Arial" font-size="14.00" fill="#c6c5fe">../lib/userSession.ts</text>
</g>
<!-- ../lib/userSession.ts&#45;&gt;../lib/logger.ts -->
<g id="edge43" class="edge">
<title>../lib/userSession.ts&#45;&gt;../lib/logger.ts</title>
<path fill="none" stroke="#757575" d="M943.06,-377.62C957.69,-381.58 971.84,-388.3 982,-399.5 1019.12,-440.42 1008.93,-591 1018,-645.5 1032.24,-731.12 1052.06,-832.54 1060.69,-875.99"/>
<polygon fill="#757575" stroke="#757575" points="1057.3,-876.85 1062.68,-885.97 1064.16,-875.48 1057.3,-876.85"/>
</g>
<!-- ../lib/userSession.ts&#45;&gt;../lib/types.ts -->
<g id="edge44" class="edge">
<title>../lib/userSession.ts&#45;&gt;../lib/types.ts</title>
<path fill="none" stroke="#757575" d="M943.14,-379.64C957.25,-383.58 971.16,-389.79 982,-399.5 1043.06,-454.15 1059.29,-557.77 1063.53,-602.75"/>
<polygon fill="#757575" stroke="#757575" points="1060.06,-603.18 1064.37,-612.86 1067.03,-602.6 1060.06,-603.18"/>
</g>
<!-- GameSetup.tsx -->
<g id="node32" class="node">
<title>GameSetup.tsx</title>
<path fill="none" stroke="#c6c5fe" d="M103.33,-880C103.33,-880 7.67,-880 7.67,-880 3.83,-880 0,-876.17 0,-872.33 0,-872.33 0,-864.67 0,-864.67 0,-860.83 3.83,-857 7.67,-857 7.67,-857 103.33,-857 103.33,-857 107.17,-857 111,-860.83 111,-864.67 111,-864.67 111,-872.33 111,-872.33 111,-876.17 107.17,-880 103.33,-880"/>
<text text-anchor="middle" x="55.5" y="-864.8" font-family="Arial" font-size="14.00" fill="#c6c5fe">GameSetup.tsx</text>
</g>
<!-- GameSetup.tsx&#45;&gt;../atoms/index.ts -->
<g id="edge45" class="edge">
<title>GameSetup.tsx&#45;&gt;../atoms/index.ts</title>
<path fill="none" stroke="#757575" d="M61.3,-880.34C71.76,-906.59 96.84,-971.85 111,-1028.5 123.06,-1076.77 111.48,-1214.65 147,-1249.5 165.81,-1267.95 193.48,-1274.42 219.23,-1275.72"/>
<polygon fill="#757575" stroke="#757575" points="219.28,-1279.22 229.36,-1275.98 219.46,-1272.22 219.28,-1279.22"/>
</g>
<!-- GameSetup.tsx&#45;&gt;../lib/logger.ts -->
<g id="edge48" class="edge">
<title>GameSetup.tsx&#45;&gt;../lib/logger.ts</title>
<path fill="none" stroke="#757575" d="M60.53,-880.16C75.71,-923.81 129.51,-1075.89 147,-1090.5 257.51,-1182.83 320.78,-1142.53 464,-1157.5 578.6,-1169.48 891.2,-1205.44 982,-1134.5 1050.54,-1080.95 1062.66,-966.93 1064.67,-919.21"/>
<polygon fill="#757575" stroke="#757575" points="1068.17,-919.18 1064.98,-909.08 1061.18,-918.96 1068.17,-919.18"/>
</g>
<!-- GameSetup.tsx&#45;&gt;../lib/mutations.ts -->
<g id="edge49" class="edge">
<title>GameSetup.tsx&#45;&gt;../lib/mutations.ts</title>
<path fill="none" stroke="#757575" d="M73.22,-856.94C90.93,-845.09 119.99,-826.71 147,-814.5 281.86,-753.52 320.65,-749.33 464,-712.5 485.1,-707.08 508.33,-702.2 529.44,-698.17"/>
<polygon fill="#757575" stroke="#757575" points="530.1,-701.6 539.29,-696.32 528.81,-694.72 530.1,-701.6"/>
</g>
<!-- GameSetup.tsx&#45;&gt;../components/Alert.tsx -->
<g id="edge46" class="edge">
<title>GameSetup.tsx&#45;&gt;../components/Alert.tsx</title>
<path fill="none" stroke="#757575" d="M58.76,-856.82C66.94,-814.23 95.3,-663.19 111,-537.5 122.64,-444.33 92.98,-193.3 147,-116.5 164.28,-91.94 193.38,-76.59 220.55,-67.12"/>
<polygon fill="#757575" stroke="#757575" points="221.64,-70.44 230.06,-64.01 219.47,-63.79 221.64,-70.44"/>
</g>
<!-- GameSetup.tsx&#45;&gt;../components/LobbyStatus.tsx -->
<g id="edge47" class="edge">
<title>GameSetup.tsx&#45;&gt;../components/LobbyStatus.tsx</title>
<path fill="none" stroke="#757575" d="M60.12,-856.98C69.44,-829.39 97.13,-759.55 147,-728.5 253.75,-662.03 312.06,-744.18 428,-695.5 446.94,-687.55 446.55,-677.34 464,-666.5 494.19,-647.75 530.99,-631.12 558.38,-619.82"/>
<polygon fill="#757575" stroke="#757575" points="559.7,-623.06 567.65,-616.05 557.06,-616.57 559.7,-623.06"/>
</g>
<!-- GameSetup.tsx&#45;&gt;../lib/supabaseClient.ts -->
<g id="edge51" class="edge">
<title>GameSetup.tsx&#45;&gt;../lib/supabaseClient.ts</title>
<path fill="none" stroke="#757575" d="M97.15,-880.01C112.62,-883.84 130.49,-887.61 147,-889.5 271.08,-903.71 308.82,-926.82 428,-889.5 446.59,-883.68 445.41,-870.32 464,-864.5 578.52,-828.64 614.15,-858.56 734,-864.5 752.04,-865.39 771.32,-866.93 789.66,-868.66"/>
<polygon fill="#757575" stroke="#757575" points="789.44,-872.15 799.73,-869.64 790.12,-865.18 789.44,-872.15"/>
</g>
<!-- GameSetup.tsx&#45;&gt;../lib/types.ts -->
<g id="edge52" class="edge">
<title>GameSetup.tsx&#45;&gt;../lib/types.ts</title>
<path fill="none" stroke="#757575" d="M58.64,-856.81C66.39,-814.16 93.49,-662.95 111,-537.5 120.71,-467.94 100.28,-275.94 147,-223.5 234.46,-125.33 608.41,-110.59 734,-149.5 861.65,-189.05 904.6,-210.57 982,-319.5 1046.69,-410.54 1060.98,-549.6 1064.12,-602.78"/>
<polygon fill="#757575" stroke="#757575" points="1060.63,-602.97 1064.64,-612.78 1067.62,-602.61 1060.63,-602.97"/>
</g>
<!-- GameSetup.tsx&#45;&gt;../lib/presence.ts -->
<g id="edge50" class="edge">
<title>GameSetup.tsx&#45;&gt;../lib/presence.ts</title>
<path fill="none" stroke="#757575" d="M111.01,-868.5C143.65,-868.5 185.39,-868.5 219.97,-868.5"/>
<polygon fill="#757575" stroke="#757575" points="219.98,-872 229.98,-868.5 219.98,-865 219.98,-872"/>
</g>
<!-- GameSetup.tsx&#45;&gt;../lib/useSessionData.ts -->
<g id="edge53" class="edge">
<title>GameSetup.tsx&#45;&gt;../lib/useSessionData.ts</title>
<path fill="none" stroke="#757575" d="M71.97,-880.08C89.33,-892.48 118.76,-911.83 147,-922.5 163.18,-928.61 180.98,-933.33 198.3,-936.95"/>
<polygon fill="#757575" stroke="#757575" points="197.93,-940.45 208.42,-938.96 199.29,-933.58 197.93,-940.45"/>
</g>
<!-- Homepage.tsx -->
<g id="node33" class="node">
<title>Homepage.tsx</title>
<path fill="none" stroke="#c6c5fe" d="M99.83,-296C99.83,-296 11.17,-296 11.17,-296 7.33,-296 3.5,-292.17 3.5,-288.33 3.5,-288.33 3.5,-280.67 3.5,-280.67 3.5,-276.83 7.33,-273 11.17,-273 11.17,-273 99.83,-273 99.83,-273 103.67,-273 107.5,-276.83 107.5,-280.67 107.5,-280.67 107.5,-288.33 107.5,-288.33 107.5,-292.17 103.67,-296 99.83,-296"/>
<text text-anchor="middle" x="55.5" y="-280.8" font-family="Arial" font-size="14.00" fill="#c6c5fe">Homepage.tsx</text>
</g>
<!-- Homepage.tsx&#45;&gt;../components/ActiveGames.tsx -->
<g id="edge54" class="edge">
<title>Homepage.tsx&#45;&gt;../components/ActiveGames.tsx</title>
<path fill="none" stroke="#757575" d="M73.79,-296.08C113.83,-322.89 213.13,-389.38 260.53,-421.11"/>
<polygon fill="#757575" stroke="#757575" points="258.76,-424.14 269.01,-426.79 262.65,-418.32 258.76,-424.14"/>
</g>
<!-- Homepage.tsx&#45;&gt;../lib/logger.ts -->
<g id="edge57" class="edge">
<title>Homepage.tsx&#45;&gt;../lib/logger.ts</title>
<path fill="none" stroke="#757575" d="M107.57,-292.47C297.04,-322.26 950.37,-426.91 982,-458.5 982.95,-459.45 1044.41,-787.48 1060.94,-875.81"/>
<polygon fill="#757575" stroke="#757575" points="1057.53,-876.6 1062.81,-885.79 1064.41,-875.31 1057.53,-876.6"/>
</g>
<!-- Homepage.tsx&#45;&gt;../lib/mutations.ts -->
<g id="edge58" class="edge">
<title>Homepage.tsx&#45;&gt;../lib/mutations.ts</title>
<path fill="none" stroke="#757575" d="M59.13,-296.38C66.76,-328.03 91.97,-414.95 147,-459.5 247.65,-540.97 331.24,-450.44 428,-536.5 459.88,-564.86 434.48,-594.69 464,-625.5 485.1,-647.53 515.65,-662.27 542.25,-671.74"/>
<polygon fill="#757575" stroke="#757575" points="541.26,-675.1 551.85,-674.99 543.5,-668.47 541.26,-675.1"/>
</g>
<!-- Homepage.tsx&#45;&gt;../components/Alert.tsx -->
<g id="edge55" class="edge">
<title>Homepage.tsx&#45;&gt;../components/Alert.tsx</title>
<path fill="none" stroke="#757575" d="M57.85,-272.9C62.63,-237.46 82.12,-129.96 147,-78.5 162.12,-66.51 181.05,-59.42 200.05,-55.36"/>
<polygon fill="#757575" stroke="#757575" points="200.78,-58.78 209.96,-53.5 199.49,-51.9 200.78,-58.78"/>
</g>
<!-- Homepage.tsx&#45;&gt;../components/PasswordModal.tsx -->
<g id="edge56" class="edge">
<title>Homepage.tsx&#45;&gt;../components/PasswordModal.tsx</title>
<path fill="none" stroke="#757575" d="M56.71,-272.85C58.13,-232.16 68.78,-95.38 147,-31.5 152.8,-26.77 159.2,-22.88 165.98,-19.7"/>
<polygon fill="#757575" stroke="#757575" points="167.54,-22.84 175.45,-15.8 164.87,-16.37 167.54,-22.84"/>
</g>
<!-- Join.tsx -->
<g id="node34" class="node">
<title>Join.tsx</title>
<path fill="none" stroke="#c6c5fe" d="M78.83,-528C78.83,-528 32.17,-528 32.17,-528 28.33,-528 24.5,-524.17 24.5,-520.33 24.5,-520.33 24.5,-512.67 24.5,-512.67 24.5,-508.83 28.33,-505 32.17,-505 32.17,-505 78.83,-505 78.83,-505 82.67,-505 86.5,-508.83 86.5,-512.67 86.5,-512.67 86.5,-520.33 86.5,-520.33 86.5,-524.17 82.67,-528 78.83,-528"/>
<text text-anchor="middle" x="55.5" y="-512.8" font-family="Arial" font-size="14.00" fill="#c6c5fe">Join.tsx</text>
</g>
<!-- Join.tsx&#45;&gt;../lib/logger.ts -->
<g id="edge63" class="edge">
<title>Join.tsx&#45;&gt;../lib/logger.ts</title>
<path fill="none" stroke="#757575" d="M86.72,-515.24C238.3,-509.2 911.35,-485.8 982,-543.5 1008.39,-565.05 1049.31,-802.07 1061.47,-875.77"/>
<polygon fill="#757575" stroke="#757575" points="1058.04,-876.47 1063.11,-885.77 1064.95,-875.34 1058.04,-876.47"/>
</g>
<!-- Join.tsx&#45;&gt;../lib/mutations.ts -->
<g id="edge64" class="edge">
<title>Join.tsx&#45;&gt;../lib/mutations.ts</title>
<path fill="none" stroke="#757575" d="M58.18,-528.05C63.72,-561.28 84.71,-657.19 147,-695.5 209.02,-733.64 418.88,-711.63 529.1,-696.72"/>
<polygon fill="#757575" stroke="#757575" points="529.69,-700.17 539.12,-695.35 528.74,-693.24 529.69,-700.17"/>
</g>
<!-- Join.tsx&#45;&gt;../components/Alert.tsx -->
<g id="edge59" class="edge">
<title>Join.tsx&#45;&gt;../components/Alert.tsx</title>
<path fill="none" stroke="#757575" d="M59.97,-504.64C69.24,-472.6 95,-381.52 111,-304.5 121.34,-254.71 111.52,-114.93 147,-78.5 160.97,-64.16 180.13,-56.3 199.77,-52.26"/>
<polygon fill="#757575" stroke="#757575" points="200.5,-55.68 209.75,-50.52 199.3,-48.79 200.5,-55.68"/>
</g>
<!-- Join.tsx&#45;&gt;../lib/supabaseClient.ts -->
<g id="edge65" class="edge">
<title>Join.tsx&#45;&gt;../lib/supabaseClient.ts</title>
<path fill="none" stroke="#757575" d="M69.53,-528.07C86.22,-542.19 116.64,-565.66 147,-577.5 147.48,-577.69 733.61,-666.17 734,-666.5 772.43,-698.76 743.56,-730.86 770,-773.5 791.9,-808.82 827.85,-841.29 851.48,-860.5"/>
<polygon fill="#757575" stroke="#757575" points="849.57,-863.46 859.57,-866.96 853.94,-857.98 849.57,-863.46"/>
</g>
<!-- Join.tsx&#45;&gt;../components/OptimizedFlagSelector.tsx -->
<g id="edge60" class="edge">
<title>Join.tsx&#45;&gt;../components/OptimizedFlagSelector.tsx</title>
<path fill="none" stroke="#757575" d="M86.57,-521.73C117.79,-527.16 167.9,-535.87 210.13,-543.22"/>
<polygon fill="#757575" stroke="#757575" points="209.67,-546.69 220.12,-544.96 210.87,-539.79 209.67,-546.69"/>
</g>
<!-- Join.tsx&#45;&gt;../components/PresetConfirmationModal.tsx -->
<g id="edge61" class="edge">
<title>Join.tsx&#45;&gt;../components/PresetConfirmationModal.tsx</title>
<path fill="none" stroke="#757575" d="M60.91,-528.33C71.39,-554.67 100.43,-618.18 147,-648.5 153.53,-652.75 160.58,-656.35 167.92,-659.39"/>
<polygon fill="#757575" stroke="#757575" points="166.76,-662.7 177.35,-662.95 169.23,-656.15 166.76,-662.7"/>
</g>
<!-- Join.tsx&#45;&gt;../components/ReactBits/index.ts -->
<g id="edge62" class="edge">
<title>Join.tsx&#45;&gt;../components/ReactBits/index.ts</title>
<path fill="none" stroke="#757575" d="M58.51,-504.98C65.07,-470.66 88.83,-367.83 147,-308.5 170.03,-285.01 203.28,-269.3 231.55,-259.32"/>
<polygon fill="#757575" stroke="#757575" points="232.96,-262.53 241.32,-256.02 230.72,-255.9 232.96,-262.53"/>
</g>
<!-- Join.tsx&#45;&gt;../lib/types.ts -->
<g id="edge66" class="edge">
<title>Join.tsx&#45;&gt;../lib/types.ts</title>
<path fill="none" stroke="#757575" d="M59.84,-504.61C68.78,-472.5 93.8,-381.26 111,-304.5 129.6,-221.48 81.43,-170.7 147,-116.5 218.51,-57.39 911.3,-56.42 982,-116.5 1057.35,-180.53 1064.45,-513.48 1064.99,-602.56"/>
<polygon fill="#757575" stroke="#757575" points="1061.49,-602.84 1065.03,-612.82 1068.49,-602.81 1061.49,-602.84"/>
</g>
<!-- Join.tsx&#45;&gt;../lib/userSession.ts -->
<g id="edge67" class="edge">
<title>Join.tsx&#45;&gt;../lib/userSession.ts</title>
<path fill="none" stroke="#757575" d="M60.28,-504.9C69.79,-477.88 97.54,-411.04 147,-384.5 373.7,-262.87 700.08,-327.69 824.36,-359.37"/>
<polygon fill="#757575" stroke="#757575" points="823.79,-362.84 834.35,-361.96 825.55,-356.06 823.79,-362.84"/>
</g>
<!-- Lobby.tsx -->
<g id="node35" class="node">
<title>Lobby.tsx</title>
<path fill="none" stroke="#c6c5fe" d="M84.83,-1060C84.83,-1060 26.17,-1060 26.17,-1060 22.33,-1060 18.5,-1056.17 18.5,-1052.33 18.5,-1052.33 18.5,-1044.67 18.5,-1044.67 18.5,-1040.83 22.33,-1037 26.17,-1037 26.17,-1037 84.83,-1037 84.83,-1037 88.67,-1037 92.5,-1040.83 92.5,-1044.67 92.5,-1044.67 92.5,-1052.33 92.5,-1052.33 92.5,-1056.17 88.67,-1060 84.83,-1060"/>
<text text-anchor="middle" x="55.5" y="-1044.8" font-family="Arial" font-size="14.00" fill="#c6c5fe">Lobby.tsx</text>
</g>
<!-- Lobby.tsx&#45;&gt;../atoms/index.ts -->
<g id="edge68" class="edge">
<title>Lobby.tsx&#45;&gt;../atoms/index.ts</title>
<path fill="none" stroke="#757575" d="M57.89,-1060.2C62.74,-1095.39 82.32,-1200.83 147,-1249.5 167.45,-1264.89 194.47,-1271.04 219.29,-1272.93"/>
<polygon fill="#757575" stroke="#757575" points="219.22,-1276.43 229.39,-1273.49 219.6,-1269.45 219.22,-1276.43"/>
</g>
<!-- Lobby.tsx&#45;&gt;../lib/types/supabase.ts -->
<g id="edge77" class="edge">
<title>Lobby.tsx&#45;&gt;../lib/types/supabase.ts</title>
<path fill="none" stroke="#757575" d="M57.28,-1060.21C60.55,-1099.96 76.46,-1231.39 147,-1304.5 294.27,-1457.14 385.9,-1460.5 598,-1460.5 598,-1460.5 598,-1460.5 1067,-1460.5 1162.06,-1460.5 1186.08,-1449.72 1278,-1425.5 1303.7,-1418.73 1331.78,-1408.44 1353.4,-1399.87"/>
<polygon fill="#757575" stroke="#757575" points="1354.87,-1403.05 1362.84,-1396.07 1352.26,-1396.55 1354.87,-1403.05"/>
</g>
<!-- Lobby.tsx&#45;&gt;../lib/logger.ts -->
<g id="edge72" class="edge">
<title>Lobby.tsx&#45;&gt;../lib/logger.ts</title>
<path fill="none" stroke="#757575" d="M56.6,-1060.05C57.65,-1100.34 67.21,-1235.15 147,-1290.5 152.05,-1294 716.28,-1291.57 734,-1289.5 846.43,-1276.34 901.41,-1310.99 982,-1231.5 1027.14,-1186.98 1054.48,-986.74 1062.51,-919.56"/>
<polygon fill="#757575" stroke="#757575" points="1066.02,-919.63 1063.71,-909.29 1059.07,-918.81 1066.02,-919.63"/>
</g>
<!-- Lobby.tsx&#45;&gt;../lib/mutations.ts -->
<g id="edge73" class="edge">
<title>Lobby.tsx&#45;&gt;../lib/mutations.ts</title>
<path fill="none" stroke="#757575" d="M60.29,-1036.76C73.03,-997.9 115.36,-874.52 147,-848.5 246.08,-767.01 326.91,-861.48 428,-782.5 455.57,-760.96 436.02,-733.5 464,-712.5 482.66,-698.5 506.78,-691.42 529.4,-688.01"/>
<polygon fill="#757575" stroke="#757575" points="529.86,-691.48 539.33,-686.73 528.96,-684.54 529.86,-691.48"/>
</g>
<!-- Lobby.tsx&#45;&gt;../components/Flag.tsx -->
<g id="edge69" class="edge">
<title>Lobby.tsx&#45;&gt;../components/Flag.tsx</title>
<path fill="none" stroke="#757575" d="M61.34,-1036.75C71.89,-1010.69 97.13,-945.89 111,-889.5 123.62,-838.2 110.88,-693.06 147,-654.5 171.8,-628.03 388.46,-593.31 512.23,-575.37"/>
<polygon fill="#757575" stroke="#757575" points="513.05,-578.79 522.45,-573.9 512.05,-571.86 513.05,-578.79"/>
</g>
<!-- Lobby.tsx&#45;&gt;../components/LobbyLogo.tsx -->
<g id="edge70" class="edge">
<title>Lobby.tsx&#45;&gt;../components/LobbyLogo.tsx</title>
<path fill="none" stroke="#757575" d="M62.12,-1060.04C74.14,-1083.39 104.74,-1136.18 147,-1161.5 157.24,-1167.63 168.59,-1172.38 180.28,-1176.04"/>
<polygon fill="#757575" stroke="#757575" points="179.58,-1179.48 190.16,-1178.86 181.5,-1172.75 179.58,-1179.48"/>
</g>
<!-- Lobby.tsx&#45;&gt;../lib/supabaseClient.ts -->
<g id="edge75" class="edge">
<title>Lobby.tsx&#45;&gt;../lib/supabaseClient.ts</title>
<path fill="none" stroke="#757575" d="M78.17,-1036.86C96.12,-1027.74 122.55,-1015.45 147,-1008.5 268.28,-974.01 326.54,-1044.36 428,-969.5 458.4,-947.07 432.48,-913.32 464,-892.5 515.53,-858.46 685.09,-864.03 789.64,-871.23"/>
<polygon fill="#757575" stroke="#757575" points="789.63,-874.73 799.86,-871.95 790.13,-867.75 789.63,-874.73"/>
</g>
<!-- Lobby.tsx&#45;&gt;../components/VideoCall.tsx -->
<g id="edge71" class="edge">
<title>Lobby.tsx&#45;&gt;../components/VideoCall.tsx</title>
<path fill="none" stroke="#757575" d="M59.3,-1060.18C67.19,-1090.41 92.71,-1171.42 147,-1208.5 158.38,-1216.27 171.51,-1221.59 185.06,-1225.16"/>
<polygon fill="#757575" stroke="#757575" points="184.45,-1228.62 194.98,-1227.47 186.03,-1221.8 184.45,-1228.62"/>
</g>
<!-- Lobby.tsx&#45;&gt;../lib/types.ts -->
<g id="edge76" class="edge">
<title>Lobby.tsx&#45;&gt;../lib/types.ts</title>
<path fill="none" stroke="#757575" d="M61.69,-1036.83C72.93,-1010.92 99.46,-946.41 111,-889.5 122.4,-833.28 105.71,-414.32 147,-374.5 213.8,-310.07 907.38,-298.31 982,-353.5 1023.16,-383.94 1052.25,-543.95 1061.69,-602.78"/>
<polygon fill="#757575" stroke="#757575" points="1058.26,-603.49 1063.27,-612.83 1065.18,-602.4 1058.26,-603.49"/>
</g>
<!-- Lobby.tsx&#45;&gt;../lib/sessionHooks.ts -->
<g id="edge74" class="edge">
<title>Lobby.tsx&#45;&gt;../lib/sessionHooks.ts</title>
<path fill="none" stroke="#757575" d="M75.06,-1060.05C92.78,-1070.35 120.61,-1084.68 147,-1090.5 279.23,-1119.69 438.49,-1102.17 528.01,-1087.71"/>
<polygon fill="#757575" stroke="#757575" points="528.74,-1091.13 538.04,-1086.05 527.6,-1084.23 528.74,-1091.13"/>
</g>
<!-- Lobby.tsx&#45;&gt;../lib/useSessionData.ts -->
<g id="edge78" class="edge">
<title>Lobby.tsx&#45;&gt;../lib/useSessionData.ts</title>
<path fill="none" stroke="#757575" d="M66.93,-1036.88C82.59,-1020.22 113.87,-989.89 147,-974.5 162.88,-967.13 180.69,-961.84 198.13,-958.06"/>
<polygon fill="#757575" stroke="#757575" points="199.24,-961.4 208.35,-956 197.85,-954.54 199.24,-961.4"/>
</g>
<!-- Lobby.tsx&#45;&gt;../lib/userSession.ts -->
<g id="edge79" class="edge">
<title>Lobby.tsx&#45;&gt;../lib/userSession.ts</title>
<path fill="none" stroke="#757575" d="M61.66,-1036.82C72.85,-1010.9 99.28,-946.37 111,-889.5 121.59,-838.09 109.62,-455.34 147,-418.5 192.65,-373.51 621.36,-371.54 798.74,-372.68"/>
<polygon fill="#757575" stroke="#757575" points="798.76,-376.18 808.78,-372.75 798.81,-369.18 798.76,-376.18"/>
</g>
<!-- Quiz.tsx -->
<g id="node36" class="node">
<title>Quiz.tsx</title>
<path fill="none" stroke="#c6c5fe" d="M312.83,-1040C312.83,-1040 262.17,-1040 262.17,-1040 258.33,-1040 254.5,-1036.17 254.5,-1032.33 254.5,-1032.33 254.5,-1024.67 254.5,-1024.67 254.5,-1020.83 258.33,-1017 262.17,-1017 262.17,-1017 312.83,-1017 312.83,-1017 316.67,-1017 320.5,-1020.83 320.5,-1024.67 320.5,-1024.67 320.5,-1032.33 320.5,-1032.33 320.5,-1036.17 316.67,-1040 312.83,-1040"/>
<text text-anchor="middle" x="287.5" y="-1024.8" font-family="Arial" font-size="14.00" fill="#c6c5fe">Quiz.tsx</text>
</g>
<!-- Quiz.tsx&#45;&gt;../lib/logger.ts -->
<g id="edge80" class="edge">
<title>Quiz.tsx&#45;&gt;../lib/logger.ts</title>
<path fill="none" stroke="#757575" d="M320.76,-1030.31C441.22,-1036.55 863.74,-1053.77 982,-995.5 1015.75,-978.87 1041.07,-941.58 1054.41,-918.1"/>
<polygon fill="#757575" stroke="#757575" points="1057.51,-919.72 1059.23,-909.26 1051.37,-916.36 1057.51,-919.72"/>
</g>
<!-- Quiz.tsx&#45;&gt;../lib/mutations.ts -->
<g id="edge81" class="edge">
<title>Quiz.tsx&#45;&gt;../lib/mutations.ts</title>
<path fill="none" stroke="#757575" d="M320.79,-1023.37C352.67,-1016.6 400.53,-1001.54 428,-969.5 470.65,-919.74 432.29,-883.86 464,-826.5 492.42,-775.09 544.4,-728.69 574.59,-704.38"/>
<polygon fill="#757575" stroke="#757575" points="576.82,-707.07 582.48,-698.12 572.47,-701.58 576.82,-707.07"/>
</g>
<!-- Quiz.tsx&#45;&gt;../lib/types.ts -->
<g id="edge84" class="edge">
<title>Quiz.tsx&#45;&gt;../lib/types.ts</title>
<path fill="none" stroke="#757575" d="M320.76,-1021.96C351.72,-1014.2 398.06,-998.49 428,-969.5 455.43,-942.94 438.68,-920.08 464,-891.5 570,-771.85 620.83,-759.95 770,-702.5 859.4,-668.07 890.78,-692.78 982,-663.5 1000.2,-657.66 1019.59,-648.71 1035.05,-640.87"/>
<polygon fill="#757575" stroke="#757575" points="1036.85,-643.87 1044.12,-636.16 1033.63,-637.66 1036.85,-643.87"/>
</g>
<!-- Quiz.tsx&#45;&gt;../lib/realtimeHooks.ts -->
<g id="edge82" class="edge">
<title>Quiz.tsx&#45;&gt;../lib/realtimeHooks.ts</title>
<path fill="none" stroke="#757575" d="M320.51,-1023.28C348.88,-1018.48 391.37,-1010.86 428,-1002.5 469.1,-993.12 515.25,-980.5 549.08,-970.85"/>
<polygon fill="#757575" stroke="#757575" points="550.07,-974.21 558.72,-968.09 548.14,-967.48 550.07,-974.21"/>
</g>
<!-- Quiz.tsx&#45;&gt;../lib/sessionHooks.ts -->
<g id="edge83" class="edge">
<title>Quiz.tsx&#45;&gt;../lib/sessionHooks.ts</title>
<path fill="none" stroke="#757575" d="M320.75,-1033.29C366.89,-1040.15 453.27,-1052.99 517.4,-1062.52"/>
<polygon fill="#757575" stroke="#757575" points="517.08,-1066.01 527.49,-1064.02 518.11,-1059.09 517.08,-1066.01"/>
</g>
<!-- Results.tsx -->
<g id="node37" class="node">
<title>Results.tsx</title>
<path fill="none" stroke="#c6c5fe" d="M321.33,-1081C321.33,-1081 253.67,-1081 253.67,-1081 249.83,-1081 246,-1077.17 246,-1073.33 246,-1073.33 246,-1065.67 246,-1065.67 246,-1061.83 249.83,-1058 253.67,-1058 253.67,-1058 321.33,-1058 321.33,-1058 325.17,-1058 329,-1061.83 329,-1065.67 329,-1065.67 329,-1073.33 329,-1073.33 329,-1077.17 325.17,-1081 321.33,-1081"/>
<text text-anchor="middle" x="287.5" y="-1065.8" font-family="Arial" font-size="14.00" fill="#c6c5fe">Results.tsx</text>
</g>
<!-- Results.tsx&#45;&gt;../lib/logger.ts -->
<g id="edge85" class="edge">
<title>Results.tsx&#45;&gt;../lib/logger.ts</title>
<path fill="none" stroke="#757575" d="M317.53,-1081.05C419.44,-1119.55 766.31,-1233 982,-1086.5 1039.3,-1047.58 1057.39,-959.7 1062.81,-918.97"/>
<polygon fill="#757575" stroke="#757575" points="1066.29,-919.37 1064.01,-909.03 1059.34,-918.54 1066.29,-919.37"/>
</g>
<!-- Results.tsx&#45;&gt;../lib/mutations.ts -->
<g id="edge86" class="edge">
<title>Results.tsx&#45;&gt;../lib/mutations.ts</title>
<path fill="none" stroke="#757575" d="M329.29,-1074.9C360.17,-1076.6 401.63,-1073.41 428,-1049.5 477.83,-1004.32 437.95,-964.51 464,-902.5 496.46,-825.24 554.5,-743.74 582.31,-706.81"/>
<polygon fill="#757575" stroke="#757575" points="585.43,-708.49 588.69,-698.41 579.85,-704.25 585.43,-708.49"/>
</g>
<!-- Results.tsx&#45;&gt;../lib/supabaseClient.ts -->
<g id="edge88" class="edge">
<title>Results.tsx&#45;&gt;../lib/supabaseClient.ts</title>
<path fill="none" stroke="#757575" d="M329.16,-1074.41C359.76,-1075.79 400.92,-1072.42 428,-1049.5 468.23,-1015.45 423.73,-970.51 464,-936.5 476.34,-926.08 672.95,-901.81 789.7,-888.2"/>
<polygon fill="#757575" stroke="#757575" points="790.17,-891.67 799.7,-887.04 789.36,-884.71 790.17,-891.67"/>
</g>
<!-- Results.tsx&#45;&gt;../lib/sessionHooks.ts -->
<g id="edge87" class="edge">
<title>Results.tsx&#45;&gt;../lib/sessionHooks.ts</title>
<path fill="none" stroke="#757575" d="M329.28,-1070.16C376.92,-1070.93 456.89,-1072.22 517.23,-1073.2"/>
<polygon fill="#757575" stroke="#757575" points="517.44,-1076.7 527.5,-1073.36 517.55,-1069.7 517.44,-1076.7"/>
</g>
</g>
</svg>
