<?xml version="1.0" encoding="UTF-8" standalone="no"?>
<!DOCTYPE svg PUBLIC "-//W3C//DTD SVG 1.1//EN"
 "http://www.w3.org/Graphics/SVG/1.1/DTD/svg11.dtd">
<!-- Generated by graphviz version 2.43.0 (0)
 -->
<!-- Title: G Pages: 1 -->
<svg width="1511pt" height="1467pt"
 viewBox="0.00 0.00 1511.20 1466.81" xmlns="http://www.w3.org/2000/svg" xmlns:xlink="http://www.w3.org/1999/xlink">
<g id="graph0" class="graph" transform="scale(1 1) rotate(0) translate(21.6 1445.21)">
<title>G</title>
<polygon fill="#111111" stroke="transparent" points="-21.6,21.6 -21.6,-1445.21 1489.6,-1445.21 1489.6,21.6 -21.6,21.6"/>
<!-- ../atoms/index.ts -->
<g id="node1" class="node">
<title>../atoms/index.ts</title>
<path fill="none" stroke="#c6c5fe" d="M337.83,-1011C337.83,-1011 237.17,-1011 237.17,-1011 233.33,-1011 229.5,-1007.17 229.5,-1003.33 229.5,-1003.33 229.5,-995.67 229.5,-995.67 229.5,-991.83 233.33,-988 237.17,-988 237.17,-988 337.83,-988 337.83,-988 341.67,-988 345.5,-991.83 345.5,-995.67 345.5,-995.67 345.5,-1003.33 345.5,-1003.33 345.5,-1007.17 341.67,-1011 337.83,-1011"/>
<text text-anchor="middle" x="287.5" y="-995.8" font-family="Arial" font-size="14.00" fill="#c6c5fe">../atoms/index.ts</text>
</g>
<!-- ../lib/types/supabase.ts -->
<g id="node2" class="node">
<title>../lib/types/supabase.ts</title>
<path fill="none" stroke="#cfffac" d="M1460.33,-1298C1460.33,-1298 1321.67,-1298 1321.67,-1298 1317.83,-1298 1314,-1294.17 1314,-1290.33 1314,-1290.33 1314,-1282.67 1314,-1282.67 1314,-1278.83 1317.83,-1275 1321.67,-1275 1321.67,-1275 1460.33,-1275 1460.33,-1275 1464.17,-1275 1468,-1278.83 1468,-1282.67 1468,-1282.67 1468,-1290.33 1468,-1290.33 1468,-1294.17 1464.17,-1298 1460.33,-1298"/>
<text text-anchor="middle" x="1391" y="-1282.8" font-family="Arial" font-size="14.00" fill="#cfffac">../lib/types/supabase.ts</text>
</g>
<!-- ../atoms/index.ts&#45;&gt;../lib/types/supabase.ts -->
<g id="edge1" class="edge">
<title>../atoms/index.ts&#45;&gt;../lib/types/supabase.ts</title>
<path fill="none" stroke="#757575" d="M306.72,-1011.08C333.95,-1028.66 386.5,-1063.62 428,-1097.5 445.05,-1111.42 444.17,-1121.96 464,-1131.5 630.23,-1211.49 690.52,-1189.5 875,-1189.5 875,-1189.5 875,-1189.5 1067,-1189.5 1178.25,-1189.5 1302.29,-1242.94 1358.85,-1270.49"/>
<polygon fill="#757575" stroke="#757575" points="1357.46,-1273.7 1367.98,-1274.99 1360.56,-1267.43 1357.46,-1273.7"/>
</g>
<!-- ../components/ActiveGames.tsx -->
<g id="node3" class="node">
<title>../components/ActiveGames.tsx</title>
<path fill="none" stroke="#c6c5fe" d="M384.33,-103C384.33,-103 190.67,-103 190.67,-103 186.83,-103 183,-99.17 183,-95.33 183,-95.33 183,-87.67 183,-87.67 183,-83.83 186.83,-80 190.67,-80 190.67,-80 384.33,-80 384.33,-80 388.17,-80 392,-83.83 392,-87.67 392,-87.67 392,-95.33 392,-95.33 392,-99.17 388.17,-103 384.33,-103"/>
<text text-anchor="middle" x="287.5" y="-87.8" font-family="Arial" font-size="14.00" fill="#c6c5fe">../components/ActiveGames.tsx</text>
</g>
<!-- ../lib/logger.ts -->
<g id="node4" class="node">
<title>../lib/logger.ts</title>
<path fill="none" stroke="#cfffac" d="M1106.33,-511C1106.33,-511 1025.67,-511 1025.67,-511 1021.83,-511 1018,-507.17 1018,-503.33 1018,-503.33 1018,-495.67 1018,-495.67 1018,-491.83 1021.83,-488 1025.67,-488 1025.67,-488 1106.33,-488 1106.33,-488 1110.17,-488 1114,-491.83 1114,-495.67 1114,-495.67 1114,-503.33 1114,-503.33 1114,-507.17 1110.17,-511 1106.33,-511"/>
<text text-anchor="middle" x="1066" y="-495.8" font-family="Arial" font-size="14.00" fill="#cfffac">../lib/logger.ts</text>
</g>
<!-- ../components/ActiveGames.tsx&#45;&gt;../lib/logger.ts -->
<g id="edge2" class="edge">
<title>../components/ActiveGames.tsx&#45;&gt;../lib/logger.ts</title>
<path fill="none" stroke="#757575" d="M392.29,-80.51C563.63,-64.74 895.4,-44.98 982,-117.5 1038.17,-164.54 1058.63,-403.97 1063.66,-477.8"/>
<polygon fill="#757575" stroke="#757575" points="1060.17,-478.06 1064.32,-487.81 1067.16,-477.6 1060.17,-478.06"/>
</g>
<!-- ../lib/mutations.ts -->
<g id="node5" class="node">
<title>../lib/mutations.ts</title>
<path fill="none" stroke="#c6c5fe" d="M650.83,-491C650.83,-491 547.17,-491 547.17,-491 543.33,-491 539.5,-487.17 539.5,-483.33 539.5,-483.33 539.5,-475.67 539.5,-475.67 539.5,-471.83 543.33,-468 547.17,-468 547.17,-468 650.83,-468 650.83,-468 654.67,-468 658.5,-471.83 658.5,-475.67 658.5,-475.67 658.5,-483.33 658.5,-483.33 658.5,-487.17 654.67,-491 650.83,-491"/>
<text text-anchor="middle" x="599" y="-475.8" font-family="Arial" font-size="14.00" fill="#c6c5fe">../lib/mutations.ts</text>
</g>
<!-- ../components/ActiveGames.tsx&#45;&gt;../lib/mutations.ts -->
<g id="edge3" class="edge">
<title>../components/ActiveGames.tsx&#45;&gt;../lib/mutations.ts</title>
<path fill="none" stroke="#757575" d="M392.23,-95.85C405.64,-100.45 418.12,-107.35 428,-117.5 499.25,-190.7 417.79,-253.4 464,-344.5 489.67,-395.11 541.26,-438.6 572.4,-461.73"/>
<polygon fill="#757575" stroke="#757575" points="570.46,-464.65 580.6,-467.7 574.58,-458.99 570.46,-464.65"/>
</g>
<!-- ../lib/mutations.ts&#45;&gt;../lib/logger.ts -->
<g id="edge26" class="edge">
<title>../lib/mutations.ts&#45;&gt;../lib/logger.ts</title>
<path fill="none" stroke="#757575" d="M658.89,-482.03C748.69,-485.9 918.77,-493.21 1007.64,-497.03"/>
<polygon fill="#757575" stroke="#757575" points="1007.67,-500.54 1017.81,-497.47 1007.97,-493.54 1007.67,-500.54"/>
</g>
<!-- ../lib/supabaseClient.ts -->
<g id="node13" class="node">
<title>../lib/supabaseClient.ts</title>
<path fill="none" stroke="#cfffac" d="M944.33,-702C944.33,-702 807.67,-702 807.67,-702 803.83,-702 800,-698.17 800,-694.33 800,-694.33 800,-686.67 800,-686.67 800,-682.83 803.83,-679 807.67,-679 807.67,-679 944.33,-679 944.33,-679 948.17,-679 952,-682.83 952,-686.67 952,-686.67 952,-694.33 952,-694.33 952,-698.17 948.17,-702 944.33,-702"/>
<text text-anchor="middle" x="876" y="-686.8" font-family="Arial" font-size="14.00" fill="#cfffac">../lib/supabaseClient.ts</text>
</g>
<!-- ../lib/mutations.ts&#45;&gt;../lib/supabaseClient.ts -->
<g id="edge27" class="edge">
<title>../lib/mutations.ts&#45;&gt;../lib/supabaseClient.ts</title>
<path fill="none" stroke="#757575" d="M658.6,-477.63C684.64,-479.84 713.88,-486.94 734,-505.5 777.75,-545.86 732.73,-588.08 770,-634.5 784.85,-653 807.5,-666.17 827.97,-675.07"/>
<polygon fill="#757575" stroke="#757575" points="826.91,-678.42 837.49,-678.98 829.57,-671.94 826.91,-678.42"/>
</g>
<!-- ../lib/dailyTokenManager.ts -->
<g id="node24" class="node">
<title>../lib/dailyTokenManager.ts</title>
<path fill="none" stroke="#c6c5fe" d="M956.33,-531C956.33,-531 795.67,-531 795.67,-531 791.83,-531 788,-527.17 788,-523.33 788,-523.33 788,-515.67 788,-515.67 788,-511.83 791.83,-508 795.67,-508 795.67,-508 956.33,-508 956.33,-508 960.17,-508 964,-511.83 964,-515.67 964,-515.67 964,-523.33 964,-523.33 964,-527.17 960.17,-531 956.33,-531"/>
<text text-anchor="middle" x="876" y="-515.8" font-family="Arial" font-size="14.00" fill="#c6c5fe">../lib/dailyTokenManager.ts</text>
</g>
<!-- ../lib/mutations.ts&#45;&gt;../lib/dailyTokenManager.ts -->
<g id="edge25" class="edge">
<title>../lib/mutations.ts&#45;&gt;../lib/dailyTokenManager.ts</title>
<path fill="none" stroke="#757575" d="M658.66,-488.03C695.6,-493.41 744.01,-500.45 785.67,-506.51"/>
<polygon fill="#757575" stroke="#757575" points="785.42,-510.01 795.82,-507.98 786.43,-503.08 785.42,-510.01"/>
</g>
<!-- ../lib/types.ts -->
<g id="node25" class="node">
<title>../lib/types.ts</title>
<path fill="none" stroke="#c6c5fe" d="M1104.33,-1011C1104.33,-1011 1027.67,-1011 1027.67,-1011 1023.83,-1011 1020,-1007.17 1020,-1003.33 1020,-1003.33 1020,-995.67 1020,-995.67 1020,-991.83 1023.83,-988 1027.67,-988 1027.67,-988 1104.33,-988 1104.33,-988 1108.17,-988 1112,-991.83 1112,-995.67 1112,-995.67 1112,-1003.33 1112,-1003.33 1112,-1007.17 1108.17,-1011 1104.33,-1011"/>
<text text-anchor="middle" x="1066" y="-995.8" font-family="Arial" font-size="14.00" fill="#c6c5fe">../lib/types.ts</text>
</g>
<!-- ../lib/mutations.ts&#45;&gt;../lib/types.ts -->
<g id="edge28" class="edge">
<title>../lib/mutations.ts&#45;&gt;../lib/types.ts</title>
<path fill="none" stroke="#757575" d="M658.56,-488.38C682.72,-493.44 710.5,-501.11 734,-512.5 752.24,-521.34 753.33,-528.96 770,-540.5 860.87,-603.41 916.53,-581.45 982,-670.5 1053.65,-767.97 1063.76,-920.76 1064.95,-977.41"/>
<polygon fill="#757575" stroke="#757575" points="1061.46,-977.74 1065.09,-987.7 1068.46,-977.65 1061.46,-977.74"/>
</g>
<!-- ../components/Alert.tsx -->
<g id="node6" class="node">
<title>../components/Alert.tsx</title>
<path fill="none" stroke="#cfffac" d="M357.33,-183C357.33,-183 217.67,-183 217.67,-183 213.83,-183 210,-179.17 210,-175.33 210,-175.33 210,-167.67 210,-167.67 210,-163.83 213.83,-160 217.67,-160 217.67,-160 357.33,-160 357.33,-160 361.17,-160 365,-163.83 365,-167.67 365,-167.67 365,-175.33 365,-175.33 365,-179.17 361.17,-183 357.33,-183"/>
<text text-anchor="middle" x="287.5" y="-167.8" font-family="Arial" font-size="14.00" fill="#cfffac">../components/Alert.tsx</text>
</g>
<!-- ../components/ControlsBar.tsx -->
<g id="node7" class="node">
<title>../components/ControlsBar.tsx</title>
<path fill="none" stroke="#cfffac" d="M689.83,-1279C689.83,-1279 508.17,-1279 508.17,-1279 504.33,-1279 500.5,-1275.17 500.5,-1271.33 500.5,-1271.33 500.5,-1263.67 500.5,-1263.67 500.5,-1259.83 504.33,-1256 508.17,-1256 508.17,-1256 689.83,-1256 689.83,-1256 693.67,-1256 697.5,-1259.83 697.5,-1263.67 697.5,-1263.67 697.5,-1271.33 697.5,-1271.33 697.5,-1275.17 693.67,-1279 689.83,-1279"/>
<text text-anchor="middle" x="599" y="-1263.8" font-family="Arial" font-size="14.00" fill="#cfffac">../components/ControlsBar.tsx</text>
</g>
<!-- ../components/Flag.tsx -->
<g id="node8" class="node">
<title>../components/Flag.tsx</title>
<path fill="none" stroke="#c6c5fe" d="M667.83,-774C667.83,-774 530.17,-774 530.17,-774 526.33,-774 522.5,-770.17 522.5,-766.33 522.5,-766.33 522.5,-758.67 522.5,-758.67 522.5,-754.83 526.33,-751 530.17,-751 530.17,-751 667.83,-751 667.83,-751 671.67,-751 675.5,-754.83 675.5,-758.67 675.5,-758.67 675.5,-766.33 675.5,-766.33 675.5,-770.17 671.67,-774 667.83,-774"/>
<text text-anchor="middle" x="599" y="-758.8" font-family="Arial" font-size="14.00" fill="#c6c5fe">../components/Flag.tsx</text>
</g>
<!-- ../lib/flagIcons.ts -->
<g id="node9" class="node">
<title>../lib/flagIcons.ts</title>
<path fill="none" stroke="#c6c5fe" d="M924.83,-758C924.83,-758 827.17,-758 827.17,-758 823.33,-758 819.5,-754.17 819.5,-750.33 819.5,-750.33 819.5,-742.67 819.5,-742.67 819.5,-738.83 823.33,-735 827.17,-735 827.17,-735 924.83,-735 924.83,-735 928.67,-735 932.5,-738.83 932.5,-742.67 932.5,-742.67 932.5,-750.33 932.5,-750.33 932.5,-754.17 928.67,-758 924.83,-758"/>
<text text-anchor="middle" x="876" y="-742.8" font-family="Arial" font-size="14.00" fill="#c6c5fe">../lib/flagIcons.ts</text>
</g>
<!-- ../components/Flag.tsx&#45;&gt;../lib/flagIcons.ts -->
<g id="edge4" class="edge">
<title>../components/Flag.tsx&#45;&gt;../lib/flagIcons.ts</title>
<path fill="none" stroke="#757575" d="M675.51,-758.11C717.34,-755.67 768.86,-752.68 809.06,-750.34"/>
<polygon fill="#757575" stroke="#757575" points="809.51,-753.82 819.29,-749.74 809.1,-746.83 809.51,-753.82"/>
</g>
<!-- ../lib/flagIcons.ts&#45;&gt;../lib/logger.ts -->
<g id="edge24" class="edge">
<title>../lib/flagIcons.ts&#45;&gt;../lib/logger.ts</title>
<path fill="none" stroke="#757575" d="M932.56,-737.62C950.14,-732.47 968.49,-724.34 982,-711.5 1037.77,-658.52 1056.71,-563.58 1062.59,-521.09"/>
<polygon fill="#757575" stroke="#757575" points="1066.08,-521.38 1063.87,-511.02 1059.14,-520.5 1066.08,-521.38"/>
</g>
<!-- ../components/LobbyLogo.tsx -->
<g id="node10" class="node">
<title>../components/LobbyLogo.tsx</title>
<path fill="none" stroke="#cfffac" d="M376.83,-1129C376.83,-1129 198.17,-1129 198.17,-1129 194.33,-1129 190.5,-1125.17 190.5,-1121.33 190.5,-1121.33 190.5,-1113.67 190.5,-1113.67 190.5,-1109.83 194.33,-1106 198.17,-1106 198.17,-1106 376.83,-1106 376.83,-1106 380.67,-1106 384.5,-1109.83 384.5,-1113.67 384.5,-1113.67 384.5,-1121.33 384.5,-1121.33 384.5,-1125.17 380.67,-1129 376.83,-1129"/>
<text text-anchor="middle" x="287.5" y="-1113.8" font-family="Arial" font-size="14.00" fill="#cfffac">../components/LobbyLogo.tsx</text>
</g>
<!-- ../components/LobbyStatus.tsx -->
<g id="node11" class="node">
<title>../components/LobbyStatus.tsx</title>
<path fill="none" stroke="#c6c5fe" d="M692.33,-335C692.33,-335 505.67,-335 505.67,-335 501.83,-335 498,-331.17 498,-327.33 498,-327.33 498,-319.67 498,-319.67 498,-315.83 501.83,-312 505.67,-312 505.67,-312 692.33,-312 692.33,-312 696.17,-312 700,-315.83 700,-319.67 700,-319.67 700,-327.33 700,-327.33 700,-331.17 696.17,-335 692.33,-335"/>
<text text-anchor="middle" x="599" y="-319.8" font-family="Arial" font-size="14.00" fill="#c6c5fe">../components/LobbyStatus.tsx</text>
</g>
<!-- ../components/LobbyStatus.tsx&#45;&gt;../lib/logger.ts -->
<g id="edge5" class="edge">
<title>../components/LobbyStatus.tsx&#45;&gt;../lib/logger.ts</title>
<path fill="none" stroke="#757575" d="M700.15,-317.24C797.45,-313.07 936.92,-312.79 982,-341.5 1030.79,-372.57 1052.56,-442.35 1060.77,-477.86"/>
<polygon fill="#757575" stroke="#757575" points="1057.36,-478.66 1062.9,-487.7 1064.21,-477.18 1057.36,-478.66"/>
</g>
<!-- ../lib/roleUtils.ts -->
<g id="node12" class="node">
<title>../lib/roleUtils.ts</title>
<path fill="none" stroke="#c6c5fe" d="M922.33,-373C922.33,-373 829.67,-373 829.67,-373 825.83,-373 822,-369.17 822,-365.33 822,-365.33 822,-357.67 822,-357.67 822,-353.83 825.83,-350 829.67,-350 829.67,-350 922.33,-350 922.33,-350 926.17,-350 930,-353.83 930,-357.67 930,-357.67 930,-365.33 930,-365.33 930,-369.17 926.17,-373 922.33,-373"/>
<text text-anchor="middle" x="876" y="-357.8" font-family="Arial" font-size="14.00" fill="#c6c5fe">../lib/roleUtils.ts</text>
</g>
<!-- ../components/LobbyStatus.tsx&#45;&gt;../lib/roleUtils.ts -->
<g id="edge6" class="edge">
<title>../components/LobbyStatus.tsx&#45;&gt;../lib/roleUtils.ts</title>
<path fill="none" stroke="#757575" d="M683.26,-335C724.61,-340.72 773.77,-347.51 811.96,-352.79"/>
<polygon fill="#757575" stroke="#757575" points="811.53,-356.26 821.92,-354.16 812.49,-349.33 811.53,-356.26"/>
</g>
<!-- ../components/LobbyStatus.tsx&#45;&gt;../lib/supabaseClient.ts -->
<g id="edge7" class="edge">
<title>../components/LobbyStatus.tsx&#45;&gt;../lib/supabaseClient.ts</title>
<path fill="none" stroke="#757575" d="M647.85,-335.03C676.89,-344.44 712.41,-360.7 734,-387.5 777.83,-441.9 741.46,-476.74 770,-540.5 792.95,-591.77 834.25,-643.74 857.63,-671"/>
<polygon fill="#757575" stroke="#757575" points="855.07,-673.39 864.27,-678.65 860.35,-668.8 855.07,-673.39"/>
</g>
<!-- ../lib/roleUtils.ts&#45;&gt;../lib/types.ts -->
<g id="edge35" class="edge">
<title>../lib/roleUtils.ts&#45;&gt;../lib/types.ts</title>
<path fill="none" stroke="#757575" d="M930.02,-362.69C948.99,-365.88 968.89,-372.89 982,-387.5 1022.38,-432.49 1056.03,-873.25 1063.47,-977.49"/>
<polygon fill="#757575" stroke="#757575" points="1060,-978.02 1064.19,-987.75 1066.98,-977.53 1060,-978.02"/>
</g>
<!-- ../components/OptimizedFlagSelector.tsx -->
<g id="node14" class="node">
<title>../components/OptimizedFlagSelector.tsx</title>
<path fill="none" stroke="#c6c5fe" d="M411.83,-775C411.83,-775 163.17,-775 163.17,-775 159.33,-775 155.5,-771.17 155.5,-767.33 155.5,-767.33 155.5,-759.67 155.5,-759.67 155.5,-755.83 159.33,-752 163.17,-752 163.17,-752 411.83,-752 411.83,-752 415.67,-752 419.5,-755.83 419.5,-759.67 419.5,-759.67 419.5,-767.33 419.5,-767.33 419.5,-771.17 415.67,-775 411.83,-775"/>
<text text-anchor="middle" x="287.5" y="-759.8" font-family="Arial" font-size="14.00" fill="#c6c5fe">../components/OptimizedFlagSelector.tsx</text>
</g>
<!-- ../components/OptimizedFlagSelector.tsx&#45;&gt;../components/Flag.tsx -->
<g id="edge8" class="edge">
<title>../components/OptimizedFlagSelector.tsx&#45;&gt;../components/Flag.tsx</title>
<path fill="none" stroke="#757575" d="M419.76,-763.08C450.86,-762.98 483.27,-762.87 511.78,-762.78"/>
<polygon fill="#757575" stroke="#757575" points="512.11,-766.28 522.1,-762.75 512.09,-759.28 512.11,-766.28"/>
</g>
<!-- ../components/ParticipantTile.tsx -->
<g id="node15" class="node">
<title>../components/ParticipantTile.tsx</title>
<path fill="none" stroke="#c6c5fe" d="M974.33,-1298C974.33,-1298 777.67,-1298 777.67,-1298 773.83,-1298 770,-1294.17 770,-1290.33 770,-1290.33 770,-1282.67 770,-1282.67 770,-1278.83 773.83,-1275 777.67,-1275 777.67,-1275 974.33,-1275 974.33,-1275 978.17,-1275 982,-1278.83 982,-1282.67 982,-1282.67 982,-1290.33 982,-1290.33 982,-1294.17 978.17,-1298 974.33,-1298"/>
<text text-anchor="middle" x="876" y="-1282.8" font-family="Arial" font-size="14.00" fill="#c6c5fe">../components/ParticipantTile.tsx</text>
</g>
<!-- ../components/ParticipantTile.tsx&#45;&gt;../lib/types/supabase.ts -->
<g id="edge10" class="edge">
<title>../components/ParticipantTile.tsx&#45;&gt;../lib/types/supabase.ts</title>
<path fill="none" stroke="#757575" d="M982.05,-1286.5C1077.03,-1286.5 1215.17,-1286.5 1303.81,-1286.5"/>
<polygon fill="#757575" stroke="#757575" points="1303.83,-1290 1313.83,-1286.5 1303.83,-1283 1303.83,-1290"/>
</g>
<!-- ../components/ParticipantTile.tsx&#45;&gt;../lib/logger.ts -->
<g id="edge9" class="edge">
<title>../components/ParticipantTile.tsx&#45;&gt;../lib/logger.ts</title>
<path fill="none" stroke="#757575" d="M931.91,-1274.97C950.63,-1268.29 969.88,-1257.82 982,-1241.5 993.08,-1226.58 1050.93,-642.83 1062.85,-521.46"/>
<polygon fill="#757575" stroke="#757575" points="1066.36,-521.49 1063.86,-511.19 1059.4,-520.8 1066.36,-521.49"/>
</g>
<!-- ../components/PasswordModal.tsx -->
<g id="node16" class="node">
<title>../components/PasswordModal.tsx</title>
<path fill="none" stroke="#cfffac" d="M391.83,-23C391.83,-23 183.17,-23 183.17,-23 179.33,-23 175.5,-19.17 175.5,-15.33 175.5,-15.33 175.5,-7.67 175.5,-7.67 175.5,-3.83 179.33,0 183.17,0 183.17,0 391.83,0 391.83,0 395.67,0 399.5,-3.83 399.5,-7.67 399.5,-7.67 399.5,-15.33 399.5,-15.33 399.5,-19.17 395.67,-23 391.83,-23"/>
<text text-anchor="middle" x="287.5" y="-7.8" font-family="Arial" font-size="14.00" fill="#cfffac">../components/PasswordModal.tsx</text>
</g>
<!-- ../components/PresetConfirmationModal.tsx -->
<g id="node17" class="node">
<title>../components/PresetConfirmationModal.tsx</title>
<path fill="none" stroke="#c6c5fe" d="M420.33,-575C420.33,-575 154.67,-575 154.67,-575 150.83,-575 147,-571.17 147,-567.33 147,-567.33 147,-559.67 147,-559.67 147,-555.83 150.83,-552 154.67,-552 154.67,-552 420.33,-552 420.33,-552 424.17,-552 428,-555.83 428,-559.67 428,-559.67 428,-567.33 428,-567.33 428,-571.17 424.17,-575 420.33,-575"/>
<text text-anchor="middle" x="287.5" y="-559.8" font-family="Arial" font-size="14.00" fill="#c6c5fe">../components/PresetConfirmationModal.tsx</text>
</g>
<!-- ../components/PresetConfirmationModal.tsx&#45;&gt;../lib/mutations.ts -->
<g id="edge11" class="edge">
<title>../components/PresetConfirmationModal.tsx&#45;&gt;../lib/mutations.ts</title>
<path fill="none" stroke="#757575" d="M387.47,-551.99C401.48,-548.39 415.39,-543.68 428,-537.5 447.23,-528.08 444.81,-514.99 464,-505.5 484.08,-495.57 507.6,-489.43 529.29,-485.63"/>
<polygon fill="#757575" stroke="#757575" points="530.11,-489.05 539.43,-484 529,-482.13 530.11,-489.05"/>
</g>
<!-- ../components/ReactBits/AnimatedList.tsx -->
<g id="node18" class="node">
<title>../components/ReactBits/AnimatedList.tsx</title>
<path fill="none" stroke="#cfffac" d="M724.83,-571C724.83,-571 473.17,-571 473.17,-571 469.33,-571 465.5,-567.17 465.5,-563.33 465.5,-563.33 465.5,-555.67 465.5,-555.67 465.5,-551.83 469.33,-548 473.17,-548 473.17,-548 724.83,-548 724.83,-548 728.67,-548 732.5,-551.83 732.5,-555.67 732.5,-555.67 732.5,-563.33 732.5,-563.33 732.5,-567.17 728.67,-571 724.83,-571"/>
<text text-anchor="middle" x="599" y="-555.8" font-family="Arial" font-size="14.00" fill="#cfffac">../components/ReactBits/AnimatedList.tsx</text>
</g>
<!-- ../components/ReactBits/Dock.tsx -->
<g id="node19" class="node">
<title>../components/ReactBits/Dock.tsx</title>
<path fill="none" stroke="#cfffac" d="M700.83,-694C700.83,-694 497.17,-694 497.17,-694 493.33,-694 489.5,-690.17 489.5,-686.33 489.5,-686.33 489.5,-678.67 489.5,-678.67 489.5,-674.83 493.33,-671 497.17,-671 497.17,-671 700.83,-671 700.83,-671 704.67,-671 708.5,-674.83 708.5,-678.67 708.5,-678.67 708.5,-686.33 708.5,-686.33 708.5,-690.17 704.67,-694 700.83,-694"/>
<text text-anchor="middle" x="599" y="-678.8" font-family="Arial" font-size="14.00" fill="#cfffac">../components/ReactBits/Dock.tsx</text>
</g>
<!-- ../components/ReactBits/PixelCard.tsx -->
<g id="node20" class="node">
<title>../components/ReactBits/PixelCard.tsx</title>
<path fill="none" stroke="#cfffac" d="M714.83,-653C714.83,-653 483.17,-653 483.17,-653 479.33,-653 475.5,-649.17 475.5,-645.33 475.5,-645.33 475.5,-637.67 475.5,-637.67 475.5,-633.83 479.33,-630 483.17,-630 483.17,-630 714.83,-630 714.83,-630 718.67,-630 722.5,-633.83 722.5,-637.67 722.5,-637.67 722.5,-645.33 722.5,-645.33 722.5,-649.17 718.67,-653 714.83,-653"/>
<text text-anchor="middle" x="599" y="-637.8" font-family="Arial" font-size="14.00" fill="#cfffac">../components/ReactBits/PixelCard.tsx</text>
</g>
<!-- ../components/ReactBits/SpotlightCard.tsx -->
<g id="node21" class="node">
<title>../components/ReactBits/SpotlightCard.tsx</title>
<path fill="none" stroke="#cfffac" d="M726.33,-612C726.33,-612 471.67,-612 471.67,-612 467.83,-612 464,-608.17 464,-604.33 464,-604.33 464,-596.67 464,-596.67 464,-592.83 467.83,-589 471.67,-589 471.67,-589 726.33,-589 726.33,-589 730.17,-589 734,-592.83 734,-596.67 734,-596.67 734,-604.33 734,-604.33 734,-608.17 730.17,-612 726.33,-612"/>
<text text-anchor="middle" x="599" y="-596.8" font-family="Arial" font-size="14.00" fill="#cfffac">../components/ReactBits/SpotlightCard.tsx</text>
</g>
<!-- ../components/ReactBits/index.ts -->
<g id="node22" class="node">
<title>../components/ReactBits/index.ts</title>
<path fill="none" stroke="#c6c5fe" d="M386.83,-657C386.83,-657 188.17,-657 188.17,-657 184.33,-657 180.5,-653.17 180.5,-649.33 180.5,-649.33 180.5,-641.67 180.5,-641.67 180.5,-637.83 184.33,-634 188.17,-634 188.17,-634 386.83,-634 386.83,-634 390.67,-634 394.5,-637.83 394.5,-641.67 394.5,-641.67 394.5,-649.33 394.5,-649.33 394.5,-653.17 390.67,-657 386.83,-657"/>
<text text-anchor="middle" x="287.5" y="-641.8" font-family="Arial" font-size="14.00" fill="#c6c5fe">../components/ReactBits/index.ts</text>
</g>
<!-- ../components/ReactBits/index.ts&#45;&gt;../components/ReactBits/AnimatedList.tsx -->
<g id="edge12" class="edge">
<title>../components/ReactBits/index.ts&#45;&gt;../components/ReactBits/AnimatedList.tsx</title>
<path fill="none" stroke="#757575" d="M394.57,-638.99C406.29,-635.76 417.7,-631.39 428,-625.5 450.24,-612.79 441.85,-593.35 464,-580.5 467.51,-578.46 471.15,-576.61 474.9,-574.91"/>
<polygon fill="#757575" stroke="#757575" points="476.46,-578.06 484.39,-571.04 473.81,-571.58 476.46,-578.06"/>
</g>
<!-- ../components/ReactBits/index.ts&#45;&gt;../components/ReactBits/Dock.tsx -->
<g id="edge13" class="edge">
<title>../components/ReactBits/index.ts&#45;&gt;../components/ReactBits/Dock.tsx</title>
<path fill="none" stroke="#757575" d="M384.73,-657C418.57,-661.05 456.78,-665.62 491.42,-669.76"/>
<polygon fill="#757575" stroke="#757575" points="491.22,-673.26 501.56,-670.97 492.05,-666.31 491.22,-673.26"/>
</g>
<!-- ../components/ReactBits/index.ts&#45;&gt;../components/ReactBits/PixelCard.tsx -->
<g id="edge14" class="edge">
<title>../components/ReactBits/index.ts&#45;&gt;../components/ReactBits/PixelCard.tsx</title>
<path fill="none" stroke="#757575" d="M394.58,-644.13C417.32,-643.84 441.62,-643.52 465.22,-643.22"/>
<polygon fill="#757575" stroke="#757575" points="465.33,-646.72 475.28,-643.09 465.24,-639.72 465.33,-646.72"/>
</g>
<!-- ../components/ReactBits/index.ts&#45;&gt;../components/ReactBits/SpotlightCard.tsx -->
<g id="edge15" class="edge">
<title>../components/ReactBits/index.ts&#45;&gt;../components/ReactBits/SpotlightCard.tsx</title>
<path fill="none" stroke="#757575" d="M369.28,-633.97C388.53,-631.21 408.99,-628.26 428,-625.5 454.7,-621.62 483.75,-617.36 510.17,-613.48"/>
<polygon fill="#757575" stroke="#757575" points="510.76,-616.93 520.15,-612.01 509.75,-610 510.76,-616.93"/>
</g>
<!-- ../components/VideoCall.tsx -->
<g id="node23" class="node">
<title>../components/VideoCall.tsx</title>
<path fill="none" stroke="#c6c5fe" d="M372.33,-1239C372.33,-1239 202.67,-1239 202.67,-1239 198.83,-1239 195,-1235.17 195,-1231.33 195,-1231.33 195,-1223.67 195,-1223.67 195,-1219.83 198.83,-1216 202.67,-1216 202.67,-1216 372.33,-1216 372.33,-1216 376.17,-1216 380,-1219.83 380,-1223.67 380,-1223.67 380,-1231.33 380,-1231.33 380,-1235.17 376.17,-1239 372.33,-1239"/>
<text text-anchor="middle" x="287.5" y="-1223.8" font-family="Arial" font-size="14.00" fill="#c6c5fe">../components/VideoCall.tsx</text>
</g>
<!-- ../components/VideoCall.tsx&#45;&gt;../lib/types/supabase.ts -->
<g id="edge21" class="edge">
<title>../components/VideoCall.tsx&#45;&gt;../lib/types/supabase.ts</title>
<path fill="none" stroke="#757575" d="M380.3,-1226.4C397.19,-1229.5 413.91,-1235.07 428,-1244.5 455.12,-1262.65 436.6,-1290.78 464,-1308.5 618,-1408.1 691.59,-1345.5 875,-1345.5 875,-1345.5 875,-1345.5 1067,-1345.5 1166.09,-1345.5 1279.53,-1318.3 1342.15,-1300.84"/>
<polygon fill="#757575" stroke="#757575" points="1343.45,-1304.1 1352.12,-1298.02 1341.55,-1297.37 1343.45,-1304.1"/>
</g>
<!-- ../components/VideoCall.tsx&#45;&gt;../lib/logger.ts -->
<g id="edge18" class="edge">
<title>../components/VideoCall.tsx&#45;&gt;../lib/logger.ts</title>
<path fill="none" stroke="#757575" d="M380.14,-1229.11C549.45,-1229.98 901.39,-1221.24 982,-1136.5 1003.81,-1113.58 1052.19,-630.59 1062.88,-521.33"/>
<polygon fill="#757575" stroke="#757575" points="1066.38,-521.47 1063.87,-511.18 1059.42,-520.79 1066.38,-521.47"/>
</g>
<!-- ../components/VideoCall.tsx&#45;&gt;../lib/mutations.ts -->
<g id="edge19" class="edge">
<title>../components/VideoCall.tsx&#45;&gt;../lib/mutations.ts</title>
<path fill="none" stroke="#757575" d="M323.12,-1215.93C356.34,-1202.83 404.78,-1178 428,-1138.5 495.58,-1023.54 388.16,-649.19 464,-539.5 479.36,-517.29 504.95,-503.19 529.68,-494.28"/>
<polygon fill="#757575" stroke="#757575" points="531.09,-497.5 539.45,-491.01 528.86,-490.87 531.09,-497.5"/>
</g>
<!-- ../components/VideoCall.tsx&#45;&gt;../components/ControlsBar.tsx -->
<g id="edge16" class="edge">
<title>../components/VideoCall.tsx&#45;&gt;../components/ControlsBar.tsx</title>
<path fill="none" stroke="#757575" d="M377.6,-1239.02C415.47,-1243.91 459.78,-1249.64 498.69,-1254.67"/>
<polygon fill="#757575" stroke="#757575" points="498.62,-1258.19 508.99,-1256 499.52,-1251.24 498.62,-1258.19"/>
</g>
<!-- ../components/VideoCall.tsx&#45;&gt;../lib/supabaseClient.ts -->
<g id="edge20" class="edge">
<title>../components/VideoCall.tsx&#45;&gt;../lib/supabaseClient.ts</title>
<path fill="none" stroke="#757575" d="M320.62,-1215.95C353.1,-1202.52 402.07,-1177.15 428,-1138.5 478.08,-1063.86 404.23,-1006.63 464,-939.5 547.4,-845.83 646.51,-947.35 734,-857.5 776.12,-814.24 728.65,-770.5 770,-726.5 778.35,-717.61 788.99,-710.92 800.27,-705.88"/>
<polygon fill="#757575" stroke="#757575" points="801.9,-709 809.87,-702.02 799.29,-702.5 801.9,-709"/>
</g>
<!-- ../components/VideoCall.tsx&#45;&gt;../components/ParticipantTile.tsx -->
<g id="edge17" class="edge">
<title>../components/VideoCall.tsx&#45;&gt;../components/ParticipantTile.tsx</title>
<path fill="none" stroke="#757575" d="M313.09,-1239.01C346.41,-1253.9 408.18,-1279.08 464,-1288.5 562.78,-1305.18 676.83,-1302.96 759.69,-1297.56"/>
<polygon fill="#757575" stroke="#757575" points="760.15,-1301.04 769.89,-1296.87 759.68,-1294.05 760.15,-1301.04"/>
</g>
<!-- ../lib/dailyTokenManager.ts&#45;&gt;../lib/logger.ts -->
<g id="edge22" class="edge">
<title>../lib/dailyTokenManager.ts&#45;&gt;../lib/logger.ts</title>
<path fill="none" stroke="#757575" d="M964.12,-510.23C978.89,-508.66 993.89,-507.06 1007.65,-505.6"/>
<polygon fill="#757575" stroke="#757575" points="1008.33,-509.05 1017.91,-504.51 1007.59,-502.09 1008.33,-509.05"/>
</g>
<!-- ../lib/dailyTokenManager.ts&#45;&gt;../lib/types.ts -->
<g id="edge23" class="edge">
<title>../lib/dailyTokenManager.ts&#45;&gt;../lib/types.ts</title>
<path fill="none" stroke="#757575" d="M898.4,-531.21C922.64,-545.63 961.43,-572.46 982,-606.5 1057.54,-731.52 1065.03,-915.06 1065.26,-977.65"/>
<polygon fill="#757575" stroke="#757575" points="1061.76,-977.88 1065.23,-987.89 1068.76,-977.9 1061.76,-977.88"/>
</g>
<!-- ../lib/types/index.ts -->
<g id="node29" class="node">
<title>../lib/types/index.ts</title>
<path fill="none" stroke="#c6c5fe" d="M1270.33,-1067C1270.33,-1067 1157.67,-1067 1157.67,-1067 1153.83,-1067 1150,-1063.17 1150,-1059.33 1150,-1059.33 1150,-1051.67 1150,-1051.67 1150,-1047.83 1153.83,-1044 1157.67,-1044 1157.67,-1044 1270.33,-1044 1270.33,-1044 1274.17,-1044 1278,-1047.83 1278,-1051.67 1278,-1051.67 1278,-1059.33 1278,-1059.33 1278,-1063.17 1274.17,-1067 1270.33,-1067"/>
<text text-anchor="middle" x="1214" y="-1051.8" font-family="Arial" font-size="14.00" fill="#c6c5fe">../lib/types/index.ts</text>
</g>
<!-- ../lib/types.ts&#45;&gt;../lib/types/index.ts -->
<g id="edge38" class="edge">
<title>../lib/types.ts&#45;&gt;../lib/types/index.ts</title>
<path fill="none" stroke="#757575" d="M1097.25,-1011.1C1119.27,-1019.55 1149.31,-1031.07 1173.27,-1040.26"/>
<polygon fill="#757575" stroke="#757575" points="1172.2,-1043.6 1182.79,-1043.91 1174.7,-1037.06 1172.2,-1043.6"/>
</g>
<!-- ../lib/presence.ts -->
<g id="node26" class="node">
<title>../lib/presence.ts</title>
<path fill="none" stroke="#c6c5fe" d="M337.33,-415C337.33,-415 237.67,-415 237.67,-415 233.83,-415 230,-411.17 230,-407.33 230,-407.33 230,-399.67 230,-399.67 230,-395.83 233.83,-392 237.67,-392 237.67,-392 337.33,-392 337.33,-392 341.17,-392 345,-395.83 345,-399.67 345,-399.67 345,-407.33 345,-407.33 345,-411.17 341.17,-415 337.33,-415"/>
<text text-anchor="middle" x="287.5" y="-399.8" font-family="Arial" font-size="14.00" fill="#c6c5fe">../lib/presence.ts</text>
</g>
<!-- ../lib/presence.ts&#45;&gt;../lib/logger.ts -->
<g id="edge29" class="edge">
<title>../lib/presence.ts&#45;&gt;../lib/logger.ts</title>
<path fill="none" stroke="#757575" d="M335.89,-391.98C365.92,-382.46 403.57,-366.09 428,-339.5 459.96,-304.72 425.35,-266.66 464,-239.5 558.18,-173.31 889.05,-171.6 982,-239.5 1059.53,-296.14 1066.33,-426.01 1065.79,-477.7"/>
<polygon fill="#757575" stroke="#757575" points="1062.29,-477.68 1065.58,-487.75 1069.29,-477.83 1062.29,-477.68"/>
</g>
<!-- ../lib/presence.ts&#45;&gt;../lib/mutations.ts -->
<g id="edge30" class="edge">
<title>../lib/presence.ts&#45;&gt;../lib/mutations.ts</title>
<path fill="none" stroke="#757575" d="M345.29,-408.81C371.21,-412.55 401.87,-418.88 428,-429.5 445.81,-436.74 446.21,-446.19 464,-453.5 484.53,-461.94 507.98,-467.68 529.46,-471.57"/>
<polygon fill="#757575" stroke="#757575" points="529.05,-475.05 539.49,-473.28 530.23,-468.15 529.05,-475.05"/>
</g>
<!-- ../lib/presence.ts&#45;&gt;../lib/supabaseClient.ts -->
<g id="edge31" class="edge">
<title>../lib/presence.ts&#45;&gt;../lib/supabaseClient.ts</title>
<path fill="none" stroke="#757575" d="M345.39,-407.53C458.49,-415.99 703.36,-436.7 734,-459.5 765.61,-483.02 750.61,-506.2 770,-540.5 797.81,-589.69 837.62,-642.89 859.36,-670.82"/>
<polygon fill="#757575" stroke="#757575" points="856.82,-673.25 865.75,-678.96 862.33,-668.93 856.82,-673.25"/>
</g>
<!-- ../lib/realtimeHooks.ts -->
<g id="node27" class="node">
<title>../lib/realtimeHooks.ts</title>
<path fill="none" stroke="#c6c5fe" d="M664.33,-971C664.33,-971 533.67,-971 533.67,-971 529.83,-971 526,-967.17 526,-963.33 526,-963.33 526,-955.67 526,-955.67 526,-951.83 529.83,-948 533.67,-948 533.67,-948 664.33,-948 664.33,-948 668.17,-948 672,-951.83 672,-955.67 672,-955.67 672,-963.33 672,-963.33 672,-967.17 668.17,-971 664.33,-971"/>
<text text-anchor="middle" x="599" y="-955.8" font-family="Arial" font-size="14.00" fill="#c6c5fe">../lib/realtimeHooks.ts</text>
</g>
<!-- ../lib/realtimeHooks.ts&#45;&gt;../lib/logger.ts -->
<g id="edge32" class="edge">
<title>../lib/realtimeHooks.ts&#45;&gt;../lib/logger.ts</title>
<path fill="none" stroke="#757575" d="M672.31,-957.68C770.48,-953.65 938.67,-940.76 982,-899.5 1037.57,-846.58 1058.5,-597.33 1063.64,-521.46"/>
<polygon fill="#757575" stroke="#757575" points="1067.16,-521.41 1064.32,-511.2 1060.17,-520.95 1067.16,-521.41"/>
</g>
<!-- ../lib/realtimeHooks.ts&#45;&gt;../lib/supabaseClient.ts -->
<g id="edge33" class="edge">
<title>../lib/realtimeHooks.ts&#45;&gt;../lib/supabaseClient.ts</title>
<path fill="none" stroke="#757575" d="M648.7,-947.92C677.7,-938.53 712.85,-922.33 734,-895.5 781.54,-835.19 719.06,-783.97 770,-726.5 777.84,-717.66 787.95,-710.98 798.79,-705.95"/>
<polygon fill="#757575" stroke="#757575" points="800.15,-709.17 808.04,-702.09 797.46,-702.71 800.15,-709.17"/>
</g>
<!-- ../lib/realtimeHooks.ts&#45;&gt;../lib/types.ts -->
<g id="edge34" class="edge">
<title>../lib/realtimeHooks.ts&#45;&gt;../lib/types.ts</title>
<path fill="none" stroke="#757575" d="M672.15,-965.71C765.32,-973.72 925.5,-987.5 1009.65,-994.74"/>
<polygon fill="#757575" stroke="#757575" points="1009.51,-998.24 1019.78,-995.61 1010.11,-991.27 1009.51,-998.24"/>
</g>
<!-- ../lib/sessionHooks.ts -->
<g id="node28" class="node">
<title>../lib/sessionHooks.ts</title>
<path fill="none" stroke="#c6c5fe" d="M662.83,-815C662.83,-815 535.17,-815 535.17,-815 531.33,-815 527.5,-811.17 527.5,-807.33 527.5,-807.33 527.5,-799.67 527.5,-799.67 527.5,-795.83 531.33,-792 535.17,-792 535.17,-792 662.83,-792 662.83,-792 666.67,-792 670.5,-795.83 670.5,-799.67 670.5,-799.67 670.5,-807.33 670.5,-807.33 670.5,-811.17 666.67,-815 662.83,-815"/>
<text text-anchor="middle" x="599" y="-799.8" font-family="Arial" font-size="14.00" fill="#c6c5fe">../lib/sessionHooks.ts</text>
</g>
<!-- ../lib/sessionHooks.ts&#45;&gt;../lib/logger.ts -->
<g id="edge36" class="edge">
<title>../lib/sessionHooks.ts&#45;&gt;../lib/logger.ts</title>
<path fill="none" stroke="#757575" d="M651.73,-815.02C731.99,-829.65 887.12,-844.57 982,-767.5 1058.78,-705.13 1065.98,-573.04 1065.67,-521.11"/>
<polygon fill="#757575" stroke="#757575" points="1069.17,-520.98 1065.5,-511.04 1062.17,-521.09 1069.17,-520.98"/>
</g>
<!-- ../lib/sessionHooks.ts&#45;&gt;../lib/supabaseClient.ts -->
<g id="edge37" class="edge">
<title>../lib/sessionHooks.ts&#45;&gt;../lib/supabaseClient.ts</title>
<path fill="none" stroke="#757575" d="M670.82,-804.12C692.49,-801.48 715.48,-795.58 734,-783.5 759.1,-767.13 746.49,-745.08 770,-726.5 781.55,-717.37 795.55,-710.49 809.51,-705.32"/>
<polygon fill="#757575" stroke="#757575" points="810.83,-708.57 819.15,-702.01 808.55,-701.95 810.83,-708.57"/>
</g>
<!-- ../lib/types/index.ts&#45;&gt;../lib/types/supabase.ts -->
<g id="edge39" class="edge">
<title>../lib/types/index.ts&#45;&gt;../lib/types/supabase.ts</title>
<path fill="none" stroke="#757575" d="M1223.92,-1067.27C1252.12,-1104.5 1339.59,-1219.95 1374.94,-1266.62"/>
<polygon fill="#757575" stroke="#757575" points="1372.27,-1268.89 1381.1,-1274.75 1377.85,-1264.67 1372.27,-1268.89"/>
</g>
<!-- ../lib/useSessionData.ts -->
<g id="node30" class="node">
<title>../lib/useSessionData.ts</title>
<path fill="none" stroke="#c6c5fe" d="M358.83,-495C358.83,-495 216.17,-495 216.17,-495 212.33,-495 208.5,-491.17 208.5,-487.33 208.5,-487.33 208.5,-479.67 208.5,-479.67 208.5,-475.83 212.33,-472 216.17,-472 216.17,-472 358.83,-472 358.83,-472 362.67,-472 366.5,-475.83 366.5,-479.67 366.5,-479.67 366.5,-487.33 366.5,-487.33 366.5,-491.17 362.67,-495 358.83,-495"/>
<text text-anchor="middle" x="287.5" y="-479.8" font-family="Arial" font-size="14.00" fill="#c6c5fe">../lib/useSessionData.ts</text>
</g>
<!-- ../lib/useSessionData.ts&#45;&gt;../lib/logger.ts -->
<g id="edge40" class="edge">
<title>../lib/useSessionData.ts&#45;&gt;../lib/logger.ts</title>
<path fill="none" stroke="#757575" d="M346.88,-471.89C375.23,-463.36 407.52,-448.85 428,-424.5 473.53,-370.38 408.62,-313.49 464,-269.5 509.07,-233.7 934.9,-236.42 982,-269.5 1051.31,-318.17 1063,-430.67 1064.78,-477.95"/>
<polygon fill="#757575" stroke="#757575" points="1061.29,-478.09 1065.05,-488 1068.28,-477.91 1061.29,-478.09"/>
</g>
<!-- ../lib/useSessionData.ts&#45;&gt;../lib/mutations.ts -->
<g id="edge41" class="edge">
<title>../lib/useSessionData.ts&#45;&gt;../lib/mutations.ts</title>
<path fill="none" stroke="#757575" d="M366.6,-482.49C416.76,-481.84 481.28,-481.01 529.45,-480.39"/>
<polygon fill="#757575" stroke="#757575" points="529.51,-483.89 539.47,-480.26 529.42,-476.89 529.51,-483.89"/>
</g>
<!-- ../lib/userSession.ts -->
<g id="node31" class="node">
<title>../lib/userSession.ts</title>
<path fill="none" stroke="#c6c5fe" d="M935.33,-1127C935.33,-1127 816.67,-1127 816.67,-1127 812.83,-1127 809,-1123.17 809,-1119.33 809,-1119.33 809,-1111.67 809,-1111.67 809,-1107.83 812.83,-1104 816.67,-1104 816.67,-1104 935.33,-1104 935.33,-1104 939.17,-1104 943,-1107.83 943,-1111.67 943,-1111.67 943,-1119.33 943,-1119.33 943,-1123.17 939.17,-1127 935.33,-1127"/>
<text text-anchor="middle" x="876" y="-1111.8" font-family="Arial" font-size="14.00" fill="#c6c5fe">../lib/userSession.ts</text>
</g>
<!-- ../lib/userSession.ts&#45;&gt;../lib/logger.ts -->
<g id="edge42" class="edge">
<title>../lib/userSession.ts&#45;&gt;../lib/logger.ts</title>
<path fill="none" stroke="#757575" d="M894.89,-1103.75C918.99,-1086.89 961.23,-1053.4 982,-1013.5 1028.04,-925.07 1056.36,-607.38 1063.32,-521.2"/>
<polygon fill="#757575" stroke="#757575" points="1066.82,-521.28 1064.13,-511.03 1059.84,-520.72 1066.82,-521.28"/>
</g>
<!-- ../lib/userSession.ts&#45;&gt;../lib/types.ts -->
<g id="edge43" class="edge">
<title>../lib/userSession.ts&#45;&gt;../lib/types.ts</title>
<path fill="none" stroke="#757575" d="M943.17,-1105.34C956.59,-1101.59 970.2,-1096.48 982,-1089.5 1011.8,-1071.87 1037.28,-1040.24 1051.87,-1019.56"/>
<polygon fill="#757575" stroke="#757575" points="1054.85,-1021.41 1057.62,-1011.18 1049.08,-1017.45 1054.85,-1021.41"/>
</g>
<!-- GameSetup.tsx -->
<g id="node32" class="node">
<title>GameSetup.tsx</title>
<path fill="none" stroke="#c6c5fe" d="M103.33,-375C103.33,-375 7.67,-375 7.67,-375 3.83,-375 0,-371.17 0,-367.33 0,-367.33 0,-359.67 0,-359.67 0,-355.83 3.83,-352 7.67,-352 7.67,-352 103.33,-352 103.33,-352 107.17,-352 111,-355.83 111,-359.67 111,-359.67 111,-367.33 111,-367.33 111,-371.17 107.17,-375 103.33,-375"/>
<text text-anchor="middle" x="55.5" y="-359.8" font-family="Arial" font-size="14.00" fill="#c6c5fe">GameSetup.tsx</text>
</g>
<!-- GameSetup.tsx&#45;&gt;../atoms/index.ts -->
<g id="edge44" class="edge">
<title>GameSetup.tsx&#45;&gt;../atoms/index.ts</title>
<path fill="none" stroke="#757575" d="M59.26,-375.19C67.87,-411.89 94.57,-528.15 111,-625.5 131.66,-747.92 82.51,-796.42 147,-902.5 170.36,-940.93 215.37,-967.99 247.96,-983.59"/>
<polygon fill="#757575" stroke="#757575" points="246.67,-986.85 257.21,-987.87 249.61,-980.5 246.67,-986.85"/>
</g>
<!-- GameSetup.tsx&#45;&gt;../lib/logger.ts -->
<g id="edge47" class="edge">
<title>GameSetup.tsx&#45;&gt;../lib/logger.ts</title>
<path fill="none" stroke="#757575" d="M61.77,-351.72C73.34,-327.32 103.46,-271.3 147,-244.5 255.16,-177.92 316,-252.39 428,-192.5 448.23,-181.68 442.86,-164.43 464,-155.5 570.04,-110.72 891.56,-84.29 982,-155.5 1033.55,-196.09 1056.86,-408.45 1063.17,-477.67"/>
<polygon fill="#757575" stroke="#757575" points="1059.7,-478.19 1064.06,-487.84 1066.67,-477.57 1059.7,-478.19"/>
</g>
<!-- GameSetup.tsx&#45;&gt;../lib/mutations.ts -->
<g id="edge48" class="edge">
<title>GameSetup.tsx&#45;&gt;../lib/mutations.ts</title>
<path fill="none" stroke="#757575" d="M69.47,-375.21C86.11,-389.49 116.47,-413.1 147,-424.5 181.96,-437.55 411.67,-461.36 529.11,-472.89"/>
<polygon fill="#757575" stroke="#757575" points="528.79,-476.38 539.08,-473.87 529.47,-469.41 528.79,-476.38"/>
</g>
<!-- GameSetup.tsx&#45;&gt;../components/Alert.tsx -->
<g id="edge45" class="edge">
<title>GameSetup.tsx&#45;&gt;../components/Alert.tsx</title>
<path fill="none" stroke="#757575" d="M59.13,-351.97C66.78,-321.32 92.02,-237.42 147,-197.5 162.38,-186.34 181.15,-179.54 199.88,-175.49"/>
<polygon fill="#757575" stroke="#757575" points="200.79,-178.88 209.96,-173.57 199.48,-172 200.79,-178.88"/>
</g>
<!-- GameSetup.tsx&#45;&gt;../components/LobbyStatus.tsx -->
<g id="edge46" class="edge">
<title>GameSetup.tsx&#45;&gt;../components/LobbyStatus.tsx</title>
<path fill="none" stroke="#757575" d="M63.68,-351.84C77.08,-331.36 108.08,-289.56 147,-273.5 291.74,-213.78 483.57,-276.93 562.14,-308.16"/>
<polygon fill="#757575" stroke="#757575" points="561,-311.47 571.58,-311.98 563.63,-304.98 561,-311.47"/>
</g>
<!-- GameSetup.tsx&#45;&gt;../lib/supabaseClient.ts -->
<g id="edge50" class="edge">
<title>GameSetup.tsx&#45;&gt;../lib/supabaseClient.ts</title>
<path fill="none" stroke="#757575" d="M111.12,-365.97C268,-373.28 710.22,-395.58 734,-415.5 778.32,-452.62 745.08,-488.33 770,-540.5 794.33,-591.45 835.45,-643.91 858.34,-671.26"/>
<polygon fill="#757575" stroke="#757575" points="855.69,-673.54 864.83,-678.91 861.03,-669.02 855.69,-673.54"/>
</g>
<!-- GameSetup.tsx&#45;&gt;../lib/types.ts -->
<g id="edge51" class="edge">
<title>GameSetup.tsx&#45;&gt;../lib/types.ts</title>
<path fill="none" stroke="#757575" d="M111.28,-362.49C183.76,-361.4 315.5,-360.19 428,-363.5 564.18,-367.5 602.05,-347.61 734,-381.5 852.22,-411.87 908.56,-402 982,-499.5 1040.27,-576.85 1059.7,-890.84 1064,-977.34"/>
<polygon fill="#757575" stroke="#757575" points="1060.52,-977.76 1064.49,-987.58 1067.51,-977.42 1060.52,-977.76"/>
</g>
<!-- GameSetup.tsx&#45;&gt;../lib/presence.ts -->
<g id="edge49" class="edge">
<title>GameSetup.tsx&#45;&gt;../lib/presence.ts</title>
<path fill="none" stroke="#757575" d="M111.01,-372.98C143.65,-378.66 185.39,-385.92 219.97,-391.93"/>
<polygon fill="#757575" stroke="#757575" points="219.53,-395.41 229.98,-393.67 220.73,-388.51 219.53,-395.41"/>
</g>
<!-- GameSetup.tsx&#45;&gt;../lib/useSessionData.ts -->
<g id="edge52" class="edge">
<title>GameSetup.tsx&#45;&gt;../lib/useSessionData.ts</title>
<path fill="none" stroke="#757575" d="M64.11,-375.27C77.94,-395.63 109.31,-437.19 147,-457.5 162.74,-465.98 180.76,-471.74 198.51,-475.65"/>
<polygon fill="#757575" stroke="#757575" points="197.83,-479.08 208.33,-477.63 199.22,-472.22 197.83,-479.08"/>
</g>
<!-- Homepage.tsx -->
<g id="node33" class="node">
<title>Homepage.tsx</title>
<path fill="none" stroke="#c6c5fe" d="M99.83,-103C99.83,-103 11.17,-103 11.17,-103 7.33,-103 3.5,-99.17 3.5,-95.33 3.5,-95.33 3.5,-87.67 3.5,-87.67 3.5,-83.83 7.33,-80 11.17,-80 11.17,-80 99.83,-80 99.83,-80 103.67,-80 107.5,-83.83 107.5,-87.67 107.5,-87.67 107.5,-95.33 107.5,-95.33 107.5,-99.17 103.67,-103 99.83,-103"/>
<text text-anchor="middle" x="55.5" y="-87.8" font-family="Arial" font-size="14.00" fill="#c6c5fe">Homepage.tsx</text>
</g>
<!-- Homepage.tsx&#45;&gt;../components/ActiveGames.tsx -->
<g id="edge53" class="edge">
<title>Homepage.tsx&#45;&gt;../components/ActiveGames.tsx</title>
<path fill="none" stroke="#757575" d="M107.54,-91.5C126.91,-91.5 149.83,-91.5 172.68,-91.5"/>
<polygon fill="#757575" stroke="#757575" points="172.81,-95 182.81,-91.5 172.81,-88 172.81,-95"/>
</g>
<!-- Homepage.tsx&#45;&gt;../lib/logger.ts -->
<g id="edge56" class="edge">
<title>Homepage.tsx&#45;&gt;../lib/logger.ts</title>
<path fill="none" stroke="#757575" d="M100.39,-79.96C115.1,-76.59 131.66,-73.32 147,-71.5 285.85,-55.01 973.83,-58.75 982,-65.5 1046.52,-118.85 1061.36,-396.71 1064.33,-477.47"/>
<polygon fill="#757575" stroke="#757575" points="1060.84,-478.03 1064.68,-487.9 1067.84,-477.79 1060.84,-478.03"/>
</g>
<!-- Homepage.tsx&#45;&gt;../lib/mutations.ts -->
<g id="edge57" class="edge">
<title>Homepage.tsx&#45;&gt;../lib/mutations.ts</title>
<path fill="none" stroke="#757575" d="M102.84,-103.1C116.96,-106.4 132.57,-109.83 147,-112.5 208.99,-123.97 382.4,-107.97 428,-151.5 491.12,-211.75 423.47,-267.23 464,-344.5 490.5,-395.02 542.26,-438.84 573.11,-461.99"/>
<polygon fill="#757575" stroke="#757575" points="571.1,-464.85 581.23,-467.96 575.25,-459.21 571.1,-464.85"/>
</g>
<!-- Homepage.tsx&#45;&gt;../components/Alert.tsx -->
<g id="edge54" class="edge">
<title>Homepage.tsx&#45;&gt;../components/Alert.tsx</title>
<path fill="none" stroke="#757575" d="M71.97,-103.08C89.33,-115.48 118.76,-134.83 147,-145.5 163.72,-151.82 182.17,-156.64 200.03,-160.31"/>
<polygon fill="#757575" stroke="#757575" points="199.39,-163.75 209.87,-162.23 200.73,-156.88 199.39,-163.75"/>
</g>
<!-- Homepage.tsx&#45;&gt;../components/PasswordModal.tsx -->
<g id="edge55" class="edge">
<title>Homepage.tsx&#45;&gt;../components/PasswordModal.tsx</title>
<path fill="none" stroke="#757575" d="M71.97,-79.92C89.33,-67.52 118.76,-48.17 147,-37.5 160.2,-32.51 174.48,-28.46 188.69,-25.16"/>
<polygon fill="#757575" stroke="#757575" points="189.49,-28.57 198.51,-23 187.99,-21.74 189.49,-28.57"/>
</g>
<!-- Join.tsx -->
<g id="node34" class="node">
<title>Join.tsx</title>
<path fill="none" stroke="#c6c5fe" d="M78.83,-657C78.83,-657 32.17,-657 32.17,-657 28.33,-657 24.5,-653.17 24.5,-649.33 24.5,-649.33 24.5,-641.67 24.5,-641.67 24.5,-637.83 28.33,-634 32.17,-634 32.17,-634 78.83,-634 78.83,-634 82.67,-634 86.5,-637.83 86.5,-641.67 86.5,-641.67 86.5,-649.33 86.5,-649.33 86.5,-653.17 82.67,-657 78.83,-657"/>
<text text-anchor="middle" x="55.5" y="-641.8" font-family="Arial" font-size="14.00" fill="#c6c5fe">Join.tsx</text>
</g>
<!-- Join.tsx&#45;&gt;../lib/logger.ts -->
<g id="edge62" class="edge">
<title>Join.tsx&#45;&gt;../lib/logger.ts</title>
<path fill="none" stroke="#757575" d="M57.53,-633.83C61.6,-594.15 79.78,-462.47 147,-383.5 238.89,-275.53 320.5,-324.94 428,-232.5 448.22,-215.11 440.15,-196.43 464,-184.5 515.48,-158.76 936.53,-151.22 982,-186.5 1028.93,-222.91 1054.94,-412.47 1062.59,-477.55"/>
<polygon fill="#757575" stroke="#757575" points="1059.15,-478.32 1063.77,-487.86 1066.11,-477.53 1059.15,-478.32"/>
</g>
<!-- Join.tsx&#45;&gt;../lib/mutations.ts -->
<g id="edge63" class="edge">
<title>Join.tsx&#45;&gt;../lib/mutations.ts</title>
<path fill="none" stroke="#757575" d="M62.93,-633.93C75.74,-612.09 106.72,-565.06 147,-543.5 258.16,-484 303.18,-522.34 428,-504.5 461.3,-499.74 498.24,-494.32 529.16,-489.75"/>
<polygon fill="#757575" stroke="#757575" points="530.02,-493.16 539.4,-488.24 529,-486.24 530.02,-493.16"/>
</g>
<!-- Join.tsx&#45;&gt;../components/Alert.tsx -->
<g id="edge58" class="edge">
<title>Join.tsx&#45;&gt;../components/Alert.tsx</title>
<path fill="none" stroke="#757575" d="M57.5,-633.72C61.74,-588.86 81.16,-425.41 147,-311.5 176.98,-259.64 230.95,-213.4 262.24,-189.24"/>
<polygon fill="#757575" stroke="#757575" points="264.58,-191.85 270.43,-183.02 260.35,-186.28 264.58,-191.85"/>
</g>
<!-- Join.tsx&#45;&gt;../lib/supabaseClient.ts -->
<g id="edge64" class="edge">
<title>Join.tsx&#45;&gt;../lib/supabaseClient.ts</title>
<path fill="none" stroke="#757575" d="M86.91,-653.45C104.39,-657.8 126.82,-662.99 147,-666.5 404.54,-711.27 472.87,-715.51 734,-703.5 752.03,-702.67 771.31,-701.25 789.64,-699.64"/>
<polygon fill="#757575" stroke="#757575" points="790.07,-703.12 799.72,-698.73 789.44,-696.14 790.07,-703.12"/>
</g>
<!-- Join.tsx&#45;&gt;../components/OptimizedFlagSelector.tsx -->
<g id="edge59" class="edge">
<title>Join.tsx&#45;&gt;../components/OptimizedFlagSelector.tsx</title>
<path fill="none" stroke="#757575" d="M74.54,-657.05C92.58,-668.41 121.25,-685.96 147,-699.5 181.07,-717.41 221.11,-735.49 249.54,-747.84"/>
<polygon fill="#757575" stroke="#757575" points="248.51,-751.21 259.08,-751.96 251.29,-744.78 248.51,-751.21"/>
</g>
<!-- Join.tsx&#45;&gt;../components/PresetConfirmationModal.tsx -->
<g id="edge60" class="edge">
<title>Join.tsx&#45;&gt;../components/PresetConfirmationModal.tsx</title>
<path fill="none" stroke="#757575" d="M69.53,-633.93C86.22,-619.8 116.63,-596.32 147,-584.5 153.67,-581.9 160.63,-579.63 167.74,-577.63"/>
<polygon fill="#757575" stroke="#757575" points="168.71,-580.99 177.5,-575.08 166.94,-574.22 168.71,-580.99"/>
</g>
<!-- Join.tsx&#45;&gt;../components/ReactBits/index.ts -->
<g id="edge61" class="edge">
<title>Join.tsx&#45;&gt;../components/ReactBits/index.ts</title>
<path fill="none" stroke="#757575" d="M86.57,-645.5C108.32,-645.5 139.24,-645.5 170.28,-645.5"/>
<polygon fill="#757575" stroke="#757575" points="170.35,-649 180.35,-645.5 170.35,-642 170.35,-649"/>
</g>
<!-- Join.tsx&#45;&gt;../lib/types.ts -->
<g id="edge65" class="edge">
<title>Join.tsx&#45;&gt;../lib/types.ts</title>
<path fill="none" stroke="#757575" d="M56.58,-657.11C57.55,-698.31 66.83,-838.39 147,-902.5 245.21,-981.04 328.74,-858.31 428,-935.5 463.31,-962.96 428.03,-1002.9 464,-1029.5 556.63,-1098 871.14,-1081.84 982,-1050.5 1004.79,-1044.06 1027.49,-1029.4 1043.37,-1017.44"/>
<polygon fill="#757575" stroke="#757575" points="1045.72,-1020.05 1051.45,-1011.15 1041.42,-1014.53 1045.72,-1020.05"/>
</g>
<!-- Join.tsx&#45;&gt;../lib/userSession.ts -->
<g id="edge66" class="edge">
<title>Join.tsx&#45;&gt;../lib/userSession.ts</title>
<path fill="none" stroke="#757575" d="M56.14,-657.19C55.49,-701.46 59.54,-860.05 147,-935.5 242.72,-1018.07 331.72,-897.59 428,-979.5 467.18,-1012.83 423.33,-1058.01 464,-1089.5 568.57,-1170.47 736.61,-1148 821.8,-1129.3"/>
<polygon fill="#757575" stroke="#757575" points="822.79,-1132.67 831.77,-1127.05 821.24,-1125.84 822.79,-1132.67"/>
</g>
<!-- Lobby.tsx -->
<g id="node35" class="node">
<title>Lobby.tsx</title>
<path fill="none" stroke="#c6c5fe" d="M84.83,-1070C84.83,-1070 26.17,-1070 26.17,-1070 22.33,-1070 18.5,-1066.17 18.5,-1062.33 18.5,-1062.33 18.5,-1054.67 18.5,-1054.67 18.5,-1050.83 22.33,-1047 26.17,-1047 26.17,-1047 84.83,-1047 84.83,-1047 88.67,-1047 92.5,-1050.83 92.5,-1054.67 92.5,-1054.67 92.5,-1062.33 92.5,-1062.33 92.5,-1066.17 88.67,-1070 84.83,-1070"/>
<text text-anchor="middle" x="55.5" y="-1054.8" font-family="Arial" font-size="14.00" fill="#c6c5fe">Lobby.tsx</text>
</g>
<!-- Lobby.tsx&#45;&gt;../atoms/index.ts -->
<g id="edge67" class="edge">
<title>Lobby.tsx&#45;&gt;../atoms/index.ts</title>
<path fill="none" stroke="#757575" d="M84.64,-1046.87C102.31,-1039.92 125.71,-1031.32 147,-1025.5 170.29,-1019.13 196.19,-1013.83 219.29,-1009.71"/>
<polygon fill="#757575" stroke="#757575" points="220.09,-1013.12 229.34,-1007.96 218.89,-1006.23 220.09,-1013.12"/>
</g>
<!-- Lobby.tsx&#45;&gt;../lib/types/supabase.ts -->
<g id="edge76" class="edge">
<title>Lobby.tsx&#45;&gt;../lib/types/supabase.ts</title>
<path fill="none" stroke="#757575" d="M57,-1070.06C59.36,-1109.86 72.71,-1242.47 147,-1309.5 300.34,-1447.86 391.47,-1421.5 598,-1421.5 598,-1421.5 598,-1421.5 1067,-1421.5 1187.65,-1421.5 1315.41,-1340.32 1366.71,-1303.86"/>
<polygon fill="#757575" stroke="#757575" points="1368.76,-1306.7 1374.82,-1298.01 1364.67,-1301.02 1368.76,-1306.7"/>
</g>
<!-- Lobby.tsx&#45;&gt;../lib/logger.ts -->
<g id="edge71" class="edge">
<title>Lobby.tsx&#45;&gt;../lib/logger.ts</title>
<path fill="none" stroke="#757575" d="M92.63,-1059.47C247.8,-1062.82 855.58,-1067.41 982,-938.5 1041.27,-878.06 1059.81,-601.56 1063.98,-521.36"/>
<polygon fill="#757575" stroke="#757575" points="1067.5,-521.17 1064.5,-511 1060.51,-520.82 1067.5,-521.17"/>
</g>
<!-- Lobby.tsx&#45;&gt;../lib/mutations.ts -->
<g id="edge72" class="edge">
<title>Lobby.tsx&#45;&gt;../lib/mutations.ts</title>
<path fill="none" stroke="#757575" d="M56.08,-1046.78C55.12,-1000.88 57.94,-831.47 147,-743.5 239.13,-652.5 336.03,-757.66 428,-666.5 469.67,-625.2 425.62,-583.88 464,-539.5 482.85,-517.7 511.19,-503.46 536.95,-494.34"/>
<polygon fill="#757575" stroke="#757575" points="538.3,-497.58 546.68,-491.09 536.08,-490.94 538.3,-497.58"/>
</g>
<!-- Lobby.tsx&#45;&gt;../components/Flag.tsx -->
<g id="edge68" class="edge">
<title>Lobby.tsx&#45;&gt;../components/Flag.tsx</title>
<path fill="none" stroke="#757575" d="M56.88,-1046.77C58.87,-1007.06 71.16,-876.87 147,-817.5 196.51,-778.74 365.6,-792.2 428,-784.5 455.37,-781.12 485.2,-777.31 512.12,-773.81"/>
<polygon fill="#757575" stroke="#757575" points="512.82,-777.25 522.28,-772.49 511.92,-770.31 512.82,-777.25"/>
</g>
<!-- Lobby.tsx&#45;&gt;../components/LobbyLogo.tsx -->
<g id="edge69" class="edge">
<title>Lobby.tsx&#45;&gt;../components/LobbyLogo.tsx</title>
<path fill="none" stroke="#757575" d="M84.64,-1070.13C102.31,-1077.08 125.71,-1085.68 147,-1091.5 164.64,-1096.33 183.79,-1100.54 202.08,-1104.09"/>
<polygon fill="#757575" stroke="#757575" points="201.66,-1107.57 212.14,-1105.99 202.96,-1100.69 201.66,-1107.57"/>
</g>
<!-- Lobby.tsx&#45;&gt;../lib/supabaseClient.ts -->
<g id="edge74" class="edge">
<title>Lobby.tsx&#45;&gt;../lib/supabaseClient.ts</title>
<path fill="none" stroke="#757575" d="M92.59,-1059.95C176.07,-1062.53 379.1,-1064.05 428,-1020.5 483.4,-971.15 409.09,-907.39 464,-857.5 553.48,-776.2 639.26,-899.59 734,-824.5 770.37,-795.68 736.83,-758.95 770,-726.5 779.13,-717.57 790.57,-710.85 802.51,-705.79"/>
<polygon fill="#757575" stroke="#757575" points="804.08,-708.94 812.16,-702.08 801.57,-702.4 804.08,-708.94"/>
</g>
<!-- Lobby.tsx&#45;&gt;../components/VideoCall.tsx -->
<g id="edge70" class="edge">
<title>Lobby.tsx&#45;&gt;../components/VideoCall.tsx</title>
<path fill="none" stroke="#757575" d="M62.96,-1070.06C76.06,-1092.53 107.85,-1142.43 147,-1171.5 172.29,-1190.27 204.73,-1203.79 231.97,-1212.84"/>
<polygon fill="#757575" stroke="#757575" points="231.15,-1216.25 241.75,-1215.97 233.29,-1209.58 231.15,-1216.25"/>
</g>
<!-- Lobby.tsx&#45;&gt;../lib/types.ts -->
<g id="edge75" class="edge">
<title>Lobby.tsx&#45;&gt;../lib/types.ts</title>
<path fill="none" stroke="#757575" d="M58.33,-1070.16C64.26,-1103.81 86.23,-1201.66 147,-1248.5 294.33,-1362.06 834.57,-1420.93 982,-1307.5 1028.27,-1271.9 1054.62,-1086.02 1062.48,-1021.55"/>
<polygon fill="#757575" stroke="#757575" points="1065.99,-1021.65 1063.7,-1011.31 1059.04,-1020.82 1065.99,-1021.65"/>
</g>
<!-- Lobby.tsx&#45;&gt;../lib/sessionHooks.ts -->
<g id="edge73" class="edge">
<title>Lobby.tsx&#45;&gt;../lib/sessionHooks.ts</title>
<path fill="none" stroke="#757575" d="M57.94,-1046.99C62.93,-1012.36 82.87,-908.66 147,-861.5 161.73,-850.67 391.26,-825.15 517.04,-811.86"/>
<polygon fill="#757575" stroke="#757575" points="517.45,-815.34 527.02,-810.81 516.71,-808.38 517.45,-815.34"/>
</g>
<!-- Lobby.tsx&#45;&gt;../lib/useSessionData.ts -->
<g id="edge77" class="edge">
<title>Lobby.tsx&#45;&gt;../lib/useSessionData.ts</title>
<path fill="none" stroke="#757575" d="M57.88,-1046.86C66.55,-974.21 114.33,-584.79 147,-543.5 164.55,-521.32 191.89,-507.19 217.74,-498.26"/>
<polygon fill="#757575" stroke="#757575" points="219.11,-501.49 227.55,-495.09 216.95,-494.83 219.11,-501.49"/>
</g>
<!-- Lobby.tsx&#45;&gt;../lib/userSession.ts -->
<g id="edge78" class="edge">
<title>Lobby.tsx&#45;&gt;../lib/userSession.ts</title>
<path fill="none" stroke="#757575" d="M64.92,-1070.08C79.28,-1088.72 110.52,-1124.69 147,-1138.5 387.4,-1229.52 705.06,-1161.48 825.69,-1129.6"/>
<polygon fill="#757575" stroke="#757575" points="826.63,-1132.97 835.39,-1127 824.82,-1126.21 826.63,-1132.97"/>
</g>
<!-- Quiz.tsx -->
<g id="node36" class="node">
<title>Quiz.tsx</title>
<path fill="none" stroke="#c6c5fe" d="M312.83,-893C312.83,-893 262.17,-893 262.17,-893 258.33,-893 254.5,-889.17 254.5,-885.33 254.5,-885.33 254.5,-877.67 254.5,-877.67 254.5,-873.83 258.33,-870 262.17,-870 262.17,-870 312.83,-870 312.83,-870 316.67,-870 320.5,-873.83 320.5,-877.67 320.5,-877.67 320.5,-885.33 320.5,-885.33 320.5,-889.17 316.67,-893 312.83,-893"/>
<text text-anchor="middle" x="287.5" y="-877.8" font-family="Arial" font-size="14.00" fill="#c6c5fe">Quiz.tsx</text>
</g>
<!-- Quiz.tsx&#45;&gt;../lib/logger.ts -->
<g id="edge79" class="edge">
<title>Quiz.tsx&#45;&gt;../lib/logger.ts</title>
<path fill="none" stroke="#757575" d="M320.61,-882.84C443.34,-887.27 880.92,-896.68 982,-810.5 1026.83,-772.28 1054.12,-586.06 1062.35,-521.55"/>
<polygon fill="#757575" stroke="#757575" points="1065.86,-521.66 1063.62,-511.31 1058.91,-520.8 1065.86,-521.66"/>
</g>
<!-- Quiz.tsx&#45;&gt;../lib/mutations.ts -->
<g id="edge80" class="edge">
<title>Quiz.tsx&#45;&gt;../lib/mutations.ts</title>
<path fill="none" stroke="#757575" d="M317.37,-869.93C349.98,-855.24 401.91,-826.63 428,-784.5 485.95,-690.94 397.58,-627.26 464,-539.5 480.78,-517.33 507.58,-503.16 532.82,-494.2"/>
<polygon fill="#757575" stroke="#757575" points="534.01,-497.49 542.4,-491.01 531.8,-490.85 534.01,-497.49"/>
</g>
<!-- Quiz.tsx&#45;&gt;../lib/types.ts -->
<g id="edge83" class="edge">
<title>Quiz.tsx&#45;&gt;../lib/types.ts</title>
<path fill="none" stroke="#757575" d="M320.54,-879.68C351.11,-879.6 396.98,-883.99 428,-907.5 456.83,-929.35 433.79,-960.6 464,-980.5 638.37,-1095.35 907.12,-1042.34 1016.35,-1013.65"/>
<polygon fill="#757575" stroke="#757575" points="1017.35,-1017.01 1026.1,-1011.04 1015.54,-1010.25 1017.35,-1017.01"/>
</g>
<!-- Quiz.tsx&#45;&gt;../lib/realtimeHooks.ts -->
<g id="edge81" class="edge">
<title>Quiz.tsx&#45;&gt;../lib/realtimeHooks.ts</title>
<path fill="none" stroke="#757575" d="M320.68,-883.48C349.73,-886.18 393.13,-892.56 428,-907.5 446.14,-915.27 445.89,-925.66 464,-933.5 480.09,-940.47 498.07,-945.58 515.5,-949.32"/>
<polygon fill="#757575" stroke="#757575" points="515.19,-952.83 525.69,-951.37 516.58,-945.97 515.19,-952.83"/>
</g>
<!-- Quiz.tsx&#45;&gt;../lib/sessionHooks.ts -->
<g id="edge82" class="edge">
<title>Quiz.tsx&#45;&gt;../lib/sessionHooks.ts</title>
<path fill="none" stroke="#757575" d="M320.68,-879.52C349.73,-876.82 393.13,-870.44 428,-855.5 446.14,-847.73 445.89,-837.34 464,-829.5 480.7,-822.27 499.43,-817.04 517.48,-813.26"/>
<polygon fill="#757575" stroke="#757575" points="518.29,-816.67 527.42,-811.3 516.93,-809.8 518.29,-816.67"/>
</g>
<!-- Results.tsx -->
<g id="node37" class="node">
<title>Results.tsx</title>
<path fill="none" stroke="#c6c5fe" d="M321.33,-616C321.33,-616 253.67,-616 253.67,-616 249.83,-616 246,-612.17 246,-608.33 246,-608.33 246,-600.67 246,-600.67 246,-596.83 249.83,-593 253.67,-593 253.67,-593 321.33,-593 321.33,-593 325.17,-593 329,-596.83 329,-600.67 329,-600.67 329,-608.33 329,-608.33 329,-612.17 325.17,-616 321.33,-616"/>
<text text-anchor="middle" x="287.5" y="-600.8" font-family="Arial" font-size="14.00" fill="#c6c5fe">Results.tsx</text>
</g>
<!-- Results.tsx&#45;&gt;../lib/logger.ts -->
<g id="edge84" class="edge">
<title>Results.tsx&#45;&gt;../lib/logger.ts</title>
<path fill="none" stroke="#757575" d="M329.11,-610.64C360.51,-612.91 402.76,-610.12 428,-584.5 516.36,-494.8 369.48,-386.68 464,-303.5 507.21,-265.47 934.25,-278.35 982,-310.5 1039.46,-349.19 1057.47,-437.19 1062.84,-477.99"/>
<polygon fill="#757575" stroke="#757575" points="1059.37,-478.43 1064.02,-487.95 1066.32,-477.61 1059.37,-478.43"/>
</g>
<!-- Results.tsx&#45;&gt;../lib/mutations.ts -->
<g id="edge85" class="edge">
<title>Results.tsx&#45;&gt;../lib/mutations.ts</title>
<path fill="none" stroke="#757575" d="M329.05,-608.49C359.19,-609.31 399.8,-605.62 428,-584.5 458.88,-561.37 433.69,-529.38 464,-505.5 482.4,-491 506.58,-483.82 529.32,-480.47"/>
<polygon fill="#757575" stroke="#757575" points="529.81,-483.94 539.3,-479.22 528.94,-476.99 529.81,-483.94"/>
</g>
<!-- Results.tsx&#45;&gt;../lib/supabaseClient.ts -->
<g id="edge87" class="edge">
<title>Results.tsx&#45;&gt;../lib/supabaseClient.ts</title>
<path fill="none" stroke="#757575" d="M329.22,-606.39C358.49,-605.98 397.94,-601.68 428,-584.5 450.24,-571.79 440.92,-550.6 464,-539.5 518.08,-513.51 684.63,-505.41 734,-539.5 771.16,-565.15 740.18,-600.6 770,-634.5 786.04,-652.73 809.47,-666.02 830.14,-675.07"/>
<polygon fill="#757575" stroke="#757575" points="828.82,-678.31 839.4,-678.93 831.52,-671.85 828.82,-678.31"/>
</g>
<!-- Results.tsx&#45;&gt;../lib/sessionHooks.ts -->
<g id="edge86" class="edge">
<title>Results.tsx&#45;&gt;../lib/sessionHooks.ts</title>
<path fill="none" stroke="#757575" d="M329.12,-599.33C360.1,-597.77 401.79,-601.18 428,-625.5 480.79,-674.49 411.18,-734.54 464,-783.5 478.4,-796.84 497.65,-803.61 517.06,-806.68"/>
<polygon fill="#757575" stroke="#757575" points="516.84,-810.18 527.2,-807.96 517.71,-803.23 516.84,-810.18"/>
</g>
</g>
</svg>
