<?xml version="1.0" encoding="UTF-8" standalone="no"?>
<!DOCTYPE svg PUBLIC "-//W3C//DTD SVG 1.1//EN"
 "http://www.w3.org/Graphics/SVG/1.1/DTD/svg11.dtd">
<!-- Generated by graphviz version 2.43.0 (0)
 -->
<!-- Title: G Pages: 1 -->
<svg width="487pt" height="322pt"
 viewBox="0.00 0.00 487.30 321.57" xmlns="http://www.w3.org/2000/svg" xmlns:xlink="http://www.w3.org/1999/xlink">
<g id="graph0" class="graph" transform="scale(1 1) rotate(0) translate(21.6 299.97)">
<title>G</title>
<polygon fill="#111111" stroke="transparent" points="-21.6,21.6 -21.6,-299.97 465.7,-299.97 465.7,21.6 -21.6,21.6"/>
<!-- App.tsx -->
<g id="node1" class="node">
<title>App.tsx</title>
<path fill="none" stroke="#c6c5fe" d="M145.71,-139.57C145.71,-139.57 99.05,-139.57 99.05,-139.57 95.21,-139.57 91.38,-135.74 91.38,-131.9 91.38,-131.9 91.38,-124.24 91.38,-124.24 91.38,-120.4 95.21,-116.57 99.05,-116.57 99.05,-116.57 145.71,-116.57 145.71,-116.57 149.55,-116.57 153.38,-120.4 153.38,-124.24 153.38,-124.24 153.38,-131.9 153.38,-131.9 153.38,-135.74 149.55,-139.57 145.71,-139.57"/>
<text text-anchor="middle" x="122.38" y="-124.37" font-family="Arial" font-size="14.00" fill="#c6c5fe">App.tsx</text>
</g>
<!-- pages/GameSetup.tsx -->
<g id="node2" class="node">
<title>pages/GameSetup.tsx</title>
<path fill="none" stroke="#c6c5fe" d="M234.76,-97.1C234.76,-97.1 98.09,-97.1 98.09,-97.1 94.26,-97.1 90.42,-93.26 90.42,-89.43 90.42,-89.43 90.42,-81.76 90.42,-81.76 90.42,-77.93 94.26,-74.1 98.09,-74.1 98.09,-74.1 234.76,-74.1 234.76,-74.1 238.59,-74.1 242.42,-77.93 242.42,-81.76 242.42,-81.76 242.42,-89.43 242.42,-89.43 242.42,-93.26 238.59,-97.1 234.76,-97.1"/>
<text text-anchor="middle" x="166.42" y="-81.9" font-family="Arial" font-size="14.00" fill="#c6c5fe">pages/GameSetup.tsx</text>
</g>
<!-- App.tsx&#45;&gt;pages/GameSetup.tsx -->
<g id="edge1" class="edge">
<title>App.tsx&#45;&gt;pages/GameSetup.tsx</title>
<path fill="none" stroke="#757575" d="M134.42,-116.46C138.3,-112.72 142.71,-108.46 146.99,-104.34"/>
<polygon fill="#757575" stroke="#757575" points="149.63,-106.65 154.4,-97.19 144.77,-101.61 149.63,-106.65"/>
</g>
<!-- pages/Homepage.tsx -->
<g id="node3" class="node">
<title>pages/Homepage.tsx</title>
<path fill="none" stroke="#c6c5fe" d="M227,-137.11C227,-137.11 97.33,-137.11 97.33,-137.11 93.5,-137.11 89.66,-133.28 89.66,-129.45 89.66,-129.45 89.66,-121.78 89.66,-121.78 89.66,-117.95 93.5,-114.11 97.33,-114.11 97.33,-114.11 227,-114.11 227,-114.11 230.83,-114.11 234.66,-117.95 234.66,-121.78 234.66,-121.78 234.66,-129.45 234.66,-129.45 234.66,-133.28 230.83,-137.11 227,-137.11"/>
<text text-anchor="middle" x="162.16" y="-121.91" font-family="Arial" font-size="14.00" fill="#c6c5fe">pages/Homepage.tsx</text>
</g>
<!-- App.tsx&#45;&gt;pages/Homepage.tsx -->
<g id="edge2" class="edge">
<title>App.tsx&#45;&gt;pages/Homepage.tsx</title>
<path fill="none" stroke="#757575" d="M153.73,-126.13C153.8,-126.13 153.88,-126.12 153.96,-126.12"/>
<polygon fill="#757575" stroke="#757575" points="144.42,-130.22 154.19,-126.11 143.99,-123.23 144.42,-130.22"/>
</g>
<!-- pages/Join.tsx -->
<g id="node4" class="node">
<title>pages/Join.tsx</title>
<path fill="none" stroke="#c6c5fe" d="M210.74,-113.1C210.74,-113.1 123.08,-113.1 123.08,-113.1 119.24,-113.1 115.41,-109.27 115.41,-105.44 115.41,-105.44 115.41,-97.77 115.41,-97.77 115.41,-93.94 119.24,-90.1 123.08,-90.1 123.08,-90.1 210.74,-90.1 210.74,-90.1 214.58,-90.1 218.41,-93.94 218.41,-97.77 218.41,-97.77 218.41,-105.44 218.41,-105.44 218.41,-109.27 214.58,-113.1 210.74,-113.1"/>
<text text-anchor="middle" x="166.91" y="-97.9" font-family="Arial" font-size="14.00" fill="#c6c5fe">pages/Join.tsx</text>
</g>
<!-- App.tsx&#45;&gt;pages/Join.tsx -->
<g id="edge3" class="edge">
<title>App.tsx&#45;&gt;pages/Join.tsx</title>
<path fill="none" stroke="#757575" d="M141.78,-116.54C141.9,-116.47 142.02,-116.4 142.13,-116.33"/>
<polygon fill="#757575" stroke="#757575" points="140.63,-121.3 147.44,-113.18 137.05,-115.28 140.63,-121.3"/>
</g>
<!-- pages/Lobby.tsx -->
<g id="node5" class="node">
<title>pages/Lobby.tsx</title>
<path fill="none" stroke="#c6c5fe" d="M149.2,-129.69C149.2,-129.69 50.53,-129.69 50.53,-129.69 46.7,-129.69 42.87,-125.86 42.87,-122.02 42.87,-122.02 42.87,-114.36 42.87,-114.36 42.87,-110.52 46.7,-106.69 50.53,-106.69 50.53,-106.69 149.2,-106.69 149.2,-106.69 153.03,-106.69 156.87,-110.52 156.87,-114.36 156.87,-114.36 156.87,-122.02 156.87,-122.02 156.87,-125.86 153.03,-129.69 149.2,-129.69"/>
<text text-anchor="middle" x="99.87" y="-114.49" font-family="Arial" font-size="14.00" fill="#c6c5fe">pages/Lobby.tsx</text>
</g>
<!-- App.tsx&#45;&gt;pages/Lobby.tsx -->
<g id="edge4" class="edge">
<title>App.tsx&#45;&gt;pages/Lobby.tsx</title>
<path fill="none" stroke="#757575" d="M99.93,-118.22C99.92,-118.21 99.91,-118.21 99.9,-118.2"/>
<polygon fill="#757575" stroke="#757575" points="110.46,-119.04 99.88,-118.2 107.63,-125.45 110.46,-119.04"/>
</g>
<!-- pages/Quiz.tsx -->
<g id="node6" class="node">
<title>pages/Quiz.tsx</title>
<path fill="none" stroke="#c6c5fe" d="M176.22,-144.3C176.22,-144.3 84.55,-144.3 84.55,-144.3 80.72,-144.3 76.88,-140.47 76.88,-136.63 76.88,-136.63 76.88,-128.97 76.88,-128.97 76.88,-125.13 80.72,-121.3 84.55,-121.3 84.55,-121.3 176.22,-121.3 176.22,-121.3 180.05,-121.3 183.88,-125.13 183.88,-128.97 183.88,-128.97 183.88,-136.63 183.88,-136.63 183.88,-140.47 180.05,-144.3 176.22,-144.3"/>
<text text-anchor="middle" x="130.38" y="-129.1" font-family="Arial" font-size="14.00" fill="#c6c5fe">pages/Quiz.tsx</text>
</g>
<!-- App.tsx&#45;&gt;pages/Quiz.tsx -->
<g id="edge5" class="edge">
<title>App.tsx&#45;&gt;pages/Quiz.tsx</title>
<path fill="none" stroke="#757575" d="M130.29,-132.75C130.31,-132.76 130.32,-132.76 130.33,-132.77"/>
<polygon fill="#757575" stroke="#757575" points="119.96,-130.7 130.36,-132.79 123.54,-124.67 119.96,-130.7"/>
</g>
<!-- pages/Results.tsx -->
<g id="node7" class="node">
<title>pages/Results.tsx</title>
<path fill="none" stroke="#c6c5fe" d="M168.21,-139.84C168.21,-139.84 60.54,-139.84 60.54,-139.84 56.71,-139.84 52.87,-136.01 52.87,-132.17 52.87,-132.17 52.87,-124.51 52.87,-124.51 52.87,-120.67 56.71,-116.84 60.54,-116.84 60.54,-116.84 168.21,-116.84 168.21,-116.84 172.04,-116.84 175.87,-120.67 175.87,-124.51 175.87,-124.51 175.87,-132.17 175.87,-132.17 175.87,-136.01 172.04,-139.84 168.21,-139.84"/>
<text text-anchor="middle" x="114.37" y="-124.64" font-family="Arial" font-size="14.00" fill="#c6c5fe">pages/Results.tsx</text>
</g>
<!-- App.tsx&#45;&gt;pages/Results.tsx -->
<g id="edge6" class="edge">
<title>App.tsx&#45;&gt;pages/Results.tsx</title>
<path fill="none" stroke="#757575" d="M114.46,-128.34C114.45,-128.34 114.44,-128.34 114.42,-128.34"/>
<polygon fill="#757575" stroke="#757575" points="124.26,-124.47 114.4,-128.34 124.52,-131.46 124.26,-124.47"/>
</g>
<!-- atoms/index.ts -->
<g id="node8" class="node">
<title>atoms/index.ts</title>
<path fill="none" stroke="#c6c5fe" d="M140.68,-121.69C140.68,-121.69 52.01,-121.69 52.01,-121.69 48.18,-121.69 44.35,-117.85 44.35,-114.02 44.35,-114.02 44.35,-106.35 44.35,-106.35 44.35,-102.52 48.18,-98.69 52.01,-98.69 52.01,-98.69 140.68,-98.69 140.68,-98.69 144.51,-98.69 148.35,-102.52 148.35,-106.35 148.35,-106.35 148.35,-114.02 148.35,-114.02 148.35,-117.85 144.51,-121.69 140.68,-121.69"/>
<text text-anchor="middle" x="96.35" y="-106.49" font-family="Arial" font-size="14.00" fill="#c6c5fe">atoms/index.ts</text>
</g>
<!-- pages/GameSetup.tsx&#45;&gt;atoms/index.ts -->
<g id="edge38" class="edge">
<title>pages/GameSetup.tsx&#45;&gt;atoms/index.ts</title>
<path fill="none" stroke="#757575" d="M133.44,-97.17C133.35,-97.2 133.26,-97.23 133.17,-97.27"/>
<polygon fill="#757575" stroke="#757575" points="137.45,-92.05 129.17,-98.67 139.77,-98.66 137.45,-92.05"/>
</g>
<!-- lib/mutations.ts -->
<g id="node11" class="node">
<title>lib/mutations.ts</title>
<path fill="none" stroke="#c6c5fe" d="M213.87,-121.11C213.87,-121.11 122.21,-121.11 122.21,-121.11 118.37,-121.11 114.54,-117.27 114.54,-113.44 114.54,-113.44 114.54,-105.77 114.54,-105.77 114.54,-101.94 118.37,-98.11 122.21,-98.11 122.21,-98.11 213.87,-98.11 213.87,-98.11 217.71,-98.11 221.54,-101.94 221.54,-105.77 221.54,-105.77 221.54,-113.44 221.54,-113.44 221.54,-117.27 217.71,-121.11 213.87,-121.11"/>
<text text-anchor="middle" x="168.04" y="-105.91" font-family="Arial" font-size="14.00" fill="#c6c5fe">lib/mutations.ts</text>
</g>
<!-- pages/GameSetup.tsx&#45;&gt;lib/mutations.ts -->
<g id="edge41" class="edge">
<title>pages/GameSetup.tsx&#45;&gt;lib/mutations.ts</title>
<path fill="none" stroke="#757575" d="M167.21,-97.32C167.22,-97.42 167.23,-97.51 167.23,-97.61"/>
<polygon fill="#757575" stroke="#757575" points="163.08,-88.15 167.25,-97.89 170.07,-87.68 163.08,-88.15"/>
</g>
<!-- components/Alert.tsx -->
<g id="node12" class="node">
<title>components/Alert.tsx</title>
<path fill="none" stroke="#cfffac" d="M231.48,-105.1C231.48,-105.1 103.81,-105.1 103.81,-105.1 99.98,-105.1 96.15,-101.27 96.15,-97.44 96.15,-97.44 96.15,-89.77 96.15,-89.77 96.15,-85.94 99.98,-82.1 103.81,-82.1 103.81,-82.1 231.48,-82.1 231.48,-82.1 235.31,-82.1 239.15,-85.94 239.15,-89.77 239.15,-89.77 239.15,-97.44 239.15,-97.44 239.15,-101.27 235.31,-105.1 231.48,-105.1"/>
<text text-anchor="middle" x="167.65" y="-89.9" font-family="Arial" font-size="14.00" fill="#cfffac">components/Alert.tsx</text>
</g>
<!-- pages/GameSetup.tsx&#45;&gt;components/Alert.tsx -->
<g id="edge39" class="edge">
<title>pages/GameSetup.tsx&#45;&gt;components/Alert.tsx</title>
<path fill="none" stroke="#757575" d="M167.63,-93.51C167.64,-93.53 167.64,-93.54 167.64,-93.55"/>
<polygon fill="#757575" stroke="#757575" points="162.64,-84.23 167.64,-93.58 169.56,-83.15 162.64,-84.23"/>
</g>
<!-- components/LobbyStatus.tsx -->
<g id="node19" class="node">
<title>components/LobbyStatus.tsx</title>
<path fill="none" stroke="#c6c5fe" d="M233.84,-76.44C233.84,-76.44 58.17,-76.44 58.17,-76.44 54.34,-76.44 50.51,-72.61 50.51,-68.78 50.51,-68.78 50.51,-61.11 50.51,-61.11 50.51,-57.28 54.34,-53.44 58.17,-53.44 58.17,-53.44 233.84,-53.44 233.84,-53.44 237.67,-53.44 241.51,-57.28 241.51,-61.11 241.51,-61.11 241.51,-68.78 241.51,-68.78 241.51,-72.61 237.67,-76.44 233.84,-76.44"/>
<text text-anchor="middle" x="146.01" y="-61.24" font-family="Arial" font-size="14.00" fill="#c6c5fe">components/LobbyStatus.tsx</text>
</g>
<!-- pages/GameSetup.tsx&#45;&gt;components/LobbyStatus.tsx -->
<g id="edge40" class="edge">
<title>pages/GameSetup.tsx&#45;&gt;components/LobbyStatus.tsx</title>
<path fill="none" stroke="#757575" d="M154.78,-73.82C154.71,-73.75 154.64,-73.68 154.57,-73.61"/>
<polygon fill="#757575" stroke="#757575" points="163.88,-78.04 154.36,-73.39 158.9,-82.96 163.88,-78.04"/>
</g>
<!-- lib/supabaseClient.ts -->
<g id="node20" class="node">
<title>lib/supabaseClient.ts</title>
<path fill="none" stroke="#cfffac" d="M184.84,-76.93C184.84,-76.93 59.17,-76.93 59.17,-76.93 55.34,-76.93 51.5,-73.1 51.5,-69.27 51.5,-69.27 51.5,-61.6 51.5,-61.6 51.5,-57.77 55.34,-53.93 59.17,-53.93 59.17,-53.93 184.84,-53.93 184.84,-53.93 188.67,-53.93 192.5,-57.77 192.5,-61.6 192.5,-61.6 192.5,-69.27 192.5,-69.27 192.5,-73.1 188.67,-76.93 184.84,-76.93"/>
<text text-anchor="middle" x="122" y="-61.73" font-family="Arial" font-size="14.00" fill="#cfffac">lib/supabaseClient.ts</text>
</g>
<!-- pages/GameSetup.tsx&#45;&gt;lib/supabaseClient.ts -->
<g id="edge43" class="edge">
<title>pages/GameSetup.tsx&#45;&gt;lib/supabaseClient.ts</title>
<path fill="none" stroke="#757575" d="M140.84,-73.99C140.76,-73.95 140.69,-73.92 140.61,-73.88"/>
<polygon fill="#757575" stroke="#757575" points="150.93,-74.72 140.38,-73.78 148.04,-81.1 150.93,-74.72"/>
</g>
<!-- lib/types.ts -->
<g id="node28" class="node">
<title>lib/types.ts</title>
<path fill="none" stroke="#c6c5fe" d="M178.72,-147.87C178.72,-147.87 114.06,-147.87 114.06,-147.87 110.22,-147.87 106.39,-144.04 106.39,-140.2 106.39,-140.2 106.39,-132.54 106.39,-132.54 106.39,-128.7 110.22,-124.87 114.06,-124.87 114.06,-124.87 178.72,-124.87 178.72,-124.87 182.56,-124.87 186.39,-128.7 186.39,-132.54 186.39,-132.54 186.39,-140.2 186.39,-140.2 186.39,-144.04 182.56,-147.87 178.72,-147.87"/>
<text text-anchor="middle" x="146.39" y="-132.67" font-family="Arial" font-size="14.00" fill="#c6c5fe">lib/types.ts</text>
</g>
<!-- pages/GameSetup.tsx&#45;&gt;lib/types.ts -->
<g id="edge44" class="edge">
<title>pages/GameSetup.tsx&#45;&gt;lib/types.ts</title>
<path fill="none" stroke="#757575" d="M161.88,-97.12C159.81,-102.37 157.29,-108.75 154.88,-114.84"/>
<polygon fill="#757575" stroke="#757575" points="151.47,-113.96 151.06,-124.54 157.98,-116.52 151.47,-113.96"/>
</g>
<!-- lib/presence.ts -->
<g id="node31" class="node">
<title>lib/presence.ts</title>
<path fill="none" stroke="#c6c5fe" d="M206.34,-89.09C206.34,-89.09 117.68,-89.09 117.68,-89.09 113.84,-89.09 110.01,-85.26 110.01,-81.43 110.01,-81.43 110.01,-73.76 110.01,-73.76 110.01,-69.93 113.84,-66.09 117.68,-66.09 117.68,-66.09 206.34,-66.09 206.34,-66.09 210.18,-66.09 214.01,-69.93 214.01,-73.76 214.01,-73.76 214.01,-81.43 214.01,-81.43 214.01,-85.26 210.18,-89.09 206.34,-89.09"/>
<text text-anchor="middle" x="162.01" y="-73.89" font-family="Arial" font-size="14.00" fill="#c6c5fe">lib/presence.ts</text>
</g>
<!-- pages/GameSetup.tsx&#45;&gt;lib/presence.ts -->
<g id="edge42" class="edge">
<title>pages/GameSetup.tsx&#45;&gt;lib/presence.ts</title>
<path fill="none" stroke="#757575" d="M162.06,-77.68C162.05,-77.67 162.05,-77.66 162.04,-77.65"/>
<polygon fill="#757575" stroke="#757575" points="169.93,-84.68 162.02,-77.62 163.8,-88.07 169.93,-84.68"/>
</g>
<!-- components/ActiveGames.tsx -->
<g id="node10" class="node">
<title>components/ActiveGames.tsx</title>
<path fill="none" stroke="#c6c5fe" d="M257.51,-129.11C257.51,-129.11 75.84,-129.11 75.84,-129.11 72.01,-129.11 68.18,-125.28 68.18,-121.44 68.18,-121.44 68.18,-113.78 68.18,-113.78 68.18,-109.94 72.01,-106.11 75.84,-106.11 75.84,-106.11 257.51,-106.11 257.51,-106.11 261.34,-106.11 265.18,-109.94 265.18,-113.78 265.18,-113.78 265.18,-121.44 265.18,-121.44 265.18,-125.28 261.34,-129.11 257.51,-129.11"/>
<text text-anchor="middle" x="166.68" y="-113.91" font-family="Arial" font-size="14.00" fill="#c6c5fe">components/ActiveGames.tsx</text>
</g>
<!-- pages/Homepage.tsx&#45;&gt;components/ActiveGames.tsx -->
<g id="edge45" class="edge">
<title>pages/Homepage.tsx&#45;&gt;components/ActiveGames.tsx</title>
<path fill="none" stroke="#757575" d="M166.63,-117.7C166.63,-117.69 166.64,-117.67 166.65,-117.66"/>
<polygon fill="#757575" stroke="#757575" points="164.79,-128.07 166.66,-117.63 158.69,-124.62 164.79,-128.07"/>
</g>
<!-- pages/Homepage.tsx&#45;&gt;lib/mutations.ts -->
<g id="edge48" class="edge">
<title>pages/Homepage.tsx&#45;&gt;lib/mutations.ts</title>
<path fill="none" stroke="#757575" d="M166.44,-113.98C166.46,-113.9 166.49,-113.83 166.52,-113.75"/>
<polygon fill="#757575" stroke="#757575" points="166.44,-124.12 166.6,-113.52 159.87,-121.7 166.44,-124.12"/>
</g>
<!-- pages/Homepage.tsx&#45;&gt;components/Alert.tsx -->
<g id="edge46" class="edge">
<title>pages/Homepage.tsx&#45;&gt;components/Alert.tsx</title>
<path fill="none" stroke="#757575" d="M164.14,-114.06C164.16,-113.97 164.17,-113.88 164.19,-113.79"/>
<polygon fill="#757575" stroke="#757575" points="167.41,-115.7 165.65,-105.25 160.51,-114.51 167.41,-115.7"/>
</g>
<!-- components/PasswordModal.tsx -->
<g id="node23" class="node">
<title>components/PasswordModal.tsx</title>
<path fill="none" stroke="#cfffac" d="M268.51,-145.02C268.51,-145.02 71.85,-145.02 71.85,-145.02 68.01,-145.02 64.18,-141.18 64.18,-137.35 64.18,-137.35 64.18,-129.68 64.18,-129.68 64.18,-125.85 68.01,-122.02 71.85,-122.02 71.85,-122.02 268.51,-122.02 268.51,-122.02 272.35,-122.02 276.18,-125.85 276.18,-129.68 276.18,-129.68 276.18,-137.35 276.18,-137.35 276.18,-141.18 272.35,-145.02 268.51,-145.02"/>
<text text-anchor="middle" x="170.18" y="-129.82" font-family="Arial" font-size="14.00" fill="#cfffac">components/PasswordModal.tsx</text>
</g>
<!-- pages/Homepage.tsx&#45;&gt;components/PasswordModal.tsx -->
<g id="edge47" class="edge">
<title>pages/Homepage.tsx&#45;&gt;components/PasswordModal.tsx</title>
<path fill="none" stroke="#757575" d="M170.09,-133.43C170.1,-133.44 170.12,-133.46 170.13,-133.47"/>
<polygon fill="#757575" stroke="#757575" points="160.57,-128.96 170.16,-133.49 165.49,-123.97 160.57,-128.96"/>
</g>
<!-- pages/Join.tsx&#45;&gt;lib/mutations.ts -->
<g id="edge52" class="edge">
<title>pages/Join.tsx&#45;&gt;lib/mutations.ts</title>
<path fill="none" stroke="#757575" d="M168.03,-109.52C168.03,-109.53 168.03,-109.54 168.03,-109.56"/>
<polygon fill="#757575" stroke="#757575" points="163.14,-100.18 168.04,-109.58 170.07,-99.18 163.14,-100.18"/>
</g>
<!-- pages/Join.tsx&#45;&gt;components/Alert.tsx -->
<g id="edge49" class="edge">
<title>pages/Join.tsx&#45;&gt;components/Alert.tsx</title>
<path fill="none" stroke="#757575" d="M167.64,-93.69C167.64,-93.68 167.64,-93.66 167.64,-93.65"/>
<polygon fill="#757575" stroke="#757575" points="170.18,-103.92 167.65,-93.62 163.21,-103.25 170.18,-103.92"/>
</g>
<!-- components/FlagSelector.tsx -->
<g id="node18" class="node">
<title>components/FlagSelector.tsx</title>
<path fill="none" stroke="#cfffac" d="M263.28,-113.1C263.28,-113.1 87.61,-113.1 87.61,-113.1 83.78,-113.1 79.95,-109.27 79.95,-105.44 79.95,-105.44 79.95,-97.77 79.95,-97.77 79.95,-93.94 83.78,-90.1 87.61,-90.1 87.61,-90.1 263.28,-90.1 263.28,-90.1 267.11,-90.1 270.95,-93.94 270.95,-97.77 270.95,-97.77 270.95,-105.44 270.95,-105.44 270.95,-109.27 267.11,-113.1 263.28,-113.1"/>
<text text-anchor="middle" x="175.45" y="-97.9" font-family="Arial" font-size="14.00" fill="#cfffac">components/FlagSelector.tsx</text>
</g>
<!-- pages/Join.tsx&#45;&gt;components/FlagSelector.tsx -->
<g id="edge50" class="edge">
<title>pages/Join.tsx&#45;&gt;components/FlagSelector.tsx</title>
<path fill="none" stroke="#757575" d="M175.35,-101.6C175.37,-101.6 175.38,-101.6 175.39,-101.6"/>
<polygon fill="#757575" stroke="#757575" points="165.43,-105.14 175.42,-101.6 165.41,-98.14 165.43,-105.14"/>
</g>
<!-- components/LogoSelector.tsx -->
<g id="node21" class="node">
<title>components/LogoSelector.tsx</title>
<path fill="none" stroke="#c6c5fe" d="M227.34,-74.56C227.34,-74.56 48.67,-74.56 48.67,-74.56 44.84,-74.56 41.01,-70.73 41.01,-66.89 41.01,-66.89 41.01,-59.23 41.01,-59.23 41.01,-55.39 44.84,-51.56 48.67,-51.56 48.67,-51.56 227.34,-51.56 227.34,-51.56 231.17,-51.56 235.01,-55.39 235.01,-59.23 235.01,-59.23 235.01,-66.89 235.01,-66.89 235.01,-70.73 231.17,-74.56 227.34,-74.56"/>
<text text-anchor="middle" x="138.01" y="-59.36" font-family="Arial" font-size="14.00" fill="#c6c5fe">components/LogoSelector.tsx</text>
</g>
<!-- pages/Join.tsx&#45;&gt;components/LogoSelector.tsx -->
<g id="edge51" class="edge">
<title>pages/Join.tsx&#45;&gt;components/LogoSelector.tsx</title>
<path fill="none" stroke="#757575" d="M158.08,-89.83C156.4,-87.59 154.6,-85.19 152.79,-82.78"/>
<polygon fill="#757575" stroke="#757575" points="155.58,-80.66 146.78,-74.76 149.98,-84.86 155.58,-80.66"/>
</g>
<!-- pages/Lobby.tsx&#45;&gt;atoms/index.ts -->
<g id="edge53" class="edge">
<title>pages/Lobby.tsx&#45;&gt;atoms/index.ts</title>
<path fill="none" stroke="#757575" d="M96.38,-110.28C96.38,-110.26 96.37,-110.25 96.37,-110.24"/>
<polygon fill="#757575" stroke="#757575" points="103.61,-117.95 96.36,-110.21 97.2,-120.78 103.61,-117.95"/>
</g>
<!-- lib/types/supabase.ts -->
<g id="node9" class="node">
<title>lib/types/supabase.ts</title>
<path fill="none" stroke="#cfffac" d="M160.87,-105.68C160.87,-105.68 33.2,-105.68 33.2,-105.68 29.37,-105.68 25.54,-101.85 25.54,-98.01 25.54,-98.01 25.54,-90.35 25.54,-90.35 25.54,-86.51 29.37,-82.68 33.2,-82.68 33.2,-82.68 160.87,-82.68 160.87,-82.68 164.7,-82.68 168.54,-86.51 168.54,-90.35 168.54,-90.35 168.54,-98.01 168.54,-98.01 168.54,-101.85 164.7,-105.68 160.87,-105.68"/>
<text text-anchor="middle" x="97.04" y="-90.48" font-family="Arial" font-size="14.00" fill="#cfffac">lib/types/supabase.ts</text>
</g>
<!-- pages/Lobby.tsx&#45;&gt;lib/types/supabase.ts -->
<g id="edge57" class="edge">
<title>pages/Lobby.tsx&#45;&gt;lib/types/supabase.ts</title>
<path fill="none" stroke="#757575" d="M98.49,-106.47C98.47,-106.37 98.46,-106.28 98.45,-106.18"/>
<polygon fill="#757575" stroke="#757575" points="103.07,-115.41 98.42,-105.89 96.12,-116.24 103.07,-115.41"/>
</g>
<!-- pages/Lobby.tsx&#45;&gt;lib/mutations.ts -->
<g id="edge54" class="edge">
<title>pages/Lobby.tsx&#45;&gt;lib/mutations.ts</title>
<path fill="none" stroke="#757575" d="M157.09,-110.99C157.14,-110.98 157.19,-110.97 157.24,-110.97"/>
<polygon fill="#757575" stroke="#757575" points="147.91,-115.67 157.39,-110.95 147.03,-108.73 147.91,-115.67"/>
</g>
<!-- pages/Lobby.tsx&#45;&gt;lib/supabaseClient.ts -->
<g id="edge56" class="edge">
<title>pages/Lobby.tsx&#45;&gt;lib/supabaseClient.ts</title>
<path fill="none" stroke="#757575" d="M104.78,-106.48C107.25,-100.61 110.31,-93.31 113.16,-86.51"/>
<polygon fill="#757575" stroke="#757575" points="116.46,-87.68 117.1,-77.11 110.01,-84.98 116.46,-87.68"/>
</g>
<!-- lib/sessionHooks.ts -->
<g id="node34" class="node">
<title>lib/sessionHooks.ts</title>
<path fill="none" stroke="#c6c5fe" d="M164.7,-137.69C164.7,-137.69 48.04,-137.69 48.04,-137.69 44.2,-137.69 40.37,-133.86 40.37,-130.02 40.37,-130.02 40.37,-122.36 40.37,-122.36 40.37,-118.52 44.2,-114.69 48.04,-114.69 48.04,-114.69 164.7,-114.69 164.7,-114.69 168.54,-114.69 172.37,-118.52 172.37,-122.36 172.37,-122.36 172.37,-130.02 172.37,-130.02 172.37,-133.86 168.54,-137.69 164.7,-137.69"/>
<text text-anchor="middle" x="106.37" y="-122.49" font-family="Arial" font-size="14.00" fill="#c6c5fe">lib/sessionHooks.ts</text>
</g>
<!-- pages/Lobby.tsx&#45;&gt;lib/sessionHooks.ts -->
<g id="edge55" class="edge">
<title>pages/Lobby.tsx&#45;&gt;lib/sessionHooks.ts</title>
<path fill="none" stroke="#757575" d="M106.3,-126.1C106.31,-126.12 106.32,-126.13 106.33,-126.14"/>
<polygon fill="#757575" stroke="#757575" points="97.32,-120.61 106.35,-126.17 102.75,-116.19 97.32,-120.61"/>
</g>
<!-- pages/Quiz.tsx&#45;&gt;lib/mutations.ts -->
<g id="edge58" class="edge">
<title>pages/Quiz.tsx&#45;&gt;lib/mutations.ts</title>
<path fill="none" stroke="#757575" d="M149.21,-121.2C149.29,-121.16 149.36,-121.11 149.43,-121.07"/>
<polygon fill="#757575" stroke="#757575" points="142.98,-129.16 149.65,-120.93 139.3,-123.2 142.98,-129.16"/>
</g>
<!-- pages/Quiz.tsx&#45;&gt;lib/types.ts -->
<g id="edge61" class="edge">
<title>pages/Quiz.tsx&#45;&gt;lib/types.ts</title>
<path fill="none" stroke="#757575" d="M146.34,-136.36C146.35,-136.36 146.36,-136.36 146.36,-136.36"/>
<polygon fill="#757575" stroke="#757575" points="135.84,-137.56 146.38,-136.37 137.4,-130.72 135.84,-137.56"/>
</g>
<!-- lib/realtimeHooks.ts -->
<g id="node32" class="node">
<title>lib/realtimeHooks.ts</title>
<path fill="none" stroke="#c6c5fe" d="M198.22,-149.39C198.22,-149.39 78.55,-149.39 78.55,-149.39 74.72,-149.39 70.88,-145.56 70.88,-141.72 70.88,-141.72 70.88,-134.06 70.88,-134.06 70.88,-130.22 74.72,-126.39 78.55,-126.39 78.55,-126.39 198.22,-126.39 198.22,-126.39 202.05,-126.39 205.88,-130.22 205.88,-134.06 205.88,-134.06 205.88,-141.72 205.88,-141.72 205.88,-145.56 202.05,-149.39 198.22,-149.39"/>
<text text-anchor="middle" x="138.38" y="-134.19" font-family="Arial" font-size="14.00" fill="#c6c5fe">lib/realtimeHooks.ts</text>
</g>
<!-- pages/Quiz.tsx&#45;&gt;lib/realtimeHooks.ts -->
<g id="edge59" class="edge">
<title>pages/Quiz.tsx&#45;&gt;lib/realtimeHooks.ts</title>
<path fill="none" stroke="#757575" d="M138.3,-137.83C138.31,-137.84 138.32,-137.85 138.33,-137.86"/>
<polygon fill="#757575" stroke="#757575" points="128.04,-135.45 138.36,-137.88 131.8,-129.54 128.04,-135.45"/>
</g>
<!-- pages/Quiz.tsx&#45;&gt;lib/sessionHooks.ts -->
<g id="edge60" class="edge">
<title>pages/Quiz.tsx&#45;&gt;lib/sessionHooks.ts</title>
<path fill="none" stroke="#757575" d="M106.44,-126.21C106.43,-126.21 106.42,-126.2 106.41,-126.2"/>
<polygon fill="#757575" stroke="#757575" points="116.97,-125.51 106.39,-126.2 115.09,-132.26 116.97,-125.51"/>
</g>
<!-- pages/Results.tsx&#45;&gt;lib/mutations.ts -->
<g id="edge62" class="edge">
<title>pages/Results.tsx&#45;&gt;lib/mutations.ts</title>
<path fill="none" stroke="#757575" d="M147.45,-116.8C147.49,-116.78 147.53,-116.77 147.57,-116.75"/>
<polygon fill="#757575" stroke="#757575" points="139.42,-123.31 147.7,-116.71 137.11,-116.7 139.42,-123.31"/>
</g>
<!-- pages/Results.tsx&#45;&gt;lib/supabaseClient.ts -->
<g id="edge64" class="edge">
<title>pages/Results.tsx&#45;&gt;lib/supabaseClient.ts</title>
<path fill="none" stroke="#757575" d="M115.77,-116.8C116.77,-108.57 118.14,-97.25 119.35,-87.33"/>
<polygon fill="#757575" stroke="#757575" points="122.83,-87.68 120.56,-77.33 115.88,-86.83 122.83,-87.68"/>
</g>
<!-- pages/Results.tsx&#45;&gt;lib/sessionHooks.ts -->
<g id="edge63" class="edge">
<title>pages/Results.tsx&#45;&gt;lib/sessionHooks.ts</title>
<path fill="none" stroke="#757575" d="M106.46,-126.21C106.45,-126.21 106.43,-126.21 106.42,-126.2"/>
<polygon fill="#757575" stroke="#757575" points="116.97,-125.44 106.39,-126.2 115.14,-132.2 116.97,-125.44"/>
</g>
<!-- atoms/index.ts&#45;&gt;lib/types/supabase.ts -->
<g id="edge7" class="edge">
<title>atoms/index.ts&#45;&gt;lib/types/supabase.ts</title>
<path fill="none" stroke="#757575" d="M96.85,-98.55C96.85,-98.48 96.85,-98.4 96.86,-98.32"/>
<polygon fill="#757575" stroke="#757575" points="99.93,-108.24 96.87,-98.1 92.94,-107.93 99.93,-108.24"/>
</g>
<!-- components/ActiveGames.tsx&#45;&gt;lib/mutations.ts -->
<g id="edge8" class="edge">
<title>components/ActiveGames.tsx&#45;&gt;lib/mutations.ts</title>
<path fill="none" stroke="#757575" d="M168.03,-109.7C168.03,-109.68 168.03,-109.67 168.03,-109.66"/>
<polygon fill="#757575" stroke="#757575" points="169.78,-120.09 168.04,-109.63 162.88,-118.89 169.78,-120.09"/>
</g>
<!-- lib/mutations.ts&#45;&gt;lib/supabaseClient.ts -->
<g id="edge25" class="edge">
<title>lib/mutations.ts&#45;&gt;lib/supabaseClient.ts</title>
<path fill="none" stroke="#757575" d="M155.95,-98C151.54,-93.77 146.44,-88.88 141.55,-84.19"/>
<polygon fill="#757575" stroke="#757575" points="143.82,-81.51 134.18,-77.12 138.97,-86.57 143.82,-81.51"/>
</g>
<!-- lib/mutations.ts&#45;&gt;lib/types.ts -->
<g id="edge26" class="edge">
<title>lib/mutations.ts&#45;&gt;lib/types.ts</title>
<path fill="none" stroke="#757575" d="M158.73,-121.11C158.62,-121.25 158.5,-121.4 158.39,-121.54"/>
<polygon fill="#757575" stroke="#757575" points="159.53,-114.56 155.96,-124.53 164.98,-118.96 159.53,-114.56"/>
</g>
<!-- components/EnhancedLobby.tsx -->
<g id="node13" class="node">
<title>components/EnhancedLobby.tsx</title>
<path fill="none" stroke="#c6c5fe" d="M204.33,-89.67C204.33,-89.67 7.67,-89.67 7.67,-89.67 3.83,-89.67 0,-85.84 0,-82.01 0,-82.01 0,-74.34 0,-74.34 0,-70.51 3.83,-66.67 7.67,-66.67 7.67,-66.67 204.33,-66.67 204.33,-66.67 208.17,-66.67 212,-70.51 212,-74.34 212,-74.34 212,-82.01 212,-82.01 212,-85.84 208.17,-89.67 204.33,-89.67"/>
<text text-anchor="middle" x="106" y="-74.47" font-family="Arial" font-size="14.00" fill="#c6c5fe">components/EnhancedLobby.tsx</text>
</g>
<!-- lib/enhancedPresence.ts -->
<g id="node14" class="node">
<title>lib/enhancedPresence.ts</title>
<path fill="none" stroke="#c6c5fe" d="M174.18,-97.68C174.18,-97.68 25.51,-97.68 25.51,-97.68 21.68,-97.68 17.85,-93.84 17.85,-90.01 17.85,-90.01 17.85,-82.34 17.85,-82.34 17.85,-78.51 21.68,-74.68 25.51,-74.68 25.51,-74.68 174.18,-74.68 174.18,-74.68 178.01,-74.68 181.85,-78.51 181.85,-82.34 181.85,-82.34 181.85,-90.01 181.85,-90.01 181.85,-93.84 178.01,-97.68 174.18,-97.68"/>
<text text-anchor="middle" x="99.85" y="-82.48" font-family="Arial" font-size="14.00" fill="#c6c5fe">lib/enhancedPresence.ts</text>
</g>
<!-- components/EnhancedLobby.tsx&#45;&gt;lib/enhancedPresence.ts -->
<g id="edge9" class="edge">
<title>components/EnhancedLobby.tsx&#45;&gt;lib/enhancedPresence.ts</title>
<path fill="none" stroke="#757575" d="M99.92,-86.09C99.9,-86.1 99.89,-86.12 99.89,-86.13"/>
<polygon fill="#757575" stroke="#757575" points="103.19,-76.08 99.86,-86.15 108.75,-80.36 103.19,-76.08"/>
</g>
<!-- lib/enhancedRealtimeHooks.ts -->
<g id="node15" class="node">
<title>lib/enhancedRealtimeHooks.ts</title>
<path fill="none" stroke="#c6c5fe" d="M206.33,-81.93C206.33,-81.93 21.67,-81.93 21.67,-81.93 17.83,-81.93 14,-78.1 14,-74.27 14,-74.27 14,-66.6 14,-66.6 14,-62.77 17.83,-58.93 21.67,-58.93 21.67,-58.93 206.33,-58.93 206.33,-58.93 210.17,-58.93 214,-62.77 214,-66.6 214,-66.6 214,-74.27 214,-74.27 214,-78.1 210.17,-81.93 206.33,-81.93"/>
<text text-anchor="middle" x="114" y="-66.73" font-family="Arial" font-size="14.00" fill="#c6c5fe">lib/enhancedRealtimeHooks.ts</text>
</g>
<!-- components/EnhancedLobby.tsx&#45;&gt;lib/enhancedRealtimeHooks.ts -->
<g id="edge10" class="edge">
<title>components/EnhancedLobby.tsx&#45;&gt;lib/enhancedRealtimeHooks.ts</title>
<path fill="none" stroke="#757575" d="M113.91,-70.52C113.92,-70.5 113.94,-70.49 113.95,-70.48"/>
<polygon fill="#757575" stroke="#757575" points="109.22,-79.93 113.98,-70.45 104.35,-74.9 109.22,-79.93"/>
</g>
<!-- lib/enhancedPresence.ts&#45;&gt;lib/mutations.ts -->
<g id="edge18" class="edge">
<title>lib/enhancedPresence.ts&#45;&gt;lib/mutations.ts</title>
<path fill="none" stroke="#757575" d="M133.54,-97.76C133.68,-97.8 133.81,-97.85 133.95,-97.89"/>
<polygon fill="#757575" stroke="#757575" points="123.75,-98.09 134.35,-98.03 126.03,-91.47 123.75,-98.09"/>
</g>
<!-- lib/enhancedPresence.ts&#45;&gt;lib/supabaseClient.ts -->
<g id="edge19" class="edge">
<title>lib/enhancedPresence.ts&#45;&gt;lib/supabaseClient.ts</title>
<path fill="none" stroke="#757575" d="M112.22,-74.59C112.3,-74.52 112.38,-74.44 112.46,-74.37"/>
<polygon fill="#757575" stroke="#757575" points="107.79,-83.54 112.7,-74.15 103,-78.43 107.79,-83.54"/>
</g>
<!-- lib/enhancedRealtimeHooks.ts&#45;&gt;lib/supabaseClient.ts -->
<g id="edge20" class="edge">
<title>lib/enhancedRealtimeHooks.ts&#45;&gt;lib/supabaseClient.ts</title>
<path fill="none" stroke="#757575" d="M121.91,-65.49C121.93,-65.48 121.94,-65.47 121.95,-65.47"/>
<polygon fill="#757575" stroke="#757575" points="115.35,-73.73 121.98,-65.45 111.63,-67.79 115.35,-73.73"/>
</g>
<!-- lib/enhancedRealtimeHooks.ts&#45;&gt;lib/types.ts -->
<g id="edge21" class="edge">
<title>lib/enhancedRealtimeHooks.ts&#45;&gt;lib/types.ts</title>
<path fill="none" stroke="#757575" d="M119.79,-82.22C124.35,-91.5 130.82,-104.67 136.23,-115.7"/>
<polygon fill="#757575" stroke="#757575" points="133.1,-117.25 140.65,-124.68 139.38,-114.16 133.1,-117.25"/>
</g>
<!-- components/Flag.tsx -->
<g id="node16" class="node">
<title>components/Flag.tsx</title>
<path fill="none" stroke="#c6c5fe" d="M186.32,-218C186.32,-218 59.65,-218 59.65,-218 55.82,-218 51.98,-214.17 51.98,-210.33 51.98,-210.33 51.98,-202.67 51.98,-202.67 51.98,-198.83 55.82,-195 59.65,-195 59.65,-195 186.32,-195 186.32,-195 190.15,-195 193.98,-198.83 193.98,-202.67 193.98,-202.67 193.98,-210.33 193.98,-210.33 193.98,-214.17 190.15,-218 186.32,-218"/>
<text text-anchor="middle" x="122.98" y="-202.8" font-family="Arial" font-size="14.00" fill="#c6c5fe">components/Flag.tsx</text>
</g>
<!-- lib/flagIcons.ts -->
<g id="node17" class="node">
<title>lib/flagIcons.ts</title>
<path fill="none" stroke="#cfffac" d="M174.32,-218C174.32,-218 87.65,-218 87.65,-218 83.82,-218 79.98,-214.17 79.98,-210.33 79.98,-210.33 79.98,-202.67 79.98,-202.67 79.98,-198.83 83.82,-195 87.65,-195 87.65,-195 174.32,-195 174.32,-195 178.15,-195 181.98,-198.83 181.98,-202.67 181.98,-202.67 181.98,-210.33 181.98,-210.33 181.98,-214.17 178.15,-218 174.32,-218"/>
<text text-anchor="middle" x="130.98" y="-202.8" font-family="Arial" font-size="14.00" fill="#cfffac">lib/flagIcons.ts</text>
</g>
<!-- components/Flag.tsx&#45;&gt;lib/flagIcons.ts -->
<g id="edge11" class="edge">
<title>components/Flag.tsx&#45;&gt;lib/flagIcons.ts</title>
<path fill="none" stroke="#757575" d="M130.89,-206.5C130.91,-206.5 130.92,-206.5 130.93,-206.5"/>
<polygon fill="#757575" stroke="#757575" points="120.97,-210.04 130.96,-206.5 120.95,-203.04 120.97,-210.04"/>
</g>
<!-- components/LobbyStatus.tsx&#45;&gt;lib/supabaseClient.ts -->
<g id="edge12" class="edge">
<title>components/LobbyStatus.tsx&#45;&gt;lib/supabaseClient.ts</title>
<path fill="none" stroke="#757575" d="M122.07,-65.43C122.06,-65.43 122.05,-65.43 122.04,-65.43"/>
<polygon fill="#757575" stroke="#757575" points="131.93,-61.69 122.02,-65.43 132.11,-68.68 131.93,-61.69"/>
</g>
<!-- components/LogoSelector.tsx&#45;&gt;lib/supabaseClient.ts -->
<g id="edge13" class="edge">
<title>components/LogoSelector.tsx&#45;&gt;lib/supabaseClient.ts</title>
<path fill="none" stroke="#757575" d="M122.05,-65.43C122.04,-65.43 122.03,-65.43 122.03,-65.43"/>
<polygon fill="#757575" stroke="#757575" points="131.37,-60.44 122.01,-65.43 132.44,-67.37 131.37,-60.44"/>
</g>
<!-- components/PasswordModal.test.tsx -->
<g id="node22" class="node">
<title>components/PasswordModal.test.tsx</title>
<path fill="none" stroke="#c6c5fe" d="M289.52,-152.17C289.52,-152.17 66.85,-152.17 66.85,-152.17 63.02,-152.17 59.19,-148.34 59.19,-144.5 59.19,-144.5 59.19,-136.84 59.19,-136.84 59.19,-133 63.02,-129.17 66.85,-129.17 66.85,-129.17 289.52,-129.17 289.52,-129.17 293.35,-129.17 297.19,-133 297.19,-136.84 297.19,-136.84 297.19,-144.5 297.19,-144.5 297.19,-148.34 293.35,-152.17 289.52,-152.17"/>
<text text-anchor="middle" x="178.19" y="-136.97" font-family="Arial" font-size="14.00" fill="#c6c5fe">components/PasswordModal.test.tsx</text>
</g>
<!-- components/PasswordModal.test.tsx&#45;&gt;components/PasswordModal.tsx -->
<g id="edge14" class="edge">
<title>components/PasswordModal.test.tsx&#45;&gt;components/PasswordModal.tsx</title>
<path fill="none" stroke="#757575" d="M170.27,-133.6C170.26,-133.58 170.24,-133.57 170.23,-133.56"/>
<polygon fill="#757575" stroke="#757575" points="180,-137.6 170.2,-133.54 175.33,-142.82 180,-137.6"/>
</g>
<!-- components/TeamLogoPicker.test.tsx -->
<g id="node24" class="node">
<title>components/TeamLogoPicker.test.tsx</title>
<path fill="none" stroke="#c6c5fe" d="M390.08,-23C390.08,-23 163.41,-23 163.41,-23 159.58,-23 155.74,-19.17 155.74,-15.33 155.74,-15.33 155.74,-7.67 155.74,-7.67 155.74,-3.83 159.58,0 163.41,0 163.41,0 390.08,0 390.08,0 393.91,0 397.74,-3.83 397.74,-7.67 397.74,-7.67 397.74,-15.33 397.74,-15.33 397.74,-19.17 393.91,-23 390.08,-23"/>
<text text-anchor="middle" x="276.74" y="-7.8" font-family="Arial" font-size="14.00" fill="#c6c5fe">components/TeamLogoPicker.test.tsx</text>
</g>
<!-- components/TeamLogoPicker.tsx -->
<g id="node25" class="node">
<title>components/TeamLogoPicker.tsx</title>
<path fill="none" stroke="#cfffac" d="M385.08,-23C385.08,-23 184.41,-23 184.41,-23 180.58,-23 176.74,-19.17 176.74,-15.33 176.74,-15.33 176.74,-7.67 176.74,-7.67 176.74,-3.83 180.58,0 184.41,0 184.41,0 385.08,0 385.08,0 388.91,0 392.74,-3.83 392.74,-7.67 392.74,-7.67 392.74,-15.33 392.74,-15.33 392.74,-19.17 388.91,-23 385.08,-23"/>
<text text-anchor="middle" x="284.74" y="-7.8" font-family="Arial" font-size="14.00" fill="#cfffac">components/TeamLogoPicker.tsx</text>
</g>
<!-- components/TeamLogoPicker.test.tsx&#45;&gt;components/TeamLogoPicker.tsx -->
<g id="edge15" class="edge">
<title>components/TeamLogoPicker.test.tsx&#45;&gt;components/TeamLogoPicker.tsx</title>
<path fill="none" stroke="#757575" d="M284.65,-11.5C284.67,-11.5 284.68,-11.5 284.69,-11.5"/>
<polygon fill="#757575" stroke="#757575" points="274.73,-15.04 284.72,-11.5 274.71,-8.04 274.73,-15.04"/>
</g>
<!-- index.css -->
<g id="node26" class="node">
<title>index.css</title>
<path fill="none" stroke="#cfffac" d="M146.74,-155.87C146.74,-155.87 89.07,-155.87 89.07,-155.87 85.24,-155.87 81.41,-152.03 81.41,-148.2 81.41,-148.2 81.41,-140.53 81.41,-140.53 81.41,-136.7 85.24,-132.87 89.07,-132.87 89.07,-132.87 146.74,-132.87 146.74,-132.87 150.57,-132.87 154.41,-136.7 154.41,-140.53 154.41,-140.53 154.41,-148.2 154.41,-148.2 154.41,-152.03 150.57,-155.87 146.74,-155.87"/>
<text text-anchor="middle" x="117.91" y="-140.67" font-family="Arial" font-size="14.00" fill="#cfffac">index.css</text>
</g>
<!-- lib/createSession.test.ts -->
<g id="node27" class="node">
<title>lib/createSession.test.ts</title>
<path fill="none" stroke="#c6c5fe" d="M201.84,-74.65C201.84,-74.65 58.17,-74.65 58.17,-74.65 54.34,-74.65 50.5,-70.82 50.5,-66.99 50.5,-66.99 50.5,-59.32 50.5,-59.32 50.5,-55.49 54.34,-51.65 58.17,-51.65 58.17,-51.65 201.84,-51.65 201.84,-51.65 205.67,-51.65 209.5,-55.49 209.5,-59.32 209.5,-59.32 209.5,-66.99 209.5,-66.99 209.5,-70.82 205.67,-74.65 201.84,-74.65"/>
<text text-anchor="middle" x="130" y="-59.45" font-family="Arial" font-size="14.00" fill="#c6c5fe">lib/createSession.test.ts</text>
</g>
<!-- lib/createSession.test.ts&#45;&gt;lib/mutations.ts -->
<g id="edge16" class="edge">
<title>lib/createSession.test.ts&#45;&gt;lib/mutations.ts</title>
<path fill="none" stroke="#757575" d="M139.6,-74.87C143.42,-79.53 147.9,-85.01 152.17,-90.23"/>
<polygon fill="#757575" stroke="#757575" points="149.53,-92.53 158.58,-98.05 154.95,-88.09 149.53,-92.53"/>
</g>
<!-- lib/createSession.test.ts&#45;&gt;lib/supabaseClient.ts -->
<g id="edge17" class="edge">
<title>lib/createSession.test.ts&#45;&gt;lib/supabaseClient.ts</title>
<path fill="none" stroke="#757575" d="M122.09,-65.41C122.08,-65.41 122.07,-65.42 122.05,-65.42"/>
<polygon fill="#757575" stroke="#757575" points="130.67,-59.29 122.03,-65.43 132.61,-66.03 130.67,-59.29"/>
</g>
<!-- lib/types/index.ts -->
<g id="node35" class="node">
<title>lib/types/index.ts</title>
<path fill="none" stroke="#c6c5fe" d="M146.06,-113.68C146.06,-113.68 45.39,-113.68 45.39,-113.68 41.56,-113.68 37.72,-109.85 37.72,-106.02 37.72,-106.02 37.72,-98.35 37.72,-98.35 37.72,-94.52 41.56,-90.68 45.39,-90.68 45.39,-90.68 146.06,-90.68 146.06,-90.68 149.89,-90.68 153.72,-94.52 153.72,-98.35 153.72,-98.35 153.72,-106.02 153.72,-106.02 153.72,-109.85 149.89,-113.68 146.06,-113.68"/>
<text text-anchor="middle" x="95.72" y="-98.48" font-family="Arial" font-size="14.00" fill="#c6c5fe">lib/types/index.ts</text>
</g>
<!-- lib/types.ts&#45;&gt;lib/types/index.ts -->
<g id="edge34" class="edge">
<title>lib/types.ts&#45;&gt;lib/types/index.ts</title>
<path fill="none" stroke="#757575" d="M129.24,-124.8C126.68,-123.07 123.99,-121.26 121.31,-119.45"/>
<polygon fill="#757575" stroke="#757575" points="123.11,-116.44 112.86,-113.74 119.19,-122.24 123.11,-116.44"/>
</g>
<!-- lib/mutations.test.ts -->
<g id="node29" class="node">
<title>lib/mutations.test.ts</title>
<path fill="none" stroke="#c6c5fe" d="M213.23,-145.11C213.23,-145.11 95.56,-145.11 95.56,-145.11 91.73,-145.11 87.89,-141.28 87.89,-137.45 87.89,-137.45 87.89,-129.78 87.89,-129.78 87.89,-125.95 91.73,-122.11 95.56,-122.11 95.56,-122.11 213.23,-122.11 213.23,-122.11 217.06,-122.11 220.89,-125.95 220.89,-129.78 220.89,-129.78 220.89,-137.45 220.89,-137.45 220.89,-141.28 217.06,-145.11 213.23,-145.11"/>
<text text-anchor="middle" x="154.39" y="-129.91" font-family="Arial" font-size="14.00" fill="#c6c5fe">lib/mutations.test.ts</text>
</g>
<!-- lib/mutations.test.ts&#45;&gt;lib/mutations.ts -->
<g id="edge22" class="edge">
<title>lib/mutations.test.ts&#45;&gt;lib/mutations.ts</title>
<path fill="none" stroke="#757575" d="M161.06,-121.89C161.11,-121.8 161.17,-121.7 161.22,-121.61"/>
<polygon fill="#757575" stroke="#757575" points="159.48,-131.74 161.38,-121.32 153.4,-128.28 159.48,-131.74"/>
</g>
<!-- lib/mutations.test.ts&#45;&gt;lib/supabaseClient.ts -->
<g id="edge23" class="edge">
<title>lib/mutations.test.ts&#45;&gt;lib/supabaseClient.ts</title>
<path fill="none" stroke="#757575" d="M148.9,-122.05C144.27,-112.31 137.54,-98.14 131.97,-86.41"/>
<polygon fill="#757575" stroke="#757575" points="135.09,-84.82 127.63,-77.29 128.76,-87.82 135.09,-84.82"/>
</g>
<!-- lib/mutations.test.ts&#45;&gt;lib/types.ts -->
<g id="edge24" class="edge">
<title>lib/mutations.test.ts&#45;&gt;lib/types.ts</title>
<path fill="none" stroke="#757575" d="M146.48,-136.34C146.46,-136.34 146.45,-136.35 146.44,-136.35"/>
<polygon fill="#757575" stroke="#757575" points="154.72,-129.77 146.41,-136.36 157.02,-136.39 154.72,-129.77"/>
</g>
<!-- lib/mutations.validation.ts -->
<g id="node30" class="node">
<title>lib/mutations.validation.ts</title>
<path fill="none" stroke="#cfffac" d="M185.9,-270C185.9,-270 33.24,-270 33.24,-270 29.4,-270 25.57,-266.17 25.57,-262.33 25.57,-262.33 25.57,-254.67 25.57,-254.67 25.57,-250.83 29.4,-247 33.24,-247 33.24,-247 185.9,-247 185.9,-247 189.74,-247 193.57,-250.83 193.57,-254.67 193.57,-254.67 193.57,-262.33 193.57,-262.33 193.57,-266.17 189.74,-270 185.9,-270"/>
<text text-anchor="middle" x="109.57" y="-254.8" font-family="Arial" font-size="14.00" fill="#cfffac">lib/mutations.validation.ts</text>
</g>
<!-- lib/presence.ts&#45;&gt;lib/mutations.ts -->
<g id="edge27" class="edge">
<title>lib/presence.ts&#45;&gt;lib/mutations.ts</title>
<path fill="none" stroke="#757575" d="M164.19,-89.15C164.21,-89.24 164.22,-89.33 164.24,-89.42"/>
<polygon fill="#757575" stroke="#757575" points="160.56,-88.78 165.85,-97.96 167.44,-87.48 160.56,-88.78"/>
</g>
<!-- lib/presence.ts&#45;&gt;lib/supabaseClient.ts -->
<g id="edge28" class="edge">
<title>lib/presence.ts&#45;&gt;lib/supabaseClient.ts</title>
<path fill="none" stroke="#757575" d="M124.15,-66.09C124.07,-66.06 123.99,-66.04 123.91,-66.01"/>
<polygon fill="#757575" stroke="#757575" points="134.26,-65.5 123.67,-65.94 132.22,-72.2 134.26,-65.5"/>
</g>
<!-- lib/realtimeHooks.ts&#45;&gt;lib/supabaseClient.ts -->
<g id="edge29" class="edge">
<title>lib/realtimeHooks.ts&#45;&gt;lib/supabaseClient.ts</title>
<path fill="none" stroke="#757575" d="M135.75,-126.25C133.38,-115.75 129.82,-100.03 126.92,-87.2"/>
<polygon fill="#757575" stroke="#757575" points="130.3,-86.27 124.68,-77.29 123.47,-87.81 130.3,-86.27"/>
</g>
<!-- lib/realtimeHooks.ts&#45;&gt;lib/types.ts -->
<g id="edge30" class="edge">
<title>lib/realtimeHooks.ts&#45;&gt;lib/types.ts</title>
<path fill="none" stroke="#757575" d="M146.3,-136.39C146.31,-136.38 146.33,-136.38 146.34,-136.38"/>
<polygon fill="#757575" stroke="#757575" points="137.2,-141.71 146.37,-136.37 135.88,-134.83 137.2,-141.71"/>
</g>
<!-- lib/sessionCode.test.ts -->
<g id="node33" class="node">
<title>lib/sessionCode.test.ts</title>
<path fill="none" stroke="#c6c5fe" d="M222.34,-81.24C222.34,-81.24 85.68,-81.24 85.68,-81.24 81.84,-81.24 78.01,-77.41 78.01,-73.58 78.01,-73.58 78.01,-65.91 78.01,-65.91 78.01,-62.08 81.84,-58.24 85.68,-58.24 85.68,-58.24 222.34,-58.24 222.34,-58.24 226.18,-58.24 230.01,-62.08 230.01,-65.91 230.01,-65.91 230.01,-73.58 230.01,-73.58 230.01,-77.41 226.18,-81.24 222.34,-81.24"/>
<text text-anchor="middle" x="154.01" y="-66.04" font-family="Arial" font-size="14.00" fill="#c6c5fe">lib/sessionCode.test.ts</text>
</g>
<!-- lib/sessionCode.test.ts&#45;&gt;lib/mutations.ts -->
<g id="edge31" class="edge">
<title>lib/sessionCode.test.ts&#45;&gt;lib/mutations.ts</title>
<path fill="none" stroke="#757575" d="M158.14,-81.49C158.92,-83.7 159.76,-86.07 160.6,-88.46"/>
<polygon fill="#757575" stroke="#757575" points="157.36,-89.81 163.99,-98.08 163.97,-87.49 157.36,-89.81"/>
</g>
<!-- lib/sessionCode.test.ts&#45;&gt;lib/supabaseClient.ts -->
<g id="edge32" class="edge">
<title>lib/sessionCode.test.ts&#45;&gt;lib/supabaseClient.ts</title>
<path fill="none" stroke="#757575" d="M122.09,-65.45C122.08,-65.44 122.07,-65.44 122.06,-65.44"/>
<polygon fill="#757575" stroke="#757575" points="132.41,-63.33 122.03,-65.44 131.46,-70.27 132.41,-63.33"/>
</g>
<!-- lib/sessionHooks.ts&#45;&gt;lib/supabaseClient.ts -->
<g id="edge33" class="edge">
<title>lib/sessionHooks.ts&#45;&gt;lib/supabaseClient.ts</title>
<path fill="none" stroke="#757575" d="M109.38,-114.48C111.4,-106.66 114.1,-96.15 116.49,-86.87"/>
<polygon fill="#757575" stroke="#757575" points="119.9,-87.67 119,-77.11 113.12,-85.93 119.9,-87.67"/>
</g>
<!-- lib/types/index.ts&#45;&gt;lib/types/supabase.ts -->
<g id="edge35" class="edge">
<title>lib/types/index.ts&#45;&gt;lib/types/supabase.ts</title>
<path fill="none" stroke="#757575" d="M97.02,-94.27C97.02,-94.26 97.03,-94.24 97.03,-94.23"/>
<polygon fill="#757575" stroke="#757575" points="98.84,-104.65 97.03,-94.2 91.93,-103.49 98.84,-104.65"/>
</g>
<!-- main.tsx -->
<g id="node36" class="node">
<title>main.tsx</title>
<path fill="none" stroke="#c6c5fe" d="M146.13,-147.84C146.13,-147.84 93.46,-147.84 93.46,-147.84 89.63,-147.84 85.8,-144.01 85.8,-140.18 85.8,-140.18 85.8,-132.51 85.8,-132.51 85.8,-128.68 89.63,-124.84 93.46,-124.84 93.46,-124.84 146.13,-124.84 146.13,-124.84 149.96,-124.84 153.8,-128.68 153.8,-132.51 153.8,-132.51 153.8,-140.18 153.8,-140.18 153.8,-144.01 149.96,-147.84 146.13,-147.84"/>
<text text-anchor="middle" x="119.8" y="-132.64" font-family="Arial" font-size="14.00" fill="#c6c5fe">main.tsx</text>
</g>
<!-- main.tsx&#45;&gt;App.tsx -->
<g id="edge36" class="edge">
<title>main.tsx&#45;&gt;App.tsx</title>
<path fill="none" stroke="#757575" d="M122.35,-128.16C122.36,-128.15 122.36,-128.13 122.36,-128.12"/>
<polygon fill="#757575" stroke="#757575" points="122.71,-138.69 122.37,-128.09 116.03,-136.59 122.71,-138.69"/>
</g>
<!-- main.tsx&#45;&gt;index.css -->
<g id="edge37" class="edge">
<title>main.tsx&#45;&gt;index.css</title>
<path fill="none" stroke="#757575" d="M117.93,-144.28C117.92,-144.29 117.92,-144.31 117.92,-144.32"/>
<polygon fill="#757575" stroke="#757575" points="116.82,-133.8 117.91,-144.35 123.64,-135.42 116.82,-133.8"/>
</g>
<!-- setupTests.ts -->
<g id="node37" class="node">
<title>setupTests.ts</title>
<path fill="none" stroke="#cfffac" d="M126.4,-23C126.4,-23 46.74,-23 46.74,-23 42.9,-23 39.07,-19.17 39.07,-15.33 39.07,-15.33 39.07,-7.67 39.07,-7.67 39.07,-3.83 42.9,0 46.74,0 46.74,0 126.4,0 126.4,0 130.24,0 134.07,-3.83 134.07,-7.67 134.07,-7.67 134.07,-15.33 134.07,-15.33 134.07,-19.17 130.24,-23 126.4,-23"/>
<text text-anchor="middle" x="86.57" y="-7.8" font-family="Arial" font-size="14.00" fill="#cfffac">setupTests.ts</text>
</g>
<!-- stories/Button.stories.ts -->
<g id="node38" class="node">
<title>stories/Button.stories.ts</title>
<path fill="none" stroke="#c6c5fe" d="M370.12,-234C370.12,-234 228.46,-234 228.46,-234 224.62,-234 220.79,-230.17 220.79,-226.33 220.79,-226.33 220.79,-218.67 220.79,-218.67 220.79,-214.83 224.62,-211 228.46,-211 228.46,-211 370.12,-211 370.12,-211 373.96,-211 377.79,-214.83 377.79,-218.67 377.79,-218.67 377.79,-226.33 377.79,-226.33 377.79,-230.17 373.96,-234 370.12,-234"/>
<text text-anchor="middle" x="299.29" y="-218.8" font-family="Arial" font-size="14.00" fill="#c6c5fe">stories/Button.stories.ts</text>
</g>
<!-- stories/Button.tsx -->
<g id="node39" class="node">
<title>stories/Button.tsx</title>
<path fill="none" stroke="#c6c5fe" d="M412.07,-234C412.07,-234 307.4,-234 307.4,-234 303.57,-234 299.74,-230.16 299.74,-226.33 299.74,-226.33 299.74,-218.66 299.74,-218.66 299.74,-214.83 303.57,-211 307.4,-211 307.4,-211 412.07,-211 412.07,-211 415.9,-211 419.74,-214.83 419.74,-218.66 419.74,-218.66 419.74,-226.33 419.74,-226.33 419.74,-230.16 415.9,-234 412.07,-234"/>
<text text-anchor="middle" x="359.74" y="-218.8" font-family="Arial" font-size="14.00" fill="#c6c5fe">stories/Button.tsx</text>
</g>
<!-- stories/Button.stories.ts&#45;&gt;stories/Button.tsx -->
<g id="edge65" class="edge">
<title>stories/Button.stories.ts&#45;&gt;stories/Button.tsx</title>
<path fill="none" stroke="#757575" d="M359.69,-222.5C359.7,-222.5 359.71,-222.5 359.71,-222.5"/>
<polygon fill="#757575" stroke="#757575" points="349.75,-226.07 359.73,-222.5 349.7,-219.07 349.75,-226.07"/>
</g>
<!-- stories/button.css -->
<g id="node40" class="node">
<title>stories/button.css</title>
<path fill="none" stroke="#cfffac" d="M413.07,-204.11C413.07,-204.11 306.4,-204.11 306.4,-204.11 302.57,-204.11 298.74,-200.28 298.74,-196.45 298.74,-196.45 298.74,-188.78 298.74,-188.78 298.74,-184.95 302.57,-181.11 306.4,-181.11 306.4,-181.11 413.07,-181.11 413.07,-181.11 416.9,-181.11 420.74,-184.95 420.74,-188.78 420.74,-188.78 420.74,-196.45 420.74,-196.45 420.74,-200.28 416.9,-204.11 413.07,-204.11"/>
<text text-anchor="middle" x="359.74" y="-188.91" font-family="Arial" font-size="14.00" fill="#cfffac">stories/button.css</text>
</g>
<!-- stories/Button.tsx&#45;&gt;stories/button.css -->
<g id="edge66" class="edge">
<title>stories/Button.tsx&#45;&gt;stories/button.css</title>
<path fill="none" stroke="#757575" d="M359.74,-210.69C359.74,-210.56 359.74,-210.42 359.74,-210.29"/>
<polygon fill="#757575" stroke="#757575" points="363.24,-214.34 359.74,-204.34 356.24,-214.34 363.24,-214.34"/>
</g>
<!-- stories/Header.stories.ts -->
<g id="node41" class="node">
<title>stories/Header.stories.ts</title>
<path fill="none" stroke="#c6c5fe" d="M436.44,-278.37C436.44,-278.37 290.77,-278.37 290.77,-278.37 286.94,-278.37 283.1,-274.54 283.1,-270.7 283.1,-270.7 283.1,-263.04 283.1,-263.04 283.1,-259.2 286.94,-255.37 290.77,-255.37 290.77,-255.37 436.44,-255.37 436.44,-255.37 440.27,-255.37 444.1,-259.2 444.1,-263.04 444.1,-263.04 444.1,-270.7 444.1,-270.7 444.1,-274.54 440.27,-278.37 436.44,-278.37"/>
<text text-anchor="middle" x="363.6" y="-263.17" font-family="Arial" font-size="14.00" fill="#c6c5fe">stories/Header.stories.ts</text>
</g>
<!-- stories/Header.tsx -->
<g id="node42" class="node">
<title>stories/Header.tsx</title>
<path fill="none" stroke="#c6c5fe" d="M414.57,-263.89C414.57,-263.89 304.9,-263.89 304.9,-263.89 301.07,-263.89 297.24,-260.05 297.24,-256.22 297.24,-256.22 297.24,-248.55 297.24,-248.55 297.24,-244.72 301.07,-240.89 304.9,-240.89 304.9,-240.89 414.57,-240.89 414.57,-240.89 418.4,-240.89 422.24,-244.72 422.24,-248.55 422.24,-248.55 422.24,-256.22 422.24,-256.22 422.24,-260.05 418.4,-263.89 414.57,-263.89"/>
<text text-anchor="middle" x="359.74" y="-248.69" font-family="Arial" font-size="14.00" fill="#c6c5fe">stories/Header.tsx</text>
</g>
<!-- stories/Header.stories.ts&#45;&gt;stories/Header.tsx -->
<g id="edge67" class="edge">
<title>stories/Header.stories.ts&#45;&gt;stories/Header.tsx</title>
<path fill="none" stroke="#757575" d="M360.48,-255.18C360.47,-255.13 360.45,-255.08 360.44,-255.03"/>
<polygon fill="#757575" stroke="#757575" points="366.37,-263.63 360.4,-254.88 359.6,-265.44 366.37,-263.63"/>
</g>
<!-- stories/Header.tsx&#45;&gt;stories/Button.tsx -->
<g id="edge68" class="edge">
<title>stories/Header.tsx&#45;&gt;stories/Button.tsx</title>
<path fill="none" stroke="#757575" d="M359.74,-240.57C359.74,-240.44 359.74,-240.31 359.74,-240.18"/>
<polygon fill="#757575" stroke="#757575" points="363.24,-244.23 359.74,-234.22 356.24,-244.22 363.24,-244.23"/>
</g>
<!-- stories/header.css -->
<g id="node43" class="node">
<title>stories/header.css</title>
<path fill="none" stroke="#cfffac" d="M428.06,-257.35C428.06,-257.35 318.39,-257.35 318.39,-257.35 314.56,-257.35 310.73,-253.52 310.73,-249.68 310.73,-249.68 310.73,-242.02 310.73,-242.02 310.73,-238.18 314.56,-234.35 318.39,-234.35 318.39,-234.35 428.06,-234.35 428.06,-234.35 431.89,-234.35 435.73,-238.18 435.73,-242.02 435.73,-242.02 435.73,-249.68 435.73,-249.68 435.73,-253.52 431.89,-257.35 428.06,-257.35"/>
<text text-anchor="middle" x="373.23" y="-242.15" font-family="Arial" font-size="14.00" fill="#cfffac">stories/header.css</text>
</g>
<!-- stories/Header.tsx&#45;&gt;stories/header.css -->
<g id="edge69" class="edge">
<title>stories/Header.tsx&#45;&gt;stories/header.css</title>
<path fill="none" stroke="#757575" d="M373.07,-245.92C373.1,-245.91 373.12,-245.9 373.14,-245.89"/>
<polygon fill="#757575" stroke="#757575" points="365.72,-253.39 373.19,-245.87 362.66,-247.09 365.72,-253.39"/>
</g>
<!-- stories/Page.stories.ts -->
<g id="node44" class="node">
<title>stories/Page.stories.ts</title>
<path fill="none" stroke="#c6c5fe" d="M416.96,-249.35C416.96,-249.35 283.29,-249.35 283.29,-249.35 279.46,-249.35 275.62,-245.52 275.62,-241.68 275.62,-241.68 275.62,-234.02 275.62,-234.02 275.62,-230.18 279.46,-226.35 283.29,-226.35 283.29,-226.35 416.96,-226.35 416.96,-226.35 420.79,-226.35 424.62,-230.18 424.62,-234.02 424.62,-234.02 424.62,-241.68 424.62,-241.68 424.62,-245.52 420.79,-249.35 416.96,-249.35"/>
<text text-anchor="middle" x="350.12" y="-234.15" font-family="Arial" font-size="14.00" fill="#c6c5fe">stories/Page.stories.ts</text>
</g>
<!-- stories/Page.tsx -->
<g id="node45" class="node">
<title>stories/Page.tsx</title>
<path fill="none" stroke="#c6c5fe" d="M395.08,-257.35C395.08,-257.35 297.41,-257.35 297.41,-257.35 293.58,-257.35 289.75,-253.52 289.75,-249.68 289.75,-249.68 289.75,-242.02 289.75,-242.02 289.75,-238.18 293.58,-234.35 297.41,-234.35 297.41,-234.35 395.08,-234.35 395.08,-234.35 398.91,-234.35 402.75,-238.18 402.75,-242.02 402.75,-242.02 402.75,-249.68 402.75,-249.68 402.75,-253.52 398.91,-257.35 395.08,-257.35"/>
<text text-anchor="middle" x="346.25" y="-242.15" font-family="Arial" font-size="14.00" fill="#c6c5fe">stories/Page.tsx</text>
</g>
<!-- stories/Page.stories.ts&#45;&gt;stories/Page.tsx -->
<g id="edge70" class="edge">
<title>stories/Page.stories.ts&#45;&gt;stories/Page.tsx</title>
<path fill="none" stroke="#757575" d="M346.29,-245.76C346.28,-245.78 346.28,-245.79 346.27,-245.8"/>
<polygon fill="#757575" stroke="#757575" points="347.49,-235.29 346.26,-245.83 353.79,-238.36 347.49,-235.29"/>
</g>
<!-- stories/Page.tsx&#45;&gt;stories/Header.tsx -->
<g id="edge71" class="edge">
<title>stories/Page.tsx&#45;&gt;stories/Header.tsx</title>
<path fill="none" stroke="#757575" d="M359.58,-252.31C359.61,-252.33 359.63,-252.34 359.65,-252.35"/>
<polygon fill="#757575" stroke="#757575" points="349.17,-251.15 359.7,-252.37 352.23,-244.85 349.17,-251.15"/>
</g>
<!-- stories/page.css -->
<g id="node46" class="node">
<title>stories/page.css</title>
<path fill="none" stroke="#cfffac" d="M391.7,-265.35C391.7,-265.35 293.04,-265.35 293.04,-265.35 289.2,-265.35 285.37,-261.52 285.37,-257.69 285.37,-257.69 285.37,-250.02 285.37,-250.02 285.37,-246.19 289.2,-242.35 293.04,-242.35 293.04,-242.35 391.7,-242.35 391.7,-242.35 395.54,-242.35 399.37,-246.19 399.37,-250.02 399.37,-250.02 399.37,-257.69 399.37,-257.69 399.37,-261.52 395.54,-265.35 391.7,-265.35"/>
<text text-anchor="middle" x="342.37" y="-250.15" font-family="Arial" font-size="14.00" fill="#cfffac">stories/page.css</text>
</g>
<!-- stories/Page.tsx&#45;&gt;stories/page.css -->
<g id="edge72" class="edge">
<title>stories/Page.tsx&#45;&gt;stories/page.css</title>
<path fill="none" stroke="#757575" d="M342.41,-253.76C342.41,-253.78 342.4,-253.79 342.39,-253.8"/>
<polygon fill="#757575" stroke="#757575" points="343.61,-243.3 342.38,-253.83 349.91,-246.36 343.61,-243.3"/>
</g>
</g>
</svg>
