<?xml version="1.0" encoding="UTF-8" standalone="no"?>
<!DOCTYPE svg PUBLIC "-//W3C//DTD SVG 1.1//EN"
 "http://www.w3.org/Graphics/SVG/1.1/DTD/svg11.dtd">
<!-- Generated by graphviz version 2.43.0 (0)
 -->
<!-- Title: G Pages: 1 -->
<svg width="439pt" height="234pt"
 viewBox="0.00 0.00 438.89 234.20" xmlns="http://www.w3.org/2000/svg" xmlns:xlink="http://www.w3.org/1999/xlink">
<g id="graph0" class="graph" transform="scale(1 1) rotate(0) translate(21.6 212.6)">
<title>G</title>
<polygon fill="#111111" stroke="transparent" points="-21.6,21.6 -21.6,-212.6 417.29,-212.6 417.29,21.6 -21.6,21.6"/>
<!-- App.tsx -->
<g id="node1" class="node">
<title>App.tsx</title>
<path fill="none" stroke="#c6c5fe" d="M161.08,-96.21C161.08,-96.21 114.41,-96.21 114.41,-96.21 110.58,-96.21 106.74,-92.37 106.74,-88.54 106.74,-88.54 106.74,-80.87 106.74,-80.87 106.74,-77.04 110.58,-73.21 114.41,-73.21 114.41,-73.21 161.08,-73.21 161.08,-73.21 164.91,-73.21 168.74,-77.04 168.74,-80.87 168.74,-80.87 168.74,-88.54 168.74,-88.54 168.74,-92.37 164.91,-96.21 161.08,-96.21"/>
<text text-anchor="middle" x="137.74" y="-81.01" font-family="Arial" font-size="14.00" fill="#c6c5fe">App.tsx</text>
</g>
<!-- pages/GameSetup.tsx -->
<g id="node2" class="node">
<title>pages/GameSetup.tsx</title>
<path fill="none" stroke="#c6c5fe" d="M235.3,-136.84C235.3,-136.84 98.63,-136.84 98.63,-136.84 94.8,-136.84 90.96,-133.01 90.96,-129.18 90.96,-129.18 90.96,-121.51 90.96,-121.51 90.96,-117.68 94.8,-113.84 98.63,-113.84 98.63,-113.84 235.3,-113.84 235.3,-113.84 239.13,-113.84 242.96,-117.68 242.96,-121.51 242.96,-121.51 242.96,-129.18 242.96,-129.18 242.96,-133.01 239.13,-136.84 235.3,-136.84"/>
<text text-anchor="middle" x="166.96" y="-121.64" font-family="Arial" font-size="14.00" fill="#c6c5fe">pages/GameSetup.tsx</text>
</g>
<!-- App.tsx&#45;&gt;pages/GameSetup.tsx -->
<g id="edge1" class="edge">
<title>App.tsx&#45;&gt;pages/GameSetup.tsx</title>
<path fill="none" stroke="#757575" d="M146.04,-96.24C148.12,-99.13 150.41,-102.32 152.69,-105.49"/>
<polygon fill="#757575" stroke="#757575" points="149.87,-107.56 158.55,-113.64 155.55,-103.47 149.87,-107.56"/>
</g>
<!-- pages/Homepage.tsx -->
<g id="node3" class="node">
<title>pages/Homepage.tsx</title>
<path fill="none" stroke="#c6c5fe" d="M200.12,-112.21C200.12,-112.21 70.46,-112.21 70.46,-112.21 66.62,-112.21 62.79,-108.38 62.79,-104.54 62.79,-104.54 62.79,-96.88 62.79,-96.88 62.79,-93.04 66.62,-89.21 70.46,-89.21 70.46,-89.21 200.12,-89.21 200.12,-89.21 203.96,-89.21 207.79,-93.04 207.79,-96.88 207.79,-96.88 207.79,-104.54 207.79,-104.54 207.79,-108.38 203.96,-112.21 200.12,-112.21"/>
<text text-anchor="middle" x="135.29" y="-97.01" font-family="Arial" font-size="14.00" fill="#c6c5fe">pages/Homepage.tsx</text>
</g>
<!-- App.tsx&#45;&gt;pages/Homepage.tsx -->
<g id="edge2" class="edge">
<title>App.tsx&#45;&gt;pages/Homepage.tsx</title>
<path fill="none" stroke="#757575" d="M135.96,-96.34C135.95,-96.42 135.94,-96.49 135.93,-96.57"/>
<polygon fill="#757575" stroke="#757575" points="133.95,-86.38 135.89,-96.8 140.87,-87.44 133.95,-86.38"/>
</g>
<!-- pages/Join.tsx -->
<g id="node4" class="node">
<title>pages/Join.tsx</title>
<path fill="none" stroke="#c6c5fe" d="M202.8,-137.04C202.8,-137.04 115.13,-137.04 115.13,-137.04 111.3,-137.04 107.46,-133.21 107.46,-129.38 107.46,-129.38 107.46,-121.71 107.46,-121.71 107.46,-117.88 111.3,-114.04 115.13,-114.04 115.13,-114.04 202.8,-114.04 202.8,-114.04 206.63,-114.04 210.46,-117.88 210.46,-121.71 210.46,-121.71 210.46,-129.38 210.46,-129.38 210.46,-133.21 206.63,-137.04 202.8,-137.04"/>
<text text-anchor="middle" x="158.96" y="-121.84" font-family="Arial" font-size="14.00" fill="#c6c5fe">pages/Join.tsx</text>
</g>
<!-- App.tsx&#45;&gt;pages/Join.tsx -->
<g id="edge3" class="edge">
<title>App.tsx&#45;&gt;pages/Join.tsx</title>
<path fill="none" stroke="#757575" d="M143.77,-96.3C145.14,-98.95 146.65,-101.85 148.16,-104.75"/>
<polygon fill="#757575" stroke="#757575" points="145.13,-106.52 152.85,-113.78 151.34,-103.29 145.13,-106.52"/>
</g>
<!-- pages/Lobby.tsx -->
<g id="node5" class="node">
<title>pages/Lobby.tsx</title>
<path fill="none" stroke="#c6c5fe" d="M200.45,-73.25C200.45,-73.25 101.79,-73.25 101.79,-73.25 97.95,-73.25 94.12,-69.42 94.12,-65.59 94.12,-65.59 94.12,-57.92 94.12,-57.92 94.12,-54.09 97.95,-50.25 101.79,-50.25 101.79,-50.25 200.45,-50.25 200.45,-50.25 204.29,-50.25 208.12,-54.09 208.12,-57.92 208.12,-57.92 208.12,-65.59 208.12,-65.59 208.12,-69.42 204.29,-73.25 200.45,-73.25"/>
<text text-anchor="middle" x="151.12" y="-58.05" font-family="Arial" font-size="14.00" fill="#c6c5fe">pages/Lobby.tsx</text>
</g>
<!-- App.tsx&#45;&gt;pages/Lobby.tsx -->
<g id="edge4" class="edge">
<title>App.tsx&#45;&gt;pages/Lobby.tsx</title>
<path fill="none" stroke="#757575" d="M144.59,-72.96C144.61,-72.92 144.64,-72.87 144.67,-72.83"/>
<polygon fill="#757575" stroke="#757575" points="142.73,-83.1 144.74,-72.7 136.68,-79.57 142.73,-83.1"/>
</g>
<!-- pages/Quiz.tsx -->
<g id="node6" class="node">
<title>pages/Quiz.tsx</title>
<path fill="none" stroke="#c6c5fe" d="M181.3,-104.21C181.3,-104.21 89.63,-104.21 89.63,-104.21 85.8,-104.21 81.97,-100.37 81.97,-96.54 81.97,-96.54 81.97,-88.87 81.97,-88.87 81.97,-85.04 85.8,-81.21 89.63,-81.21 89.63,-81.21 181.3,-81.21 181.3,-81.21 185.13,-81.21 188.97,-85.04 188.97,-88.87 188.97,-88.87 188.97,-96.54 188.97,-96.54 188.97,-100.37 185.13,-104.21 181.3,-104.21"/>
<text text-anchor="middle" x="135.47" y="-89.01" font-family="Arial" font-size="14.00" fill="#c6c5fe">pages/Quiz.tsx</text>
</g>
<!-- App.tsx&#45;&gt;pages/Quiz.tsx -->
<g id="edge5" class="edge">
<title>App.tsx&#45;&gt;pages/Quiz.tsx</title>
<path fill="none" stroke="#757575" d="M135.49,-92.62C135.49,-92.63 135.48,-92.65 135.48,-92.66"/>
<polygon fill="#757575" stroke="#757575" points="134.87,-82.1 135.47,-92.69 141.6,-84.03 134.87,-82.1"/>
</g>
<!-- pages/Results.tsx -->
<g id="node7" class="node">
<title>pages/Results.tsx</title>
<path fill="none" stroke="#c6c5fe" d="M190.92,-87.31C190.92,-87.31 83.25,-87.31 83.25,-87.31 79.42,-87.31 75.58,-83.47 75.58,-79.64 75.58,-79.64 75.58,-71.97 75.58,-71.97 75.58,-68.14 79.42,-64.31 83.25,-64.31 83.25,-64.31 190.92,-64.31 190.92,-64.31 194.75,-64.31 198.58,-68.14 198.58,-71.97 198.58,-71.97 198.58,-79.64 198.58,-79.64 198.58,-83.47 194.75,-87.31 190.92,-87.31"/>
<text text-anchor="middle" x="137.08" y="-72.11" font-family="Arial" font-size="14.00" fill="#c6c5fe">pages/Results.tsx</text>
</g>
<!-- App.tsx&#45;&gt;pages/Results.tsx -->
<g id="edge6" class="edge">
<title>App.tsx&#45;&gt;pages/Results.tsx</title>
<path fill="none" stroke="#757575" d="M137.09,-75.91C137.09,-75.89 137.09,-75.88 137.09,-75.86"/>
<polygon fill="#757575" stroke="#757575" points="141.34,-85.53 137.08,-75.83 134.36,-86.07 141.34,-85.53"/>
</g>
<!-- atoms/index.ts -->
<g id="node8" class="node">
<title>atoms/index.ts</title>
<path fill="none" stroke="#c6c5fe" d="M203.45,-70.53C203.45,-70.53 114.79,-70.53 114.79,-70.53 110.95,-70.53 107.12,-66.7 107.12,-62.87 107.12,-62.87 107.12,-55.2 107.12,-55.2 107.12,-51.37 110.95,-47.53 114.79,-47.53 114.79,-47.53 203.45,-47.53 203.45,-47.53 207.29,-47.53 211.12,-51.37 211.12,-55.2 211.12,-55.2 211.12,-62.87 211.12,-62.87 211.12,-66.7 207.29,-70.53 203.45,-70.53"/>
<text text-anchor="middle" x="159.12" y="-55.33" font-family="Arial" font-size="14.00" fill="#c6c5fe">atoms/index.ts</text>
</g>
<!-- pages/GameSetup.tsx&#45;&gt;atoms/index.ts -->
<g id="edge29" class="edge">
<title>pages/GameSetup.tsx&#45;&gt;atoms/index.ts</title>
<path fill="none" stroke="#757575" d="M165.6,-113.79C164.53,-104.78 163.02,-91.98 161.72,-81.03"/>
<polygon fill="#757575" stroke="#757575" points="165.17,-80.42 160.52,-70.9 158.22,-81.24 165.17,-80.42"/>
</g>
<!-- lib/mutations.ts -->
<g id="node11" class="node">
<title>lib/mutations.ts</title>
<path fill="none" stroke="#c6c5fe" d="M188.79,-128.22C188.79,-128.22 97.12,-128.22 97.12,-128.22 93.29,-128.22 89.45,-124.38 89.45,-120.55 89.45,-120.55 89.45,-112.88 89.45,-112.88 89.45,-109.05 93.29,-105.22 97.12,-105.22 97.12,-105.22 188.79,-105.22 188.79,-105.22 192.62,-105.22 196.45,-109.05 196.45,-112.88 196.45,-112.88 196.45,-120.55 196.45,-120.55 196.45,-124.38 192.62,-128.22 188.79,-128.22"/>
<text text-anchor="middle" x="142.95" y="-113.02" font-family="Arial" font-size="14.00" fill="#c6c5fe">lib/mutations.ts</text>
</g>
<!-- pages/GameSetup.tsx&#45;&gt;lib/mutations.ts -->
<g id="edge32" class="edge">
<title>pages/GameSetup.tsx&#45;&gt;lib/mutations.ts</title>
<path fill="none" stroke="#757575" d="M143.02,-116.74C143.01,-116.74 143,-116.73 142.99,-116.73"/>
<polygon fill="#757575" stroke="#757575" points="153.58,-116.84 142.97,-116.72 151.19,-123.43 153.58,-116.84"/>
</g>
<!-- components/Alert.tsx -->
<g id="node12" class="node">
<title>components/Alert.tsx</title>
<path fill="none" stroke="#cfffac" d="M214.79,-134.5C214.79,-134.5 87.13,-134.5 87.13,-134.5 83.29,-134.5 79.46,-130.67 79.46,-126.83 79.46,-126.83 79.46,-119.17 79.46,-119.17 79.46,-115.33 83.29,-111.5 87.13,-111.5 87.13,-111.5 214.79,-111.5 214.79,-111.5 218.63,-111.5 222.46,-115.33 222.46,-119.17 222.46,-119.17 222.46,-126.83 222.46,-126.83 222.46,-130.67 218.63,-134.5 214.79,-134.5"/>
<text text-anchor="middle" x="150.96" y="-119.3" font-family="Arial" font-size="14.00" fill="#cfffac">components/Alert.tsx</text>
</g>
<!-- pages/GameSetup.tsx&#45;&gt;components/Alert.tsx -->
<g id="edge30" class="edge">
<title>pages/GameSetup.tsx&#45;&gt;components/Alert.tsx</title>
<path fill="none" stroke="#757575" d="M151.01,-123.01C151,-123 150.99,-123 150.99,-123"/>
<polygon fill="#757575" stroke="#757575" points="161.4,-121.04 150.97,-123 160.34,-127.97 161.4,-121.04"/>
</g>
<!-- components/LobbyStatus.tsx -->
<g id="node15" class="node">
<title>components/LobbyStatus.tsx</title>
<path fill="none" stroke="#c6c5fe" d="M262.8,-134.05C262.8,-134.05 87.13,-134.05 87.13,-134.05 83.3,-134.05 79.47,-130.22 79.47,-126.39 79.47,-126.39 79.47,-118.72 79.47,-118.72 79.47,-114.89 83.3,-111.05 87.13,-111.05 87.13,-111.05 262.8,-111.05 262.8,-111.05 266.63,-111.05 270.47,-114.89 270.47,-118.72 270.47,-118.72 270.47,-126.39 270.47,-126.39 270.47,-130.22 266.63,-134.05 262.8,-134.05"/>
<text text-anchor="middle" x="174.97" y="-118.85" font-family="Arial" font-size="14.00" fill="#c6c5fe">components/LobbyStatus.tsx</text>
</g>
<!-- pages/GameSetup.tsx&#45;&gt;components/LobbyStatus.tsx -->
<g id="edge31" class="edge">
<title>pages/GameSetup.tsx&#45;&gt;components/LobbyStatus.tsx</title>
<path fill="none" stroke="#757575" d="M174.88,-122.58C174.89,-122.58 174.9,-122.57 174.91,-122.57"/>
<polygon fill="#757575" stroke="#757575" points="166.66,-129.18 174.94,-122.56 164.34,-122.57 166.66,-129.18"/>
</g>
<!-- lib/supabaseClient.ts -->
<g id="node16" class="node">
<title>lib/supabaseClient.ts</title>
<path fill="none" stroke="#cfffac" d="M253.75,-104.06C253.75,-104.06 128.08,-104.06 128.08,-104.06 124.25,-104.06 120.41,-100.22 120.41,-96.39 120.41,-96.39 120.41,-88.72 120.41,-88.72 120.41,-84.89 124.25,-81.06 128.08,-81.06 128.08,-81.06 253.75,-81.06 253.75,-81.06 257.58,-81.06 261.41,-84.89 261.41,-88.72 261.41,-88.72 261.41,-96.39 261.41,-96.39 261.41,-100.22 257.58,-104.06 253.75,-104.06"/>
<text text-anchor="middle" x="190.91" y="-88.86" font-family="Arial" font-size="14.00" fill="#cfffac">lib/supabaseClient.ts</text>
</g>
<!-- pages/GameSetup.tsx&#45;&gt;lib/supabaseClient.ts -->
<g id="edge33" class="edge">
<title>pages/GameSetup.tsx&#45;&gt;lib/supabaseClient.ts</title>
<path fill="none" stroke="#757575" d="M175.61,-113.51C175.81,-113.23 176.01,-112.95 176.22,-112.67"/>
<polygon fill="#757575" stroke="#757575" points="179.13,-114.62 182.2,-104.48 173.47,-110.5 179.13,-114.62"/>
</g>
<!-- lib/types.ts -->
<g id="node23" class="node">
<title>lib/types.ts</title>
<path fill="none" stroke="#c6c5fe" d="M221.2,-88.05C221.2,-88.05 156.53,-88.05 156.53,-88.05 152.7,-88.05 148.86,-84.21 148.86,-80.38 148.86,-80.38 148.86,-72.71 148.86,-72.71 148.86,-68.88 152.7,-65.05 156.53,-65.05 156.53,-65.05 221.2,-65.05 221.2,-65.05 225.03,-65.05 228.86,-68.88 228.86,-72.71 228.86,-72.71 228.86,-80.38 228.86,-80.38 228.86,-84.21 225.03,-88.05 221.2,-88.05"/>
<text text-anchor="middle" x="188.86" y="-72.85" font-family="Arial" font-size="14.00" fill="#c6c5fe">lib/types.ts</text>
</g>
<!-- pages/GameSetup.tsx&#45;&gt;lib/types.ts -->
<g id="edge34" class="edge">
<title>pages/GameSetup.tsx&#45;&gt;lib/types.ts</title>
<path fill="none" stroke="#757575" d="M172.15,-113.78C174.3,-108.99 176.87,-103.27 179.34,-97.78"/>
<polygon fill="#757575" stroke="#757575" points="182.66,-98.92 183.56,-88.37 176.27,-96.06 182.66,-98.92"/>
</g>
<!-- components/ActiveGames.tsx -->
<g id="node10" class="node">
<title>components/ActiveGames.tsx</title>
<path fill="none" stroke="#c6c5fe" d="M228.44,-120.22C228.44,-120.22 46.77,-120.22 46.77,-120.22 42.94,-120.22 39.11,-116.38 39.11,-112.55 39.11,-112.55 39.11,-104.88 39.11,-104.88 39.11,-101.05 42.94,-97.22 46.77,-97.22 46.77,-97.22 228.44,-97.22 228.44,-97.22 232.27,-97.22 236.11,-101.05 236.11,-104.88 236.11,-104.88 236.11,-112.55 236.11,-112.55 236.11,-116.38 232.27,-120.22 228.44,-120.22"/>
<text text-anchor="middle" x="137.61" y="-105.02" font-family="Arial" font-size="14.00" fill="#c6c5fe">components/ActiveGames.tsx</text>
</g>
<!-- pages/Homepage.tsx&#45;&gt;components/ActiveGames.tsx -->
<g id="edge35" class="edge">
<title>pages/Homepage.tsx&#45;&gt;components/ActiveGames.tsx</title>
<path fill="none" stroke="#757575" d="M137.58,-108.63C137.58,-108.64 137.59,-108.65 137.59,-108.67"/>
<polygon fill="#757575" stroke="#757575" points="131.43,-100.07 137.6,-108.69 138.16,-98.1 131.43,-100.07"/>
</g>
<!-- pages/Homepage.tsx&#45;&gt;lib/mutations.ts -->
<g id="edge38" class="edge">
<title>pages/Homepage.tsx&#45;&gt;lib/mutations.ts</title>
<path fill="none" stroke="#757575" d="M140.86,-112.34C140.9,-112.42 140.93,-112.5 140.97,-112.57"/>
<polygon fill="#757575" stroke="#757575" points="133.6,-105.29 141.08,-112.8 139.92,-102.27 133.6,-105.29"/>
</g>
<!-- pages/Homepage.tsx&#45;&gt;components/Alert.tsx -->
<g id="edge36" class="edge">
<title>pages/Homepage.tsx&#45;&gt;components/Alert.tsx</title>
<path fill="none" stroke="#757575" d="M143.49,-112.38C143.52,-112.42 143.55,-112.46 143.58,-112.5"/>
<polygon fill="#757575" stroke="#757575" points="135.05,-106.46 143.67,-112.63 140.78,-102.43 135.05,-106.46"/>
</g>
<!-- components/PasswordModal.tsx -->
<g id="node18" class="node">
<title>components/PasswordModal.tsx</title>
<path fill="none" stroke="#cfffac" d="M225.6,-114.68C225.6,-114.68 28.94,-114.68 28.94,-114.68 25.1,-114.68 21.27,-110.85 21.27,-107.02 21.27,-107.02 21.27,-99.35 21.27,-99.35 21.27,-95.52 25.1,-91.68 28.94,-91.68 28.94,-91.68 225.6,-91.68 225.6,-91.68 229.44,-91.68 233.27,-95.52 233.27,-99.35 233.27,-99.35 233.27,-107.02 233.27,-107.02 233.27,-110.85 229.44,-114.68 225.6,-114.68"/>
<text text-anchor="middle" x="127.27" y="-99.48" font-family="Arial" font-size="14.00" fill="#cfffac">components/PasswordModal.tsx</text>
</g>
<!-- pages/Homepage.tsx&#45;&gt;components/PasswordModal.tsx -->
<g id="edge37" class="edge">
<title>pages/Homepage.tsx&#45;&gt;components/PasswordModal.tsx</title>
<path fill="none" stroke="#757575" d="M127.36,-103.15C127.34,-103.16 127.33,-103.16 127.32,-103.17"/>
<polygon fill="#757575" stroke="#757575" points="135.81,-96.86 127.29,-103.17 137.89,-103.55 135.81,-96.86"/>
</g>
<!-- pages/Join.tsx&#45;&gt;lib/mutations.ts -->
<g id="edge41" class="edge">
<title>pages/Join.tsx&#45;&gt;lib/mutations.ts</title>
<path fill="none" stroke="#757575" d="M143,-116.74C142.99,-116.74 142.99,-116.73 142.98,-116.73"/>
<polygon fill="#757575" stroke="#757575" points="153.43,-118.52 142.97,-116.72 150.03,-124.65 153.43,-118.52"/>
</g>
<!-- pages/Join.tsx&#45;&gt;components/Alert.tsx -->
<g id="edge39" class="edge">
<title>pages/Join.tsx&#45;&gt;components/Alert.tsx</title>
<path fill="none" stroke="#757575" d="M151.05,-123.03C151.04,-123.02 151.02,-123.02 151.01,-123.02"/>
<polygon fill="#757575" stroke="#757575" points="161.58,-122.73 150.98,-123.01 159.45,-129.4 161.58,-122.73"/>
</g>
<!-- pages/Join.tsx&#45;&gt;lib/supabaseClient.ts -->
<g id="edge42" class="edge">
<title>pages/Join.tsx&#45;&gt;lib/supabaseClient.ts</title>
<path fill="none" stroke="#757575" d="M170.14,-114.01C170.89,-113.23 171.66,-112.43 172.44,-111.62"/>
<polygon fill="#757575" stroke="#757575" points="175.03,-113.98 179.47,-104.37 170,-109.11 175.03,-113.98"/>
</g>
<!-- components/TeamLogoPicker.tsx -->
<g id="node19" class="node">
<title>components/TeamLogoPicker.tsx</title>
<path fill="none" stroke="#c6c5fe" d="M291.99,-112.06C291.99,-112.06 91.32,-112.06 91.32,-112.06 87.49,-112.06 83.66,-108.22 83.66,-104.39 83.66,-104.39 83.66,-96.72 83.66,-96.72 83.66,-92.89 87.49,-89.06 91.32,-89.06 91.32,-89.06 291.99,-89.06 291.99,-89.06 295.82,-89.06 299.66,-92.89 299.66,-96.72 299.66,-96.72 299.66,-104.39 299.66,-104.39 299.66,-108.22 295.82,-112.06 291.99,-112.06"/>
<text text-anchor="middle" x="191.66" y="-96.86" font-family="Arial" font-size="14.00" fill="#c6c5fe">components/TeamLogoPicker.tsx</text>
</g>
<!-- pages/Join.tsx&#45;&gt;components/TeamLogoPicker.tsx -->
<g id="edge40" class="edge">
<title>pages/Join.tsx&#45;&gt;components/TeamLogoPicker.tsx</title>
<path fill="none" stroke="#757575" d="M174.16,-113.93C174.26,-113.85 174.36,-113.78 174.46,-113.7"/>
<polygon fill="#757575" stroke="#757575" points="170.75,-120.94 176.57,-112.09 166.5,-115.38 170.75,-120.94"/>
</g>
<!-- pages/Lobby.tsx&#45;&gt;atoms/index.ts -->
<g id="edge43" class="edge">
<title>pages/Lobby.tsx&#45;&gt;atoms/index.ts</title>
<path fill="none" stroke="#757575" d="M159.03,-59.06C159.05,-59.06 159.06,-59.05 159.07,-59.05"/>
<polygon fill="#757575" stroke="#757575" points="150.76,-65.6 159.1,-59.04 148.49,-58.97 150.76,-65.6"/>
</g>
<!-- lib/types/supabase.ts -->
<g id="node9" class="node">
<title>lib/types/supabase.ts</title>
<path fill="none" stroke="#cfffac" d="M238.96,-73.91C238.96,-73.91 111.3,-73.91 111.3,-73.91 107.46,-73.91 103.63,-70.08 103.63,-66.25 103.63,-66.25 103.63,-58.58 103.63,-58.58 103.63,-54.75 107.46,-50.91 111.3,-50.91 111.3,-50.91 238.96,-50.91 238.96,-50.91 242.8,-50.91 246.63,-54.75 246.63,-58.58 246.63,-58.58 246.63,-66.25 246.63,-66.25 246.63,-70.08 242.8,-73.91 238.96,-73.91"/>
<text text-anchor="middle" x="175.13" y="-58.71" font-family="Arial" font-size="14.00" fill="#cfffac">lib/types/supabase.ts</text>
</g>
<!-- pages/Lobby.tsx&#45;&gt;lib/types/supabase.ts -->
<g id="edge47" class="edge">
<title>pages/Lobby.tsx&#45;&gt;lib/types/supabase.ts</title>
<path fill="none" stroke="#757575" d="M175.06,-62.41C175.07,-62.41 175.08,-62.41 175.09,-62.41"/>
<polygon fill="#757575" stroke="#757575" points="165.01,-65.59 175.11,-62.41 165.23,-58.59 165.01,-65.59"/>
</g>
<!-- pages/Lobby.tsx&#45;&gt;lib/mutations.ts -->
<g id="edge44" class="edge">
<title>pages/Lobby.tsx&#45;&gt;lib/mutations.ts</title>
<path fill="none" stroke="#757575" d="M149.39,-73.41C148.46,-79.68 147.28,-87.61 146.19,-94.97"/>
<polygon fill="#757575" stroke="#757575" points="142.69,-94.67 144.68,-105.08 149.62,-95.7 142.69,-94.67"/>
</g>
<!-- pages/Lobby.tsx&#45;&gt;lib/supabaseClient.ts -->
<g id="edge46" class="edge">
<title>pages/Lobby.tsx&#45;&gt;lib/supabaseClient.ts</title>
<path fill="none" stroke="#757575" d="M166.39,-73.57C166.88,-73.95 167.38,-74.34 167.88,-74.73"/>
<polygon fill="#757575" stroke="#757575" points="165.96,-77.67 176.01,-81.02 170.25,-72.13 165.96,-77.67"/>
</g>
<!-- lib/sessionHooks.ts -->
<g id="node28" class="node">
<title>lib/sessionHooks.ts</title>
<path fill="none" stroke="#c6c5fe" d="M201.45,-79.3C201.45,-79.3 84.78,-79.3 84.78,-79.3 80.95,-79.3 77.12,-75.47 77.12,-71.63 77.12,-71.63 77.12,-63.97 77.12,-63.97 77.12,-60.13 80.95,-56.3 84.78,-56.3 84.78,-56.3 201.45,-56.3 201.45,-56.3 205.28,-56.3 209.12,-60.13 209.12,-63.97 209.12,-63.97 209.12,-71.63 209.12,-71.63 209.12,-75.47 205.28,-79.3 201.45,-79.3"/>
<text text-anchor="middle" x="143.12" y="-64.1" font-family="Arial" font-size="14.00" fill="#c6c5fe">lib/sessionHooks.ts</text>
</g>
<!-- pages/Lobby.tsx&#45;&gt;lib/sessionHooks.ts -->
<g id="edge45" class="edge">
<title>pages/Lobby.tsx&#45;&gt;lib/sessionHooks.ts</title>
<path fill="none" stroke="#757575" d="M143.21,-67.73C143.19,-67.74 143.18,-67.75 143.17,-67.76"/>
<polygon fill="#757575" stroke="#757575" points="149.01,-58.95 143.14,-67.78 153.24,-64.54 149.01,-58.95"/>
</g>
<!-- pages/Quiz.tsx&#45;&gt;lib/mutations.ts -->
<g id="edge48" class="edge">
<title>pages/Quiz.tsx&#45;&gt;lib/mutations.ts</title>
<path fill="none" stroke="#757575" d="M139.12,-104.43C139.15,-104.53 139.18,-104.62 139.21,-104.72"/>
<polygon fill="#757575" stroke="#757575" points="132.98,-96.5 139.3,-105 139.66,-94.41 132.98,-96.5"/>
</g>
<!-- pages/Quiz.tsx&#45;&gt;lib/types.ts -->
<g id="edge51" class="edge">
<title>pages/Quiz.tsx&#45;&gt;lib/types.ts</title>
<path fill="none" stroke="#757575" d="M173.71,-81.13C173.77,-81.11 173.84,-81.09 173.91,-81.07"/>
<polygon fill="#757575" stroke="#757575" points="165.55,-87.26 174.11,-81.01 163.52,-80.56 165.55,-87.26"/>
</g>
<!-- lib/realtimeHooks.ts -->
<g id="node26" class="node">
<title>lib/realtimeHooks.ts</title>
<path fill="none" stroke="#c6c5fe" d="M251.46,-96.05C251.46,-96.05 131.79,-96.05 131.79,-96.05 127.96,-96.05 124.12,-92.22 124.12,-88.38 124.12,-88.38 124.12,-80.72 124.12,-80.72 124.12,-76.88 127.96,-73.05 131.79,-73.05 131.79,-73.05 251.46,-73.05 251.46,-73.05 255.29,-73.05 259.12,-76.88 259.12,-80.72 259.12,-80.72 259.12,-88.38 259.12,-88.38 259.12,-92.22 255.29,-96.05 251.46,-96.05"/>
<text text-anchor="middle" x="191.62" y="-80.85" font-family="Arial" font-size="14.00" fill="#c6c5fe">lib/realtimeHooks.ts</text>
</g>
<!-- pages/Quiz.tsx&#45;&gt;lib/realtimeHooks.ts -->
<g id="edge49" class="edge">
<title>pages/Quiz.tsx&#45;&gt;lib/realtimeHooks.ts</title>
<path fill="none" stroke="#757575" d="M189.21,-84.9C189.31,-84.89 189.4,-84.87 189.49,-84.86"/>
<polygon fill="#757575" stroke="#757575" points="180.36,-89.73 189.76,-84.82 179.35,-82.8 180.36,-89.73"/>
</g>
<!-- pages/Quiz.tsx&#45;&gt;lib/sessionHooks.ts -->
<g id="edge50" class="edge">
<title>pages/Quiz.tsx&#45;&gt;lib/sessionHooks.ts</title>
<path fill="none" stroke="#757575" d="M139.02,-81.13C139.06,-81 139.1,-80.88 139.14,-80.75"/>
<polygon fill="#757575" stroke="#757575" points="139.9,-90.19 139.49,-79.6 133.21,-88.13 139.9,-90.19"/>
</g>
<!-- pages/Results.tsx&#45;&gt;lib/mutations.ts -->
<g id="edge52" class="edge">
<title>pages/Results.tsx&#45;&gt;lib/mutations.ts</title>
<path fill="none" stroke="#757575" d="M138.75,-87.42C139.1,-89.86 139.48,-92.51 139.86,-95.18"/>
<polygon fill="#757575" stroke="#757575" points="136.42,-95.81 141.3,-105.22 143.35,-94.82 136.42,-95.81"/>
</g>
<!-- pages/Results.tsx&#45;&gt;lib/supabaseClient.ts -->
<g id="edge54" class="edge">
<title>pages/Results.tsx&#45;&gt;lib/supabaseClient.ts</title>
<path fill="none" stroke="#757575" d="M174.17,-87.35C174.25,-87.37 174.32,-87.39 174.39,-87.42"/>
<polygon fill="#757575" stroke="#757575" points="164.02,-87.85 174.61,-87.48 166.1,-81.17 164.02,-87.85"/>
</g>
<!-- pages/Results.tsx&#45;&gt;lib/sessionHooks.ts -->
<g id="edge53" class="edge">
<title>pages/Results.tsx&#45;&gt;lib/sessionHooks.ts</title>
<path fill="none" stroke="#757575" d="M143.05,-67.89C143.06,-67.88 143.07,-67.86 143.08,-67.85"/>
<polygon fill="#757575" stroke="#757575" points="139.86,-77.93 143.1,-67.82 134.27,-73.71 139.86,-77.93"/>
</g>
<!-- atoms/index.ts&#45;&gt;lib/types/supabase.ts -->
<g id="edge7" class="edge">
<title>atoms/index.ts&#45;&gt;lib/types/supabase.ts</title>
<path fill="none" stroke="#757575" d="M175.09,-62.4C175.09,-62.4 175.1,-62.41 175.11,-62.41"/>
<polygon fill="#757575" stroke="#757575" points="164.59,-63.72 175.12,-62.41 166.08,-56.87 164.59,-63.72"/>
</g>
<!-- components/ActiveGames.tsx&#45;&gt;lib/mutations.ts -->
<g id="edge8" class="edge">
<title>components/ActiveGames.tsx&#45;&gt;lib/mutations.ts</title>
<path fill="none" stroke="#757575" d="M142.89,-116.63C142.9,-116.64 142.91,-116.65 142.92,-116.67"/>
<polygon fill="#757575" stroke="#757575" points="134.46,-110.32 142.94,-116.69 140.28,-106.43 134.46,-110.32"/>
</g>
<!-- lib/mutations.ts&#45;&gt;lib/supabaseClient.ts -->
<g id="edge17" class="edge">
<title>lib/mutations.ts&#45;&gt;lib/supabaseClient.ts</title>
<path fill="none" stroke="#757575" d="M165.81,-105.2C165.89,-105.16 165.98,-105.12 166.06,-105.07"/>
<polygon fill="#757575" stroke="#757575" points="160.48,-111.81 167.84,-104.18 157.33,-105.55 160.48,-111.81"/>
</g>
<!-- lib/mutations.ts&#45;&gt;lib/types.ts -->
<g id="edge18" class="edge">
<title>lib/mutations.ts&#45;&gt;lib/types.ts</title>
<path fill="none" stroke="#757575" d="M156.48,-104.88C160.06,-101.75 164.01,-98.29 167.89,-94.9"/>
<polygon fill="#757575" stroke="#757575" points="170.37,-97.38 175.59,-88.16 165.76,-92.11 170.37,-97.38"/>
</g>
<!-- components/Flag.tsx -->
<g id="node13" class="node">
<title>components/Flag.tsx</title>
<path fill="none" stroke="#c6c5fe" d="M290.44,-23C290.44,-23 163.77,-23 163.77,-23 159.94,-23 156.1,-19.17 156.1,-15.33 156.1,-15.33 156.1,-7.67 156.1,-7.67 156.1,-3.83 159.94,0 163.77,0 163.77,0 290.44,0 290.44,0 294.27,0 298.1,-3.83 298.1,-7.67 298.1,-7.67 298.1,-15.33 298.1,-15.33 298.1,-19.17 294.27,-23 290.44,-23"/>
<text text-anchor="middle" x="227.1" y="-7.8" font-family="Arial" font-size="14.00" fill="#c6c5fe">components/Flag.tsx</text>
</g>
<!-- lib/flagIcons.ts -->
<g id="node14" class="node">
<title>lib/flagIcons.ts</title>
<path fill="none" stroke="#cfffac" d="M278.44,-23C278.44,-23 191.77,-23 191.77,-23 187.94,-23 184.1,-19.17 184.1,-15.33 184.1,-15.33 184.1,-7.67 184.1,-7.67 184.1,-3.83 187.94,0 191.77,0 191.77,0 278.44,0 278.44,0 282.27,0 286.1,-3.83 286.1,-7.67 286.1,-7.67 286.1,-15.33 286.1,-15.33 286.1,-19.17 282.27,-23 278.44,-23"/>
<text text-anchor="middle" x="235.1" y="-7.8" font-family="Arial" font-size="14.00" fill="#cfffac">lib/flagIcons.ts</text>
</g>
<!-- components/Flag.tsx&#45;&gt;lib/flagIcons.ts -->
<g id="edge9" class="edge">
<title>components/Flag.tsx&#45;&gt;lib/flagIcons.ts</title>
<path fill="none" stroke="#757575" d="M235.01,-11.5C235.03,-11.5 235.04,-11.5 235.05,-11.5"/>
<polygon fill="#757575" stroke="#757575" points="225.09,-15.04 235.08,-11.5 225.07,-8.04 225.09,-15.04"/>
</g>
<!-- components/LobbyStatus.tsx&#45;&gt;lib/supabaseClient.ts -->
<g id="edge10" class="edge">
<title>components/LobbyStatus.tsx&#45;&gt;lib/supabaseClient.ts</title>
<path fill="none" stroke="#757575" d="M181.09,-111.04C181.16,-110.9 181.23,-110.76 181.31,-110.62"/>
<polygon fill="#757575" stroke="#757575" points="183.13,-114.66 184.73,-104.19 176.95,-111.37 183.13,-114.66"/>
</g>
<!-- components/PasswordModal.test.tsx -->
<g id="node17" class="node">
<title>components/PasswordModal.test.tsx</title>
<path fill="none" stroke="#c6c5fe" d="M230.33,-116.07C230.33,-116.07 7.67,-116.07 7.67,-116.07 3.83,-116.07 0,-112.24 0,-108.41 0,-108.41 0,-100.74 0,-100.74 0,-96.91 3.83,-93.07 7.67,-93.07 7.67,-93.07 230.33,-93.07 230.33,-93.07 234.17,-93.07 238,-96.91 238,-100.74 238,-100.74 238,-108.41 238,-108.41 238,-112.24 234.17,-116.07 230.33,-116.07"/>
<text text-anchor="middle" x="119" y="-100.87" font-family="Arial" font-size="14.00" fill="#c6c5fe">components/PasswordModal.test.tsx</text>
</g>
<!-- components/PasswordModal.test.tsx&#45;&gt;components/PasswordModal.tsx -->
<g id="edge11" class="edge">
<title>components/PasswordModal.test.tsx&#45;&gt;components/PasswordModal.tsx</title>
<path fill="none" stroke="#757575" d="M127.18,-103.2C127.19,-103.19 127.2,-103.19 127.22,-103.19"/>
<polygon fill="#757575" stroke="#757575" points="117.97,-108.32 127.25,-103.19 116.79,-101.42 117.97,-108.32"/>
</g>
<!-- components/TeamLogoPicker.tsx&#45;&gt;lib/supabaseClient.ts -->
<g id="edge12" class="edge">
<title>components/TeamLogoPicker.tsx&#45;&gt;lib/supabaseClient.ts</title>
<path fill="none" stroke="#757575" d="M190.92,-92.64C190.92,-92.63 190.92,-92.62 190.92,-92.61"/>
<polygon fill="#757575" stroke="#757575" points="195.36,-102.2 190.91,-92.58 188.39,-102.87 195.36,-102.2"/>
</g>
<!-- index.css -->
<g id="node20" class="node">
<title>index.css</title>
<path fill="none" stroke="#cfffac" d="M150.4,-92.68C150.4,-92.68 92.73,-92.68 92.73,-92.68 88.9,-92.68 85.06,-88.84 85.06,-85.01 85.06,-85.01 85.06,-77.34 85.06,-77.34 85.06,-73.51 88.9,-69.68 92.73,-69.68 92.73,-69.68 150.4,-69.68 150.4,-69.68 154.23,-69.68 158.06,-73.51 158.06,-77.34 158.06,-77.34 158.06,-85.01 158.06,-85.01 158.06,-88.84 154.23,-92.68 150.4,-92.68"/>
<text text-anchor="middle" x="121.56" y="-77.48" font-family="Arial" font-size="14.00" fill="#cfffac">index.css</text>
</g>
<!-- lib/createSession.test.ts -->
<g id="node21" class="node">
<title>lib/createSession.test.ts</title>
<path fill="none" stroke="#c6c5fe" d="M254.8,-128.06C254.8,-128.06 111.14,-128.06 111.14,-128.06 107.3,-128.06 103.47,-124.23 103.47,-120.39 103.47,-120.39 103.47,-112.73 103.47,-112.73 103.47,-108.89 107.3,-105.06 111.14,-105.06 111.14,-105.06 254.8,-105.06 254.8,-105.06 258.64,-105.06 262.47,-108.89 262.47,-112.73 262.47,-112.73 262.47,-120.39 262.47,-120.39 262.47,-124.23 258.64,-128.06 254.8,-128.06"/>
<text text-anchor="middle" x="182.97" y="-112.86" font-family="Arial" font-size="14.00" fill="#c6c5fe">lib/createSession.test.ts</text>
</g>
<!-- lib/createSession.test.ts&#45;&gt;lib/mutations.ts -->
<g id="edge13" class="edge">
<title>lib/createSession.test.ts&#45;&gt;lib/mutations.ts</title>
<path fill="none" stroke="#757575" d="M143.07,-116.72C143.05,-116.72 143.03,-116.72 143.02,-116.72"/>
<polygon fill="#757575" stroke="#757575" points="152.96,-113.15 142.98,-116.72 153.01,-120.15 152.96,-113.15"/>
</g>
<!-- lib/createSession.test.ts&#45;&gt;lib/supabaseClient.ts -->
<g id="edge14" class="edge">
<title>lib/createSession.test.ts&#45;&gt;lib/supabaseClient.ts</title>
<path fill="none" stroke="#757575" d="M186.85,-104.84C186.88,-104.74 186.91,-104.65 186.94,-104.55"/>
<polygon fill="#757575" stroke="#757575" points="187.22,-114.86 187.04,-104.27 180.57,-112.66 187.22,-114.86"/>
</g>
<!-- lib/mutations.test.ts -->
<g id="node22" class="node">
<title>lib/mutations.test.ts</title>
<path fill="none" stroke="#c6c5fe" d="M241.97,-80.04C241.97,-80.04 124.3,-80.04 124.3,-80.04 120.47,-80.04 116.63,-76.21 116.63,-72.38 116.63,-72.38 116.63,-64.71 116.63,-64.71 116.63,-60.88 120.47,-57.04 124.3,-57.04 124.3,-57.04 241.97,-57.04 241.97,-57.04 245.8,-57.04 249.63,-60.88 249.63,-64.71 249.63,-64.71 249.63,-72.38 249.63,-72.38 249.63,-76.21 245.8,-80.04 241.97,-80.04"/>
<text text-anchor="middle" x="183.13" y="-64.84" font-family="Arial" font-size="14.00" fill="#c6c5fe">lib/mutations.test.ts</text>
</g>
<!-- lib/mutations.test.ts&#45;&gt;lib/mutations.ts -->
<g id="edge15" class="edge">
<title>lib/mutations.test.ts&#45;&gt;lib/mutations.ts</title>
<path fill="none" stroke="#757575" d="M173.41,-80.2C169.16,-85.29 164.07,-91.4 159.27,-97.15"/>
<polygon fill="#757575" stroke="#757575" points="156.31,-95.24 152.59,-105.16 161.68,-99.73 156.31,-95.24"/>
</g>
<!-- lib/mutations.test.ts&#45;&gt;lib/types.ts -->
<g id="edge16" class="edge">
<title>lib/mutations.test.ts&#45;&gt;lib/types.ts</title>
<path fill="none" stroke="#757575" d="M188.8,-76.46C188.81,-76.47 188.82,-76.48 188.83,-76.5"/>
<polygon fill="#757575" stroke="#757575" points="180.17,-70.43 188.85,-76.52 185.86,-66.35 180.17,-70.43"/>
</g>
<!-- lib/types/index.ts -->
<g id="node29" class="node">
<title>lib/types/index.ts</title>
<path fill="none" stroke="#c6c5fe" d="M217.46,-70.39C217.46,-70.39 116.79,-70.39 116.79,-70.39 112.96,-70.39 109.13,-66.56 109.13,-62.72 109.13,-62.72 109.13,-55.06 109.13,-55.06 109.13,-51.22 112.96,-47.39 116.79,-47.39 116.79,-47.39 217.46,-47.39 217.46,-47.39 221.29,-47.39 225.13,-51.22 225.13,-55.06 225.13,-55.06 225.13,-62.72 225.13,-62.72 225.13,-66.56 221.29,-70.39 217.46,-70.39"/>
<text text-anchor="middle" x="167.13" y="-55.19" font-family="Arial" font-size="14.00" fill="#c6c5fe">lib/types/index.ts</text>
</g>
<!-- lib/types.ts&#45;&gt;lib/types/index.ts -->
<g id="edge25" class="edge">
<title>lib/types.ts&#45;&gt;lib/types/index.ts</title>
<path fill="none" stroke="#757575" d="M174.49,-64.87C174.42,-64.82 174.36,-64.76 174.3,-64.71"/>
<polygon fill="#757575" stroke="#757575" points="184.08,-68.15 174.11,-64.56 179.67,-73.58 184.08,-68.15"/>
</g>
<!-- lib/mutations.validation.ts -->
<g id="node24" class="node">
<title>lib/mutations.validation.ts</title>
<path fill="none" stroke="#cfffac" d="M388.03,-191C388.03,-191 235.36,-191 235.36,-191 231.53,-191 227.69,-187.17 227.69,-183.33 227.69,-183.33 227.69,-175.67 227.69,-175.67 227.69,-171.83 231.53,-168 235.36,-168 235.36,-168 388.03,-168 388.03,-168 391.86,-168 395.69,-171.83 395.69,-175.67 395.69,-175.67 395.69,-183.33 395.69,-183.33 395.69,-187.17 391.86,-191 388.03,-191"/>
<text text-anchor="middle" x="311.69" y="-175.8" font-family="Arial" font-size="14.00" fill="#cfffac">lib/mutations.validation.ts</text>
</g>
<!-- lib/presence.ts -->
<g id="node25" class="node">
<title>lib/presence.ts</title>
<path fill="none" stroke="#c6c5fe" d="M243.36,-104.06C243.36,-104.06 154.69,-104.06 154.69,-104.06 150.86,-104.06 147.02,-100.22 147.02,-96.39 147.02,-96.39 147.02,-88.72 147.02,-88.72 147.02,-84.89 150.86,-81.06 154.69,-81.06 154.69,-81.06 243.36,-81.06 243.36,-81.06 247.19,-81.06 251.02,-84.89 251.02,-88.72 251.02,-88.72 251.02,-96.39 251.02,-96.39 251.02,-100.22 247.19,-104.06 243.36,-104.06"/>
<text text-anchor="middle" x="199.02" y="-88.86" font-family="Arial" font-size="14.00" fill="#c6c5fe">lib/presence.ts</text>
</g>
<!-- lib/presence.ts&#45;&gt;lib/supabaseClient.ts -->
<g id="edge19" class="edge">
<title>lib/presence.ts&#45;&gt;lib/supabaseClient.ts</title>
<path fill="none" stroke="#757575" d="M191,-92.56C190.99,-92.56 190.97,-92.56 190.96,-92.56"/>
<polygon fill="#757575" stroke="#757575" points="200.95,-89.09 190.94,-92.56 200.92,-96.09 200.95,-89.09"/>
</g>
<!-- lib/realtimeHooks.ts&#45;&gt;lib/supabaseClient.ts -->
<g id="edge20" class="edge">
<title>lib/realtimeHooks.ts&#45;&gt;lib/supabaseClient.ts</title>
<path fill="none" stroke="#757575" d="M190.92,-92.47C190.92,-92.48 190.92,-92.49 190.92,-92.5"/>
<polygon fill="#757575" stroke="#757575" points="188.35,-82.25 190.91,-92.53 195.32,-82.89 188.35,-82.25"/>
</g>
<!-- lib/realtimeHooks.ts&#45;&gt;lib/types.ts -->
<g id="edge21" class="edge">
<title>lib/realtimeHooks.ts&#45;&gt;lib/types.ts</title>
<path fill="none" stroke="#757575" d="M188.9,-76.64C188.89,-76.62 188.89,-76.61 188.88,-76.6"/>
<polygon fill="#757575" stroke="#757575" points="195.46,-84.88 188.87,-76.57 188.84,-87.17 195.46,-84.88"/>
</g>
<!-- lib/sessionCode.test.ts -->
<g id="node27" class="node">
<title>lib/sessionCode.test.ts</title>
<path fill="none" stroke="#c6c5fe" d="M257.06,-120.06C257.06,-120.06 120.39,-120.06 120.39,-120.06 116.56,-120.06 112.72,-116.23 112.72,-112.39 112.72,-112.39 112.72,-104.73 112.72,-104.73 112.72,-100.89 116.56,-97.06 120.39,-97.06 120.39,-97.06 257.06,-97.06 257.06,-97.06 260.89,-97.06 264.72,-100.89 264.72,-104.73 264.72,-104.73 264.72,-112.39 264.72,-112.39 264.72,-116.23 260.89,-120.06 257.06,-120.06"/>
<text text-anchor="middle" x="188.72" y="-104.86" font-family="Arial" font-size="14.00" fill="#c6c5fe">lib/sessionCode.test.ts</text>
</g>
<!-- lib/sessionCode.test.ts&#45;&gt;lib/mutations.ts -->
<g id="edge22" class="edge">
<title>lib/sessionCode.test.ts&#45;&gt;lib/mutations.ts</title>
<path fill="none" stroke="#757575" d="M143.09,-116.69C143.06,-116.7 143.04,-116.7 143.03,-116.7"/>
<polygon fill="#757575" stroke="#757575" points="152.21,-111.49 142.99,-116.71 153.45,-118.38 152.21,-111.49"/>
</g>
<!-- lib/sessionCode.test.ts&#45;&gt;lib/supabaseClient.ts -->
<g id="edge23" class="edge">
<title>lib/sessionCode.test.ts&#45;&gt;lib/supabaseClient.ts</title>
<path fill="none" stroke="#757575" d="M190.31,-96.93C190.32,-96.85 190.33,-96.77 190.35,-96.7"/>
<polygon fill="#757575" stroke="#757575" points="192.48,-106.85 190.38,-96.47 185.55,-105.9 192.48,-106.85"/>
</g>
<!-- lib/sessionHooks.ts&#45;&gt;lib/supabaseClient.ts -->
<g id="edge24" class="edge">
<title>lib/sessionHooks.ts&#45;&gt;lib/supabaseClient.ts</title>
<path fill="none" stroke="#757575" d="M165.33,-79.31C165.47,-79.38 165.6,-79.45 165.74,-79.52"/>
<polygon fill="#757575" stroke="#757575" points="158.07,-79.49 168.56,-80.98 161.29,-73.27 158.07,-79.49"/>
</g>
<!-- lib/types/index.ts&#45;&gt;lib/types/supabase.ts -->
<g id="edge26" class="edge">
<title>lib/types/index.ts&#45;&gt;lib/types/supabase.ts</title>
<path fill="none" stroke="#757575" d="M175.04,-62.37C175.06,-62.38 175.07,-62.39 175.08,-62.39"/>
<polygon fill="#757575" stroke="#757575" points="164.54,-61.56 175.11,-62.4 167.37,-55.15 164.54,-61.56"/>
</g>
<!-- main.tsx -->
<g id="node30" class="node">
<title>main.tsx</title>
<path fill="none" stroke="#c6c5fe" d="M155.9,-95.31C155.9,-95.31 103.23,-95.31 103.23,-95.31 99.4,-95.31 95.57,-91.47 95.57,-87.64 95.57,-87.64 95.57,-79.97 95.57,-79.97 95.57,-76.14 99.4,-72.31 103.23,-72.31 103.23,-72.31 155.9,-72.31 155.9,-72.31 159.73,-72.31 163.57,-76.14 163.57,-79.97 163.57,-79.97 163.57,-87.64 163.57,-87.64 163.57,-91.47 159.73,-95.31 155.9,-95.31"/>
<text text-anchor="middle" x="129.57" y="-80.11" font-family="Arial" font-size="14.00" fill="#c6c5fe">main.tsx</text>
</g>
<!-- main.tsx&#45;&gt;App.tsx -->
<g id="edge27" class="edge">
<title>main.tsx&#45;&gt;App.tsx</title>
<path fill="none" stroke="#757575" d="M137.65,-84.7C137.67,-84.7 137.68,-84.7 137.69,-84.7"/>
<polygon fill="#757575" stroke="#757575" points="127.39,-87.06 137.72,-84.7 128.17,-80.1 127.39,-87.06"/>
</g>
<!-- main.tsx&#45;&gt;index.css -->
<g id="edge28" class="edge">
<title>main.tsx&#45;&gt;index.css</title>
<path fill="none" stroke="#757575" d="M121.65,-81.21C121.64,-81.2 121.63,-81.2 121.62,-81.2"/>
<polygon fill="#757575" stroke="#757575" points="132.19,-81.01 121.59,-81.19 129.99,-87.66 132.19,-81.01"/>
</g>
<!-- setupTests.ts -->
<g id="node31" class="node">
<title>setupTests.ts</title>
<path fill="none" stroke="#cfffac" d="M195.53,-191C195.53,-191 115.86,-191 115.86,-191 112.03,-191 108.19,-187.17 108.19,-183.33 108.19,-183.33 108.19,-175.67 108.19,-175.67 108.19,-171.83 112.03,-168 115.86,-168 115.86,-168 195.53,-168 195.53,-168 199.36,-168 203.19,-171.83 203.19,-175.67 203.19,-175.67 203.19,-183.33 203.19,-183.33 203.19,-187.17 199.36,-191 195.53,-191"/>
<text text-anchor="middle" x="155.69" y="-175.8" font-family="Arial" font-size="14.00" fill="#cfffac">setupTests.ts</text>
</g>
</g>
</svg>
