<?xml version="1.0" encoding="UTF-8" standalone="no"?>
<!DOCTYPE svg PUBLIC "-//W3C//DTD SVG 1.1//EN"
 "http://www.w3.org/Graphics/SVG/1.1/DTD/svg11.dtd">
<!-- Generated by graphviz version 2.43.0 (0)
 -->
<!-- Title: G Pages: 1 -->
<svg width="490pt" height="270pt"
 viewBox="0.00 0.00 489.69 270.20" xmlns="http://www.w3.org/2000/svg" xmlns:xlink="http://www.w3.org/1999/xlink">
<g id="graph0" class="graph" transform="scale(1 1) rotate(0) translate(21.6 248.6)">
<title>G</title>
<polygon fill="#111111" stroke="transparent" points="-21.6,21.6 -21.6,-248.6 468.09,-248.6 468.09,21.6 -21.6,21.6"/>
<!-- App.tsx -->
<g id="node1" class="node">
<title>App.tsx</title>
<path fill="none" stroke="#c6c5fe" d="M140.29,-122.22C140.29,-122.22 93.62,-122.22 93.62,-122.22 89.79,-122.22 85.96,-118.38 85.96,-114.55 85.96,-114.55 85.96,-106.88 85.96,-106.88 85.96,-103.05 89.79,-99.22 93.62,-99.22 93.62,-99.22 140.29,-99.22 140.29,-99.22 144.12,-99.22 147.96,-103.05 147.96,-106.88 147.96,-106.88 147.96,-114.55 147.96,-114.55 147.96,-118.38 144.12,-122.22 140.29,-122.22"/>
<text text-anchor="middle" x="116.96" y="-107.02" font-family="Arial" font-size="14.00" fill="#c6c5fe">App.tsx</text>
</g>
<!-- pages/GameSetup.tsx -->
<g id="node2" class="node">
<title>pages/GameSetup.tsx</title>
<path fill="none" stroke="#c6c5fe" d="M200.31,-75.59C200.31,-75.59 63.65,-75.59 63.65,-75.59 59.81,-75.59 55.98,-71.76 55.98,-67.93 55.98,-67.93 55.98,-60.26 55.98,-60.26 55.98,-56.43 59.81,-52.59 63.65,-52.59 63.65,-52.59 200.31,-52.59 200.31,-52.59 204.15,-52.59 207.98,-56.43 207.98,-60.26 207.98,-60.26 207.98,-67.93 207.98,-67.93 207.98,-71.76 204.15,-75.59 200.31,-75.59"/>
<text text-anchor="middle" x="131.98" y="-60.39" font-family="Arial" font-size="14.00" fill="#c6c5fe">pages/GameSetup.tsx</text>
</g>
<!-- App.tsx&#45;&gt;pages/GameSetup.tsx -->
<g id="edge1" class="edge">
<title>App.tsx&#45;&gt;pages/GameSetup.tsx</title>
<path fill="none" stroke="#757575" d="M120.75,-98.95C122.07,-94.83 123.61,-90.07 125.11,-85.42"/>
<polygon fill="#757575" stroke="#757575" points="128.51,-86.28 128.24,-75.69 121.84,-84.14 128.51,-86.28"/>
</g>
<!-- pages/Homepage.tsx -->
<g id="node3" class="node">
<title>pages/Homepage.tsx</title>
<path fill="none" stroke="#c6c5fe" d="M189.79,-115.6C189.79,-115.6 60.13,-115.6 60.13,-115.6 56.29,-115.6 52.46,-111.77 52.46,-107.94 52.46,-107.94 52.46,-100.27 52.46,-100.27 52.46,-96.44 56.29,-92.6 60.13,-92.6 60.13,-92.6 189.79,-92.6 189.79,-92.6 193.63,-92.6 197.46,-96.44 197.46,-100.27 197.46,-100.27 197.46,-107.94 197.46,-107.94 197.46,-111.77 193.63,-115.6 189.79,-115.6"/>
<text text-anchor="middle" x="124.96" y="-100.4" font-family="Arial" font-size="14.00" fill="#c6c5fe">pages/Homepage.tsx</text>
</g>
<!-- App.tsx&#45;&gt;pages/Homepage.tsx -->
<g id="edge2" class="edge">
<title>App.tsx&#45;&gt;pages/Homepage.tsx</title>
<path fill="none" stroke="#757575" d="M124.87,-104.18C124.88,-104.17 124.9,-104.15 124.91,-104.15"/>
<polygon fill="#757575" stroke="#757575" points="119.46,-113.2 124.94,-104.12 114.99,-107.8 119.46,-113.2"/>
</g>
<!-- pages/Join.tsx -->
<g id="node4" class="node">
<title>pages/Join.tsx</title>
<path fill="none" stroke="#c6c5fe" d="M177.92,-91.6C177.92,-91.6 90.25,-91.6 90.25,-91.6 86.42,-91.6 82.58,-87.76 82.58,-83.93 82.58,-83.93 82.58,-76.26 82.58,-76.26 82.58,-72.43 86.42,-68.6 90.25,-68.6 90.25,-68.6 177.92,-68.6 177.92,-68.6 181.75,-68.6 185.58,-72.43 185.58,-76.26 185.58,-76.26 185.58,-83.93 185.58,-83.93 185.58,-87.76 181.75,-91.6 177.92,-91.6"/>
<text text-anchor="middle" x="134.08" y="-76.4" font-family="Arial" font-size="14.00" fill="#c6c5fe">pages/Join.tsx</text>
</g>
<!-- App.tsx&#45;&gt;pages/Join.tsx -->
<g id="edge3" class="edge">
<title>App.tsx&#45;&gt;pages/Join.tsx</title>
<path fill="none" stroke="#757575" d="M123.53,-98.97C123.61,-98.82 123.69,-98.68 123.77,-98.53"/>
<polygon fill="#757575" stroke="#757575" points="125.62,-102.4 127.44,-91.97 119.51,-98.99 125.62,-102.4"/>
</g>
<!-- pages/Lobby.tsx -->
<g id="node5" class="node">
<title>pages/Lobby.tsx</title>
<path fill="none" stroke="#c6c5fe" d="M142.28,-124.8C142.28,-124.8 43.61,-124.8 43.61,-124.8 39.78,-124.8 35.95,-120.96 35.95,-117.13 35.95,-117.13 35.95,-109.46 35.95,-109.46 35.95,-105.63 39.78,-101.8 43.61,-101.8 43.61,-101.8 142.28,-101.8 142.28,-101.8 146.11,-101.8 149.95,-105.63 149.95,-109.46 149.95,-109.46 149.95,-117.13 149.95,-117.13 149.95,-120.96 146.11,-124.8 142.28,-124.8"/>
<text text-anchor="middle" x="92.95" y="-109.6" font-family="Arial" font-size="14.00" fill="#c6c5fe">pages/Lobby.tsx</text>
</g>
<!-- App.tsx&#45;&gt;pages/Lobby.tsx -->
<g id="edge4" class="edge">
<title>App.tsx&#45;&gt;pages/Lobby.tsx</title>
<path fill="none" stroke="#757575" d="M93.01,-113.29C93,-113.29 92.99,-113.29 92.98,-113.29"/>
<polygon fill="#757575" stroke="#757575" points="102.52,-108.71 92.96,-113.29 103.29,-115.67 102.52,-108.71"/>
</g>
<!-- pages/Quiz.tsx -->
<g id="node6" class="node">
<title>pages/Quiz.tsx</title>
<path fill="none" stroke="#c6c5fe" d="M115.29,-87.98C115.29,-87.98 23.62,-87.98 23.62,-87.98 19.79,-87.98 15.96,-84.15 15.96,-80.32 15.96,-80.32 15.96,-72.65 15.96,-72.65 15.96,-68.82 19.79,-64.98 23.62,-64.98 23.62,-64.98 115.29,-64.98 115.29,-64.98 119.12,-64.98 122.96,-68.82 122.96,-72.65 122.96,-72.65 122.96,-80.32 122.96,-80.32 122.96,-84.15 119.12,-87.98 115.29,-87.98"/>
<text text-anchor="middle" x="69.46" y="-72.78" font-family="Arial" font-size="14.00" fill="#c6c5fe">pages/Quiz.tsx</text>
</g>
<!-- App.tsx&#45;&gt;pages/Quiz.tsx -->
<g id="edge5" class="edge">
<title>App.tsx&#45;&gt;pages/Quiz.tsx</title>
<path fill="none" stroke="#757575" d="M100.88,-99.13C98.55,-97.45 96.12,-95.7 93.69,-93.95"/>
<polygon fill="#757575" stroke="#757575" points="95.68,-91.07 85.52,-88.06 91.59,-96.75 95.68,-91.07"/>
</g>
<!-- pages/Results.tsx -->
<g id="node7" class="node">
<title>pages/Results.tsx</title>
<path fill="none" stroke="#c6c5fe" d="M162.79,-124.96C162.79,-124.96 55.12,-124.96 55.12,-124.96 51.29,-124.96 47.45,-121.12 47.45,-117.29 47.45,-117.29 47.45,-109.62 47.45,-109.62 47.45,-105.79 51.29,-101.96 55.12,-101.96 55.12,-101.96 162.79,-101.96 162.79,-101.96 166.62,-101.96 170.45,-105.79 170.45,-109.62 170.45,-109.62 170.45,-117.29 170.45,-117.29 170.45,-121.12 166.62,-124.96 162.79,-124.96"/>
<text text-anchor="middle" x="108.95" y="-109.76" font-family="Arial" font-size="14.00" fill="#c6c5fe">pages/Results.tsx</text>
</g>
<!-- App.tsx&#45;&gt;pages/Results.tsx -->
<g id="edge6" class="edge">
<title>App.tsx&#45;&gt;pages/Results.tsx</title>
<path fill="none" stroke="#757575" d="M109.04,-113.42C109.03,-113.43 109.02,-113.43 109.01,-113.44"/>
<polygon fill="#757575" stroke="#757575" points="117.3,-106.88 108.98,-113.45 119.58,-113.5 117.3,-106.88"/>
</g>
<!-- atoms/index.ts -->
<g id="node8" class="node">
<title>atoms/index.ts</title>
<path fill="none" stroke="#c6c5fe" d="M129.28,-119.92C129.28,-119.92 40.61,-119.92 40.61,-119.92 36.78,-119.92 32.94,-116.09 32.94,-112.25 32.94,-112.25 32.94,-104.59 32.94,-104.59 32.94,-100.75 36.78,-96.92 40.61,-96.92 40.61,-96.92 129.28,-96.92 129.28,-96.92 133.11,-96.92 136.94,-100.75 136.94,-104.59 136.94,-104.59 136.94,-112.25 136.94,-112.25 136.94,-116.09 133.11,-119.92 129.28,-119.92"/>
<text text-anchor="middle" x="84.94" y="-104.72" font-family="Arial" font-size="14.00" fill="#c6c5fe">atoms/index.ts</text>
</g>
<!-- pages/GameSetup.tsx&#45;&gt;atoms/index.ts -->
<g id="edge32" class="edge">
<title>pages/GameSetup.tsx&#45;&gt;atoms/index.ts</title>
<path fill="none" stroke="#757575" d="M119.62,-75.74C115.12,-79.98 109.91,-84.89 104.92,-89.6"/>
<polygon fill="#757575" stroke="#757575" points="102.26,-87.29 97.38,-96.7 107.06,-92.38 102.26,-87.29"/>
</g>
<!-- lib/mutations.ts -->
<g id="node11" class="node">
<title>lib/mutations.ts</title>
<path fill="none" stroke="#c6c5fe" d="M171.04,-67.59C171.04,-67.59 79.37,-67.59 79.37,-67.59 75.54,-67.59 71.71,-63.76 71.71,-59.93 71.71,-59.93 71.71,-52.26 71.71,-52.26 71.71,-48.43 75.54,-44.59 79.37,-44.59 79.37,-44.59 171.04,-44.59 171.04,-44.59 174.87,-44.59 178.71,-48.43 178.71,-52.26 178.71,-52.26 178.71,-59.93 178.71,-59.93 178.71,-63.76 174.87,-67.59 171.04,-67.59"/>
<text text-anchor="middle" x="125.21" y="-52.39" font-family="Arial" font-size="14.00" fill="#c6c5fe">lib/mutations.ts</text>
</g>
<!-- pages/GameSetup.tsx&#45;&gt;lib/mutations.ts -->
<g id="edge35" class="edge">
<title>pages/GameSetup.tsx&#45;&gt;lib/mutations.ts</title>
<path fill="none" stroke="#757575" d="M125.28,-56.18C125.27,-56.17 125.26,-56.15 125.25,-56.14"/>
<polygon fill="#757575" stroke="#757575" points="134.37,-61.49 125.23,-56.11 129.02,-66.02 134.37,-61.49"/>
</g>
<!-- components/Alert.tsx -->
<g id="node12" class="node">
<title>components/Alert.tsx</title>
<path fill="none" stroke="#cfffac" d="M198.57,-99.6C198.57,-99.6 70.91,-99.6 70.91,-99.6 67.07,-99.6 63.24,-95.76 63.24,-91.93 63.24,-91.93 63.24,-84.26 63.24,-84.26 63.24,-80.43 67.07,-76.6 70.91,-76.6 70.91,-76.6 198.57,-76.6 198.57,-76.6 202.41,-76.6 206.24,-80.43 206.24,-84.26 206.24,-84.26 206.24,-91.93 206.24,-91.93 206.24,-95.76 202.41,-99.6 198.57,-99.6"/>
<text text-anchor="middle" x="134.74" y="-84.4" font-family="Arial" font-size="14.00" fill="#cfffac">components/Alert.tsx</text>
</g>
<!-- pages/GameSetup.tsx&#45;&gt;components/Alert.tsx -->
<g id="edge33" class="edge">
<title>pages/GameSetup.tsx&#45;&gt;components/Alert.tsx</title>
<path fill="none" stroke="#757575" d="M133.33,-75.81C133.34,-75.91 133.35,-76 133.36,-76.1"/>
<polygon fill="#757575" stroke="#757575" points="128.77,-66.85 133.39,-76.38 135.72,-66.05 128.77,-66.85"/>
</g>
<!-- components/LobbyStatus.tsx -->
<g id="node16" class="node">
<title>components/LobbyStatus.tsx</title>
<path fill="none" stroke="#c6c5fe" d="M189.03,-58.23C189.03,-58.23 13.36,-58.23 13.36,-58.23 9.53,-58.23 5.7,-54.4 5.7,-50.57 5.7,-50.57 5.7,-42.9 5.7,-42.9 5.7,-39.07 9.53,-35.23 13.36,-35.23 13.36,-35.23 189.03,-35.23 189.03,-35.23 192.86,-35.23 196.7,-39.07 196.7,-42.9 196.7,-42.9 196.7,-50.57 196.7,-50.57 196.7,-54.4 192.86,-58.23 189.03,-58.23"/>
<text text-anchor="middle" x="101.2" y="-43.03" font-family="Arial" font-size="14.00" fill="#c6c5fe">components/LobbyStatus.tsx</text>
</g>
<!-- pages/GameSetup.tsx&#45;&gt;components/LobbyStatus.tsx -->
<g id="edge34" class="edge">
<title>pages/GameSetup.tsx&#45;&gt;components/LobbyStatus.tsx</title>
<path fill="none" stroke="#757575" d="M111.28,-52.42C111.23,-52.39 111.19,-52.37 111.14,-52.34"/>
<polygon fill="#757575" stroke="#757575" points="121.45,-54.14 111.02,-52.27 118.01,-60.23 121.45,-54.14"/>
</g>
<!-- lib/supabaseClient.ts -->
<g id="node17" class="node">
<title>lib/supabaseClient.ts</title>
<path fill="none" stroke="#cfffac" d="M148.03,-63.98C148.03,-63.98 22.36,-63.98 22.36,-63.98 18.53,-63.98 14.69,-60.15 14.69,-56.31 14.69,-56.31 14.69,-48.65 14.69,-48.65 14.69,-44.81 18.53,-40.98 22.36,-40.98 22.36,-40.98 148.03,-40.98 148.03,-40.98 151.86,-40.98 155.69,-44.81 155.69,-48.65 155.69,-48.65 155.69,-56.31 155.69,-56.31 155.69,-60.15 151.86,-63.98 148.03,-63.98"/>
<text text-anchor="middle" x="85.19" y="-48.78" font-family="Arial" font-size="14.00" fill="#cfffac">lib/supabaseClient.ts</text>
</g>
<!-- pages/GameSetup.tsx&#45;&gt;lib/supabaseClient.ts -->
<g id="edge37" class="edge">
<title>pages/GameSetup.tsx&#45;&gt;lib/supabaseClient.ts</title>
<path fill="none" stroke="#757575" d="M85.33,-52.51C85.3,-52.51 85.28,-52.5 85.27,-52.5"/>
<polygon fill="#757575" stroke="#757575" points="95.78,-51.52 85.23,-52.49 94.08,-58.31 95.78,-51.52"/>
</g>
<!-- lib/types.ts -->
<g id="node26" class="node">
<title>lib/types.ts</title>
<path fill="none" stroke="#c6c5fe" d="M104.14,-79.98C104.14,-79.98 39.47,-79.98 39.47,-79.98 35.64,-79.98 31.8,-76.15 31.8,-72.31 31.8,-72.31 31.8,-64.65 31.8,-64.65 31.8,-60.81 35.64,-56.98 39.47,-56.98 39.47,-56.98 104.14,-56.98 104.14,-56.98 107.97,-56.98 111.8,-60.81 111.8,-64.65 111.8,-64.65 111.8,-72.31 111.8,-72.31 111.8,-76.15 107.97,-79.98 104.14,-79.98"/>
<text text-anchor="middle" x="71.8" y="-64.78" font-family="Arial" font-size="14.00" fill="#c6c5fe">lib/types.ts</text>
</g>
<!-- pages/GameSetup.tsx&#45;&gt;lib/types.ts -->
<g id="edge38" class="edge">
<title>pages/GameSetup.tsx&#45;&gt;lib/types.ts</title>
<path fill="none" stroke="#757575" d="M71.85,-68.48C71.84,-68.48 71.83,-68.48 71.83,-68.48"/>
<polygon fill="#757575" stroke="#757575" points="81.51,-64.19 71.81,-68.48 82.07,-71.18 81.51,-64.19"/>
</g>
<!-- lib/presence.ts -->
<g id="node28" class="node">
<title>lib/presence.ts</title>
<path fill="none" stroke="#c6c5fe" d="M161.54,-60.96C161.54,-60.96 72.87,-60.96 72.87,-60.96 69.04,-60.96 65.2,-57.13 65.2,-53.29 65.2,-53.29 65.2,-45.63 65.2,-45.63 65.2,-41.79 69.04,-37.96 72.87,-37.96 72.87,-37.96 161.54,-37.96 161.54,-37.96 165.37,-37.96 169.2,-41.79 169.2,-45.63 169.2,-45.63 169.2,-53.29 169.2,-53.29 169.2,-57.13 165.37,-60.96 161.54,-60.96"/>
<text text-anchor="middle" x="117.2" y="-45.76" font-family="Arial" font-size="14.00" fill="#c6c5fe">lib/presence.ts</text>
</g>
<!-- pages/GameSetup.tsx&#45;&gt;lib/presence.ts -->
<g id="edge36" class="edge">
<title>pages/GameSetup.tsx&#45;&gt;lib/presence.ts</title>
<path fill="none" stroke="#757575" d="M120.34,-52.56C120.28,-52.51 120.22,-52.45 120.17,-52.39"/>
<polygon fill="#757575" stroke="#757575" points="129.57,-56.78 120,-52.23 124.64,-61.75 129.57,-56.78"/>
</g>
<!-- components/ActiveGames.tsx -->
<g id="node10" class="node">
<title>components/ActiveGames.tsx</title>
<path fill="none" stroke="#c6c5fe" d="M222.18,-107.6C222.18,-107.6 40.52,-107.6 40.52,-107.6 36.68,-107.6 32.85,-103.77 32.85,-99.93 32.85,-99.93 32.85,-92.27 32.85,-92.27 32.85,-88.43 36.68,-84.6 40.52,-84.6 40.52,-84.6 222.18,-84.6 222.18,-84.6 226.02,-84.6 229.85,-88.43 229.85,-92.27 229.85,-92.27 229.85,-99.93 229.85,-99.93 229.85,-103.77 226.02,-107.6 222.18,-107.6"/>
<text text-anchor="middle" x="131.35" y="-92.4" font-family="Arial" font-size="14.00" fill="#c6c5fe">components/ActiveGames.tsx</text>
</g>
<!-- pages/Homepage.tsx&#45;&gt;components/ActiveGames.tsx -->
<g id="edge39" class="edge">
<title>pages/Homepage.tsx&#45;&gt;components/ActiveGames.tsx</title>
<path fill="none" stroke="#757575" d="M131.28,-96.19C131.29,-96.17 131.3,-96.16 131.31,-96.15"/>
<polygon fill="#757575" stroke="#757575" points="127.82,-106.13 131.33,-96.12 122.35,-101.75 127.82,-106.13"/>
</g>
<!-- pages/Homepage.tsx&#45;&gt;lib/mutations.ts -->
<g id="edge42" class="edge">
<title>pages/Homepage.tsx&#45;&gt;lib/mutations.ts</title>
<path fill="none" stroke="#757575" d="M125.02,-92.48C125.04,-88.12 125.07,-83 125.09,-78.01"/>
<polygon fill="#757575" stroke="#757575" points="128.6,-77.62 125.15,-67.61 121.6,-77.59 128.6,-77.62"/>
</g>
<!-- pages/Homepage.tsx&#45;&gt;components/Alert.tsx -->
<g id="edge40" class="edge">
<title>pages/Homepage.tsx&#45;&gt;components/Alert.tsx</title>
<path fill="none" stroke="#757575" d="M132.07,-92.47C132.12,-92.39 132.16,-92.32 132.21,-92.24"/>
<polygon fill="#757575" stroke="#757575" points="130.12,-102.37 132.35,-92.01 124.15,-98.72 130.12,-102.37"/>
</g>
<!-- components/PasswordModal.tsx -->
<g id="node20" class="node">
<title>components/PasswordModal.tsx</title>
<path fill="none" stroke="#cfffac" d="M232.48,-125.37C232.48,-125.37 35.81,-125.37 35.81,-125.37 31.98,-125.37 28.15,-121.54 28.15,-117.71 28.15,-117.71 28.15,-110.04 28.15,-110.04 28.15,-106.21 31.98,-102.37 35.81,-102.37 35.81,-102.37 232.48,-102.37 232.48,-102.37 236.31,-102.37 240.15,-106.21 240.15,-110.04 240.15,-110.04 240.15,-117.71 240.15,-117.71 240.15,-121.54 236.31,-125.37 232.48,-125.37"/>
<text text-anchor="middle" x="134.15" y="-110.17" font-family="Arial" font-size="14.00" fill="#cfffac">components/PasswordModal.tsx</text>
</g>
<!-- pages/Homepage.tsx&#45;&gt;components/PasswordModal.tsx -->
<g id="edge41" class="edge">
<title>pages/Homepage.tsx&#45;&gt;components/PasswordModal.tsx</title>
<path fill="none" stroke="#757575" d="M134.04,-113.77C134.06,-113.78 134.08,-113.8 134.09,-113.81"/>
<polygon fill="#757575" stroke="#757575" points="124.71,-108.96 134.12,-113.85 129.82,-104.16 124.71,-108.96"/>
</g>
<!-- pages/Join.tsx&#45;&gt;lib/mutations.ts -->
<g id="edge46" class="edge">
<title>pages/Join.tsx&#45;&gt;lib/mutations.ts</title>
<path fill="none" stroke="#757575" d="M129.75,-68.37C129.71,-68.28 129.68,-68.18 129.64,-68.09"/>
<polygon fill="#757575" stroke="#757575" points="136.29,-75.97 129.54,-67.8 129.73,-78.4 136.29,-75.97"/>
</g>
<!-- pages/Join.tsx&#45;&gt;components/Alert.tsx -->
<g id="edge43" class="edge">
<title>pages/Join.tsx&#45;&gt;components/Alert.tsx</title>
<path fill="none" stroke="#757575" d="M134.73,-88.01C134.74,-88.02 134.74,-88.03 134.74,-88.05"/>
<polygon fill="#757575" stroke="#757575" points="130.4,-78.4 134.74,-88.07 137.38,-77.81 130.4,-78.4"/>
</g>
<!-- components/FlagSelector.tsx -->
<g id="node15" class="node">
<title>components/FlagSelector.tsx</title>
<path fill="none" stroke="#cfffac" d="M230.58,-91.7C230.58,-91.7 54.91,-91.7 54.91,-91.7 51.08,-91.7 47.24,-87.86 47.24,-84.03 47.24,-84.03 47.24,-76.36 47.24,-76.36 47.24,-72.53 51.08,-68.7 54.91,-68.7 54.91,-68.7 230.58,-68.7 230.58,-68.7 234.41,-68.7 238.24,-72.53 238.24,-76.36 238.24,-76.36 238.24,-84.03 238.24,-84.03 238.24,-87.86 234.41,-91.7 230.58,-91.7"/>
<text text-anchor="middle" x="142.74" y="-76.5" font-family="Arial" font-size="14.00" fill="#cfffac">components/FlagSelector.tsx</text>
</g>
<!-- pages/Join.tsx&#45;&gt;components/FlagSelector.tsx -->
<g id="edge44" class="edge">
<title>pages/Join.tsx&#45;&gt;components/FlagSelector.tsx</title>
<path fill="none" stroke="#757575" d="M142.65,-80.19C142.66,-80.2 142.68,-80.2 142.69,-80.2"/>
<polygon fill="#757575" stroke="#757575" points="132.67,-83.55 142.72,-80.2 132.77,-76.55 132.67,-83.55"/>
</g>
<!-- components/LogoSelector.tsx -->
<g id="node18" class="node">
<title>components/LogoSelector.tsx</title>
<path fill="none" stroke="#c6c5fe" d="M224.68,-83.59C224.68,-83.59 46.01,-83.59 46.01,-83.59 42.18,-83.59 38.35,-79.76 38.35,-75.93 38.35,-75.93 38.35,-68.26 38.35,-68.26 38.35,-64.43 42.18,-60.59 46.01,-60.59 46.01,-60.59 224.68,-60.59 224.68,-60.59 228.51,-60.59 232.35,-64.43 232.35,-68.26 232.35,-68.26 232.35,-75.93 232.35,-75.93 232.35,-79.76 228.51,-83.59 224.68,-83.59"/>
<text text-anchor="middle" x="135.35" y="-68.39" font-family="Arial" font-size="14.00" fill="#c6c5fe">components/LogoSelector.tsx</text>
</g>
<!-- pages/Join.tsx&#45;&gt;components/LogoSelector.tsx -->
<g id="edge45" class="edge">
<title>pages/Join.tsx&#45;&gt;components/LogoSelector.tsx</title>
<path fill="none" stroke="#757575" d="M135.33,-72.18C135.33,-72.17 135.34,-72.16 135.34,-72.15"/>
<polygon fill="#757575" stroke="#757575" points="137.21,-82.55 135.34,-72.12 130.3,-81.44 137.21,-82.55"/>
</g>
<!-- pages/Lobby.tsx&#45;&gt;atoms/index.ts -->
<g id="edge47" class="edge">
<title>pages/Lobby.tsx&#45;&gt;atoms/index.ts</title>
<path fill="none" stroke="#757575" d="M85.03,-108.47C85.02,-108.46 85.01,-108.46 85,-108.45"/>
<polygon fill="#757575" stroke="#757575" points="95.34,-110.66 84.97,-108.43 91.68,-116.64 95.34,-110.66"/>
</g>
<!-- lib/types/supabase.ts -->
<g id="node9" class="node">
<title>lib/types/supabase.ts</title>
<path fill="none" stroke="#cfffac" d="M135.33,-103.98C135.33,-103.98 7.67,-103.98 7.67,-103.98 3.83,-103.98 0,-100.15 0,-96.32 0,-96.32 0,-88.65 0,-88.65 0,-84.82 3.83,-80.98 7.67,-80.98 7.67,-80.98 135.33,-80.98 135.33,-80.98 139.17,-80.98 143,-84.82 143,-88.65 143,-88.65 143,-96.32 143,-96.32 143,-100.15 139.17,-103.98 135.33,-103.98"/>
<text text-anchor="middle" x="71.5" y="-88.78" font-family="Arial" font-size="14.00" fill="#cfffac">lib/types/supabase.ts</text>
</g>
<!-- pages/Lobby.tsx&#45;&gt;lib/types/supabase.ts -->
<g id="edge51" class="edge">
<title>pages/Lobby.tsx&#45;&gt;lib/types/supabase.ts</title>
<path fill="none" stroke="#757575" d="M80.72,-101.43C80.64,-101.36 80.57,-101.29 80.49,-101.21"/>
<polygon fill="#757575" stroke="#757575" points="89.88,-105.45 80.27,-100.99 85.01,-110.47 89.88,-105.45"/>
</g>
<!-- pages/Lobby.tsx&#45;&gt;lib/mutations.ts -->
<g id="edge48" class="edge">
<title>pages/Lobby.tsx&#45;&gt;lib/mutations.ts</title>
<path fill="none" stroke="#757575" d="M99.47,-101.72C103.54,-94.51 108.89,-85.03 113.65,-76.58"/>
<polygon fill="#757575" stroke="#757575" points="116.83,-78.08 118.69,-67.65 110.73,-74.64 116.83,-78.08"/>
</g>
<!-- pages/Lobby.tsx&#45;&gt;lib/supabaseClient.ts -->
<g id="edge50" class="edge">
<title>pages/Lobby.tsx&#45;&gt;lib/supabaseClient.ts</title>
<path fill="none" stroke="#757575" d="M91.45,-101.57C90.46,-93.83 89.14,-83.45 87.97,-74.23"/>
<polygon fill="#757575" stroke="#757575" points="91.42,-73.65 86.68,-64.17 84.47,-74.53 91.42,-73.65"/>
</g>
<!-- lib/sessionHooks.ts -->
<g id="node31" class="node">
<title>lib/sessionHooks.ts</title>
<path fill="none" stroke="#c6c5fe" d="M159.28,-126.18C159.28,-126.18 42.62,-126.18 42.62,-126.18 38.78,-126.18 34.95,-122.35 34.95,-118.52 34.95,-118.52 34.95,-110.85 34.95,-110.85 34.95,-107.02 38.78,-103.18 42.62,-103.18 42.62,-103.18 159.28,-103.18 159.28,-103.18 163.12,-103.18 166.95,-107.02 166.95,-110.85 166.95,-110.85 166.95,-118.52 166.95,-118.52 166.95,-122.35 163.12,-126.18 159.28,-126.18"/>
<text text-anchor="middle" x="100.95" y="-110.98" font-family="Arial" font-size="14.00" fill="#c6c5fe">lib/sessionHooks.ts</text>
</g>
<!-- pages/Lobby.tsx&#45;&gt;lib/sessionHooks.ts -->
<g id="edge49" class="edge">
<title>pages/Lobby.tsx&#45;&gt;lib/sessionHooks.ts</title>
<path fill="none" stroke="#757575" d="M100.86,-114.67C100.88,-114.67 100.89,-114.67 100.9,-114.68"/>
<polygon fill="#757575" stroke="#757575" points="90.47,-116.39 100.93,-114.68 91.68,-109.49 90.47,-116.39"/>
</g>
<!-- pages/Quiz.tsx&#45;&gt;lib/mutations.ts -->
<g id="edge52" class="edge">
<title>pages/Quiz.tsx&#45;&gt;lib/mutations.ts</title>
<path fill="none" stroke="#757575" d="M100.92,-64.98C100.97,-64.96 101.02,-64.94 101.07,-64.92"/>
<polygon fill="#757575" stroke="#757575" points="93.03,-71.59 101.21,-64.87 90.62,-65.02 93.03,-71.59"/>
</g>
<!-- pages/Quiz.tsx&#45;&gt;lib/types.ts -->
<g id="edge55" class="edge">
<title>pages/Quiz.tsx&#45;&gt;lib/types.ts</title>
<path fill="none" stroke="#757575" d="M71.78,-68.57C71.78,-68.56 71.78,-68.54 71.79,-68.53"/>
<polygon fill="#757575" stroke="#757575" points="72.32,-79.09 71.8,-68.5 65.6,-77.11 72.32,-79.09"/>
</g>
<!-- lib/realtimeHooks.ts -->
<g id="node29" class="node">
<title>lib/realtimeHooks.ts</title>
<path fill="none" stroke="#c6c5fe" d="M129.25,-95.98C129.25,-95.98 9.58,-95.98 9.58,-95.98 5.75,-95.98 1.91,-92.15 1.91,-88.32 1.91,-88.32 1.91,-80.65 1.91,-80.65 1.91,-76.82 5.75,-72.98 9.58,-72.98 9.58,-72.98 129.25,-72.98 129.25,-72.98 133.08,-72.98 136.91,-76.82 136.91,-80.65 136.91,-80.65 136.91,-88.32 136.91,-88.32 136.91,-92.15 133.08,-95.98 129.25,-95.98"/>
<text text-anchor="middle" x="69.41" y="-80.78" font-family="Arial" font-size="14.00" fill="#c6c5fe">lib/realtimeHooks.ts</text>
</g>
<!-- pages/Quiz.tsx&#45;&gt;lib/realtimeHooks.ts -->
<g id="edge53" class="edge">
<title>pages/Quiz.tsx&#45;&gt;lib/realtimeHooks.ts</title>
<path fill="none" stroke="#757575" d="M69.41,-84.39C69.41,-84.41 69.41,-84.42 69.41,-84.43"/>
<polygon fill="#757575" stroke="#757575" points="66,-74.43 69.41,-84.46 73,-74.49 66,-74.43"/>
</g>
<!-- pages/Quiz.tsx&#45;&gt;lib/sessionHooks.ts -->
<g id="edge54" class="edge">
<title>pages/Quiz.tsx&#45;&gt;lib/sessionHooks.ts</title>
<path fill="none" stroke="#757575" d="M79.08,-88.15C80.91,-90.37 82.87,-92.75 84.84,-95.14"/>
<polygon fill="#757575" stroke="#757575" points="82.33,-97.6 91.39,-103.09 87.73,-93.14 82.33,-97.6"/>
</g>
<!-- pages/Results.tsx&#45;&gt;lib/mutations.ts -->
<g id="edge56" class="edge">
<title>pages/Results.tsx&#45;&gt;lib/mutations.ts</title>
<path fill="none" stroke="#757575" d="M112.24,-101.85C114.23,-94.85 116.81,-85.72 119.15,-77.46"/>
<polygon fill="#757575" stroke="#757575" points="122.57,-78.26 121.92,-67.68 115.83,-76.35 122.57,-78.26"/>
</g>
<!-- pages/Results.tsx&#45;&gt;lib/supabaseClient.ts -->
<g id="edge58" class="edge">
<title>pages/Results.tsx&#45;&gt;lib/supabaseClient.ts</title>
<path fill="none" stroke="#757575" d="M104.37,-101.7C101.28,-93.77 97.12,-83.08 93.46,-73.69"/>
<polygon fill="#757575" stroke="#757575" points="96.65,-72.25 89.76,-64.2 90.13,-74.79 96.65,-72.25"/>
</g>
<!-- pages/Results.tsx&#45;&gt;lib/sessionHooks.ts -->
<g id="edge57" class="edge">
<title>pages/Results.tsx&#45;&gt;lib/sessionHooks.ts</title>
<path fill="none" stroke="#757575" d="M101.04,-114.67C101.03,-114.67 101.01,-114.68 101,-114.68"/>
<polygon fill="#757575" stroke="#757575" points="110.32,-109.67 100.97,-114.68 111.4,-116.59 110.32,-109.67"/>
</g>
<!-- atoms/index.ts&#45;&gt;lib/types/supabase.ts -->
<g id="edge7" class="edge">
<title>atoms/index.ts&#45;&gt;lib/types/supabase.ts</title>
<path fill="none" stroke="#757575" d="M75.17,-96.84C75.11,-96.76 75.04,-96.68 74.98,-96.61"/>
<polygon fill="#757575" stroke="#757575" points="83.91,-101.77 74.79,-96.38 78.56,-106.28 83.91,-101.77"/>
</g>
<!-- components/ActiveGames.tsx&#45;&gt;lib/mutations.ts -->
<g id="edge8" class="edge">
<title>components/ActiveGames.tsx&#45;&gt;lib/mutations.ts</title>
<path fill="none" stroke="#757575" d="M129.54,-84.31C129.21,-82.18 128.86,-79.89 128.51,-77.58"/>
<polygon fill="#757575" stroke="#757575" points="131.96,-77.01 126.98,-67.66 125.04,-78.07 131.96,-77.01"/>
</g>
<!-- lib/mutations.ts&#45;&gt;lib/supabaseClient.ts -->
<g id="edge19" class="edge">
<title>lib/mutations.ts&#45;&gt;lib/supabaseClient.ts</title>
<path fill="none" stroke="#757575" d="M85.31,-52.49C85.29,-52.49 85.27,-52.49 85.26,-52.48"/>
<polygon fill="#757575" stroke="#757575" points="95.5,-49.92 85.22,-52.48 94.86,-56.89 95.5,-49.92"/>
</g>
<!-- lib/mutations.ts&#45;&gt;lib/types.ts -->
<g id="edge20" class="edge">
<title>lib/mutations.ts&#45;&gt;lib/types.ts</title>
<path fill="none" stroke="#757575" d="M75.31,-67.67C75.24,-67.68 75.17,-67.7 75.1,-67.71"/>
<polygon fill="#757575" stroke="#757575" points="83.85,-62.09 74.9,-67.76 85.44,-68.91 83.85,-62.09"/>
</g>
<!-- components/Flag.tsx -->
<g id="node13" class="node">
<title>components/Flag.tsx</title>
<path fill="none" stroke="#c6c5fe" d="M387.07,-227C387.07,-227 260.4,-227 260.4,-227 256.57,-227 252.73,-223.17 252.73,-219.33 252.73,-219.33 252.73,-211.67 252.73,-211.67 252.73,-207.83 256.57,-204 260.4,-204 260.4,-204 387.07,-204 387.07,-204 390.9,-204 394.73,-207.83 394.73,-211.67 394.73,-211.67 394.73,-219.33 394.73,-219.33 394.73,-223.17 390.9,-227 387.07,-227"/>
<text text-anchor="middle" x="323.73" y="-211.8" font-family="Arial" font-size="14.00" fill="#c6c5fe">components/Flag.tsx</text>
</g>
<!-- lib/flagIcons.ts -->
<g id="node14" class="node">
<title>lib/flagIcons.ts</title>
<path fill="none" stroke="#cfffac" d="M375.07,-227C375.07,-227 288.4,-227 288.4,-227 284.57,-227 280.73,-223.17 280.73,-219.33 280.73,-219.33 280.73,-211.67 280.73,-211.67 280.73,-207.83 284.57,-204 288.4,-204 288.4,-204 375.07,-204 375.07,-204 378.9,-204 382.73,-207.83 382.73,-211.67 382.73,-211.67 382.73,-219.33 382.73,-219.33 382.73,-223.17 378.9,-227 375.07,-227"/>
<text text-anchor="middle" x="331.73" y="-211.8" font-family="Arial" font-size="14.00" fill="#cfffac">lib/flagIcons.ts</text>
</g>
<!-- components/Flag.tsx&#45;&gt;lib/flagIcons.ts -->
<g id="edge9" class="edge">
<title>components/Flag.tsx&#45;&gt;lib/flagIcons.ts</title>
<path fill="none" stroke="#757575" d="M331.64,-215.5C331.66,-215.5 331.67,-215.5 331.68,-215.5"/>
<polygon fill="#757575" stroke="#757575" points="321.72,-219.04 331.71,-215.5 321.7,-212.04 321.72,-219.04"/>
</g>
<!-- components/LobbyStatus.tsx&#45;&gt;lib/supabaseClient.ts -->
<g id="edge10" class="edge">
<title>components/LobbyStatus.tsx&#45;&gt;lib/supabaseClient.ts</title>
<path fill="none" stroke="#757575" d="M85.24,-52.46C85.23,-52.47 85.22,-52.47 85.22,-52.47"/>
<polygon fill="#757575" stroke="#757575" points="93.42,-45.76 85.2,-52.47 95.82,-52.35 93.42,-45.76"/>
</g>
<!-- components/LogoSelector.tsx&#45;&gt;lib/supabaseClient.ts -->
<g id="edge11" class="edge">
<title>components/LogoSelector.tsx&#45;&gt;lib/supabaseClient.ts</title>
<path fill="none" stroke="#757575" d="M105.88,-60.57C105.84,-60.55 105.8,-60.54 105.75,-60.52"/>
<polygon fill="#757575" stroke="#757575" points="116.22,-60.86 105.63,-60.47 113.66,-67.38 116.22,-60.86"/>
</g>
<!-- components/PasswordModal.test.tsx -->
<g id="node19" class="node">
<title>components/PasswordModal.test.tsx</title>
<path fill="none" stroke="#c6c5fe" d="M253.12,-133.38C253.12,-133.38 30.45,-133.38 30.45,-133.38 26.62,-133.38 22.79,-129.54 22.79,-125.71 22.79,-125.71 22.79,-118.04 22.79,-118.04 22.79,-114.21 26.62,-110.38 30.45,-110.38 30.45,-110.38 253.12,-110.38 253.12,-110.38 256.95,-110.38 260.79,-114.21 260.79,-118.04 260.79,-118.04 260.79,-125.71 260.79,-125.71 260.79,-129.54 256.95,-133.38 253.12,-133.38"/>
<text text-anchor="middle" x="141.79" y="-118.18" font-family="Arial" font-size="14.00" fill="#c6c5fe">components/PasswordModal.test.tsx</text>
</g>
<!-- components/PasswordModal.test.tsx&#45;&gt;components/PasswordModal.tsx -->
<g id="edge12" class="edge">
<title>components/PasswordModal.test.tsx&#45;&gt;components/PasswordModal.tsx</title>
<path fill="none" stroke="#757575" d="M134.23,-113.96C134.22,-113.95 134.21,-113.94 134.2,-113.93"/>
<polygon fill="#757575" stroke="#757575" points="143.62,-118.72 134.17,-113.9 138.55,-123.56 143.62,-118.72"/>
</g>
<!-- components/TeamLogoPicker.test.tsx -->
<g id="node21" class="node">
<title>components/TeamLogoPicker.test.tsx</title>
<path fill="none" stroke="#c6c5fe" d="M438.83,-179C438.83,-179 212.16,-179 212.16,-179 208.33,-179 204.49,-175.17 204.49,-171.33 204.49,-171.33 204.49,-163.67 204.49,-163.67 204.49,-159.83 208.33,-156 212.16,-156 212.16,-156 438.83,-156 438.83,-156 442.66,-156 446.49,-159.83 446.49,-163.67 446.49,-163.67 446.49,-171.33 446.49,-171.33 446.49,-175.17 442.66,-179 438.83,-179"/>
<text text-anchor="middle" x="325.49" y="-163.8" font-family="Arial" font-size="14.00" fill="#c6c5fe">components/TeamLogoPicker.test.tsx</text>
</g>
<!-- components/TeamLogoPicker.tsx -->
<g id="node22" class="node">
<title>components/TeamLogoPicker.tsx</title>
<path fill="none" stroke="#cfffac" d="M433.83,-179C433.83,-179 233.16,-179 233.16,-179 229.33,-179 225.49,-175.17 225.49,-171.33 225.49,-171.33 225.49,-163.67 225.49,-163.67 225.49,-159.83 229.33,-156 233.16,-156 233.16,-156 433.83,-156 433.83,-156 437.66,-156 441.49,-159.83 441.49,-163.67 441.49,-163.67 441.49,-171.33 441.49,-171.33 441.49,-175.17 437.66,-179 433.83,-179"/>
<text text-anchor="middle" x="333.49" y="-163.8" font-family="Arial" font-size="14.00" fill="#cfffac">components/TeamLogoPicker.tsx</text>
</g>
<!-- components/TeamLogoPicker.test.tsx&#45;&gt;components/TeamLogoPicker.tsx -->
<g id="edge13" class="edge">
<title>components/TeamLogoPicker.test.tsx&#45;&gt;components/TeamLogoPicker.tsx</title>
<path fill="none" stroke="#757575" d="M333.4,-167.5C333.42,-167.5 333.43,-167.5 333.44,-167.5"/>
<polygon fill="#757575" stroke="#757575" points="323.48,-171.04 333.47,-167.5 323.46,-164.04 323.48,-171.04"/>
</g>
<!-- index.css -->
<g id="node23" class="node">
<title>index.css</title>
<path fill="none" stroke="#cfffac" d="M156.83,-138.32C156.83,-138.32 99.17,-138.32 99.17,-138.32 95.33,-138.32 91.5,-134.49 91.5,-130.65 91.5,-130.65 91.5,-122.99 91.5,-122.99 91.5,-119.15 95.33,-115.32 99.17,-115.32 99.17,-115.32 156.83,-115.32 156.83,-115.32 160.67,-115.32 164.5,-119.15 164.5,-122.99 164.5,-122.99 164.5,-130.65 164.5,-130.65 164.5,-134.49 160.67,-138.32 156.83,-138.32"/>
<text text-anchor="middle" x="128" y="-123.12" font-family="Arial" font-size="14.00" fill="#cfffac">index.css</text>
</g>
<!-- lib/createSession.test.ts -->
<g id="node24" class="node">
<title>lib/createSession.test.ts</title>
<path fill="none" stroke="#c6c5fe" d="M165.03,-59.7C165.03,-59.7 21.36,-59.7 21.36,-59.7 17.53,-59.7 13.69,-55.87 13.69,-52.04 13.69,-52.04 13.69,-44.37 13.69,-44.37 13.69,-40.54 17.53,-36.7 21.36,-36.7 21.36,-36.7 165.03,-36.7 165.03,-36.7 168.86,-36.7 172.69,-40.54 172.69,-44.37 172.69,-44.37 172.69,-52.04 172.69,-52.04 172.69,-55.87 168.86,-59.7 165.03,-59.7"/>
<text text-anchor="middle" x="93.19" y="-44.5" font-family="Arial" font-size="14.00" fill="#c6c5fe">lib/createSession.test.ts</text>
</g>
<!-- lib/createSession.test.ts&#45;&gt;lib/mutations.ts -->
<g id="edge14" class="edge">
<title>lib/createSession.test.ts&#45;&gt;lib/mutations.ts</title>
<path fill="none" stroke="#757575" d="M125.12,-56.07C125.13,-56.07 125.14,-56.08 125.16,-56.08"/>
<polygon fill="#757575" stroke="#757575" points="114.63,-57.07 125.18,-56.09 116.32,-50.27 114.63,-57.07"/>
</g>
<!-- lib/createSession.test.ts&#45;&gt;lib/supabaseClient.ts -->
<g id="edge15" class="edge">
<title>lib/createSession.test.ts&#45;&gt;lib/supabaseClient.ts</title>
<path fill="none" stroke="#757575" d="M85.28,-52.43C85.27,-52.44 85.25,-52.45 85.24,-52.45"/>
<polygon fill="#757575" stroke="#757575" points="92.38,-44.65 85.21,-52.47 95.69,-50.83 92.38,-44.65"/>
</g>
<!-- lib/mutations.test.ts -->
<g id="node25" class="node">
<title>lib/mutations.test.ts</title>
<path fill="none" stroke="#c6c5fe" d="M136.23,-71.98C136.23,-71.98 18.57,-71.98 18.57,-71.98 14.73,-71.98 10.9,-68.15 10.9,-64.31 10.9,-64.31 10.9,-56.65 10.9,-56.65 10.9,-52.81 14.73,-48.98 18.57,-48.98 18.57,-48.98 136.23,-48.98 136.23,-48.98 140.07,-48.98 143.9,-52.81 143.9,-56.65 143.9,-56.65 143.9,-64.31 143.9,-64.31 143.9,-68.15 140.07,-71.98 136.23,-71.98"/>
<text text-anchor="middle" x="77.4" y="-56.78" font-family="Arial" font-size="14.00" fill="#c6c5fe">lib/mutations.test.ts</text>
</g>
<!-- lib/mutations.test.ts&#45;&gt;lib/mutations.ts -->
<g id="edge16" class="edge">
<title>lib/mutations.test.ts&#45;&gt;lib/mutations.ts</title>
<path fill="none" stroke="#757575" d="M125.07,-56.1C125.09,-56.1 125.11,-56.1 125.13,-56.1"/>
<polygon fill="#757575" stroke="#757575" points="115.54,-60.52 125.17,-56.09 114.89,-53.54 115.54,-60.52"/>
</g>
<!-- lib/mutations.test.ts&#45;&gt;lib/supabaseClient.ts -->
<g id="edge17" class="edge">
<title>lib/mutations.test.ts&#45;&gt;lib/supabaseClient.ts</title>
<path fill="none" stroke="#757575" d="M85.1,-52.57C85.12,-52.55 85.13,-52.54 85.14,-52.53"/>
<polygon fill="#757575" stroke="#757575" points="80.69,-62.12 85.17,-52.5 75.67,-57.23 80.69,-62.12"/>
</g>
<!-- lib/mutations.test.ts&#45;&gt;lib/types.ts -->
<g id="edge18" class="edge">
<title>lib/mutations.test.ts&#45;&gt;lib/types.ts</title>
<path fill="none" stroke="#757575" d="M71.87,-68.39C71.85,-68.41 71.85,-68.42 71.84,-68.43"/>
<polygon fill="#757575" stroke="#757575" points="74.69,-58.25 71.82,-68.46 80.43,-62.27 74.69,-58.25"/>
</g>
<!-- lib/types/index.ts -->
<g id="node32" class="node">
<title>lib/types/index.ts</title>
<path fill="none" stroke="#c6c5fe" d="M127.27,-111.99C127.27,-111.99 26.61,-111.99 26.61,-111.99 22.77,-111.99 18.94,-108.15 18.94,-104.32 18.94,-104.32 18.94,-96.65 18.94,-96.65 18.94,-92.82 22.77,-88.99 26.61,-88.99 26.61,-88.99 127.27,-88.99 127.27,-88.99 131.11,-88.99 134.94,-92.82 134.94,-96.65 134.94,-96.65 134.94,-104.32 134.94,-104.32 134.94,-108.15 131.11,-111.99 127.27,-111.99"/>
<text text-anchor="middle" x="76.94" y="-96.79" font-family="Arial" font-size="14.00" fill="#c6c5fe">lib/types/index.ts</text>
</g>
<!-- lib/types.ts&#45;&gt;lib/types/index.ts -->
<g id="edge28" class="edge">
<title>lib/types.ts&#45;&gt;lib/types/index.ts</title>
<path fill="none" stroke="#757575" d="M73.66,-80.04C73.67,-80.12 73.69,-80.21 73.7,-80.3"/>
<polygon fill="#757575" stroke="#757575" points="70.03,-79.52 75.07,-88.84 76.94,-78.41 70.03,-79.52"/>
</g>
<!-- lib/mutations.validation.ts -->
<g id="node27" class="node">
<title>lib/mutations.validation.ts</title>
<path fill="none" stroke="#cfffac" d="M388.65,-23C388.65,-23 235.99,-23 235.99,-23 232.15,-23 228.32,-19.17 228.32,-15.33 228.32,-15.33 228.32,-7.67 228.32,-7.67 228.32,-3.83 232.15,0 235.99,0 235.99,0 388.65,0 388.65,0 392.49,0 396.32,-3.83 396.32,-7.67 396.32,-7.67 396.32,-15.33 396.32,-15.33 396.32,-19.17 392.49,-23 388.65,-23"/>
<text text-anchor="middle" x="312.32" y="-7.8" font-family="Arial" font-size="14.00" fill="#cfffac">lib/mutations.validation.ts</text>
</g>
<!-- lib/presence.ts&#45;&gt;lib/mutations.ts -->
<g id="edge21" class="edge">
<title>lib/presence.ts&#45;&gt;lib/mutations.ts</title>
<path fill="none" stroke="#757575" d="M125.12,-56.02C125.13,-56.03 125.15,-56.04 125.16,-56.05"/>
<polygon fill="#757575" stroke="#757575" points="115.24,-52.38 125.19,-56.07 119.71,-46.99 115.24,-52.38"/>
</g>
<!-- lib/presence.ts&#45;&gt;lib/supabaseClient.ts -->
<g id="edge22" class="edge">
<title>lib/presence.ts&#45;&gt;lib/supabaseClient.ts</title>
<path fill="none" stroke="#757575" d="M85.28,-52.47C85.27,-52.47 85.26,-52.47 85.24,-52.47"/>
<polygon fill="#757575" stroke="#757575" points="94.83,-48.02 85.21,-52.48 95.51,-54.99 94.83,-48.02"/>
</g>
<!-- lib/realtimeHooks.ts&#45;&gt;lib/supabaseClient.ts -->
<g id="edge23" class="edge">
<title>lib/realtimeHooks.ts&#45;&gt;lib/supabaseClient.ts</title>
<path fill="none" stroke="#757575" d="M75.11,-72.93C75.15,-72.84 75.2,-72.75 75.24,-72.66"/>
<polygon fill="#757575" stroke="#757575" points="78.17,-74.64 79.45,-64.12 71.89,-71.55 78.17,-74.64"/>
</g>
<!-- lib/realtimeHooks.ts&#45;&gt;lib/types.ts -->
<g id="edge24" class="edge">
<title>lib/realtimeHooks.ts&#45;&gt;lib/types.ts</title>
<path fill="none" stroke="#757575" d="M71.15,-72.85C71.16,-72.78 71.17,-72.7 71.18,-72.62"/>
<polygon fill="#757575" stroke="#757575" points="73.2,-82.8 71.22,-72.4 66.28,-81.77 73.2,-82.8"/>
</g>
<!-- lib/sessionCode.test.ts -->
<g id="node30" class="node">
<title>lib/sessionCode.test.ts</title>
<path fill="none" stroke="#c6c5fe" d="M177.53,-58.24C177.53,-58.24 40.87,-58.24 40.87,-58.24 37.03,-58.24 33.2,-54.41 33.2,-50.58 33.2,-50.58 33.2,-42.91 33.2,-42.91 33.2,-39.08 37.03,-35.24 40.87,-35.24 40.87,-35.24 177.53,-35.24 177.53,-35.24 181.37,-35.24 185.2,-39.08 185.2,-42.91 185.2,-42.91 185.2,-50.58 185.2,-50.58 185.2,-54.41 181.37,-58.24 177.53,-58.24"/>
<text text-anchor="middle" x="109.2" y="-43.04" font-family="Arial" font-size="14.00" fill="#c6c5fe">lib/sessionCode.test.ts</text>
</g>
<!-- lib/sessionCode.test.ts&#45;&gt;lib/mutations.ts -->
<g id="edge25" class="edge">
<title>lib/sessionCode.test.ts&#45;&gt;lib/mutations.ts</title>
<path fill="none" stroke="#757575" d="M125.16,-56.06C125.17,-56.07 125.18,-56.07 125.18,-56.08"/>
<polygon fill="#757575" stroke="#757575" points="114.78,-54.04 125.2,-56.08 118.33,-47.99 114.78,-54.04"/>
</g>
<!-- lib/sessionCode.test.ts&#45;&gt;lib/supabaseClient.ts -->
<g id="edge26" class="edge">
<title>lib/sessionCode.test.ts&#45;&gt;lib/supabaseClient.ts</title>
<path fill="none" stroke="#757575" d="M85.26,-52.46C85.25,-52.47 85.24,-52.47 85.23,-52.47"/>
<polygon fill="#757575" stroke="#757575" points="94.11,-46.71 85.21,-52.47 95.76,-53.52 94.11,-46.71"/>
</g>
<!-- lib/sessionHooks.ts&#45;&gt;lib/supabaseClient.ts -->
<g id="edge27" class="edge">
<title>lib/sessionHooks.ts&#45;&gt;lib/supabaseClient.ts</title>
<path fill="none" stroke="#757575" d="M97.99,-102.98C95.92,-94.82 93.1,-83.68 90.63,-73.94"/>
<polygon fill="#757575" stroke="#757575" points="93.99,-72.96 88.14,-64.13 87.21,-74.68 93.99,-72.96"/>
</g>
<!-- lib/types/index.ts&#45;&gt;lib/types/supabase.ts -->
<g id="edge29" class="edge">
<title>lib/types/index.ts&#45;&gt;lib/types/supabase.ts</title>
<path fill="none" stroke="#757575" d="M71.56,-92.57C71.55,-92.56 71.54,-92.55 71.53,-92.54"/>
<polygon fill="#757575" stroke="#757575" points="80.05,-98.81 71.52,-92.51 74.25,-102.75 80.05,-98.81"/>
</g>
<!-- main.tsx -->
<g id="node33" class="node">
<title>main.tsx</title>
<path fill="none" stroke="#c6c5fe" d="M150.2,-130.22C150.2,-130.22 97.53,-130.22 97.53,-130.22 93.7,-130.22 89.87,-126.39 89.87,-122.56 89.87,-122.56 89.87,-114.89 89.87,-114.89 89.87,-111.06 93.7,-107.22 97.53,-107.22 97.53,-107.22 150.2,-107.22 150.2,-107.22 154.03,-107.22 157.87,-111.06 157.87,-114.89 157.87,-114.89 157.87,-122.56 157.87,-122.56 157.87,-126.39 154.03,-130.22 150.2,-130.22"/>
<text text-anchor="middle" x="123.87" y="-115.02" font-family="Arial" font-size="14.00" fill="#c6c5fe">main.tsx</text>
</g>
<!-- main.tsx&#45;&gt;App.tsx -->
<g id="edge30" class="edge">
<title>main.tsx&#45;&gt;App.tsx</title>
<path fill="none" stroke="#757575" d="M117.03,-110.81C117.02,-110.79 117.01,-110.78 117,-110.77"/>
<polygon fill="#757575" stroke="#757575" points="126.17,-116.03 116.98,-110.74 120.87,-120.61 126.17,-116.03"/>
</g>
<!-- main.tsx&#45;&gt;index.css -->
<g id="edge31" class="edge">
<title>main.tsx&#45;&gt;index.css</title>
<path fill="none" stroke="#757575" d="M127.95,-126.73C127.96,-126.74 127.97,-126.76 127.97,-126.77"/>
<polygon fill="#757575" stroke="#757575" points="120.3,-119.49 127.99,-126.8 126.54,-116.29 120.3,-119.49"/>
</g>
<!-- setupTests.ts -->
<g id="node34" class="node">
<title>setupTests.ts</title>
<path fill="none" stroke="#cfffac" d="M172.15,-191C172.15,-191 92.49,-191 92.49,-191 88.65,-191 84.82,-187.17 84.82,-183.33 84.82,-183.33 84.82,-175.67 84.82,-175.67 84.82,-171.83 88.65,-168 92.49,-168 92.49,-168 172.15,-168 172.15,-168 175.99,-168 179.82,-171.83 179.82,-175.67 179.82,-175.67 179.82,-183.33 179.82,-183.33 179.82,-187.17 175.99,-191 172.15,-191"/>
<text text-anchor="middle" x="132.32" y="-175.8" font-family="Arial" font-size="14.00" fill="#cfffac">setupTests.ts</text>
</g>
</g>
</svg>
